G04 #@! TF.GenerationSoftware,KiCad,Pcbnew,(5.1.0-1387-g9cf427c7d)*
G04 #@! TF.CreationDate,2019-07-29T17:15:49-07:00*
G04 #@! TF.ProjectId,max_breakout,6d61785f-6272-4656-916b-6f75742e6b69,1.0*
G04 #@! TF.SameCoordinates,Original*
G04 #@! TF.FileFunction,Copper,L3,Inr*
G04 #@! TF.FilePolarity,Positive*
%FSLAX46Y46*%
G04 Gerber Fmt 4.6, Leading zero omitted, Abs format (unit mm)*
G04 Created by KiCad (PCBNEW (5.1.0-1387-g9cf427c7d)) date 2019-07-29 17:15:49*
%MOMM*%
%LPD*%
G04 APERTURE LIST*
%ADD10O,1.000000X1.000000*%
%ADD11R,1.000000X1.000000*%
%ADD12O,1.700000X1.700000*%
%ADD13R,1.700000X1.700000*%
%ADD14O,1.900000X1.200000*%
%ADD15C,1.450000*%
%ADD16C,0.457200*%
%ADD17C,0.254000*%
G04 APERTURE END LIST*
D10*
X117729000Y-116903500D03*
D11*
X118999000Y-116903500D03*
D12*
X151892000Y-114554000D03*
X149352000Y-114554000D03*
X151892000Y-112014000D03*
X149352000Y-112014000D03*
X151892000Y-109474000D03*
X149352000Y-109474000D03*
X151892000Y-106934000D03*
X149352000Y-106934000D03*
X151892000Y-104394000D03*
D13*
X149352000Y-104394000D03*
D10*
X120497600Y-116890800D03*
D11*
X121767600Y-116890800D03*
D10*
X114909600Y-116890800D03*
D11*
X116179600Y-116890800D03*
D12*
X159766000Y-98044000D03*
X157226000Y-98044000D03*
X154686000Y-98044000D03*
X152146000Y-98044000D03*
X149606000Y-98044000D03*
X147066000Y-98044000D03*
X144526000Y-98044000D03*
X141986000Y-98044000D03*
X139446000Y-98044000D03*
X136906000Y-98044000D03*
X134366000Y-98044000D03*
X131826000Y-98044000D03*
X129286000Y-98044000D03*
X126746000Y-98044000D03*
X124206000Y-98044000D03*
X121666000Y-98044000D03*
X119126000Y-98044000D03*
X116586000Y-98044000D03*
D13*
X114046000Y-98044000D03*
D12*
X159766000Y-120904000D03*
X157226000Y-120904000D03*
X154686000Y-120904000D03*
X152146000Y-120904000D03*
X149606000Y-120904000D03*
X147066000Y-120904000D03*
X144526000Y-120904000D03*
X141986000Y-120904000D03*
X139446000Y-120904000D03*
X136906000Y-120904000D03*
X134366000Y-120904000D03*
X131826000Y-120904000D03*
X129286000Y-120904000D03*
X126746000Y-120904000D03*
X124206000Y-120904000D03*
X121666000Y-120904000D03*
X119126000Y-120904000D03*
X116586000Y-120904000D03*
D13*
X114046000Y-120904000D03*
D14*
X160114500Y-105969000D03*
X160114500Y-112969000D03*
D15*
X157414500Y-106969000D03*
X157414500Y-111969000D03*
D16*
X115316000Y-113030000D03*
X118618000Y-114808000D03*
X141478000Y-117602000D03*
X140970000Y-116586000D03*
X119189500Y-99695000D03*
X119071208Y-101057023D03*
X127740211Y-99038211D03*
X122707400Y-99164790D03*
X143256000Y-103568500D03*
X131826000Y-115379500D03*
X158750000Y-111569500D03*
X154444299Y-113427799D03*
X125666500Y-106616500D03*
X126428500Y-106997500D03*
X141732000Y-115570000D03*
X127696128Y-106445834D03*
X127071000Y-106243000D03*
X132775302Y-108200802D03*
X145269354Y-115560648D03*
X144796556Y-116514569D03*
X143867962Y-110948511D03*
X158178500Y-113474500D03*
X158750000Y-102933500D03*
X123804234Y-105098889D03*
X125539590Y-107972671D03*
X122254427Y-107253199D03*
X122193445Y-105538766D03*
X126986527Y-103821398D03*
X127306378Y-102691277D03*
X127793194Y-103167047D03*
X123190000Y-112268000D03*
X123019916Y-108267678D03*
X123190000Y-108902500D03*
X123190000Y-110490000D03*
X129691750Y-115354750D03*
X125028231Y-115009559D03*
X132270500Y-107061000D03*
X128460500Y-103695500D03*
X129438400Y-102838279D03*
X130127148Y-108911330D03*
X129025297Y-109376114D03*
X136133210Y-117845210D03*
X130089935Y-118350011D03*
X131873472Y-119712043D03*
X130747146Y-118350020D03*
X131876801Y-118350020D03*
X133856049Y-117340400D03*
X126746000Y-117602000D03*
X117729000Y-115506500D03*
X120673682Y-109762027D03*
X123137422Y-114582117D03*
X123016827Y-111597119D03*
X121329704Y-109722486D03*
X123191462Y-116083254D03*
X121116811Y-115609786D03*
X121602500Y-108648500D03*
X129646451Y-106408661D03*
X129003180Y-106274017D03*
X131699000Y-100838000D03*
X132202388Y-103746200D03*
X124202810Y-113906921D03*
X121666000Y-119241743D03*
X122876601Y-117527301D03*
X126873000Y-113411000D03*
X159766000Y-116717500D03*
X142240000Y-115062000D03*
X128664511Y-112079399D03*
X127802231Y-112079400D03*
X126499383Y-112226711D03*
X125730000Y-111950500D03*
X129982118Y-112178041D03*
X154686000Y-118237000D03*
X149352000Y-119507000D03*
X157226000Y-119507000D03*
X134686690Y-110236000D03*
X132619779Y-112776522D03*
X132619779Y-110185200D03*
X132416073Y-99825190D03*
X148844000Y-101539632D03*
X152762474Y-100597980D03*
X148153841Y-99825190D03*
X113598310Y-102640045D03*
X114617500Y-100838000D03*
X113093500Y-100330000D03*
X113093500Y-113728500D03*
X119503810Y-114757200D03*
X129660943Y-120130286D03*
X124206000Y-119813652D03*
X119126000Y-118889332D03*
X157353000Y-103124000D03*
X160845500Y-101790500D03*
X159702500Y-104838500D03*
X144938721Y-105968800D03*
X144938721Y-103535769D03*
X146182338Y-102816010D03*
X129990938Y-113399155D03*
X115620800Y-108559600D03*
X155905200Y-111455200D03*
X136144000Y-105156000D03*
X137769600Y-107391200D03*
X140106400Y-105460800D03*
X138887200Y-111252000D03*
X139293600Y-113741200D03*
X132588000Y-111048800D03*
X135280400Y-113588800D03*
X117906800Y-114554000D03*
X155041590Y-103682801D03*
X143865600Y-108610400D03*
X154235556Y-109030409D03*
X156248161Y-108802937D03*
X155238350Y-108880845D03*
X154076400Y-106172000D03*
X153974800Y-100685600D03*
X157327600Y-99872800D03*
X143865600Y-107899200D03*
X148155451Y-107411140D03*
X146507200Y-105613201D03*
X132943600Y-116281200D03*
X133705600Y-101854000D03*
X145948400Y-106172000D03*
X138531600Y-102412800D03*
X149250400Y-102311200D03*
X144881600Y-110366190D03*
X146608800Y-115773200D03*
X141173200Y-109464390D03*
X137718800Y-118062390D03*
X140106400Y-118719600D03*
X138475604Y-118918643D03*
X136906000Y-118920578D03*
X139344400Y-116535200D03*
X114554000Y-109474000D03*
X117602000Y-108102400D03*
X116535200Y-108661200D03*
X117902999Y-109750211D03*
X116309457Y-109750211D03*
X119350174Y-109750211D03*
X136093200Y-107797600D03*
X133792013Y-106204902D03*
X134188564Y-105680808D03*
X134823200Y-105308400D03*
X133248393Y-118564010D03*
X134416800Y-118916421D03*
X135342511Y-119950111D03*
X155041600Y-100685600D03*
X131206000Y-104709200D03*
X120497600Y-103124000D03*
X114046000Y-116024010D03*
X113814210Y-105641976D03*
X113842800Y-114554000D03*
X143713200Y-100990400D03*
X142777118Y-101644411D03*
X123037600Y-103530400D03*
X122936000Y-102768400D03*
X125054835Y-109850067D03*
X120091200Y-113182400D03*
X118775731Y-113225329D03*
X116586000Y-118171811D03*
X120243600Y-106019600D03*
X145645143Y-101440330D03*
X123667243Y-106426000D03*
X124676855Y-106540517D03*
X137007600Y-109423200D03*
X137515600Y-109423200D03*
X137515600Y-108915200D03*
X137007600Y-108915200D03*
X136499600Y-108915200D03*
X136499600Y-109423200D03*
X137007600Y-109931200D03*
X137515600Y-109931200D03*
X136526355Y-109904445D03*
X134247184Y-109307094D03*
X136906000Y-112268000D03*
X148593190Y-118261405D03*
X147224779Y-111039378D03*
X127262376Y-100047403D03*
X116649500Y-99571190D03*
X124945588Y-101242192D03*
X125730000Y-103249789D03*
X118110000Y-100838000D03*
D17*
G36*
X123411795Y-117218307D02*
G01*
X123273836Y-117053895D01*
X123087966Y-116946582D01*
X122876601Y-116909313D01*
X122665236Y-116946582D01*
X122652576Y-116953891D01*
X122652576Y-116382104D01*
X122656268Y-116392248D01*
X122794227Y-116556660D01*
X122980097Y-116663973D01*
X123191462Y-116701242D01*
X123402827Y-116663973D01*
X123588697Y-116556660D01*
X123726656Y-116392248D01*
X123800061Y-116190566D01*
X123800061Y-116173888D01*
X132335001Y-116173888D01*
X132335001Y-116388512D01*
X132408406Y-116590194D01*
X132546365Y-116754606D01*
X132732235Y-116861919D01*
X132943600Y-116899188D01*
X133154965Y-116861919D01*
X133340835Y-116754606D01*
X133478794Y-116590194D01*
X133537867Y-116427888D01*
X138735801Y-116427888D01*
X138735801Y-116642512D01*
X138809206Y-116844194D01*
X138947165Y-117008606D01*
X139133035Y-117115919D01*
X139344400Y-117153188D01*
X139555765Y-117115919D01*
X139741635Y-117008606D01*
X139879594Y-116844194D01*
X139952999Y-116642512D01*
X139952999Y-116478688D01*
X140361401Y-116478688D01*
X140361401Y-116693312D01*
X140434806Y-116894994D01*
X140572765Y-117059406D01*
X140758635Y-117166719D01*
X140970000Y-117203988D01*
X141025750Y-117194158D01*
X140942806Y-117293006D01*
X140869401Y-117494688D01*
X140869401Y-117709312D01*
X140942806Y-117910994D01*
X141080765Y-118075406D01*
X141266635Y-118182719D01*
X141478000Y-118219988D01*
X141689365Y-118182719D01*
X141738946Y-118154093D01*
X147984591Y-118154093D01*
X147984591Y-118368717D01*
X148057996Y-118570399D01*
X148195955Y-118734811D01*
X148381825Y-118842124D01*
X148593190Y-118879393D01*
X148804555Y-118842124D01*
X148990425Y-118734811D01*
X149128384Y-118570399D01*
X149201789Y-118368717D01*
X149201789Y-118154093D01*
X149192907Y-118129688D01*
X154077401Y-118129688D01*
X154077401Y-118344312D01*
X154150806Y-118545994D01*
X154288765Y-118710406D01*
X154474635Y-118817719D01*
X154686000Y-118854988D01*
X154897365Y-118817719D01*
X155083235Y-118710406D01*
X155221194Y-118545994D01*
X155294599Y-118344312D01*
X155294599Y-118129688D01*
X155221194Y-117928006D01*
X155083235Y-117763594D01*
X154897365Y-117656281D01*
X154686000Y-117619012D01*
X154474635Y-117656281D01*
X154288765Y-117763594D01*
X154150806Y-117928006D01*
X154077401Y-118129688D01*
X149192907Y-118129688D01*
X149128384Y-117952411D01*
X148990425Y-117787999D01*
X148804555Y-117680686D01*
X148593190Y-117643417D01*
X148381825Y-117680686D01*
X148195955Y-117787999D01*
X148057996Y-117952411D01*
X147984591Y-118154093D01*
X141738946Y-118154093D01*
X141875235Y-118075406D01*
X142013194Y-117910994D01*
X142086599Y-117709312D01*
X142086599Y-117494688D01*
X142013194Y-117293006D01*
X141875235Y-117128594D01*
X141689365Y-117021281D01*
X141478000Y-116984012D01*
X141422250Y-116993842D01*
X141505194Y-116894994D01*
X141578599Y-116693312D01*
X141578599Y-116478688D01*
X141552601Y-116407257D01*
X144187957Y-116407257D01*
X144187957Y-116621881D01*
X144261362Y-116823563D01*
X144399321Y-116987975D01*
X144585191Y-117095288D01*
X144796556Y-117132557D01*
X145007921Y-117095288D01*
X145193791Y-116987975D01*
X145331750Y-116823563D01*
X145405155Y-116621881D01*
X145405155Y-116407257D01*
X145331750Y-116205575D01*
X145193791Y-116041163D01*
X145007921Y-115933850D01*
X144796556Y-115896581D01*
X144585191Y-115933850D01*
X144399321Y-116041163D01*
X144261362Y-116205575D01*
X144187957Y-116407257D01*
X141552601Y-116407257D01*
X141505194Y-116277006D01*
X141367235Y-116112594D01*
X141181365Y-116005281D01*
X140970000Y-115968012D01*
X140758635Y-116005281D01*
X140572765Y-116112594D01*
X140434806Y-116277006D01*
X140361401Y-116478688D01*
X139952999Y-116478688D01*
X139952999Y-116427888D01*
X139879594Y-116226206D01*
X139741635Y-116061794D01*
X139555765Y-115954481D01*
X139344400Y-115917212D01*
X139133035Y-115954481D01*
X138947165Y-116061794D01*
X138809206Y-116226206D01*
X138735801Y-116427888D01*
X133537867Y-116427888D01*
X133552199Y-116388512D01*
X133552199Y-116173888D01*
X133478794Y-115972206D01*
X133340835Y-115807794D01*
X133154965Y-115700481D01*
X132943600Y-115663212D01*
X132732235Y-115700481D01*
X132546365Y-115807794D01*
X132408406Y-115972206D01*
X132335001Y-116173888D01*
X123800061Y-116173888D01*
X123800061Y-115975942D01*
X123726656Y-115774260D01*
X123588697Y-115609848D01*
X123402827Y-115502535D01*
X123191462Y-115465266D01*
X122980097Y-115502535D01*
X122794227Y-115609848D01*
X122656268Y-115774260D01*
X122582863Y-115975942D01*
X122582863Y-116178641D01*
X122541565Y-116116835D01*
X122415869Y-116032847D01*
X122280010Y-116005824D01*
X121578966Y-116005824D01*
X121652005Y-115918780D01*
X121725410Y-115717098D01*
X121725410Y-115502474D01*
X121652005Y-115300792D01*
X121514046Y-115136380D01*
X121328176Y-115029067D01*
X121116811Y-114991798D01*
X120905446Y-115029067D01*
X120719576Y-115136380D01*
X120581617Y-115300792D01*
X120508212Y-115502474D01*
X120508212Y-115717098D01*
X120581617Y-115918780D01*
X120680431Y-116036541D01*
X120537368Y-116010800D01*
X120446262Y-116010800D01*
X120293779Y-116028578D01*
X120100892Y-116098592D01*
X119929285Y-116211102D01*
X119862251Y-116281865D01*
X119856953Y-116255231D01*
X119772965Y-116129535D01*
X119647269Y-116045547D01*
X119511410Y-116018524D01*
X118486590Y-116018524D01*
X118350731Y-116045547D01*
X118225035Y-116129535D01*
X118205536Y-116158717D01*
X118034292Y-116071275D01*
X117983736Y-116062179D01*
X118126235Y-115979906D01*
X118264194Y-115815494D01*
X118337599Y-115613812D01*
X118337599Y-115399188D01*
X118314409Y-115335472D01*
X118406635Y-115388719D01*
X118618000Y-115425988D01*
X118829365Y-115388719D01*
X119015235Y-115281406D01*
X119082218Y-115201579D01*
X119106575Y-115230606D01*
X119292445Y-115337919D01*
X119503810Y-115375188D01*
X119715175Y-115337919D01*
X119901045Y-115230606D01*
X120039004Y-115066194D01*
X120098674Y-114902247D01*
X124419632Y-114902247D01*
X124419632Y-115116871D01*
X124493037Y-115318553D01*
X124630996Y-115482965D01*
X124816866Y-115590278D01*
X125028231Y-115627547D01*
X125239596Y-115590278D01*
X125425466Y-115482965D01*
X125563425Y-115318553D01*
X125589308Y-115247438D01*
X129083151Y-115247438D01*
X129083151Y-115462062D01*
X129156556Y-115663744D01*
X129294515Y-115828156D01*
X129480385Y-115935469D01*
X129691750Y-115972738D01*
X129903115Y-115935469D01*
X130088985Y-115828156D01*
X130226944Y-115663744D01*
X130300349Y-115462062D01*
X130300349Y-115272188D01*
X131217401Y-115272188D01*
X131217401Y-115486812D01*
X131290806Y-115688494D01*
X131428765Y-115852906D01*
X131614635Y-115960219D01*
X131826000Y-115997488D01*
X132037365Y-115960219D01*
X132223235Y-115852906D01*
X132361194Y-115688494D01*
X132434599Y-115486812D01*
X132434599Y-115462688D01*
X141123401Y-115462688D01*
X141123401Y-115677312D01*
X141196806Y-115878994D01*
X141334765Y-116043406D01*
X141520635Y-116150719D01*
X141732000Y-116187988D01*
X141943365Y-116150719D01*
X142129235Y-116043406D01*
X142267194Y-115878994D01*
X142340599Y-115677312D01*
X142340599Y-115665888D01*
X146000201Y-115665888D01*
X146000201Y-115880512D01*
X146073606Y-116082194D01*
X146211565Y-116246606D01*
X146397435Y-116353919D01*
X146608800Y-116391188D01*
X146820165Y-116353919D01*
X147006035Y-116246606D01*
X147143994Y-116082194D01*
X147217399Y-115880512D01*
X147217399Y-115665888D01*
X147143994Y-115464206D01*
X147006035Y-115299794D01*
X146820165Y-115192481D01*
X146608800Y-115155212D01*
X146397435Y-115192481D01*
X146211565Y-115299794D01*
X146073606Y-115464206D01*
X146000201Y-115665888D01*
X142340599Y-115665888D01*
X142340599Y-115662250D01*
X142451365Y-115642719D01*
X142637235Y-115535406D01*
X142775194Y-115370994D01*
X142848599Y-115169312D01*
X142848599Y-114954688D01*
X142775194Y-114753006D01*
X142637235Y-114588594D01*
X142472775Y-114493642D01*
X148117882Y-114493642D01*
X148128734Y-114728096D01*
X148183724Y-114956270D01*
X148280868Y-115169928D01*
X148416663Y-115361362D01*
X148586205Y-115523664D01*
X148783380Y-115650979D01*
X149003961Y-115739875D01*
X149308284Y-115784000D01*
X149410624Y-115784000D01*
X149585645Y-115767302D01*
X149810860Y-115701230D01*
X150019517Y-115593765D01*
X150204090Y-115448782D01*
X150357915Y-115271513D01*
X150475446Y-115068353D01*
X150552439Y-114846635D01*
X150586118Y-114614358D01*
X150580531Y-114493642D01*
X150657882Y-114493642D01*
X150668734Y-114728096D01*
X150723724Y-114956270D01*
X150820868Y-115169928D01*
X150956663Y-115361362D01*
X151126205Y-115523664D01*
X151323380Y-115650979D01*
X151543961Y-115739875D01*
X151848284Y-115784000D01*
X151950624Y-115784000D01*
X152125645Y-115767302D01*
X152350860Y-115701230D01*
X152559517Y-115593765D01*
X152744090Y-115448782D01*
X152897915Y-115271513D01*
X153015446Y-115068353D01*
X153092439Y-114846635D01*
X153126118Y-114614358D01*
X153115266Y-114379904D01*
X153060276Y-114151730D01*
X152963132Y-113938072D01*
X152827337Y-113746638D01*
X152657795Y-113584336D01*
X152460620Y-113457021D01*
X152240039Y-113368125D01*
X151935716Y-113324000D01*
X151833376Y-113324000D01*
X151658355Y-113340698D01*
X151433140Y-113406770D01*
X151224483Y-113514235D01*
X151039910Y-113659218D01*
X150886085Y-113836487D01*
X150768554Y-114039647D01*
X150691561Y-114261365D01*
X150657882Y-114493642D01*
X150580531Y-114493642D01*
X150575266Y-114379904D01*
X150520276Y-114151730D01*
X150423132Y-113938072D01*
X150287337Y-113746638D01*
X150117795Y-113584336D01*
X149920620Y-113457021D01*
X149700039Y-113368125D01*
X149395716Y-113324000D01*
X149293376Y-113324000D01*
X149118355Y-113340698D01*
X148893140Y-113406770D01*
X148684483Y-113514235D01*
X148499910Y-113659218D01*
X148346085Y-113836487D01*
X148228554Y-114039647D01*
X148151561Y-114261365D01*
X148117882Y-114493642D01*
X142472775Y-114493642D01*
X142451365Y-114481281D01*
X142240000Y-114444012D01*
X142028635Y-114481281D01*
X141842765Y-114588594D01*
X141704806Y-114753006D01*
X141631401Y-114954688D01*
X141631401Y-114969750D01*
X141520635Y-114989281D01*
X141334765Y-115096594D01*
X141196806Y-115261006D01*
X141123401Y-115462688D01*
X132434599Y-115462688D01*
X132434599Y-115272188D01*
X132361194Y-115070506D01*
X132223235Y-114906094D01*
X132037365Y-114798781D01*
X131826000Y-114761512D01*
X131614635Y-114798781D01*
X131428765Y-114906094D01*
X131290806Y-115070506D01*
X131217401Y-115272188D01*
X130300349Y-115272188D01*
X130300349Y-115247438D01*
X130226944Y-115045756D01*
X130088985Y-114881344D01*
X129903115Y-114774031D01*
X129691750Y-114736762D01*
X129480385Y-114774031D01*
X129294515Y-114881344D01*
X129156556Y-115045756D01*
X129083151Y-115247438D01*
X125589308Y-115247438D01*
X125636830Y-115116871D01*
X125636830Y-114902247D01*
X125563425Y-114700565D01*
X125425466Y-114536153D01*
X125239596Y-114428840D01*
X125028231Y-114391571D01*
X124816866Y-114428840D01*
X124630996Y-114536153D01*
X124493037Y-114700565D01*
X124419632Y-114902247D01*
X120098674Y-114902247D01*
X120112409Y-114864512D01*
X120112409Y-114649888D01*
X120039004Y-114448206D01*
X119901045Y-114283794D01*
X119715175Y-114176481D01*
X119503810Y-114139212D01*
X119292445Y-114176481D01*
X119106575Y-114283794D01*
X119039592Y-114363621D01*
X119015235Y-114334594D01*
X118829365Y-114227281D01*
X118618000Y-114190012D01*
X118406635Y-114227281D01*
X118220765Y-114334594D01*
X118082806Y-114499006D01*
X118009401Y-114700688D01*
X118009401Y-114915312D01*
X118032591Y-114979028D01*
X117940365Y-114925781D01*
X117729000Y-114888512D01*
X117517635Y-114925781D01*
X117331765Y-115033094D01*
X117193806Y-115197506D01*
X117120401Y-115399188D01*
X117120401Y-115613812D01*
X117193806Y-115815494D01*
X117331765Y-115979906D01*
X117471691Y-116060693D01*
X117332292Y-116111292D01*
X117160685Y-116223802D01*
X117055842Y-116334477D01*
X117037553Y-116242531D01*
X116953565Y-116116835D01*
X116827869Y-116032847D01*
X116692010Y-116005824D01*
X115667190Y-116005824D01*
X115531331Y-116032847D01*
X115405635Y-116116835D01*
X115386136Y-116146017D01*
X115214892Y-116058575D01*
X114949368Y-116010800D01*
X114858262Y-116010800D01*
X114705779Y-116028578D01*
X114654599Y-116047155D01*
X114654599Y-115916698D01*
X114581194Y-115715016D01*
X114443235Y-115550604D01*
X114257365Y-115443291D01*
X114172000Y-115428239D01*
X114172000Y-115066686D01*
X114240035Y-115027406D01*
X114377994Y-114862994D01*
X114451399Y-114661312D01*
X114451399Y-114446688D01*
X114377994Y-114245006D01*
X114240035Y-114080594D01*
X114172000Y-114041314D01*
X114172000Y-113118017D01*
X118167132Y-113118017D01*
X118167132Y-113332641D01*
X118240537Y-113534323D01*
X118378496Y-113698735D01*
X118564366Y-113806048D01*
X118775731Y-113843317D01*
X118987096Y-113806048D01*
X119172966Y-113698735D01*
X119310925Y-113534323D01*
X119384330Y-113332641D01*
X119384330Y-113118017D01*
X119368706Y-113075088D01*
X119482601Y-113075088D01*
X119482601Y-113289712D01*
X119556006Y-113491394D01*
X119693965Y-113655806D01*
X119879835Y-113763119D01*
X120091200Y-113800388D01*
X120095617Y-113799609D01*
X123594211Y-113799609D01*
X123594211Y-114014233D01*
X123667616Y-114215915D01*
X123805575Y-114380327D01*
X123991445Y-114487640D01*
X124202810Y-114524909D01*
X124414175Y-114487640D01*
X124600045Y-114380327D01*
X124738004Y-114215915D01*
X124811409Y-114014233D01*
X124811409Y-113799609D01*
X124738004Y-113597927D01*
X124600045Y-113433515D01*
X124414175Y-113326202D01*
X124286491Y-113303688D01*
X126264401Y-113303688D01*
X126264401Y-113518312D01*
X126337806Y-113719994D01*
X126475765Y-113884406D01*
X126661635Y-113991719D01*
X126873000Y-114028988D01*
X127084365Y-113991719D01*
X127270235Y-113884406D01*
X127408194Y-113719994D01*
X127481599Y-113518312D01*
X127481599Y-113303688D01*
X127408194Y-113102006D01*
X127270235Y-112937594D01*
X127084365Y-112830281D01*
X126873000Y-112793012D01*
X126661635Y-112830281D01*
X126475765Y-112937594D01*
X126337806Y-113102006D01*
X126264401Y-113303688D01*
X124286491Y-113303688D01*
X124202810Y-113288933D01*
X123991445Y-113326202D01*
X123805575Y-113433515D01*
X123667616Y-113597927D01*
X123594211Y-113799609D01*
X120095617Y-113799609D01*
X120302565Y-113763119D01*
X120488435Y-113655806D01*
X120626394Y-113491394D01*
X120699799Y-113289712D01*
X120699799Y-113075088D01*
X120626394Y-112873406D01*
X120488435Y-112708994D01*
X120302565Y-112601681D01*
X120091200Y-112564412D01*
X119879835Y-112601681D01*
X119693965Y-112708994D01*
X119556006Y-112873406D01*
X119482601Y-113075088D01*
X119368706Y-113075088D01*
X119310925Y-112916335D01*
X119172966Y-112751923D01*
X118987096Y-112644610D01*
X118775731Y-112607341D01*
X118564366Y-112644610D01*
X118378496Y-112751923D01*
X118240537Y-112916335D01*
X118167132Y-113118017D01*
X114172000Y-113118017D01*
X114172000Y-111489807D01*
X122408228Y-111489807D01*
X122408228Y-111704431D01*
X122481633Y-111906113D01*
X122619592Y-112070525D01*
X122805462Y-112177838D01*
X123016827Y-112215107D01*
X123228192Y-112177838D01*
X123414062Y-112070525D01*
X123552021Y-111906113D01*
X123574923Y-111843188D01*
X125121401Y-111843188D01*
X125121401Y-112057812D01*
X125194806Y-112259494D01*
X125332765Y-112423906D01*
X125518635Y-112531219D01*
X125730000Y-112568488D01*
X125941365Y-112531219D01*
X125958876Y-112521109D01*
X125964189Y-112535705D01*
X126102148Y-112700117D01*
X126288018Y-112807430D01*
X126499383Y-112844699D01*
X126710748Y-112807430D01*
X126896618Y-112700117D01*
X127034577Y-112535705D01*
X127107982Y-112334023D01*
X127107982Y-112119399D01*
X127054367Y-111972088D01*
X127193632Y-111972088D01*
X127193632Y-112186712D01*
X127267037Y-112388394D01*
X127404996Y-112552806D01*
X127590866Y-112660119D01*
X127802231Y-112697388D01*
X128013596Y-112660119D01*
X128199466Y-112552806D01*
X128233371Y-112512399D01*
X128267276Y-112552805D01*
X128453146Y-112660118D01*
X128664511Y-112697387D01*
X128875876Y-112660118D01*
X129061746Y-112552805D01*
X129199705Y-112388393D01*
X129273110Y-112186711D01*
X129273110Y-112070729D01*
X129373519Y-112070729D01*
X129373519Y-112285353D01*
X129446924Y-112487035D01*
X129584883Y-112651447D01*
X129770753Y-112758760D01*
X129944384Y-112789376D01*
X129779573Y-112818436D01*
X129593703Y-112925749D01*
X129455744Y-113090161D01*
X129382339Y-113291843D01*
X129382339Y-113506467D01*
X129455744Y-113708149D01*
X129593703Y-113872561D01*
X129779573Y-113979874D01*
X129990938Y-114017143D01*
X130202303Y-113979874D01*
X130388173Y-113872561D01*
X130526132Y-113708149D01*
X130599537Y-113506467D01*
X130599537Y-113481488D01*
X134671801Y-113481488D01*
X134671801Y-113696112D01*
X134745206Y-113897794D01*
X134883165Y-114062206D01*
X135069035Y-114169519D01*
X135280400Y-114206788D01*
X135491765Y-114169519D01*
X135677635Y-114062206D01*
X135815594Y-113897794D01*
X135888999Y-113696112D01*
X135888999Y-113481488D01*
X135830401Y-113320487D01*
X153835700Y-113320487D01*
X153835700Y-113535111D01*
X153909105Y-113736793D01*
X154047064Y-113901205D01*
X154232934Y-114008518D01*
X154444299Y-114045787D01*
X154655664Y-114008518D01*
X154841534Y-113901205D01*
X154979493Y-113736793D01*
X155052898Y-113535111D01*
X155052898Y-113320487D01*
X154979493Y-113118805D01*
X154841534Y-112954393D01*
X154655664Y-112847080D01*
X154444299Y-112809811D01*
X154232934Y-112847080D01*
X154047064Y-112954393D01*
X153909105Y-113118805D01*
X153835700Y-113320487D01*
X135830401Y-113320487D01*
X135815594Y-113279806D01*
X135677635Y-113115394D01*
X135491765Y-113008081D01*
X135280400Y-112970812D01*
X135069035Y-113008081D01*
X134883165Y-113115394D01*
X134745206Y-113279806D01*
X134671801Y-113481488D01*
X130599537Y-113481488D01*
X130599537Y-113291843D01*
X130526132Y-113090161D01*
X130388173Y-112925749D01*
X130202303Y-112818436D01*
X130028672Y-112787820D01*
X130193483Y-112758760D01*
X130348586Y-112669210D01*
X132011180Y-112669210D01*
X132011180Y-112883834D01*
X132084585Y-113085516D01*
X132222544Y-113249928D01*
X132408414Y-113357241D01*
X132619779Y-113394510D01*
X132831144Y-113357241D01*
X133017014Y-113249928D01*
X133154973Y-113085516D01*
X133228378Y-112883834D01*
X133228378Y-112669210D01*
X133154973Y-112467528D01*
X133017014Y-112303116D01*
X132831144Y-112195803D01*
X132631996Y-112160688D01*
X136297401Y-112160688D01*
X136297401Y-112375312D01*
X136370806Y-112576994D01*
X136508765Y-112741406D01*
X136694635Y-112848719D01*
X136906000Y-112885988D01*
X137117365Y-112848719D01*
X137303235Y-112741406D01*
X137441194Y-112576994D01*
X137514599Y-112375312D01*
X137514599Y-112160688D01*
X137441194Y-111959006D01*
X137436694Y-111953642D01*
X148117882Y-111953642D01*
X148128734Y-112188096D01*
X148183724Y-112416270D01*
X148280868Y-112629928D01*
X148416663Y-112821362D01*
X148586205Y-112983664D01*
X148783380Y-113110979D01*
X149003961Y-113199875D01*
X149308284Y-113244000D01*
X149410624Y-113244000D01*
X149585645Y-113227302D01*
X149810860Y-113161230D01*
X150019517Y-113053765D01*
X150204090Y-112908782D01*
X150357915Y-112731513D01*
X150475446Y-112528353D01*
X150552439Y-112306635D01*
X150586118Y-112074358D01*
X150575266Y-111839904D01*
X150520276Y-111611730D01*
X150423132Y-111398072D01*
X150287337Y-111206638D01*
X150117795Y-111044336D01*
X149920620Y-110917021D01*
X149700039Y-110828125D01*
X149395716Y-110784000D01*
X149293376Y-110784000D01*
X149118355Y-110800698D01*
X148893140Y-110866770D01*
X148684483Y-110974235D01*
X148499910Y-111119218D01*
X148346085Y-111296487D01*
X148228554Y-111499647D01*
X148151561Y-111721365D01*
X148117882Y-111953642D01*
X137436694Y-111953642D01*
X137303235Y-111794594D01*
X137117365Y-111687281D01*
X136906000Y-111650012D01*
X136694635Y-111687281D01*
X136508765Y-111794594D01*
X136370806Y-111959006D01*
X136297401Y-112160688D01*
X132631996Y-112160688D01*
X132619779Y-112158534D01*
X132408414Y-112195803D01*
X132222544Y-112303116D01*
X132084585Y-112467528D01*
X132011180Y-112669210D01*
X130348586Y-112669210D01*
X130379353Y-112651447D01*
X130517312Y-112487035D01*
X130590717Y-112285353D01*
X130590717Y-112070729D01*
X130517312Y-111869047D01*
X130379353Y-111704635D01*
X130193483Y-111597322D01*
X129982118Y-111560053D01*
X129770753Y-111597322D01*
X129584883Y-111704635D01*
X129446924Y-111869047D01*
X129373519Y-112070729D01*
X129273110Y-112070729D01*
X129273110Y-111972087D01*
X129199705Y-111770405D01*
X129061746Y-111605993D01*
X128875876Y-111498680D01*
X128664511Y-111461411D01*
X128453146Y-111498680D01*
X128267276Y-111605993D01*
X128233371Y-111646400D01*
X128199466Y-111605994D01*
X128013596Y-111498681D01*
X127802231Y-111461412D01*
X127590866Y-111498681D01*
X127404996Y-111605994D01*
X127267037Y-111770406D01*
X127193632Y-111972088D01*
X127054367Y-111972088D01*
X127034577Y-111917717D01*
X126896618Y-111753305D01*
X126710748Y-111645992D01*
X126499383Y-111608723D01*
X126288018Y-111645992D01*
X126270507Y-111656102D01*
X126265194Y-111641506D01*
X126127235Y-111477094D01*
X125941365Y-111369781D01*
X125730000Y-111332512D01*
X125518635Y-111369781D01*
X125332765Y-111477094D01*
X125194806Y-111641506D01*
X125121401Y-111843188D01*
X123574923Y-111843188D01*
X123625426Y-111704431D01*
X123625426Y-111489807D01*
X123552021Y-111288125D01*
X123431663Y-111144688D01*
X138278601Y-111144688D01*
X138278601Y-111359312D01*
X138352006Y-111560994D01*
X138489965Y-111725406D01*
X138675835Y-111832719D01*
X138887200Y-111869988D01*
X139098565Y-111832719D01*
X139284435Y-111725406D01*
X139422394Y-111560994D01*
X139495799Y-111359312D01*
X139495799Y-111144688D01*
X139422394Y-110943006D01*
X139336968Y-110841199D01*
X143259363Y-110841199D01*
X143259363Y-111055823D01*
X143332768Y-111257505D01*
X143470727Y-111421917D01*
X143656597Y-111529230D01*
X143867962Y-111566499D01*
X144079327Y-111529230D01*
X144265197Y-111421917D01*
X144403156Y-111257505D01*
X144476561Y-111055823D01*
X144476561Y-110932066D01*
X146616180Y-110932066D01*
X146616180Y-111146690D01*
X146689585Y-111348372D01*
X146827544Y-111512784D01*
X147013414Y-111620097D01*
X147224779Y-111657366D01*
X147436144Y-111620097D01*
X147622014Y-111512784D01*
X147759973Y-111348372D01*
X147833378Y-111146690D01*
X147833378Y-110932066D01*
X147759973Y-110730384D01*
X147622014Y-110565972D01*
X147436144Y-110458659D01*
X147224779Y-110421390D01*
X147013414Y-110458659D01*
X146827544Y-110565972D01*
X146689585Y-110730384D01*
X146616180Y-110932066D01*
X144476561Y-110932066D01*
X144476561Y-110841199D01*
X144403156Y-110639517D01*
X144265197Y-110475105D01*
X144079327Y-110367792D01*
X143867962Y-110330523D01*
X143656597Y-110367792D01*
X143470727Y-110475105D01*
X143332768Y-110639517D01*
X143259363Y-110841199D01*
X139336968Y-110841199D01*
X139284435Y-110778594D01*
X139098565Y-110671281D01*
X138887200Y-110634012D01*
X138675835Y-110671281D01*
X138489965Y-110778594D01*
X138352006Y-110943006D01*
X138278601Y-111144688D01*
X123431663Y-111144688D01*
X123414062Y-111123713D01*
X123228192Y-111016400D01*
X123016827Y-110979131D01*
X122805462Y-111016400D01*
X122619592Y-111123713D01*
X122481633Y-111288125D01*
X122408228Y-111489807D01*
X114172000Y-111489807D01*
X114172000Y-109956202D01*
X114342635Y-110054719D01*
X114554000Y-110091988D01*
X114765365Y-110054719D01*
X114951235Y-109947406D01*
X115089194Y-109782994D01*
X115140183Y-109642899D01*
X115700858Y-109642899D01*
X115700858Y-109857523D01*
X115774263Y-110059205D01*
X115912222Y-110223617D01*
X116098092Y-110330930D01*
X116309457Y-110368199D01*
X116520822Y-110330930D01*
X116706692Y-110223617D01*
X116844651Y-110059205D01*
X116918056Y-109857523D01*
X116918056Y-109642899D01*
X117294400Y-109642899D01*
X117294400Y-109857523D01*
X117367805Y-110059205D01*
X117505764Y-110223617D01*
X117691634Y-110330930D01*
X117902999Y-110368199D01*
X118114364Y-110330930D01*
X118300234Y-110223617D01*
X118438193Y-110059205D01*
X118511598Y-109857523D01*
X118511598Y-109642899D01*
X118741575Y-109642899D01*
X118741575Y-109857523D01*
X118814980Y-110059205D01*
X118952939Y-110223617D01*
X119138809Y-110330930D01*
X119350174Y-110368199D01*
X119561539Y-110330930D01*
X119747409Y-110223617D01*
X119885368Y-110059205D01*
X119958773Y-109857523D01*
X119958773Y-109654715D01*
X120065083Y-109654715D01*
X120065083Y-109869339D01*
X120138488Y-110071021D01*
X120276447Y-110235433D01*
X120462317Y-110342746D01*
X120673682Y-110380015D01*
X120885047Y-110342746D01*
X121035936Y-110255629D01*
X121118340Y-110303205D01*
X121329704Y-110340474D01*
X121541069Y-110303205D01*
X121726939Y-110195892D01*
X121864898Y-110031480D01*
X121938303Y-109829798D01*
X121938303Y-109742755D01*
X124446236Y-109742755D01*
X124446236Y-109957379D01*
X124519641Y-110159061D01*
X124657600Y-110323473D01*
X124843470Y-110430786D01*
X125054835Y-110468055D01*
X125266200Y-110430786D01*
X125452070Y-110323473D01*
X125590029Y-110159061D01*
X125619573Y-110077888D01*
X132011180Y-110077888D01*
X132011180Y-110292512D01*
X132084585Y-110494194D01*
X132222544Y-110658606D01*
X132408414Y-110765919D01*
X132619779Y-110803188D01*
X132831144Y-110765919D01*
X133017014Y-110658606D01*
X133154973Y-110494194D01*
X133228378Y-110292512D01*
X133228378Y-110077888D01*
X133154973Y-109876206D01*
X133017014Y-109711794D01*
X132831144Y-109604481D01*
X132619779Y-109567212D01*
X132408414Y-109604481D01*
X132222544Y-109711794D01*
X132084585Y-109876206D01*
X132011180Y-110077888D01*
X125619573Y-110077888D01*
X125663434Y-109957379D01*
X125663434Y-109742755D01*
X125590029Y-109541073D01*
X125452070Y-109376661D01*
X125266200Y-109269348D01*
X125263104Y-109268802D01*
X128416698Y-109268802D01*
X128416698Y-109483426D01*
X128490103Y-109685108D01*
X128628062Y-109849520D01*
X128813932Y-109956833D01*
X129025297Y-109994102D01*
X129236662Y-109956833D01*
X129422532Y-109849520D01*
X129560491Y-109685108D01*
X129633896Y-109483426D01*
X129633896Y-109270308D01*
X129729913Y-109384736D01*
X129915783Y-109492049D01*
X130127148Y-109529318D01*
X130338513Y-109492049D01*
X130524383Y-109384736D01*
X130662342Y-109220324D01*
X130669818Y-109199782D01*
X133638585Y-109199782D01*
X133638585Y-109414406D01*
X133711990Y-109616088D01*
X133849949Y-109780500D01*
X134035819Y-109887813D01*
X134165235Y-109910632D01*
X134151496Y-109927006D01*
X134078091Y-110128688D01*
X134078091Y-110343312D01*
X134151496Y-110544994D01*
X134289455Y-110709406D01*
X134475325Y-110816719D01*
X134686690Y-110853988D01*
X134898055Y-110816719D01*
X135083925Y-110709406D01*
X135221884Y-110544994D01*
X135295289Y-110343312D01*
X135295289Y-110128688D01*
X135221884Y-109927006D01*
X135083925Y-109762594D01*
X134898055Y-109655281D01*
X134768639Y-109632462D01*
X134782378Y-109616088D01*
X134855783Y-109414406D01*
X134855783Y-109199782D01*
X134782378Y-108998100D01*
X134644419Y-108833688D01*
X134458549Y-108726375D01*
X134247184Y-108689106D01*
X134035819Y-108726375D01*
X133849949Y-108833688D01*
X133711990Y-108998100D01*
X133638585Y-109199782D01*
X130669818Y-109199782D01*
X130735747Y-109018642D01*
X130735747Y-108804018D01*
X130662342Y-108602336D01*
X130524383Y-108437924D01*
X130338513Y-108330611D01*
X130127148Y-108293342D01*
X129915783Y-108330611D01*
X129729913Y-108437924D01*
X129591954Y-108602336D01*
X129518549Y-108804018D01*
X129518549Y-109017136D01*
X129422532Y-108902708D01*
X129236662Y-108795395D01*
X129025297Y-108758126D01*
X128813932Y-108795395D01*
X128628062Y-108902708D01*
X128490103Y-109067120D01*
X128416698Y-109268802D01*
X125263104Y-109268802D01*
X125054835Y-109232079D01*
X124843470Y-109269348D01*
X124657600Y-109376661D01*
X124519641Y-109541073D01*
X124446236Y-109742755D01*
X121938303Y-109742755D01*
X121938303Y-109615174D01*
X121864898Y-109413492D01*
X121726939Y-109249080D01*
X121720924Y-109245607D01*
X121813865Y-109229219D01*
X121999735Y-109121906D01*
X122137694Y-108957494D01*
X122211099Y-108755812D01*
X122211099Y-108541188D01*
X122137694Y-108339506D01*
X121999735Y-108175094D01*
X121974226Y-108160366D01*
X122411317Y-108160366D01*
X122411317Y-108374990D01*
X122484722Y-108576672D01*
X122622681Y-108741084D01*
X122808551Y-108848397D01*
X123019916Y-108885666D01*
X123231281Y-108848397D01*
X123417151Y-108741084D01*
X123555110Y-108576672D01*
X123628515Y-108374990D01*
X123628515Y-108160366D01*
X123555110Y-107958684D01*
X123476801Y-107865359D01*
X124930991Y-107865359D01*
X124930991Y-108079983D01*
X125004396Y-108281665D01*
X125142355Y-108446077D01*
X125328225Y-108553390D01*
X125539590Y-108590659D01*
X125750955Y-108553390D01*
X125936825Y-108446077D01*
X126074784Y-108281665D01*
X126143272Y-108093490D01*
X132166703Y-108093490D01*
X132166703Y-108308114D01*
X132240108Y-108509796D01*
X132378067Y-108674208D01*
X132563937Y-108781521D01*
X132775302Y-108818790D01*
X132986667Y-108781521D01*
X133172537Y-108674208D01*
X133310496Y-108509796D01*
X133383901Y-108308114D01*
X133383901Y-108093490D01*
X133310496Y-107891808D01*
X133172537Y-107727396D01*
X133108265Y-107690288D01*
X135484601Y-107690288D01*
X135484601Y-107904912D01*
X135558006Y-108106594D01*
X135695965Y-108271006D01*
X135881835Y-108378319D01*
X136093200Y-108415588D01*
X136171741Y-108401739D01*
X136102365Y-108441794D01*
X135964406Y-108606206D01*
X135891001Y-108807888D01*
X135891001Y-109022512D01*
X135944390Y-109169200D01*
X135891001Y-109315888D01*
X135891001Y-109530512D01*
X135952899Y-109700578D01*
X135917756Y-109797133D01*
X135917756Y-110011757D01*
X135991161Y-110213439D01*
X136129120Y-110377851D01*
X136314990Y-110485164D01*
X136526355Y-110522433D01*
X136737720Y-110485164D01*
X136743807Y-110481649D01*
X136796235Y-110511919D01*
X137007600Y-110549188D01*
X137218965Y-110511919D01*
X137261600Y-110487303D01*
X137304235Y-110511919D01*
X137515600Y-110549188D01*
X137726965Y-110511919D01*
X137912835Y-110404606D01*
X138050794Y-110240194D01*
X138124199Y-110038512D01*
X138124199Y-109823888D01*
X138070810Y-109677200D01*
X138124199Y-109530512D01*
X138124199Y-109315888D01*
X138070810Y-109169200D01*
X138124199Y-109022512D01*
X138124199Y-108807888D01*
X138050794Y-108606206D01*
X137964268Y-108503088D01*
X143257001Y-108503088D01*
X143257001Y-108717712D01*
X143330406Y-108919394D01*
X143468365Y-109083806D01*
X143654235Y-109191119D01*
X143865600Y-109228388D01*
X144076965Y-109191119D01*
X144262835Y-109083806D01*
X144400794Y-108919394D01*
X144474199Y-108717712D01*
X144474199Y-108503088D01*
X144400794Y-108301406D01*
X144361686Y-108254800D01*
X144400794Y-108208194D01*
X144474199Y-108006512D01*
X144474199Y-107791888D01*
X144400794Y-107590206D01*
X144262835Y-107425794D01*
X144076965Y-107318481D01*
X143993863Y-107303828D01*
X147546852Y-107303828D01*
X147546852Y-107518452D01*
X147620257Y-107720134D01*
X147758216Y-107884546D01*
X147944086Y-107991859D01*
X148155451Y-108029128D01*
X148366816Y-107991859D01*
X148552686Y-107884545D01*
X148558721Y-107877353D01*
X148586205Y-107903664D01*
X148783380Y-108030979D01*
X149003961Y-108119875D01*
X149308284Y-108164000D01*
X149410624Y-108164000D01*
X149585645Y-108147302D01*
X149810860Y-108081230D01*
X150019517Y-107973765D01*
X150204090Y-107828782D01*
X150357915Y-107651513D01*
X150475446Y-107448353D01*
X150486731Y-107415855D01*
X150557961Y-107596222D01*
X150688610Y-107811526D01*
X150853669Y-108001739D01*
X151048416Y-108161422D01*
X151122061Y-108203343D01*
X150958760Y-108313284D01*
X150776534Y-108487119D01*
X150626203Y-108689172D01*
X150512064Y-108913666D01*
X150486233Y-108996856D01*
X150423132Y-108858072D01*
X150287337Y-108666638D01*
X150117795Y-108504336D01*
X149920620Y-108377021D01*
X149700039Y-108288125D01*
X149395716Y-108244000D01*
X149293376Y-108244000D01*
X149118355Y-108260698D01*
X148893140Y-108326770D01*
X148684483Y-108434235D01*
X148499910Y-108579218D01*
X148346085Y-108756487D01*
X148228554Y-108959647D01*
X148151561Y-109181365D01*
X148117882Y-109413642D01*
X148128734Y-109648096D01*
X148183724Y-109876270D01*
X148280868Y-110089928D01*
X148416663Y-110281362D01*
X148586205Y-110443664D01*
X148783380Y-110570979D01*
X149003961Y-110659875D01*
X149308284Y-110704000D01*
X149410624Y-110704000D01*
X149585645Y-110687302D01*
X149810860Y-110621230D01*
X150019517Y-110513765D01*
X150204090Y-110368782D01*
X150357915Y-110191513D01*
X150475446Y-109988353D01*
X150486731Y-109955855D01*
X150557961Y-110136222D01*
X150688610Y-110351526D01*
X150853669Y-110541739D01*
X151048416Y-110701422D01*
X151267284Y-110826009D01*
X151410997Y-110878174D01*
X151224483Y-110974235D01*
X151039910Y-111119218D01*
X150886085Y-111296487D01*
X150768554Y-111499647D01*
X150691561Y-111721365D01*
X150657882Y-111953642D01*
X150668734Y-112188096D01*
X150723724Y-112416270D01*
X150820868Y-112629928D01*
X150956663Y-112821362D01*
X151126205Y-112983664D01*
X151323380Y-113110979D01*
X151543961Y-113199875D01*
X151848284Y-113244000D01*
X151950624Y-113244000D01*
X152125645Y-113227302D01*
X152350860Y-113161230D01*
X152559517Y-113053765D01*
X152744090Y-112908782D01*
X152897915Y-112731513D01*
X153015446Y-112528353D01*
X153092439Y-112306635D01*
X153126118Y-112074358D01*
X153115266Y-111839904D01*
X153060276Y-111611730D01*
X152963132Y-111398072D01*
X152927534Y-111347888D01*
X155296601Y-111347888D01*
X155296601Y-111562512D01*
X155370006Y-111764194D01*
X155507965Y-111928606D01*
X155693835Y-112035919D01*
X155905200Y-112073188D01*
X156116565Y-112035919D01*
X156302435Y-111928606D01*
X156308395Y-111921503D01*
X156303810Y-111965123D01*
X156325716Y-112188537D01*
X156392099Y-112402983D01*
X156500245Y-112599702D01*
X156645739Y-112770657D01*
X156822636Y-112908864D01*
X157023711Y-113008678D01*
X157240749Y-113066022D01*
X157464884Y-113078553D01*
X157686962Y-113045760D01*
X157897909Y-112968981D01*
X158089110Y-112851353D01*
X158252753Y-112697683D01*
X158382154Y-112514245D01*
X158472027Y-112308535D01*
X158509280Y-112133271D01*
X158538635Y-112150219D01*
X158750000Y-112187488D01*
X158961365Y-112150219D01*
X159147235Y-112042906D01*
X159285194Y-111878494D01*
X159358599Y-111676812D01*
X159358599Y-111462188D01*
X159285194Y-111260506D01*
X159147235Y-111096094D01*
X158961365Y-110988781D01*
X158750000Y-110951512D01*
X158538635Y-110988781D01*
X158352765Y-111096094D01*
X158240590Y-111229780D01*
X158095254Y-111091378D01*
X157904879Y-110972419D01*
X157694472Y-110894169D01*
X157472629Y-110859826D01*
X157248412Y-110870792D01*
X157030978Y-110926619D01*
X156829212Y-111025028D01*
X156651355Y-111161996D01*
X156507006Y-111329225D01*
X156440394Y-111146206D01*
X156302435Y-110981794D01*
X156116565Y-110874481D01*
X155905200Y-110837212D01*
X155693835Y-110874481D01*
X155507965Y-110981794D01*
X155370006Y-111146206D01*
X155296601Y-111347888D01*
X152927534Y-111347888D01*
X152827337Y-111206638D01*
X152657795Y-111044336D01*
X152460620Y-110917021D01*
X152373979Y-110882104D01*
X152386708Y-110878800D01*
X152616329Y-110775363D01*
X152825240Y-110634716D01*
X153007466Y-110460881D01*
X153157797Y-110258828D01*
X153271936Y-110034334D01*
X153346618Y-109793819D01*
X153372043Y-109602000D01*
X151764000Y-109602000D01*
X151764000Y-109346000D01*
X153381487Y-109346000D01*
X153318544Y-109046017D01*
X153270001Y-108923097D01*
X153626957Y-108923097D01*
X153626957Y-109137721D01*
X153700362Y-109339403D01*
X153838321Y-109503815D01*
X154024191Y-109611128D01*
X154235556Y-109648397D01*
X154446921Y-109611128D01*
X154632791Y-109503815D01*
X154770750Y-109339403D01*
X154788268Y-109291271D01*
X154841115Y-109354251D01*
X155026985Y-109461564D01*
X155238350Y-109498833D01*
X155449715Y-109461564D01*
X155635585Y-109354251D01*
X155773544Y-109189839D01*
X155774995Y-109185853D01*
X155850926Y-109276343D01*
X156036796Y-109383656D01*
X156248161Y-109420925D01*
X156459526Y-109383656D01*
X156645396Y-109276343D01*
X156783355Y-109111931D01*
X156856760Y-108910249D01*
X156856760Y-108695625D01*
X156783355Y-108493943D01*
X156645396Y-108329531D01*
X156459526Y-108222218D01*
X156248161Y-108184949D01*
X156036796Y-108222218D01*
X155850926Y-108329531D01*
X155712967Y-108493943D01*
X155711516Y-108497929D01*
X155635585Y-108407439D01*
X155449715Y-108300126D01*
X155238350Y-108262857D01*
X155026985Y-108300126D01*
X154841115Y-108407439D01*
X154703156Y-108571851D01*
X154685638Y-108619983D01*
X154632791Y-108557003D01*
X154446921Y-108449690D01*
X154235556Y-108412421D01*
X154024191Y-108449690D01*
X153838321Y-108557003D01*
X153700362Y-108721415D01*
X153626957Y-108923097D01*
X153270001Y-108923097D01*
X153226039Y-108811778D01*
X153095390Y-108596474D01*
X152930331Y-108406261D01*
X152735584Y-108246578D01*
X152661939Y-108204657D01*
X152825240Y-108094716D01*
X153007466Y-107920881D01*
X153157797Y-107718828D01*
X153271936Y-107494334D01*
X153346618Y-107253819D01*
X153372043Y-107062000D01*
X151764000Y-107062000D01*
X151764000Y-106965123D01*
X156303810Y-106965123D01*
X156325716Y-107188537D01*
X156392099Y-107402983D01*
X156500245Y-107599702D01*
X156645739Y-107770657D01*
X156822636Y-107908864D01*
X157023711Y-108008678D01*
X157240749Y-108066022D01*
X157464884Y-108078553D01*
X157686962Y-108045760D01*
X157897909Y-107968981D01*
X158089110Y-107851353D01*
X158252753Y-107697683D01*
X158382154Y-107514245D01*
X158472027Y-107308535D01*
X158518746Y-107088737D01*
X158519555Y-106856975D01*
X158474371Y-106636857D01*
X158385937Y-106430524D01*
X158257819Y-106246187D01*
X158095254Y-106091378D01*
X157904879Y-105972419D01*
X157694472Y-105894169D01*
X157472629Y-105859826D01*
X157248412Y-105870792D01*
X157030978Y-105926619D01*
X156829212Y-106025028D01*
X156651355Y-106161996D01*
X156504671Y-106331930D01*
X156395153Y-106527889D01*
X156327276Y-106741867D01*
X156303810Y-106965123D01*
X151764000Y-106965123D01*
X151764000Y-106806000D01*
X153381487Y-106806000D01*
X153318544Y-106506017D01*
X153226039Y-106271778D01*
X153095390Y-106056474D01*
X152930331Y-105866261D01*
X152735584Y-105706578D01*
X152516716Y-105581991D01*
X152373003Y-105529826D01*
X152559517Y-105433765D01*
X152744090Y-105288782D01*
X152897915Y-105111513D01*
X153015446Y-104908353D01*
X153092439Y-104686635D01*
X153126118Y-104454358D01*
X153115266Y-104219904D01*
X153060276Y-103991730D01*
X152963132Y-103778072D01*
X152827337Y-103586638D01*
X152815691Y-103575489D01*
X154432991Y-103575489D01*
X154432991Y-103790113D01*
X154506396Y-103991795D01*
X154644355Y-104156207D01*
X154830225Y-104263520D01*
X155041590Y-104300789D01*
X155252955Y-104263520D01*
X155438825Y-104156207D01*
X155576784Y-103991795D01*
X155650189Y-103790113D01*
X155650189Y-103575489D01*
X155576784Y-103373807D01*
X155438825Y-103209395D01*
X155252955Y-103102082D01*
X155041590Y-103064813D01*
X154830225Y-103102082D01*
X154644355Y-103209395D01*
X154506396Y-103373807D01*
X154432991Y-103575489D01*
X152815691Y-103575489D01*
X152657795Y-103424336D01*
X152460620Y-103297021D01*
X152240039Y-103208125D01*
X151935716Y-103164000D01*
X151833376Y-103164000D01*
X151658355Y-103180698D01*
X151433140Y-103246770D01*
X151224483Y-103354235D01*
X151039910Y-103499218D01*
X150886085Y-103676487D01*
X150768554Y-103879647D01*
X150691561Y-104101365D01*
X150657882Y-104333642D01*
X150668734Y-104568096D01*
X150723724Y-104796270D01*
X150820868Y-105009928D01*
X150956663Y-105201362D01*
X151126205Y-105363664D01*
X151323380Y-105490979D01*
X151410021Y-105525896D01*
X151397292Y-105529200D01*
X151167671Y-105632637D01*
X150958760Y-105773284D01*
X150776534Y-105947119D01*
X150626203Y-106149172D01*
X150512064Y-106373666D01*
X150486233Y-106456856D01*
X150423132Y-106318072D01*
X150287337Y-106126638D01*
X150117795Y-105964336D01*
X149920620Y-105837021D01*
X149700039Y-105748125D01*
X149395716Y-105704000D01*
X149293376Y-105704000D01*
X149118355Y-105720698D01*
X148893140Y-105786770D01*
X148684483Y-105894235D01*
X148499910Y-106039218D01*
X148346085Y-106216487D01*
X148228554Y-106419647D01*
X148151561Y-106641365D01*
X148128873Y-106797838D01*
X147944086Y-106830421D01*
X147758216Y-106937734D01*
X147620257Y-107102146D01*
X147546852Y-107303828D01*
X143993863Y-107303828D01*
X143865600Y-107281212D01*
X143654235Y-107318481D01*
X143468365Y-107425794D01*
X143330406Y-107590206D01*
X143257001Y-107791888D01*
X143257001Y-108006512D01*
X143330406Y-108208194D01*
X143369514Y-108254800D01*
X143330406Y-108301406D01*
X143257001Y-108503088D01*
X137964268Y-108503088D01*
X137912835Y-108441794D01*
X137726965Y-108334481D01*
X137515600Y-108297212D01*
X137304235Y-108334481D01*
X137261600Y-108359097D01*
X137218965Y-108334481D01*
X137007600Y-108297212D01*
X136796235Y-108334481D01*
X136753600Y-108359097D01*
X136710965Y-108334481D01*
X136499600Y-108297212D01*
X136421059Y-108311061D01*
X136490435Y-108271006D01*
X136628394Y-108106594D01*
X136701799Y-107904912D01*
X136701799Y-107690288D01*
X136628394Y-107488606D01*
X136490435Y-107324194D01*
X136420624Y-107283888D01*
X137161001Y-107283888D01*
X137161001Y-107498512D01*
X137234406Y-107700194D01*
X137372365Y-107864606D01*
X137558235Y-107971919D01*
X137769600Y-108009188D01*
X137980965Y-107971919D01*
X138166835Y-107864606D01*
X138227853Y-107791888D01*
X138304794Y-107700194D01*
X138378199Y-107498512D01*
X138378199Y-107283888D01*
X138304794Y-107082206D01*
X138166835Y-106917794D01*
X137980965Y-106810481D01*
X137769600Y-106773212D01*
X137558235Y-106810481D01*
X137372365Y-106917794D01*
X137234406Y-107082206D01*
X137161001Y-107283888D01*
X136420624Y-107283888D01*
X136304565Y-107216881D01*
X136093200Y-107179612D01*
X135881835Y-107216881D01*
X135695965Y-107324194D01*
X135558006Y-107488606D01*
X135484601Y-107690288D01*
X133108265Y-107690288D01*
X132986667Y-107620083D01*
X132775302Y-107582814D01*
X132563937Y-107620083D01*
X132378067Y-107727396D01*
X132240108Y-107891808D01*
X132166703Y-108093490D01*
X126143272Y-108093490D01*
X126148189Y-108079983D01*
X126148189Y-107865359D01*
X126074784Y-107663677D01*
X125936825Y-107499265D01*
X125750955Y-107391952D01*
X125539590Y-107354683D01*
X125328225Y-107391952D01*
X125142355Y-107499265D01*
X125004396Y-107663677D01*
X124930991Y-107865359D01*
X123476801Y-107865359D01*
X123417151Y-107794272D01*
X123231281Y-107686959D01*
X123019916Y-107649690D01*
X122808551Y-107686959D01*
X122622681Y-107794272D01*
X122484722Y-107958684D01*
X122411317Y-108160366D01*
X121974226Y-108160366D01*
X121813865Y-108067781D01*
X121602500Y-108030512D01*
X121391135Y-108067781D01*
X121205265Y-108175094D01*
X121067306Y-108339506D01*
X120993901Y-108541188D01*
X120993901Y-108755812D01*
X121067306Y-108957494D01*
X121205265Y-109121906D01*
X121211280Y-109125379D01*
X121118339Y-109141767D01*
X120967450Y-109228884D01*
X120885046Y-109181308D01*
X120673682Y-109144039D01*
X120462317Y-109181308D01*
X120276447Y-109288621D01*
X120138488Y-109453033D01*
X120065083Y-109654715D01*
X119958773Y-109654715D01*
X119958773Y-109642899D01*
X119885368Y-109441217D01*
X119747409Y-109276805D01*
X119561539Y-109169492D01*
X119350174Y-109132223D01*
X119138809Y-109169492D01*
X118952939Y-109276805D01*
X118814980Y-109441217D01*
X118741575Y-109642899D01*
X118511598Y-109642899D01*
X118438193Y-109441217D01*
X118300234Y-109276805D01*
X118114364Y-109169492D01*
X117902999Y-109132223D01*
X117691634Y-109169492D01*
X117505764Y-109276805D01*
X117367805Y-109441217D01*
X117294400Y-109642899D01*
X116918056Y-109642899D01*
X116844651Y-109441217D01*
X116706692Y-109276805D01*
X116669733Y-109255466D01*
X116746565Y-109241919D01*
X116932435Y-109134606D01*
X117070394Y-108970194D01*
X117143799Y-108768512D01*
X117143799Y-108553888D01*
X117111186Y-108464284D01*
X117204765Y-108575806D01*
X117390635Y-108683119D01*
X117602000Y-108720388D01*
X117813365Y-108683119D01*
X117999235Y-108575806D01*
X118137194Y-108411394D01*
X118210599Y-108209712D01*
X118210599Y-107995088D01*
X118137194Y-107793406D01*
X117999235Y-107628994D01*
X117813365Y-107521681D01*
X117602000Y-107484412D01*
X117390635Y-107521681D01*
X117204765Y-107628994D01*
X117066806Y-107793406D01*
X116993401Y-107995088D01*
X116993401Y-108209712D01*
X117026014Y-108299316D01*
X116932435Y-108187794D01*
X116746565Y-108080481D01*
X116535200Y-108043212D01*
X116323835Y-108080481D01*
X116137965Y-108187794D01*
X116000006Y-108352206D01*
X115926601Y-108553888D01*
X115926601Y-108768512D01*
X116000006Y-108970194D01*
X116137965Y-109134606D01*
X116174924Y-109155945D01*
X116098092Y-109169492D01*
X115912222Y-109276805D01*
X115774263Y-109441217D01*
X115700858Y-109642899D01*
X115140183Y-109642899D01*
X115162599Y-109581312D01*
X115162599Y-109366688D01*
X115089194Y-109165006D01*
X114951235Y-109000594D01*
X114765365Y-108893281D01*
X114554000Y-108856012D01*
X114342635Y-108893281D01*
X114172000Y-108991798D01*
X114172000Y-107145887D01*
X121645828Y-107145887D01*
X121645828Y-107360511D01*
X121719233Y-107562193D01*
X121857192Y-107726605D01*
X122043062Y-107833918D01*
X122254427Y-107871187D01*
X122465792Y-107833918D01*
X122651662Y-107726605D01*
X122789621Y-107562193D01*
X122863026Y-107360511D01*
X122863026Y-107145887D01*
X122789621Y-106944205D01*
X122651662Y-106779793D01*
X122465792Y-106672480D01*
X122254427Y-106635211D01*
X122043062Y-106672480D01*
X121857192Y-106779793D01*
X121719233Y-106944205D01*
X121645828Y-107145887D01*
X114172000Y-107145887D01*
X114172000Y-106138155D01*
X114211444Y-106115382D01*
X114349404Y-105950970D01*
X114363482Y-105912288D01*
X119635001Y-105912288D01*
X119635001Y-106126912D01*
X119708406Y-106328594D01*
X119846365Y-106493006D01*
X120032235Y-106600319D01*
X120243600Y-106637588D01*
X120454965Y-106600319D01*
X120640835Y-106493006D01*
X120691014Y-106433205D01*
X124068256Y-106433205D01*
X124068256Y-106647829D01*
X124141661Y-106849511D01*
X124279620Y-107013923D01*
X124465490Y-107121236D01*
X124676855Y-107158505D01*
X124888220Y-107121236D01*
X125074090Y-107013923D01*
X125139799Y-106935615D01*
X125269265Y-107089906D01*
X125455135Y-107197219D01*
X125666500Y-107234488D01*
X125855001Y-107201250D01*
X125893306Y-107306494D01*
X126031265Y-107470906D01*
X126217135Y-107578219D01*
X126428500Y-107615488D01*
X126639865Y-107578219D01*
X126825735Y-107470906D01*
X126963694Y-107306494D01*
X127037099Y-107104812D01*
X127037099Y-106890188D01*
X127023418Y-106852598D01*
X127071000Y-106860988D01*
X127226941Y-106833492D01*
X127298893Y-106919240D01*
X127484763Y-107026553D01*
X127696128Y-107063822D01*
X127907493Y-107026553D01*
X128093363Y-106919240D01*
X128231322Y-106754828D01*
X128304727Y-106553146D01*
X128304727Y-106338522D01*
X128242192Y-106166705D01*
X128394581Y-106166705D01*
X128394581Y-106381329D01*
X128467986Y-106583011D01*
X128605945Y-106747423D01*
X128791815Y-106854736D01*
X129003180Y-106892005D01*
X129214544Y-106854736D01*
X129222452Y-106850170D01*
X129249217Y-106882067D01*
X129435086Y-106989380D01*
X129646451Y-107026649D01*
X129857816Y-106989380D01*
X129919635Y-106953688D01*
X131661901Y-106953688D01*
X131661901Y-107168312D01*
X131735306Y-107369994D01*
X131873265Y-107534406D01*
X132059135Y-107641719D01*
X132270500Y-107678988D01*
X132481865Y-107641719D01*
X132667735Y-107534406D01*
X132805694Y-107369994D01*
X132879099Y-107168312D01*
X132879099Y-106953688D01*
X132805694Y-106752006D01*
X132667735Y-106587594D01*
X132481865Y-106480281D01*
X132270500Y-106443012D01*
X132059135Y-106480281D01*
X131873265Y-106587594D01*
X131735306Y-106752006D01*
X131661901Y-106953688D01*
X129919635Y-106953688D01*
X130043686Y-106882067D01*
X130181645Y-106717655D01*
X130255050Y-106515973D01*
X130255050Y-106301349D01*
X130181645Y-106099667D01*
X130179903Y-106097590D01*
X133183414Y-106097590D01*
X133183414Y-106312214D01*
X133256819Y-106513896D01*
X133394778Y-106678308D01*
X133580648Y-106785621D01*
X133792013Y-106822890D01*
X134003378Y-106785621D01*
X134189248Y-106678308D01*
X134327207Y-106513896D01*
X134400612Y-106312214D01*
X134400612Y-106261133D01*
X134585799Y-106154214D01*
X134723758Y-105989802D01*
X134751444Y-105913735D01*
X134823200Y-105926388D01*
X135034565Y-105889119D01*
X135220435Y-105781806D01*
X135358394Y-105617394D01*
X135431799Y-105415712D01*
X135431799Y-105353488D01*
X139497801Y-105353488D01*
X139497801Y-105568112D01*
X139571206Y-105769794D01*
X139709165Y-105934206D01*
X139895035Y-106041519D01*
X140106400Y-106078788D01*
X140186365Y-106064688D01*
X145339801Y-106064688D01*
X145339801Y-106279312D01*
X145413206Y-106480994D01*
X145551165Y-106645406D01*
X145737035Y-106752719D01*
X145948400Y-106789988D01*
X146159765Y-106752719D01*
X146345635Y-106645406D01*
X146483594Y-106480994D01*
X146556999Y-106279312D01*
X146556999Y-106222408D01*
X146718565Y-106193920D01*
X146904435Y-106086607D01*
X147042394Y-105922195D01*
X147115799Y-105720513D01*
X147115799Y-105505889D01*
X147042394Y-105304207D01*
X146904435Y-105139795D01*
X146718565Y-105032482D01*
X146507200Y-104995213D01*
X146295835Y-105032482D01*
X146109965Y-105139795D01*
X145972006Y-105304207D01*
X145898601Y-105505889D01*
X145898601Y-105562793D01*
X145737035Y-105591281D01*
X145551165Y-105698594D01*
X145413206Y-105863006D01*
X145339801Y-106064688D01*
X140186365Y-106064688D01*
X140317765Y-106041519D01*
X140503635Y-105934206D01*
X140641594Y-105769794D01*
X140714999Y-105568112D01*
X140714999Y-105353488D01*
X140641594Y-105151806D01*
X140503635Y-104987394D01*
X140317765Y-104880081D01*
X140106400Y-104842812D01*
X139895035Y-104880081D01*
X139709165Y-104987394D01*
X139571206Y-105151806D01*
X139497801Y-105353488D01*
X135431799Y-105353488D01*
X135431799Y-105201088D01*
X135358394Y-104999406D01*
X135220435Y-104834994D01*
X135034565Y-104727681D01*
X134823200Y-104690412D01*
X134611835Y-104727681D01*
X134425965Y-104834994D01*
X134288006Y-104999406D01*
X134260320Y-105075473D01*
X134188564Y-105062820D01*
X133977199Y-105100089D01*
X133791329Y-105207402D01*
X133653370Y-105371814D01*
X133579965Y-105573496D01*
X133579965Y-105624577D01*
X133394778Y-105731496D01*
X133256819Y-105895908D01*
X133183414Y-106097590D01*
X130179903Y-106097590D01*
X130043686Y-105935255D01*
X129857816Y-105827942D01*
X129646451Y-105790673D01*
X129435087Y-105827942D01*
X129427179Y-105832508D01*
X129400414Y-105800611D01*
X129214545Y-105693298D01*
X129003180Y-105656029D01*
X128791815Y-105693298D01*
X128605945Y-105800611D01*
X128467986Y-105965023D01*
X128394581Y-106166705D01*
X128242192Y-106166705D01*
X128231322Y-106136840D01*
X128093363Y-105972428D01*
X127907493Y-105865115D01*
X127696128Y-105827846D01*
X127540187Y-105855342D01*
X127468235Y-105769594D01*
X127282365Y-105662281D01*
X127071000Y-105625012D01*
X126859635Y-105662281D01*
X126673765Y-105769594D01*
X126535806Y-105934006D01*
X126462401Y-106135688D01*
X126462401Y-106350312D01*
X126476082Y-106387902D01*
X126428500Y-106379512D01*
X126239999Y-106412750D01*
X126201694Y-106307506D01*
X126063735Y-106143094D01*
X125877865Y-106035781D01*
X125666500Y-105998512D01*
X125455135Y-106035781D01*
X125269265Y-106143094D01*
X125203556Y-106221402D01*
X125074090Y-106067111D01*
X124888220Y-105959798D01*
X124676855Y-105922529D01*
X124465490Y-105959798D01*
X124279620Y-106067111D01*
X124141661Y-106231523D01*
X124068256Y-106433205D01*
X120691014Y-106433205D01*
X120778794Y-106328594D01*
X120852199Y-106126912D01*
X120852199Y-105912288D01*
X120778794Y-105710606D01*
X120640835Y-105546194D01*
X120454965Y-105438881D01*
X120243600Y-105401612D01*
X120032235Y-105438881D01*
X119846365Y-105546194D01*
X119708406Y-105710606D01*
X119635001Y-105912288D01*
X114363482Y-105912288D01*
X114422809Y-105749288D01*
X114422809Y-105534664D01*
X114349404Y-105332982D01*
X114211444Y-105168570D01*
X114172000Y-105145797D01*
X114172000Y-104991577D01*
X123195635Y-104991577D01*
X123195635Y-105206201D01*
X123269040Y-105407883D01*
X123406999Y-105572295D01*
X123592869Y-105679608D01*
X123804234Y-105716877D01*
X124015599Y-105679608D01*
X124201469Y-105572295D01*
X124339428Y-105407883D01*
X124412833Y-105206201D01*
X124412833Y-104991577D01*
X124339428Y-104789895D01*
X124201469Y-104625483D01*
X124160602Y-104601888D01*
X130597401Y-104601888D01*
X130597401Y-104816512D01*
X130670806Y-105018194D01*
X130808765Y-105182606D01*
X130994635Y-105289919D01*
X131206000Y-105327188D01*
X131417365Y-105289919D01*
X131603235Y-105182606D01*
X131741194Y-105018194D01*
X131814599Y-104816512D01*
X131814599Y-104601888D01*
X131741194Y-104400206D01*
X131603235Y-104235794D01*
X131417365Y-104128481D01*
X131206000Y-104091212D01*
X130994635Y-104128481D01*
X130808765Y-104235794D01*
X130670806Y-104400206D01*
X130597401Y-104601888D01*
X124160602Y-104601888D01*
X124015599Y-104518170D01*
X123804234Y-104480901D01*
X123592869Y-104518170D01*
X123406999Y-104625483D01*
X123269040Y-104789895D01*
X123195635Y-104991577D01*
X114172000Y-104991577D01*
X114172000Y-103016688D01*
X119889001Y-103016688D01*
X119889001Y-103231312D01*
X119962406Y-103432994D01*
X120100365Y-103597406D01*
X120286235Y-103704719D01*
X120497600Y-103741988D01*
X120708965Y-103704719D01*
X120894835Y-103597406D01*
X121032794Y-103432994D01*
X121106199Y-103231312D01*
X121106199Y-103016688D01*
X121032794Y-102815006D01*
X120903641Y-102661088D01*
X122327401Y-102661088D01*
X122327401Y-102875712D01*
X122400806Y-103077394D01*
X122512027Y-103209941D01*
X122502406Y-103221406D01*
X122429001Y-103423088D01*
X122429001Y-103637712D01*
X122502406Y-103839394D01*
X122640365Y-104003806D01*
X122826235Y-104111119D01*
X123037600Y-104148388D01*
X123248965Y-104111119D01*
X123434835Y-104003806D01*
X123572794Y-103839394D01*
X123646199Y-103637712D01*
X123646199Y-103423088D01*
X123572794Y-103221406D01*
X123506565Y-103142477D01*
X125121401Y-103142477D01*
X125121401Y-103357101D01*
X125194806Y-103558783D01*
X125332765Y-103723195D01*
X125518635Y-103830508D01*
X125730000Y-103867777D01*
X125941365Y-103830508D01*
X126127235Y-103723195D01*
X126134878Y-103714086D01*
X126377928Y-103714086D01*
X126377928Y-103928710D01*
X126451333Y-104130392D01*
X126589292Y-104294804D01*
X126775162Y-104402117D01*
X126986527Y-104439386D01*
X127197892Y-104402117D01*
X127383762Y-104294804D01*
X127521721Y-104130392D01*
X127595126Y-103928710D01*
X127595126Y-103750111D01*
X127793194Y-103785035D01*
X127851901Y-103774683D01*
X127851901Y-103802812D01*
X127925306Y-104004494D01*
X128063265Y-104168906D01*
X128249135Y-104276219D01*
X128460500Y-104313488D01*
X128671865Y-104276219D01*
X128857735Y-104168906D01*
X128995694Y-104004494D01*
X129069099Y-103802812D01*
X129069099Y-103638888D01*
X131593789Y-103638888D01*
X131593789Y-103853512D01*
X131667194Y-104055194D01*
X131805153Y-104219606D01*
X131991023Y-104326919D01*
X132202388Y-104364188D01*
X132413753Y-104326919D01*
X132599623Y-104219606D01*
X132737582Y-104055194D01*
X132810987Y-103853512D01*
X132810987Y-103638888D01*
X132746311Y-103461188D01*
X142647401Y-103461188D01*
X142647401Y-103675812D01*
X142720806Y-103877494D01*
X142858765Y-104041906D01*
X143044635Y-104149219D01*
X143256000Y-104186488D01*
X143467365Y-104149219D01*
X143653235Y-104041906D01*
X143791194Y-103877494D01*
X143864599Y-103675812D01*
X143864599Y-103461188D01*
X143852687Y-103428457D01*
X144330122Y-103428457D01*
X144330122Y-103643081D01*
X144403527Y-103844763D01*
X144541486Y-104009175D01*
X144727356Y-104116488D01*
X144938721Y-104153757D01*
X145150086Y-104116488D01*
X145335956Y-104009175D01*
X145473915Y-103844763D01*
X145547320Y-103643081D01*
X145547320Y-103531590D01*
X148117024Y-103531590D01*
X148117024Y-105256410D01*
X148144047Y-105392269D01*
X148228035Y-105517965D01*
X148353731Y-105601953D01*
X148489590Y-105628976D01*
X150214410Y-105628976D01*
X150350269Y-105601953D01*
X150475965Y-105517965D01*
X150559953Y-105392269D01*
X150586976Y-105256410D01*
X150586976Y-103531590D01*
X150559953Y-103395731D01*
X150475965Y-103270035D01*
X150350269Y-103186047D01*
X150214410Y-103159024D01*
X148489590Y-103159024D01*
X148353731Y-103186047D01*
X148228035Y-103270035D01*
X148144047Y-103395731D01*
X148117024Y-103531590D01*
X145547320Y-103531590D01*
X145547320Y-103428457D01*
X145473915Y-103226775D01*
X145335956Y-103062363D01*
X145150086Y-102955050D01*
X144938721Y-102917781D01*
X144727356Y-102955050D01*
X144541486Y-103062363D01*
X144403527Y-103226775D01*
X144330122Y-103428457D01*
X143852687Y-103428457D01*
X143791194Y-103259506D01*
X143653235Y-103095094D01*
X143467365Y-102987781D01*
X143256000Y-102950512D01*
X143044635Y-102987781D01*
X142858765Y-103095094D01*
X142720806Y-103259506D01*
X142647401Y-103461188D01*
X132746311Y-103461188D01*
X132737582Y-103437206D01*
X132599623Y-103272794D01*
X132413753Y-103165481D01*
X132202388Y-103128212D01*
X131991023Y-103165481D01*
X131805153Y-103272794D01*
X131667194Y-103437206D01*
X131593789Y-103638888D01*
X129069099Y-103638888D01*
X129069099Y-103588188D01*
X128995694Y-103386506D01*
X128857735Y-103222094D01*
X128671865Y-103114781D01*
X128460500Y-103077512D01*
X128401793Y-103087864D01*
X128401793Y-103059735D01*
X128328388Y-102858053D01*
X128190429Y-102693641D01*
X128004559Y-102586328D01*
X127909753Y-102569611D01*
X127841572Y-102382283D01*
X127703613Y-102217871D01*
X127517743Y-102110558D01*
X127306378Y-102073289D01*
X127095013Y-102110558D01*
X126909143Y-102217871D01*
X126771184Y-102382283D01*
X126697779Y-102583965D01*
X126697779Y-102798589D01*
X126771184Y-103000271D01*
X126909143Y-103164683D01*
X126978631Y-103204802D01*
X126775162Y-103240679D01*
X126589292Y-103347992D01*
X126451333Y-103512404D01*
X126377928Y-103714086D01*
X126134878Y-103714086D01*
X126265194Y-103558783D01*
X126338599Y-103357101D01*
X126338599Y-103142477D01*
X126265194Y-102940795D01*
X126127235Y-102776383D01*
X125941365Y-102669070D01*
X125730000Y-102631801D01*
X125518635Y-102669070D01*
X125332765Y-102776383D01*
X125194806Y-102940795D01*
X125121401Y-103142477D01*
X123506565Y-103142477D01*
X123461573Y-103088859D01*
X123471194Y-103077394D01*
X123544599Y-102875712D01*
X123544599Y-102661088D01*
X123471194Y-102459406D01*
X123333235Y-102294994D01*
X123147365Y-102187681D01*
X122936000Y-102150412D01*
X122724635Y-102187681D01*
X122538765Y-102294994D01*
X122400806Y-102459406D01*
X122327401Y-102661088D01*
X120903641Y-102661088D01*
X120894835Y-102650594D01*
X120708965Y-102543281D01*
X120497600Y-102506012D01*
X120286235Y-102543281D01*
X120100365Y-102650594D01*
X119962406Y-102815006D01*
X119889001Y-103016688D01*
X114172000Y-103016688D01*
X114172000Y-102843269D01*
X114206909Y-102747357D01*
X114206909Y-102532733D01*
X114172000Y-102436821D01*
X114172000Y-101253886D01*
X114220265Y-101311406D01*
X114406135Y-101418719D01*
X114617500Y-101455988D01*
X114828865Y-101418719D01*
X115014735Y-101311406D01*
X115152694Y-101146994D01*
X115226099Y-100945312D01*
X115226099Y-100730688D01*
X117501401Y-100730688D01*
X117501401Y-100945312D01*
X117574806Y-101146994D01*
X117712765Y-101311406D01*
X117898635Y-101418719D01*
X118110000Y-101455988D01*
X118321365Y-101418719D01*
X118507235Y-101311406D01*
X118645194Y-101146994D01*
X118649603Y-101134880D01*
X124336989Y-101134880D01*
X124336989Y-101349504D01*
X124410394Y-101551186D01*
X124548353Y-101715598D01*
X124734223Y-101822911D01*
X124945588Y-101860180D01*
X125156953Y-101822911D01*
X125288973Y-101746688D01*
X133097001Y-101746688D01*
X133097001Y-101961312D01*
X133170406Y-102162994D01*
X133308365Y-102327406D01*
X133494235Y-102434719D01*
X133705600Y-102471988D01*
X133916965Y-102434719D01*
X134102835Y-102327406D01*
X134121226Y-102305488D01*
X137923001Y-102305488D01*
X137923001Y-102520112D01*
X137996406Y-102721794D01*
X138134365Y-102886206D01*
X138320235Y-102993519D01*
X138531600Y-103030788D01*
X138742965Y-102993519D01*
X138928835Y-102886206D01*
X139066794Y-102721794D01*
X139071560Y-102708698D01*
X145573739Y-102708698D01*
X145573739Y-102923322D01*
X145647144Y-103125004D01*
X145785103Y-103289416D01*
X145970973Y-103396729D01*
X146182338Y-103433998D01*
X146393703Y-103396729D01*
X146579573Y-103289416D01*
X146717532Y-103125004D01*
X146756955Y-103016688D01*
X156744401Y-103016688D01*
X156744401Y-103231312D01*
X156817806Y-103432994D01*
X156955765Y-103597406D01*
X157141635Y-103704719D01*
X157353000Y-103741988D01*
X157564365Y-103704719D01*
X157750235Y-103597406D01*
X157888194Y-103432994D01*
X157961599Y-103231312D01*
X157961599Y-103016688D01*
X157888194Y-102815006D01*
X157750235Y-102650594D01*
X157564365Y-102543281D01*
X157353000Y-102506012D01*
X157141635Y-102543281D01*
X156955765Y-102650594D01*
X156817806Y-102815006D01*
X156744401Y-103016688D01*
X146756955Y-103016688D01*
X146790937Y-102923322D01*
X146790937Y-102708698D01*
X146717532Y-102507016D01*
X146579573Y-102342604D01*
X146393703Y-102235291D01*
X146182338Y-102198022D01*
X145970973Y-102235291D01*
X145785103Y-102342604D01*
X145647144Y-102507016D01*
X145573739Y-102708698D01*
X139071560Y-102708698D01*
X139140199Y-102520112D01*
X139140199Y-102305488D01*
X139066794Y-102103806D01*
X138928835Y-101939394D01*
X138742965Y-101832081D01*
X138531600Y-101794812D01*
X138320235Y-101832081D01*
X138134365Y-101939394D01*
X137996406Y-102103806D01*
X137923001Y-102305488D01*
X134121226Y-102305488D01*
X134240794Y-102162994D01*
X134314199Y-101961312D01*
X134314199Y-101746688D01*
X134240794Y-101545006D01*
X134234160Y-101537099D01*
X142168519Y-101537099D01*
X142168519Y-101751723D01*
X142241924Y-101953405D01*
X142379883Y-102117817D01*
X142565753Y-102225130D01*
X142777118Y-102262399D01*
X142988483Y-102225130D01*
X143174353Y-102117817D01*
X143312312Y-101953405D01*
X143385717Y-101751723D01*
X143385717Y-101537099D01*
X143370501Y-101495293D01*
X143501835Y-101571119D01*
X143713200Y-101608388D01*
X143924565Y-101571119D01*
X144110435Y-101463806D01*
X144220179Y-101333018D01*
X145036544Y-101333018D01*
X145036544Y-101547642D01*
X145109949Y-101749324D01*
X145247908Y-101913736D01*
X145433778Y-102021049D01*
X145645143Y-102058318D01*
X145856508Y-102021049D01*
X146042378Y-101913736D01*
X146180337Y-101749324D01*
X146253742Y-101547642D01*
X146253742Y-101432320D01*
X148235401Y-101432320D01*
X148235401Y-101646944D01*
X148308806Y-101848626D01*
X148446765Y-102013038D01*
X148632635Y-102120351D01*
X148669819Y-102126907D01*
X148641801Y-102203888D01*
X148641801Y-102418512D01*
X148715206Y-102620194D01*
X148853165Y-102784606D01*
X149039035Y-102891919D01*
X149250400Y-102929188D01*
X149461765Y-102891919D01*
X149647635Y-102784606D01*
X149785594Y-102620194D01*
X149858999Y-102418512D01*
X149858999Y-102203888D01*
X149785594Y-102002206D01*
X149647635Y-101837794D01*
X149461765Y-101730481D01*
X149424581Y-101723925D01*
X149452599Y-101646944D01*
X149452599Y-101432320D01*
X149379194Y-101230638D01*
X149241235Y-101066226D01*
X149055365Y-100958913D01*
X148844000Y-100921644D01*
X148632635Y-100958913D01*
X148446765Y-101066226D01*
X148308806Y-101230638D01*
X148235401Y-101432320D01*
X146253742Y-101432320D01*
X146253742Y-101333018D01*
X146180337Y-101131336D01*
X146042378Y-100966924D01*
X145856508Y-100859611D01*
X145645143Y-100822342D01*
X145433778Y-100859611D01*
X145247908Y-100966924D01*
X145109949Y-101131336D01*
X145036544Y-101333018D01*
X144220179Y-101333018D01*
X144248394Y-101299394D01*
X144321799Y-101097712D01*
X144321799Y-100883088D01*
X144248394Y-100681406D01*
X144110435Y-100516994D01*
X143924565Y-100409681D01*
X143713200Y-100372412D01*
X143501835Y-100409681D01*
X143315965Y-100516994D01*
X143178006Y-100681406D01*
X143104601Y-100883088D01*
X143104601Y-101097712D01*
X143119817Y-101139518D01*
X142988483Y-101063692D01*
X142777118Y-101026423D01*
X142565753Y-101063692D01*
X142379883Y-101171005D01*
X142241924Y-101335417D01*
X142168519Y-101537099D01*
X134234160Y-101537099D01*
X134102835Y-101380594D01*
X133916965Y-101273281D01*
X133705600Y-101236012D01*
X133494235Y-101273281D01*
X133308365Y-101380594D01*
X133170406Y-101545006D01*
X133097001Y-101746688D01*
X125288973Y-101746688D01*
X125342823Y-101715598D01*
X125480782Y-101551186D01*
X125554187Y-101349504D01*
X125554187Y-101134880D01*
X125480782Y-100933198D01*
X125342823Y-100768786D01*
X125276836Y-100730688D01*
X131090401Y-100730688D01*
X131090401Y-100945312D01*
X131163806Y-101146994D01*
X131301765Y-101311406D01*
X131487635Y-101418719D01*
X131699000Y-101455988D01*
X131910365Y-101418719D01*
X132096235Y-101311406D01*
X132234194Y-101146994D01*
X132307599Y-100945312D01*
X132307599Y-100730688D01*
X132234194Y-100529006D01*
X132096235Y-100364594D01*
X131910365Y-100257281D01*
X131699000Y-100220012D01*
X131487635Y-100257281D01*
X131301765Y-100364594D01*
X131163806Y-100529006D01*
X131090401Y-100730688D01*
X125276836Y-100730688D01*
X125156953Y-100661473D01*
X124945588Y-100624204D01*
X124734223Y-100661473D01*
X124548353Y-100768786D01*
X124410394Y-100933198D01*
X124336989Y-101134880D01*
X118649603Y-101134880D01*
X118718599Y-100945312D01*
X118718599Y-100730688D01*
X118645194Y-100529006D01*
X118507235Y-100364594D01*
X118321365Y-100257281D01*
X118110000Y-100220012D01*
X117898635Y-100257281D01*
X117712765Y-100364594D01*
X117574806Y-100529006D01*
X117501401Y-100730688D01*
X115226099Y-100730688D01*
X115152694Y-100529006D01*
X115014735Y-100364594D01*
X114828865Y-100257281D01*
X114617500Y-100220012D01*
X114406135Y-100257281D01*
X114220265Y-100364594D01*
X114172000Y-100422114D01*
X114172000Y-99998800D01*
X116213838Y-99998800D01*
X116252266Y-100044596D01*
X116438135Y-100151909D01*
X116649500Y-100189178D01*
X116860865Y-100151909D01*
X117046734Y-100044596D01*
X117085162Y-99998800D01*
X118652417Y-99998800D01*
X118654307Y-100003994D01*
X118792265Y-100168406D01*
X118978135Y-100275719D01*
X119189500Y-100312988D01*
X119400865Y-100275719D01*
X119586735Y-100168406D01*
X119724693Y-100003994D01*
X119726583Y-99998800D01*
X126653777Y-99998800D01*
X126653777Y-100154715D01*
X126727182Y-100356397D01*
X126865141Y-100520809D01*
X127051011Y-100628122D01*
X127262376Y-100665391D01*
X127473741Y-100628122D01*
X127659611Y-100520809D01*
X127797570Y-100356397D01*
X127870975Y-100154715D01*
X127870975Y-99998800D01*
X131831604Y-99998800D01*
X131880879Y-100134184D01*
X132018838Y-100298596D01*
X132204708Y-100405909D01*
X132416073Y-100443178D01*
X132627438Y-100405909D01*
X132813308Y-100298596D01*
X132951267Y-100134184D01*
X133000542Y-99998800D01*
X147569372Y-99998800D01*
X147618647Y-100134184D01*
X147756606Y-100298596D01*
X147942476Y-100405909D01*
X148153841Y-100443178D01*
X148365206Y-100405909D01*
X148551076Y-100298596D01*
X148689035Y-100134184D01*
X148738310Y-99998800D01*
X152655808Y-99998800D01*
X152551109Y-100017261D01*
X152365239Y-100124574D01*
X152227280Y-100288986D01*
X152153875Y-100490668D01*
X152153875Y-100705292D01*
X152227280Y-100906974D01*
X152365239Y-101071386D01*
X152551109Y-101178699D01*
X152762474Y-101215968D01*
X152973839Y-101178699D01*
X153159709Y-101071386D01*
X153297668Y-100906974D01*
X153366201Y-100718678D01*
X153366201Y-100792912D01*
X153439606Y-100994594D01*
X153577565Y-101159006D01*
X153763435Y-101266319D01*
X153974800Y-101303588D01*
X154186165Y-101266319D01*
X154372035Y-101159006D01*
X154508200Y-100996732D01*
X154644365Y-101159006D01*
X154830235Y-101266319D01*
X155041600Y-101303588D01*
X155252965Y-101266319D01*
X155438835Y-101159006D01*
X155576794Y-100994594D01*
X155650199Y-100792912D01*
X155650199Y-100578288D01*
X155576794Y-100376606D01*
X155438835Y-100212194D01*
X155252965Y-100104881D01*
X155041600Y-100067612D01*
X154830235Y-100104881D01*
X154644365Y-100212194D01*
X154508200Y-100374468D01*
X154372035Y-100212194D01*
X154186165Y-100104881D01*
X153974800Y-100067612D01*
X153763435Y-100104881D01*
X153577565Y-100212194D01*
X153439606Y-100376606D01*
X153371073Y-100564902D01*
X153371073Y-100490668D01*
X153297668Y-100288986D01*
X153159709Y-100124574D01*
X152973839Y-100017261D01*
X152869140Y-99998800D01*
X156725803Y-99998800D01*
X156792406Y-100181794D01*
X156930365Y-100346206D01*
X157116235Y-100453519D01*
X157327600Y-100490788D01*
X157538965Y-100453519D01*
X157724835Y-100346206D01*
X157862794Y-100181794D01*
X157929397Y-99998800D01*
X159640000Y-99998800D01*
X159640000Y-104231532D01*
X159491135Y-104257781D01*
X159305265Y-104365094D01*
X159167306Y-104529506D01*
X159093901Y-104731188D01*
X159093901Y-104945812D01*
X159167306Y-105147494D01*
X159187960Y-105172107D01*
X159168500Y-105183800D01*
X159013794Y-105330098D01*
X158894111Y-105506206D01*
X158815038Y-105703905D01*
X158780260Y-105913972D01*
X158791404Y-106126608D01*
X158847948Y-106331889D01*
X158947255Y-106520239D01*
X159084690Y-106682871D01*
X159253841Y-106812198D01*
X159450055Y-106903694D01*
X159640000Y-106935139D01*
X159640000Y-111996748D01*
X159552819Y-112006219D01*
X159351014Y-112074134D01*
X159168500Y-112183800D01*
X159013794Y-112330098D01*
X158894111Y-112506206D01*
X158815038Y-112703905D01*
X158780260Y-112913972D01*
X158791404Y-113126608D01*
X158847948Y-113331889D01*
X158947255Y-113520239D01*
X159084690Y-113682871D01*
X159253841Y-113812198D01*
X159450055Y-113903694D01*
X159640000Y-113935139D01*
X159640000Y-116121729D01*
X159554635Y-116136781D01*
X159368765Y-116244094D01*
X159230806Y-116408506D01*
X159157401Y-116610188D01*
X159157401Y-116824812D01*
X159230806Y-117026494D01*
X159368765Y-117190906D01*
X159554635Y-117298219D01*
X159640000Y-117313271D01*
X159640000Y-118949200D01*
X157477061Y-118949200D01*
X157437364Y-118926281D01*
X157226000Y-118889012D01*
X157014636Y-118926281D01*
X156974939Y-118949200D01*
X149603061Y-118949200D01*
X149563364Y-118926281D01*
X149352000Y-118889012D01*
X149140636Y-118926281D01*
X149100939Y-118949200D01*
X140670491Y-118949200D01*
X140714999Y-118826912D01*
X140714999Y-118612288D01*
X140641594Y-118410606D01*
X140503635Y-118246194D01*
X140317765Y-118138881D01*
X140106400Y-118101612D01*
X139895035Y-118138881D01*
X139709165Y-118246194D01*
X139571206Y-118410606D01*
X139497801Y-118612288D01*
X139497801Y-118826912D01*
X139542309Y-118949200D01*
X139084203Y-118949200D01*
X139084203Y-118811331D01*
X139010798Y-118609649D01*
X138872839Y-118445237D01*
X138686969Y-118337924D01*
X138475604Y-118300655D01*
X138266305Y-118337560D01*
X138327399Y-118169702D01*
X138327399Y-117955078D01*
X138253994Y-117753396D01*
X138116035Y-117588984D01*
X137930165Y-117481671D01*
X137718800Y-117444402D01*
X137507435Y-117481671D01*
X137321565Y-117588984D01*
X137183606Y-117753396D01*
X137110201Y-117955078D01*
X137110201Y-118169702D01*
X137183606Y-118371384D01*
X137194543Y-118384418D01*
X137117365Y-118339859D01*
X136906000Y-118302590D01*
X136694635Y-118339859D01*
X136508765Y-118447172D01*
X136370806Y-118611584D01*
X136297401Y-118813266D01*
X136297401Y-118949200D01*
X135025399Y-118949200D01*
X135025399Y-118809109D01*
X134951994Y-118607427D01*
X134814035Y-118443015D01*
X134628165Y-118335702D01*
X134416800Y-118298433D01*
X134205435Y-118335702D01*
X134019565Y-118443015D01*
X133881606Y-118607427D01*
X133808201Y-118809109D01*
X133808201Y-118949200D01*
X133719651Y-118949200D01*
X133783587Y-118873004D01*
X133856992Y-118671322D01*
X133856992Y-118456698D01*
X133783587Y-118255016D01*
X133645628Y-118090604D01*
X133459758Y-117983291D01*
X133248393Y-117946022D01*
X133037028Y-117983291D01*
X132851158Y-118090604D01*
X132713199Y-118255016D01*
X132639794Y-118456698D01*
X132639794Y-118671322D01*
X132713199Y-118873004D01*
X132777135Y-118949200D01*
X131983467Y-118949200D01*
X132088166Y-118930739D01*
X132274036Y-118823426D01*
X132411995Y-118659014D01*
X132485400Y-118457332D01*
X132485400Y-118242708D01*
X132411995Y-118041026D01*
X132274036Y-117876614D01*
X132088166Y-117769301D01*
X131876801Y-117732032D01*
X131665436Y-117769301D01*
X131479566Y-117876614D01*
X131341607Y-118041026D01*
X131311974Y-118122445D01*
X131282340Y-118041026D01*
X131144381Y-117876614D01*
X130958511Y-117769301D01*
X130747146Y-117732032D01*
X130535781Y-117769301D01*
X130418548Y-117836986D01*
X130301300Y-117769292D01*
X130089935Y-117732023D01*
X129878570Y-117769292D01*
X129692700Y-117876605D01*
X129554741Y-118041017D01*
X129481336Y-118242699D01*
X129481336Y-118457323D01*
X129554741Y-118659005D01*
X129692700Y-118823417D01*
X129878570Y-118930730D01*
X129983320Y-118949200D01*
X122207181Y-118949200D01*
X122201193Y-118932749D01*
X122063235Y-118768337D01*
X121877365Y-118661024D01*
X121666000Y-118623755D01*
X121454635Y-118661024D01*
X121268765Y-118768337D01*
X121130807Y-118932749D01*
X121124819Y-118949200D01*
X119734599Y-118949200D01*
X119734599Y-118782020D01*
X119661194Y-118580338D01*
X119523235Y-118415926D01*
X119337365Y-118308613D01*
X119126000Y-118271344D01*
X118914635Y-118308613D01*
X118728765Y-118415926D01*
X118590806Y-118580338D01*
X118517401Y-118782020D01*
X118517401Y-118949200D01*
X114172000Y-118949200D01*
X114172000Y-117373246D01*
X114261631Y-117495041D01*
X114418016Y-117627899D01*
X114604308Y-117723025D01*
X114869832Y-117770800D01*
X114960938Y-117770800D01*
X115113421Y-117753022D01*
X115306308Y-117683008D01*
X115383854Y-117632167D01*
X115405635Y-117664765D01*
X115531331Y-117748753D01*
X115667190Y-117775776D01*
X116123843Y-117775776D01*
X116050806Y-117862817D01*
X115977401Y-118064499D01*
X115977401Y-118279123D01*
X116050806Y-118480805D01*
X116188765Y-118645217D01*
X116374635Y-118752530D01*
X116586000Y-118789799D01*
X116797365Y-118752530D01*
X116983235Y-118645217D01*
X117121194Y-118480805D01*
X117194599Y-118279123D01*
X117194599Y-118064499D01*
X117121194Y-117862817D01*
X116983235Y-117698405D01*
X116940310Y-117673622D01*
X116953565Y-117664765D01*
X117037553Y-117539069D01*
X117051709Y-117467897D01*
X117081031Y-117507741D01*
X117237416Y-117640599D01*
X117423708Y-117735725D01*
X117689232Y-117783500D01*
X117780338Y-117783500D01*
X117932821Y-117765722D01*
X118125708Y-117695708D01*
X118203254Y-117644867D01*
X118225035Y-117677465D01*
X118350731Y-117761453D01*
X118486590Y-117788476D01*
X119511410Y-117788476D01*
X119647269Y-117761453D01*
X119772965Y-117677465D01*
X119856953Y-117551769D01*
X119865547Y-117508563D01*
X120006016Y-117627899D01*
X120192308Y-117723025D01*
X120457832Y-117770800D01*
X120548938Y-117770800D01*
X120701421Y-117753022D01*
X120894308Y-117683008D01*
X120971854Y-117632167D01*
X120993635Y-117664765D01*
X121119331Y-117748753D01*
X121255190Y-117775776D01*
X122280010Y-117775776D01*
X122316722Y-117768473D01*
X122341407Y-117836295D01*
X122479366Y-118000707D01*
X122665236Y-118108020D01*
X122876601Y-118145289D01*
X123087966Y-118108020D01*
X123273836Y-118000707D01*
X123411795Y-117836295D01*
X123485200Y-117634613D01*
X123485200Y-117494688D01*
X126137401Y-117494688D01*
X126137401Y-117709312D01*
X126210806Y-117910994D01*
X126348765Y-118075406D01*
X126534635Y-118182719D01*
X126746000Y-118219988D01*
X126957365Y-118182719D01*
X127143235Y-118075406D01*
X127281194Y-117910994D01*
X127354599Y-117709312D01*
X127354599Y-117494688D01*
X127281194Y-117293006D01*
X127230917Y-117233088D01*
X133247450Y-117233088D01*
X133247450Y-117447712D01*
X133320855Y-117649394D01*
X133458814Y-117813806D01*
X133644684Y-117921119D01*
X133856049Y-117958388D01*
X134067414Y-117921119D01*
X134253284Y-117813806D01*
X134316978Y-117737898D01*
X135524611Y-117737898D01*
X135524611Y-117952522D01*
X135598016Y-118154204D01*
X135735975Y-118318616D01*
X135921845Y-118425929D01*
X136133210Y-118463198D01*
X136344575Y-118425929D01*
X136530445Y-118318616D01*
X136668404Y-118154204D01*
X136741809Y-117952522D01*
X136741809Y-117737898D01*
X136668404Y-117536216D01*
X136530445Y-117371804D01*
X136344575Y-117264491D01*
X136133210Y-117227222D01*
X135921845Y-117264491D01*
X135735975Y-117371804D01*
X135598016Y-117536216D01*
X135524611Y-117737898D01*
X134316978Y-117737898D01*
X134391243Y-117649394D01*
X134464648Y-117447712D01*
X134464648Y-117233088D01*
X134391243Y-117031406D01*
X134253284Y-116866994D01*
X134067414Y-116759681D01*
X133856049Y-116722412D01*
X133644684Y-116759681D01*
X133458814Y-116866994D01*
X133320855Y-117031406D01*
X133247450Y-117233088D01*
X127230917Y-117233088D01*
X127143235Y-117128594D01*
X126957365Y-117021281D01*
X126746000Y-116984012D01*
X126534635Y-117021281D01*
X126348765Y-117128594D01*
X126210806Y-117293006D01*
X126137401Y-117494688D01*
X123485200Y-117494688D01*
X123485200Y-117419989D01*
X123411795Y-117218307D01*
X123411795Y-117218307D01*
G37*
X123411795Y-117218307D02*
X123273836Y-117053895D01*
X123087966Y-116946582D01*
X122876601Y-116909313D01*
X122665236Y-116946582D01*
X122652576Y-116953891D01*
X122652576Y-116382104D01*
X122656268Y-116392248D01*
X122794227Y-116556660D01*
X122980097Y-116663973D01*
X123191462Y-116701242D01*
X123402827Y-116663973D01*
X123588697Y-116556660D01*
X123726656Y-116392248D01*
X123800061Y-116190566D01*
X123800061Y-116173888D01*
X132335001Y-116173888D01*
X132335001Y-116388512D01*
X132408406Y-116590194D01*
X132546365Y-116754606D01*
X132732235Y-116861919D01*
X132943600Y-116899188D01*
X133154965Y-116861919D01*
X133340835Y-116754606D01*
X133478794Y-116590194D01*
X133537867Y-116427888D01*
X138735801Y-116427888D01*
X138735801Y-116642512D01*
X138809206Y-116844194D01*
X138947165Y-117008606D01*
X139133035Y-117115919D01*
X139344400Y-117153188D01*
X139555765Y-117115919D01*
X139741635Y-117008606D01*
X139879594Y-116844194D01*
X139952999Y-116642512D01*
X139952999Y-116478688D01*
X140361401Y-116478688D01*
X140361401Y-116693312D01*
X140434806Y-116894994D01*
X140572765Y-117059406D01*
X140758635Y-117166719D01*
X140970000Y-117203988D01*
X141025750Y-117194158D01*
X140942806Y-117293006D01*
X140869401Y-117494688D01*
X140869401Y-117709312D01*
X140942806Y-117910994D01*
X141080765Y-118075406D01*
X141266635Y-118182719D01*
X141478000Y-118219988D01*
X141689365Y-118182719D01*
X141738946Y-118154093D01*
X147984591Y-118154093D01*
X147984591Y-118368717D01*
X148057996Y-118570399D01*
X148195955Y-118734811D01*
X148381825Y-118842124D01*
X148593190Y-118879393D01*
X148804555Y-118842124D01*
X148990425Y-118734811D01*
X149128384Y-118570399D01*
X149201789Y-118368717D01*
X149201789Y-118154093D01*
X149192907Y-118129688D01*
X154077401Y-118129688D01*
X154077401Y-118344312D01*
X154150806Y-118545994D01*
X154288765Y-118710406D01*
X154474635Y-118817719D01*
X154686000Y-118854988D01*
X154897365Y-118817719D01*
X155083235Y-118710406D01*
X155221194Y-118545994D01*
X155294599Y-118344312D01*
X155294599Y-118129688D01*
X155221194Y-117928006D01*
X155083235Y-117763594D01*
X154897365Y-117656281D01*
X154686000Y-117619012D01*
X154474635Y-117656281D01*
X154288765Y-117763594D01*
X154150806Y-117928006D01*
X154077401Y-118129688D01*
X149192907Y-118129688D01*
X149128384Y-117952411D01*
X148990425Y-117787999D01*
X148804555Y-117680686D01*
X148593190Y-117643417D01*
X148381825Y-117680686D01*
X148195955Y-117787999D01*
X148057996Y-117952411D01*
X147984591Y-118154093D01*
X141738946Y-118154093D01*
X141875235Y-118075406D01*
X142013194Y-117910994D01*
X142086599Y-117709312D01*
X142086599Y-117494688D01*
X142013194Y-117293006D01*
X141875235Y-117128594D01*
X141689365Y-117021281D01*
X141478000Y-116984012D01*
X141422250Y-116993842D01*
X141505194Y-116894994D01*
X141578599Y-116693312D01*
X141578599Y-116478688D01*
X141552601Y-116407257D01*
X144187957Y-116407257D01*
X144187957Y-116621881D01*
X144261362Y-116823563D01*
X144399321Y-116987975D01*
X144585191Y-117095288D01*
X144796556Y-117132557D01*
X145007921Y-117095288D01*
X145193791Y-116987975D01*
X145331750Y-116823563D01*
X145405155Y-116621881D01*
X145405155Y-116407257D01*
X145331750Y-116205575D01*
X145193791Y-116041163D01*
X145007921Y-115933850D01*
X144796556Y-115896581D01*
X144585191Y-115933850D01*
X144399321Y-116041163D01*
X144261362Y-116205575D01*
X144187957Y-116407257D01*
X141552601Y-116407257D01*
X141505194Y-116277006D01*
X141367235Y-116112594D01*
X141181365Y-116005281D01*
X140970000Y-115968012D01*
X140758635Y-116005281D01*
X140572765Y-116112594D01*
X140434806Y-116277006D01*
X140361401Y-116478688D01*
X139952999Y-116478688D01*
X139952999Y-116427888D01*
X139879594Y-116226206D01*
X139741635Y-116061794D01*
X139555765Y-115954481D01*
X139344400Y-115917212D01*
X139133035Y-115954481D01*
X138947165Y-116061794D01*
X138809206Y-116226206D01*
X138735801Y-116427888D01*
X133537867Y-116427888D01*
X133552199Y-116388512D01*
X133552199Y-116173888D01*
X133478794Y-115972206D01*
X133340835Y-115807794D01*
X133154965Y-115700481D01*
X132943600Y-115663212D01*
X132732235Y-115700481D01*
X132546365Y-115807794D01*
X132408406Y-115972206D01*
X132335001Y-116173888D01*
X123800061Y-116173888D01*
X123800061Y-115975942D01*
X123726656Y-115774260D01*
X123588697Y-115609848D01*
X123402827Y-115502535D01*
X123191462Y-115465266D01*
X122980097Y-115502535D01*
X122794227Y-115609848D01*
X122656268Y-115774260D01*
X122582863Y-115975942D01*
X122582863Y-116178641D01*
X122541565Y-116116835D01*
X122415869Y-116032847D01*
X122280010Y-116005824D01*
X121578966Y-116005824D01*
X121652005Y-115918780D01*
X121725410Y-115717098D01*
X121725410Y-115502474D01*
X121652005Y-115300792D01*
X121514046Y-115136380D01*
X121328176Y-115029067D01*
X121116811Y-114991798D01*
X120905446Y-115029067D01*
X120719576Y-115136380D01*
X120581617Y-115300792D01*
X120508212Y-115502474D01*
X120508212Y-115717098D01*
X120581617Y-115918780D01*
X120680431Y-116036541D01*
X120537368Y-116010800D01*
X120446262Y-116010800D01*
X120293779Y-116028578D01*
X120100892Y-116098592D01*
X119929285Y-116211102D01*
X119862251Y-116281865D01*
X119856953Y-116255231D01*
X119772965Y-116129535D01*
X119647269Y-116045547D01*
X119511410Y-116018524D01*
X118486590Y-116018524D01*
X118350731Y-116045547D01*
X118225035Y-116129535D01*
X118205536Y-116158717D01*
X118034292Y-116071275D01*
X117983736Y-116062179D01*
X118126235Y-115979906D01*
X118264194Y-115815494D01*
X118337599Y-115613812D01*
X118337599Y-115399188D01*
X118314409Y-115335472D01*
X118406635Y-115388719D01*
X118618000Y-115425988D01*
X118829365Y-115388719D01*
X119015235Y-115281406D01*
X119082218Y-115201579D01*
X119106575Y-115230606D01*
X119292445Y-115337919D01*
X119503810Y-115375188D01*
X119715175Y-115337919D01*
X119901045Y-115230606D01*
X120039004Y-115066194D01*
X120098674Y-114902247D01*
X124419632Y-114902247D01*
X124419632Y-115116871D01*
X124493037Y-115318553D01*
X124630996Y-115482965D01*
X124816866Y-115590278D01*
X125028231Y-115627547D01*
X125239596Y-115590278D01*
X125425466Y-115482965D01*
X125563425Y-115318553D01*
X125589308Y-115247438D01*
X129083151Y-115247438D01*
X129083151Y-115462062D01*
X129156556Y-115663744D01*
X129294515Y-115828156D01*
X129480385Y-115935469D01*
X129691750Y-115972738D01*
X129903115Y-115935469D01*
X130088985Y-115828156D01*
X130226944Y-115663744D01*
X130300349Y-115462062D01*
X130300349Y-115272188D01*
X131217401Y-115272188D01*
X131217401Y-115486812D01*
X131290806Y-115688494D01*
X131428765Y-115852906D01*
X131614635Y-115960219D01*
X131826000Y-115997488D01*
X132037365Y-115960219D01*
X132223235Y-115852906D01*
X132361194Y-115688494D01*
X132434599Y-115486812D01*
X132434599Y-115462688D01*
X141123401Y-115462688D01*
X141123401Y-115677312D01*
X141196806Y-115878994D01*
X141334765Y-116043406D01*
X141520635Y-116150719D01*
X141732000Y-116187988D01*
X141943365Y-116150719D01*
X142129235Y-116043406D01*
X142267194Y-115878994D01*
X142340599Y-115677312D01*
X142340599Y-115665888D01*
X146000201Y-115665888D01*
X146000201Y-115880512D01*
X146073606Y-116082194D01*
X146211565Y-116246606D01*
X146397435Y-116353919D01*
X146608800Y-116391188D01*
X146820165Y-116353919D01*
X147006035Y-116246606D01*
X147143994Y-116082194D01*
X147217399Y-115880512D01*
X147217399Y-115665888D01*
X147143994Y-115464206D01*
X147006035Y-115299794D01*
X146820165Y-115192481D01*
X146608800Y-115155212D01*
X146397435Y-115192481D01*
X146211565Y-115299794D01*
X146073606Y-115464206D01*
X146000201Y-115665888D01*
X142340599Y-115665888D01*
X142340599Y-115662250D01*
X142451365Y-115642719D01*
X142637235Y-115535406D01*
X142775194Y-115370994D01*
X142848599Y-115169312D01*
X142848599Y-114954688D01*
X142775194Y-114753006D01*
X142637235Y-114588594D01*
X142472775Y-114493642D01*
X148117882Y-114493642D01*
X148128734Y-114728096D01*
X148183724Y-114956270D01*
X148280868Y-115169928D01*
X148416663Y-115361362D01*
X148586205Y-115523664D01*
X148783380Y-115650979D01*
X149003961Y-115739875D01*
X149308284Y-115784000D01*
X149410624Y-115784000D01*
X149585645Y-115767302D01*
X149810860Y-115701230D01*
X150019517Y-115593765D01*
X150204090Y-115448782D01*
X150357915Y-115271513D01*
X150475446Y-115068353D01*
X150552439Y-114846635D01*
X150586118Y-114614358D01*
X150580531Y-114493642D01*
X150657882Y-114493642D01*
X150668734Y-114728096D01*
X150723724Y-114956270D01*
X150820868Y-115169928D01*
X150956663Y-115361362D01*
X151126205Y-115523664D01*
X151323380Y-115650979D01*
X151543961Y-115739875D01*
X151848284Y-115784000D01*
X151950624Y-115784000D01*
X152125645Y-115767302D01*
X152350860Y-115701230D01*
X152559517Y-115593765D01*
X152744090Y-115448782D01*
X152897915Y-115271513D01*
X153015446Y-115068353D01*
X153092439Y-114846635D01*
X153126118Y-114614358D01*
X153115266Y-114379904D01*
X153060276Y-114151730D01*
X152963132Y-113938072D01*
X152827337Y-113746638D01*
X152657795Y-113584336D01*
X152460620Y-113457021D01*
X152240039Y-113368125D01*
X151935716Y-113324000D01*
X151833376Y-113324000D01*
X151658355Y-113340698D01*
X151433140Y-113406770D01*
X151224483Y-113514235D01*
X151039910Y-113659218D01*
X150886085Y-113836487D01*
X150768554Y-114039647D01*
X150691561Y-114261365D01*
X150657882Y-114493642D01*
X150580531Y-114493642D01*
X150575266Y-114379904D01*
X150520276Y-114151730D01*
X150423132Y-113938072D01*
X150287337Y-113746638D01*
X150117795Y-113584336D01*
X149920620Y-113457021D01*
X149700039Y-113368125D01*
X149395716Y-113324000D01*
X149293376Y-113324000D01*
X149118355Y-113340698D01*
X148893140Y-113406770D01*
X148684483Y-113514235D01*
X148499910Y-113659218D01*
X148346085Y-113836487D01*
X148228554Y-114039647D01*
X148151561Y-114261365D01*
X148117882Y-114493642D01*
X142472775Y-114493642D01*
X142451365Y-114481281D01*
X142240000Y-114444012D01*
X142028635Y-114481281D01*
X141842765Y-114588594D01*
X141704806Y-114753006D01*
X141631401Y-114954688D01*
X141631401Y-114969750D01*
X141520635Y-114989281D01*
X141334765Y-115096594D01*
X141196806Y-115261006D01*
X141123401Y-115462688D01*
X132434599Y-115462688D01*
X132434599Y-115272188D01*
X132361194Y-115070506D01*
X132223235Y-114906094D01*
X132037365Y-114798781D01*
X131826000Y-114761512D01*
X131614635Y-114798781D01*
X131428765Y-114906094D01*
X131290806Y-115070506D01*
X131217401Y-115272188D01*
X130300349Y-115272188D01*
X130300349Y-115247438D01*
X130226944Y-115045756D01*
X130088985Y-114881344D01*
X129903115Y-114774031D01*
X129691750Y-114736762D01*
X129480385Y-114774031D01*
X129294515Y-114881344D01*
X129156556Y-115045756D01*
X129083151Y-115247438D01*
X125589308Y-115247438D01*
X125636830Y-115116871D01*
X125636830Y-114902247D01*
X125563425Y-114700565D01*
X125425466Y-114536153D01*
X125239596Y-114428840D01*
X125028231Y-114391571D01*
X124816866Y-114428840D01*
X124630996Y-114536153D01*
X124493037Y-114700565D01*
X124419632Y-114902247D01*
X120098674Y-114902247D01*
X120112409Y-114864512D01*
X120112409Y-114649888D01*
X120039004Y-114448206D01*
X119901045Y-114283794D01*
X119715175Y-114176481D01*
X119503810Y-114139212D01*
X119292445Y-114176481D01*
X119106575Y-114283794D01*
X119039592Y-114363621D01*
X119015235Y-114334594D01*
X118829365Y-114227281D01*
X118618000Y-114190012D01*
X118406635Y-114227281D01*
X118220765Y-114334594D01*
X118082806Y-114499006D01*
X118009401Y-114700688D01*
X118009401Y-114915312D01*
X118032591Y-114979028D01*
X117940365Y-114925781D01*
X117729000Y-114888512D01*
X117517635Y-114925781D01*
X117331765Y-115033094D01*
X117193806Y-115197506D01*
X117120401Y-115399188D01*
X117120401Y-115613812D01*
X117193806Y-115815494D01*
X117331765Y-115979906D01*
X117471691Y-116060693D01*
X117332292Y-116111292D01*
X117160685Y-116223802D01*
X117055842Y-116334477D01*
X117037553Y-116242531D01*
X116953565Y-116116835D01*
X116827869Y-116032847D01*
X116692010Y-116005824D01*
X115667190Y-116005824D01*
X115531331Y-116032847D01*
X115405635Y-116116835D01*
X115386136Y-116146017D01*
X115214892Y-116058575D01*
X114949368Y-116010800D01*
X114858262Y-116010800D01*
X114705779Y-116028578D01*
X114654599Y-116047155D01*
X114654599Y-115916698D01*
X114581194Y-115715016D01*
X114443235Y-115550604D01*
X114257365Y-115443291D01*
X114172000Y-115428239D01*
X114172000Y-115066686D01*
X114240035Y-115027406D01*
X114377994Y-114862994D01*
X114451399Y-114661312D01*
X114451399Y-114446688D01*
X114377994Y-114245006D01*
X114240035Y-114080594D01*
X114172000Y-114041314D01*
X114172000Y-113118017D01*
X118167132Y-113118017D01*
X118167132Y-113332641D01*
X118240537Y-113534323D01*
X118378496Y-113698735D01*
X118564366Y-113806048D01*
X118775731Y-113843317D01*
X118987096Y-113806048D01*
X119172966Y-113698735D01*
X119310925Y-113534323D01*
X119384330Y-113332641D01*
X119384330Y-113118017D01*
X119368706Y-113075088D01*
X119482601Y-113075088D01*
X119482601Y-113289712D01*
X119556006Y-113491394D01*
X119693965Y-113655806D01*
X119879835Y-113763119D01*
X120091200Y-113800388D01*
X120095617Y-113799609D01*
X123594211Y-113799609D01*
X123594211Y-114014233D01*
X123667616Y-114215915D01*
X123805575Y-114380327D01*
X123991445Y-114487640D01*
X124202810Y-114524909D01*
X124414175Y-114487640D01*
X124600045Y-114380327D01*
X124738004Y-114215915D01*
X124811409Y-114014233D01*
X124811409Y-113799609D01*
X124738004Y-113597927D01*
X124600045Y-113433515D01*
X124414175Y-113326202D01*
X124286491Y-113303688D01*
X126264401Y-113303688D01*
X126264401Y-113518312D01*
X126337806Y-113719994D01*
X126475765Y-113884406D01*
X126661635Y-113991719D01*
X126873000Y-114028988D01*
X127084365Y-113991719D01*
X127270235Y-113884406D01*
X127408194Y-113719994D01*
X127481599Y-113518312D01*
X127481599Y-113303688D01*
X127408194Y-113102006D01*
X127270235Y-112937594D01*
X127084365Y-112830281D01*
X126873000Y-112793012D01*
X126661635Y-112830281D01*
X126475765Y-112937594D01*
X126337806Y-113102006D01*
X126264401Y-113303688D01*
X124286491Y-113303688D01*
X124202810Y-113288933D01*
X123991445Y-113326202D01*
X123805575Y-113433515D01*
X123667616Y-113597927D01*
X123594211Y-113799609D01*
X120095617Y-113799609D01*
X120302565Y-113763119D01*
X120488435Y-113655806D01*
X120626394Y-113491394D01*
X120699799Y-113289712D01*
X120699799Y-113075088D01*
X120626394Y-112873406D01*
X120488435Y-112708994D01*
X120302565Y-112601681D01*
X120091200Y-112564412D01*
X119879835Y-112601681D01*
X119693965Y-112708994D01*
X119556006Y-112873406D01*
X119482601Y-113075088D01*
X119368706Y-113075088D01*
X119310925Y-112916335D01*
X119172966Y-112751923D01*
X118987096Y-112644610D01*
X118775731Y-112607341D01*
X118564366Y-112644610D01*
X118378496Y-112751923D01*
X118240537Y-112916335D01*
X118167132Y-113118017D01*
X114172000Y-113118017D01*
X114172000Y-111489807D01*
X122408228Y-111489807D01*
X122408228Y-111704431D01*
X122481633Y-111906113D01*
X122619592Y-112070525D01*
X122805462Y-112177838D01*
X123016827Y-112215107D01*
X123228192Y-112177838D01*
X123414062Y-112070525D01*
X123552021Y-111906113D01*
X123574923Y-111843188D01*
X125121401Y-111843188D01*
X125121401Y-112057812D01*
X125194806Y-112259494D01*
X125332765Y-112423906D01*
X125518635Y-112531219D01*
X125730000Y-112568488D01*
X125941365Y-112531219D01*
X125958876Y-112521109D01*
X125964189Y-112535705D01*
X126102148Y-112700117D01*
X126288018Y-112807430D01*
X126499383Y-112844699D01*
X126710748Y-112807430D01*
X126896618Y-112700117D01*
X127034577Y-112535705D01*
X127107982Y-112334023D01*
X127107982Y-112119399D01*
X127054367Y-111972088D01*
X127193632Y-111972088D01*
X127193632Y-112186712D01*
X127267037Y-112388394D01*
X127404996Y-112552806D01*
X127590866Y-112660119D01*
X127802231Y-112697388D01*
X128013596Y-112660119D01*
X128199466Y-112552806D01*
X128233371Y-112512399D01*
X128267276Y-112552805D01*
X128453146Y-112660118D01*
X128664511Y-112697387D01*
X128875876Y-112660118D01*
X129061746Y-112552805D01*
X129199705Y-112388393D01*
X129273110Y-112186711D01*
X129273110Y-112070729D01*
X129373519Y-112070729D01*
X129373519Y-112285353D01*
X129446924Y-112487035D01*
X129584883Y-112651447D01*
X129770753Y-112758760D01*
X129944384Y-112789376D01*
X129779573Y-112818436D01*
X129593703Y-112925749D01*
X129455744Y-113090161D01*
X129382339Y-113291843D01*
X129382339Y-113506467D01*
X129455744Y-113708149D01*
X129593703Y-113872561D01*
X129779573Y-113979874D01*
X129990938Y-114017143D01*
X130202303Y-113979874D01*
X130388173Y-113872561D01*
X130526132Y-113708149D01*
X130599537Y-113506467D01*
X130599537Y-113481488D01*
X134671801Y-113481488D01*
X134671801Y-113696112D01*
X134745206Y-113897794D01*
X134883165Y-114062206D01*
X135069035Y-114169519D01*
X135280400Y-114206788D01*
X135491765Y-114169519D01*
X135677635Y-114062206D01*
X135815594Y-113897794D01*
X135888999Y-113696112D01*
X135888999Y-113481488D01*
X135830401Y-113320487D01*
X153835700Y-113320487D01*
X153835700Y-113535111D01*
X153909105Y-113736793D01*
X154047064Y-113901205D01*
X154232934Y-114008518D01*
X154444299Y-114045787D01*
X154655664Y-114008518D01*
X154841534Y-113901205D01*
X154979493Y-113736793D01*
X155052898Y-113535111D01*
X155052898Y-113320487D01*
X154979493Y-113118805D01*
X154841534Y-112954393D01*
X154655664Y-112847080D01*
X154444299Y-112809811D01*
X154232934Y-112847080D01*
X154047064Y-112954393D01*
X153909105Y-113118805D01*
X153835700Y-113320487D01*
X135830401Y-113320487D01*
X135815594Y-113279806D01*
X135677635Y-113115394D01*
X135491765Y-113008081D01*
X135280400Y-112970812D01*
X135069035Y-113008081D01*
X134883165Y-113115394D01*
X134745206Y-113279806D01*
X134671801Y-113481488D01*
X130599537Y-113481488D01*
X130599537Y-113291843D01*
X130526132Y-113090161D01*
X130388173Y-112925749D01*
X130202303Y-112818436D01*
X130028672Y-112787820D01*
X130193483Y-112758760D01*
X130348586Y-112669210D01*
X132011180Y-112669210D01*
X132011180Y-112883834D01*
X132084585Y-113085516D01*
X132222544Y-113249928D01*
X132408414Y-113357241D01*
X132619779Y-113394510D01*
X132831144Y-113357241D01*
X133017014Y-113249928D01*
X133154973Y-113085516D01*
X133228378Y-112883834D01*
X133228378Y-112669210D01*
X133154973Y-112467528D01*
X133017014Y-112303116D01*
X132831144Y-112195803D01*
X132631996Y-112160688D01*
X136297401Y-112160688D01*
X136297401Y-112375312D01*
X136370806Y-112576994D01*
X136508765Y-112741406D01*
X136694635Y-112848719D01*
X136906000Y-112885988D01*
X137117365Y-112848719D01*
X137303235Y-112741406D01*
X137441194Y-112576994D01*
X137514599Y-112375312D01*
X137514599Y-112160688D01*
X137441194Y-111959006D01*
X137436694Y-111953642D01*
X148117882Y-111953642D01*
X148128734Y-112188096D01*
X148183724Y-112416270D01*
X148280868Y-112629928D01*
X148416663Y-112821362D01*
X148586205Y-112983664D01*
X148783380Y-113110979D01*
X149003961Y-113199875D01*
X149308284Y-113244000D01*
X149410624Y-113244000D01*
X149585645Y-113227302D01*
X149810860Y-113161230D01*
X150019517Y-113053765D01*
X150204090Y-112908782D01*
X150357915Y-112731513D01*
X150475446Y-112528353D01*
X150552439Y-112306635D01*
X150586118Y-112074358D01*
X150575266Y-111839904D01*
X150520276Y-111611730D01*
X150423132Y-111398072D01*
X150287337Y-111206638D01*
X150117795Y-111044336D01*
X149920620Y-110917021D01*
X149700039Y-110828125D01*
X149395716Y-110784000D01*
X149293376Y-110784000D01*
X149118355Y-110800698D01*
X148893140Y-110866770D01*
X148684483Y-110974235D01*
X148499910Y-111119218D01*
X148346085Y-111296487D01*
X148228554Y-111499647D01*
X148151561Y-111721365D01*
X148117882Y-111953642D01*
X137436694Y-111953642D01*
X137303235Y-111794594D01*
X137117365Y-111687281D01*
X136906000Y-111650012D01*
X136694635Y-111687281D01*
X136508765Y-111794594D01*
X136370806Y-111959006D01*
X136297401Y-112160688D01*
X132631996Y-112160688D01*
X132619779Y-112158534D01*
X132408414Y-112195803D01*
X132222544Y-112303116D01*
X132084585Y-112467528D01*
X132011180Y-112669210D01*
X130348586Y-112669210D01*
X130379353Y-112651447D01*
X130517312Y-112487035D01*
X130590717Y-112285353D01*
X130590717Y-112070729D01*
X130517312Y-111869047D01*
X130379353Y-111704635D01*
X130193483Y-111597322D01*
X129982118Y-111560053D01*
X129770753Y-111597322D01*
X129584883Y-111704635D01*
X129446924Y-111869047D01*
X129373519Y-112070729D01*
X129273110Y-112070729D01*
X129273110Y-111972087D01*
X129199705Y-111770405D01*
X129061746Y-111605993D01*
X128875876Y-111498680D01*
X128664511Y-111461411D01*
X128453146Y-111498680D01*
X128267276Y-111605993D01*
X128233371Y-111646400D01*
X128199466Y-111605994D01*
X128013596Y-111498681D01*
X127802231Y-111461412D01*
X127590866Y-111498681D01*
X127404996Y-111605994D01*
X127267037Y-111770406D01*
X127193632Y-111972088D01*
X127054367Y-111972088D01*
X127034577Y-111917717D01*
X126896618Y-111753305D01*
X126710748Y-111645992D01*
X126499383Y-111608723D01*
X126288018Y-111645992D01*
X126270507Y-111656102D01*
X126265194Y-111641506D01*
X126127235Y-111477094D01*
X125941365Y-111369781D01*
X125730000Y-111332512D01*
X125518635Y-111369781D01*
X125332765Y-111477094D01*
X125194806Y-111641506D01*
X125121401Y-111843188D01*
X123574923Y-111843188D01*
X123625426Y-111704431D01*
X123625426Y-111489807D01*
X123552021Y-111288125D01*
X123431663Y-111144688D01*
X138278601Y-111144688D01*
X138278601Y-111359312D01*
X138352006Y-111560994D01*
X138489965Y-111725406D01*
X138675835Y-111832719D01*
X138887200Y-111869988D01*
X139098565Y-111832719D01*
X139284435Y-111725406D01*
X139422394Y-111560994D01*
X139495799Y-111359312D01*
X139495799Y-111144688D01*
X139422394Y-110943006D01*
X139336968Y-110841199D01*
X143259363Y-110841199D01*
X143259363Y-111055823D01*
X143332768Y-111257505D01*
X143470727Y-111421917D01*
X143656597Y-111529230D01*
X143867962Y-111566499D01*
X144079327Y-111529230D01*
X144265197Y-111421917D01*
X144403156Y-111257505D01*
X144476561Y-111055823D01*
X144476561Y-110932066D01*
X146616180Y-110932066D01*
X146616180Y-111146690D01*
X146689585Y-111348372D01*
X146827544Y-111512784D01*
X147013414Y-111620097D01*
X147224779Y-111657366D01*
X147436144Y-111620097D01*
X147622014Y-111512784D01*
X147759973Y-111348372D01*
X147833378Y-111146690D01*
X147833378Y-110932066D01*
X147759973Y-110730384D01*
X147622014Y-110565972D01*
X147436144Y-110458659D01*
X147224779Y-110421390D01*
X147013414Y-110458659D01*
X146827544Y-110565972D01*
X146689585Y-110730384D01*
X146616180Y-110932066D01*
X144476561Y-110932066D01*
X144476561Y-110841199D01*
X144403156Y-110639517D01*
X144265197Y-110475105D01*
X144079327Y-110367792D01*
X143867962Y-110330523D01*
X143656597Y-110367792D01*
X143470727Y-110475105D01*
X143332768Y-110639517D01*
X143259363Y-110841199D01*
X139336968Y-110841199D01*
X139284435Y-110778594D01*
X139098565Y-110671281D01*
X138887200Y-110634012D01*
X138675835Y-110671281D01*
X138489965Y-110778594D01*
X138352006Y-110943006D01*
X138278601Y-111144688D01*
X123431663Y-111144688D01*
X123414062Y-111123713D01*
X123228192Y-111016400D01*
X123016827Y-110979131D01*
X122805462Y-111016400D01*
X122619592Y-111123713D01*
X122481633Y-111288125D01*
X122408228Y-111489807D01*
X114172000Y-111489807D01*
X114172000Y-109956202D01*
X114342635Y-110054719D01*
X114554000Y-110091988D01*
X114765365Y-110054719D01*
X114951235Y-109947406D01*
X115089194Y-109782994D01*
X115140183Y-109642899D01*
X115700858Y-109642899D01*
X115700858Y-109857523D01*
X115774263Y-110059205D01*
X115912222Y-110223617D01*
X116098092Y-110330930D01*
X116309457Y-110368199D01*
X116520822Y-110330930D01*
X116706692Y-110223617D01*
X116844651Y-110059205D01*
X116918056Y-109857523D01*
X116918056Y-109642899D01*
X117294400Y-109642899D01*
X117294400Y-109857523D01*
X117367805Y-110059205D01*
X117505764Y-110223617D01*
X117691634Y-110330930D01*
X117902999Y-110368199D01*
X118114364Y-110330930D01*
X118300234Y-110223617D01*
X118438193Y-110059205D01*
X118511598Y-109857523D01*
X118511598Y-109642899D01*
X118741575Y-109642899D01*
X118741575Y-109857523D01*
X118814980Y-110059205D01*
X118952939Y-110223617D01*
X119138809Y-110330930D01*
X119350174Y-110368199D01*
X119561539Y-110330930D01*
X119747409Y-110223617D01*
X119885368Y-110059205D01*
X119958773Y-109857523D01*
X119958773Y-109654715D01*
X120065083Y-109654715D01*
X120065083Y-109869339D01*
X120138488Y-110071021D01*
X120276447Y-110235433D01*
X120462317Y-110342746D01*
X120673682Y-110380015D01*
X120885047Y-110342746D01*
X121035936Y-110255629D01*
X121118340Y-110303205D01*
X121329704Y-110340474D01*
X121541069Y-110303205D01*
X121726939Y-110195892D01*
X121864898Y-110031480D01*
X121938303Y-109829798D01*
X121938303Y-109742755D01*
X124446236Y-109742755D01*
X124446236Y-109957379D01*
X124519641Y-110159061D01*
X124657600Y-110323473D01*
X124843470Y-110430786D01*
X125054835Y-110468055D01*
X125266200Y-110430786D01*
X125452070Y-110323473D01*
X125590029Y-110159061D01*
X125619573Y-110077888D01*
X132011180Y-110077888D01*
X132011180Y-110292512D01*
X132084585Y-110494194D01*
X132222544Y-110658606D01*
X132408414Y-110765919D01*
X132619779Y-110803188D01*
X132831144Y-110765919D01*
X133017014Y-110658606D01*
X133154973Y-110494194D01*
X133228378Y-110292512D01*
X133228378Y-110077888D01*
X133154973Y-109876206D01*
X133017014Y-109711794D01*
X132831144Y-109604481D01*
X132619779Y-109567212D01*
X132408414Y-109604481D01*
X132222544Y-109711794D01*
X132084585Y-109876206D01*
X132011180Y-110077888D01*
X125619573Y-110077888D01*
X125663434Y-109957379D01*
X125663434Y-109742755D01*
X125590029Y-109541073D01*
X125452070Y-109376661D01*
X125266200Y-109269348D01*
X125263104Y-109268802D01*
X128416698Y-109268802D01*
X128416698Y-109483426D01*
X128490103Y-109685108D01*
X128628062Y-109849520D01*
X128813932Y-109956833D01*
X129025297Y-109994102D01*
X129236662Y-109956833D01*
X129422532Y-109849520D01*
X129560491Y-109685108D01*
X129633896Y-109483426D01*
X129633896Y-109270308D01*
X129729913Y-109384736D01*
X129915783Y-109492049D01*
X130127148Y-109529318D01*
X130338513Y-109492049D01*
X130524383Y-109384736D01*
X130662342Y-109220324D01*
X130669818Y-109199782D01*
X133638585Y-109199782D01*
X133638585Y-109414406D01*
X133711990Y-109616088D01*
X133849949Y-109780500D01*
X134035819Y-109887813D01*
X134165235Y-109910632D01*
X134151496Y-109927006D01*
X134078091Y-110128688D01*
X134078091Y-110343312D01*
X134151496Y-110544994D01*
X134289455Y-110709406D01*
X134475325Y-110816719D01*
X134686690Y-110853988D01*
X134898055Y-110816719D01*
X135083925Y-110709406D01*
X135221884Y-110544994D01*
X135295289Y-110343312D01*
X135295289Y-110128688D01*
X135221884Y-109927006D01*
X135083925Y-109762594D01*
X134898055Y-109655281D01*
X134768639Y-109632462D01*
X134782378Y-109616088D01*
X134855783Y-109414406D01*
X134855783Y-109199782D01*
X134782378Y-108998100D01*
X134644419Y-108833688D01*
X134458549Y-108726375D01*
X134247184Y-108689106D01*
X134035819Y-108726375D01*
X133849949Y-108833688D01*
X133711990Y-108998100D01*
X133638585Y-109199782D01*
X130669818Y-109199782D01*
X130735747Y-109018642D01*
X130735747Y-108804018D01*
X130662342Y-108602336D01*
X130524383Y-108437924D01*
X130338513Y-108330611D01*
X130127148Y-108293342D01*
X129915783Y-108330611D01*
X129729913Y-108437924D01*
X129591954Y-108602336D01*
X129518549Y-108804018D01*
X129518549Y-109017136D01*
X129422532Y-108902708D01*
X129236662Y-108795395D01*
X129025297Y-108758126D01*
X128813932Y-108795395D01*
X128628062Y-108902708D01*
X128490103Y-109067120D01*
X128416698Y-109268802D01*
X125263104Y-109268802D01*
X125054835Y-109232079D01*
X124843470Y-109269348D01*
X124657600Y-109376661D01*
X124519641Y-109541073D01*
X124446236Y-109742755D01*
X121938303Y-109742755D01*
X121938303Y-109615174D01*
X121864898Y-109413492D01*
X121726939Y-109249080D01*
X121720924Y-109245607D01*
X121813865Y-109229219D01*
X121999735Y-109121906D01*
X122137694Y-108957494D01*
X122211099Y-108755812D01*
X122211099Y-108541188D01*
X122137694Y-108339506D01*
X121999735Y-108175094D01*
X121974226Y-108160366D01*
X122411317Y-108160366D01*
X122411317Y-108374990D01*
X122484722Y-108576672D01*
X122622681Y-108741084D01*
X122808551Y-108848397D01*
X123019916Y-108885666D01*
X123231281Y-108848397D01*
X123417151Y-108741084D01*
X123555110Y-108576672D01*
X123628515Y-108374990D01*
X123628515Y-108160366D01*
X123555110Y-107958684D01*
X123476801Y-107865359D01*
X124930991Y-107865359D01*
X124930991Y-108079983D01*
X125004396Y-108281665D01*
X125142355Y-108446077D01*
X125328225Y-108553390D01*
X125539590Y-108590659D01*
X125750955Y-108553390D01*
X125936825Y-108446077D01*
X126074784Y-108281665D01*
X126143272Y-108093490D01*
X132166703Y-108093490D01*
X132166703Y-108308114D01*
X132240108Y-108509796D01*
X132378067Y-108674208D01*
X132563937Y-108781521D01*
X132775302Y-108818790D01*
X132986667Y-108781521D01*
X133172537Y-108674208D01*
X133310496Y-108509796D01*
X133383901Y-108308114D01*
X133383901Y-108093490D01*
X133310496Y-107891808D01*
X133172537Y-107727396D01*
X133108265Y-107690288D01*
X135484601Y-107690288D01*
X135484601Y-107904912D01*
X135558006Y-108106594D01*
X135695965Y-108271006D01*
X135881835Y-108378319D01*
X136093200Y-108415588D01*
X136171741Y-108401739D01*
X136102365Y-108441794D01*
X135964406Y-108606206D01*
X135891001Y-108807888D01*
X135891001Y-109022512D01*
X135944390Y-109169200D01*
X135891001Y-109315888D01*
X135891001Y-109530512D01*
X135952899Y-109700578D01*
X135917756Y-109797133D01*
X135917756Y-110011757D01*
X135991161Y-110213439D01*
X136129120Y-110377851D01*
X136314990Y-110485164D01*
X136526355Y-110522433D01*
X136737720Y-110485164D01*
X136743807Y-110481649D01*
X136796235Y-110511919D01*
X137007600Y-110549188D01*
X137218965Y-110511919D01*
X137261600Y-110487303D01*
X137304235Y-110511919D01*
X137515600Y-110549188D01*
X137726965Y-110511919D01*
X137912835Y-110404606D01*
X138050794Y-110240194D01*
X138124199Y-110038512D01*
X138124199Y-109823888D01*
X138070810Y-109677200D01*
X138124199Y-109530512D01*
X138124199Y-109315888D01*
X138070810Y-109169200D01*
X138124199Y-109022512D01*
X138124199Y-108807888D01*
X138050794Y-108606206D01*
X137964268Y-108503088D01*
X143257001Y-108503088D01*
X143257001Y-108717712D01*
X143330406Y-108919394D01*
X143468365Y-109083806D01*
X143654235Y-109191119D01*
X143865600Y-109228388D01*
X144076965Y-109191119D01*
X144262835Y-109083806D01*
X144400794Y-108919394D01*
X144474199Y-108717712D01*
X144474199Y-108503088D01*
X144400794Y-108301406D01*
X144361686Y-108254800D01*
X144400794Y-108208194D01*
X144474199Y-108006512D01*
X144474199Y-107791888D01*
X144400794Y-107590206D01*
X144262835Y-107425794D01*
X144076965Y-107318481D01*
X143993863Y-107303828D01*
X147546852Y-107303828D01*
X147546852Y-107518452D01*
X147620257Y-107720134D01*
X147758216Y-107884546D01*
X147944086Y-107991859D01*
X148155451Y-108029128D01*
X148366816Y-107991859D01*
X148552686Y-107884545D01*
X148558721Y-107877353D01*
X148586205Y-107903664D01*
X148783380Y-108030979D01*
X149003961Y-108119875D01*
X149308284Y-108164000D01*
X149410624Y-108164000D01*
X149585645Y-108147302D01*
X149810860Y-108081230D01*
X150019517Y-107973765D01*
X150204090Y-107828782D01*
X150357915Y-107651513D01*
X150475446Y-107448353D01*
X150486731Y-107415855D01*
X150557961Y-107596222D01*
X150688610Y-107811526D01*
X150853669Y-108001739D01*
X151048416Y-108161422D01*
X151122061Y-108203343D01*
X150958760Y-108313284D01*
X150776534Y-108487119D01*
X150626203Y-108689172D01*
X150512064Y-108913666D01*
X150486233Y-108996856D01*
X150423132Y-108858072D01*
X150287337Y-108666638D01*
X150117795Y-108504336D01*
X149920620Y-108377021D01*
X149700039Y-108288125D01*
X149395716Y-108244000D01*
X149293376Y-108244000D01*
X149118355Y-108260698D01*
X148893140Y-108326770D01*
X148684483Y-108434235D01*
X148499910Y-108579218D01*
X148346085Y-108756487D01*
X148228554Y-108959647D01*
X148151561Y-109181365D01*
X148117882Y-109413642D01*
X148128734Y-109648096D01*
X148183724Y-109876270D01*
X148280868Y-110089928D01*
X148416663Y-110281362D01*
X148586205Y-110443664D01*
X148783380Y-110570979D01*
X149003961Y-110659875D01*
X149308284Y-110704000D01*
X149410624Y-110704000D01*
X149585645Y-110687302D01*
X149810860Y-110621230D01*
X150019517Y-110513765D01*
X150204090Y-110368782D01*
X150357915Y-110191513D01*
X150475446Y-109988353D01*
X150486731Y-109955855D01*
X150557961Y-110136222D01*
X150688610Y-110351526D01*
X150853669Y-110541739D01*
X151048416Y-110701422D01*
X151267284Y-110826009D01*
X151410997Y-110878174D01*
X151224483Y-110974235D01*
X151039910Y-111119218D01*
X150886085Y-111296487D01*
X150768554Y-111499647D01*
X150691561Y-111721365D01*
X150657882Y-111953642D01*
X150668734Y-112188096D01*
X150723724Y-112416270D01*
X150820868Y-112629928D01*
X150956663Y-112821362D01*
X151126205Y-112983664D01*
X151323380Y-113110979D01*
X151543961Y-113199875D01*
X151848284Y-113244000D01*
X151950624Y-113244000D01*
X152125645Y-113227302D01*
X152350860Y-113161230D01*
X152559517Y-113053765D01*
X152744090Y-112908782D01*
X152897915Y-112731513D01*
X153015446Y-112528353D01*
X153092439Y-112306635D01*
X153126118Y-112074358D01*
X153115266Y-111839904D01*
X153060276Y-111611730D01*
X152963132Y-111398072D01*
X152927534Y-111347888D01*
X155296601Y-111347888D01*
X155296601Y-111562512D01*
X155370006Y-111764194D01*
X155507965Y-111928606D01*
X155693835Y-112035919D01*
X155905200Y-112073188D01*
X156116565Y-112035919D01*
X156302435Y-111928606D01*
X156308395Y-111921503D01*
X156303810Y-111965123D01*
X156325716Y-112188537D01*
X156392099Y-112402983D01*
X156500245Y-112599702D01*
X156645739Y-112770657D01*
X156822636Y-112908864D01*
X157023711Y-113008678D01*
X157240749Y-113066022D01*
X157464884Y-113078553D01*
X157686962Y-113045760D01*
X157897909Y-112968981D01*
X158089110Y-112851353D01*
X158252753Y-112697683D01*
X158382154Y-112514245D01*
X158472027Y-112308535D01*
X158509280Y-112133271D01*
X158538635Y-112150219D01*
X158750000Y-112187488D01*
X158961365Y-112150219D01*
X159147235Y-112042906D01*
X159285194Y-111878494D01*
X159358599Y-111676812D01*
X159358599Y-111462188D01*
X159285194Y-111260506D01*
X159147235Y-111096094D01*
X158961365Y-110988781D01*
X158750000Y-110951512D01*
X158538635Y-110988781D01*
X158352765Y-111096094D01*
X158240590Y-111229780D01*
X158095254Y-111091378D01*
X157904879Y-110972419D01*
X157694472Y-110894169D01*
X157472629Y-110859826D01*
X157248412Y-110870792D01*
X157030978Y-110926619D01*
X156829212Y-111025028D01*
X156651355Y-111161996D01*
X156507006Y-111329225D01*
X156440394Y-111146206D01*
X156302435Y-110981794D01*
X156116565Y-110874481D01*
X155905200Y-110837212D01*
X155693835Y-110874481D01*
X155507965Y-110981794D01*
X155370006Y-111146206D01*
X155296601Y-111347888D01*
X152927534Y-111347888D01*
X152827337Y-111206638D01*
X152657795Y-111044336D01*
X152460620Y-110917021D01*
X152373979Y-110882104D01*
X152386708Y-110878800D01*
X152616329Y-110775363D01*
X152825240Y-110634716D01*
X153007466Y-110460881D01*
X153157797Y-110258828D01*
X153271936Y-110034334D01*
X153346618Y-109793819D01*
X153372043Y-109602000D01*
X151764000Y-109602000D01*
X151764000Y-109346000D01*
X153381487Y-109346000D01*
X153318544Y-109046017D01*
X153270001Y-108923097D01*
X153626957Y-108923097D01*
X153626957Y-109137721D01*
X153700362Y-109339403D01*
X153838321Y-109503815D01*
X154024191Y-109611128D01*
X154235556Y-109648397D01*
X154446921Y-109611128D01*
X154632791Y-109503815D01*
X154770750Y-109339403D01*
X154788268Y-109291271D01*
X154841115Y-109354251D01*
X155026985Y-109461564D01*
X155238350Y-109498833D01*
X155449715Y-109461564D01*
X155635585Y-109354251D01*
X155773544Y-109189839D01*
X155774995Y-109185853D01*
X155850926Y-109276343D01*
X156036796Y-109383656D01*
X156248161Y-109420925D01*
X156459526Y-109383656D01*
X156645396Y-109276343D01*
X156783355Y-109111931D01*
X156856760Y-108910249D01*
X156856760Y-108695625D01*
X156783355Y-108493943D01*
X156645396Y-108329531D01*
X156459526Y-108222218D01*
X156248161Y-108184949D01*
X156036796Y-108222218D01*
X155850926Y-108329531D01*
X155712967Y-108493943D01*
X155711516Y-108497929D01*
X155635585Y-108407439D01*
X155449715Y-108300126D01*
X155238350Y-108262857D01*
X155026985Y-108300126D01*
X154841115Y-108407439D01*
X154703156Y-108571851D01*
X154685638Y-108619983D01*
X154632791Y-108557003D01*
X154446921Y-108449690D01*
X154235556Y-108412421D01*
X154024191Y-108449690D01*
X153838321Y-108557003D01*
X153700362Y-108721415D01*
X153626957Y-108923097D01*
X153270001Y-108923097D01*
X153226039Y-108811778D01*
X153095390Y-108596474D01*
X152930331Y-108406261D01*
X152735584Y-108246578D01*
X152661939Y-108204657D01*
X152825240Y-108094716D01*
X153007466Y-107920881D01*
X153157797Y-107718828D01*
X153271936Y-107494334D01*
X153346618Y-107253819D01*
X153372043Y-107062000D01*
X151764000Y-107062000D01*
X151764000Y-106965123D01*
X156303810Y-106965123D01*
X156325716Y-107188537D01*
X156392099Y-107402983D01*
X156500245Y-107599702D01*
X156645739Y-107770657D01*
X156822636Y-107908864D01*
X157023711Y-108008678D01*
X157240749Y-108066022D01*
X157464884Y-108078553D01*
X157686962Y-108045760D01*
X157897909Y-107968981D01*
X158089110Y-107851353D01*
X158252753Y-107697683D01*
X158382154Y-107514245D01*
X158472027Y-107308535D01*
X158518746Y-107088737D01*
X158519555Y-106856975D01*
X158474371Y-106636857D01*
X158385937Y-106430524D01*
X158257819Y-106246187D01*
X158095254Y-106091378D01*
X157904879Y-105972419D01*
X157694472Y-105894169D01*
X157472629Y-105859826D01*
X157248412Y-105870792D01*
X157030978Y-105926619D01*
X156829212Y-106025028D01*
X156651355Y-106161996D01*
X156504671Y-106331930D01*
X156395153Y-106527889D01*
X156327276Y-106741867D01*
X156303810Y-106965123D01*
X151764000Y-106965123D01*
X151764000Y-106806000D01*
X153381487Y-106806000D01*
X153318544Y-106506017D01*
X153226039Y-106271778D01*
X153095390Y-106056474D01*
X152930331Y-105866261D01*
X152735584Y-105706578D01*
X152516716Y-105581991D01*
X152373003Y-105529826D01*
X152559517Y-105433765D01*
X152744090Y-105288782D01*
X152897915Y-105111513D01*
X153015446Y-104908353D01*
X153092439Y-104686635D01*
X153126118Y-104454358D01*
X153115266Y-104219904D01*
X153060276Y-103991730D01*
X152963132Y-103778072D01*
X152827337Y-103586638D01*
X152815691Y-103575489D01*
X154432991Y-103575489D01*
X154432991Y-103790113D01*
X154506396Y-103991795D01*
X154644355Y-104156207D01*
X154830225Y-104263520D01*
X155041590Y-104300789D01*
X155252955Y-104263520D01*
X155438825Y-104156207D01*
X155576784Y-103991795D01*
X155650189Y-103790113D01*
X155650189Y-103575489D01*
X155576784Y-103373807D01*
X155438825Y-103209395D01*
X155252955Y-103102082D01*
X155041590Y-103064813D01*
X154830225Y-103102082D01*
X154644355Y-103209395D01*
X154506396Y-103373807D01*
X154432991Y-103575489D01*
X152815691Y-103575489D01*
X152657795Y-103424336D01*
X152460620Y-103297021D01*
X152240039Y-103208125D01*
X151935716Y-103164000D01*
X151833376Y-103164000D01*
X151658355Y-103180698D01*
X151433140Y-103246770D01*
X151224483Y-103354235D01*
X151039910Y-103499218D01*
X150886085Y-103676487D01*
X150768554Y-103879647D01*
X150691561Y-104101365D01*
X150657882Y-104333642D01*
X150668734Y-104568096D01*
X150723724Y-104796270D01*
X150820868Y-105009928D01*
X150956663Y-105201362D01*
X151126205Y-105363664D01*
X151323380Y-105490979D01*
X151410021Y-105525896D01*
X151397292Y-105529200D01*
X151167671Y-105632637D01*
X150958760Y-105773284D01*
X150776534Y-105947119D01*
X150626203Y-106149172D01*
X150512064Y-106373666D01*
X150486233Y-106456856D01*
X150423132Y-106318072D01*
X150287337Y-106126638D01*
X150117795Y-105964336D01*
X149920620Y-105837021D01*
X149700039Y-105748125D01*
X149395716Y-105704000D01*
X149293376Y-105704000D01*
X149118355Y-105720698D01*
X148893140Y-105786770D01*
X148684483Y-105894235D01*
X148499910Y-106039218D01*
X148346085Y-106216487D01*
X148228554Y-106419647D01*
X148151561Y-106641365D01*
X148128873Y-106797838D01*
X147944086Y-106830421D01*
X147758216Y-106937734D01*
X147620257Y-107102146D01*
X147546852Y-107303828D01*
X143993863Y-107303828D01*
X143865600Y-107281212D01*
X143654235Y-107318481D01*
X143468365Y-107425794D01*
X143330406Y-107590206D01*
X143257001Y-107791888D01*
X143257001Y-108006512D01*
X143330406Y-108208194D01*
X143369514Y-108254800D01*
X143330406Y-108301406D01*
X143257001Y-108503088D01*
X137964268Y-108503088D01*
X137912835Y-108441794D01*
X137726965Y-108334481D01*
X137515600Y-108297212D01*
X137304235Y-108334481D01*
X137261600Y-108359097D01*
X137218965Y-108334481D01*
X137007600Y-108297212D01*
X136796235Y-108334481D01*
X136753600Y-108359097D01*
X136710965Y-108334481D01*
X136499600Y-108297212D01*
X136421059Y-108311061D01*
X136490435Y-108271006D01*
X136628394Y-108106594D01*
X136701799Y-107904912D01*
X136701799Y-107690288D01*
X136628394Y-107488606D01*
X136490435Y-107324194D01*
X136420624Y-107283888D01*
X137161001Y-107283888D01*
X137161001Y-107498512D01*
X137234406Y-107700194D01*
X137372365Y-107864606D01*
X137558235Y-107971919D01*
X137769600Y-108009188D01*
X137980965Y-107971919D01*
X138166835Y-107864606D01*
X138227853Y-107791888D01*
X138304794Y-107700194D01*
X138378199Y-107498512D01*
X138378199Y-107283888D01*
X138304794Y-107082206D01*
X138166835Y-106917794D01*
X137980965Y-106810481D01*
X137769600Y-106773212D01*
X137558235Y-106810481D01*
X137372365Y-106917794D01*
X137234406Y-107082206D01*
X137161001Y-107283888D01*
X136420624Y-107283888D01*
X136304565Y-107216881D01*
X136093200Y-107179612D01*
X135881835Y-107216881D01*
X135695965Y-107324194D01*
X135558006Y-107488606D01*
X135484601Y-107690288D01*
X133108265Y-107690288D01*
X132986667Y-107620083D01*
X132775302Y-107582814D01*
X132563937Y-107620083D01*
X132378067Y-107727396D01*
X132240108Y-107891808D01*
X132166703Y-108093490D01*
X126143272Y-108093490D01*
X126148189Y-108079983D01*
X126148189Y-107865359D01*
X126074784Y-107663677D01*
X125936825Y-107499265D01*
X125750955Y-107391952D01*
X125539590Y-107354683D01*
X125328225Y-107391952D01*
X125142355Y-107499265D01*
X125004396Y-107663677D01*
X124930991Y-107865359D01*
X123476801Y-107865359D01*
X123417151Y-107794272D01*
X123231281Y-107686959D01*
X123019916Y-107649690D01*
X122808551Y-107686959D01*
X122622681Y-107794272D01*
X122484722Y-107958684D01*
X122411317Y-108160366D01*
X121974226Y-108160366D01*
X121813865Y-108067781D01*
X121602500Y-108030512D01*
X121391135Y-108067781D01*
X121205265Y-108175094D01*
X121067306Y-108339506D01*
X120993901Y-108541188D01*
X120993901Y-108755812D01*
X121067306Y-108957494D01*
X121205265Y-109121906D01*
X121211280Y-109125379D01*
X121118339Y-109141767D01*
X120967450Y-109228884D01*
X120885046Y-109181308D01*
X120673682Y-109144039D01*
X120462317Y-109181308D01*
X120276447Y-109288621D01*
X120138488Y-109453033D01*
X120065083Y-109654715D01*
X119958773Y-109654715D01*
X119958773Y-109642899D01*
X119885368Y-109441217D01*
X119747409Y-109276805D01*
X119561539Y-109169492D01*
X119350174Y-109132223D01*
X119138809Y-109169492D01*
X118952939Y-109276805D01*
X118814980Y-109441217D01*
X118741575Y-109642899D01*
X118511598Y-109642899D01*
X118438193Y-109441217D01*
X118300234Y-109276805D01*
X118114364Y-109169492D01*
X117902999Y-109132223D01*
X117691634Y-109169492D01*
X117505764Y-109276805D01*
X117367805Y-109441217D01*
X117294400Y-109642899D01*
X116918056Y-109642899D01*
X116844651Y-109441217D01*
X116706692Y-109276805D01*
X116669733Y-109255466D01*
X116746565Y-109241919D01*
X116932435Y-109134606D01*
X117070394Y-108970194D01*
X117143799Y-108768512D01*
X117143799Y-108553888D01*
X117111186Y-108464284D01*
X117204765Y-108575806D01*
X117390635Y-108683119D01*
X117602000Y-108720388D01*
X117813365Y-108683119D01*
X117999235Y-108575806D01*
X118137194Y-108411394D01*
X118210599Y-108209712D01*
X118210599Y-107995088D01*
X118137194Y-107793406D01*
X117999235Y-107628994D01*
X117813365Y-107521681D01*
X117602000Y-107484412D01*
X117390635Y-107521681D01*
X117204765Y-107628994D01*
X117066806Y-107793406D01*
X116993401Y-107995088D01*
X116993401Y-108209712D01*
X117026014Y-108299316D01*
X116932435Y-108187794D01*
X116746565Y-108080481D01*
X116535200Y-108043212D01*
X116323835Y-108080481D01*
X116137965Y-108187794D01*
X116000006Y-108352206D01*
X115926601Y-108553888D01*
X115926601Y-108768512D01*
X116000006Y-108970194D01*
X116137965Y-109134606D01*
X116174924Y-109155945D01*
X116098092Y-109169492D01*
X115912222Y-109276805D01*
X115774263Y-109441217D01*
X115700858Y-109642899D01*
X115140183Y-109642899D01*
X115162599Y-109581312D01*
X115162599Y-109366688D01*
X115089194Y-109165006D01*
X114951235Y-109000594D01*
X114765365Y-108893281D01*
X114554000Y-108856012D01*
X114342635Y-108893281D01*
X114172000Y-108991798D01*
X114172000Y-107145887D01*
X121645828Y-107145887D01*
X121645828Y-107360511D01*
X121719233Y-107562193D01*
X121857192Y-107726605D01*
X122043062Y-107833918D01*
X122254427Y-107871187D01*
X122465792Y-107833918D01*
X122651662Y-107726605D01*
X122789621Y-107562193D01*
X122863026Y-107360511D01*
X122863026Y-107145887D01*
X122789621Y-106944205D01*
X122651662Y-106779793D01*
X122465792Y-106672480D01*
X122254427Y-106635211D01*
X122043062Y-106672480D01*
X121857192Y-106779793D01*
X121719233Y-106944205D01*
X121645828Y-107145887D01*
X114172000Y-107145887D01*
X114172000Y-106138155D01*
X114211444Y-106115382D01*
X114349404Y-105950970D01*
X114363482Y-105912288D01*
X119635001Y-105912288D01*
X119635001Y-106126912D01*
X119708406Y-106328594D01*
X119846365Y-106493006D01*
X120032235Y-106600319D01*
X120243600Y-106637588D01*
X120454965Y-106600319D01*
X120640835Y-106493006D01*
X120691014Y-106433205D01*
X124068256Y-106433205D01*
X124068256Y-106647829D01*
X124141661Y-106849511D01*
X124279620Y-107013923D01*
X124465490Y-107121236D01*
X124676855Y-107158505D01*
X124888220Y-107121236D01*
X125074090Y-107013923D01*
X125139799Y-106935615D01*
X125269265Y-107089906D01*
X125455135Y-107197219D01*
X125666500Y-107234488D01*
X125855001Y-107201250D01*
X125893306Y-107306494D01*
X126031265Y-107470906D01*
X126217135Y-107578219D01*
X126428500Y-107615488D01*
X126639865Y-107578219D01*
X126825735Y-107470906D01*
X126963694Y-107306494D01*
X127037099Y-107104812D01*
X127037099Y-106890188D01*
X127023418Y-106852598D01*
X127071000Y-106860988D01*
X127226941Y-106833492D01*
X127298893Y-106919240D01*
X127484763Y-107026553D01*
X127696128Y-107063822D01*
X127907493Y-107026553D01*
X128093363Y-106919240D01*
X128231322Y-106754828D01*
X128304727Y-106553146D01*
X128304727Y-106338522D01*
X128242192Y-106166705D01*
X128394581Y-106166705D01*
X128394581Y-106381329D01*
X128467986Y-106583011D01*
X128605945Y-106747423D01*
X128791815Y-106854736D01*
X129003180Y-106892005D01*
X129214544Y-106854736D01*
X129222452Y-106850170D01*
X129249217Y-106882067D01*
X129435086Y-106989380D01*
X129646451Y-107026649D01*
X129857816Y-106989380D01*
X129919635Y-106953688D01*
X131661901Y-106953688D01*
X131661901Y-107168312D01*
X131735306Y-107369994D01*
X131873265Y-107534406D01*
X132059135Y-107641719D01*
X132270500Y-107678988D01*
X132481865Y-107641719D01*
X132667735Y-107534406D01*
X132805694Y-107369994D01*
X132879099Y-107168312D01*
X132879099Y-106953688D01*
X132805694Y-106752006D01*
X132667735Y-106587594D01*
X132481865Y-106480281D01*
X132270500Y-106443012D01*
X132059135Y-106480281D01*
X131873265Y-106587594D01*
X131735306Y-106752006D01*
X131661901Y-106953688D01*
X129919635Y-106953688D01*
X130043686Y-106882067D01*
X130181645Y-106717655D01*
X130255050Y-106515973D01*
X130255050Y-106301349D01*
X130181645Y-106099667D01*
X130179903Y-106097590D01*
X133183414Y-106097590D01*
X133183414Y-106312214D01*
X133256819Y-106513896D01*
X133394778Y-106678308D01*
X133580648Y-106785621D01*
X133792013Y-106822890D01*
X134003378Y-106785621D01*
X134189248Y-106678308D01*
X134327207Y-106513896D01*
X134400612Y-106312214D01*
X134400612Y-106261133D01*
X134585799Y-106154214D01*
X134723758Y-105989802D01*
X134751444Y-105913735D01*
X134823200Y-105926388D01*
X135034565Y-105889119D01*
X135220435Y-105781806D01*
X135358394Y-105617394D01*
X135431799Y-105415712D01*
X135431799Y-105353488D01*
X139497801Y-105353488D01*
X139497801Y-105568112D01*
X139571206Y-105769794D01*
X139709165Y-105934206D01*
X139895035Y-106041519D01*
X140106400Y-106078788D01*
X140186365Y-106064688D01*
X145339801Y-106064688D01*
X145339801Y-106279312D01*
X145413206Y-106480994D01*
X145551165Y-106645406D01*
X145737035Y-106752719D01*
X145948400Y-106789988D01*
X146159765Y-106752719D01*
X146345635Y-106645406D01*
X146483594Y-106480994D01*
X146556999Y-106279312D01*
X146556999Y-106222408D01*
X146718565Y-106193920D01*
X146904435Y-106086607D01*
X147042394Y-105922195D01*
X147115799Y-105720513D01*
X147115799Y-105505889D01*
X147042394Y-105304207D01*
X146904435Y-105139795D01*
X146718565Y-105032482D01*
X146507200Y-104995213D01*
X146295835Y-105032482D01*
X146109965Y-105139795D01*
X145972006Y-105304207D01*
X145898601Y-105505889D01*
X145898601Y-105562793D01*
X145737035Y-105591281D01*
X145551165Y-105698594D01*
X145413206Y-105863006D01*
X145339801Y-106064688D01*
X140186365Y-106064688D01*
X140317765Y-106041519D01*
X140503635Y-105934206D01*
X140641594Y-105769794D01*
X140714999Y-105568112D01*
X140714999Y-105353488D01*
X140641594Y-105151806D01*
X140503635Y-104987394D01*
X140317765Y-104880081D01*
X140106400Y-104842812D01*
X139895035Y-104880081D01*
X139709165Y-104987394D01*
X139571206Y-105151806D01*
X139497801Y-105353488D01*
X135431799Y-105353488D01*
X135431799Y-105201088D01*
X135358394Y-104999406D01*
X135220435Y-104834994D01*
X135034565Y-104727681D01*
X134823200Y-104690412D01*
X134611835Y-104727681D01*
X134425965Y-104834994D01*
X134288006Y-104999406D01*
X134260320Y-105075473D01*
X134188564Y-105062820D01*
X133977199Y-105100089D01*
X133791329Y-105207402D01*
X133653370Y-105371814D01*
X133579965Y-105573496D01*
X133579965Y-105624577D01*
X133394778Y-105731496D01*
X133256819Y-105895908D01*
X133183414Y-106097590D01*
X130179903Y-106097590D01*
X130043686Y-105935255D01*
X129857816Y-105827942D01*
X129646451Y-105790673D01*
X129435087Y-105827942D01*
X129427179Y-105832508D01*
X129400414Y-105800611D01*
X129214545Y-105693298D01*
X129003180Y-105656029D01*
X128791815Y-105693298D01*
X128605945Y-105800611D01*
X128467986Y-105965023D01*
X128394581Y-106166705D01*
X128242192Y-106166705D01*
X128231322Y-106136840D01*
X128093363Y-105972428D01*
X127907493Y-105865115D01*
X127696128Y-105827846D01*
X127540187Y-105855342D01*
X127468235Y-105769594D01*
X127282365Y-105662281D01*
X127071000Y-105625012D01*
X126859635Y-105662281D01*
X126673765Y-105769594D01*
X126535806Y-105934006D01*
X126462401Y-106135688D01*
X126462401Y-106350312D01*
X126476082Y-106387902D01*
X126428500Y-106379512D01*
X126239999Y-106412750D01*
X126201694Y-106307506D01*
X126063735Y-106143094D01*
X125877865Y-106035781D01*
X125666500Y-105998512D01*
X125455135Y-106035781D01*
X125269265Y-106143094D01*
X125203556Y-106221402D01*
X125074090Y-106067111D01*
X124888220Y-105959798D01*
X124676855Y-105922529D01*
X124465490Y-105959798D01*
X124279620Y-106067111D01*
X124141661Y-106231523D01*
X124068256Y-106433205D01*
X120691014Y-106433205D01*
X120778794Y-106328594D01*
X120852199Y-106126912D01*
X120852199Y-105912288D01*
X120778794Y-105710606D01*
X120640835Y-105546194D01*
X120454965Y-105438881D01*
X120243600Y-105401612D01*
X120032235Y-105438881D01*
X119846365Y-105546194D01*
X119708406Y-105710606D01*
X119635001Y-105912288D01*
X114363482Y-105912288D01*
X114422809Y-105749288D01*
X114422809Y-105534664D01*
X114349404Y-105332982D01*
X114211444Y-105168570D01*
X114172000Y-105145797D01*
X114172000Y-104991577D01*
X123195635Y-104991577D01*
X123195635Y-105206201D01*
X123269040Y-105407883D01*
X123406999Y-105572295D01*
X123592869Y-105679608D01*
X123804234Y-105716877D01*
X124015599Y-105679608D01*
X124201469Y-105572295D01*
X124339428Y-105407883D01*
X124412833Y-105206201D01*
X124412833Y-104991577D01*
X124339428Y-104789895D01*
X124201469Y-104625483D01*
X124160602Y-104601888D01*
X130597401Y-104601888D01*
X130597401Y-104816512D01*
X130670806Y-105018194D01*
X130808765Y-105182606D01*
X130994635Y-105289919D01*
X131206000Y-105327188D01*
X131417365Y-105289919D01*
X131603235Y-105182606D01*
X131741194Y-105018194D01*
X131814599Y-104816512D01*
X131814599Y-104601888D01*
X131741194Y-104400206D01*
X131603235Y-104235794D01*
X131417365Y-104128481D01*
X131206000Y-104091212D01*
X130994635Y-104128481D01*
X130808765Y-104235794D01*
X130670806Y-104400206D01*
X130597401Y-104601888D01*
X124160602Y-104601888D01*
X124015599Y-104518170D01*
X123804234Y-104480901D01*
X123592869Y-104518170D01*
X123406999Y-104625483D01*
X123269040Y-104789895D01*
X123195635Y-104991577D01*
X114172000Y-104991577D01*
X114172000Y-103016688D01*
X119889001Y-103016688D01*
X119889001Y-103231312D01*
X119962406Y-103432994D01*
X120100365Y-103597406D01*
X120286235Y-103704719D01*
X120497600Y-103741988D01*
X120708965Y-103704719D01*
X120894835Y-103597406D01*
X121032794Y-103432994D01*
X121106199Y-103231312D01*
X121106199Y-103016688D01*
X121032794Y-102815006D01*
X120903641Y-102661088D01*
X122327401Y-102661088D01*
X122327401Y-102875712D01*
X122400806Y-103077394D01*
X122512027Y-103209941D01*
X122502406Y-103221406D01*
X122429001Y-103423088D01*
X122429001Y-103637712D01*
X122502406Y-103839394D01*
X122640365Y-104003806D01*
X122826235Y-104111119D01*
X123037600Y-104148388D01*
X123248965Y-104111119D01*
X123434835Y-104003806D01*
X123572794Y-103839394D01*
X123646199Y-103637712D01*
X123646199Y-103423088D01*
X123572794Y-103221406D01*
X123506565Y-103142477D01*
X125121401Y-103142477D01*
X125121401Y-103357101D01*
X125194806Y-103558783D01*
X125332765Y-103723195D01*
X125518635Y-103830508D01*
X125730000Y-103867777D01*
X125941365Y-103830508D01*
X126127235Y-103723195D01*
X126134878Y-103714086D01*
X126377928Y-103714086D01*
X126377928Y-103928710D01*
X126451333Y-104130392D01*
X126589292Y-104294804D01*
X126775162Y-104402117D01*
X126986527Y-104439386D01*
X127197892Y-104402117D01*
X127383762Y-104294804D01*
X127521721Y-104130392D01*
X127595126Y-103928710D01*
X127595126Y-103750111D01*
X127793194Y-103785035D01*
X127851901Y-103774683D01*
X127851901Y-103802812D01*
X127925306Y-104004494D01*
X128063265Y-104168906D01*
X128249135Y-104276219D01*
X128460500Y-104313488D01*
X128671865Y-104276219D01*
X128857735Y-104168906D01*
X128995694Y-104004494D01*
X129069099Y-103802812D01*
X129069099Y-103638888D01*
X131593789Y-103638888D01*
X131593789Y-103853512D01*
X131667194Y-104055194D01*
X131805153Y-104219606D01*
X131991023Y-104326919D01*
X132202388Y-104364188D01*
X132413753Y-104326919D01*
X132599623Y-104219606D01*
X132737582Y-104055194D01*
X132810987Y-103853512D01*
X132810987Y-103638888D01*
X132746311Y-103461188D01*
X142647401Y-103461188D01*
X142647401Y-103675812D01*
X142720806Y-103877494D01*
X142858765Y-104041906D01*
X143044635Y-104149219D01*
X143256000Y-104186488D01*
X143467365Y-104149219D01*
X143653235Y-104041906D01*
X143791194Y-103877494D01*
X143864599Y-103675812D01*
X143864599Y-103461188D01*
X143852687Y-103428457D01*
X144330122Y-103428457D01*
X144330122Y-103643081D01*
X144403527Y-103844763D01*
X144541486Y-104009175D01*
X144727356Y-104116488D01*
X144938721Y-104153757D01*
X145150086Y-104116488D01*
X145335956Y-104009175D01*
X145473915Y-103844763D01*
X145547320Y-103643081D01*
X145547320Y-103531590D01*
X148117024Y-103531590D01*
X148117024Y-105256410D01*
X148144047Y-105392269D01*
X148228035Y-105517965D01*
X148353731Y-105601953D01*
X148489590Y-105628976D01*
X150214410Y-105628976D01*
X150350269Y-105601953D01*
X150475965Y-105517965D01*
X150559953Y-105392269D01*
X150586976Y-105256410D01*
X150586976Y-103531590D01*
X150559953Y-103395731D01*
X150475965Y-103270035D01*
X150350269Y-103186047D01*
X150214410Y-103159024D01*
X148489590Y-103159024D01*
X148353731Y-103186047D01*
X148228035Y-103270035D01*
X148144047Y-103395731D01*
X148117024Y-103531590D01*
X145547320Y-103531590D01*
X145547320Y-103428457D01*
X145473915Y-103226775D01*
X145335956Y-103062363D01*
X145150086Y-102955050D01*
X144938721Y-102917781D01*
X144727356Y-102955050D01*
X144541486Y-103062363D01*
X144403527Y-103226775D01*
X144330122Y-103428457D01*
X143852687Y-103428457D01*
X143791194Y-103259506D01*
X143653235Y-103095094D01*
X143467365Y-102987781D01*
X143256000Y-102950512D01*
X143044635Y-102987781D01*
X142858765Y-103095094D01*
X142720806Y-103259506D01*
X142647401Y-103461188D01*
X132746311Y-103461188D01*
X132737582Y-103437206D01*
X132599623Y-103272794D01*
X132413753Y-103165481D01*
X132202388Y-103128212D01*
X131991023Y-103165481D01*
X131805153Y-103272794D01*
X131667194Y-103437206D01*
X131593789Y-103638888D01*
X129069099Y-103638888D01*
X129069099Y-103588188D01*
X128995694Y-103386506D01*
X128857735Y-103222094D01*
X128671865Y-103114781D01*
X128460500Y-103077512D01*
X128401793Y-103087864D01*
X128401793Y-103059735D01*
X128328388Y-102858053D01*
X128190429Y-102693641D01*
X128004559Y-102586328D01*
X127909753Y-102569611D01*
X127841572Y-102382283D01*
X127703613Y-102217871D01*
X127517743Y-102110558D01*
X127306378Y-102073289D01*
X127095013Y-102110558D01*
X126909143Y-102217871D01*
X126771184Y-102382283D01*
X126697779Y-102583965D01*
X126697779Y-102798589D01*
X126771184Y-103000271D01*
X126909143Y-103164683D01*
X126978631Y-103204802D01*
X126775162Y-103240679D01*
X126589292Y-103347992D01*
X126451333Y-103512404D01*
X126377928Y-103714086D01*
X126134878Y-103714086D01*
X126265194Y-103558783D01*
X126338599Y-103357101D01*
X126338599Y-103142477D01*
X126265194Y-102940795D01*
X126127235Y-102776383D01*
X125941365Y-102669070D01*
X125730000Y-102631801D01*
X125518635Y-102669070D01*
X125332765Y-102776383D01*
X125194806Y-102940795D01*
X125121401Y-103142477D01*
X123506565Y-103142477D01*
X123461573Y-103088859D01*
X123471194Y-103077394D01*
X123544599Y-102875712D01*
X123544599Y-102661088D01*
X123471194Y-102459406D01*
X123333235Y-102294994D01*
X123147365Y-102187681D01*
X122936000Y-102150412D01*
X122724635Y-102187681D01*
X122538765Y-102294994D01*
X122400806Y-102459406D01*
X122327401Y-102661088D01*
X120903641Y-102661088D01*
X120894835Y-102650594D01*
X120708965Y-102543281D01*
X120497600Y-102506012D01*
X120286235Y-102543281D01*
X120100365Y-102650594D01*
X119962406Y-102815006D01*
X119889001Y-103016688D01*
X114172000Y-103016688D01*
X114172000Y-102843269D01*
X114206909Y-102747357D01*
X114206909Y-102532733D01*
X114172000Y-102436821D01*
X114172000Y-101253886D01*
X114220265Y-101311406D01*
X114406135Y-101418719D01*
X114617500Y-101455988D01*
X114828865Y-101418719D01*
X115014735Y-101311406D01*
X115152694Y-101146994D01*
X115226099Y-100945312D01*
X115226099Y-100730688D01*
X117501401Y-100730688D01*
X117501401Y-100945312D01*
X117574806Y-101146994D01*
X117712765Y-101311406D01*
X117898635Y-101418719D01*
X118110000Y-101455988D01*
X118321365Y-101418719D01*
X118507235Y-101311406D01*
X118645194Y-101146994D01*
X118649603Y-101134880D01*
X124336989Y-101134880D01*
X124336989Y-101349504D01*
X124410394Y-101551186D01*
X124548353Y-101715598D01*
X124734223Y-101822911D01*
X124945588Y-101860180D01*
X125156953Y-101822911D01*
X125288973Y-101746688D01*
X133097001Y-101746688D01*
X133097001Y-101961312D01*
X133170406Y-102162994D01*
X133308365Y-102327406D01*
X133494235Y-102434719D01*
X133705600Y-102471988D01*
X133916965Y-102434719D01*
X134102835Y-102327406D01*
X134121226Y-102305488D01*
X137923001Y-102305488D01*
X137923001Y-102520112D01*
X137996406Y-102721794D01*
X138134365Y-102886206D01*
X138320235Y-102993519D01*
X138531600Y-103030788D01*
X138742965Y-102993519D01*
X138928835Y-102886206D01*
X139066794Y-102721794D01*
X139071560Y-102708698D01*
X145573739Y-102708698D01*
X145573739Y-102923322D01*
X145647144Y-103125004D01*
X145785103Y-103289416D01*
X145970973Y-103396729D01*
X146182338Y-103433998D01*
X146393703Y-103396729D01*
X146579573Y-103289416D01*
X146717532Y-103125004D01*
X146756955Y-103016688D01*
X156744401Y-103016688D01*
X156744401Y-103231312D01*
X156817806Y-103432994D01*
X156955765Y-103597406D01*
X157141635Y-103704719D01*
X157353000Y-103741988D01*
X157564365Y-103704719D01*
X157750235Y-103597406D01*
X157888194Y-103432994D01*
X157961599Y-103231312D01*
X157961599Y-103016688D01*
X157888194Y-102815006D01*
X157750235Y-102650594D01*
X157564365Y-102543281D01*
X157353000Y-102506012D01*
X157141635Y-102543281D01*
X156955765Y-102650594D01*
X156817806Y-102815006D01*
X156744401Y-103016688D01*
X146756955Y-103016688D01*
X146790937Y-102923322D01*
X146790937Y-102708698D01*
X146717532Y-102507016D01*
X146579573Y-102342604D01*
X146393703Y-102235291D01*
X146182338Y-102198022D01*
X145970973Y-102235291D01*
X145785103Y-102342604D01*
X145647144Y-102507016D01*
X145573739Y-102708698D01*
X139071560Y-102708698D01*
X139140199Y-102520112D01*
X139140199Y-102305488D01*
X139066794Y-102103806D01*
X138928835Y-101939394D01*
X138742965Y-101832081D01*
X138531600Y-101794812D01*
X138320235Y-101832081D01*
X138134365Y-101939394D01*
X137996406Y-102103806D01*
X137923001Y-102305488D01*
X134121226Y-102305488D01*
X134240794Y-102162994D01*
X134314199Y-101961312D01*
X134314199Y-101746688D01*
X134240794Y-101545006D01*
X134234160Y-101537099D01*
X142168519Y-101537099D01*
X142168519Y-101751723D01*
X142241924Y-101953405D01*
X142379883Y-102117817D01*
X142565753Y-102225130D01*
X142777118Y-102262399D01*
X142988483Y-102225130D01*
X143174353Y-102117817D01*
X143312312Y-101953405D01*
X143385717Y-101751723D01*
X143385717Y-101537099D01*
X143370501Y-101495293D01*
X143501835Y-101571119D01*
X143713200Y-101608388D01*
X143924565Y-101571119D01*
X144110435Y-101463806D01*
X144220179Y-101333018D01*
X145036544Y-101333018D01*
X145036544Y-101547642D01*
X145109949Y-101749324D01*
X145247908Y-101913736D01*
X145433778Y-102021049D01*
X145645143Y-102058318D01*
X145856508Y-102021049D01*
X146042378Y-101913736D01*
X146180337Y-101749324D01*
X146253742Y-101547642D01*
X146253742Y-101432320D01*
X148235401Y-101432320D01*
X148235401Y-101646944D01*
X148308806Y-101848626D01*
X148446765Y-102013038D01*
X148632635Y-102120351D01*
X148669819Y-102126907D01*
X148641801Y-102203888D01*
X148641801Y-102418512D01*
X148715206Y-102620194D01*
X148853165Y-102784606D01*
X149039035Y-102891919D01*
X149250400Y-102929188D01*
X149461765Y-102891919D01*
X149647635Y-102784606D01*
X149785594Y-102620194D01*
X149858999Y-102418512D01*
X149858999Y-102203888D01*
X149785594Y-102002206D01*
X149647635Y-101837794D01*
X149461765Y-101730481D01*
X149424581Y-101723925D01*
X149452599Y-101646944D01*
X149452599Y-101432320D01*
X149379194Y-101230638D01*
X149241235Y-101066226D01*
X149055365Y-100958913D01*
X148844000Y-100921644D01*
X148632635Y-100958913D01*
X148446765Y-101066226D01*
X148308806Y-101230638D01*
X148235401Y-101432320D01*
X146253742Y-101432320D01*
X146253742Y-101333018D01*
X146180337Y-101131336D01*
X146042378Y-100966924D01*
X145856508Y-100859611D01*
X145645143Y-100822342D01*
X145433778Y-100859611D01*
X145247908Y-100966924D01*
X145109949Y-101131336D01*
X145036544Y-101333018D01*
X144220179Y-101333018D01*
X144248394Y-101299394D01*
X144321799Y-101097712D01*
X144321799Y-100883088D01*
X144248394Y-100681406D01*
X144110435Y-100516994D01*
X143924565Y-100409681D01*
X143713200Y-100372412D01*
X143501835Y-100409681D01*
X143315965Y-100516994D01*
X143178006Y-100681406D01*
X143104601Y-100883088D01*
X143104601Y-101097712D01*
X143119817Y-101139518D01*
X142988483Y-101063692D01*
X142777118Y-101026423D01*
X142565753Y-101063692D01*
X142379883Y-101171005D01*
X142241924Y-101335417D01*
X142168519Y-101537099D01*
X134234160Y-101537099D01*
X134102835Y-101380594D01*
X133916965Y-101273281D01*
X133705600Y-101236012D01*
X133494235Y-101273281D01*
X133308365Y-101380594D01*
X133170406Y-101545006D01*
X133097001Y-101746688D01*
X125288973Y-101746688D01*
X125342823Y-101715598D01*
X125480782Y-101551186D01*
X125554187Y-101349504D01*
X125554187Y-101134880D01*
X125480782Y-100933198D01*
X125342823Y-100768786D01*
X125276836Y-100730688D01*
X131090401Y-100730688D01*
X131090401Y-100945312D01*
X131163806Y-101146994D01*
X131301765Y-101311406D01*
X131487635Y-101418719D01*
X131699000Y-101455988D01*
X131910365Y-101418719D01*
X132096235Y-101311406D01*
X132234194Y-101146994D01*
X132307599Y-100945312D01*
X132307599Y-100730688D01*
X132234194Y-100529006D01*
X132096235Y-100364594D01*
X131910365Y-100257281D01*
X131699000Y-100220012D01*
X131487635Y-100257281D01*
X131301765Y-100364594D01*
X131163806Y-100529006D01*
X131090401Y-100730688D01*
X125276836Y-100730688D01*
X125156953Y-100661473D01*
X124945588Y-100624204D01*
X124734223Y-100661473D01*
X124548353Y-100768786D01*
X124410394Y-100933198D01*
X124336989Y-101134880D01*
X118649603Y-101134880D01*
X118718599Y-100945312D01*
X118718599Y-100730688D01*
X118645194Y-100529006D01*
X118507235Y-100364594D01*
X118321365Y-100257281D01*
X118110000Y-100220012D01*
X117898635Y-100257281D01*
X117712765Y-100364594D01*
X117574806Y-100529006D01*
X117501401Y-100730688D01*
X115226099Y-100730688D01*
X115152694Y-100529006D01*
X115014735Y-100364594D01*
X114828865Y-100257281D01*
X114617500Y-100220012D01*
X114406135Y-100257281D01*
X114220265Y-100364594D01*
X114172000Y-100422114D01*
X114172000Y-99998800D01*
X116213838Y-99998800D01*
X116252266Y-100044596D01*
X116438135Y-100151909D01*
X116649500Y-100189178D01*
X116860865Y-100151909D01*
X117046734Y-100044596D01*
X117085162Y-99998800D01*
X118652417Y-99998800D01*
X118654307Y-100003994D01*
X118792265Y-100168406D01*
X118978135Y-100275719D01*
X119189500Y-100312988D01*
X119400865Y-100275719D01*
X119586735Y-100168406D01*
X119724693Y-100003994D01*
X119726583Y-99998800D01*
X126653777Y-99998800D01*
X126653777Y-100154715D01*
X126727182Y-100356397D01*
X126865141Y-100520809D01*
X127051011Y-100628122D01*
X127262376Y-100665391D01*
X127473741Y-100628122D01*
X127659611Y-100520809D01*
X127797570Y-100356397D01*
X127870975Y-100154715D01*
X127870975Y-99998800D01*
X131831604Y-99998800D01*
X131880879Y-100134184D01*
X132018838Y-100298596D01*
X132204708Y-100405909D01*
X132416073Y-100443178D01*
X132627438Y-100405909D01*
X132813308Y-100298596D01*
X132951267Y-100134184D01*
X133000542Y-99998800D01*
X147569372Y-99998800D01*
X147618647Y-100134184D01*
X147756606Y-100298596D01*
X147942476Y-100405909D01*
X148153841Y-100443178D01*
X148365206Y-100405909D01*
X148551076Y-100298596D01*
X148689035Y-100134184D01*
X148738310Y-99998800D01*
X152655808Y-99998800D01*
X152551109Y-100017261D01*
X152365239Y-100124574D01*
X152227280Y-100288986D01*
X152153875Y-100490668D01*
X152153875Y-100705292D01*
X152227280Y-100906974D01*
X152365239Y-101071386D01*
X152551109Y-101178699D01*
X152762474Y-101215968D01*
X152973839Y-101178699D01*
X153159709Y-101071386D01*
X153297668Y-100906974D01*
X153366201Y-100718678D01*
X153366201Y-100792912D01*
X153439606Y-100994594D01*
X153577565Y-101159006D01*
X153763435Y-101266319D01*
X153974800Y-101303588D01*
X154186165Y-101266319D01*
X154372035Y-101159006D01*
X154508200Y-100996732D01*
X154644365Y-101159006D01*
X154830235Y-101266319D01*
X155041600Y-101303588D01*
X155252965Y-101266319D01*
X155438835Y-101159006D01*
X155576794Y-100994594D01*
X155650199Y-100792912D01*
X155650199Y-100578288D01*
X155576794Y-100376606D01*
X155438835Y-100212194D01*
X155252965Y-100104881D01*
X155041600Y-100067612D01*
X154830235Y-100104881D01*
X154644365Y-100212194D01*
X154508200Y-100374468D01*
X154372035Y-100212194D01*
X154186165Y-100104881D01*
X153974800Y-100067612D01*
X153763435Y-100104881D01*
X153577565Y-100212194D01*
X153439606Y-100376606D01*
X153371073Y-100564902D01*
X153371073Y-100490668D01*
X153297668Y-100288986D01*
X153159709Y-100124574D01*
X152973839Y-100017261D01*
X152869140Y-99998800D01*
X156725803Y-99998800D01*
X156792406Y-100181794D01*
X156930365Y-100346206D01*
X157116235Y-100453519D01*
X157327600Y-100490788D01*
X157538965Y-100453519D01*
X157724835Y-100346206D01*
X157862794Y-100181794D01*
X157929397Y-99998800D01*
X159640000Y-99998800D01*
X159640000Y-104231532D01*
X159491135Y-104257781D01*
X159305265Y-104365094D01*
X159167306Y-104529506D01*
X159093901Y-104731188D01*
X159093901Y-104945812D01*
X159167306Y-105147494D01*
X159187960Y-105172107D01*
X159168500Y-105183800D01*
X159013794Y-105330098D01*
X158894111Y-105506206D01*
X158815038Y-105703905D01*
X158780260Y-105913972D01*
X158791404Y-106126608D01*
X158847948Y-106331889D01*
X158947255Y-106520239D01*
X159084690Y-106682871D01*
X159253841Y-106812198D01*
X159450055Y-106903694D01*
X159640000Y-106935139D01*
X159640000Y-111996748D01*
X159552819Y-112006219D01*
X159351014Y-112074134D01*
X159168500Y-112183800D01*
X159013794Y-112330098D01*
X158894111Y-112506206D01*
X158815038Y-112703905D01*
X158780260Y-112913972D01*
X158791404Y-113126608D01*
X158847948Y-113331889D01*
X158947255Y-113520239D01*
X159084690Y-113682871D01*
X159253841Y-113812198D01*
X159450055Y-113903694D01*
X159640000Y-113935139D01*
X159640000Y-116121729D01*
X159554635Y-116136781D01*
X159368765Y-116244094D01*
X159230806Y-116408506D01*
X159157401Y-116610188D01*
X159157401Y-116824812D01*
X159230806Y-117026494D01*
X159368765Y-117190906D01*
X159554635Y-117298219D01*
X159640000Y-117313271D01*
X159640000Y-118949200D01*
X157477061Y-118949200D01*
X157437364Y-118926281D01*
X157226000Y-118889012D01*
X157014636Y-118926281D01*
X156974939Y-118949200D01*
X149603061Y-118949200D01*
X149563364Y-118926281D01*
X149352000Y-118889012D01*
X149140636Y-118926281D01*
X149100939Y-118949200D01*
X140670491Y-118949200D01*
X140714999Y-118826912D01*
X140714999Y-118612288D01*
X140641594Y-118410606D01*
X140503635Y-118246194D01*
X140317765Y-118138881D01*
X140106400Y-118101612D01*
X139895035Y-118138881D01*
X139709165Y-118246194D01*
X139571206Y-118410606D01*
X139497801Y-118612288D01*
X139497801Y-118826912D01*
X139542309Y-118949200D01*
X139084203Y-118949200D01*
X139084203Y-118811331D01*
X139010798Y-118609649D01*
X138872839Y-118445237D01*
X138686969Y-118337924D01*
X138475604Y-118300655D01*
X138266305Y-118337560D01*
X138327399Y-118169702D01*
X138327399Y-117955078D01*
X138253994Y-117753396D01*
X138116035Y-117588984D01*
X137930165Y-117481671D01*
X137718800Y-117444402D01*
X137507435Y-117481671D01*
X137321565Y-117588984D01*
X137183606Y-117753396D01*
X137110201Y-117955078D01*
X137110201Y-118169702D01*
X137183606Y-118371384D01*
X137194543Y-118384418D01*
X137117365Y-118339859D01*
X136906000Y-118302590D01*
X136694635Y-118339859D01*
X136508765Y-118447172D01*
X136370806Y-118611584D01*
X136297401Y-118813266D01*
X136297401Y-118949200D01*
X135025399Y-118949200D01*
X135025399Y-118809109D01*
X134951994Y-118607427D01*
X134814035Y-118443015D01*
X134628165Y-118335702D01*
X134416800Y-118298433D01*
X134205435Y-118335702D01*
X134019565Y-118443015D01*
X133881606Y-118607427D01*
X133808201Y-118809109D01*
X133808201Y-118949200D01*
X133719651Y-118949200D01*
X133783587Y-118873004D01*
X133856992Y-118671322D01*
X133856992Y-118456698D01*
X133783587Y-118255016D01*
X133645628Y-118090604D01*
X133459758Y-117983291D01*
X133248393Y-117946022D01*
X133037028Y-117983291D01*
X132851158Y-118090604D01*
X132713199Y-118255016D01*
X132639794Y-118456698D01*
X132639794Y-118671322D01*
X132713199Y-118873004D01*
X132777135Y-118949200D01*
X131983467Y-118949200D01*
X132088166Y-118930739D01*
X132274036Y-118823426D01*
X132411995Y-118659014D01*
X132485400Y-118457332D01*
X132485400Y-118242708D01*
X132411995Y-118041026D01*
X132274036Y-117876614D01*
X132088166Y-117769301D01*
X131876801Y-117732032D01*
X131665436Y-117769301D01*
X131479566Y-117876614D01*
X131341607Y-118041026D01*
X131311974Y-118122445D01*
X131282340Y-118041026D01*
X131144381Y-117876614D01*
X130958511Y-117769301D01*
X130747146Y-117732032D01*
X130535781Y-117769301D01*
X130418548Y-117836986D01*
X130301300Y-117769292D01*
X130089935Y-117732023D01*
X129878570Y-117769292D01*
X129692700Y-117876605D01*
X129554741Y-118041017D01*
X129481336Y-118242699D01*
X129481336Y-118457323D01*
X129554741Y-118659005D01*
X129692700Y-118823417D01*
X129878570Y-118930730D01*
X129983320Y-118949200D01*
X122207181Y-118949200D01*
X122201193Y-118932749D01*
X122063235Y-118768337D01*
X121877365Y-118661024D01*
X121666000Y-118623755D01*
X121454635Y-118661024D01*
X121268765Y-118768337D01*
X121130807Y-118932749D01*
X121124819Y-118949200D01*
X119734599Y-118949200D01*
X119734599Y-118782020D01*
X119661194Y-118580338D01*
X119523235Y-118415926D01*
X119337365Y-118308613D01*
X119126000Y-118271344D01*
X118914635Y-118308613D01*
X118728765Y-118415926D01*
X118590806Y-118580338D01*
X118517401Y-118782020D01*
X118517401Y-118949200D01*
X114172000Y-118949200D01*
X114172000Y-117373246D01*
X114261631Y-117495041D01*
X114418016Y-117627899D01*
X114604308Y-117723025D01*
X114869832Y-117770800D01*
X114960938Y-117770800D01*
X115113421Y-117753022D01*
X115306308Y-117683008D01*
X115383854Y-117632167D01*
X115405635Y-117664765D01*
X115531331Y-117748753D01*
X115667190Y-117775776D01*
X116123843Y-117775776D01*
X116050806Y-117862817D01*
X115977401Y-118064499D01*
X115977401Y-118279123D01*
X116050806Y-118480805D01*
X116188765Y-118645217D01*
X116374635Y-118752530D01*
X116586000Y-118789799D01*
X116797365Y-118752530D01*
X116983235Y-118645217D01*
X117121194Y-118480805D01*
X117194599Y-118279123D01*
X117194599Y-118064499D01*
X117121194Y-117862817D01*
X116983235Y-117698405D01*
X116940310Y-117673622D01*
X116953565Y-117664765D01*
X117037553Y-117539069D01*
X117051709Y-117467897D01*
X117081031Y-117507741D01*
X117237416Y-117640599D01*
X117423708Y-117735725D01*
X117689232Y-117783500D01*
X117780338Y-117783500D01*
X117932821Y-117765722D01*
X118125708Y-117695708D01*
X118203254Y-117644867D01*
X118225035Y-117677465D01*
X118350731Y-117761453D01*
X118486590Y-117788476D01*
X119511410Y-117788476D01*
X119647269Y-117761453D01*
X119772965Y-117677465D01*
X119856953Y-117551769D01*
X119865547Y-117508563D01*
X120006016Y-117627899D01*
X120192308Y-117723025D01*
X120457832Y-117770800D01*
X120548938Y-117770800D01*
X120701421Y-117753022D01*
X120894308Y-117683008D01*
X120971854Y-117632167D01*
X120993635Y-117664765D01*
X121119331Y-117748753D01*
X121255190Y-117775776D01*
X122280010Y-117775776D01*
X122316722Y-117768473D01*
X122341407Y-117836295D01*
X122479366Y-118000707D01*
X122665236Y-118108020D01*
X122876601Y-118145289D01*
X123087966Y-118108020D01*
X123273836Y-118000707D01*
X123411795Y-117836295D01*
X123485200Y-117634613D01*
X123485200Y-117494688D01*
X126137401Y-117494688D01*
X126137401Y-117709312D01*
X126210806Y-117910994D01*
X126348765Y-118075406D01*
X126534635Y-118182719D01*
X126746000Y-118219988D01*
X126957365Y-118182719D01*
X127143235Y-118075406D01*
X127281194Y-117910994D01*
X127354599Y-117709312D01*
X127354599Y-117494688D01*
X127281194Y-117293006D01*
X127230917Y-117233088D01*
X133247450Y-117233088D01*
X133247450Y-117447712D01*
X133320855Y-117649394D01*
X133458814Y-117813806D01*
X133644684Y-117921119D01*
X133856049Y-117958388D01*
X134067414Y-117921119D01*
X134253284Y-117813806D01*
X134316978Y-117737898D01*
X135524611Y-117737898D01*
X135524611Y-117952522D01*
X135598016Y-118154204D01*
X135735975Y-118318616D01*
X135921845Y-118425929D01*
X136133210Y-118463198D01*
X136344575Y-118425929D01*
X136530445Y-118318616D01*
X136668404Y-118154204D01*
X136741809Y-117952522D01*
X136741809Y-117737898D01*
X136668404Y-117536216D01*
X136530445Y-117371804D01*
X136344575Y-117264491D01*
X136133210Y-117227222D01*
X135921845Y-117264491D01*
X135735975Y-117371804D01*
X135598016Y-117536216D01*
X135524611Y-117737898D01*
X134316978Y-117737898D01*
X134391243Y-117649394D01*
X134464648Y-117447712D01*
X134464648Y-117233088D01*
X134391243Y-117031406D01*
X134253284Y-116866994D01*
X134067414Y-116759681D01*
X133856049Y-116722412D01*
X133644684Y-116759681D01*
X133458814Y-116866994D01*
X133320855Y-117031406D01*
X133247450Y-117233088D01*
X127230917Y-117233088D01*
X127143235Y-117128594D01*
X126957365Y-117021281D01*
X126746000Y-116984012D01*
X126534635Y-117021281D01*
X126348765Y-117128594D01*
X126210806Y-117293006D01*
X126137401Y-117494688D01*
X123485200Y-117494688D01*
X123485200Y-117419989D01*
X123411795Y-117218307D01*
M02*
