G04 #@! TF.GenerationSoftware,KiCad,Pcbnew,(5.1.4-0-10_14)*
G04 #@! TF.CreationDate,2019-08-31T02:18:22-07:00*
G04 #@! TF.ProjectId,max_breakout,6d61785f-6272-4656-916b-6f75742e6b69,2.0*
G04 #@! TF.SameCoordinates,Original*
G04 #@! TF.FileFunction,Copper,L4,Bot*
G04 #@! TF.FilePolarity,Positive*
%FSLAX46Y46*%
G04 Gerber Fmt 4.6, Leading zero omitted, Abs format (unit mm)*
G04 Created by KiCad (PCBNEW (5.1.4-0-10_14)) date 2019-08-31 02:18:22*
%MOMM*%
%LPD*%
G04 APERTURE LIST*
%ADD10C,0.100000*%
%ADD11C,0.950000*%
%ADD12R,0.650000X1.560000*%
%ADD13O,1.700000X1.700000*%
%ADD14R,1.700000X1.700000*%
%ADD15R,0.760000X0.430000*%
%ADD16R,0.800000X0.900000*%
%ADD17C,0.500000*%
%ADD18C,5.000000*%
%ADD19O,1.700000X1.350000*%
%ADD20O,1.500000X1.100000*%
%ADD21R,1.450000X0.450000*%
%ADD22C,0.812800*%
%ADD23C,0.660400*%
%ADD24C,0.457200*%
%ADD25C,0.406400*%
%ADD26C,0.152400*%
%ADD27C,0.203200*%
G04 APERTURE END LIST*
D10*
G36*
X130979779Y-100999144D02*
G01*
X131002834Y-101002563D01*
X131025443Y-101008227D01*
X131047387Y-101016079D01*
X131068457Y-101026044D01*
X131088448Y-101038026D01*
X131107168Y-101051910D01*
X131124438Y-101067562D01*
X131140090Y-101084832D01*
X131153974Y-101103552D01*
X131165956Y-101123543D01*
X131175921Y-101144613D01*
X131183773Y-101166557D01*
X131189437Y-101189166D01*
X131192856Y-101212221D01*
X131194000Y-101235500D01*
X131194000Y-101710500D01*
X131192856Y-101733779D01*
X131189437Y-101756834D01*
X131183773Y-101779443D01*
X131175921Y-101801387D01*
X131165956Y-101822457D01*
X131153974Y-101842448D01*
X131140090Y-101861168D01*
X131124438Y-101878438D01*
X131107168Y-101894090D01*
X131088448Y-101907974D01*
X131068457Y-101919956D01*
X131047387Y-101929921D01*
X131025443Y-101937773D01*
X131002834Y-101943437D01*
X130979779Y-101946856D01*
X130956500Y-101948000D01*
X130381500Y-101948000D01*
X130358221Y-101946856D01*
X130335166Y-101943437D01*
X130312557Y-101937773D01*
X130290613Y-101929921D01*
X130269543Y-101919956D01*
X130249552Y-101907974D01*
X130230832Y-101894090D01*
X130213562Y-101878438D01*
X130197910Y-101861168D01*
X130184026Y-101842448D01*
X130172044Y-101822457D01*
X130162079Y-101801387D01*
X130154227Y-101779443D01*
X130148563Y-101756834D01*
X130145144Y-101733779D01*
X130144000Y-101710500D01*
X130144000Y-101235500D01*
X130145144Y-101212221D01*
X130148563Y-101189166D01*
X130154227Y-101166557D01*
X130162079Y-101144613D01*
X130172044Y-101123543D01*
X130184026Y-101103552D01*
X130197910Y-101084832D01*
X130213562Y-101067562D01*
X130230832Y-101051910D01*
X130249552Y-101038026D01*
X130269543Y-101026044D01*
X130290613Y-101016079D01*
X130312557Y-101008227D01*
X130335166Y-101002563D01*
X130358221Y-100999144D01*
X130381500Y-100998000D01*
X130956500Y-100998000D01*
X130979779Y-100999144D01*
X130979779Y-100999144D01*
G37*
D11*
X130669000Y-101473000D03*
D10*
G36*
X129229779Y-100999144D02*
G01*
X129252834Y-101002563D01*
X129275443Y-101008227D01*
X129297387Y-101016079D01*
X129318457Y-101026044D01*
X129338448Y-101038026D01*
X129357168Y-101051910D01*
X129374438Y-101067562D01*
X129390090Y-101084832D01*
X129403974Y-101103552D01*
X129415956Y-101123543D01*
X129425921Y-101144613D01*
X129433773Y-101166557D01*
X129439437Y-101189166D01*
X129442856Y-101212221D01*
X129444000Y-101235500D01*
X129444000Y-101710500D01*
X129442856Y-101733779D01*
X129439437Y-101756834D01*
X129433773Y-101779443D01*
X129425921Y-101801387D01*
X129415956Y-101822457D01*
X129403974Y-101842448D01*
X129390090Y-101861168D01*
X129374438Y-101878438D01*
X129357168Y-101894090D01*
X129338448Y-101907974D01*
X129318457Y-101919956D01*
X129297387Y-101929921D01*
X129275443Y-101937773D01*
X129252834Y-101943437D01*
X129229779Y-101946856D01*
X129206500Y-101948000D01*
X128631500Y-101948000D01*
X128608221Y-101946856D01*
X128585166Y-101943437D01*
X128562557Y-101937773D01*
X128540613Y-101929921D01*
X128519543Y-101919956D01*
X128499552Y-101907974D01*
X128480832Y-101894090D01*
X128463562Y-101878438D01*
X128447910Y-101861168D01*
X128434026Y-101842448D01*
X128422044Y-101822457D01*
X128412079Y-101801387D01*
X128404227Y-101779443D01*
X128398563Y-101756834D01*
X128395144Y-101733779D01*
X128394000Y-101710500D01*
X128394000Y-101235500D01*
X128395144Y-101212221D01*
X128398563Y-101189166D01*
X128404227Y-101166557D01*
X128412079Y-101144613D01*
X128422044Y-101123543D01*
X128434026Y-101103552D01*
X128447910Y-101084832D01*
X128463562Y-101067562D01*
X128480832Y-101051910D01*
X128499552Y-101038026D01*
X128519543Y-101026044D01*
X128540613Y-101016079D01*
X128562557Y-101008227D01*
X128585166Y-101002563D01*
X128608221Y-100999144D01*
X128631500Y-100998000D01*
X129206500Y-100998000D01*
X129229779Y-100999144D01*
X129229779Y-100999144D01*
G37*
D11*
X128919000Y-101473000D03*
D10*
G36*
X116755779Y-100999144D02*
G01*
X116778834Y-101002563D01*
X116801443Y-101008227D01*
X116823387Y-101016079D01*
X116844457Y-101026044D01*
X116864448Y-101038026D01*
X116883168Y-101051910D01*
X116900438Y-101067562D01*
X116916090Y-101084832D01*
X116929974Y-101103552D01*
X116941956Y-101123543D01*
X116951921Y-101144613D01*
X116959773Y-101166557D01*
X116965437Y-101189166D01*
X116968856Y-101212221D01*
X116970000Y-101235500D01*
X116970000Y-101710500D01*
X116968856Y-101733779D01*
X116965437Y-101756834D01*
X116959773Y-101779443D01*
X116951921Y-101801387D01*
X116941956Y-101822457D01*
X116929974Y-101842448D01*
X116916090Y-101861168D01*
X116900438Y-101878438D01*
X116883168Y-101894090D01*
X116864448Y-101907974D01*
X116844457Y-101919956D01*
X116823387Y-101929921D01*
X116801443Y-101937773D01*
X116778834Y-101943437D01*
X116755779Y-101946856D01*
X116732500Y-101948000D01*
X116157500Y-101948000D01*
X116134221Y-101946856D01*
X116111166Y-101943437D01*
X116088557Y-101937773D01*
X116066613Y-101929921D01*
X116045543Y-101919956D01*
X116025552Y-101907974D01*
X116006832Y-101894090D01*
X115989562Y-101878438D01*
X115973910Y-101861168D01*
X115960026Y-101842448D01*
X115948044Y-101822457D01*
X115938079Y-101801387D01*
X115930227Y-101779443D01*
X115924563Y-101756834D01*
X115921144Y-101733779D01*
X115920000Y-101710500D01*
X115920000Y-101235500D01*
X115921144Y-101212221D01*
X115924563Y-101189166D01*
X115930227Y-101166557D01*
X115938079Y-101144613D01*
X115948044Y-101123543D01*
X115960026Y-101103552D01*
X115973910Y-101084832D01*
X115989562Y-101067562D01*
X116006832Y-101051910D01*
X116025552Y-101038026D01*
X116045543Y-101026044D01*
X116066613Y-101016079D01*
X116088557Y-101008227D01*
X116111166Y-101002563D01*
X116134221Y-100999144D01*
X116157500Y-100998000D01*
X116732500Y-100998000D01*
X116755779Y-100999144D01*
X116755779Y-100999144D01*
G37*
D11*
X116445000Y-101473000D03*
D10*
G36*
X115005779Y-100999144D02*
G01*
X115028834Y-101002563D01*
X115051443Y-101008227D01*
X115073387Y-101016079D01*
X115094457Y-101026044D01*
X115114448Y-101038026D01*
X115133168Y-101051910D01*
X115150438Y-101067562D01*
X115166090Y-101084832D01*
X115179974Y-101103552D01*
X115191956Y-101123543D01*
X115201921Y-101144613D01*
X115209773Y-101166557D01*
X115215437Y-101189166D01*
X115218856Y-101212221D01*
X115220000Y-101235500D01*
X115220000Y-101710500D01*
X115218856Y-101733779D01*
X115215437Y-101756834D01*
X115209773Y-101779443D01*
X115201921Y-101801387D01*
X115191956Y-101822457D01*
X115179974Y-101842448D01*
X115166090Y-101861168D01*
X115150438Y-101878438D01*
X115133168Y-101894090D01*
X115114448Y-101907974D01*
X115094457Y-101919956D01*
X115073387Y-101929921D01*
X115051443Y-101937773D01*
X115028834Y-101943437D01*
X115005779Y-101946856D01*
X114982500Y-101948000D01*
X114407500Y-101948000D01*
X114384221Y-101946856D01*
X114361166Y-101943437D01*
X114338557Y-101937773D01*
X114316613Y-101929921D01*
X114295543Y-101919956D01*
X114275552Y-101907974D01*
X114256832Y-101894090D01*
X114239562Y-101878438D01*
X114223910Y-101861168D01*
X114210026Y-101842448D01*
X114198044Y-101822457D01*
X114188079Y-101801387D01*
X114180227Y-101779443D01*
X114174563Y-101756834D01*
X114171144Y-101733779D01*
X114170000Y-101710500D01*
X114170000Y-101235500D01*
X114171144Y-101212221D01*
X114174563Y-101189166D01*
X114180227Y-101166557D01*
X114188079Y-101144613D01*
X114198044Y-101123543D01*
X114210026Y-101103552D01*
X114223910Y-101084832D01*
X114239562Y-101067562D01*
X114256832Y-101051910D01*
X114275552Y-101038026D01*
X114295543Y-101026044D01*
X114316613Y-101016079D01*
X114338557Y-101008227D01*
X114361166Y-101002563D01*
X114384221Y-100999144D01*
X114407500Y-100998000D01*
X114982500Y-100998000D01*
X115005779Y-100999144D01*
X115005779Y-100999144D01*
G37*
D11*
X114695000Y-101473000D03*
D12*
X128844000Y-106586000D03*
X130744000Y-106586000D03*
X130744000Y-103886000D03*
X129794000Y-103886000D03*
X128844000Y-103886000D03*
D13*
X162306000Y-98044000D03*
X159766000Y-98044000D03*
X157226000Y-98044000D03*
X154686000Y-98044000D03*
X152146000Y-98044000D03*
X149606000Y-98044000D03*
X147066000Y-98044000D03*
X144526000Y-98044000D03*
X141986000Y-98044000D03*
X139446000Y-98044000D03*
X136906000Y-98044000D03*
X134366000Y-98044000D03*
X131826000Y-98044000D03*
X129286000Y-98044000D03*
X126746000Y-98044000D03*
X124206000Y-98044000D03*
X121666000Y-98044000D03*
X119126000Y-98044000D03*
X116586000Y-98044000D03*
D14*
X114046000Y-98044000D03*
D13*
X162306000Y-120904000D03*
X159766000Y-120904000D03*
X157226000Y-120904000D03*
X154686000Y-120904000D03*
X152146000Y-120904000D03*
X149606000Y-120904000D03*
X147066000Y-120904000D03*
X144526000Y-120904000D03*
X141986000Y-120904000D03*
X139446000Y-120904000D03*
X136906000Y-120904000D03*
X134366000Y-120904000D03*
X131826000Y-120904000D03*
X129286000Y-120904000D03*
X126746000Y-120904000D03*
X124206000Y-120904000D03*
X121666000Y-120904000D03*
X119126000Y-120904000D03*
X116586000Y-120904000D03*
D14*
X114046000Y-120904000D03*
D10*
G36*
X116755779Y-108365144D02*
G01*
X116778834Y-108368563D01*
X116801443Y-108374227D01*
X116823387Y-108382079D01*
X116844457Y-108392044D01*
X116864448Y-108404026D01*
X116883168Y-108417910D01*
X116900438Y-108433562D01*
X116916090Y-108450832D01*
X116929974Y-108469552D01*
X116941956Y-108489543D01*
X116951921Y-108510613D01*
X116959773Y-108532557D01*
X116965437Y-108555166D01*
X116968856Y-108578221D01*
X116970000Y-108601500D01*
X116970000Y-109076500D01*
X116968856Y-109099779D01*
X116965437Y-109122834D01*
X116959773Y-109145443D01*
X116951921Y-109167387D01*
X116941956Y-109188457D01*
X116929974Y-109208448D01*
X116916090Y-109227168D01*
X116900438Y-109244438D01*
X116883168Y-109260090D01*
X116864448Y-109273974D01*
X116844457Y-109285956D01*
X116823387Y-109295921D01*
X116801443Y-109303773D01*
X116778834Y-109309437D01*
X116755779Y-109312856D01*
X116732500Y-109314000D01*
X116157500Y-109314000D01*
X116134221Y-109312856D01*
X116111166Y-109309437D01*
X116088557Y-109303773D01*
X116066613Y-109295921D01*
X116045543Y-109285956D01*
X116025552Y-109273974D01*
X116006832Y-109260090D01*
X115989562Y-109244438D01*
X115973910Y-109227168D01*
X115960026Y-109208448D01*
X115948044Y-109188457D01*
X115938079Y-109167387D01*
X115930227Y-109145443D01*
X115924563Y-109122834D01*
X115921144Y-109099779D01*
X115920000Y-109076500D01*
X115920000Y-108601500D01*
X115921144Y-108578221D01*
X115924563Y-108555166D01*
X115930227Y-108532557D01*
X115938079Y-108510613D01*
X115948044Y-108489543D01*
X115960026Y-108469552D01*
X115973910Y-108450832D01*
X115989562Y-108433562D01*
X116006832Y-108417910D01*
X116025552Y-108404026D01*
X116045543Y-108392044D01*
X116066613Y-108382079D01*
X116088557Y-108374227D01*
X116111166Y-108368563D01*
X116134221Y-108365144D01*
X116157500Y-108364000D01*
X116732500Y-108364000D01*
X116755779Y-108365144D01*
X116755779Y-108365144D01*
G37*
D11*
X116445000Y-108839000D03*
D10*
G36*
X115005779Y-108365144D02*
G01*
X115028834Y-108368563D01*
X115051443Y-108374227D01*
X115073387Y-108382079D01*
X115094457Y-108392044D01*
X115114448Y-108404026D01*
X115133168Y-108417910D01*
X115150438Y-108433562D01*
X115166090Y-108450832D01*
X115179974Y-108469552D01*
X115191956Y-108489543D01*
X115201921Y-108510613D01*
X115209773Y-108532557D01*
X115215437Y-108555166D01*
X115218856Y-108578221D01*
X115220000Y-108601500D01*
X115220000Y-109076500D01*
X115218856Y-109099779D01*
X115215437Y-109122834D01*
X115209773Y-109145443D01*
X115201921Y-109167387D01*
X115191956Y-109188457D01*
X115179974Y-109208448D01*
X115166090Y-109227168D01*
X115150438Y-109244438D01*
X115133168Y-109260090D01*
X115114448Y-109273974D01*
X115094457Y-109285956D01*
X115073387Y-109295921D01*
X115051443Y-109303773D01*
X115028834Y-109309437D01*
X115005779Y-109312856D01*
X114982500Y-109314000D01*
X114407500Y-109314000D01*
X114384221Y-109312856D01*
X114361166Y-109309437D01*
X114338557Y-109303773D01*
X114316613Y-109295921D01*
X114295543Y-109285956D01*
X114275552Y-109273974D01*
X114256832Y-109260090D01*
X114239562Y-109244438D01*
X114223910Y-109227168D01*
X114210026Y-109208448D01*
X114198044Y-109188457D01*
X114188079Y-109167387D01*
X114180227Y-109145443D01*
X114174563Y-109122834D01*
X114171144Y-109099779D01*
X114170000Y-109076500D01*
X114170000Y-108601500D01*
X114171144Y-108578221D01*
X114174563Y-108555166D01*
X114180227Y-108532557D01*
X114188079Y-108510613D01*
X114198044Y-108489543D01*
X114210026Y-108469552D01*
X114223910Y-108450832D01*
X114239562Y-108433562D01*
X114256832Y-108417910D01*
X114275552Y-108404026D01*
X114295543Y-108392044D01*
X114316613Y-108382079D01*
X114338557Y-108374227D01*
X114361166Y-108368563D01*
X114384221Y-108365144D01*
X114407500Y-108364000D01*
X114982500Y-108364000D01*
X115005779Y-108365144D01*
X115005779Y-108365144D01*
G37*
D11*
X114695000Y-108839000D03*
D15*
X128653000Y-115538000D03*
X128653000Y-116338000D03*
X128653000Y-110738000D03*
X128653000Y-111538000D03*
X130173000Y-111538000D03*
X130173000Y-110738000D03*
X130173000Y-116338000D03*
X130173000Y-115538000D03*
X128653000Y-112338000D03*
X128653000Y-114738000D03*
X130173000Y-114738000D03*
X130173000Y-112338000D03*
X128653000Y-113938000D03*
X130173000Y-113938000D03*
X128653000Y-113138000D03*
X130173000Y-113138000D03*
D16*
X120269000Y-105775000D03*
X121219000Y-103775000D03*
X119319000Y-103775000D03*
D17*
X139876000Y-107974000D03*
X139876000Y-108974000D03*
X139876000Y-109974000D03*
D10*
G36*
X140450504Y-106975204D02*
G01*
X140474773Y-106978804D01*
X140498571Y-106984765D01*
X140521671Y-106993030D01*
X140543849Y-107003520D01*
X140564893Y-107016133D01*
X140584598Y-107030747D01*
X140602777Y-107047223D01*
X140619253Y-107065402D01*
X140633867Y-107085107D01*
X140646480Y-107106151D01*
X140656970Y-107128329D01*
X140665235Y-107151429D01*
X140671196Y-107175227D01*
X140674796Y-107199496D01*
X140676000Y-107224000D01*
X140676000Y-111724000D01*
X140674796Y-111748504D01*
X140671196Y-111772773D01*
X140665235Y-111796571D01*
X140656970Y-111819671D01*
X140646480Y-111841849D01*
X140633867Y-111862893D01*
X140619253Y-111882598D01*
X140602777Y-111900777D01*
X140584598Y-111917253D01*
X140564893Y-111931867D01*
X140543849Y-111944480D01*
X140521671Y-111954970D01*
X140498571Y-111963235D01*
X140474773Y-111969196D01*
X140450504Y-111972796D01*
X140426000Y-111974000D01*
X135926000Y-111974000D01*
X135901496Y-111972796D01*
X135877227Y-111969196D01*
X135853429Y-111963235D01*
X135830329Y-111954970D01*
X135808151Y-111944480D01*
X135787107Y-111931867D01*
X135767402Y-111917253D01*
X135749223Y-111900777D01*
X135732747Y-111882598D01*
X135718133Y-111862893D01*
X135705520Y-111841849D01*
X135695030Y-111819671D01*
X135686765Y-111796571D01*
X135680804Y-111772773D01*
X135677204Y-111748504D01*
X135676000Y-111724000D01*
X135676000Y-107224000D01*
X135677204Y-107199496D01*
X135680804Y-107175227D01*
X135686765Y-107151429D01*
X135695030Y-107128329D01*
X135705520Y-107106151D01*
X135718133Y-107085107D01*
X135732747Y-107065402D01*
X135749223Y-107047223D01*
X135767402Y-107030747D01*
X135787107Y-107016133D01*
X135808151Y-107003520D01*
X135830329Y-106993030D01*
X135853429Y-106984765D01*
X135877227Y-106978804D01*
X135901496Y-106975204D01*
X135926000Y-106974000D01*
X140426000Y-106974000D01*
X140450504Y-106975204D01*
X140450504Y-106975204D01*
G37*
D18*
X138176000Y-109474000D03*
D17*
X137676000Y-108974000D03*
X138776000Y-107974000D03*
X139876000Y-111074000D03*
X138776000Y-111074000D03*
X137676000Y-111074000D03*
X136576000Y-111074000D03*
X137676000Y-107974000D03*
X136576000Y-107974000D03*
X136576000Y-109974000D03*
X137676000Y-109974000D03*
X138776000Y-109974000D03*
X138776000Y-108974000D03*
X136576000Y-108974000D03*
D19*
X161782000Y-106769000D03*
X161782000Y-112229000D03*
D20*
X158782000Y-107079000D03*
X158782000Y-111919000D03*
D21*
X120240000Y-110613000D03*
X120240000Y-111263000D03*
X120240000Y-111913000D03*
X120240000Y-112563000D03*
X120240000Y-113213000D03*
X120240000Y-113863000D03*
X120240000Y-114513000D03*
X120240000Y-115163000D03*
X120240000Y-115813000D03*
X120240000Y-116463000D03*
X126140000Y-116463000D03*
X126140000Y-115813000D03*
X126140000Y-115163000D03*
X126140000Y-114513000D03*
X126140000Y-113863000D03*
X126140000Y-113213000D03*
X126140000Y-112563000D03*
X126140000Y-111913000D03*
X126140000Y-111263000D03*
X126140000Y-110613000D03*
D10*
G36*
X118279779Y-112048144D02*
G01*
X118302834Y-112051563D01*
X118325443Y-112057227D01*
X118347387Y-112065079D01*
X118368457Y-112075044D01*
X118388448Y-112087026D01*
X118407168Y-112100910D01*
X118424438Y-112116562D01*
X118440090Y-112133832D01*
X118453974Y-112152552D01*
X118465956Y-112172543D01*
X118475921Y-112193613D01*
X118483773Y-112215557D01*
X118489437Y-112238166D01*
X118492856Y-112261221D01*
X118494000Y-112284500D01*
X118494000Y-112759500D01*
X118492856Y-112782779D01*
X118489437Y-112805834D01*
X118483773Y-112828443D01*
X118475921Y-112850387D01*
X118465956Y-112871457D01*
X118453974Y-112891448D01*
X118440090Y-112910168D01*
X118424438Y-112927438D01*
X118407168Y-112943090D01*
X118388448Y-112956974D01*
X118368457Y-112968956D01*
X118347387Y-112978921D01*
X118325443Y-112986773D01*
X118302834Y-112992437D01*
X118279779Y-112995856D01*
X118256500Y-112997000D01*
X117681500Y-112997000D01*
X117658221Y-112995856D01*
X117635166Y-112992437D01*
X117612557Y-112986773D01*
X117590613Y-112978921D01*
X117569543Y-112968956D01*
X117549552Y-112956974D01*
X117530832Y-112943090D01*
X117513562Y-112927438D01*
X117497910Y-112910168D01*
X117484026Y-112891448D01*
X117472044Y-112871457D01*
X117462079Y-112850387D01*
X117454227Y-112828443D01*
X117448563Y-112805834D01*
X117445144Y-112782779D01*
X117444000Y-112759500D01*
X117444000Y-112284500D01*
X117445144Y-112261221D01*
X117448563Y-112238166D01*
X117454227Y-112215557D01*
X117462079Y-112193613D01*
X117472044Y-112172543D01*
X117484026Y-112152552D01*
X117497910Y-112133832D01*
X117513562Y-112116562D01*
X117530832Y-112100910D01*
X117549552Y-112087026D01*
X117569543Y-112075044D01*
X117590613Y-112065079D01*
X117612557Y-112057227D01*
X117635166Y-112051563D01*
X117658221Y-112048144D01*
X117681500Y-112047000D01*
X118256500Y-112047000D01*
X118279779Y-112048144D01*
X118279779Y-112048144D01*
G37*
D11*
X117969000Y-112522000D03*
D10*
G36*
X116529779Y-112048144D02*
G01*
X116552834Y-112051563D01*
X116575443Y-112057227D01*
X116597387Y-112065079D01*
X116618457Y-112075044D01*
X116638448Y-112087026D01*
X116657168Y-112100910D01*
X116674438Y-112116562D01*
X116690090Y-112133832D01*
X116703974Y-112152552D01*
X116715956Y-112172543D01*
X116725921Y-112193613D01*
X116733773Y-112215557D01*
X116739437Y-112238166D01*
X116742856Y-112261221D01*
X116744000Y-112284500D01*
X116744000Y-112759500D01*
X116742856Y-112782779D01*
X116739437Y-112805834D01*
X116733773Y-112828443D01*
X116725921Y-112850387D01*
X116715956Y-112871457D01*
X116703974Y-112891448D01*
X116690090Y-112910168D01*
X116674438Y-112927438D01*
X116657168Y-112943090D01*
X116638448Y-112956974D01*
X116618457Y-112968956D01*
X116597387Y-112978921D01*
X116575443Y-112986773D01*
X116552834Y-112992437D01*
X116529779Y-112995856D01*
X116506500Y-112997000D01*
X115931500Y-112997000D01*
X115908221Y-112995856D01*
X115885166Y-112992437D01*
X115862557Y-112986773D01*
X115840613Y-112978921D01*
X115819543Y-112968956D01*
X115799552Y-112956974D01*
X115780832Y-112943090D01*
X115763562Y-112927438D01*
X115747910Y-112910168D01*
X115734026Y-112891448D01*
X115722044Y-112871457D01*
X115712079Y-112850387D01*
X115704227Y-112828443D01*
X115698563Y-112805834D01*
X115695144Y-112782779D01*
X115694000Y-112759500D01*
X115694000Y-112284500D01*
X115695144Y-112261221D01*
X115698563Y-112238166D01*
X115704227Y-112215557D01*
X115712079Y-112193613D01*
X115722044Y-112172543D01*
X115734026Y-112152552D01*
X115747910Y-112133832D01*
X115763562Y-112116562D01*
X115780832Y-112100910D01*
X115799552Y-112087026D01*
X115819543Y-112075044D01*
X115840613Y-112065079D01*
X115862557Y-112057227D01*
X115885166Y-112051563D01*
X115908221Y-112048144D01*
X115931500Y-112047000D01*
X116506500Y-112047000D01*
X116529779Y-112048144D01*
X116529779Y-112048144D01*
G37*
D11*
X116219000Y-112522000D03*
D16*
X143383000Y-116824000D03*
X144333000Y-114824000D03*
X142433000Y-114824000D03*
D10*
G36*
X148011779Y-116747144D02*
G01*
X148034834Y-116750563D01*
X148057443Y-116756227D01*
X148079387Y-116764079D01*
X148100457Y-116774044D01*
X148120448Y-116786026D01*
X148139168Y-116799910D01*
X148156438Y-116815562D01*
X148172090Y-116832832D01*
X148185974Y-116851552D01*
X148197956Y-116871543D01*
X148207921Y-116892613D01*
X148215773Y-116914557D01*
X148221437Y-116937166D01*
X148224856Y-116960221D01*
X148226000Y-116983500D01*
X148226000Y-117458500D01*
X148224856Y-117481779D01*
X148221437Y-117504834D01*
X148215773Y-117527443D01*
X148207921Y-117549387D01*
X148197956Y-117570457D01*
X148185974Y-117590448D01*
X148172090Y-117609168D01*
X148156438Y-117626438D01*
X148139168Y-117642090D01*
X148120448Y-117655974D01*
X148100457Y-117667956D01*
X148079387Y-117677921D01*
X148057443Y-117685773D01*
X148034834Y-117691437D01*
X148011779Y-117694856D01*
X147988500Y-117696000D01*
X147413500Y-117696000D01*
X147390221Y-117694856D01*
X147367166Y-117691437D01*
X147344557Y-117685773D01*
X147322613Y-117677921D01*
X147301543Y-117667956D01*
X147281552Y-117655974D01*
X147262832Y-117642090D01*
X147245562Y-117626438D01*
X147229910Y-117609168D01*
X147216026Y-117590448D01*
X147204044Y-117570457D01*
X147194079Y-117549387D01*
X147186227Y-117527443D01*
X147180563Y-117504834D01*
X147177144Y-117481779D01*
X147176000Y-117458500D01*
X147176000Y-116983500D01*
X147177144Y-116960221D01*
X147180563Y-116937166D01*
X147186227Y-116914557D01*
X147194079Y-116892613D01*
X147204044Y-116871543D01*
X147216026Y-116851552D01*
X147229910Y-116832832D01*
X147245562Y-116815562D01*
X147262832Y-116799910D01*
X147281552Y-116786026D01*
X147301543Y-116774044D01*
X147322613Y-116764079D01*
X147344557Y-116756227D01*
X147367166Y-116750563D01*
X147390221Y-116747144D01*
X147413500Y-116746000D01*
X147988500Y-116746000D01*
X148011779Y-116747144D01*
X148011779Y-116747144D01*
G37*
D11*
X147701000Y-117221000D03*
D10*
G36*
X146261779Y-116747144D02*
G01*
X146284834Y-116750563D01*
X146307443Y-116756227D01*
X146329387Y-116764079D01*
X146350457Y-116774044D01*
X146370448Y-116786026D01*
X146389168Y-116799910D01*
X146406438Y-116815562D01*
X146422090Y-116832832D01*
X146435974Y-116851552D01*
X146447956Y-116871543D01*
X146457921Y-116892613D01*
X146465773Y-116914557D01*
X146471437Y-116937166D01*
X146474856Y-116960221D01*
X146476000Y-116983500D01*
X146476000Y-117458500D01*
X146474856Y-117481779D01*
X146471437Y-117504834D01*
X146465773Y-117527443D01*
X146457921Y-117549387D01*
X146447956Y-117570457D01*
X146435974Y-117590448D01*
X146422090Y-117609168D01*
X146406438Y-117626438D01*
X146389168Y-117642090D01*
X146370448Y-117655974D01*
X146350457Y-117667956D01*
X146329387Y-117677921D01*
X146307443Y-117685773D01*
X146284834Y-117691437D01*
X146261779Y-117694856D01*
X146238500Y-117696000D01*
X145663500Y-117696000D01*
X145640221Y-117694856D01*
X145617166Y-117691437D01*
X145594557Y-117685773D01*
X145572613Y-117677921D01*
X145551543Y-117667956D01*
X145531552Y-117655974D01*
X145512832Y-117642090D01*
X145495562Y-117626438D01*
X145479910Y-117609168D01*
X145466026Y-117590448D01*
X145454044Y-117570457D01*
X145444079Y-117549387D01*
X145436227Y-117527443D01*
X145430563Y-117504834D01*
X145427144Y-117481779D01*
X145426000Y-117458500D01*
X145426000Y-116983500D01*
X145427144Y-116960221D01*
X145430563Y-116937166D01*
X145436227Y-116914557D01*
X145444079Y-116892613D01*
X145454044Y-116871543D01*
X145466026Y-116851552D01*
X145479910Y-116832832D01*
X145495562Y-116815562D01*
X145512832Y-116799910D01*
X145531552Y-116786026D01*
X145551543Y-116774044D01*
X145572613Y-116764079D01*
X145594557Y-116756227D01*
X145617166Y-116750563D01*
X145640221Y-116747144D01*
X145663500Y-116746000D01*
X146238500Y-116746000D01*
X146261779Y-116747144D01*
X146261779Y-116747144D01*
G37*
D11*
X145951000Y-117221000D03*
D12*
X114559000Y-106633000D03*
X116459000Y-106633000D03*
X116459000Y-103933000D03*
X115509000Y-103933000D03*
X114559000Y-103933000D03*
D16*
X160528000Y-103886000D03*
X161478000Y-101886000D03*
X159578000Y-101886000D03*
D10*
G36*
X155010779Y-110778144D02*
G01*
X155033834Y-110781563D01*
X155056443Y-110787227D01*
X155078387Y-110795079D01*
X155099457Y-110805044D01*
X155119448Y-110817026D01*
X155138168Y-110830910D01*
X155155438Y-110846562D01*
X155171090Y-110863832D01*
X155184974Y-110882552D01*
X155196956Y-110902543D01*
X155206921Y-110923613D01*
X155214773Y-110945557D01*
X155220437Y-110968166D01*
X155223856Y-110991221D01*
X155225000Y-111014500D01*
X155225000Y-111489500D01*
X155223856Y-111512779D01*
X155220437Y-111535834D01*
X155214773Y-111558443D01*
X155206921Y-111580387D01*
X155196956Y-111601457D01*
X155184974Y-111621448D01*
X155171090Y-111640168D01*
X155155438Y-111657438D01*
X155138168Y-111673090D01*
X155119448Y-111686974D01*
X155099457Y-111698956D01*
X155078387Y-111708921D01*
X155056443Y-111716773D01*
X155033834Y-111722437D01*
X155010779Y-111725856D01*
X154987500Y-111727000D01*
X154412500Y-111727000D01*
X154389221Y-111725856D01*
X154366166Y-111722437D01*
X154343557Y-111716773D01*
X154321613Y-111708921D01*
X154300543Y-111698956D01*
X154280552Y-111686974D01*
X154261832Y-111673090D01*
X154244562Y-111657438D01*
X154228910Y-111640168D01*
X154215026Y-111621448D01*
X154203044Y-111601457D01*
X154193079Y-111580387D01*
X154185227Y-111558443D01*
X154179563Y-111535834D01*
X154176144Y-111512779D01*
X154175000Y-111489500D01*
X154175000Y-111014500D01*
X154176144Y-110991221D01*
X154179563Y-110968166D01*
X154185227Y-110945557D01*
X154193079Y-110923613D01*
X154203044Y-110902543D01*
X154215026Y-110882552D01*
X154228910Y-110863832D01*
X154244562Y-110846562D01*
X154261832Y-110830910D01*
X154280552Y-110817026D01*
X154300543Y-110805044D01*
X154321613Y-110795079D01*
X154343557Y-110787227D01*
X154366166Y-110781563D01*
X154389221Y-110778144D01*
X154412500Y-110777000D01*
X154987500Y-110777000D01*
X155010779Y-110778144D01*
X155010779Y-110778144D01*
G37*
D11*
X154700000Y-111252000D03*
D10*
G36*
X156760779Y-110778144D02*
G01*
X156783834Y-110781563D01*
X156806443Y-110787227D01*
X156828387Y-110795079D01*
X156849457Y-110805044D01*
X156869448Y-110817026D01*
X156888168Y-110830910D01*
X156905438Y-110846562D01*
X156921090Y-110863832D01*
X156934974Y-110882552D01*
X156946956Y-110902543D01*
X156956921Y-110923613D01*
X156964773Y-110945557D01*
X156970437Y-110968166D01*
X156973856Y-110991221D01*
X156975000Y-111014500D01*
X156975000Y-111489500D01*
X156973856Y-111512779D01*
X156970437Y-111535834D01*
X156964773Y-111558443D01*
X156956921Y-111580387D01*
X156946956Y-111601457D01*
X156934974Y-111621448D01*
X156921090Y-111640168D01*
X156905438Y-111657438D01*
X156888168Y-111673090D01*
X156869448Y-111686974D01*
X156849457Y-111698956D01*
X156828387Y-111708921D01*
X156806443Y-111716773D01*
X156783834Y-111722437D01*
X156760779Y-111725856D01*
X156737500Y-111727000D01*
X156162500Y-111727000D01*
X156139221Y-111725856D01*
X156116166Y-111722437D01*
X156093557Y-111716773D01*
X156071613Y-111708921D01*
X156050543Y-111698956D01*
X156030552Y-111686974D01*
X156011832Y-111673090D01*
X155994562Y-111657438D01*
X155978910Y-111640168D01*
X155965026Y-111621448D01*
X155953044Y-111601457D01*
X155943079Y-111580387D01*
X155935227Y-111558443D01*
X155929563Y-111535834D01*
X155926144Y-111512779D01*
X155925000Y-111489500D01*
X155925000Y-111014500D01*
X155926144Y-110991221D01*
X155929563Y-110968166D01*
X155935227Y-110945557D01*
X155943079Y-110923613D01*
X155953044Y-110902543D01*
X155965026Y-110882552D01*
X155978910Y-110863832D01*
X155994562Y-110846562D01*
X156011832Y-110830910D01*
X156030552Y-110817026D01*
X156050543Y-110805044D01*
X156071613Y-110795079D01*
X156093557Y-110787227D01*
X156116166Y-110781563D01*
X156139221Y-110778144D01*
X156162500Y-110777000D01*
X156737500Y-110777000D01*
X156760779Y-110778144D01*
X156760779Y-110778144D01*
G37*
D11*
X156450000Y-111252000D03*
D13*
X152146000Y-114554000D03*
X149606000Y-114554000D03*
X152146000Y-112014000D03*
X149606000Y-112014000D03*
X152146000Y-109474000D03*
X149606000Y-109474000D03*
X152146000Y-106934000D03*
X149606000Y-106934000D03*
X152146000Y-104394000D03*
D14*
X149606000Y-104394000D03*
D10*
G36*
X116529779Y-110270144D02*
G01*
X116552834Y-110273563D01*
X116575443Y-110279227D01*
X116597387Y-110287079D01*
X116618457Y-110297044D01*
X116638448Y-110309026D01*
X116657168Y-110322910D01*
X116674438Y-110338562D01*
X116690090Y-110355832D01*
X116703974Y-110374552D01*
X116715956Y-110394543D01*
X116725921Y-110415613D01*
X116733773Y-110437557D01*
X116739437Y-110460166D01*
X116742856Y-110483221D01*
X116744000Y-110506500D01*
X116744000Y-110981500D01*
X116742856Y-111004779D01*
X116739437Y-111027834D01*
X116733773Y-111050443D01*
X116725921Y-111072387D01*
X116715956Y-111093457D01*
X116703974Y-111113448D01*
X116690090Y-111132168D01*
X116674438Y-111149438D01*
X116657168Y-111165090D01*
X116638448Y-111178974D01*
X116618457Y-111190956D01*
X116597387Y-111200921D01*
X116575443Y-111208773D01*
X116552834Y-111214437D01*
X116529779Y-111217856D01*
X116506500Y-111219000D01*
X115931500Y-111219000D01*
X115908221Y-111217856D01*
X115885166Y-111214437D01*
X115862557Y-111208773D01*
X115840613Y-111200921D01*
X115819543Y-111190956D01*
X115799552Y-111178974D01*
X115780832Y-111165090D01*
X115763562Y-111149438D01*
X115747910Y-111132168D01*
X115734026Y-111113448D01*
X115722044Y-111093457D01*
X115712079Y-111072387D01*
X115704227Y-111050443D01*
X115698563Y-111027834D01*
X115695144Y-111004779D01*
X115694000Y-110981500D01*
X115694000Y-110506500D01*
X115695144Y-110483221D01*
X115698563Y-110460166D01*
X115704227Y-110437557D01*
X115712079Y-110415613D01*
X115722044Y-110394543D01*
X115734026Y-110374552D01*
X115747910Y-110355832D01*
X115763562Y-110338562D01*
X115780832Y-110322910D01*
X115799552Y-110309026D01*
X115819543Y-110297044D01*
X115840613Y-110287079D01*
X115862557Y-110279227D01*
X115885166Y-110273563D01*
X115908221Y-110270144D01*
X115931500Y-110269000D01*
X116506500Y-110269000D01*
X116529779Y-110270144D01*
X116529779Y-110270144D01*
G37*
D11*
X116219000Y-110744000D03*
D10*
G36*
X118279779Y-110270144D02*
G01*
X118302834Y-110273563D01*
X118325443Y-110279227D01*
X118347387Y-110287079D01*
X118368457Y-110297044D01*
X118388448Y-110309026D01*
X118407168Y-110322910D01*
X118424438Y-110338562D01*
X118440090Y-110355832D01*
X118453974Y-110374552D01*
X118465956Y-110394543D01*
X118475921Y-110415613D01*
X118483773Y-110437557D01*
X118489437Y-110460166D01*
X118492856Y-110483221D01*
X118494000Y-110506500D01*
X118494000Y-110981500D01*
X118492856Y-111004779D01*
X118489437Y-111027834D01*
X118483773Y-111050443D01*
X118475921Y-111072387D01*
X118465956Y-111093457D01*
X118453974Y-111113448D01*
X118440090Y-111132168D01*
X118424438Y-111149438D01*
X118407168Y-111165090D01*
X118388448Y-111178974D01*
X118368457Y-111190956D01*
X118347387Y-111200921D01*
X118325443Y-111208773D01*
X118302834Y-111214437D01*
X118279779Y-111217856D01*
X118256500Y-111219000D01*
X117681500Y-111219000D01*
X117658221Y-111217856D01*
X117635166Y-111214437D01*
X117612557Y-111208773D01*
X117590613Y-111200921D01*
X117569543Y-111190956D01*
X117549552Y-111178974D01*
X117530832Y-111165090D01*
X117513562Y-111149438D01*
X117497910Y-111132168D01*
X117484026Y-111113448D01*
X117472044Y-111093457D01*
X117462079Y-111072387D01*
X117454227Y-111050443D01*
X117448563Y-111027834D01*
X117445144Y-111004779D01*
X117444000Y-110981500D01*
X117444000Y-110506500D01*
X117445144Y-110483221D01*
X117448563Y-110460166D01*
X117454227Y-110437557D01*
X117462079Y-110415613D01*
X117472044Y-110394543D01*
X117484026Y-110374552D01*
X117497910Y-110355832D01*
X117513562Y-110338562D01*
X117530832Y-110322910D01*
X117549552Y-110309026D01*
X117569543Y-110297044D01*
X117590613Y-110287079D01*
X117612557Y-110279227D01*
X117635166Y-110273563D01*
X117658221Y-110270144D01*
X117681500Y-110269000D01*
X118256500Y-110269000D01*
X118279779Y-110270144D01*
X118279779Y-110270144D01*
G37*
D11*
X117969000Y-110744000D03*
D10*
G36*
X156760779Y-109000144D02*
G01*
X156783834Y-109003563D01*
X156806443Y-109009227D01*
X156828387Y-109017079D01*
X156849457Y-109027044D01*
X156869448Y-109039026D01*
X156888168Y-109052910D01*
X156905438Y-109068562D01*
X156921090Y-109085832D01*
X156934974Y-109104552D01*
X156946956Y-109124543D01*
X156956921Y-109145613D01*
X156964773Y-109167557D01*
X156970437Y-109190166D01*
X156973856Y-109213221D01*
X156975000Y-109236500D01*
X156975000Y-109711500D01*
X156973856Y-109734779D01*
X156970437Y-109757834D01*
X156964773Y-109780443D01*
X156956921Y-109802387D01*
X156946956Y-109823457D01*
X156934974Y-109843448D01*
X156921090Y-109862168D01*
X156905438Y-109879438D01*
X156888168Y-109895090D01*
X156869448Y-109908974D01*
X156849457Y-109920956D01*
X156828387Y-109930921D01*
X156806443Y-109938773D01*
X156783834Y-109944437D01*
X156760779Y-109947856D01*
X156737500Y-109949000D01*
X156162500Y-109949000D01*
X156139221Y-109947856D01*
X156116166Y-109944437D01*
X156093557Y-109938773D01*
X156071613Y-109930921D01*
X156050543Y-109920956D01*
X156030552Y-109908974D01*
X156011832Y-109895090D01*
X155994562Y-109879438D01*
X155978910Y-109862168D01*
X155965026Y-109843448D01*
X155953044Y-109823457D01*
X155943079Y-109802387D01*
X155935227Y-109780443D01*
X155929563Y-109757834D01*
X155926144Y-109734779D01*
X155925000Y-109711500D01*
X155925000Y-109236500D01*
X155926144Y-109213221D01*
X155929563Y-109190166D01*
X155935227Y-109167557D01*
X155943079Y-109145613D01*
X155953044Y-109124543D01*
X155965026Y-109104552D01*
X155978910Y-109085832D01*
X155994562Y-109068562D01*
X156011832Y-109052910D01*
X156030552Y-109039026D01*
X156050543Y-109027044D01*
X156071613Y-109017079D01*
X156093557Y-109009227D01*
X156116166Y-109003563D01*
X156139221Y-109000144D01*
X156162500Y-108999000D01*
X156737500Y-108999000D01*
X156760779Y-109000144D01*
X156760779Y-109000144D01*
G37*
D11*
X156450000Y-109474000D03*
D10*
G36*
X155010779Y-109000144D02*
G01*
X155033834Y-109003563D01*
X155056443Y-109009227D01*
X155078387Y-109017079D01*
X155099457Y-109027044D01*
X155119448Y-109039026D01*
X155138168Y-109052910D01*
X155155438Y-109068562D01*
X155171090Y-109085832D01*
X155184974Y-109104552D01*
X155196956Y-109124543D01*
X155206921Y-109145613D01*
X155214773Y-109167557D01*
X155220437Y-109190166D01*
X155223856Y-109213221D01*
X155225000Y-109236500D01*
X155225000Y-109711500D01*
X155223856Y-109734779D01*
X155220437Y-109757834D01*
X155214773Y-109780443D01*
X155206921Y-109802387D01*
X155196956Y-109823457D01*
X155184974Y-109843448D01*
X155171090Y-109862168D01*
X155155438Y-109879438D01*
X155138168Y-109895090D01*
X155119448Y-109908974D01*
X155099457Y-109920956D01*
X155078387Y-109930921D01*
X155056443Y-109938773D01*
X155033834Y-109944437D01*
X155010779Y-109947856D01*
X154987500Y-109949000D01*
X154412500Y-109949000D01*
X154389221Y-109947856D01*
X154366166Y-109944437D01*
X154343557Y-109938773D01*
X154321613Y-109930921D01*
X154300543Y-109920956D01*
X154280552Y-109908974D01*
X154261832Y-109895090D01*
X154244562Y-109879438D01*
X154228910Y-109862168D01*
X154215026Y-109843448D01*
X154203044Y-109823457D01*
X154193079Y-109802387D01*
X154185227Y-109780443D01*
X154179563Y-109757834D01*
X154176144Y-109734779D01*
X154175000Y-109711500D01*
X154175000Y-109236500D01*
X154176144Y-109213221D01*
X154179563Y-109190166D01*
X154185227Y-109167557D01*
X154193079Y-109145613D01*
X154203044Y-109124543D01*
X154215026Y-109104552D01*
X154228910Y-109085832D01*
X154244562Y-109068562D01*
X154261832Y-109052910D01*
X154280552Y-109039026D01*
X154300543Y-109027044D01*
X154321613Y-109017079D01*
X154343557Y-109009227D01*
X154366166Y-109003563D01*
X154389221Y-109000144D01*
X154412500Y-108999000D01*
X154987500Y-108999000D01*
X155010779Y-109000144D01*
X155010779Y-109000144D01*
G37*
D11*
X154700000Y-109474000D03*
D12*
X154625000Y-106760000D03*
X156525000Y-106760000D03*
X156525000Y-104060000D03*
X155575000Y-104060000D03*
X154625000Y-104060000D03*
D10*
G36*
X156760779Y-100999144D02*
G01*
X156783834Y-101002563D01*
X156806443Y-101008227D01*
X156828387Y-101016079D01*
X156849457Y-101026044D01*
X156869448Y-101038026D01*
X156888168Y-101051910D01*
X156905438Y-101067562D01*
X156921090Y-101084832D01*
X156934974Y-101103552D01*
X156946956Y-101123543D01*
X156956921Y-101144613D01*
X156964773Y-101166557D01*
X156970437Y-101189166D01*
X156973856Y-101212221D01*
X156975000Y-101235500D01*
X156975000Y-101710500D01*
X156973856Y-101733779D01*
X156970437Y-101756834D01*
X156964773Y-101779443D01*
X156956921Y-101801387D01*
X156946956Y-101822457D01*
X156934974Y-101842448D01*
X156921090Y-101861168D01*
X156905438Y-101878438D01*
X156888168Y-101894090D01*
X156869448Y-101907974D01*
X156849457Y-101919956D01*
X156828387Y-101929921D01*
X156806443Y-101937773D01*
X156783834Y-101943437D01*
X156760779Y-101946856D01*
X156737500Y-101948000D01*
X156162500Y-101948000D01*
X156139221Y-101946856D01*
X156116166Y-101943437D01*
X156093557Y-101937773D01*
X156071613Y-101929921D01*
X156050543Y-101919956D01*
X156030552Y-101907974D01*
X156011832Y-101894090D01*
X155994562Y-101878438D01*
X155978910Y-101861168D01*
X155965026Y-101842448D01*
X155953044Y-101822457D01*
X155943079Y-101801387D01*
X155935227Y-101779443D01*
X155929563Y-101756834D01*
X155926144Y-101733779D01*
X155925000Y-101710500D01*
X155925000Y-101235500D01*
X155926144Y-101212221D01*
X155929563Y-101189166D01*
X155935227Y-101166557D01*
X155943079Y-101144613D01*
X155953044Y-101123543D01*
X155965026Y-101103552D01*
X155978910Y-101084832D01*
X155994562Y-101067562D01*
X156011832Y-101051910D01*
X156030552Y-101038026D01*
X156050543Y-101026044D01*
X156071613Y-101016079D01*
X156093557Y-101008227D01*
X156116166Y-101002563D01*
X156139221Y-100999144D01*
X156162500Y-100998000D01*
X156737500Y-100998000D01*
X156760779Y-100999144D01*
X156760779Y-100999144D01*
G37*
D11*
X156450000Y-101473000D03*
D10*
G36*
X155010779Y-100999144D02*
G01*
X155033834Y-101002563D01*
X155056443Y-101008227D01*
X155078387Y-101016079D01*
X155099457Y-101026044D01*
X155119448Y-101038026D01*
X155138168Y-101051910D01*
X155155438Y-101067562D01*
X155171090Y-101084832D01*
X155184974Y-101103552D01*
X155196956Y-101123543D01*
X155206921Y-101144613D01*
X155214773Y-101166557D01*
X155220437Y-101189166D01*
X155223856Y-101212221D01*
X155225000Y-101235500D01*
X155225000Y-101710500D01*
X155223856Y-101733779D01*
X155220437Y-101756834D01*
X155214773Y-101779443D01*
X155206921Y-101801387D01*
X155196956Y-101822457D01*
X155184974Y-101842448D01*
X155171090Y-101861168D01*
X155155438Y-101878438D01*
X155138168Y-101894090D01*
X155119448Y-101907974D01*
X155099457Y-101919956D01*
X155078387Y-101929921D01*
X155056443Y-101937773D01*
X155033834Y-101943437D01*
X155010779Y-101946856D01*
X154987500Y-101948000D01*
X154412500Y-101948000D01*
X154389221Y-101946856D01*
X154366166Y-101943437D01*
X154343557Y-101937773D01*
X154321613Y-101929921D01*
X154300543Y-101919956D01*
X154280552Y-101907974D01*
X154261832Y-101894090D01*
X154244562Y-101878438D01*
X154228910Y-101861168D01*
X154215026Y-101842448D01*
X154203044Y-101822457D01*
X154193079Y-101801387D01*
X154185227Y-101779443D01*
X154179563Y-101756834D01*
X154176144Y-101733779D01*
X154175000Y-101710500D01*
X154175000Y-101235500D01*
X154176144Y-101212221D01*
X154179563Y-101189166D01*
X154185227Y-101166557D01*
X154193079Y-101144613D01*
X154203044Y-101123543D01*
X154215026Y-101103552D01*
X154228910Y-101084832D01*
X154244562Y-101067562D01*
X154261832Y-101051910D01*
X154280552Y-101038026D01*
X154300543Y-101026044D01*
X154321613Y-101016079D01*
X154343557Y-101008227D01*
X154366166Y-101002563D01*
X154389221Y-100999144D01*
X154412500Y-100998000D01*
X154987500Y-100998000D01*
X155010779Y-100999144D01*
X155010779Y-100999144D01*
G37*
D11*
X154700000Y-101473000D03*
D10*
G36*
X119069779Y-100999144D02*
G01*
X119092834Y-101002563D01*
X119115443Y-101008227D01*
X119137387Y-101016079D01*
X119158457Y-101026044D01*
X119178448Y-101038026D01*
X119197168Y-101051910D01*
X119214438Y-101067562D01*
X119230090Y-101084832D01*
X119243974Y-101103552D01*
X119255956Y-101123543D01*
X119265921Y-101144613D01*
X119273773Y-101166557D01*
X119279437Y-101189166D01*
X119282856Y-101212221D01*
X119284000Y-101235500D01*
X119284000Y-101710500D01*
X119282856Y-101733779D01*
X119279437Y-101756834D01*
X119273773Y-101779443D01*
X119265921Y-101801387D01*
X119255956Y-101822457D01*
X119243974Y-101842448D01*
X119230090Y-101861168D01*
X119214438Y-101878438D01*
X119197168Y-101894090D01*
X119178448Y-101907974D01*
X119158457Y-101919956D01*
X119137387Y-101929921D01*
X119115443Y-101937773D01*
X119092834Y-101943437D01*
X119069779Y-101946856D01*
X119046500Y-101948000D01*
X118471500Y-101948000D01*
X118448221Y-101946856D01*
X118425166Y-101943437D01*
X118402557Y-101937773D01*
X118380613Y-101929921D01*
X118359543Y-101919956D01*
X118339552Y-101907974D01*
X118320832Y-101894090D01*
X118303562Y-101878438D01*
X118287910Y-101861168D01*
X118274026Y-101842448D01*
X118262044Y-101822457D01*
X118252079Y-101801387D01*
X118244227Y-101779443D01*
X118238563Y-101756834D01*
X118235144Y-101733779D01*
X118234000Y-101710500D01*
X118234000Y-101235500D01*
X118235144Y-101212221D01*
X118238563Y-101189166D01*
X118244227Y-101166557D01*
X118252079Y-101144613D01*
X118262044Y-101123543D01*
X118274026Y-101103552D01*
X118287910Y-101084832D01*
X118303562Y-101067562D01*
X118320832Y-101051910D01*
X118339552Y-101038026D01*
X118359543Y-101026044D01*
X118380613Y-101016079D01*
X118402557Y-101008227D01*
X118425166Y-101002563D01*
X118448221Y-100999144D01*
X118471500Y-100998000D01*
X119046500Y-100998000D01*
X119069779Y-100999144D01*
X119069779Y-100999144D01*
G37*
D11*
X118759000Y-101473000D03*
D10*
G36*
X120819779Y-100999144D02*
G01*
X120842834Y-101002563D01*
X120865443Y-101008227D01*
X120887387Y-101016079D01*
X120908457Y-101026044D01*
X120928448Y-101038026D01*
X120947168Y-101051910D01*
X120964438Y-101067562D01*
X120980090Y-101084832D01*
X120993974Y-101103552D01*
X121005956Y-101123543D01*
X121015921Y-101144613D01*
X121023773Y-101166557D01*
X121029437Y-101189166D01*
X121032856Y-101212221D01*
X121034000Y-101235500D01*
X121034000Y-101710500D01*
X121032856Y-101733779D01*
X121029437Y-101756834D01*
X121023773Y-101779443D01*
X121015921Y-101801387D01*
X121005956Y-101822457D01*
X120993974Y-101842448D01*
X120980090Y-101861168D01*
X120964438Y-101878438D01*
X120947168Y-101894090D01*
X120928448Y-101907974D01*
X120908457Y-101919956D01*
X120887387Y-101929921D01*
X120865443Y-101937773D01*
X120842834Y-101943437D01*
X120819779Y-101946856D01*
X120796500Y-101948000D01*
X120221500Y-101948000D01*
X120198221Y-101946856D01*
X120175166Y-101943437D01*
X120152557Y-101937773D01*
X120130613Y-101929921D01*
X120109543Y-101919956D01*
X120089552Y-101907974D01*
X120070832Y-101894090D01*
X120053562Y-101878438D01*
X120037910Y-101861168D01*
X120024026Y-101842448D01*
X120012044Y-101822457D01*
X120002079Y-101801387D01*
X119994227Y-101779443D01*
X119988563Y-101756834D01*
X119985144Y-101733779D01*
X119984000Y-101710500D01*
X119984000Y-101235500D01*
X119985144Y-101212221D01*
X119988563Y-101189166D01*
X119994227Y-101166557D01*
X120002079Y-101144613D01*
X120012044Y-101123543D01*
X120024026Y-101103552D01*
X120037910Y-101084832D01*
X120053562Y-101067562D01*
X120070832Y-101051910D01*
X120089552Y-101038026D01*
X120109543Y-101026044D01*
X120130613Y-101016079D01*
X120152557Y-101008227D01*
X120175166Y-101002563D01*
X120198221Y-100999144D01*
X120221500Y-100998000D01*
X120796500Y-100998000D01*
X120819779Y-100999144D01*
X120819779Y-100999144D01*
G37*
D11*
X120509000Y-101473000D03*
D10*
G36*
X129102779Y-108365144D02*
G01*
X129125834Y-108368563D01*
X129148443Y-108374227D01*
X129170387Y-108382079D01*
X129191457Y-108392044D01*
X129211448Y-108404026D01*
X129230168Y-108417910D01*
X129247438Y-108433562D01*
X129263090Y-108450832D01*
X129276974Y-108469552D01*
X129288956Y-108489543D01*
X129298921Y-108510613D01*
X129306773Y-108532557D01*
X129312437Y-108555166D01*
X129315856Y-108578221D01*
X129317000Y-108601500D01*
X129317000Y-109076500D01*
X129315856Y-109099779D01*
X129312437Y-109122834D01*
X129306773Y-109145443D01*
X129298921Y-109167387D01*
X129288956Y-109188457D01*
X129276974Y-109208448D01*
X129263090Y-109227168D01*
X129247438Y-109244438D01*
X129230168Y-109260090D01*
X129211448Y-109273974D01*
X129191457Y-109285956D01*
X129170387Y-109295921D01*
X129148443Y-109303773D01*
X129125834Y-109309437D01*
X129102779Y-109312856D01*
X129079500Y-109314000D01*
X128504500Y-109314000D01*
X128481221Y-109312856D01*
X128458166Y-109309437D01*
X128435557Y-109303773D01*
X128413613Y-109295921D01*
X128392543Y-109285956D01*
X128372552Y-109273974D01*
X128353832Y-109260090D01*
X128336562Y-109244438D01*
X128320910Y-109227168D01*
X128307026Y-109208448D01*
X128295044Y-109188457D01*
X128285079Y-109167387D01*
X128277227Y-109145443D01*
X128271563Y-109122834D01*
X128268144Y-109099779D01*
X128267000Y-109076500D01*
X128267000Y-108601500D01*
X128268144Y-108578221D01*
X128271563Y-108555166D01*
X128277227Y-108532557D01*
X128285079Y-108510613D01*
X128295044Y-108489543D01*
X128307026Y-108469552D01*
X128320910Y-108450832D01*
X128336562Y-108433562D01*
X128353832Y-108417910D01*
X128372552Y-108404026D01*
X128392543Y-108392044D01*
X128413613Y-108382079D01*
X128435557Y-108374227D01*
X128458166Y-108368563D01*
X128481221Y-108365144D01*
X128504500Y-108364000D01*
X129079500Y-108364000D01*
X129102779Y-108365144D01*
X129102779Y-108365144D01*
G37*
D11*
X128792000Y-108839000D03*
D10*
G36*
X130852779Y-108365144D02*
G01*
X130875834Y-108368563D01*
X130898443Y-108374227D01*
X130920387Y-108382079D01*
X130941457Y-108392044D01*
X130961448Y-108404026D01*
X130980168Y-108417910D01*
X130997438Y-108433562D01*
X131013090Y-108450832D01*
X131026974Y-108469552D01*
X131038956Y-108489543D01*
X131048921Y-108510613D01*
X131056773Y-108532557D01*
X131062437Y-108555166D01*
X131065856Y-108578221D01*
X131067000Y-108601500D01*
X131067000Y-109076500D01*
X131065856Y-109099779D01*
X131062437Y-109122834D01*
X131056773Y-109145443D01*
X131048921Y-109167387D01*
X131038956Y-109188457D01*
X131026974Y-109208448D01*
X131013090Y-109227168D01*
X130997438Y-109244438D01*
X130980168Y-109260090D01*
X130961448Y-109273974D01*
X130941457Y-109285956D01*
X130920387Y-109295921D01*
X130898443Y-109303773D01*
X130875834Y-109309437D01*
X130852779Y-109312856D01*
X130829500Y-109314000D01*
X130254500Y-109314000D01*
X130231221Y-109312856D01*
X130208166Y-109309437D01*
X130185557Y-109303773D01*
X130163613Y-109295921D01*
X130142543Y-109285956D01*
X130122552Y-109273974D01*
X130103832Y-109260090D01*
X130086562Y-109244438D01*
X130070910Y-109227168D01*
X130057026Y-109208448D01*
X130045044Y-109188457D01*
X130035079Y-109167387D01*
X130027227Y-109145443D01*
X130021563Y-109122834D01*
X130018144Y-109099779D01*
X130017000Y-109076500D01*
X130017000Y-108601500D01*
X130018144Y-108578221D01*
X130021563Y-108555166D01*
X130027227Y-108532557D01*
X130035079Y-108510613D01*
X130045044Y-108489543D01*
X130057026Y-108469552D01*
X130070910Y-108450832D01*
X130086562Y-108433562D01*
X130103832Y-108417910D01*
X130122552Y-108404026D01*
X130142543Y-108392044D01*
X130163613Y-108382079D01*
X130185557Y-108374227D01*
X130208166Y-108368563D01*
X130231221Y-108365144D01*
X130254500Y-108364000D01*
X130829500Y-108364000D01*
X130852779Y-108365144D01*
X130852779Y-108365144D01*
G37*
D11*
X130542000Y-108839000D03*
D10*
G36*
X147997779Y-114715144D02*
G01*
X148020834Y-114718563D01*
X148043443Y-114724227D01*
X148065387Y-114732079D01*
X148086457Y-114742044D01*
X148106448Y-114754026D01*
X148125168Y-114767910D01*
X148142438Y-114783562D01*
X148158090Y-114800832D01*
X148171974Y-114819552D01*
X148183956Y-114839543D01*
X148193921Y-114860613D01*
X148201773Y-114882557D01*
X148207437Y-114905166D01*
X148210856Y-114928221D01*
X148212000Y-114951500D01*
X148212000Y-115426500D01*
X148210856Y-115449779D01*
X148207437Y-115472834D01*
X148201773Y-115495443D01*
X148193921Y-115517387D01*
X148183956Y-115538457D01*
X148171974Y-115558448D01*
X148158090Y-115577168D01*
X148142438Y-115594438D01*
X148125168Y-115610090D01*
X148106448Y-115623974D01*
X148086457Y-115635956D01*
X148065387Y-115645921D01*
X148043443Y-115653773D01*
X148020834Y-115659437D01*
X147997779Y-115662856D01*
X147974500Y-115664000D01*
X147399500Y-115664000D01*
X147376221Y-115662856D01*
X147353166Y-115659437D01*
X147330557Y-115653773D01*
X147308613Y-115645921D01*
X147287543Y-115635956D01*
X147267552Y-115623974D01*
X147248832Y-115610090D01*
X147231562Y-115594438D01*
X147215910Y-115577168D01*
X147202026Y-115558448D01*
X147190044Y-115538457D01*
X147180079Y-115517387D01*
X147172227Y-115495443D01*
X147166563Y-115472834D01*
X147163144Y-115449779D01*
X147162000Y-115426500D01*
X147162000Y-114951500D01*
X147163144Y-114928221D01*
X147166563Y-114905166D01*
X147172227Y-114882557D01*
X147180079Y-114860613D01*
X147190044Y-114839543D01*
X147202026Y-114819552D01*
X147215910Y-114800832D01*
X147231562Y-114783562D01*
X147248832Y-114767910D01*
X147267552Y-114754026D01*
X147287543Y-114742044D01*
X147308613Y-114732079D01*
X147330557Y-114724227D01*
X147353166Y-114718563D01*
X147376221Y-114715144D01*
X147399500Y-114714000D01*
X147974500Y-114714000D01*
X147997779Y-114715144D01*
X147997779Y-114715144D01*
G37*
D11*
X147687000Y-115189000D03*
D10*
G36*
X146247779Y-114715144D02*
G01*
X146270834Y-114718563D01*
X146293443Y-114724227D01*
X146315387Y-114732079D01*
X146336457Y-114742044D01*
X146356448Y-114754026D01*
X146375168Y-114767910D01*
X146392438Y-114783562D01*
X146408090Y-114800832D01*
X146421974Y-114819552D01*
X146433956Y-114839543D01*
X146443921Y-114860613D01*
X146451773Y-114882557D01*
X146457437Y-114905166D01*
X146460856Y-114928221D01*
X146462000Y-114951500D01*
X146462000Y-115426500D01*
X146460856Y-115449779D01*
X146457437Y-115472834D01*
X146451773Y-115495443D01*
X146443921Y-115517387D01*
X146433956Y-115538457D01*
X146421974Y-115558448D01*
X146408090Y-115577168D01*
X146392438Y-115594438D01*
X146375168Y-115610090D01*
X146356448Y-115623974D01*
X146336457Y-115635956D01*
X146315387Y-115645921D01*
X146293443Y-115653773D01*
X146270834Y-115659437D01*
X146247779Y-115662856D01*
X146224500Y-115664000D01*
X145649500Y-115664000D01*
X145626221Y-115662856D01*
X145603166Y-115659437D01*
X145580557Y-115653773D01*
X145558613Y-115645921D01*
X145537543Y-115635956D01*
X145517552Y-115623974D01*
X145498832Y-115610090D01*
X145481562Y-115594438D01*
X145465910Y-115577168D01*
X145452026Y-115558448D01*
X145440044Y-115538457D01*
X145430079Y-115517387D01*
X145422227Y-115495443D01*
X145416563Y-115472834D01*
X145413144Y-115449779D01*
X145412000Y-115426500D01*
X145412000Y-114951500D01*
X145413144Y-114928221D01*
X145416563Y-114905166D01*
X145422227Y-114882557D01*
X145430079Y-114860613D01*
X145440044Y-114839543D01*
X145452026Y-114819552D01*
X145465910Y-114800832D01*
X145481562Y-114783562D01*
X145498832Y-114767910D01*
X145517552Y-114754026D01*
X145537543Y-114742044D01*
X145558613Y-114732079D01*
X145580557Y-114724227D01*
X145603166Y-114718563D01*
X145626221Y-114715144D01*
X145649500Y-114714000D01*
X146224500Y-114714000D01*
X146247779Y-114715144D01*
X146247779Y-114715144D01*
G37*
D11*
X145937000Y-115189000D03*
D10*
G36*
X124403779Y-108365144D02*
G01*
X124426834Y-108368563D01*
X124449443Y-108374227D01*
X124471387Y-108382079D01*
X124492457Y-108392044D01*
X124512448Y-108404026D01*
X124531168Y-108417910D01*
X124548438Y-108433562D01*
X124564090Y-108450832D01*
X124577974Y-108469552D01*
X124589956Y-108489543D01*
X124599921Y-108510613D01*
X124607773Y-108532557D01*
X124613437Y-108555166D01*
X124616856Y-108578221D01*
X124618000Y-108601500D01*
X124618000Y-109076500D01*
X124616856Y-109099779D01*
X124613437Y-109122834D01*
X124607773Y-109145443D01*
X124599921Y-109167387D01*
X124589956Y-109188457D01*
X124577974Y-109208448D01*
X124564090Y-109227168D01*
X124548438Y-109244438D01*
X124531168Y-109260090D01*
X124512448Y-109273974D01*
X124492457Y-109285956D01*
X124471387Y-109295921D01*
X124449443Y-109303773D01*
X124426834Y-109309437D01*
X124403779Y-109312856D01*
X124380500Y-109314000D01*
X123805500Y-109314000D01*
X123782221Y-109312856D01*
X123759166Y-109309437D01*
X123736557Y-109303773D01*
X123714613Y-109295921D01*
X123693543Y-109285956D01*
X123673552Y-109273974D01*
X123654832Y-109260090D01*
X123637562Y-109244438D01*
X123621910Y-109227168D01*
X123608026Y-109208448D01*
X123596044Y-109188457D01*
X123586079Y-109167387D01*
X123578227Y-109145443D01*
X123572563Y-109122834D01*
X123569144Y-109099779D01*
X123568000Y-109076500D01*
X123568000Y-108601500D01*
X123569144Y-108578221D01*
X123572563Y-108555166D01*
X123578227Y-108532557D01*
X123586079Y-108510613D01*
X123596044Y-108489543D01*
X123608026Y-108469552D01*
X123621910Y-108450832D01*
X123637562Y-108433562D01*
X123654832Y-108417910D01*
X123673552Y-108404026D01*
X123693543Y-108392044D01*
X123714613Y-108382079D01*
X123736557Y-108374227D01*
X123759166Y-108368563D01*
X123782221Y-108365144D01*
X123805500Y-108364000D01*
X124380500Y-108364000D01*
X124403779Y-108365144D01*
X124403779Y-108365144D01*
G37*
D11*
X124093000Y-108839000D03*
D10*
G36*
X126153779Y-108365144D02*
G01*
X126176834Y-108368563D01*
X126199443Y-108374227D01*
X126221387Y-108382079D01*
X126242457Y-108392044D01*
X126262448Y-108404026D01*
X126281168Y-108417910D01*
X126298438Y-108433562D01*
X126314090Y-108450832D01*
X126327974Y-108469552D01*
X126339956Y-108489543D01*
X126349921Y-108510613D01*
X126357773Y-108532557D01*
X126363437Y-108555166D01*
X126366856Y-108578221D01*
X126368000Y-108601500D01*
X126368000Y-109076500D01*
X126366856Y-109099779D01*
X126363437Y-109122834D01*
X126357773Y-109145443D01*
X126349921Y-109167387D01*
X126339956Y-109188457D01*
X126327974Y-109208448D01*
X126314090Y-109227168D01*
X126298438Y-109244438D01*
X126281168Y-109260090D01*
X126262448Y-109273974D01*
X126242457Y-109285956D01*
X126221387Y-109295921D01*
X126199443Y-109303773D01*
X126176834Y-109309437D01*
X126153779Y-109312856D01*
X126130500Y-109314000D01*
X125555500Y-109314000D01*
X125532221Y-109312856D01*
X125509166Y-109309437D01*
X125486557Y-109303773D01*
X125464613Y-109295921D01*
X125443543Y-109285956D01*
X125423552Y-109273974D01*
X125404832Y-109260090D01*
X125387562Y-109244438D01*
X125371910Y-109227168D01*
X125358026Y-109208448D01*
X125346044Y-109188457D01*
X125336079Y-109167387D01*
X125328227Y-109145443D01*
X125322563Y-109122834D01*
X125319144Y-109099779D01*
X125318000Y-109076500D01*
X125318000Y-108601500D01*
X125319144Y-108578221D01*
X125322563Y-108555166D01*
X125328227Y-108532557D01*
X125336079Y-108510613D01*
X125346044Y-108489543D01*
X125358026Y-108469552D01*
X125371910Y-108450832D01*
X125387562Y-108433562D01*
X125404832Y-108417910D01*
X125423552Y-108404026D01*
X125443543Y-108392044D01*
X125464613Y-108382079D01*
X125486557Y-108374227D01*
X125509166Y-108368563D01*
X125532221Y-108365144D01*
X125555500Y-108364000D01*
X126130500Y-108364000D01*
X126153779Y-108365144D01*
X126153779Y-108365144D01*
G37*
D11*
X125843000Y-108839000D03*
D10*
G36*
X161840779Y-116787144D02*
G01*
X161863834Y-116790563D01*
X161886443Y-116796227D01*
X161908387Y-116804079D01*
X161929457Y-116814044D01*
X161949448Y-116826026D01*
X161968168Y-116839910D01*
X161985438Y-116855562D01*
X162001090Y-116872832D01*
X162014974Y-116891552D01*
X162026956Y-116911543D01*
X162036921Y-116932613D01*
X162044773Y-116954557D01*
X162050437Y-116977166D01*
X162053856Y-117000221D01*
X162055000Y-117023500D01*
X162055000Y-117498500D01*
X162053856Y-117521779D01*
X162050437Y-117544834D01*
X162044773Y-117567443D01*
X162036921Y-117589387D01*
X162026956Y-117610457D01*
X162014974Y-117630448D01*
X162001090Y-117649168D01*
X161985438Y-117666438D01*
X161968168Y-117682090D01*
X161949448Y-117695974D01*
X161929457Y-117707956D01*
X161908387Y-117717921D01*
X161886443Y-117725773D01*
X161863834Y-117731437D01*
X161840779Y-117734856D01*
X161817500Y-117736000D01*
X161242500Y-117736000D01*
X161219221Y-117734856D01*
X161196166Y-117731437D01*
X161173557Y-117725773D01*
X161151613Y-117717921D01*
X161130543Y-117707956D01*
X161110552Y-117695974D01*
X161091832Y-117682090D01*
X161074562Y-117666438D01*
X161058910Y-117649168D01*
X161045026Y-117630448D01*
X161033044Y-117610457D01*
X161023079Y-117589387D01*
X161015227Y-117567443D01*
X161009563Y-117544834D01*
X161006144Y-117521779D01*
X161005000Y-117498500D01*
X161005000Y-117023500D01*
X161006144Y-117000221D01*
X161009563Y-116977166D01*
X161015227Y-116954557D01*
X161023079Y-116932613D01*
X161033044Y-116911543D01*
X161045026Y-116891552D01*
X161058910Y-116872832D01*
X161074562Y-116855562D01*
X161091832Y-116839910D01*
X161110552Y-116826026D01*
X161130543Y-116814044D01*
X161151613Y-116804079D01*
X161173557Y-116796227D01*
X161196166Y-116790563D01*
X161219221Y-116787144D01*
X161242500Y-116786000D01*
X161817500Y-116786000D01*
X161840779Y-116787144D01*
X161840779Y-116787144D01*
G37*
D11*
X161530000Y-117261000D03*
D10*
G36*
X160090779Y-116787144D02*
G01*
X160113834Y-116790563D01*
X160136443Y-116796227D01*
X160158387Y-116804079D01*
X160179457Y-116814044D01*
X160199448Y-116826026D01*
X160218168Y-116839910D01*
X160235438Y-116855562D01*
X160251090Y-116872832D01*
X160264974Y-116891552D01*
X160276956Y-116911543D01*
X160286921Y-116932613D01*
X160294773Y-116954557D01*
X160300437Y-116977166D01*
X160303856Y-117000221D01*
X160305000Y-117023500D01*
X160305000Y-117498500D01*
X160303856Y-117521779D01*
X160300437Y-117544834D01*
X160294773Y-117567443D01*
X160286921Y-117589387D01*
X160276956Y-117610457D01*
X160264974Y-117630448D01*
X160251090Y-117649168D01*
X160235438Y-117666438D01*
X160218168Y-117682090D01*
X160199448Y-117695974D01*
X160179457Y-117707956D01*
X160158387Y-117717921D01*
X160136443Y-117725773D01*
X160113834Y-117731437D01*
X160090779Y-117734856D01*
X160067500Y-117736000D01*
X159492500Y-117736000D01*
X159469221Y-117734856D01*
X159446166Y-117731437D01*
X159423557Y-117725773D01*
X159401613Y-117717921D01*
X159380543Y-117707956D01*
X159360552Y-117695974D01*
X159341832Y-117682090D01*
X159324562Y-117666438D01*
X159308910Y-117649168D01*
X159295026Y-117630448D01*
X159283044Y-117610457D01*
X159273079Y-117589387D01*
X159265227Y-117567443D01*
X159259563Y-117544834D01*
X159256144Y-117521779D01*
X159255000Y-117498500D01*
X159255000Y-117023500D01*
X159256144Y-117000221D01*
X159259563Y-116977166D01*
X159265227Y-116954557D01*
X159273079Y-116932613D01*
X159283044Y-116911543D01*
X159295026Y-116891552D01*
X159308910Y-116872832D01*
X159324562Y-116855562D01*
X159341832Y-116839910D01*
X159360552Y-116826026D01*
X159380543Y-116814044D01*
X159401613Y-116804079D01*
X159423557Y-116796227D01*
X159446166Y-116790563D01*
X159469221Y-116787144D01*
X159492500Y-116786000D01*
X160067500Y-116786000D01*
X160090779Y-116787144D01*
X160090779Y-116787144D01*
G37*
D11*
X159780000Y-117261000D03*
D10*
G36*
X155010779Y-112556144D02*
G01*
X155033834Y-112559563D01*
X155056443Y-112565227D01*
X155078387Y-112573079D01*
X155099457Y-112583044D01*
X155119448Y-112595026D01*
X155138168Y-112608910D01*
X155155438Y-112624562D01*
X155171090Y-112641832D01*
X155184974Y-112660552D01*
X155196956Y-112680543D01*
X155206921Y-112701613D01*
X155214773Y-112723557D01*
X155220437Y-112746166D01*
X155223856Y-112769221D01*
X155225000Y-112792500D01*
X155225000Y-113267500D01*
X155223856Y-113290779D01*
X155220437Y-113313834D01*
X155214773Y-113336443D01*
X155206921Y-113358387D01*
X155196956Y-113379457D01*
X155184974Y-113399448D01*
X155171090Y-113418168D01*
X155155438Y-113435438D01*
X155138168Y-113451090D01*
X155119448Y-113464974D01*
X155099457Y-113476956D01*
X155078387Y-113486921D01*
X155056443Y-113494773D01*
X155033834Y-113500437D01*
X155010779Y-113503856D01*
X154987500Y-113505000D01*
X154412500Y-113505000D01*
X154389221Y-113503856D01*
X154366166Y-113500437D01*
X154343557Y-113494773D01*
X154321613Y-113486921D01*
X154300543Y-113476956D01*
X154280552Y-113464974D01*
X154261832Y-113451090D01*
X154244562Y-113435438D01*
X154228910Y-113418168D01*
X154215026Y-113399448D01*
X154203044Y-113379457D01*
X154193079Y-113358387D01*
X154185227Y-113336443D01*
X154179563Y-113313834D01*
X154176144Y-113290779D01*
X154175000Y-113267500D01*
X154175000Y-112792500D01*
X154176144Y-112769221D01*
X154179563Y-112746166D01*
X154185227Y-112723557D01*
X154193079Y-112701613D01*
X154203044Y-112680543D01*
X154215026Y-112660552D01*
X154228910Y-112641832D01*
X154244562Y-112624562D01*
X154261832Y-112608910D01*
X154280552Y-112595026D01*
X154300543Y-112583044D01*
X154321613Y-112573079D01*
X154343557Y-112565227D01*
X154366166Y-112559563D01*
X154389221Y-112556144D01*
X154412500Y-112555000D01*
X154987500Y-112555000D01*
X155010779Y-112556144D01*
X155010779Y-112556144D01*
G37*
D11*
X154700000Y-113030000D03*
D10*
G36*
X156760779Y-112556144D02*
G01*
X156783834Y-112559563D01*
X156806443Y-112565227D01*
X156828387Y-112573079D01*
X156849457Y-112583044D01*
X156869448Y-112595026D01*
X156888168Y-112608910D01*
X156905438Y-112624562D01*
X156921090Y-112641832D01*
X156934974Y-112660552D01*
X156946956Y-112680543D01*
X156956921Y-112701613D01*
X156964773Y-112723557D01*
X156970437Y-112746166D01*
X156973856Y-112769221D01*
X156975000Y-112792500D01*
X156975000Y-113267500D01*
X156973856Y-113290779D01*
X156970437Y-113313834D01*
X156964773Y-113336443D01*
X156956921Y-113358387D01*
X156946956Y-113379457D01*
X156934974Y-113399448D01*
X156921090Y-113418168D01*
X156905438Y-113435438D01*
X156888168Y-113451090D01*
X156869448Y-113464974D01*
X156849457Y-113476956D01*
X156828387Y-113486921D01*
X156806443Y-113494773D01*
X156783834Y-113500437D01*
X156760779Y-113503856D01*
X156737500Y-113505000D01*
X156162500Y-113505000D01*
X156139221Y-113503856D01*
X156116166Y-113500437D01*
X156093557Y-113494773D01*
X156071613Y-113486921D01*
X156050543Y-113476956D01*
X156030552Y-113464974D01*
X156011832Y-113451090D01*
X155994562Y-113435438D01*
X155978910Y-113418168D01*
X155965026Y-113399448D01*
X155953044Y-113379457D01*
X155943079Y-113358387D01*
X155935227Y-113336443D01*
X155929563Y-113313834D01*
X155926144Y-113290779D01*
X155925000Y-113267500D01*
X155925000Y-112792500D01*
X155926144Y-112769221D01*
X155929563Y-112746166D01*
X155935227Y-112723557D01*
X155943079Y-112701613D01*
X155953044Y-112680543D01*
X155965026Y-112660552D01*
X155978910Y-112641832D01*
X155994562Y-112624562D01*
X156011832Y-112608910D01*
X156030552Y-112595026D01*
X156050543Y-112583044D01*
X156071613Y-112573079D01*
X156093557Y-112565227D01*
X156116166Y-112559563D01*
X156139221Y-112556144D01*
X156162500Y-112555000D01*
X156737500Y-112555000D01*
X156760779Y-112556144D01*
X156760779Y-112556144D01*
G37*
D11*
X156450000Y-113030000D03*
D10*
G36*
X147997779Y-113191144D02*
G01*
X148020834Y-113194563D01*
X148043443Y-113200227D01*
X148065387Y-113208079D01*
X148086457Y-113218044D01*
X148106448Y-113230026D01*
X148125168Y-113243910D01*
X148142438Y-113259562D01*
X148158090Y-113276832D01*
X148171974Y-113295552D01*
X148183956Y-113315543D01*
X148193921Y-113336613D01*
X148201773Y-113358557D01*
X148207437Y-113381166D01*
X148210856Y-113404221D01*
X148212000Y-113427500D01*
X148212000Y-113902500D01*
X148210856Y-113925779D01*
X148207437Y-113948834D01*
X148201773Y-113971443D01*
X148193921Y-113993387D01*
X148183956Y-114014457D01*
X148171974Y-114034448D01*
X148158090Y-114053168D01*
X148142438Y-114070438D01*
X148125168Y-114086090D01*
X148106448Y-114099974D01*
X148086457Y-114111956D01*
X148065387Y-114121921D01*
X148043443Y-114129773D01*
X148020834Y-114135437D01*
X147997779Y-114138856D01*
X147974500Y-114140000D01*
X147399500Y-114140000D01*
X147376221Y-114138856D01*
X147353166Y-114135437D01*
X147330557Y-114129773D01*
X147308613Y-114121921D01*
X147287543Y-114111956D01*
X147267552Y-114099974D01*
X147248832Y-114086090D01*
X147231562Y-114070438D01*
X147215910Y-114053168D01*
X147202026Y-114034448D01*
X147190044Y-114014457D01*
X147180079Y-113993387D01*
X147172227Y-113971443D01*
X147166563Y-113948834D01*
X147163144Y-113925779D01*
X147162000Y-113902500D01*
X147162000Y-113427500D01*
X147163144Y-113404221D01*
X147166563Y-113381166D01*
X147172227Y-113358557D01*
X147180079Y-113336613D01*
X147190044Y-113315543D01*
X147202026Y-113295552D01*
X147215910Y-113276832D01*
X147231562Y-113259562D01*
X147248832Y-113243910D01*
X147267552Y-113230026D01*
X147287543Y-113218044D01*
X147308613Y-113208079D01*
X147330557Y-113200227D01*
X147353166Y-113194563D01*
X147376221Y-113191144D01*
X147399500Y-113190000D01*
X147974500Y-113190000D01*
X147997779Y-113191144D01*
X147997779Y-113191144D01*
G37*
D11*
X147687000Y-113665000D03*
D10*
G36*
X146247779Y-113191144D02*
G01*
X146270834Y-113194563D01*
X146293443Y-113200227D01*
X146315387Y-113208079D01*
X146336457Y-113218044D01*
X146356448Y-113230026D01*
X146375168Y-113243910D01*
X146392438Y-113259562D01*
X146408090Y-113276832D01*
X146421974Y-113295552D01*
X146433956Y-113315543D01*
X146443921Y-113336613D01*
X146451773Y-113358557D01*
X146457437Y-113381166D01*
X146460856Y-113404221D01*
X146462000Y-113427500D01*
X146462000Y-113902500D01*
X146460856Y-113925779D01*
X146457437Y-113948834D01*
X146451773Y-113971443D01*
X146443921Y-113993387D01*
X146433956Y-114014457D01*
X146421974Y-114034448D01*
X146408090Y-114053168D01*
X146392438Y-114070438D01*
X146375168Y-114086090D01*
X146356448Y-114099974D01*
X146336457Y-114111956D01*
X146315387Y-114121921D01*
X146293443Y-114129773D01*
X146270834Y-114135437D01*
X146247779Y-114138856D01*
X146224500Y-114140000D01*
X145649500Y-114140000D01*
X145626221Y-114138856D01*
X145603166Y-114135437D01*
X145580557Y-114129773D01*
X145558613Y-114121921D01*
X145537543Y-114111956D01*
X145517552Y-114099974D01*
X145498832Y-114086090D01*
X145481562Y-114070438D01*
X145465910Y-114053168D01*
X145452026Y-114034448D01*
X145440044Y-114014457D01*
X145430079Y-113993387D01*
X145422227Y-113971443D01*
X145416563Y-113948834D01*
X145413144Y-113925779D01*
X145412000Y-113902500D01*
X145412000Y-113427500D01*
X145413144Y-113404221D01*
X145416563Y-113381166D01*
X145422227Y-113358557D01*
X145430079Y-113336613D01*
X145440044Y-113315543D01*
X145452026Y-113295552D01*
X145465910Y-113276832D01*
X145481562Y-113259562D01*
X145498832Y-113243910D01*
X145517552Y-113230026D01*
X145537543Y-113218044D01*
X145558613Y-113208079D01*
X145580557Y-113200227D01*
X145603166Y-113194563D01*
X145626221Y-113191144D01*
X145649500Y-113190000D01*
X146224500Y-113190000D01*
X146247779Y-113191144D01*
X146247779Y-113191144D01*
G37*
D11*
X145937000Y-113665000D03*
D10*
G36*
X147997779Y-106333144D02*
G01*
X148020834Y-106336563D01*
X148043443Y-106342227D01*
X148065387Y-106350079D01*
X148086457Y-106360044D01*
X148106448Y-106372026D01*
X148125168Y-106385910D01*
X148142438Y-106401562D01*
X148158090Y-106418832D01*
X148171974Y-106437552D01*
X148183956Y-106457543D01*
X148193921Y-106478613D01*
X148201773Y-106500557D01*
X148207437Y-106523166D01*
X148210856Y-106546221D01*
X148212000Y-106569500D01*
X148212000Y-107044500D01*
X148210856Y-107067779D01*
X148207437Y-107090834D01*
X148201773Y-107113443D01*
X148193921Y-107135387D01*
X148183956Y-107156457D01*
X148171974Y-107176448D01*
X148158090Y-107195168D01*
X148142438Y-107212438D01*
X148125168Y-107228090D01*
X148106448Y-107241974D01*
X148086457Y-107253956D01*
X148065387Y-107263921D01*
X148043443Y-107271773D01*
X148020834Y-107277437D01*
X147997779Y-107280856D01*
X147974500Y-107282000D01*
X147399500Y-107282000D01*
X147376221Y-107280856D01*
X147353166Y-107277437D01*
X147330557Y-107271773D01*
X147308613Y-107263921D01*
X147287543Y-107253956D01*
X147267552Y-107241974D01*
X147248832Y-107228090D01*
X147231562Y-107212438D01*
X147215910Y-107195168D01*
X147202026Y-107176448D01*
X147190044Y-107156457D01*
X147180079Y-107135387D01*
X147172227Y-107113443D01*
X147166563Y-107090834D01*
X147163144Y-107067779D01*
X147162000Y-107044500D01*
X147162000Y-106569500D01*
X147163144Y-106546221D01*
X147166563Y-106523166D01*
X147172227Y-106500557D01*
X147180079Y-106478613D01*
X147190044Y-106457543D01*
X147202026Y-106437552D01*
X147215910Y-106418832D01*
X147231562Y-106401562D01*
X147248832Y-106385910D01*
X147267552Y-106372026D01*
X147287543Y-106360044D01*
X147308613Y-106350079D01*
X147330557Y-106342227D01*
X147353166Y-106336563D01*
X147376221Y-106333144D01*
X147399500Y-106332000D01*
X147974500Y-106332000D01*
X147997779Y-106333144D01*
X147997779Y-106333144D01*
G37*
D11*
X147687000Y-106807000D03*
D10*
G36*
X146247779Y-106333144D02*
G01*
X146270834Y-106336563D01*
X146293443Y-106342227D01*
X146315387Y-106350079D01*
X146336457Y-106360044D01*
X146356448Y-106372026D01*
X146375168Y-106385910D01*
X146392438Y-106401562D01*
X146408090Y-106418832D01*
X146421974Y-106437552D01*
X146433956Y-106457543D01*
X146443921Y-106478613D01*
X146451773Y-106500557D01*
X146457437Y-106523166D01*
X146460856Y-106546221D01*
X146462000Y-106569500D01*
X146462000Y-107044500D01*
X146460856Y-107067779D01*
X146457437Y-107090834D01*
X146451773Y-107113443D01*
X146443921Y-107135387D01*
X146433956Y-107156457D01*
X146421974Y-107176448D01*
X146408090Y-107195168D01*
X146392438Y-107212438D01*
X146375168Y-107228090D01*
X146356448Y-107241974D01*
X146336457Y-107253956D01*
X146315387Y-107263921D01*
X146293443Y-107271773D01*
X146270834Y-107277437D01*
X146247779Y-107280856D01*
X146224500Y-107282000D01*
X145649500Y-107282000D01*
X145626221Y-107280856D01*
X145603166Y-107277437D01*
X145580557Y-107271773D01*
X145558613Y-107263921D01*
X145537543Y-107253956D01*
X145517552Y-107241974D01*
X145498832Y-107228090D01*
X145481562Y-107212438D01*
X145465910Y-107195168D01*
X145452026Y-107176448D01*
X145440044Y-107156457D01*
X145430079Y-107135387D01*
X145422227Y-107113443D01*
X145416563Y-107090834D01*
X145413144Y-107067779D01*
X145412000Y-107044500D01*
X145412000Y-106569500D01*
X145413144Y-106546221D01*
X145416563Y-106523166D01*
X145422227Y-106500557D01*
X145430079Y-106478613D01*
X145440044Y-106457543D01*
X145452026Y-106437552D01*
X145465910Y-106418832D01*
X145481562Y-106401562D01*
X145498832Y-106385910D01*
X145517552Y-106372026D01*
X145537543Y-106360044D01*
X145558613Y-106350079D01*
X145580557Y-106342227D01*
X145603166Y-106336563D01*
X145626221Y-106333144D01*
X145649500Y-106332000D01*
X146224500Y-106332000D01*
X146247779Y-106333144D01*
X146247779Y-106333144D01*
G37*
D11*
X145937000Y-106807000D03*
D10*
G36*
X148011779Y-109000144D02*
G01*
X148034834Y-109003563D01*
X148057443Y-109009227D01*
X148079387Y-109017079D01*
X148100457Y-109027044D01*
X148120448Y-109039026D01*
X148139168Y-109052910D01*
X148156438Y-109068562D01*
X148172090Y-109085832D01*
X148185974Y-109104552D01*
X148197956Y-109124543D01*
X148207921Y-109145613D01*
X148215773Y-109167557D01*
X148221437Y-109190166D01*
X148224856Y-109213221D01*
X148226000Y-109236500D01*
X148226000Y-109711500D01*
X148224856Y-109734779D01*
X148221437Y-109757834D01*
X148215773Y-109780443D01*
X148207921Y-109802387D01*
X148197956Y-109823457D01*
X148185974Y-109843448D01*
X148172090Y-109862168D01*
X148156438Y-109879438D01*
X148139168Y-109895090D01*
X148120448Y-109908974D01*
X148100457Y-109920956D01*
X148079387Y-109930921D01*
X148057443Y-109938773D01*
X148034834Y-109944437D01*
X148011779Y-109947856D01*
X147988500Y-109949000D01*
X147413500Y-109949000D01*
X147390221Y-109947856D01*
X147367166Y-109944437D01*
X147344557Y-109938773D01*
X147322613Y-109930921D01*
X147301543Y-109920956D01*
X147281552Y-109908974D01*
X147262832Y-109895090D01*
X147245562Y-109879438D01*
X147229910Y-109862168D01*
X147216026Y-109843448D01*
X147204044Y-109823457D01*
X147194079Y-109802387D01*
X147186227Y-109780443D01*
X147180563Y-109757834D01*
X147177144Y-109734779D01*
X147176000Y-109711500D01*
X147176000Y-109236500D01*
X147177144Y-109213221D01*
X147180563Y-109190166D01*
X147186227Y-109167557D01*
X147194079Y-109145613D01*
X147204044Y-109124543D01*
X147216026Y-109104552D01*
X147229910Y-109085832D01*
X147245562Y-109068562D01*
X147262832Y-109052910D01*
X147281552Y-109039026D01*
X147301543Y-109027044D01*
X147322613Y-109017079D01*
X147344557Y-109009227D01*
X147367166Y-109003563D01*
X147390221Y-109000144D01*
X147413500Y-108999000D01*
X147988500Y-108999000D01*
X148011779Y-109000144D01*
X148011779Y-109000144D01*
G37*
D11*
X147701000Y-109474000D03*
D10*
G36*
X146261779Y-109000144D02*
G01*
X146284834Y-109003563D01*
X146307443Y-109009227D01*
X146329387Y-109017079D01*
X146350457Y-109027044D01*
X146370448Y-109039026D01*
X146389168Y-109052910D01*
X146406438Y-109068562D01*
X146422090Y-109085832D01*
X146435974Y-109104552D01*
X146447956Y-109124543D01*
X146457921Y-109145613D01*
X146465773Y-109167557D01*
X146471437Y-109190166D01*
X146474856Y-109213221D01*
X146476000Y-109236500D01*
X146476000Y-109711500D01*
X146474856Y-109734779D01*
X146471437Y-109757834D01*
X146465773Y-109780443D01*
X146457921Y-109802387D01*
X146447956Y-109823457D01*
X146435974Y-109843448D01*
X146422090Y-109862168D01*
X146406438Y-109879438D01*
X146389168Y-109895090D01*
X146370448Y-109908974D01*
X146350457Y-109920956D01*
X146329387Y-109930921D01*
X146307443Y-109938773D01*
X146284834Y-109944437D01*
X146261779Y-109947856D01*
X146238500Y-109949000D01*
X145663500Y-109949000D01*
X145640221Y-109947856D01*
X145617166Y-109944437D01*
X145594557Y-109938773D01*
X145572613Y-109930921D01*
X145551543Y-109920956D01*
X145531552Y-109908974D01*
X145512832Y-109895090D01*
X145495562Y-109879438D01*
X145479910Y-109862168D01*
X145466026Y-109843448D01*
X145454044Y-109823457D01*
X145444079Y-109802387D01*
X145436227Y-109780443D01*
X145430563Y-109757834D01*
X145427144Y-109734779D01*
X145426000Y-109711500D01*
X145426000Y-109236500D01*
X145427144Y-109213221D01*
X145430563Y-109190166D01*
X145436227Y-109167557D01*
X145444079Y-109145613D01*
X145454044Y-109124543D01*
X145466026Y-109104552D01*
X145479910Y-109085832D01*
X145495562Y-109068562D01*
X145512832Y-109052910D01*
X145531552Y-109039026D01*
X145551543Y-109027044D01*
X145572613Y-109017079D01*
X145594557Y-109009227D01*
X145617166Y-109003563D01*
X145640221Y-109000144D01*
X145663500Y-108999000D01*
X146238500Y-108999000D01*
X146261779Y-109000144D01*
X146261779Y-109000144D01*
G37*
D11*
X145951000Y-109474000D03*
D10*
G36*
X146247779Y-103793144D02*
G01*
X146270834Y-103796563D01*
X146293443Y-103802227D01*
X146315387Y-103810079D01*
X146336457Y-103820044D01*
X146356448Y-103832026D01*
X146375168Y-103845910D01*
X146392438Y-103861562D01*
X146408090Y-103878832D01*
X146421974Y-103897552D01*
X146433956Y-103917543D01*
X146443921Y-103938613D01*
X146451773Y-103960557D01*
X146457437Y-103983166D01*
X146460856Y-104006221D01*
X146462000Y-104029500D01*
X146462000Y-104504500D01*
X146460856Y-104527779D01*
X146457437Y-104550834D01*
X146451773Y-104573443D01*
X146443921Y-104595387D01*
X146433956Y-104616457D01*
X146421974Y-104636448D01*
X146408090Y-104655168D01*
X146392438Y-104672438D01*
X146375168Y-104688090D01*
X146356448Y-104701974D01*
X146336457Y-104713956D01*
X146315387Y-104723921D01*
X146293443Y-104731773D01*
X146270834Y-104737437D01*
X146247779Y-104740856D01*
X146224500Y-104742000D01*
X145649500Y-104742000D01*
X145626221Y-104740856D01*
X145603166Y-104737437D01*
X145580557Y-104731773D01*
X145558613Y-104723921D01*
X145537543Y-104713956D01*
X145517552Y-104701974D01*
X145498832Y-104688090D01*
X145481562Y-104672438D01*
X145465910Y-104655168D01*
X145452026Y-104636448D01*
X145440044Y-104616457D01*
X145430079Y-104595387D01*
X145422227Y-104573443D01*
X145416563Y-104550834D01*
X145413144Y-104527779D01*
X145412000Y-104504500D01*
X145412000Y-104029500D01*
X145413144Y-104006221D01*
X145416563Y-103983166D01*
X145422227Y-103960557D01*
X145430079Y-103938613D01*
X145440044Y-103917543D01*
X145452026Y-103897552D01*
X145465910Y-103878832D01*
X145481562Y-103861562D01*
X145498832Y-103845910D01*
X145517552Y-103832026D01*
X145537543Y-103820044D01*
X145558613Y-103810079D01*
X145580557Y-103802227D01*
X145603166Y-103796563D01*
X145626221Y-103793144D01*
X145649500Y-103792000D01*
X146224500Y-103792000D01*
X146247779Y-103793144D01*
X146247779Y-103793144D01*
G37*
D11*
X145937000Y-104267000D03*
D10*
G36*
X147997779Y-103793144D02*
G01*
X148020834Y-103796563D01*
X148043443Y-103802227D01*
X148065387Y-103810079D01*
X148086457Y-103820044D01*
X148106448Y-103832026D01*
X148125168Y-103845910D01*
X148142438Y-103861562D01*
X148158090Y-103878832D01*
X148171974Y-103897552D01*
X148183956Y-103917543D01*
X148193921Y-103938613D01*
X148201773Y-103960557D01*
X148207437Y-103983166D01*
X148210856Y-104006221D01*
X148212000Y-104029500D01*
X148212000Y-104504500D01*
X148210856Y-104527779D01*
X148207437Y-104550834D01*
X148201773Y-104573443D01*
X148193921Y-104595387D01*
X148183956Y-104616457D01*
X148171974Y-104636448D01*
X148158090Y-104655168D01*
X148142438Y-104672438D01*
X148125168Y-104688090D01*
X148106448Y-104701974D01*
X148086457Y-104713956D01*
X148065387Y-104723921D01*
X148043443Y-104731773D01*
X148020834Y-104737437D01*
X147997779Y-104740856D01*
X147974500Y-104742000D01*
X147399500Y-104742000D01*
X147376221Y-104740856D01*
X147353166Y-104737437D01*
X147330557Y-104731773D01*
X147308613Y-104723921D01*
X147287543Y-104713956D01*
X147267552Y-104701974D01*
X147248832Y-104688090D01*
X147231562Y-104672438D01*
X147215910Y-104655168D01*
X147202026Y-104636448D01*
X147190044Y-104616457D01*
X147180079Y-104595387D01*
X147172227Y-104573443D01*
X147166563Y-104550834D01*
X147163144Y-104527779D01*
X147162000Y-104504500D01*
X147162000Y-104029500D01*
X147163144Y-104006221D01*
X147166563Y-103983166D01*
X147172227Y-103960557D01*
X147180079Y-103938613D01*
X147190044Y-103917543D01*
X147202026Y-103897552D01*
X147215910Y-103878832D01*
X147231562Y-103861562D01*
X147248832Y-103845910D01*
X147267552Y-103832026D01*
X147287543Y-103820044D01*
X147308613Y-103810079D01*
X147330557Y-103802227D01*
X147353166Y-103796563D01*
X147376221Y-103793144D01*
X147399500Y-103792000D01*
X147974500Y-103792000D01*
X147997779Y-103793144D01*
X147997779Y-103793144D01*
G37*
D11*
X147687000Y-104267000D03*
D10*
G36*
X120311779Y-108365144D02*
G01*
X120334834Y-108368563D01*
X120357443Y-108374227D01*
X120379387Y-108382079D01*
X120400457Y-108392044D01*
X120420448Y-108404026D01*
X120439168Y-108417910D01*
X120456438Y-108433562D01*
X120472090Y-108450832D01*
X120485974Y-108469552D01*
X120497956Y-108489543D01*
X120507921Y-108510613D01*
X120515773Y-108532557D01*
X120521437Y-108555166D01*
X120524856Y-108578221D01*
X120526000Y-108601500D01*
X120526000Y-109076500D01*
X120524856Y-109099779D01*
X120521437Y-109122834D01*
X120515773Y-109145443D01*
X120507921Y-109167387D01*
X120497956Y-109188457D01*
X120485974Y-109208448D01*
X120472090Y-109227168D01*
X120456438Y-109244438D01*
X120439168Y-109260090D01*
X120420448Y-109273974D01*
X120400457Y-109285956D01*
X120379387Y-109295921D01*
X120357443Y-109303773D01*
X120334834Y-109309437D01*
X120311779Y-109312856D01*
X120288500Y-109314000D01*
X119713500Y-109314000D01*
X119690221Y-109312856D01*
X119667166Y-109309437D01*
X119644557Y-109303773D01*
X119622613Y-109295921D01*
X119601543Y-109285956D01*
X119581552Y-109273974D01*
X119562832Y-109260090D01*
X119545562Y-109244438D01*
X119529910Y-109227168D01*
X119516026Y-109208448D01*
X119504044Y-109188457D01*
X119494079Y-109167387D01*
X119486227Y-109145443D01*
X119480563Y-109122834D01*
X119477144Y-109099779D01*
X119476000Y-109076500D01*
X119476000Y-108601500D01*
X119477144Y-108578221D01*
X119480563Y-108555166D01*
X119486227Y-108532557D01*
X119494079Y-108510613D01*
X119504044Y-108489543D01*
X119516026Y-108469552D01*
X119529910Y-108450832D01*
X119545562Y-108433562D01*
X119562832Y-108417910D01*
X119581552Y-108404026D01*
X119601543Y-108392044D01*
X119622613Y-108382079D01*
X119644557Y-108374227D01*
X119667166Y-108368563D01*
X119690221Y-108365144D01*
X119713500Y-108364000D01*
X120288500Y-108364000D01*
X120311779Y-108365144D01*
X120311779Y-108365144D01*
G37*
D11*
X120001000Y-108839000D03*
D10*
G36*
X118561779Y-108365144D02*
G01*
X118584834Y-108368563D01*
X118607443Y-108374227D01*
X118629387Y-108382079D01*
X118650457Y-108392044D01*
X118670448Y-108404026D01*
X118689168Y-108417910D01*
X118706438Y-108433562D01*
X118722090Y-108450832D01*
X118735974Y-108469552D01*
X118747956Y-108489543D01*
X118757921Y-108510613D01*
X118765773Y-108532557D01*
X118771437Y-108555166D01*
X118774856Y-108578221D01*
X118776000Y-108601500D01*
X118776000Y-109076500D01*
X118774856Y-109099779D01*
X118771437Y-109122834D01*
X118765773Y-109145443D01*
X118757921Y-109167387D01*
X118747956Y-109188457D01*
X118735974Y-109208448D01*
X118722090Y-109227168D01*
X118706438Y-109244438D01*
X118689168Y-109260090D01*
X118670448Y-109273974D01*
X118650457Y-109285956D01*
X118629387Y-109295921D01*
X118607443Y-109303773D01*
X118584834Y-109309437D01*
X118561779Y-109312856D01*
X118538500Y-109314000D01*
X117963500Y-109314000D01*
X117940221Y-109312856D01*
X117917166Y-109309437D01*
X117894557Y-109303773D01*
X117872613Y-109295921D01*
X117851543Y-109285956D01*
X117831552Y-109273974D01*
X117812832Y-109260090D01*
X117795562Y-109244438D01*
X117779910Y-109227168D01*
X117766026Y-109208448D01*
X117754044Y-109188457D01*
X117744079Y-109167387D01*
X117736227Y-109145443D01*
X117730563Y-109122834D01*
X117727144Y-109099779D01*
X117726000Y-109076500D01*
X117726000Y-108601500D01*
X117727144Y-108578221D01*
X117730563Y-108555166D01*
X117736227Y-108532557D01*
X117744079Y-108510613D01*
X117754044Y-108489543D01*
X117766026Y-108469552D01*
X117779910Y-108450832D01*
X117795562Y-108433562D01*
X117812832Y-108417910D01*
X117831552Y-108404026D01*
X117851543Y-108392044D01*
X117872613Y-108382079D01*
X117894557Y-108374227D01*
X117917166Y-108368563D01*
X117940221Y-108365144D01*
X117963500Y-108364000D01*
X118538500Y-108364000D01*
X118561779Y-108365144D01*
X118561779Y-108365144D01*
G37*
D11*
X118251000Y-108839000D03*
D22*
X137668000Y-118110000D03*
X140970000Y-101600000D03*
X140208000Y-100838000D03*
X146812000Y-110744000D03*
X121285000Y-105664000D03*
X157480886Y-109476270D03*
X161544000Y-103886000D03*
X157480000Y-101473000D03*
X156464000Y-100584000D03*
X120396000Y-102870000D03*
X133857996Y-106933996D03*
X145034000Y-103632000D03*
X158496000Y-117348000D03*
X136779000Y-117348000D03*
X146050000Y-111505988D03*
X120269000Y-117347986D03*
X122809000Y-108839000D03*
D23*
X129641784Y-107462850D03*
D22*
X119125992Y-107950000D03*
X116459000Y-107971802D03*
X124079000Y-107950000D03*
X154686000Y-113919000D03*
X127557802Y-116459000D03*
X115443000Y-111506000D03*
X127416006Y-109219990D03*
X130810000Y-102362000D03*
X116332000Y-100330000D03*
X148675422Y-116172463D03*
X125729987Y-104647987D03*
D24*
X133858000Y-119380000D03*
X150368000Y-119380000D03*
X147574000Y-112522000D03*
X147828000Y-110236000D03*
X138976000Y-112738000D03*
X135090436Y-105795895D03*
X139816937Y-105232190D03*
X144526000Y-104761380D03*
X140589000Y-104761380D03*
X138938000Y-105029000D03*
X138176000Y-105029000D03*
X136448790Y-99187735D03*
X135763000Y-99694988D03*
X134228175Y-100298331D03*
X132588000Y-100584000D03*
X133265989Y-101938011D03*
X139827000Y-113919000D03*
X132969000Y-116586000D03*
X132207000Y-116078000D03*
X138157483Y-113462165D03*
X122174000Y-119634000D03*
X122174000Y-115279309D03*
X145288000Y-100711000D03*
X143891000Y-99441000D03*
X147066000Y-100076000D03*
X142443210Y-100076000D03*
X146939000Y-108585000D03*
D22*
X115316000Y-112522000D03*
X121793000Y-101473000D03*
X113792000Y-108839000D03*
X114250198Y-109728000D03*
X161544000Y-100965000D03*
X139420590Y-118110000D03*
X128397000Y-108077000D03*
X137566410Y-101600000D03*
X138444000Y-100852000D03*
X145975736Y-113182410D03*
X140207986Y-117348000D03*
X117873640Y-103975800D03*
X153797000Y-108966000D03*
X146050000Y-108077000D03*
X146558000Y-107188000D03*
X143391802Y-114554000D03*
X154050998Y-109982000D03*
X117475000Y-111506000D03*
X145184802Y-108839000D03*
X131064000Y-114300000D03*
X129501925Y-110211297D03*
D24*
X147193000Y-102489000D03*
X146558000Y-101981000D03*
X145923000Y-101346000D03*
X134112000Y-110236000D03*
X137414000Y-113538000D03*
X131572000Y-115443000D03*
X121412000Y-113792000D03*
X126746000Y-119126000D03*
X130302000Y-119126000D03*
X120946915Y-119251171D03*
X135763000Y-118872000D03*
X123418599Y-118694190D03*
X123138664Y-112573336D03*
X134607810Y-117043210D03*
X121630228Y-115772566D03*
X129032000Y-118414779D03*
X118375582Y-114571770D03*
X118375582Y-118821221D03*
X117094000Y-115062000D03*
X128397000Y-117982969D03*
X117094000Y-118618000D03*
X114046000Y-114300000D03*
X127757044Y-117525812D03*
X114046000Y-118110000D03*
X146050000Y-116332000D03*
X155487601Y-105232190D03*
X147574000Y-118618000D03*
X118031298Y-107963342D03*
X161544000Y-116078000D03*
X118364000Y-100584000D03*
X159512000Y-102870000D03*
X136398000Y-105561328D03*
X157226000Y-105664000D03*
X117816801Y-113498801D03*
X119126000Y-106680000D03*
X120904198Y-107111810D03*
X122174000Y-114477787D03*
X119126000Y-105918000D03*
X123952000Y-113284000D03*
X122428000Y-106680000D03*
X117348004Y-107696000D03*
X122529612Y-112037858D03*
X121411974Y-107696000D03*
X127508000Y-111252000D03*
X121320604Y-111771276D03*
X122809000Y-115189000D03*
X124079000Y-113919000D03*
X124714000Y-112522000D03*
X133731000Y-108712000D03*
X120700987Y-110003943D03*
X131826000Y-102362000D03*
D22*
X122682010Y-103775000D03*
D25*
X120269000Y-108571000D02*
X120001000Y-108839000D01*
X121174000Y-105775000D02*
X121285000Y-105664000D01*
X120269000Y-105775000D02*
X121174000Y-105775000D01*
X155575000Y-102348000D02*
X156450000Y-101473000D01*
X155575000Y-104060000D02*
X155575000Y-102348000D01*
X154700000Y-111252000D02*
X154700000Y-113030000D01*
X154700000Y-111252000D02*
X154700000Y-111224000D01*
X156450000Y-109474000D02*
X157478616Y-109474000D01*
X157478616Y-109474000D02*
X157480886Y-109476270D01*
X160528000Y-103886000D02*
X161544000Y-103886000D01*
X156450000Y-101473000D02*
X157480000Y-101473000D01*
X156450000Y-100598000D02*
X156464000Y-100584000D01*
X156450000Y-101473000D02*
X156450000Y-100598000D01*
X116445000Y-110518000D02*
X116219000Y-110744000D01*
X145669000Y-104267000D02*
X145034000Y-103632000D01*
X145937000Y-104267000D02*
X145669000Y-104267000D01*
X120240000Y-116463000D02*
X120240000Y-117318986D01*
X120240000Y-117318986D02*
X120269000Y-117347986D01*
X119125992Y-107963992D02*
X120001000Y-108839000D01*
X119125992Y-107950000D02*
X119125992Y-107963992D01*
X116445000Y-107985802D02*
X116459000Y-107971802D01*
X116445000Y-108839000D02*
X116445000Y-107985802D01*
X124093000Y-107964000D02*
X124079000Y-107950000D01*
X124093000Y-108839000D02*
X124093000Y-107964000D01*
X154700000Y-113905000D02*
X154686000Y-113919000D01*
X154700000Y-113030000D02*
X154700000Y-113905000D01*
X127553802Y-116463000D02*
X127557802Y-116459000D01*
X126140000Y-116463000D02*
X127553802Y-116463000D01*
X116205000Y-110744000D02*
X115443000Y-111506000D01*
X116219000Y-110744000D02*
X116205000Y-110744000D01*
X127416006Y-109279006D02*
X127416006Y-109219990D01*
X129794000Y-102348000D02*
X130669000Y-101473000D01*
X129794000Y-103886000D02*
X129794000Y-102348000D01*
X130669000Y-102221000D02*
X130810000Y-102362000D01*
X130669000Y-101473000D02*
X130669000Y-102221000D01*
X115509000Y-102409000D02*
X116445000Y-101473000D01*
X115509000Y-103933000D02*
X115509000Y-102409000D01*
X116445000Y-100443000D02*
X116332000Y-100330000D01*
X116445000Y-101473000D02*
X116445000Y-100443000D01*
X148675422Y-116246578D02*
X148675422Y-116172463D01*
X147701000Y-117221000D02*
X148675422Y-116246578D01*
D26*
X148717000Y-113665000D02*
X149606000Y-114554000D01*
X147687000Y-113665000D02*
X148717000Y-113665000D01*
X148971000Y-115189000D02*
X149606000Y-114554000D01*
X147687000Y-115189000D02*
X148971000Y-115189000D01*
X155702000Y-119380000D02*
X157226000Y-120904000D01*
X150368000Y-119380000D02*
X155702000Y-119380000D01*
X133858000Y-119380000D02*
X150368000Y-119380000D01*
X147701000Y-109474000D02*
X149606000Y-109474000D01*
X139192000Y-112522000D02*
X147574000Y-112522000D01*
X139065000Y-112649000D02*
X139192000Y-112522000D01*
X147828000Y-109601000D02*
X147701000Y-109474000D01*
X147828000Y-110236000D02*
X147828000Y-109601000D01*
X149479000Y-106807000D02*
X149606000Y-106934000D01*
X147687000Y-106807000D02*
X149479000Y-106807000D01*
X135339541Y-106045000D02*
X135090436Y-105795895D01*
X146925000Y-106045000D02*
X135339541Y-106045000D01*
X147687000Y-106807000D02*
X146925000Y-106045000D01*
X149479000Y-104267000D02*
X149606000Y-104394000D01*
X147687000Y-104267000D02*
X149479000Y-104267000D01*
X146721810Y-105232190D02*
X139816937Y-105232190D01*
X147687000Y-104267000D02*
X146721810Y-105232190D01*
X144526000Y-104761380D02*
X140589000Y-104761380D01*
X141986000Y-101981000D02*
X141986000Y-98044000D01*
X138938000Y-105029000D02*
X141986000Y-101981000D01*
X139446000Y-103759000D02*
X139446000Y-98044000D01*
X138176000Y-105029000D02*
X139446000Y-103759000D01*
X127889735Y-99187735D02*
X136448790Y-99187735D01*
X126746000Y-98044000D02*
X127889735Y-99187735D01*
X135636012Y-99568000D02*
X135763000Y-99694988D01*
X125730000Y-99568000D02*
X135636012Y-99568000D01*
X124206000Y-98044000D02*
X125730000Y-99568000D01*
X133955024Y-100025180D02*
X134228175Y-100298331D01*
X123647179Y-100025179D02*
X133955024Y-100025180D01*
X121666000Y-98044000D02*
X123647179Y-100025179D01*
X132308589Y-100304589D02*
X132588000Y-100584000D01*
X121386589Y-100304589D02*
X132308589Y-100304589D01*
X119126000Y-98044000D02*
X121386589Y-100304589D01*
X133180011Y-101938011D02*
X133265989Y-101938011D01*
X119126000Y-100584000D02*
X131826000Y-100584000D01*
X131826000Y-100584000D02*
X133180011Y-101938011D01*
X116586000Y-98044000D02*
X119126000Y-100584000D01*
X138176000Y-113919000D02*
X135509000Y-116586000D01*
X135509000Y-116586000D02*
X132969000Y-116586000D01*
X139827000Y-113919000D02*
X138176000Y-113919000D01*
X135541648Y-116078000D02*
X138157483Y-113462165D01*
X132207000Y-116078000D02*
X135541648Y-116078000D01*
X128016000Y-119634000D02*
X129286000Y-120904000D01*
X122174000Y-119634000D02*
X128016000Y-119634000D01*
X120240000Y-115163000D02*
X122057691Y-115163000D01*
X122057691Y-115163000D02*
X122174000Y-115279309D01*
X149479000Y-100711000D02*
X152146000Y-98044000D01*
X145288000Y-100711000D02*
X149479000Y-100711000D01*
X148209000Y-99441000D02*
X149606000Y-98044000D01*
X143891000Y-99441000D02*
X148209000Y-99441000D01*
X147066000Y-100076000D02*
X142443210Y-100076000D01*
D25*
X118100000Y-110613000D02*
X120240000Y-110613000D01*
X117969000Y-110744000D02*
X118100000Y-110613000D01*
X117969000Y-110744000D02*
X117969000Y-110772000D01*
X116219000Y-112522000D02*
X115316000Y-112522000D01*
X130173000Y-110738000D02*
X130173000Y-116338000D01*
X114559000Y-108703000D02*
X114695000Y-108839000D01*
X114559000Y-106633000D02*
X114559000Y-108703000D01*
X120509000Y-101473000D02*
X121793000Y-101473000D01*
X114695000Y-108839000D02*
X113792000Y-108839000D01*
X114695000Y-109283198D02*
X114250198Y-109728000D01*
X114695000Y-108839000D02*
X114695000Y-109283198D01*
X154625000Y-109399000D02*
X154700000Y-109474000D01*
X154625000Y-106760000D02*
X154625000Y-109399000D01*
X161478000Y-101031000D02*
X161544000Y-100965000D01*
X161478000Y-101886000D02*
X161478000Y-101031000D01*
X128792000Y-108472000D02*
X128397000Y-108077000D01*
X128792000Y-108839000D02*
X128792000Y-108472000D01*
X145937000Y-113221146D02*
X145975736Y-113182410D01*
X145937000Y-113665000D02*
X145937000Y-113221146D01*
X159780000Y-120890000D02*
X159766000Y-120904000D01*
X159780000Y-117261000D02*
X159780000Y-120890000D01*
X118074440Y-103775000D02*
X117873640Y-103975800D01*
X119319000Y-103775000D02*
X118074440Y-103775000D01*
X154305000Y-109474000D02*
X153797000Y-108966000D01*
X146177000Y-106807000D02*
X146558000Y-107188000D01*
X145937000Y-106807000D02*
X146177000Y-106807000D01*
X145951000Y-109474000D02*
X145819802Y-109474000D01*
X143661802Y-114824000D02*
X143391802Y-114554000D01*
X144333000Y-114824000D02*
X143661802Y-114824000D01*
X154192000Y-109982000D02*
X154050998Y-109982000D01*
X154700000Y-109474000D02*
X154192000Y-109982000D01*
X117475000Y-111506000D02*
X117969000Y-111365000D01*
X117969000Y-111365000D02*
X117969000Y-110744000D01*
X145819802Y-109474000D02*
X145184802Y-108839000D01*
X130173000Y-110738000D02*
X130036867Y-110738000D01*
X130626000Y-114738000D02*
X131064000Y-114300000D01*
X130173000Y-114738000D02*
X130626000Y-114738000D01*
D26*
X157988000Y-99822000D02*
X159766000Y-98044000D01*
X155166818Y-99822000D02*
X157988000Y-99822000D01*
X147193000Y-102489000D02*
X152499818Y-102489000D01*
X152499818Y-102489000D02*
X155166818Y-99822000D01*
X146558000Y-101981000D02*
X152540830Y-101981000D01*
X152540830Y-101981000D02*
X156477830Y-98044000D01*
X156477830Y-98044000D02*
X157226000Y-98044000D01*
X151384000Y-101346000D02*
X154686000Y-98044000D01*
X145923000Y-101346000D02*
X151384000Y-101346000D01*
X136906000Y-100330000D02*
X136906000Y-98044000D01*
X134551058Y-102684942D02*
X136906000Y-100330000D01*
X134112000Y-110236000D02*
X134551058Y-109796942D01*
X134551058Y-109796942D02*
X134551058Y-102684942D01*
X135509000Y-115443000D02*
X131572000Y-115443000D01*
X137414000Y-113538000D02*
X135509000Y-115443000D01*
X121341000Y-113863000D02*
X121412000Y-113792000D01*
X120240000Y-113863000D02*
X121341000Y-113863000D01*
X126746000Y-119126000D02*
X130302000Y-119126000D01*
X126746000Y-119126000D02*
X121072086Y-119126000D01*
X121072086Y-119126000D02*
X120946915Y-119251171D01*
X135534401Y-118643401D02*
X130145531Y-118643401D01*
X126953258Y-118694190D02*
X123418599Y-118694190D01*
X130145531Y-118643401D02*
X129942343Y-118846589D01*
X129942343Y-118846589D02*
X127105657Y-118846589D01*
X127105657Y-118846589D02*
X126953258Y-118694190D01*
X135763000Y-118872000D02*
X135534401Y-118643401D01*
X123128328Y-112563000D02*
X123138664Y-112573336D01*
X120240000Y-112563000D02*
X123128328Y-112563000D01*
X121589794Y-115813000D02*
X121630228Y-115772566D01*
X120240000Y-115813000D02*
X121589794Y-115813000D01*
X122951664Y-117094002D02*
X121630228Y-115772566D01*
X134557018Y-117094002D02*
X122951664Y-117094002D01*
X134607810Y-117043210D02*
X134557018Y-117094002D01*
X120240000Y-114513000D02*
X118434352Y-114513000D01*
X118434352Y-114513000D02*
X118375582Y-114571770D01*
X120906875Y-118821221D02*
X118375582Y-118821221D01*
X121465708Y-118262388D02*
X120906875Y-118821221D01*
X127068993Y-118414779D02*
X126916602Y-118262388D01*
X129032000Y-118414779D02*
X127068993Y-118414779D01*
X126916602Y-118262388D02*
X121465708Y-118262388D01*
X120240000Y-113213000D02*
X119136814Y-113213000D01*
X119136814Y-113213000D02*
X118139801Y-114210013D01*
X118139801Y-114210013D02*
X117945987Y-114210013D01*
X117945987Y-114210013D02*
X117094000Y-115062000D01*
X120943549Y-118389401D02*
X117322599Y-118389401D01*
X121349981Y-117982969D02*
X120943549Y-118389401D01*
X117322599Y-118389401D02*
X117094000Y-118618000D01*
X128397000Y-117982969D02*
X121349981Y-117982969D01*
X114415398Y-113930602D02*
X114046000Y-114300000D01*
X118024066Y-113930602D02*
X114415398Y-113930602D01*
X120240000Y-111913000D02*
X119362600Y-111913000D01*
X119362600Y-111913000D02*
X118722610Y-112552990D01*
X118722610Y-112552990D02*
X118722610Y-113232058D01*
X118722610Y-113232058D02*
X118024066Y-113930602D01*
X127680856Y-117602000D02*
X127757044Y-117525812D01*
X121335804Y-117602000D02*
X127680856Y-117602000D01*
X120827804Y-118110000D02*
X121335804Y-117602000D01*
X114046000Y-118110000D02*
X120827804Y-118110000D01*
X146050000Y-117122000D02*
X145951000Y-117221000D01*
X146050000Y-116332000D02*
X146050000Y-117122000D01*
X143247072Y-115688072D02*
X145437928Y-115688072D01*
X142433000Y-114824000D02*
X142433000Y-114874000D01*
X142433000Y-114874000D02*
X143247072Y-115688072D01*
X145437928Y-115688072D02*
X145937000Y-115189000D01*
D25*
X156525000Y-104855082D02*
X156525000Y-104060000D01*
X155002108Y-105232190D02*
X156147892Y-105232190D01*
X156147892Y-105232190D02*
X156525000Y-104855082D01*
X154625000Y-104855082D02*
X155002108Y-105232190D01*
X154625000Y-104060000D02*
X154625000Y-104855082D01*
X154625000Y-104060000D02*
X154625000Y-101548000D01*
D26*
X145729400Y-118618000D02*
X147574000Y-118618000D01*
X143383000Y-116824000D02*
X143935400Y-116824000D01*
X143935400Y-116824000D02*
X145729400Y-118618000D01*
X118251000Y-108183044D02*
X118031298Y-107963342D01*
X118251000Y-108839000D02*
X118251000Y-108183044D01*
X161530000Y-117261000D02*
X161530000Y-116092000D01*
X161530000Y-116092000D02*
X161544000Y-116078000D01*
X118364000Y-101078000D02*
X118759000Y-101473000D01*
X118364000Y-100584000D02*
X118364000Y-101078000D01*
X159578000Y-102804000D02*
X159512000Y-102870000D01*
X159578000Y-101886000D02*
X159578000Y-102804000D01*
X159578000Y-100772000D02*
X162306000Y-98044000D01*
X159578000Y-101886000D02*
X159578000Y-100772000D01*
X136500672Y-105664000D02*
X157226000Y-105664000D01*
X136398000Y-105561328D02*
X136500672Y-105664000D01*
D25*
X156450000Y-113030000D02*
X156450000Y-111252000D01*
X158115000Y-111252000D02*
X158782000Y-111919000D01*
X155942000Y-111252000D02*
X158115000Y-111252000D01*
D26*
X119228000Y-111263000D02*
X120240000Y-111263000D01*
X117969000Y-112522000D02*
X119228000Y-111263000D01*
X117969000Y-113346602D02*
X117816801Y-113498801D01*
X117969000Y-112522000D02*
X117969000Y-113346602D01*
X128488000Y-115538000D02*
X128653000Y-115538000D01*
X126140000Y-114513000D02*
X127463000Y-114513000D01*
X127463000Y-114513000D02*
X128488000Y-115538000D01*
X119449289Y-106680000D02*
X119881099Y-107111810D01*
X119881099Y-107111810D02*
X120904198Y-107111810D01*
X119126000Y-106680000D02*
X119449289Y-106680000D01*
X126140000Y-114513000D02*
X122209213Y-114513000D01*
X122209213Y-114513000D02*
X122174000Y-114477787D01*
X127821976Y-113938000D02*
X128653000Y-113938000D01*
X127096976Y-113213000D02*
X127821976Y-113938000D01*
X126140000Y-113213000D02*
X127096976Y-113213000D01*
X126069000Y-113284000D02*
X126140000Y-113213000D01*
X123952000Y-113284000D02*
X126069000Y-113284000D01*
X119888000Y-106680000D02*
X122428000Y-106680000D01*
X119126000Y-105918000D02*
X119888000Y-106680000D01*
X127493200Y-112338000D02*
X128653000Y-112338000D01*
X127068200Y-111913000D02*
X127493200Y-112338000D01*
X126140000Y-111913000D02*
X127068200Y-111913000D01*
X126140000Y-111913000D02*
X122654470Y-111913000D01*
X122654470Y-111913000D02*
X122529612Y-112037858D01*
X117348004Y-107696000D02*
X117729005Y-107314999D01*
X119689142Y-107314999D02*
X120070143Y-107696000D01*
X120070143Y-107696000D02*
X121088685Y-107696000D01*
X117729005Y-107314999D02*
X119689142Y-107314999D01*
X121088685Y-107696000D02*
X121411974Y-107696000D01*
X126151000Y-111252000D02*
X126140000Y-111263000D01*
X127508000Y-111252000D02*
X126151000Y-111252000D01*
X128367000Y-111252000D02*
X128653000Y-111538000D01*
X127508000Y-111252000D02*
X128367000Y-111252000D01*
X128528000Y-110613000D02*
X128653000Y-110738000D01*
X126140000Y-110613000D02*
X128528000Y-110613000D01*
X122478880Y-110613000D02*
X121320604Y-111771276D01*
X126140000Y-110613000D02*
X122478880Y-110613000D01*
X126114000Y-115189000D02*
X126140000Y-115163000D01*
X122809000Y-115189000D02*
X126114000Y-115189000D01*
X126140000Y-115163000D02*
X127313000Y-115163000D01*
X127313000Y-115163000D02*
X128488000Y-116338000D01*
X128488000Y-116338000D02*
X128653000Y-116338000D01*
X126084000Y-113919000D02*
X126140000Y-113863000D01*
X124079000Y-113919000D02*
X126084000Y-113919000D01*
X128723000Y-114808000D02*
X128653000Y-114738000D01*
X128224988Y-114808000D02*
X128723000Y-114808000D01*
X126140000Y-113863000D02*
X127279988Y-113863000D01*
X127279988Y-113863000D02*
X128224988Y-114808000D01*
X126099000Y-112522000D02*
X126140000Y-112563000D01*
X124714000Y-112522000D02*
X126099000Y-112522000D01*
X127643200Y-113138000D02*
X128653000Y-113138000D01*
X127068200Y-112563000D02*
X127643200Y-113138000D01*
X126140000Y-112563000D02*
X127068200Y-112563000D01*
X133604000Y-108839000D02*
X133731000Y-108712000D01*
X130542000Y-108839000D02*
X133604000Y-108839000D01*
X130042928Y-109338072D02*
X129477110Y-109338072D01*
X128811239Y-110003943D02*
X120700987Y-110003943D01*
X129477110Y-109338072D02*
X128811239Y-110003943D01*
X130542000Y-108839000D02*
X130042928Y-109338072D01*
D25*
X128844000Y-106586000D02*
X128844000Y-106131000D01*
X128745000Y-106586000D02*
X128844000Y-106586000D01*
X126492000Y-108839000D02*
X128745000Y-106586000D01*
X125843000Y-108839000D02*
X126492000Y-108839000D01*
D27*
X131826000Y-105156000D02*
X131826000Y-102362000D01*
X129423001Y-105551999D02*
X131430001Y-105551999D01*
X131430001Y-105551999D02*
X131826000Y-105156000D01*
X128844000Y-106131000D02*
X129423001Y-105551999D01*
D25*
X116459000Y-104728082D02*
X116459000Y-103933000D01*
X116118481Y-105068601D02*
X116459000Y-104728082D01*
X114899519Y-105068601D02*
X116118481Y-105068601D01*
X114559000Y-104728082D02*
X114899519Y-105068601D01*
X114559000Y-103933000D02*
X114559000Y-104728082D01*
X114046000Y-100824000D02*
X114695000Y-101473000D01*
X114046000Y-98044000D02*
X114046000Y-100824000D01*
X114695000Y-103797000D02*
X114559000Y-103933000D01*
X114695000Y-101473000D02*
X114695000Y-103797000D01*
X121219000Y-103775000D02*
X122682010Y-103775000D01*
X130744000Y-104681082D02*
X130744000Y-103886000D01*
X130403481Y-105021601D02*
X130744000Y-104681082D01*
X129184519Y-105021601D02*
X130403481Y-105021601D01*
X128844000Y-104681082D02*
X129184519Y-105021601D01*
X128844000Y-103886000D02*
X128844000Y-104681082D01*
X122682010Y-103200264D02*
X122682000Y-103200254D01*
X122682010Y-103775000D02*
X122682010Y-103200264D01*
X122682000Y-103200254D02*
X122682000Y-102108000D01*
X122682000Y-102108000D02*
X123190000Y-101600000D01*
X123190000Y-101600000D02*
X128524000Y-101600000D01*
X128844000Y-101920000D02*
X128844000Y-103886000D01*
X128524000Y-101600000D02*
X128844000Y-101920000D01*
M02*
