M48
; DRILL file {KiCad (5.1.0-1347-g515a1bad0)} date Wednesday, July 24, 2019 at 07:43:19 PM
; FORMAT={-:-/ absolute / inch / decimal}
; #@! TF.CreationDate,2019-07-24T19:43:19-07:00
; #@! TF.GenerationSoftware,Kicad,Pcbnew,(5.1.0-1347-g515a1bad0)
; #@! TF.FileFunction,Plated,1,4,PTH
FMAT,2
INCH
T1C0.0080
T2C0.0160
T3C0.0236
T4C0.0256
T5C0.0335
T6C0.0394
%
G90
G05
T1
X4.462Y-4.532
X4.482Y-4.51
X4.49Y-4.5679
X4.51Y-4.31
X4.546Y-3.91
X4.546Y-3.956
X4.5791Y-4.3209
X4.588Y-4.278
X4.59Y-3.948
X4.59Y-4.6524
X4.63Y-4.256
X4.6419Y-4.3209
X4.654Y-3.98
X4.6762Y-4.4577
X4.69Y-3.91
X4.69Y-4.672
X4.6988Y-4.3209
X4.702Y-4.518
X4.728Y-4.456
X4.7587Y-4.3209
X4.7684Y-4.2127
X4.79Y-4.692
X4.81Y-4.3219
X4.822Y-4.222
X4.836Y-4.632
X4.84Y-4.046
X4.844Y-4.076
X4.8535Y-3.9359
X4.8701Y-4.2481
X4.8747Y-4.15
X4.8843Y-4.5549
X4.8886Y-4.4896
X4.89Y-3.968
X4.89Y-4.708
X4.9203Y-4.2196
X4.9234Y-4.3248
X4.928Y-4.626
X4.9458Y-4.2154
X4.9502Y-4.4099
X4.956Y-4.076
X4.9766Y-4.1886
X4.9817Y-4.4202
X4.99Y-4.468
X4.993Y-4.2293
X5.0084Y-3.9359
X5.01Y-4.046
X5.026Y-4.4099
X5.026Y-4.632
X5.03Y-4.088
X5.04Y-3.894
X5.0435Y-3.9696
X5.056Y-4.41
X5.0635Y-4.1834
X5.0891Y-4.1798
X5.09Y-4.71
X5.102Y-4.53
X5.116Y-4.464
X5.1163Y-4.4183
X5.1192Y-4.2241
X5.122Y-4.346
X5.1244Y-4.6471
X5.1299Y-4.2818
X5.1494Y-4.6538
X5.16Y-4.556
X5.1656Y-4.1224
X5.172Y-3.948
X5.19Y-4.71
X5.192Y-4.6564
X5.2016Y-4.096
X5.212Y-3.934
X5.218Y-4.298
X5.222Y-4.338
X5.224Y-4.44
X5.23Y-4.476
X5.234Y-4.578
X5.246Y-4.6679
X5.262Y-3.944
X5.264Y-4.01
X5.2674Y-4.1813
X5.2678Y-4.6248
X5.283Y-4.1607
X5.292Y-4.6817
X5.308Y-4.146
X5.3284Y-4.7224
X5.338Y-4.34
X5.358Y-4.244
X5.362Y-3.946
X5.362Y-4.648
X5.39Y-4.6819
X5.422Y-4.6481
X5.4518Y-4.6818
X5.454Y-4.032
X5.456Y-3.946
X5.486Y-4.588
X5.516Y-4.674
X5.546Y-3.946
X5.576Y-4.57
X5.6211Y-4.0017
X5.626Y-4.676
X5.658Y-3.976
X5.66Y-3.926
X5.664Y-4.248
X5.664Y-4.276
X5.664Y-4.372
X5.704Y-4.574
X5.728Y-4.676
X5.7315Y-3.9998
X5.746Y-4.18
X5.7552Y-4.0395
X5.768Y-4.158
X5.772Y-4.558
X5.78Y-3.998
X5.806Y-4.372
X5.82Y-3.9241
X5.83Y-4.606
X5.8329Y-4.2288
X5.84Y-3.896
X5.86Y-3.9959
X5.876Y-4.028
X5.93Y-4.676
X5.9682Y-4.6481
X5.99Y-3.944
X6.035Y-4.705
X6.062Y-3.964
X6.194Y-3.932
X6.29Y-4.118
X6.318Y-3.992
T2
X4.4809Y-4.1591
X4.482Y-4.062
X4.552Y-4.274
X4.642Y-4.51
X4.688Y-3.968
X4.734Y-4.174
X4.744Y-4.06
X4.839Y-4.277
X4.8456Y-4.1276
X4.8602Y-4.5164
X4.8629Y-4.362
X4.8629Y-4.42
X4.96Y-3.9845
X4.9952Y-4.2845
X5.096Y-4.056
X5.1011Y-4.5756
X5.214Y-4.216
X5.22Y-4.372
X5.31Y-4.3
X5.326Y-4.472
X5.36Y-4.14
X5.414Y-4.394
X5.424Y-4.228
X5.468Y-4.38
X5.484Y-4.478
X5.516Y-4.152
X5.558Y-4.3096
X5.7029Y-4.0732
X5.704Y-4.3451
X5.706Y-4.172
X5.706Y-4.458
X6.066Y-4.18
X6.0723Y-4.2925
X6.104Y-4.082
X6.104Y-3.964
X6.1117Y-4.2866
X6.138Y-4.388
X6.1515Y-4.2836
T4
X4.744Y-4.602
X4.794Y-4.602
X4.524Y-4.602
X4.574Y-4.602
T5
X6.1974Y-4.2114
X6.1974Y-4.4082
T6
X4.49Y-3.86
X4.59Y-3.86
X4.69Y-3.86
X4.79Y-3.86
X4.89Y-3.86
X4.99Y-3.86
X5.09Y-3.86
X5.19Y-3.86
X5.29Y-3.86
X5.39Y-3.86
X5.49Y-3.86
X5.59Y-3.86
X5.69Y-3.86
X5.79Y-3.86
X5.89Y-3.86
X5.99Y-3.86
X6.09Y-3.86
X6.19Y-3.86
X6.29Y-3.86
X4.49Y-4.76
X4.59Y-4.76
X4.69Y-4.76
X4.79Y-4.76
X4.89Y-4.76
X4.99Y-4.76
X5.09Y-4.76
X5.19Y-4.76
X5.29Y-4.76
X5.39Y-4.76
X5.49Y-4.76
X5.59Y-4.76
X5.69Y-4.76
X5.79Y-4.76
X5.89Y-4.76
X5.99Y-4.76
X6.09Y-4.76
X6.19Y-4.76
X6.29Y-4.76
X5.88Y-4.11
X5.88Y-4.21
X5.88Y-4.31
X5.88Y-4.41
X5.88Y-4.51
X5.98Y-4.11
X5.98Y-4.21
X5.98Y-4.31
X5.98Y-4.41
X5.98Y-4.51
T3
G00X6.2899Y-4.172
M15
G01X6.3175Y-4.172
M16
G05
G00X6.3175Y-4.4476
M15
G01X6.2899Y-4.4476
M16
G05
T0
M30
