G04 #@! TF.GenerationSoftware,KiCad,Pcbnew,(5.1.0-1387-g9cf427c7d)*
G04 #@! TF.CreationDate,2019-07-29T17:15:50-07:00*
G04 #@! TF.ProjectId,max_breakout,6d61785f-6272-4656-916b-6f75742e6b69,1.0*
G04 #@! TF.SameCoordinates,Original*
G04 #@! TF.FileFunction,Paste,Bot*
G04 #@! TF.FilePolarity,Positive*
%FSLAX46Y46*%
G04 Gerber Fmt 4.6, Leading zero omitted, Abs format (unit mm)*
G04 Created by KiCad (PCBNEW (5.1.0-1387-g9cf427c7d)) date 2019-07-29 17:15:50*
%MOMM*%
%LPD*%
G04 APERTURE LIST*
%ADD10C,0.100000*%
%ADD11C,0.950000*%
%ADD12R,0.800000X0.900000*%
%ADD13R,0.650000X1.560000*%
%ADD14R,0.400000X1.100000*%
G04 APERTURE END LIST*
D10*
G36*
X159953887Y-101397079D02*
G01*
X160030938Y-101448562D01*
X160082421Y-101525613D01*
X160100500Y-101616500D01*
X160100500Y-102091500D01*
X160082421Y-102182387D01*
X160030938Y-102259438D01*
X159953887Y-102310921D01*
X159863000Y-102329000D01*
X159288000Y-102329000D01*
X159197113Y-102310921D01*
X159120062Y-102259438D01*
X159068579Y-102182387D01*
X159050500Y-102091500D01*
X159050500Y-101616500D01*
X159068579Y-101525613D01*
X159120062Y-101448562D01*
X159197113Y-101397079D01*
X159288000Y-101379000D01*
X159863000Y-101379000D01*
X159953887Y-101397079D01*
X159953887Y-101397079D01*
G37*
D11*
X159575500Y-101854000D03*
D10*
G36*
X158203887Y-101397079D02*
G01*
X158280938Y-101448562D01*
X158332421Y-101525613D01*
X158350500Y-101616500D01*
X158350500Y-102091500D01*
X158332421Y-102182387D01*
X158280938Y-102259438D01*
X158203887Y-102310921D01*
X158113000Y-102329000D01*
X157538000Y-102329000D01*
X157447113Y-102310921D01*
X157370062Y-102259438D01*
X157318579Y-102182387D01*
X157300500Y-102091500D01*
X157300500Y-101616500D01*
X157318579Y-101525613D01*
X157370062Y-101448562D01*
X157447113Y-101397079D01*
X157538000Y-101379000D01*
X158113000Y-101379000D01*
X158203887Y-101397079D01*
X158203887Y-101397079D01*
G37*
D11*
X157825500Y-101854000D03*
D10*
G36*
X159939887Y-103429079D02*
G01*
X160016938Y-103480562D01*
X160068421Y-103557613D01*
X160086500Y-103648500D01*
X160086500Y-104123500D01*
X160068421Y-104214387D01*
X160016938Y-104291438D01*
X159939887Y-104342921D01*
X159849000Y-104361000D01*
X159274000Y-104361000D01*
X159183113Y-104342921D01*
X159106062Y-104291438D01*
X159054579Y-104214387D01*
X159036500Y-104123500D01*
X159036500Y-103648500D01*
X159054579Y-103557613D01*
X159106062Y-103480562D01*
X159183113Y-103429079D01*
X159274000Y-103411000D01*
X159849000Y-103411000D01*
X159939887Y-103429079D01*
X159939887Y-103429079D01*
G37*
D11*
X159561500Y-103886000D03*
D10*
G36*
X158189887Y-103429079D02*
G01*
X158266938Y-103480562D01*
X158318421Y-103557613D01*
X158336500Y-103648500D01*
X158336500Y-104123500D01*
X158318421Y-104214387D01*
X158266938Y-104291438D01*
X158189887Y-104342921D01*
X158099000Y-104361000D01*
X157524000Y-104361000D01*
X157433113Y-104342921D01*
X157356062Y-104291438D01*
X157304579Y-104214387D01*
X157286500Y-104123500D01*
X157286500Y-103648500D01*
X157304579Y-103557613D01*
X157356062Y-103480562D01*
X157433113Y-103429079D01*
X157524000Y-103411000D01*
X158099000Y-103411000D01*
X158189887Y-103429079D01*
X158189887Y-103429079D01*
G37*
D11*
X157811500Y-103886000D03*
D12*
X158051500Y-116633500D03*
X159001500Y-114633500D03*
X157101500Y-114633500D03*
X126898400Y-116633500D03*
X127848400Y-114633500D03*
X125948400Y-114633500D03*
D10*
G36*
X121067787Y-103987879D02*
G01*
X121144838Y-104039362D01*
X121196321Y-104116413D01*
X121214400Y-104207300D01*
X121214400Y-104682300D01*
X121196321Y-104773187D01*
X121144838Y-104850238D01*
X121067787Y-104901721D01*
X120976900Y-104919800D01*
X120401900Y-104919800D01*
X120311013Y-104901721D01*
X120233962Y-104850238D01*
X120182479Y-104773187D01*
X120164400Y-104682300D01*
X120164400Y-104207300D01*
X120182479Y-104116413D01*
X120233962Y-104039362D01*
X120311013Y-103987879D01*
X120401900Y-103969800D01*
X120976900Y-103969800D01*
X121067787Y-103987879D01*
X121067787Y-103987879D01*
G37*
D11*
X120689400Y-104444800D03*
D10*
G36*
X122817787Y-103987879D02*
G01*
X122894838Y-104039362D01*
X122946321Y-104116413D01*
X122964400Y-104207300D01*
X122964400Y-104682300D01*
X122946321Y-104773187D01*
X122894838Y-104850238D01*
X122817787Y-104901721D01*
X122726900Y-104919800D01*
X122151900Y-104919800D01*
X122061013Y-104901721D01*
X121983962Y-104850238D01*
X121932479Y-104773187D01*
X121914400Y-104682300D01*
X121914400Y-104207300D01*
X121932479Y-104116413D01*
X121983962Y-104039362D01*
X122061013Y-103987879D01*
X122151900Y-103969800D01*
X122726900Y-103969800D01*
X122817787Y-103987879D01*
X122817787Y-103987879D01*
G37*
D11*
X122439400Y-104444800D03*
D10*
G36*
X126348387Y-110033079D02*
G01*
X126425438Y-110084562D01*
X126476921Y-110161613D01*
X126495000Y-110252500D01*
X126495000Y-110727500D01*
X126476921Y-110818387D01*
X126425438Y-110895438D01*
X126348387Y-110946921D01*
X126257500Y-110965000D01*
X125682500Y-110965000D01*
X125591613Y-110946921D01*
X125514562Y-110895438D01*
X125463079Y-110818387D01*
X125445000Y-110727500D01*
X125445000Y-110252500D01*
X125463079Y-110161613D01*
X125514562Y-110084562D01*
X125591613Y-110033079D01*
X125682500Y-110015000D01*
X126257500Y-110015000D01*
X126348387Y-110033079D01*
X126348387Y-110033079D01*
G37*
D11*
X125970000Y-110490000D03*
D10*
G36*
X124598387Y-110033079D02*
G01*
X124675438Y-110084562D01*
X124726921Y-110161613D01*
X124745000Y-110252500D01*
X124745000Y-110727500D01*
X124726921Y-110818387D01*
X124675438Y-110895438D01*
X124598387Y-110946921D01*
X124507500Y-110965000D01*
X123932500Y-110965000D01*
X123841613Y-110946921D01*
X123764562Y-110895438D01*
X123713079Y-110818387D01*
X123695000Y-110727500D01*
X123695000Y-110252500D01*
X123713079Y-110161613D01*
X123764562Y-110084562D01*
X123841613Y-110033079D01*
X123932500Y-110015000D01*
X124507500Y-110015000D01*
X124598387Y-110033079D01*
X124598387Y-110033079D01*
G37*
D11*
X124220000Y-110490000D03*
D10*
G36*
X150938187Y-101397079D02*
G01*
X151015238Y-101448562D01*
X151066721Y-101525613D01*
X151084800Y-101616500D01*
X151084800Y-102091500D01*
X151066721Y-102182387D01*
X151015238Y-102259438D01*
X150938187Y-102310921D01*
X150847300Y-102329000D01*
X150272300Y-102329000D01*
X150181413Y-102310921D01*
X150104362Y-102259438D01*
X150052879Y-102182387D01*
X150034800Y-102091500D01*
X150034800Y-101616500D01*
X150052879Y-101525613D01*
X150104362Y-101448562D01*
X150181413Y-101397079D01*
X150272300Y-101379000D01*
X150847300Y-101379000D01*
X150938187Y-101397079D01*
X150938187Y-101397079D01*
G37*
D11*
X150559800Y-101854000D03*
D10*
G36*
X152688187Y-101397079D02*
G01*
X152765238Y-101448562D01*
X152816721Y-101525613D01*
X152834800Y-101616500D01*
X152834800Y-102091500D01*
X152816721Y-102182387D01*
X152765238Y-102259438D01*
X152688187Y-102310921D01*
X152597300Y-102329000D01*
X152022300Y-102329000D01*
X151931413Y-102310921D01*
X151854362Y-102259438D01*
X151802879Y-102182387D01*
X151784800Y-102091500D01*
X151784800Y-101616500D01*
X151802879Y-101525613D01*
X151854362Y-101448562D01*
X151931413Y-101397079D01*
X152022300Y-101379000D01*
X152597300Y-101379000D01*
X152688187Y-101397079D01*
X152688187Y-101397079D01*
G37*
D11*
X152309800Y-101854000D03*
D13*
X117109200Y-106810800D03*
X119009200Y-106810800D03*
X119009200Y-104110800D03*
X118059200Y-104110800D03*
X117109200Y-104110800D03*
X154040800Y-104880400D03*
X155940800Y-104880400D03*
X155940800Y-102180400D03*
X154990800Y-102180400D03*
X154040800Y-102180400D03*
D10*
G36*
X114006587Y-106985079D02*
G01*
X114083638Y-107036562D01*
X114135121Y-107113613D01*
X114153200Y-107204500D01*
X114153200Y-107679500D01*
X114135121Y-107770387D01*
X114083638Y-107847438D01*
X114006587Y-107898921D01*
X113915700Y-107917000D01*
X113340700Y-107917000D01*
X113249813Y-107898921D01*
X113172762Y-107847438D01*
X113121279Y-107770387D01*
X113103200Y-107679500D01*
X113103200Y-107204500D01*
X113121279Y-107113613D01*
X113172762Y-107036562D01*
X113249813Y-106985079D01*
X113340700Y-106967000D01*
X113915700Y-106967000D01*
X114006587Y-106985079D01*
X114006587Y-106985079D01*
G37*
D11*
X113628200Y-107442000D03*
D10*
G36*
X115756587Y-106985079D02*
G01*
X115833638Y-107036562D01*
X115885121Y-107113613D01*
X115903200Y-107204500D01*
X115903200Y-107679500D01*
X115885121Y-107770387D01*
X115833638Y-107847438D01*
X115756587Y-107898921D01*
X115665700Y-107917000D01*
X115090700Y-107917000D01*
X114999813Y-107898921D01*
X114922762Y-107847438D01*
X114871279Y-107770387D01*
X114853200Y-107679500D01*
X114853200Y-107204500D01*
X114871279Y-107113613D01*
X114922762Y-107036562D01*
X114999813Y-106985079D01*
X115090700Y-106967000D01*
X115665700Y-106967000D01*
X115756587Y-106985079D01*
X115756587Y-106985079D01*
G37*
D11*
X115378200Y-107442000D03*
D10*
G36*
X154544987Y-109829879D02*
G01*
X154622038Y-109881362D01*
X154673521Y-109958413D01*
X154691600Y-110049300D01*
X154691600Y-110524300D01*
X154673521Y-110615187D01*
X154622038Y-110692238D01*
X154544987Y-110743721D01*
X154454100Y-110761800D01*
X153879100Y-110761800D01*
X153788213Y-110743721D01*
X153711162Y-110692238D01*
X153659679Y-110615187D01*
X153641600Y-110524300D01*
X153641600Y-110049300D01*
X153659679Y-109958413D01*
X153711162Y-109881362D01*
X153788213Y-109829879D01*
X153879100Y-109811800D01*
X154454100Y-109811800D01*
X154544987Y-109829879D01*
X154544987Y-109829879D01*
G37*
D11*
X154166600Y-110286800D03*
D10*
G36*
X156294987Y-109829879D02*
G01*
X156372038Y-109881362D01*
X156423521Y-109958413D01*
X156441600Y-110049300D01*
X156441600Y-110524300D01*
X156423521Y-110615187D01*
X156372038Y-110692238D01*
X156294987Y-110743721D01*
X156204100Y-110761800D01*
X155629100Y-110761800D01*
X155538213Y-110743721D01*
X155461162Y-110692238D01*
X155409679Y-110615187D01*
X155391600Y-110524300D01*
X155391600Y-110049300D01*
X155409679Y-109958413D01*
X155461162Y-109881362D01*
X155538213Y-109829879D01*
X155629100Y-109811800D01*
X156204100Y-109811800D01*
X156294987Y-109829879D01*
X156294987Y-109829879D01*
G37*
D11*
X155916600Y-110286800D03*
D10*
G36*
X122538387Y-114137079D02*
G01*
X122615438Y-114188562D01*
X122666921Y-114265613D01*
X122685000Y-114356500D01*
X122685000Y-114831500D01*
X122666921Y-114922387D01*
X122615438Y-114999438D01*
X122538387Y-115050921D01*
X122447500Y-115069000D01*
X121872500Y-115069000D01*
X121781613Y-115050921D01*
X121704562Y-114999438D01*
X121653079Y-114922387D01*
X121635000Y-114831500D01*
X121635000Y-114356500D01*
X121653079Y-114265613D01*
X121704562Y-114188562D01*
X121781613Y-114137079D01*
X121872500Y-114119000D01*
X122447500Y-114119000D01*
X122538387Y-114137079D01*
X122538387Y-114137079D01*
G37*
D11*
X122160000Y-114594000D03*
D10*
G36*
X120788387Y-114137079D02*
G01*
X120865438Y-114188562D01*
X120916921Y-114265613D01*
X120935000Y-114356500D01*
X120935000Y-114831500D01*
X120916921Y-114922387D01*
X120865438Y-114999438D01*
X120788387Y-115050921D01*
X120697500Y-115069000D01*
X120122500Y-115069000D01*
X120031613Y-115050921D01*
X119954562Y-114999438D01*
X119903079Y-114922387D01*
X119885000Y-114831500D01*
X119885000Y-114356500D01*
X119903079Y-114265613D01*
X119954562Y-114188562D01*
X120031613Y-114137079D01*
X120122500Y-114119000D01*
X120697500Y-114119000D01*
X120788387Y-114137079D01*
X120788387Y-114137079D01*
G37*
D11*
X120410000Y-114594000D03*
D10*
G36*
X113955787Y-101397079D02*
G01*
X114032838Y-101448562D01*
X114084321Y-101525613D01*
X114102400Y-101616500D01*
X114102400Y-102091500D01*
X114084321Y-102182387D01*
X114032838Y-102259438D01*
X113955787Y-102310921D01*
X113864900Y-102329000D01*
X113289900Y-102329000D01*
X113199013Y-102310921D01*
X113121962Y-102259438D01*
X113070479Y-102182387D01*
X113052400Y-102091500D01*
X113052400Y-101616500D01*
X113070479Y-101525613D01*
X113121962Y-101448562D01*
X113199013Y-101397079D01*
X113289900Y-101379000D01*
X113864900Y-101379000D01*
X113955787Y-101397079D01*
X113955787Y-101397079D01*
G37*
D11*
X113577400Y-101854000D03*
D10*
G36*
X115705787Y-101397079D02*
G01*
X115782838Y-101448562D01*
X115834321Y-101525613D01*
X115852400Y-101616500D01*
X115852400Y-102091500D01*
X115834321Y-102182387D01*
X115782838Y-102259438D01*
X115705787Y-102310921D01*
X115614900Y-102329000D01*
X115039900Y-102329000D01*
X114949013Y-102310921D01*
X114871962Y-102259438D01*
X114820479Y-102182387D01*
X114802400Y-102091500D01*
X114802400Y-101616500D01*
X114820479Y-101525613D01*
X114871962Y-101448562D01*
X114949013Y-101397079D01*
X115039900Y-101379000D01*
X115614900Y-101379000D01*
X115705787Y-101397079D01*
X115705787Y-101397079D01*
G37*
D11*
X115327400Y-101854000D03*
D10*
G36*
X116950387Y-114137079D02*
G01*
X117027438Y-114188562D01*
X117078921Y-114265613D01*
X117097000Y-114356500D01*
X117097000Y-114831500D01*
X117078921Y-114922387D01*
X117027438Y-114999438D01*
X116950387Y-115050921D01*
X116859500Y-115069000D01*
X116284500Y-115069000D01*
X116193613Y-115050921D01*
X116116562Y-114999438D01*
X116065079Y-114922387D01*
X116047000Y-114831500D01*
X116047000Y-114356500D01*
X116065079Y-114265613D01*
X116116562Y-114188562D01*
X116193613Y-114137079D01*
X116284500Y-114119000D01*
X116859500Y-114119000D01*
X116950387Y-114137079D01*
X116950387Y-114137079D01*
G37*
D11*
X116572000Y-114594000D03*
D10*
G36*
X115200387Y-114137079D02*
G01*
X115277438Y-114188562D01*
X115328921Y-114265613D01*
X115347000Y-114356500D01*
X115347000Y-114831500D01*
X115328921Y-114922387D01*
X115277438Y-114999438D01*
X115200387Y-115050921D01*
X115109500Y-115069000D01*
X114534500Y-115069000D01*
X114443613Y-115050921D01*
X114366562Y-114999438D01*
X114315079Y-114922387D01*
X114297000Y-114831500D01*
X114297000Y-114356500D01*
X114315079Y-114265613D01*
X114366562Y-114188562D01*
X114443613Y-114137079D01*
X114534500Y-114119000D01*
X115109500Y-114119000D01*
X115200387Y-114137079D01*
X115200387Y-114137079D01*
G37*
D11*
X114822000Y-114594000D03*
D10*
G36*
X147049387Y-116637079D02*
G01*
X147126438Y-116688562D01*
X147177921Y-116765613D01*
X147196000Y-116856500D01*
X147196000Y-117331500D01*
X147177921Y-117422387D01*
X147126438Y-117499438D01*
X147049387Y-117550921D01*
X146958500Y-117569000D01*
X146383500Y-117569000D01*
X146292613Y-117550921D01*
X146215562Y-117499438D01*
X146164079Y-117422387D01*
X146146000Y-117331500D01*
X146146000Y-116856500D01*
X146164079Y-116765613D01*
X146215562Y-116688562D01*
X146292613Y-116637079D01*
X146383500Y-116619000D01*
X146958500Y-116619000D01*
X147049387Y-116637079D01*
X147049387Y-116637079D01*
G37*
D11*
X146671000Y-117094000D03*
D10*
G36*
X145299387Y-116637079D02*
G01*
X145376438Y-116688562D01*
X145427921Y-116765613D01*
X145446000Y-116856500D01*
X145446000Y-117331500D01*
X145427921Y-117422387D01*
X145376438Y-117499438D01*
X145299387Y-117550921D01*
X145208500Y-117569000D01*
X144633500Y-117569000D01*
X144542613Y-117550921D01*
X144465562Y-117499438D01*
X144414079Y-117422387D01*
X144396000Y-117331500D01*
X144396000Y-116856500D01*
X144414079Y-116765613D01*
X144465562Y-116688562D01*
X144542613Y-116637079D01*
X144633500Y-116619000D01*
X145208500Y-116619000D01*
X145299387Y-116637079D01*
X145299387Y-116637079D01*
G37*
D11*
X144921000Y-117094000D03*
D10*
G36*
X133615387Y-116637079D02*
G01*
X133692438Y-116688562D01*
X133743921Y-116765613D01*
X133762000Y-116856500D01*
X133762000Y-117331500D01*
X133743921Y-117422387D01*
X133692438Y-117499438D01*
X133615387Y-117550921D01*
X133524500Y-117569000D01*
X132949500Y-117569000D01*
X132858613Y-117550921D01*
X132781562Y-117499438D01*
X132730079Y-117422387D01*
X132712000Y-117331500D01*
X132712000Y-116856500D01*
X132730079Y-116765613D01*
X132781562Y-116688562D01*
X132858613Y-116637079D01*
X132949500Y-116619000D01*
X133524500Y-116619000D01*
X133615387Y-116637079D01*
X133615387Y-116637079D01*
G37*
D11*
X133237000Y-117094000D03*
D10*
G36*
X135365387Y-116637079D02*
G01*
X135442438Y-116688562D01*
X135493921Y-116765613D01*
X135512000Y-116856500D01*
X135512000Y-117331500D01*
X135493921Y-117422387D01*
X135442438Y-117499438D01*
X135365387Y-117550921D01*
X135274500Y-117569000D01*
X134699500Y-117569000D01*
X134608613Y-117550921D01*
X134531562Y-117499438D01*
X134480079Y-117422387D01*
X134462000Y-117331500D01*
X134462000Y-116856500D01*
X134480079Y-116765613D01*
X134531562Y-116688562D01*
X134608613Y-116637079D01*
X134699500Y-116619000D01*
X135274500Y-116619000D01*
X135365387Y-116637079D01*
X135365387Y-116637079D01*
G37*
D11*
X134987000Y-117094000D03*
D10*
G36*
X129777387Y-106985079D02*
G01*
X129854438Y-107036562D01*
X129905921Y-107113613D01*
X129924000Y-107204500D01*
X129924000Y-107679500D01*
X129905921Y-107770387D01*
X129854438Y-107847438D01*
X129777387Y-107898921D01*
X129686500Y-107917000D01*
X129111500Y-107917000D01*
X129020613Y-107898921D01*
X128943562Y-107847438D01*
X128892079Y-107770387D01*
X128874000Y-107679500D01*
X128874000Y-107204500D01*
X128892079Y-107113613D01*
X128943562Y-107036562D01*
X129020613Y-106985079D01*
X129111500Y-106967000D01*
X129686500Y-106967000D01*
X129777387Y-106985079D01*
X129777387Y-106985079D01*
G37*
D11*
X129399000Y-107442000D03*
D10*
G36*
X128027387Y-106985079D02*
G01*
X128104438Y-107036562D01*
X128155921Y-107113613D01*
X128174000Y-107204500D01*
X128174000Y-107679500D01*
X128155921Y-107770387D01*
X128104438Y-107847438D01*
X128027387Y-107898921D01*
X127936500Y-107917000D01*
X127361500Y-107917000D01*
X127270613Y-107898921D01*
X127193562Y-107847438D01*
X127142079Y-107770387D01*
X127124000Y-107679500D01*
X127124000Y-107204500D01*
X127142079Y-107113613D01*
X127193562Y-107036562D01*
X127270613Y-106985079D01*
X127361500Y-106967000D01*
X127936500Y-106967000D01*
X128027387Y-106985079D01*
X128027387Y-106985079D01*
G37*
D11*
X127649000Y-107442000D03*
D12*
X142240000Y-116633500D03*
X143190000Y-114633500D03*
X141290000Y-114633500D03*
D14*
X124043800Y-108880800D03*
X124693800Y-108880800D03*
X125343800Y-108880800D03*
X125993800Y-108880800D03*
X125993800Y-104580800D03*
X125343800Y-104580800D03*
X124693800Y-104580800D03*
X124043800Y-104580800D03*
D10*
G36*
X121169387Y-101397079D02*
G01*
X121246438Y-101448562D01*
X121297921Y-101525613D01*
X121316000Y-101616500D01*
X121316000Y-102091500D01*
X121297921Y-102182387D01*
X121246438Y-102259438D01*
X121169387Y-102310921D01*
X121078500Y-102329000D01*
X120503500Y-102329000D01*
X120412613Y-102310921D01*
X120335562Y-102259438D01*
X120284079Y-102182387D01*
X120266000Y-102091500D01*
X120266000Y-101616500D01*
X120284079Y-101525613D01*
X120335562Y-101448562D01*
X120412613Y-101397079D01*
X120503500Y-101379000D01*
X121078500Y-101379000D01*
X121169387Y-101397079D01*
X121169387Y-101397079D01*
G37*
D11*
X120791000Y-101854000D03*
D10*
G36*
X122919387Y-101397079D02*
G01*
X122996438Y-101448562D01*
X123047921Y-101525613D01*
X123066000Y-101616500D01*
X123066000Y-102091500D01*
X123047921Y-102182387D01*
X122996438Y-102259438D01*
X122919387Y-102310921D01*
X122828500Y-102329000D01*
X122253500Y-102329000D01*
X122162613Y-102310921D01*
X122085562Y-102259438D01*
X122034079Y-102182387D01*
X122016000Y-102091500D01*
X122016000Y-101616500D01*
X122034079Y-101525613D01*
X122085562Y-101448562D01*
X122162613Y-101397079D01*
X122253500Y-101379000D01*
X122828500Y-101379000D01*
X122919387Y-101397079D01*
X122919387Y-101397079D01*
G37*
D11*
X122541000Y-101854000D03*
D10*
G36*
X129777387Y-101397079D02*
G01*
X129854438Y-101448562D01*
X129905921Y-101525613D01*
X129924000Y-101616500D01*
X129924000Y-102091500D01*
X129905921Y-102182387D01*
X129854438Y-102259438D01*
X129777387Y-102310921D01*
X129686500Y-102329000D01*
X129111500Y-102329000D01*
X129020613Y-102310921D01*
X128943562Y-102259438D01*
X128892079Y-102182387D01*
X128874000Y-102091500D01*
X128874000Y-101616500D01*
X128892079Y-101525613D01*
X128943562Y-101448562D01*
X129020613Y-101397079D01*
X129111500Y-101379000D01*
X129686500Y-101379000D01*
X129777387Y-101397079D01*
X129777387Y-101397079D01*
G37*
D11*
X129399000Y-101854000D03*
D10*
G36*
X128027387Y-101397079D02*
G01*
X128104438Y-101448562D01*
X128155921Y-101525613D01*
X128174000Y-101616500D01*
X128174000Y-102091500D01*
X128155921Y-102182387D01*
X128104438Y-102259438D01*
X128027387Y-102310921D01*
X127936500Y-102329000D01*
X127361500Y-102329000D01*
X127270613Y-102310921D01*
X127193562Y-102259438D01*
X127142079Y-102182387D01*
X127124000Y-102091500D01*
X127124000Y-101616500D01*
X127142079Y-101525613D01*
X127193562Y-101448562D01*
X127270613Y-101397079D01*
X127361500Y-101379000D01*
X127936500Y-101379000D01*
X128027387Y-101397079D01*
X128027387Y-101397079D01*
G37*
D11*
X127649000Y-101854000D03*
D10*
G36*
X140536387Y-110477079D02*
G01*
X140613438Y-110528562D01*
X140664921Y-110605613D01*
X140683000Y-110696500D01*
X140683000Y-111271500D01*
X140664921Y-111362387D01*
X140613438Y-111439438D01*
X140536387Y-111490921D01*
X140445500Y-111509000D01*
X139970500Y-111509000D01*
X139879613Y-111490921D01*
X139802562Y-111439438D01*
X139751079Y-111362387D01*
X139733000Y-111271500D01*
X139733000Y-110696500D01*
X139751079Y-110605613D01*
X139802562Y-110528562D01*
X139879613Y-110477079D01*
X139970500Y-110459000D01*
X140445500Y-110459000D01*
X140536387Y-110477079D01*
X140536387Y-110477079D01*
G37*
D11*
X140208000Y-110984000D03*
D10*
G36*
X140536387Y-108727079D02*
G01*
X140613438Y-108778562D01*
X140664921Y-108855613D01*
X140683000Y-108946500D01*
X140683000Y-109521500D01*
X140664921Y-109612387D01*
X140613438Y-109689438D01*
X140536387Y-109740921D01*
X140445500Y-109759000D01*
X139970500Y-109759000D01*
X139879613Y-109740921D01*
X139802562Y-109689438D01*
X139751079Y-109612387D01*
X139733000Y-109521500D01*
X139733000Y-108946500D01*
X139751079Y-108855613D01*
X139802562Y-108778562D01*
X139879613Y-108727079D01*
X139970500Y-108709000D01*
X140445500Y-108709000D01*
X140536387Y-108727079D01*
X140536387Y-108727079D01*
G37*
D11*
X140208000Y-109234000D03*
D10*
G36*
X131809387Y-116637079D02*
G01*
X131886438Y-116688562D01*
X131937921Y-116765613D01*
X131956000Y-116856500D01*
X131956000Y-117331500D01*
X131937921Y-117422387D01*
X131886438Y-117499438D01*
X131809387Y-117550921D01*
X131718500Y-117569000D01*
X131143500Y-117569000D01*
X131052613Y-117550921D01*
X130975562Y-117499438D01*
X130924079Y-117422387D01*
X130906000Y-117331500D01*
X130906000Y-116856500D01*
X130924079Y-116765613D01*
X130975562Y-116688562D01*
X131052613Y-116637079D01*
X131143500Y-116619000D01*
X131718500Y-116619000D01*
X131809387Y-116637079D01*
X131809387Y-116637079D01*
G37*
D11*
X131431000Y-117094000D03*
D10*
G36*
X130059387Y-116637079D02*
G01*
X130136438Y-116688562D01*
X130187921Y-116765613D01*
X130206000Y-116856500D01*
X130206000Y-117331500D01*
X130187921Y-117422387D01*
X130136438Y-117499438D01*
X130059387Y-117550921D01*
X129968500Y-117569000D01*
X129393500Y-117569000D01*
X129302613Y-117550921D01*
X129225562Y-117499438D01*
X129174079Y-117422387D01*
X129156000Y-117331500D01*
X129156000Y-116856500D01*
X129174079Y-116765613D01*
X129225562Y-116688562D01*
X129302613Y-116637079D01*
X129393500Y-116619000D01*
X129968500Y-116619000D01*
X130059387Y-116637079D01*
X130059387Y-116637079D01*
G37*
D11*
X129681000Y-117094000D03*
D10*
G36*
X138159387Y-105715079D02*
G01*
X138236438Y-105766562D01*
X138287921Y-105843613D01*
X138306000Y-105934500D01*
X138306000Y-106409500D01*
X138287921Y-106500387D01*
X138236438Y-106577438D01*
X138159387Y-106628921D01*
X138068500Y-106647000D01*
X137493500Y-106647000D01*
X137402613Y-106628921D01*
X137325562Y-106577438D01*
X137274079Y-106500387D01*
X137256000Y-106409500D01*
X137256000Y-105934500D01*
X137274079Y-105843613D01*
X137325562Y-105766562D01*
X137402613Y-105715079D01*
X137493500Y-105697000D01*
X138068500Y-105697000D01*
X138159387Y-105715079D01*
X138159387Y-105715079D01*
G37*
D11*
X137781000Y-106172000D03*
D10*
G36*
X136409387Y-105715079D02*
G01*
X136486438Y-105766562D01*
X136537921Y-105843613D01*
X136556000Y-105934500D01*
X136556000Y-106409500D01*
X136537921Y-106500387D01*
X136486438Y-106577438D01*
X136409387Y-106628921D01*
X136318500Y-106647000D01*
X135743500Y-106647000D01*
X135652613Y-106628921D01*
X135575562Y-106577438D01*
X135524079Y-106500387D01*
X135506000Y-106409500D01*
X135506000Y-105934500D01*
X135524079Y-105843613D01*
X135575562Y-105766562D01*
X135652613Y-105715079D01*
X135743500Y-105697000D01*
X136318500Y-105697000D01*
X136409387Y-105715079D01*
X136409387Y-105715079D01*
G37*
D11*
X136031000Y-106172000D03*
D10*
G36*
X117740387Y-101397079D02*
G01*
X117817438Y-101448562D01*
X117868921Y-101525613D01*
X117887000Y-101616500D01*
X117887000Y-102091500D01*
X117868921Y-102182387D01*
X117817438Y-102259438D01*
X117740387Y-102310921D01*
X117649500Y-102329000D01*
X117074500Y-102329000D01*
X116983613Y-102310921D01*
X116906562Y-102259438D01*
X116855079Y-102182387D01*
X116837000Y-102091500D01*
X116837000Y-101616500D01*
X116855079Y-101525613D01*
X116906562Y-101448562D01*
X116983613Y-101397079D01*
X117074500Y-101379000D01*
X117649500Y-101379000D01*
X117740387Y-101397079D01*
X117740387Y-101397079D01*
G37*
D11*
X117362000Y-101854000D03*
D10*
G36*
X119490387Y-101397079D02*
G01*
X119567438Y-101448562D01*
X119618921Y-101525613D01*
X119637000Y-101616500D01*
X119637000Y-102091500D01*
X119618921Y-102182387D01*
X119567438Y-102259438D01*
X119490387Y-102310921D01*
X119399500Y-102329000D01*
X118824500Y-102329000D01*
X118733613Y-102310921D01*
X118656562Y-102259438D01*
X118605079Y-102182387D01*
X118587000Y-102091500D01*
X118587000Y-101616500D01*
X118605079Y-101525613D01*
X118656562Y-101448562D01*
X118733613Y-101397079D01*
X118824500Y-101379000D01*
X119399500Y-101379000D01*
X119490387Y-101397079D01*
X119490387Y-101397079D01*
G37*
D11*
X119112000Y-101854000D03*
D10*
G36*
X114882387Y-111772479D02*
G01*
X114959438Y-111823962D01*
X115010921Y-111901013D01*
X115029000Y-111991900D01*
X115029000Y-112566900D01*
X115010921Y-112657787D01*
X114959438Y-112734838D01*
X114882387Y-112786321D01*
X114791500Y-112804400D01*
X114316500Y-112804400D01*
X114225613Y-112786321D01*
X114148562Y-112734838D01*
X114097079Y-112657787D01*
X114079000Y-112566900D01*
X114079000Y-111991900D01*
X114097079Y-111901013D01*
X114148562Y-111823962D01*
X114225613Y-111772479D01*
X114316500Y-111754400D01*
X114791500Y-111754400D01*
X114882387Y-111772479D01*
X114882387Y-111772479D01*
G37*
D11*
X114554000Y-112279400D03*
D10*
G36*
X114882387Y-110022479D02*
G01*
X114959438Y-110073962D01*
X115010921Y-110151013D01*
X115029000Y-110241900D01*
X115029000Y-110816900D01*
X115010921Y-110907787D01*
X114959438Y-110984838D01*
X114882387Y-111036321D01*
X114791500Y-111054400D01*
X114316500Y-111054400D01*
X114225613Y-111036321D01*
X114148562Y-110984838D01*
X114097079Y-110907787D01*
X114079000Y-110816900D01*
X114079000Y-110241900D01*
X114097079Y-110151013D01*
X114148562Y-110073962D01*
X114225613Y-110022479D01*
X114316500Y-110004400D01*
X114791500Y-110004400D01*
X114882387Y-110022479D01*
X114882387Y-110022479D01*
G37*
D11*
X114554000Y-110529400D03*
D10*
G36*
X116406387Y-111772479D02*
G01*
X116483438Y-111823962D01*
X116534921Y-111901013D01*
X116553000Y-111991900D01*
X116553000Y-112566900D01*
X116534921Y-112657787D01*
X116483438Y-112734838D01*
X116406387Y-112786321D01*
X116315500Y-112804400D01*
X115840500Y-112804400D01*
X115749613Y-112786321D01*
X115672562Y-112734838D01*
X115621079Y-112657787D01*
X115603000Y-112566900D01*
X115603000Y-111991900D01*
X115621079Y-111901013D01*
X115672562Y-111823962D01*
X115749613Y-111772479D01*
X115840500Y-111754400D01*
X116315500Y-111754400D01*
X116406387Y-111772479D01*
X116406387Y-111772479D01*
G37*
D11*
X116078000Y-112279400D03*
D10*
G36*
X116406387Y-110022479D02*
G01*
X116483438Y-110073962D01*
X116534921Y-110151013D01*
X116553000Y-110241900D01*
X116553000Y-110816900D01*
X116534921Y-110907787D01*
X116483438Y-110984838D01*
X116406387Y-111036321D01*
X116315500Y-111054400D01*
X115840500Y-111054400D01*
X115749613Y-111036321D01*
X115672562Y-110984838D01*
X115621079Y-110907787D01*
X115603000Y-110816900D01*
X115603000Y-110241900D01*
X115621079Y-110151013D01*
X115672562Y-110073962D01*
X115749613Y-110022479D01*
X115840500Y-110004400D01*
X116315500Y-110004400D01*
X116406387Y-110022479D01*
X116406387Y-110022479D01*
G37*
D11*
X116078000Y-110529400D03*
D10*
G36*
X117930387Y-111772479D02*
G01*
X118007438Y-111823962D01*
X118058921Y-111901013D01*
X118077000Y-111991900D01*
X118077000Y-112566900D01*
X118058921Y-112657787D01*
X118007438Y-112734838D01*
X117930387Y-112786321D01*
X117839500Y-112804400D01*
X117364500Y-112804400D01*
X117273613Y-112786321D01*
X117196562Y-112734838D01*
X117145079Y-112657787D01*
X117127000Y-112566900D01*
X117127000Y-111991900D01*
X117145079Y-111901013D01*
X117196562Y-111823962D01*
X117273613Y-111772479D01*
X117364500Y-111754400D01*
X117839500Y-111754400D01*
X117930387Y-111772479D01*
X117930387Y-111772479D01*
G37*
D11*
X117602000Y-112279400D03*
D10*
G36*
X117930387Y-110022479D02*
G01*
X118007438Y-110073962D01*
X118058921Y-110151013D01*
X118077000Y-110241900D01*
X118077000Y-110816900D01*
X118058921Y-110907787D01*
X118007438Y-110984838D01*
X117930387Y-111036321D01*
X117839500Y-111054400D01*
X117364500Y-111054400D01*
X117273613Y-111036321D01*
X117196562Y-110984838D01*
X117145079Y-110907787D01*
X117127000Y-110816900D01*
X117127000Y-110241900D01*
X117145079Y-110151013D01*
X117196562Y-110073962D01*
X117273613Y-110022479D01*
X117364500Y-110004400D01*
X117839500Y-110004400D01*
X117930387Y-110022479D01*
X117930387Y-110022479D01*
G37*
D11*
X117602000Y-110529400D03*
D10*
G36*
X119454387Y-111772479D02*
G01*
X119531438Y-111823962D01*
X119582921Y-111901013D01*
X119601000Y-111991900D01*
X119601000Y-112566900D01*
X119582921Y-112657787D01*
X119531438Y-112734838D01*
X119454387Y-112786321D01*
X119363500Y-112804400D01*
X118888500Y-112804400D01*
X118797613Y-112786321D01*
X118720562Y-112734838D01*
X118669079Y-112657787D01*
X118651000Y-112566900D01*
X118651000Y-111991900D01*
X118669079Y-111901013D01*
X118720562Y-111823962D01*
X118797613Y-111772479D01*
X118888500Y-111754400D01*
X119363500Y-111754400D01*
X119454387Y-111772479D01*
X119454387Y-111772479D01*
G37*
D11*
X119126000Y-112279400D03*
D10*
G36*
X119454387Y-110022479D02*
G01*
X119531438Y-110073962D01*
X119582921Y-110151013D01*
X119601000Y-110241900D01*
X119601000Y-110816900D01*
X119582921Y-110907787D01*
X119531438Y-110984838D01*
X119454387Y-111036321D01*
X119363500Y-111054400D01*
X118888500Y-111054400D01*
X118797613Y-111036321D01*
X118720562Y-110984838D01*
X118669079Y-110907787D01*
X118651000Y-110816900D01*
X118651000Y-110241900D01*
X118669079Y-110151013D01*
X118720562Y-110073962D01*
X118797613Y-110022479D01*
X118888500Y-110004400D01*
X119363500Y-110004400D01*
X119454387Y-110022479D01*
X119454387Y-110022479D01*
G37*
D11*
X119126000Y-110529400D03*
D10*
G36*
X120978387Y-111772479D02*
G01*
X121055438Y-111823962D01*
X121106921Y-111901013D01*
X121125000Y-111991900D01*
X121125000Y-112566900D01*
X121106921Y-112657787D01*
X121055438Y-112734838D01*
X120978387Y-112786321D01*
X120887500Y-112804400D01*
X120412500Y-112804400D01*
X120321613Y-112786321D01*
X120244562Y-112734838D01*
X120193079Y-112657787D01*
X120175000Y-112566900D01*
X120175000Y-111991900D01*
X120193079Y-111901013D01*
X120244562Y-111823962D01*
X120321613Y-111772479D01*
X120412500Y-111754400D01*
X120887500Y-111754400D01*
X120978387Y-111772479D01*
X120978387Y-111772479D01*
G37*
D11*
X120650000Y-112279400D03*
D10*
G36*
X120978387Y-110022479D02*
G01*
X121055438Y-110073962D01*
X121106921Y-110151013D01*
X121125000Y-110241900D01*
X121125000Y-110816900D01*
X121106921Y-110907787D01*
X121055438Y-110984838D01*
X120978387Y-111036321D01*
X120887500Y-111054400D01*
X120412500Y-111054400D01*
X120321613Y-111036321D01*
X120244562Y-110984838D01*
X120193079Y-110907787D01*
X120175000Y-110816900D01*
X120175000Y-110241900D01*
X120193079Y-110151013D01*
X120244562Y-110073962D01*
X120321613Y-110022479D01*
X120412500Y-110004400D01*
X120887500Y-110004400D01*
X120978387Y-110022479D01*
X120978387Y-110022479D01*
G37*
D11*
X120650000Y-110529400D03*
D10*
G36*
X122502387Y-111772479D02*
G01*
X122579438Y-111823962D01*
X122630921Y-111901013D01*
X122649000Y-111991900D01*
X122649000Y-112566900D01*
X122630921Y-112657787D01*
X122579438Y-112734838D01*
X122502387Y-112786321D01*
X122411500Y-112804400D01*
X121936500Y-112804400D01*
X121845613Y-112786321D01*
X121768562Y-112734838D01*
X121717079Y-112657787D01*
X121699000Y-112566900D01*
X121699000Y-111991900D01*
X121717079Y-111901013D01*
X121768562Y-111823962D01*
X121845613Y-111772479D01*
X121936500Y-111754400D01*
X122411500Y-111754400D01*
X122502387Y-111772479D01*
X122502387Y-111772479D01*
G37*
D11*
X122174000Y-112279400D03*
D10*
G36*
X122502387Y-110022479D02*
G01*
X122579438Y-110073962D01*
X122630921Y-110151013D01*
X122649000Y-110241900D01*
X122649000Y-110816900D01*
X122630921Y-110907787D01*
X122579438Y-110984838D01*
X122502387Y-111036321D01*
X122411500Y-111054400D01*
X121936500Y-111054400D01*
X121845613Y-111036321D01*
X121768562Y-110984838D01*
X121717079Y-110907787D01*
X121699000Y-110816900D01*
X121699000Y-110241900D01*
X121717079Y-110151013D01*
X121768562Y-110073962D01*
X121845613Y-110022479D01*
X121936500Y-110004400D01*
X122411500Y-110004400D01*
X122502387Y-110022479D01*
X122502387Y-110022479D01*
G37*
D11*
X122174000Y-110529400D03*
D10*
G36*
X160765387Y-109829879D02*
G01*
X160842438Y-109881362D01*
X160893921Y-109958413D01*
X160912000Y-110049300D01*
X160912000Y-110524300D01*
X160893921Y-110615187D01*
X160842438Y-110692238D01*
X160765387Y-110743721D01*
X160674500Y-110761800D01*
X160099500Y-110761800D01*
X160008613Y-110743721D01*
X159931562Y-110692238D01*
X159880079Y-110615187D01*
X159862000Y-110524300D01*
X159862000Y-110049300D01*
X159880079Y-109958413D01*
X159931562Y-109881362D01*
X160008613Y-109829879D01*
X160099500Y-109811800D01*
X160674500Y-109811800D01*
X160765387Y-109829879D01*
X160765387Y-109829879D01*
G37*
D11*
X160387000Y-110286800D03*
D10*
G36*
X159015387Y-109829879D02*
G01*
X159092438Y-109881362D01*
X159143921Y-109958413D01*
X159162000Y-110049300D01*
X159162000Y-110524300D01*
X159143921Y-110615187D01*
X159092438Y-110692238D01*
X159015387Y-110743721D01*
X158924500Y-110761800D01*
X158349500Y-110761800D01*
X158258613Y-110743721D01*
X158181562Y-110692238D01*
X158130079Y-110615187D01*
X158112000Y-110524300D01*
X158112000Y-110049300D01*
X158130079Y-109958413D01*
X158181562Y-109881362D01*
X158258613Y-109829879D01*
X158349500Y-109811800D01*
X158924500Y-109811800D01*
X159015387Y-109829879D01*
X159015387Y-109829879D01*
G37*
D11*
X158637000Y-110286800D03*
D10*
G36*
X147049387Y-114097079D02*
G01*
X147126438Y-114148562D01*
X147177921Y-114225613D01*
X147196000Y-114316500D01*
X147196000Y-114791500D01*
X147177921Y-114882387D01*
X147126438Y-114959438D01*
X147049387Y-115010921D01*
X146958500Y-115029000D01*
X146383500Y-115029000D01*
X146292613Y-115010921D01*
X146215562Y-114959438D01*
X146164079Y-114882387D01*
X146146000Y-114791500D01*
X146146000Y-114316500D01*
X146164079Y-114225613D01*
X146215562Y-114148562D01*
X146292613Y-114097079D01*
X146383500Y-114079000D01*
X146958500Y-114079000D01*
X147049387Y-114097079D01*
X147049387Y-114097079D01*
G37*
D11*
X146671000Y-114554000D03*
D10*
G36*
X145299387Y-114097079D02*
G01*
X145376438Y-114148562D01*
X145427921Y-114225613D01*
X145446000Y-114316500D01*
X145446000Y-114791500D01*
X145427921Y-114882387D01*
X145376438Y-114959438D01*
X145299387Y-115010921D01*
X145208500Y-115029000D01*
X144633500Y-115029000D01*
X144542613Y-115010921D01*
X144465562Y-114959438D01*
X144414079Y-114882387D01*
X144396000Y-114791500D01*
X144396000Y-114316500D01*
X144414079Y-114225613D01*
X144465562Y-114148562D01*
X144542613Y-114097079D01*
X144633500Y-114079000D01*
X145208500Y-114079000D01*
X145299387Y-114097079D01*
X145299387Y-114097079D01*
G37*
D11*
X144921000Y-114554000D03*
D10*
G36*
X147049387Y-106477079D02*
G01*
X147126438Y-106528562D01*
X147177921Y-106605613D01*
X147196000Y-106696500D01*
X147196000Y-107171500D01*
X147177921Y-107262387D01*
X147126438Y-107339438D01*
X147049387Y-107390921D01*
X146958500Y-107409000D01*
X146383500Y-107409000D01*
X146292613Y-107390921D01*
X146215562Y-107339438D01*
X146164079Y-107262387D01*
X146146000Y-107171500D01*
X146146000Y-106696500D01*
X146164079Y-106605613D01*
X146215562Y-106528562D01*
X146292613Y-106477079D01*
X146383500Y-106459000D01*
X146958500Y-106459000D01*
X147049387Y-106477079D01*
X147049387Y-106477079D01*
G37*
D11*
X146671000Y-106934000D03*
D10*
G36*
X145299387Y-106477079D02*
G01*
X145376438Y-106528562D01*
X145427921Y-106605613D01*
X145446000Y-106696500D01*
X145446000Y-107171500D01*
X145427921Y-107262387D01*
X145376438Y-107339438D01*
X145299387Y-107390921D01*
X145208500Y-107409000D01*
X144633500Y-107409000D01*
X144542613Y-107390921D01*
X144465562Y-107339438D01*
X144414079Y-107262387D01*
X144396000Y-107171500D01*
X144396000Y-106696500D01*
X144414079Y-106605613D01*
X144465562Y-106528562D01*
X144542613Y-106477079D01*
X144633500Y-106459000D01*
X145208500Y-106459000D01*
X145299387Y-106477079D01*
X145299387Y-106477079D01*
G37*
D11*
X144921000Y-106934000D03*
D10*
G36*
X147049387Y-109017079D02*
G01*
X147126438Y-109068562D01*
X147177921Y-109145613D01*
X147196000Y-109236500D01*
X147196000Y-109711500D01*
X147177921Y-109802387D01*
X147126438Y-109879438D01*
X147049387Y-109930921D01*
X146958500Y-109949000D01*
X146383500Y-109949000D01*
X146292613Y-109930921D01*
X146215562Y-109879438D01*
X146164079Y-109802387D01*
X146146000Y-109711500D01*
X146146000Y-109236500D01*
X146164079Y-109145613D01*
X146215562Y-109068562D01*
X146292613Y-109017079D01*
X146383500Y-108999000D01*
X146958500Y-108999000D01*
X147049387Y-109017079D01*
X147049387Y-109017079D01*
G37*
D11*
X146671000Y-109474000D03*
D10*
G36*
X145299387Y-109017079D02*
G01*
X145376438Y-109068562D01*
X145427921Y-109145613D01*
X145446000Y-109236500D01*
X145446000Y-109711500D01*
X145427921Y-109802387D01*
X145376438Y-109879438D01*
X145299387Y-109930921D01*
X145208500Y-109949000D01*
X144633500Y-109949000D01*
X144542613Y-109930921D01*
X144465562Y-109879438D01*
X144414079Y-109802387D01*
X144396000Y-109711500D01*
X144396000Y-109236500D01*
X144414079Y-109145613D01*
X144465562Y-109068562D01*
X144542613Y-109017079D01*
X144633500Y-108999000D01*
X145208500Y-108999000D01*
X145299387Y-109017079D01*
X145299387Y-109017079D01*
G37*
D11*
X144921000Y-109474000D03*
D10*
G36*
X147049387Y-103937079D02*
G01*
X147126438Y-103988562D01*
X147177921Y-104065613D01*
X147196000Y-104156500D01*
X147196000Y-104631500D01*
X147177921Y-104722387D01*
X147126438Y-104799438D01*
X147049387Y-104850921D01*
X146958500Y-104869000D01*
X146383500Y-104869000D01*
X146292613Y-104850921D01*
X146215562Y-104799438D01*
X146164079Y-104722387D01*
X146146000Y-104631500D01*
X146146000Y-104156500D01*
X146164079Y-104065613D01*
X146215562Y-103988562D01*
X146292613Y-103937079D01*
X146383500Y-103919000D01*
X146958500Y-103919000D01*
X147049387Y-103937079D01*
X147049387Y-103937079D01*
G37*
D11*
X146671000Y-104394000D03*
D10*
G36*
X145299387Y-103937079D02*
G01*
X145376438Y-103988562D01*
X145427921Y-104065613D01*
X145446000Y-104156500D01*
X145446000Y-104631500D01*
X145427921Y-104722387D01*
X145376438Y-104799438D01*
X145299387Y-104850921D01*
X145208500Y-104869000D01*
X144633500Y-104869000D01*
X144542613Y-104850921D01*
X144465562Y-104799438D01*
X144414079Y-104722387D01*
X144396000Y-104631500D01*
X144396000Y-104156500D01*
X144414079Y-104065613D01*
X144465562Y-103988562D01*
X144542613Y-103937079D01*
X144633500Y-103919000D01*
X145208500Y-103919000D01*
X145299387Y-103937079D01*
X145299387Y-103937079D01*
G37*
D11*
X144921000Y-104394000D03*
D10*
G36*
X137933387Y-112471479D02*
G01*
X138010438Y-112522962D01*
X138061921Y-112600013D01*
X138080000Y-112690900D01*
X138080000Y-113165900D01*
X138061921Y-113256787D01*
X138010438Y-113333838D01*
X137933387Y-113385321D01*
X137842500Y-113403400D01*
X137267500Y-113403400D01*
X137176613Y-113385321D01*
X137099562Y-113333838D01*
X137048079Y-113256787D01*
X137030000Y-113165900D01*
X137030000Y-112690900D01*
X137048079Y-112600013D01*
X137099562Y-112522962D01*
X137176613Y-112471479D01*
X137267500Y-112453400D01*
X137842500Y-112453400D01*
X137933387Y-112471479D01*
X137933387Y-112471479D01*
G37*
D11*
X137555000Y-112928400D03*
D10*
G36*
X139683387Y-112471479D02*
G01*
X139760438Y-112522962D01*
X139811921Y-112600013D01*
X139830000Y-112690900D01*
X139830000Y-113165900D01*
X139811921Y-113256787D01*
X139760438Y-113333838D01*
X139683387Y-113385321D01*
X139592500Y-113403400D01*
X139017500Y-113403400D01*
X138926613Y-113385321D01*
X138849562Y-113333838D01*
X138798079Y-113256787D01*
X138780000Y-113165900D01*
X138780000Y-112690900D01*
X138798079Y-112600013D01*
X138849562Y-112522962D01*
X138926613Y-112471479D01*
X139017500Y-112453400D01*
X139592500Y-112453400D01*
X139683387Y-112471479D01*
X139683387Y-112471479D01*
G37*
D11*
X139305000Y-112928400D03*
D10*
G36*
X133932387Y-108727079D02*
G01*
X134009438Y-108778562D01*
X134060921Y-108855613D01*
X134079000Y-108946500D01*
X134079000Y-109521500D01*
X134060921Y-109612387D01*
X134009438Y-109689438D01*
X133932387Y-109740921D01*
X133841500Y-109759000D01*
X133366500Y-109759000D01*
X133275613Y-109740921D01*
X133198562Y-109689438D01*
X133147079Y-109612387D01*
X133129000Y-109521500D01*
X133129000Y-108946500D01*
X133147079Y-108855613D01*
X133198562Y-108778562D01*
X133275613Y-108727079D01*
X133366500Y-108709000D01*
X133841500Y-108709000D01*
X133932387Y-108727079D01*
X133932387Y-108727079D01*
G37*
D11*
X133604000Y-109234000D03*
D10*
G36*
X133932387Y-110477079D02*
G01*
X134009438Y-110528562D01*
X134060921Y-110605613D01*
X134079000Y-110696500D01*
X134079000Y-111271500D01*
X134060921Y-111362387D01*
X134009438Y-111439438D01*
X133932387Y-111490921D01*
X133841500Y-111509000D01*
X133366500Y-111509000D01*
X133275613Y-111490921D01*
X133198562Y-111439438D01*
X133147079Y-111362387D01*
X133129000Y-111271500D01*
X133129000Y-110696500D01*
X133147079Y-110605613D01*
X133198562Y-110528562D01*
X133275613Y-110477079D01*
X133366500Y-110459000D01*
X133841500Y-110459000D01*
X133932387Y-110477079D01*
X133932387Y-110477079D01*
G37*
D11*
X133604000Y-110984000D03*
D10*
G36*
X160765387Y-108102679D02*
G01*
X160842438Y-108154162D01*
X160893921Y-108231213D01*
X160912000Y-108322100D01*
X160912000Y-108797100D01*
X160893921Y-108887987D01*
X160842438Y-108965038D01*
X160765387Y-109016521D01*
X160674500Y-109034600D01*
X160099500Y-109034600D01*
X160008613Y-109016521D01*
X159931562Y-108965038D01*
X159880079Y-108887987D01*
X159862000Y-108797100D01*
X159862000Y-108322100D01*
X159880079Y-108231213D01*
X159931562Y-108154162D01*
X160008613Y-108102679D01*
X160099500Y-108084600D01*
X160674500Y-108084600D01*
X160765387Y-108102679D01*
X160765387Y-108102679D01*
G37*
D11*
X160387000Y-108559600D03*
D10*
G36*
X159015387Y-108102679D02*
G01*
X159092438Y-108154162D01*
X159143921Y-108231213D01*
X159162000Y-108322100D01*
X159162000Y-108797100D01*
X159143921Y-108887987D01*
X159092438Y-108965038D01*
X159015387Y-109016521D01*
X158924500Y-109034600D01*
X158349500Y-109034600D01*
X158258613Y-109016521D01*
X158181562Y-108965038D01*
X158130079Y-108887987D01*
X158112000Y-108797100D01*
X158112000Y-108322100D01*
X158130079Y-108231213D01*
X158181562Y-108154162D01*
X158258613Y-108102679D01*
X158349500Y-108084600D01*
X158924500Y-108084600D01*
X159015387Y-108102679D01*
X159015387Y-108102679D01*
G37*
D11*
X158637000Y-108559600D03*
M02*
