G04 #@! TF.GenerationSoftware,KiCad,Pcbnew,(5.1.0-1387-g9cf427c7d)*
G04 #@! TF.CreationDate,2019-07-29T17:15:50-07:00*
G04 #@! TF.ProjectId,max_breakout,6d61785f-6272-4656-916b-6f75742e6b69,1.0*
G04 #@! TF.SameCoordinates,Original*
G04 #@! TF.FileFunction,Legend,Bot*
G04 #@! TF.FilePolarity,Positive*
%FSLAX46Y46*%
G04 Gerber Fmt 4.6, Leading zero omitted, Abs format (unit mm)*
G04 Created by KiCad (PCBNEW (5.1.0-1387-g9cf427c7d)) date 2019-07-29 17:15:50*
%MOMM*%
%LPD*%
G04 APERTURE LIST*
%ADD10C,0.152400*%
%ADD11C,0.120000*%
%ADD12C,0.150000*%
G04 APERTURE END LIST*
D10*
X152202847Y-119239695D02*
X152202847Y-118426895D01*
X151931914Y-119007466D01*
X151660980Y-118426895D01*
X151660980Y-119239695D01*
X151312638Y-119007466D02*
X150925590Y-119007466D01*
X151390047Y-119239695D02*
X151119114Y-118426895D01*
X150848180Y-119239695D01*
X150654657Y-118426895D02*
X150112790Y-119239695D01*
X150112790Y-118426895D02*
X150654657Y-119239695D01*
X149880561Y-118426895D02*
X149338695Y-118426895D01*
X149687038Y-119239695D01*
X148874238Y-118426895D02*
X148796828Y-118426895D01*
X148719419Y-118465600D01*
X148680714Y-118504304D01*
X148642009Y-118581714D01*
X148603304Y-118736533D01*
X148603304Y-118930057D01*
X148642009Y-119084876D01*
X148680714Y-119162285D01*
X148719419Y-119200990D01*
X148796828Y-119239695D01*
X148874238Y-119239695D01*
X148951647Y-119200990D01*
X148990352Y-119162285D01*
X149029057Y-119084876D01*
X149067761Y-118930057D01*
X149067761Y-118736533D01*
X149029057Y-118581714D01*
X148990352Y-118504304D01*
X148951647Y-118465600D01*
X148874238Y-118426895D01*
X148100142Y-118426895D02*
X148022733Y-118426895D01*
X147945323Y-118465600D01*
X147906619Y-118504304D01*
X147867914Y-118581714D01*
X147829209Y-118736533D01*
X147829209Y-118930057D01*
X147867914Y-119084876D01*
X147906619Y-119162285D01*
X147945323Y-119200990D01*
X148022733Y-119239695D01*
X148100142Y-119239695D01*
X148177552Y-119200990D01*
X148216257Y-119162285D01*
X148254961Y-119084876D01*
X148293666Y-118930057D01*
X148293666Y-118736533D01*
X148254961Y-118581714D01*
X148216257Y-118504304D01*
X148177552Y-118465600D01*
X148100142Y-118426895D01*
X147326047Y-118426895D02*
X147248638Y-118426895D01*
X147171228Y-118465600D01*
X147132523Y-118504304D01*
X147093819Y-118581714D01*
X147055114Y-118736533D01*
X147055114Y-118930057D01*
X147093819Y-119084876D01*
X147132523Y-119162285D01*
X147171228Y-119200990D01*
X147248638Y-119239695D01*
X147326047Y-119239695D01*
X147403457Y-119200990D01*
X147442161Y-119162285D01*
X147480866Y-119084876D01*
X147519571Y-118930057D01*
X147519571Y-118736533D01*
X147480866Y-118581714D01*
X147442161Y-118504304D01*
X147403457Y-118465600D01*
X147326047Y-118426895D01*
X146745476Y-119200990D02*
X146629361Y-119239695D01*
X146435838Y-119239695D01*
X146358428Y-119200990D01*
X146319723Y-119162285D01*
X146281019Y-119084876D01*
X146281019Y-119007466D01*
X146319723Y-118930057D01*
X146358428Y-118891352D01*
X146435838Y-118852647D01*
X146590657Y-118813942D01*
X146668066Y-118775238D01*
X146706771Y-118736533D01*
X146745476Y-118659123D01*
X146745476Y-118581714D01*
X146706771Y-118504304D01*
X146668066Y-118465600D01*
X146590657Y-118426895D01*
X146397133Y-118426895D01*
X146281019Y-118465600D01*
X145042466Y-118813942D02*
X144926352Y-118852647D01*
X144887647Y-118891352D01*
X144848942Y-118968761D01*
X144848942Y-119084876D01*
X144887647Y-119162285D01*
X144926352Y-119200990D01*
X145003761Y-119239695D01*
X145313400Y-119239695D01*
X145313400Y-118426895D01*
X145042466Y-118426895D01*
X144965057Y-118465600D01*
X144926352Y-118504304D01*
X144887647Y-118581714D01*
X144887647Y-118659123D01*
X144926352Y-118736533D01*
X144965057Y-118775238D01*
X145042466Y-118813942D01*
X145313400Y-118813942D01*
X144500600Y-119239695D02*
X144500600Y-118697828D01*
X144500600Y-118852647D02*
X144461895Y-118775238D01*
X144423190Y-118736533D01*
X144345780Y-118697828D01*
X144268371Y-118697828D01*
X143687800Y-119200990D02*
X143765209Y-119239695D01*
X143920028Y-119239695D01*
X143997438Y-119200990D01*
X144036142Y-119123580D01*
X144036142Y-118813942D01*
X143997438Y-118736533D01*
X143920028Y-118697828D01*
X143765209Y-118697828D01*
X143687800Y-118736533D01*
X143649095Y-118813942D01*
X143649095Y-118891352D01*
X144036142Y-118968761D01*
X142952409Y-119239695D02*
X142952409Y-118813942D01*
X142991114Y-118736533D01*
X143068523Y-118697828D01*
X143223342Y-118697828D01*
X143300752Y-118736533D01*
X142952409Y-119200990D02*
X143029819Y-119239695D01*
X143223342Y-119239695D01*
X143300752Y-119200990D01*
X143339457Y-119123580D01*
X143339457Y-119046171D01*
X143300752Y-118968761D01*
X143223342Y-118930057D01*
X143029819Y-118930057D01*
X142952409Y-118891352D01*
X142565361Y-119239695D02*
X142565361Y-118426895D01*
X142487952Y-118930057D02*
X142255723Y-119239695D01*
X142255723Y-118697828D02*
X142565361Y-119007466D01*
X141791266Y-119239695D02*
X141868676Y-119200990D01*
X141907380Y-119162285D01*
X141946085Y-119084876D01*
X141946085Y-118852647D01*
X141907380Y-118775238D01*
X141868676Y-118736533D01*
X141791266Y-118697828D01*
X141675152Y-118697828D01*
X141597742Y-118736533D01*
X141559038Y-118775238D01*
X141520333Y-118852647D01*
X141520333Y-119084876D01*
X141559038Y-119162285D01*
X141597742Y-119200990D01*
X141675152Y-119239695D01*
X141791266Y-119239695D01*
X140823647Y-118697828D02*
X140823647Y-119239695D01*
X141171990Y-118697828D02*
X141171990Y-119123580D01*
X141133285Y-119200990D01*
X141055876Y-119239695D01*
X140939761Y-119239695D01*
X140862352Y-119200990D01*
X140823647Y-119162285D01*
X140552714Y-118697828D02*
X140243076Y-118697828D01*
X140436600Y-118426895D02*
X140436600Y-119123580D01*
X140397895Y-119200990D01*
X140320485Y-119239695D01*
X140243076Y-119239695D01*
X139081933Y-118813942D02*
X138965819Y-118852647D01*
X138927114Y-118891352D01*
X138888409Y-118968761D01*
X138888409Y-119084876D01*
X138927114Y-119162285D01*
X138965819Y-119200990D01*
X139043228Y-119239695D01*
X139352866Y-119239695D01*
X139352866Y-118426895D01*
X139081933Y-118426895D01*
X139004523Y-118465600D01*
X138965819Y-118504304D01*
X138927114Y-118581714D01*
X138927114Y-118659123D01*
X138965819Y-118736533D01*
X139004523Y-118775238D01*
X139081933Y-118813942D01*
X139352866Y-118813942D01*
X138423952Y-119239695D02*
X138501361Y-119200990D01*
X138540066Y-119162285D01*
X138578771Y-119084876D01*
X138578771Y-118852647D01*
X138540066Y-118775238D01*
X138501361Y-118736533D01*
X138423952Y-118697828D01*
X138307838Y-118697828D01*
X138230428Y-118736533D01*
X138191723Y-118775238D01*
X138153019Y-118852647D01*
X138153019Y-119084876D01*
X138191723Y-119162285D01*
X138230428Y-119200990D01*
X138307838Y-119239695D01*
X138423952Y-119239695D01*
X137456333Y-119239695D02*
X137456333Y-118813942D01*
X137495038Y-118736533D01*
X137572447Y-118697828D01*
X137727266Y-118697828D01*
X137804676Y-118736533D01*
X137456333Y-119200990D02*
X137533742Y-119239695D01*
X137727266Y-119239695D01*
X137804676Y-119200990D01*
X137843380Y-119123580D01*
X137843380Y-119046171D01*
X137804676Y-118968761D01*
X137727266Y-118930057D01*
X137533742Y-118930057D01*
X137456333Y-118891352D01*
X137069285Y-119239695D02*
X137069285Y-118697828D01*
X137069285Y-118852647D02*
X137030580Y-118775238D01*
X136991876Y-118736533D01*
X136914466Y-118697828D01*
X136837057Y-118697828D01*
X136217780Y-119239695D02*
X136217780Y-118426895D01*
X136217780Y-119200990D02*
X136295190Y-119239695D01*
X136450009Y-119239695D01*
X136527419Y-119200990D01*
X136566123Y-119162285D01*
X136604828Y-119084876D01*
X136604828Y-118852647D01*
X136566123Y-118775238D01*
X136527419Y-118736533D01*
X136450009Y-118697828D01*
X136295190Y-118697828D01*
X136217780Y-118736533D01*
X135288866Y-118697828D02*
X135095342Y-119239695D01*
X134901819Y-118697828D01*
X134166428Y-119239695D02*
X134630885Y-119239695D01*
X134398657Y-119239695D02*
X134398657Y-118426895D01*
X134476066Y-118543009D01*
X134553476Y-118620419D01*
X134630885Y-118659123D01*
X133818085Y-119162285D02*
X133779380Y-119200990D01*
X133818085Y-119239695D01*
X133856790Y-119200990D01*
X133818085Y-119162285D01*
X133818085Y-119239695D01*
X133005285Y-119239695D02*
X133469742Y-119239695D01*
X133237514Y-119239695D02*
X133237514Y-118426895D01*
X133314923Y-118543009D01*
X133392333Y-118620419D01*
X133469742Y-118659123D01*
X132037666Y-119239695D02*
X132037666Y-118426895D01*
X132037666Y-118736533D02*
X131960257Y-118697828D01*
X131805438Y-118697828D01*
X131728028Y-118736533D01*
X131689323Y-118775238D01*
X131650619Y-118852647D01*
X131650619Y-119084876D01*
X131689323Y-119162285D01*
X131728028Y-119200990D01*
X131805438Y-119239695D01*
X131960257Y-119239695D01*
X132037666Y-119200990D01*
X131379685Y-118697828D02*
X131186161Y-119239695D01*
X130992638Y-118697828D02*
X131186161Y-119239695D01*
X131263571Y-119433219D01*
X131302276Y-119471923D01*
X131379685Y-119510628D01*
X130063723Y-119239695D02*
X130063723Y-118426895D01*
X130063723Y-118813942D02*
X129599266Y-118813942D01*
X129599266Y-119239695D02*
X129599266Y-118426895D01*
X129289628Y-118697828D02*
X129096104Y-119239695D01*
X128902580Y-118697828D02*
X129096104Y-119239695D01*
X129173514Y-119433219D01*
X129212219Y-119471923D01*
X129289628Y-119510628D01*
X128592942Y-119239695D02*
X128592942Y-118697828D01*
X128592942Y-118426895D02*
X128631647Y-118465600D01*
X128592942Y-118504304D01*
X128554238Y-118465600D01*
X128592942Y-118426895D01*
X128592942Y-118504304D01*
X127857552Y-118697828D02*
X127857552Y-119355809D01*
X127896257Y-119433219D01*
X127934961Y-119471923D01*
X128012371Y-119510628D01*
X128128485Y-119510628D01*
X128205895Y-119471923D01*
X127857552Y-119200990D02*
X127934961Y-119239695D01*
X128089780Y-119239695D01*
X128167190Y-119200990D01*
X128205895Y-119162285D01*
X128244600Y-119084876D01*
X128244600Y-118852647D01*
X128205895Y-118775238D01*
X128167190Y-118736533D01*
X128089780Y-118697828D01*
X127934961Y-118697828D01*
X127857552Y-118736533D01*
X127160866Y-119200990D02*
X127238276Y-119239695D01*
X127393095Y-119239695D01*
X127470504Y-119200990D01*
X127509209Y-119123580D01*
X127509209Y-118813942D01*
X127470504Y-118736533D01*
X127393095Y-118697828D01*
X127238276Y-118697828D01*
X127160866Y-118736533D01*
X127122161Y-118813942D01*
X127122161Y-118891352D01*
X127509209Y-118968761D01*
X126773819Y-119239695D02*
X126773819Y-118697828D01*
X126773819Y-118852647D02*
X126735114Y-118775238D01*
X126696409Y-118736533D01*
X126619000Y-118697828D01*
X126541590Y-118697828D01*
X125651380Y-119239695D02*
X125651380Y-118426895D01*
X125457857Y-118426895D01*
X125341742Y-118465600D01*
X125264333Y-118543009D01*
X125225628Y-118620419D01*
X125186923Y-118775238D01*
X125186923Y-118891352D01*
X125225628Y-119046171D01*
X125264333Y-119123580D01*
X125341742Y-119200990D01*
X125457857Y-119239695D01*
X125651380Y-119239695D01*
X124528942Y-119200990D02*
X124606352Y-119239695D01*
X124761171Y-119239695D01*
X124838580Y-119200990D01*
X124877285Y-119123580D01*
X124877285Y-118813942D01*
X124838580Y-118736533D01*
X124761171Y-118697828D01*
X124606352Y-118697828D01*
X124528942Y-118736533D01*
X124490238Y-118813942D01*
X124490238Y-118891352D01*
X124877285Y-118968761D01*
X124180600Y-119200990D02*
X124103190Y-119239695D01*
X123948371Y-119239695D01*
X123870961Y-119200990D01*
X123832257Y-119123580D01*
X123832257Y-119084876D01*
X123870961Y-119007466D01*
X123948371Y-118968761D01*
X124064485Y-118968761D01*
X124141895Y-118930057D01*
X124180600Y-118852647D01*
X124180600Y-118813942D01*
X124141895Y-118736533D01*
X124064485Y-118697828D01*
X123948371Y-118697828D01*
X123870961Y-118736533D01*
X123483914Y-119239695D02*
X123483914Y-118697828D01*
X123483914Y-118426895D02*
X123522619Y-118465600D01*
X123483914Y-118504304D01*
X123445209Y-118465600D01*
X123483914Y-118426895D01*
X123483914Y-118504304D01*
X122748523Y-118697828D02*
X122748523Y-119355809D01*
X122787228Y-119433219D01*
X122825933Y-119471923D01*
X122903342Y-119510628D01*
X123019457Y-119510628D01*
X123096866Y-119471923D01*
X122748523Y-119200990D02*
X122825933Y-119239695D01*
X122980752Y-119239695D01*
X123058161Y-119200990D01*
X123096866Y-119162285D01*
X123135571Y-119084876D01*
X123135571Y-118852647D01*
X123096866Y-118775238D01*
X123058161Y-118736533D01*
X122980752Y-118697828D01*
X122825933Y-118697828D01*
X122748523Y-118736533D01*
X122361476Y-118697828D02*
X122361476Y-119239695D01*
X122361476Y-118775238D02*
X122322771Y-118736533D01*
X122245361Y-118697828D01*
X122129247Y-118697828D01*
X122051838Y-118736533D01*
X122013133Y-118813942D01*
X122013133Y-119239695D01*
X121664790Y-119200990D02*
X121587380Y-119239695D01*
X121432561Y-119239695D01*
X121355152Y-119200990D01*
X121316447Y-119123580D01*
X121316447Y-119084876D01*
X121355152Y-119007466D01*
X121432561Y-118968761D01*
X121548676Y-118968761D01*
X121626085Y-118930057D01*
X121664790Y-118852647D01*
X121664790Y-118813942D01*
X121626085Y-118736533D01*
X121548676Y-118697828D01*
X121432561Y-118697828D01*
X121355152Y-118736533D01*
D11*
X132207000Y-114173000D02*
X132207000Y-104775000D01*
X141605000Y-114173000D02*
X132207000Y-114173000D01*
X141605000Y-104775000D02*
X141605000Y-114173000D01*
X132207000Y-104775000D02*
X141605000Y-104775000D01*
X158529233Y-102364000D02*
X158871767Y-102364000D01*
X158529233Y-101344000D02*
X158871767Y-101344000D01*
X158515233Y-104396000D02*
X158857767Y-104396000D01*
X158515233Y-103376000D02*
X158857767Y-103376000D01*
X159631500Y-116393500D02*
X158701500Y-116393500D01*
X156471500Y-116393500D02*
X157401500Y-116393500D01*
X156471500Y-116393500D02*
X156471500Y-114233500D01*
X159631500Y-116393500D02*
X159631500Y-114933500D01*
X128478400Y-116393500D02*
X127548400Y-116393500D01*
X125318400Y-116393500D02*
X126248400Y-116393500D01*
X125318400Y-116393500D02*
X125318400Y-114233500D01*
X128478400Y-116393500D02*
X128478400Y-114933500D01*
X121735667Y-104954800D02*
X121393133Y-104954800D01*
X121735667Y-103934800D02*
X121393133Y-103934800D01*
X124923733Y-109980000D02*
X125266267Y-109980000D01*
X124923733Y-111000000D02*
X125266267Y-111000000D01*
X151606067Y-101344000D02*
X151263533Y-101344000D01*
X151606067Y-102364000D02*
X151263533Y-102364000D01*
X119669200Y-104560800D02*
X119669200Y-106360800D01*
X116449200Y-106360800D02*
X116449200Y-103910800D01*
X156600800Y-102630400D02*
X156600800Y-104430400D01*
X153380800Y-104430400D02*
X153380800Y-101980400D01*
X114674467Y-106932000D02*
X114331933Y-106932000D01*
X114674467Y-107952000D02*
X114331933Y-107952000D01*
X155212867Y-109776800D02*
X154870333Y-109776800D01*
X155212867Y-110796800D02*
X154870333Y-110796800D01*
X121113733Y-115104000D02*
X121456267Y-115104000D01*
X121113733Y-114084000D02*
X121456267Y-114084000D01*
X161096000Y-96714000D02*
X161096000Y-99374000D01*
X115316000Y-96714000D02*
X161096000Y-96714000D01*
X115316000Y-99374000D02*
X161096000Y-99374000D01*
X115316000Y-96714000D02*
X115316000Y-99374000D01*
X114046000Y-96714000D02*
X112716000Y-96714000D01*
X112716000Y-96714000D02*
X112716000Y-98044000D01*
X114623667Y-101344000D02*
X114281133Y-101344000D01*
X114623667Y-102364000D02*
X114281133Y-102364000D01*
X115525733Y-115104000D02*
X115868267Y-115104000D01*
X115525733Y-114084000D02*
X115868267Y-114084000D01*
X145624733Y-117604000D02*
X145967267Y-117604000D01*
X145624733Y-116584000D02*
X145967267Y-116584000D01*
X134283267Y-116584000D02*
X133940733Y-116584000D01*
X134283267Y-117604000D02*
X133940733Y-117604000D01*
X128352733Y-107952000D02*
X128695267Y-107952000D01*
X128352733Y-106932000D02*
X128695267Y-106932000D01*
X143820000Y-116393500D02*
X142890000Y-116393500D01*
X140660000Y-116393500D02*
X141590000Y-116393500D01*
X140660000Y-116393500D02*
X140660000Y-114233500D01*
X143820000Y-116393500D02*
X143820000Y-114933500D01*
D12*
X123393800Y-105105800D02*
X123518800Y-105105800D01*
X123393800Y-108355800D02*
X123618800Y-108355800D01*
X126643800Y-108355800D02*
X126418800Y-108355800D01*
X126643800Y-105105800D02*
X126418800Y-105105800D01*
X123393800Y-105105800D02*
X123393800Y-108355800D01*
X126643800Y-105105800D02*
X126643800Y-108355800D01*
X123518800Y-105105800D02*
X123518800Y-104030800D01*
D11*
X121837267Y-101344000D02*
X121494733Y-101344000D01*
X121837267Y-102364000D02*
X121494733Y-102364000D01*
X128352733Y-102364000D02*
X128695267Y-102364000D01*
X128352733Y-101344000D02*
X128695267Y-101344000D01*
X161096000Y-119574000D02*
X161096000Y-122234000D01*
X115316000Y-119574000D02*
X161096000Y-119574000D01*
X115316000Y-122234000D02*
X161096000Y-122234000D01*
X115316000Y-119574000D02*
X115316000Y-122234000D01*
X114046000Y-119574000D02*
X112716000Y-119574000D01*
X112716000Y-119574000D02*
X112716000Y-120904000D01*
X139698000Y-109937733D02*
X139698000Y-110280267D01*
X140718000Y-109937733D02*
X140718000Y-110280267D01*
X130384733Y-117604000D02*
X130727267Y-117604000D01*
X130384733Y-116584000D02*
X130727267Y-116584000D01*
X136734733Y-105662000D02*
X137077267Y-105662000D01*
X136734733Y-106682000D02*
X137077267Y-106682000D01*
X118408267Y-102364000D02*
X118065733Y-102364000D01*
X118408267Y-101344000D02*
X118065733Y-101344000D01*
X115064000Y-111233133D02*
X115064000Y-111575667D01*
X114044000Y-111233133D02*
X114044000Y-111575667D01*
X116588000Y-111233133D02*
X116588000Y-111575667D01*
X115568000Y-111233133D02*
X115568000Y-111575667D01*
X118112000Y-111233133D02*
X118112000Y-111575667D01*
X117092000Y-111233133D02*
X117092000Y-111575667D01*
X119636000Y-111233133D02*
X119636000Y-111575667D01*
X118616000Y-111233133D02*
X118616000Y-111575667D01*
X121160000Y-111233133D02*
X121160000Y-111575667D01*
X120140000Y-111233133D02*
X120140000Y-111575667D01*
X122684000Y-111233133D02*
X122684000Y-111575667D01*
X121664000Y-111233133D02*
X121664000Y-111575667D01*
X159340733Y-109776800D02*
X159683267Y-109776800D01*
X159340733Y-110796800D02*
X159683267Y-110796800D01*
X145624733Y-114044000D02*
X145967267Y-114044000D01*
X145624733Y-115064000D02*
X145967267Y-115064000D01*
X145624733Y-106424000D02*
X145967267Y-106424000D01*
X145624733Y-107444000D02*
X145967267Y-107444000D01*
X145624733Y-108964000D02*
X145967267Y-108964000D01*
X145624733Y-109984000D02*
X145967267Y-109984000D01*
X145624733Y-103884000D02*
X145967267Y-103884000D01*
X145624733Y-104904000D02*
X145967267Y-104904000D01*
X138601267Y-113438400D02*
X138258733Y-113438400D01*
X138601267Y-112418400D02*
X138258733Y-112418400D01*
X133094000Y-110280267D02*
X133094000Y-109937733D01*
X134114000Y-110280267D02*
X134114000Y-109937733D01*
X159340733Y-108049600D02*
X159683267Y-108049600D01*
X159340733Y-109069600D02*
X159683267Y-109069600D01*
D10*
X159223014Y-100714285D02*
X159261719Y-100752990D01*
X159377833Y-100791695D01*
X159455242Y-100791695D01*
X159571357Y-100752990D01*
X159648766Y-100675580D01*
X159687471Y-100598171D01*
X159726176Y-100443352D01*
X159726176Y-100327238D01*
X159687471Y-100172419D01*
X159648766Y-100095009D01*
X159571357Y-100017600D01*
X159455242Y-99978895D01*
X159377833Y-99978895D01*
X159261719Y-100017600D01*
X159223014Y-100056304D01*
X158448919Y-100791695D02*
X158913376Y-100791695D01*
X158681147Y-100791695D02*
X158681147Y-99978895D01*
X158758557Y-100095009D01*
X158835966Y-100172419D01*
X158913376Y-100211123D01*
X158177985Y-99978895D02*
X157674823Y-99978895D01*
X157945757Y-100288533D01*
X157829642Y-100288533D01*
X157752233Y-100327238D01*
X157713528Y-100365942D01*
X157674823Y-100443352D01*
X157674823Y-100636876D01*
X157713528Y-100714285D01*
X157752233Y-100752990D01*
X157829642Y-100791695D01*
X158061871Y-100791695D01*
X158139280Y-100752990D01*
X158177985Y-100714285D01*
X158510514Y-105650695D02*
X158781447Y-105263647D01*
X158974971Y-105650695D02*
X158974971Y-104837895D01*
X158665333Y-104837895D01*
X158587923Y-104876600D01*
X158549219Y-104915304D01*
X158510514Y-104992714D01*
X158510514Y-105108828D01*
X158549219Y-105186238D01*
X158587923Y-105224942D01*
X158665333Y-105263647D01*
X158974971Y-105263647D01*
X158200876Y-104915304D02*
X158162171Y-104876600D01*
X158084761Y-104837895D01*
X157891238Y-104837895D01*
X157813828Y-104876600D01*
X157775123Y-104915304D01*
X157736419Y-104992714D01*
X157736419Y-105070123D01*
X157775123Y-105186238D01*
X158239580Y-105650695D01*
X157736419Y-105650695D01*
X157233257Y-104837895D02*
X157155847Y-104837895D01*
X157078438Y-104876600D01*
X157039733Y-104915304D01*
X157001028Y-104992714D01*
X156962323Y-105147533D01*
X156962323Y-105341057D01*
X157001028Y-105495876D01*
X157039733Y-105573285D01*
X157078438Y-105611990D01*
X157155847Y-105650695D01*
X157233257Y-105650695D01*
X157310666Y-105611990D01*
X157349371Y-105573285D01*
X157388076Y-105495876D01*
X157426780Y-105341057D01*
X157426780Y-105147533D01*
X157388076Y-104992714D01*
X157349371Y-104915304D01*
X157310666Y-104876600D01*
X157233257Y-104837895D01*
X155876776Y-115188395D02*
X155876776Y-115846376D01*
X155838071Y-115923785D01*
X155799366Y-115962490D01*
X155721957Y-116001195D01*
X155567138Y-116001195D01*
X155489728Y-115962490D01*
X155451023Y-115923785D01*
X155412319Y-115846376D01*
X155412319Y-115188395D01*
X155102680Y-115188395D02*
X154560814Y-115188395D01*
X154909157Y-116001195D01*
X125079276Y-116648895D02*
X125079276Y-117306876D01*
X125040571Y-117384285D01*
X125001866Y-117422990D01*
X124924457Y-117461695D01*
X124769638Y-117461695D01*
X124692228Y-117422990D01*
X124653523Y-117384285D01*
X124614819Y-117306876D01*
X124614819Y-116648895D01*
X123802019Y-117461695D02*
X124266476Y-117461695D01*
X124034247Y-117461695D02*
X124034247Y-116648895D01*
X124111657Y-116765009D01*
X124189066Y-116842419D01*
X124266476Y-116881123D01*
X121699866Y-103305085D02*
X121738571Y-103343790D01*
X121854685Y-103382495D01*
X121932095Y-103382495D01*
X122048209Y-103343790D01*
X122125619Y-103266380D01*
X122164323Y-103188971D01*
X122203028Y-103034152D01*
X122203028Y-102918038D01*
X122164323Y-102763219D01*
X122125619Y-102685809D01*
X122048209Y-102608400D01*
X121932095Y-102569695D01*
X121854685Y-102569695D01*
X121738571Y-102608400D01*
X121699866Y-102647104D01*
X121390228Y-102647104D02*
X121351523Y-102608400D01*
X121274114Y-102569695D01*
X121080590Y-102569695D01*
X121003180Y-102608400D01*
X120964476Y-102647104D01*
X120925771Y-102724514D01*
X120925771Y-102801923D01*
X120964476Y-102918038D01*
X121428933Y-103382495D01*
X120925771Y-103382495D01*
X125230466Y-112210285D02*
X125269171Y-112248990D01*
X125385285Y-112287695D01*
X125462695Y-112287695D01*
X125578809Y-112248990D01*
X125656219Y-112171580D01*
X125694923Y-112094171D01*
X125733628Y-111939352D01*
X125733628Y-111823238D01*
X125694923Y-111668419D01*
X125656219Y-111591009D01*
X125578809Y-111513600D01*
X125462695Y-111474895D01*
X125385285Y-111474895D01*
X125269171Y-111513600D01*
X125230466Y-111552304D01*
X124959533Y-111474895D02*
X124417666Y-111474895D01*
X124766009Y-112287695D01*
X151957314Y-100714285D02*
X151996019Y-100752990D01*
X152112133Y-100791695D01*
X152189542Y-100791695D01*
X152305657Y-100752990D01*
X152383066Y-100675580D01*
X152421771Y-100598171D01*
X152460476Y-100443352D01*
X152460476Y-100327238D01*
X152421771Y-100172419D01*
X152383066Y-100095009D01*
X152305657Y-100017600D01*
X152189542Y-99978895D01*
X152112133Y-99978895D01*
X151996019Y-100017600D01*
X151957314Y-100056304D01*
X151183219Y-100791695D02*
X151647676Y-100791695D01*
X151415447Y-100791695D02*
X151415447Y-99978895D01*
X151492857Y-100095009D01*
X151570266Y-100172419D01*
X151647676Y-100211123D01*
X150680057Y-99978895D02*
X150602647Y-99978895D01*
X150525238Y-100017600D01*
X150486533Y-100056304D01*
X150447828Y-100133714D01*
X150409123Y-100288533D01*
X150409123Y-100482057D01*
X150447828Y-100636876D01*
X150486533Y-100714285D01*
X150525238Y-100752990D01*
X150602647Y-100791695D01*
X150680057Y-100791695D01*
X150757466Y-100752990D01*
X150796171Y-100714285D01*
X150834876Y-100636876D01*
X150873580Y-100482057D01*
X150873580Y-100288533D01*
X150834876Y-100133714D01*
X150796171Y-100056304D01*
X150757466Y-100017600D01*
X150680057Y-99978895D01*
X115808276Y-103948895D02*
X115808276Y-104606876D01*
X115769571Y-104684285D01*
X115730866Y-104722990D01*
X115653457Y-104761695D01*
X115498638Y-104761695D01*
X115421228Y-104722990D01*
X115382523Y-104684285D01*
X115343819Y-104606876D01*
X115343819Y-103948895D01*
X114608428Y-104219828D02*
X114608428Y-104761695D01*
X114801952Y-103910190D02*
X114995476Y-104490761D01*
X114492314Y-104490761D01*
X155622776Y-99978895D02*
X155622776Y-100636876D01*
X155584071Y-100714285D01*
X155545366Y-100752990D01*
X155467957Y-100791695D01*
X155313138Y-100791695D01*
X155235728Y-100752990D01*
X155197023Y-100714285D01*
X155158319Y-100636876D01*
X155158319Y-99978895D01*
X154848680Y-99978895D02*
X154345519Y-99978895D01*
X154616452Y-100288533D01*
X154500338Y-100288533D01*
X154422928Y-100327238D01*
X154384223Y-100365942D01*
X154345519Y-100443352D01*
X154345519Y-100636876D01*
X154384223Y-100714285D01*
X154422928Y-100752990D01*
X154500338Y-100791695D01*
X154732566Y-100791695D01*
X154809976Y-100752990D01*
X154848680Y-100714285D01*
X115025714Y-106302285D02*
X115064419Y-106340990D01*
X115180533Y-106379695D01*
X115257942Y-106379695D01*
X115374057Y-106340990D01*
X115451466Y-106263580D01*
X115490171Y-106186171D01*
X115528876Y-106031352D01*
X115528876Y-105915238D01*
X115490171Y-105760419D01*
X115451466Y-105683009D01*
X115374057Y-105605600D01*
X115257942Y-105566895D01*
X115180533Y-105566895D01*
X115064419Y-105605600D01*
X115025714Y-105644304D01*
X114251619Y-106379695D02*
X114716076Y-106379695D01*
X114483847Y-106379695D02*
X114483847Y-105566895D01*
X114561257Y-105683009D01*
X114638666Y-105760419D01*
X114716076Y-105799123D01*
X113477523Y-106379695D02*
X113941980Y-106379695D01*
X113709752Y-106379695D02*
X113709752Y-105566895D01*
X113787161Y-105683009D01*
X113864571Y-105760419D01*
X113941980Y-105799123D01*
X155227866Y-109002285D02*
X155266571Y-109040990D01*
X155382685Y-109079695D01*
X155460095Y-109079695D01*
X155576209Y-109040990D01*
X155653619Y-108963580D01*
X155692323Y-108886171D01*
X155731028Y-108731352D01*
X155731028Y-108615238D01*
X155692323Y-108460419D01*
X155653619Y-108383009D01*
X155576209Y-108305600D01*
X155460095Y-108266895D01*
X155382685Y-108266895D01*
X155266571Y-108305600D01*
X155227866Y-108344304D01*
X154763409Y-108615238D02*
X154840819Y-108576533D01*
X154879523Y-108537828D01*
X154918228Y-108460419D01*
X154918228Y-108421714D01*
X154879523Y-108344304D01*
X154840819Y-108305600D01*
X154763409Y-108266895D01*
X154608590Y-108266895D01*
X154531180Y-108305600D01*
X154492476Y-108344304D01*
X154453771Y-108421714D01*
X154453771Y-108460419D01*
X154492476Y-108537828D01*
X154531180Y-108576533D01*
X154608590Y-108615238D01*
X154763409Y-108615238D01*
X154840819Y-108653942D01*
X154879523Y-108692647D01*
X154918228Y-108770057D01*
X154918228Y-108924876D01*
X154879523Y-109002285D01*
X154840819Y-109040990D01*
X154763409Y-109079695D01*
X154608590Y-109079695D01*
X154531180Y-109040990D01*
X154492476Y-109002285D01*
X154453771Y-108924876D01*
X154453771Y-108770057D01*
X154492476Y-108692647D01*
X154531180Y-108653942D01*
X154608590Y-108615238D01*
X124474514Y-114985195D02*
X124745447Y-114598147D01*
X124938971Y-114985195D02*
X124938971Y-114172395D01*
X124629333Y-114172395D01*
X124551923Y-114211100D01*
X124513219Y-114249804D01*
X124474514Y-114327214D01*
X124474514Y-114443328D01*
X124513219Y-114520738D01*
X124551923Y-114559442D01*
X124629333Y-114598147D01*
X124938971Y-114598147D01*
X123700419Y-114985195D02*
X124164876Y-114985195D01*
X123932647Y-114985195D02*
X123932647Y-114172395D01*
X124010057Y-114288509D01*
X124087466Y-114365919D01*
X124164876Y-114404623D01*
X123235961Y-114520738D02*
X123313371Y-114482033D01*
X123352076Y-114443328D01*
X123390780Y-114365919D01*
X123390780Y-114327214D01*
X123352076Y-114249804D01*
X123313371Y-114211100D01*
X123235961Y-114172395D01*
X123081142Y-114172395D01*
X123003733Y-114211100D01*
X122965028Y-114249804D01*
X122926323Y-114327214D01*
X122926323Y-114365919D01*
X122965028Y-114443328D01*
X123003733Y-114482033D01*
X123081142Y-114520738D01*
X123235961Y-114520738D01*
X123313371Y-114559442D01*
X123352076Y-114598147D01*
X123390780Y-114675557D01*
X123390780Y-114830376D01*
X123352076Y-114907785D01*
X123313371Y-114946490D01*
X123235961Y-114985195D01*
X123081142Y-114985195D01*
X123003733Y-114946490D01*
X122965028Y-114907785D01*
X122926323Y-114830376D01*
X122926323Y-114675557D01*
X122965028Y-114598147D01*
X123003733Y-114559442D01*
X123081142Y-114520738D01*
X114633066Y-100874285D02*
X114671771Y-100912990D01*
X114787885Y-100951695D01*
X114865295Y-100951695D01*
X114981409Y-100912990D01*
X115058819Y-100835580D01*
X115097523Y-100758171D01*
X115136228Y-100603352D01*
X115136228Y-100487238D01*
X115097523Y-100332419D01*
X115058819Y-100255009D01*
X114981409Y-100177600D01*
X114865295Y-100138895D01*
X114787885Y-100138895D01*
X114671771Y-100177600D01*
X114633066Y-100216304D01*
X114246019Y-100951695D02*
X114091200Y-100951695D01*
X114013790Y-100912990D01*
X113975085Y-100874285D01*
X113897676Y-100758171D01*
X113858971Y-100603352D01*
X113858971Y-100293714D01*
X113897676Y-100216304D01*
X113936380Y-100177600D01*
X114013790Y-100138895D01*
X114168609Y-100138895D01*
X114246019Y-100177600D01*
X114284723Y-100216304D01*
X114323428Y-100293714D01*
X114323428Y-100487238D01*
X114284723Y-100564647D01*
X114246019Y-100603352D01*
X114168609Y-100642057D01*
X114013790Y-100642057D01*
X113936380Y-100603352D01*
X113897676Y-100564647D01*
X113858971Y-100487238D01*
X118601066Y-114985195D02*
X118872000Y-114598147D01*
X119065523Y-114985195D02*
X119065523Y-114172395D01*
X118755885Y-114172395D01*
X118678476Y-114211100D01*
X118639771Y-114249804D01*
X118601066Y-114327214D01*
X118601066Y-114443328D01*
X118639771Y-114520738D01*
X118678476Y-114559442D01*
X118755885Y-114598147D01*
X119065523Y-114598147D01*
X118214019Y-114985195D02*
X118059200Y-114985195D01*
X117981790Y-114946490D01*
X117943085Y-114907785D01*
X117865676Y-114791671D01*
X117826971Y-114636852D01*
X117826971Y-114327214D01*
X117865676Y-114249804D01*
X117904380Y-114211100D01*
X117981790Y-114172395D01*
X118136609Y-114172395D01*
X118214019Y-114211100D01*
X118252723Y-114249804D01*
X118291428Y-114327214D01*
X118291428Y-114520738D01*
X118252723Y-114598147D01*
X118214019Y-114636852D01*
X118136609Y-114675557D01*
X117981790Y-114675557D01*
X117904380Y-114636852D01*
X117865676Y-114598147D01*
X117826971Y-114520738D01*
X148725466Y-117461695D02*
X148996400Y-117074647D01*
X149189923Y-117461695D02*
X149189923Y-116648895D01*
X148880285Y-116648895D01*
X148802876Y-116687600D01*
X148764171Y-116726304D01*
X148725466Y-116803714D01*
X148725466Y-116919828D01*
X148764171Y-116997238D01*
X148802876Y-117035942D01*
X148880285Y-117074647D01*
X149189923Y-117074647D01*
X148261009Y-116997238D02*
X148338419Y-116958533D01*
X148377123Y-116919828D01*
X148415828Y-116842419D01*
X148415828Y-116803714D01*
X148377123Y-116726304D01*
X148338419Y-116687600D01*
X148261009Y-116648895D01*
X148106190Y-116648895D01*
X148028780Y-116687600D01*
X147990076Y-116726304D01*
X147951371Y-116803714D01*
X147951371Y-116842419D01*
X147990076Y-116919828D01*
X148028780Y-116958533D01*
X148106190Y-116997238D01*
X148261009Y-116997238D01*
X148338419Y-117035942D01*
X148377123Y-117074647D01*
X148415828Y-117152057D01*
X148415828Y-117306876D01*
X148377123Y-117384285D01*
X148338419Y-117422990D01*
X148261009Y-117461695D01*
X148106190Y-117461695D01*
X148028780Y-117422990D01*
X147990076Y-117384285D01*
X147951371Y-117306876D01*
X147951371Y-117152057D01*
X147990076Y-117074647D01*
X148028780Y-117035942D01*
X148106190Y-116997238D01*
X136914466Y-117461695D02*
X137185400Y-117074647D01*
X137378923Y-117461695D02*
X137378923Y-116648895D01*
X137069285Y-116648895D01*
X136991876Y-116687600D01*
X136953171Y-116726304D01*
X136914466Y-116803714D01*
X136914466Y-116919828D01*
X136953171Y-116997238D01*
X136991876Y-117035942D01*
X137069285Y-117074647D01*
X137378923Y-117074647D01*
X136643533Y-116648895D02*
X136101666Y-116648895D01*
X136450009Y-117461695D01*
X131199466Y-107809695D02*
X131470400Y-107422647D01*
X131663923Y-107809695D02*
X131663923Y-106996895D01*
X131354285Y-106996895D01*
X131276876Y-107035600D01*
X131238171Y-107074304D01*
X131199466Y-107151714D01*
X131199466Y-107267828D01*
X131238171Y-107345238D01*
X131276876Y-107383942D01*
X131354285Y-107422647D01*
X131663923Y-107422647D01*
X130464076Y-106996895D02*
X130851123Y-106996895D01*
X130889828Y-107383942D01*
X130851123Y-107345238D01*
X130773714Y-107306533D01*
X130580190Y-107306533D01*
X130502780Y-107345238D01*
X130464076Y-107383942D01*
X130425371Y-107461352D01*
X130425371Y-107654876D01*
X130464076Y-107732285D01*
X130502780Y-107770990D01*
X130580190Y-107809695D01*
X130773714Y-107809695D01*
X130851123Y-107770990D01*
X130889828Y-107732285D01*
X139332909Y-116142104D02*
X139410319Y-116103400D01*
X139487728Y-116025990D01*
X139603842Y-115909876D01*
X139681252Y-115871171D01*
X139758661Y-115871171D01*
X139719957Y-116064695D02*
X139797366Y-116025990D01*
X139874776Y-115948580D01*
X139913480Y-115793761D01*
X139913480Y-115522828D01*
X139874776Y-115368009D01*
X139797366Y-115290600D01*
X139719957Y-115251895D01*
X139565138Y-115251895D01*
X139487728Y-115290600D01*
X139410319Y-115368009D01*
X139371614Y-115522828D01*
X139371614Y-115793761D01*
X139410319Y-115948580D01*
X139487728Y-116025990D01*
X139565138Y-116064695D01*
X139719957Y-116064695D01*
X138597519Y-116064695D02*
X139061976Y-116064695D01*
X138829747Y-116064695D02*
X138829747Y-115251895D01*
X138907157Y-115368009D01*
X138984566Y-115445419D01*
X139061976Y-115484123D01*
X122983776Y-106298395D02*
X122983776Y-106956376D01*
X122945071Y-107033785D01*
X122906366Y-107072490D01*
X122828957Y-107111195D01*
X122674138Y-107111195D01*
X122596728Y-107072490D01*
X122558023Y-107033785D01*
X122519319Y-106956376D01*
X122519319Y-106298395D01*
X121783928Y-106298395D02*
X121938747Y-106298395D01*
X122016157Y-106337100D01*
X122054861Y-106375804D01*
X122132271Y-106491919D01*
X122170976Y-106646738D01*
X122170976Y-106956376D01*
X122132271Y-107033785D01*
X122093566Y-107072490D01*
X122016157Y-107111195D01*
X121861338Y-107111195D01*
X121783928Y-107072490D01*
X121745223Y-107033785D01*
X121706519Y-106956376D01*
X121706519Y-106762852D01*
X121745223Y-106685442D01*
X121783928Y-106646738D01*
X121861338Y-106608033D01*
X122016157Y-106608033D01*
X122093566Y-106646738D01*
X122132271Y-106685442D01*
X122170976Y-106762852D01*
X122188514Y-100951695D02*
X122459447Y-100564647D01*
X122652971Y-100951695D02*
X122652971Y-100138895D01*
X122343333Y-100138895D01*
X122265923Y-100177600D01*
X122227219Y-100216304D01*
X122188514Y-100293714D01*
X122188514Y-100409828D01*
X122227219Y-100487238D01*
X122265923Y-100525942D01*
X122343333Y-100564647D01*
X122652971Y-100564647D01*
X121414419Y-100951695D02*
X121878876Y-100951695D01*
X121646647Y-100951695D02*
X121646647Y-100138895D01*
X121724057Y-100255009D01*
X121801466Y-100332419D01*
X121878876Y-100371123D01*
X121027371Y-100951695D02*
X120872552Y-100951695D01*
X120795142Y-100912990D01*
X120756438Y-100874285D01*
X120679028Y-100758171D01*
X120640323Y-100603352D01*
X120640323Y-100293714D01*
X120679028Y-100216304D01*
X120717733Y-100177600D01*
X120795142Y-100138895D01*
X120949961Y-100138895D01*
X121027371Y-100177600D01*
X121066076Y-100216304D01*
X121104780Y-100293714D01*
X121104780Y-100487238D01*
X121066076Y-100564647D01*
X121027371Y-100603352D01*
X120949961Y-100642057D01*
X120795142Y-100642057D01*
X120717733Y-100603352D01*
X120679028Y-100564647D01*
X120640323Y-100487238D01*
X129046514Y-100951695D02*
X129317447Y-100564647D01*
X129510971Y-100951695D02*
X129510971Y-100138895D01*
X129201333Y-100138895D01*
X129123923Y-100177600D01*
X129085219Y-100216304D01*
X129046514Y-100293714D01*
X129046514Y-100409828D01*
X129085219Y-100487238D01*
X129123923Y-100525942D01*
X129201333Y-100564647D01*
X129510971Y-100564647D01*
X128272419Y-100951695D02*
X128736876Y-100951695D01*
X128504647Y-100951695D02*
X128504647Y-100138895D01*
X128582057Y-100255009D01*
X128659466Y-100332419D01*
X128736876Y-100371123D01*
X128001485Y-100138895D02*
X127459619Y-100138895D01*
X127807961Y-100951695D01*
X138819466Y-110399285D02*
X138858171Y-110437990D01*
X138974285Y-110476695D01*
X139051695Y-110476695D01*
X139167809Y-110437990D01*
X139245219Y-110360580D01*
X139283923Y-110283171D01*
X139322628Y-110128352D01*
X139322628Y-110012238D01*
X139283923Y-109857419D01*
X139245219Y-109780009D01*
X139167809Y-109702600D01*
X139051695Y-109663895D01*
X138974285Y-109663895D01*
X138858171Y-109702600D01*
X138819466Y-109741304D01*
X138084076Y-109663895D02*
X138471123Y-109663895D01*
X138509828Y-110050942D01*
X138471123Y-110012238D01*
X138393714Y-109973533D01*
X138200190Y-109973533D01*
X138122780Y-110012238D01*
X138084076Y-110050942D01*
X138045371Y-110128352D01*
X138045371Y-110321876D01*
X138084076Y-110399285D01*
X138122780Y-110437990D01*
X138200190Y-110476695D01*
X138393714Y-110476695D01*
X138471123Y-110437990D01*
X138509828Y-110399285D01*
X130691466Y-116114285D02*
X130730171Y-116152990D01*
X130846285Y-116191695D01*
X130923695Y-116191695D01*
X131039809Y-116152990D01*
X131117219Y-116075580D01*
X131155923Y-115998171D01*
X131194628Y-115843352D01*
X131194628Y-115727238D01*
X131155923Y-115572419D01*
X131117219Y-115495009D01*
X131039809Y-115417600D01*
X130923695Y-115378895D01*
X130846285Y-115378895D01*
X130730171Y-115417600D01*
X130691466Y-115456304D01*
X129917371Y-116191695D02*
X130381828Y-116191695D01*
X130149600Y-116191695D02*
X130149600Y-115378895D01*
X130227009Y-115495009D01*
X130304419Y-115572419D01*
X130381828Y-115611123D01*
X139683066Y-106563885D02*
X139721771Y-106602590D01*
X139837885Y-106641295D01*
X139915295Y-106641295D01*
X140031409Y-106602590D01*
X140108819Y-106525180D01*
X140147523Y-106447771D01*
X140186228Y-106292952D01*
X140186228Y-106176838D01*
X140147523Y-106022019D01*
X140108819Y-105944609D01*
X140031409Y-105867200D01*
X139915295Y-105828495D01*
X139837885Y-105828495D01*
X139721771Y-105867200D01*
X139683066Y-105905904D01*
X138986380Y-105828495D02*
X139141200Y-105828495D01*
X139218609Y-105867200D01*
X139257314Y-105905904D01*
X139334723Y-106022019D01*
X139373428Y-106176838D01*
X139373428Y-106486476D01*
X139334723Y-106563885D01*
X139296019Y-106602590D01*
X139218609Y-106641295D01*
X139063790Y-106641295D01*
X138986380Y-106602590D01*
X138947676Y-106563885D01*
X138908971Y-106486476D01*
X138908971Y-106292952D01*
X138947676Y-106215542D01*
X138986380Y-106176838D01*
X139063790Y-106138133D01*
X139218609Y-106138133D01*
X139296019Y-106176838D01*
X139334723Y-106215542D01*
X139373428Y-106292952D01*
X118372466Y-100951695D02*
X118643400Y-100564647D01*
X118836923Y-100951695D02*
X118836923Y-100138895D01*
X118527285Y-100138895D01*
X118449876Y-100177600D01*
X118411171Y-100216304D01*
X118372466Y-100293714D01*
X118372466Y-100409828D01*
X118411171Y-100487238D01*
X118449876Y-100525942D01*
X118527285Y-100564647D01*
X118836923Y-100564647D01*
X117675780Y-100138895D02*
X117830600Y-100138895D01*
X117908009Y-100177600D01*
X117946714Y-100216304D01*
X118024123Y-100332419D01*
X118062828Y-100487238D01*
X118062828Y-100796876D01*
X118024123Y-100874285D01*
X117985419Y-100912990D01*
X117908009Y-100951695D01*
X117753190Y-100951695D01*
X117675780Y-100912990D01*
X117637076Y-100874285D01*
X117598371Y-100796876D01*
X117598371Y-100603352D01*
X117637076Y-100525942D01*
X117675780Y-100487238D01*
X117753190Y-100448533D01*
X117908009Y-100448533D01*
X117985419Y-100487238D01*
X118024123Y-100525942D01*
X118062828Y-100603352D01*
X114921695Y-108392685D02*
X114534647Y-108121752D01*
X114921695Y-107928228D02*
X114108895Y-107928228D01*
X114108895Y-108237866D01*
X114147600Y-108315276D01*
X114186304Y-108353980D01*
X114263714Y-108392685D01*
X114379828Y-108392685D01*
X114457238Y-108353980D01*
X114495942Y-108315276D01*
X114534647Y-108237866D01*
X114534647Y-107928228D01*
X114921695Y-109166780D02*
X114921695Y-108702323D01*
X114921695Y-108934552D02*
X114108895Y-108934552D01*
X114225009Y-108857142D01*
X114302419Y-108779733D01*
X114341123Y-108702323D01*
X114108895Y-109902171D02*
X114108895Y-109515123D01*
X114495942Y-109476419D01*
X114457238Y-109515123D01*
X114418533Y-109592533D01*
X114418533Y-109786057D01*
X114457238Y-109863466D01*
X114495942Y-109902171D01*
X114573352Y-109940876D01*
X114766876Y-109940876D01*
X114844285Y-109902171D01*
X114882990Y-109863466D01*
X114921695Y-109786057D01*
X114921695Y-109592533D01*
X114882990Y-109515123D01*
X114844285Y-109476419D01*
X116445695Y-108392685D02*
X116058647Y-108121752D01*
X116445695Y-107928228D02*
X115632895Y-107928228D01*
X115632895Y-108237866D01*
X115671600Y-108315276D01*
X115710304Y-108353980D01*
X115787714Y-108392685D01*
X115903828Y-108392685D01*
X115981238Y-108353980D01*
X116019942Y-108315276D01*
X116058647Y-108237866D01*
X116058647Y-107928228D01*
X116445695Y-109166780D02*
X116445695Y-108702323D01*
X116445695Y-108934552D02*
X115632895Y-108934552D01*
X115749009Y-108857142D01*
X115826419Y-108779733D01*
X115865123Y-108702323D01*
X115903828Y-109863466D02*
X116445695Y-109863466D01*
X115594190Y-109669942D02*
X116174761Y-109476419D01*
X116174761Y-109979580D01*
X117969695Y-108392685D02*
X117582647Y-108121752D01*
X117969695Y-107928228D02*
X117156895Y-107928228D01*
X117156895Y-108237866D01*
X117195600Y-108315276D01*
X117234304Y-108353980D01*
X117311714Y-108392685D01*
X117427828Y-108392685D01*
X117505238Y-108353980D01*
X117543942Y-108315276D01*
X117582647Y-108237866D01*
X117582647Y-107928228D01*
X117969695Y-109166780D02*
X117969695Y-108702323D01*
X117969695Y-108934552D02*
X117156895Y-108934552D01*
X117273009Y-108857142D01*
X117350419Y-108779733D01*
X117389123Y-108702323D01*
X117156895Y-109437714D02*
X117156895Y-109940876D01*
X117466533Y-109669942D01*
X117466533Y-109786057D01*
X117505238Y-109863466D01*
X117543942Y-109902171D01*
X117621352Y-109940876D01*
X117814876Y-109940876D01*
X117892285Y-109902171D01*
X117930990Y-109863466D01*
X117969695Y-109786057D01*
X117969695Y-109553828D01*
X117930990Y-109476419D01*
X117892285Y-109437714D01*
X119493695Y-108392685D02*
X119106647Y-108121752D01*
X119493695Y-107928228D02*
X118680895Y-107928228D01*
X118680895Y-108237866D01*
X118719600Y-108315276D01*
X118758304Y-108353980D01*
X118835714Y-108392685D01*
X118951828Y-108392685D01*
X119029238Y-108353980D01*
X119067942Y-108315276D01*
X119106647Y-108237866D01*
X119106647Y-107928228D01*
X119493695Y-109166780D02*
X119493695Y-108702323D01*
X119493695Y-108934552D02*
X118680895Y-108934552D01*
X118797009Y-108857142D01*
X118874419Y-108779733D01*
X118913123Y-108702323D01*
X118758304Y-109476419D02*
X118719600Y-109515123D01*
X118680895Y-109592533D01*
X118680895Y-109786057D01*
X118719600Y-109863466D01*
X118758304Y-109902171D01*
X118835714Y-109940876D01*
X118913123Y-109940876D01*
X119029238Y-109902171D01*
X119493695Y-109437714D01*
X119493695Y-109940876D01*
X121017695Y-108392685D02*
X120630647Y-108121752D01*
X121017695Y-107928228D02*
X120204895Y-107928228D01*
X120204895Y-108237866D01*
X120243600Y-108315276D01*
X120282304Y-108353980D01*
X120359714Y-108392685D01*
X120475828Y-108392685D01*
X120553238Y-108353980D01*
X120591942Y-108315276D01*
X120630647Y-108237866D01*
X120630647Y-107928228D01*
X121017695Y-109166780D02*
X121017695Y-108702323D01*
X121017695Y-108934552D02*
X120204895Y-108934552D01*
X120321009Y-108857142D01*
X120398419Y-108779733D01*
X120437123Y-108702323D01*
X121017695Y-109940876D02*
X121017695Y-109476419D01*
X121017695Y-109708647D02*
X120204895Y-109708647D01*
X120321009Y-109631238D01*
X120398419Y-109553828D01*
X120437123Y-109476419D01*
X122541695Y-108392685D02*
X122154647Y-108121752D01*
X122541695Y-107928228D02*
X121728895Y-107928228D01*
X121728895Y-108237866D01*
X121767600Y-108315276D01*
X121806304Y-108353980D01*
X121883714Y-108392685D01*
X121999828Y-108392685D01*
X122077238Y-108353980D01*
X122115942Y-108315276D01*
X122154647Y-108237866D01*
X122154647Y-107928228D01*
X122541695Y-109166780D02*
X122541695Y-108702323D01*
X122541695Y-108934552D02*
X121728895Y-108934552D01*
X121845009Y-108857142D01*
X121922419Y-108779733D01*
X121961123Y-108702323D01*
X121728895Y-109669942D02*
X121728895Y-109747352D01*
X121767600Y-109824761D01*
X121806304Y-109863466D01*
X121883714Y-109902171D01*
X122038533Y-109940876D01*
X122232057Y-109940876D01*
X122386876Y-109902171D01*
X122464285Y-109863466D01*
X122502990Y-109824761D01*
X122541695Y-109747352D01*
X122541695Y-109669942D01*
X122502990Y-109592533D01*
X122464285Y-109553828D01*
X122386876Y-109515123D01*
X122232057Y-109476419D01*
X122038533Y-109476419D01*
X121883714Y-109515123D01*
X121806304Y-109553828D01*
X121767600Y-109592533D01*
X121728895Y-109669942D01*
X160085314Y-111975295D02*
X160356247Y-111588247D01*
X160549771Y-111975295D02*
X160549771Y-111162495D01*
X160240133Y-111162495D01*
X160162723Y-111201200D01*
X160124019Y-111239904D01*
X160085314Y-111317314D01*
X160085314Y-111433428D01*
X160124019Y-111510838D01*
X160162723Y-111549542D01*
X160240133Y-111588247D01*
X160549771Y-111588247D01*
X159311219Y-111975295D02*
X159775676Y-111975295D01*
X159543447Y-111975295D02*
X159543447Y-111162495D01*
X159620857Y-111278609D01*
X159698266Y-111356019D01*
X159775676Y-111394723D01*
X158614533Y-111162495D02*
X158769352Y-111162495D01*
X158846761Y-111201200D01*
X158885466Y-111239904D01*
X158962876Y-111356019D01*
X159001580Y-111510838D01*
X159001580Y-111820476D01*
X158962876Y-111897885D01*
X158924171Y-111936590D01*
X158846761Y-111975295D01*
X158691942Y-111975295D01*
X158614533Y-111936590D01*
X158575828Y-111897885D01*
X158537123Y-111820476D01*
X158537123Y-111626952D01*
X158575828Y-111549542D01*
X158614533Y-111510838D01*
X158691942Y-111472133D01*
X158846761Y-111472133D01*
X158924171Y-111510838D01*
X158962876Y-111549542D01*
X159001580Y-111626952D01*
X145931466Y-113651695D02*
X146202400Y-113264647D01*
X146395923Y-113651695D02*
X146395923Y-112838895D01*
X146086285Y-112838895D01*
X146008876Y-112877600D01*
X145970171Y-112916304D01*
X145931466Y-112993714D01*
X145931466Y-113109828D01*
X145970171Y-113187238D01*
X146008876Y-113225942D01*
X146086285Y-113264647D01*
X146395923Y-113264647D01*
X145234780Y-113109828D02*
X145234780Y-113651695D01*
X145428304Y-112800190D02*
X145621828Y-113380761D01*
X145118666Y-113380761D01*
X143264466Y-107301695D02*
X143535400Y-106914647D01*
X143728923Y-107301695D02*
X143728923Y-106488895D01*
X143419285Y-106488895D01*
X143341876Y-106527600D01*
X143303171Y-106566304D01*
X143264466Y-106643714D01*
X143264466Y-106759828D01*
X143303171Y-106837238D01*
X143341876Y-106875942D01*
X143419285Y-106914647D01*
X143728923Y-106914647D01*
X142993533Y-106488895D02*
X142490371Y-106488895D01*
X142761304Y-106798533D01*
X142645190Y-106798533D01*
X142567780Y-106837238D01*
X142529076Y-106875942D01*
X142490371Y-106953352D01*
X142490371Y-107146876D01*
X142529076Y-107224285D01*
X142567780Y-107262990D01*
X142645190Y-107301695D01*
X142877419Y-107301695D01*
X142954828Y-107262990D01*
X142993533Y-107224285D01*
X143264466Y-109841695D02*
X143535400Y-109454647D01*
X143728923Y-109841695D02*
X143728923Y-109028895D01*
X143419285Y-109028895D01*
X143341876Y-109067600D01*
X143303171Y-109106304D01*
X143264466Y-109183714D01*
X143264466Y-109299828D01*
X143303171Y-109377238D01*
X143341876Y-109415942D01*
X143419285Y-109454647D01*
X143728923Y-109454647D01*
X142954828Y-109106304D02*
X142916123Y-109067600D01*
X142838714Y-109028895D01*
X142645190Y-109028895D01*
X142567780Y-109067600D01*
X142529076Y-109106304D01*
X142490371Y-109183714D01*
X142490371Y-109261123D01*
X142529076Y-109377238D01*
X142993533Y-109841695D01*
X142490371Y-109841695D01*
X143264466Y-104761695D02*
X143535400Y-104374647D01*
X143728923Y-104761695D02*
X143728923Y-103948895D01*
X143419285Y-103948895D01*
X143341876Y-103987600D01*
X143303171Y-104026304D01*
X143264466Y-104103714D01*
X143264466Y-104219828D01*
X143303171Y-104297238D01*
X143341876Y-104335942D01*
X143419285Y-104374647D01*
X143728923Y-104374647D01*
X142490371Y-104761695D02*
X142954828Y-104761695D01*
X142722600Y-104761695D02*
X142722600Y-103948895D01*
X142800009Y-104065009D01*
X142877419Y-104142419D01*
X142954828Y-104181123D01*
X136025466Y-113218685D02*
X136064171Y-113257390D01*
X136180285Y-113296095D01*
X136257695Y-113296095D01*
X136373809Y-113257390D01*
X136451219Y-113179980D01*
X136489923Y-113102571D01*
X136528628Y-112947752D01*
X136528628Y-112831638D01*
X136489923Y-112676819D01*
X136451219Y-112599409D01*
X136373809Y-112522000D01*
X136257695Y-112483295D01*
X136180285Y-112483295D01*
X136064171Y-112522000D01*
X136025466Y-112560704D01*
X135328780Y-112754228D02*
X135328780Y-113296095D01*
X135522304Y-112444590D02*
X135715828Y-113025161D01*
X135212666Y-113025161D01*
X135263466Y-110399285D02*
X135302171Y-110437990D01*
X135418285Y-110476695D01*
X135495695Y-110476695D01*
X135611809Y-110437990D01*
X135689219Y-110360580D01*
X135727923Y-110283171D01*
X135766628Y-110128352D01*
X135766628Y-110012238D01*
X135727923Y-109857419D01*
X135689219Y-109780009D01*
X135611809Y-109702600D01*
X135495695Y-109663895D01*
X135418285Y-109663895D01*
X135302171Y-109702600D01*
X135263466Y-109741304D01*
X134992533Y-109663895D02*
X134489371Y-109663895D01*
X134760304Y-109973533D01*
X134644190Y-109973533D01*
X134566780Y-110012238D01*
X134528076Y-110050942D01*
X134489371Y-110128352D01*
X134489371Y-110321876D01*
X134528076Y-110399285D01*
X134566780Y-110437990D01*
X134644190Y-110476695D01*
X134876419Y-110476695D01*
X134953828Y-110437990D01*
X134992533Y-110399285D01*
X160034514Y-107605285D02*
X160073219Y-107643990D01*
X160189333Y-107682695D01*
X160266742Y-107682695D01*
X160382857Y-107643990D01*
X160460266Y-107566580D01*
X160498971Y-107489171D01*
X160537676Y-107334352D01*
X160537676Y-107218238D01*
X160498971Y-107063419D01*
X160460266Y-106986009D01*
X160382857Y-106908600D01*
X160266742Y-106869895D01*
X160189333Y-106869895D01*
X160073219Y-106908600D01*
X160034514Y-106947304D01*
X159260419Y-107682695D02*
X159724876Y-107682695D01*
X159492647Y-107682695D02*
X159492647Y-106869895D01*
X159570057Y-106986009D01*
X159647466Y-107063419D01*
X159724876Y-107102123D01*
X158950780Y-106947304D02*
X158912076Y-106908600D01*
X158834666Y-106869895D01*
X158641142Y-106869895D01*
X158563733Y-106908600D01*
X158525028Y-106947304D01*
X158486323Y-107024714D01*
X158486323Y-107102123D01*
X158525028Y-107218238D01*
X158989485Y-107682695D01*
X158486323Y-107682695D01*
M02*
