G04 #@! TF.GenerationSoftware,KiCad,Pcbnew,(5.1.0-1387-g9cf427c7d)*
G04 #@! TF.CreationDate,2019-07-30T13:41:10-07:00*
G04 #@! TF.ProjectId,max_breakout,6d61785f-6272-4656-916b-6f75742e6b69,1.1*
G04 #@! TF.SameCoordinates,Original*
G04 #@! TF.FileFunction,Paste,Top*
G04 #@! TF.FilePolarity,Positive*
%FSLAX46Y46*%
G04 Gerber Fmt 4.6, Leading zero omitted, Abs format (unit mm)*
G04 Created by KiCad (PCBNEW (5.1.0-1387-g9cf427c7d)) date 2019-07-30 13:41:10*
%MOMM*%
%LPD*%
G04 APERTURE LIST*
%ADD10R,0.450000X1.500000*%
%ADD11R,0.760000X1.250000*%
%ADD12C,0.100000*%
%ADD13C,0.800000*%
%ADD14R,1.500000X0.550000*%
%ADD15R,0.550000X1.500000*%
%ADD16C,0.950000*%
%ADD17C,0.400000*%
%ADD18R,1.540000X1.800000*%
%ADD19R,1.900000X1.500000*%
%ADD20R,1.350000X0.400000*%
G04 APERTURE END LIST*
D10*
X123963000Y-109274000D03*
X124613000Y-109274000D03*
X125263000Y-109274000D03*
X125913000Y-109274000D03*
X126563000Y-109274000D03*
X127213000Y-109274000D03*
X127863000Y-109274000D03*
X128513000Y-109274000D03*
X128513000Y-115174000D03*
X127863000Y-115174000D03*
X127213000Y-115174000D03*
X126563000Y-115174000D03*
X125913000Y-115174000D03*
X125263000Y-115174000D03*
X124613000Y-115174000D03*
X123963000Y-115174000D03*
D11*
X120777000Y-112549000D03*
X114427000Y-106399000D03*
X119507000Y-112549000D03*
X115697000Y-106399000D03*
X118237000Y-112549000D03*
X116967000Y-106399000D03*
X116967000Y-112549000D03*
X118237000Y-106399000D03*
X115697000Y-112549000D03*
X119507000Y-106399000D03*
X114427000Y-112549000D03*
X120777000Y-106399000D03*
D12*
G36*
X156570937Y-115601224D02*
G01*
X156635821Y-115644579D01*
X156679176Y-115709463D01*
X156694400Y-115786000D01*
X156694400Y-117386000D01*
X156679176Y-117462537D01*
X156635821Y-117527421D01*
X156570937Y-117570776D01*
X156494400Y-117586000D01*
X156094400Y-117586000D01*
X156017863Y-117570776D01*
X155952979Y-117527421D01*
X155909624Y-117462537D01*
X155894400Y-117386000D01*
X155894400Y-115786000D01*
X155909624Y-115709463D01*
X155952979Y-115644579D01*
X156017863Y-115601224D01*
X156094400Y-115586000D01*
X156494400Y-115586000D01*
X156570937Y-115601224D01*
X156570937Y-115601224D01*
G37*
D13*
X156294400Y-116586000D03*
D12*
G36*
X160770937Y-115601224D02*
G01*
X160835821Y-115644579D01*
X160879176Y-115709463D01*
X160894400Y-115786000D01*
X160894400Y-117386000D01*
X160879176Y-117462537D01*
X160835821Y-117527421D01*
X160770937Y-117570776D01*
X160694400Y-117586000D01*
X160294400Y-117586000D01*
X160217863Y-117570776D01*
X160152979Y-117527421D01*
X160109624Y-117462537D01*
X160094400Y-117386000D01*
X160094400Y-115786000D01*
X160109624Y-115709463D01*
X160152979Y-115644579D01*
X160217863Y-115601224D01*
X160294400Y-115586000D01*
X160694400Y-115586000D01*
X160770937Y-115601224D01*
X160770937Y-115601224D01*
G37*
D13*
X160494400Y-116586000D03*
D12*
G36*
X156570937Y-101377224D02*
G01*
X156635821Y-101420579D01*
X156679176Y-101485463D01*
X156694400Y-101562000D01*
X156694400Y-103162000D01*
X156679176Y-103238537D01*
X156635821Y-103303421D01*
X156570937Y-103346776D01*
X156494400Y-103362000D01*
X156094400Y-103362000D01*
X156017863Y-103346776D01*
X155952979Y-103303421D01*
X155909624Y-103238537D01*
X155894400Y-103162000D01*
X155894400Y-101562000D01*
X155909624Y-101485463D01*
X155952979Y-101420579D01*
X156017863Y-101377224D01*
X156094400Y-101362000D01*
X156494400Y-101362000D01*
X156570937Y-101377224D01*
X156570937Y-101377224D01*
G37*
D13*
X156294400Y-102362000D03*
D12*
G36*
X160770937Y-101377224D02*
G01*
X160835821Y-101420579D01*
X160879176Y-101485463D01*
X160894400Y-101562000D01*
X160894400Y-103162000D01*
X160879176Y-103238537D01*
X160835821Y-103303421D01*
X160770937Y-103346776D01*
X160694400Y-103362000D01*
X160294400Y-103362000D01*
X160217863Y-103346776D01*
X160152979Y-103303421D01*
X160109624Y-103238537D01*
X160094400Y-103162000D01*
X160094400Y-101562000D01*
X160109624Y-101485463D01*
X160152979Y-101420579D01*
X160217863Y-101377224D01*
X160294400Y-101362000D01*
X160694400Y-101362000D01*
X160770937Y-101377224D01*
X160770937Y-101377224D01*
G37*
D13*
X160494400Y-102362000D03*
D14*
X131206000Y-113474000D03*
X131206000Y-112674000D03*
X131206000Y-111874000D03*
X131206000Y-111074000D03*
X131206000Y-110274000D03*
X131206000Y-109474000D03*
X131206000Y-108674000D03*
X131206000Y-107874000D03*
X131206000Y-107074000D03*
X131206000Y-106274000D03*
X131206000Y-105474000D03*
D15*
X132906000Y-103774000D03*
X133706000Y-103774000D03*
X134506000Y-103774000D03*
X135306000Y-103774000D03*
X136106000Y-103774000D03*
X136906000Y-103774000D03*
X137706000Y-103774000D03*
X138506000Y-103774000D03*
X139306000Y-103774000D03*
X140106000Y-103774000D03*
X140906000Y-103774000D03*
D14*
X142606000Y-105474000D03*
X142606000Y-106274000D03*
X142606000Y-107074000D03*
X142606000Y-107874000D03*
X142606000Y-108674000D03*
X142606000Y-109474000D03*
X142606000Y-110274000D03*
X142606000Y-111074000D03*
X142606000Y-111874000D03*
X142606000Y-112674000D03*
X142606000Y-113474000D03*
D15*
X140906000Y-115174000D03*
X140106000Y-115174000D03*
X139306000Y-115174000D03*
X138506000Y-115174000D03*
X137706000Y-115174000D03*
X136906000Y-115174000D03*
X136106000Y-115174000D03*
X135306000Y-115174000D03*
X134506000Y-115174000D03*
X133706000Y-115174000D03*
X132906000Y-115174000D03*
D12*
G36*
X146795387Y-116637079D02*
G01*
X146872438Y-116688562D01*
X146923921Y-116765613D01*
X146942000Y-116856500D01*
X146942000Y-117331500D01*
X146923921Y-117422387D01*
X146872438Y-117499438D01*
X146795387Y-117550921D01*
X146704500Y-117569000D01*
X146129500Y-117569000D01*
X146038613Y-117550921D01*
X145961562Y-117499438D01*
X145910079Y-117422387D01*
X145892000Y-117331500D01*
X145892000Y-116856500D01*
X145910079Y-116765613D01*
X145961562Y-116688562D01*
X146038613Y-116637079D01*
X146129500Y-116619000D01*
X146704500Y-116619000D01*
X146795387Y-116637079D01*
X146795387Y-116637079D01*
G37*
D16*
X146417000Y-117094000D03*
D12*
G36*
X145045387Y-116637079D02*
G01*
X145122438Y-116688562D01*
X145173921Y-116765613D01*
X145192000Y-116856500D01*
X145192000Y-117331500D01*
X145173921Y-117422387D01*
X145122438Y-117499438D01*
X145045387Y-117550921D01*
X144954500Y-117569000D01*
X144379500Y-117569000D01*
X144288613Y-117550921D01*
X144211562Y-117499438D01*
X144160079Y-117422387D01*
X144142000Y-117331500D01*
X144142000Y-116856500D01*
X144160079Y-116765613D01*
X144211562Y-116688562D01*
X144288613Y-116637079D01*
X144379500Y-116619000D01*
X144954500Y-116619000D01*
X145045387Y-116637079D01*
X145045387Y-116637079D01*
G37*
D16*
X144667000Y-117094000D03*
D12*
G36*
X120351268Y-101331412D02*
G01*
X120383711Y-101353089D01*
X120405388Y-101385532D01*
X120413000Y-101423800D01*
X120413000Y-101623800D01*
X120405388Y-101662068D01*
X120383711Y-101694511D01*
X120351268Y-101716188D01*
X120313000Y-101723800D01*
X119463000Y-101723800D01*
X119424732Y-101716188D01*
X119392289Y-101694511D01*
X119370612Y-101662068D01*
X119363000Y-101623800D01*
X119363000Y-101423800D01*
X119370612Y-101385532D01*
X119392289Y-101353089D01*
X119424732Y-101331412D01*
X119463000Y-101323800D01*
X120313000Y-101323800D01*
X120351268Y-101331412D01*
X120351268Y-101331412D01*
G37*
D17*
X119888000Y-101523800D03*
D12*
G36*
X122140668Y-101331412D02*
G01*
X122173111Y-101353089D01*
X122194788Y-101385532D01*
X122202400Y-101423800D01*
X122202400Y-101623800D01*
X122194788Y-101662068D01*
X122173111Y-101694511D01*
X122140668Y-101716188D01*
X122102400Y-101723800D01*
X121252400Y-101723800D01*
X121214132Y-101716188D01*
X121181689Y-101694511D01*
X121160012Y-101662068D01*
X121152400Y-101623800D01*
X121152400Y-101423800D01*
X121160012Y-101385532D01*
X121181689Y-101353089D01*
X121214132Y-101331412D01*
X121252400Y-101323800D01*
X122102400Y-101323800D01*
X122140668Y-101331412D01*
X122140668Y-101331412D01*
G37*
D17*
X121677400Y-101523800D03*
D12*
G36*
X120351268Y-101941012D02*
G01*
X120383711Y-101962689D01*
X120405388Y-101995132D01*
X120413000Y-102033400D01*
X120413000Y-102233400D01*
X120405388Y-102271668D01*
X120383711Y-102304111D01*
X120351268Y-102325788D01*
X120313000Y-102333400D01*
X119463000Y-102333400D01*
X119424732Y-102325788D01*
X119392289Y-102304111D01*
X119370612Y-102271668D01*
X119363000Y-102233400D01*
X119363000Y-102033400D01*
X119370612Y-101995132D01*
X119392289Y-101962689D01*
X119424732Y-101941012D01*
X119463000Y-101933400D01*
X120313000Y-101933400D01*
X120351268Y-101941012D01*
X120351268Y-101941012D01*
G37*
D17*
X119888000Y-102133400D03*
D12*
G36*
X122129268Y-101966412D02*
G01*
X122161711Y-101988089D01*
X122183388Y-102020532D01*
X122191000Y-102058800D01*
X122191000Y-102258800D01*
X122183388Y-102297068D01*
X122161711Y-102329511D01*
X122129268Y-102351188D01*
X122091000Y-102358800D01*
X121241000Y-102358800D01*
X121202732Y-102351188D01*
X121170289Y-102329511D01*
X121148612Y-102297068D01*
X121141000Y-102258800D01*
X121141000Y-102058800D01*
X121148612Y-102020532D01*
X121170289Y-101988089D01*
X121202732Y-101966412D01*
X121241000Y-101958800D01*
X122091000Y-101958800D01*
X122129268Y-101966412D01*
X122129268Y-101966412D01*
G37*
D17*
X121666000Y-102158800D03*
D18*
X124848000Y-102994000D03*
X127528000Y-102994000D03*
X127528000Y-105794000D03*
X124848000Y-105794000D03*
D12*
G36*
X116569387Y-101397079D02*
G01*
X116646438Y-101448562D01*
X116697921Y-101525613D01*
X116716000Y-101616500D01*
X116716000Y-102091500D01*
X116697921Y-102182387D01*
X116646438Y-102259438D01*
X116569387Y-102310921D01*
X116478500Y-102329000D01*
X115903500Y-102329000D01*
X115812613Y-102310921D01*
X115735562Y-102259438D01*
X115684079Y-102182387D01*
X115666000Y-102091500D01*
X115666000Y-101616500D01*
X115684079Y-101525613D01*
X115735562Y-101448562D01*
X115812613Y-101397079D01*
X115903500Y-101379000D01*
X116478500Y-101379000D01*
X116569387Y-101397079D01*
X116569387Y-101397079D01*
G37*
D16*
X116191000Y-101854000D03*
D12*
G36*
X114819387Y-101397079D02*
G01*
X114896438Y-101448562D01*
X114947921Y-101525613D01*
X114966000Y-101616500D01*
X114966000Y-102091500D01*
X114947921Y-102182387D01*
X114896438Y-102259438D01*
X114819387Y-102310921D01*
X114728500Y-102329000D01*
X114153500Y-102329000D01*
X114062613Y-102310921D01*
X113985562Y-102259438D01*
X113934079Y-102182387D01*
X113916000Y-102091500D01*
X113916000Y-101616500D01*
X113934079Y-101525613D01*
X113985562Y-101448562D01*
X114062613Y-101397079D01*
X114153500Y-101379000D01*
X114728500Y-101379000D01*
X114819387Y-101397079D01*
X114819387Y-101397079D01*
G37*
D16*
X114441000Y-101854000D03*
D19*
X160114500Y-110469000D03*
D20*
X157414500Y-109469000D03*
X157414500Y-108819000D03*
X157414500Y-108169000D03*
X157414500Y-110769000D03*
X157414500Y-110119000D03*
D19*
X160114500Y-108469000D03*
M02*
