G04 #@! TF.GenerationSoftware,KiCad,Pcbnew,(5.1.0-1387-g9cf427c7d)*
G04 #@! TF.CreationDate,2019-07-30T13:41:10-07:00*
G04 #@! TF.ProjectId,max_breakout,6d61785f-6272-4656-916b-6f75742e6b69,1.1*
G04 #@! TF.SameCoordinates,Original*
G04 #@! TF.FileFunction,Legend,Top*
G04 #@! TF.FilePolarity,Positive*
%FSLAX46Y46*%
G04 Gerber Fmt 4.6, Leading zero omitted, Abs format (unit mm)*
G04 Created by KiCad (PCBNEW (5.1.0-1387-g9cf427c7d)) date 2019-07-30 13:41:10*
%MOMM*%
%LPD*%
G04 APERTURE LIST*
%ADD10C,0.152400*%
%ADD11C,0.150000*%
%ADD12C,0.120000*%
G04 APERTURE END LIST*
D10*
X128705428Y-119261466D02*
X129092476Y-119261466D01*
X128628019Y-119493695D02*
X128898952Y-118680895D01*
X129169885Y-119493695D01*
X129556933Y-119029238D02*
X129479523Y-118990533D01*
X129440819Y-118951828D01*
X129402114Y-118874419D01*
X129402114Y-118835714D01*
X129440819Y-118758304D01*
X129479523Y-118719600D01*
X129556933Y-118680895D01*
X129711752Y-118680895D01*
X129789161Y-118719600D01*
X129827866Y-118758304D01*
X129866571Y-118835714D01*
X129866571Y-118874419D01*
X129827866Y-118951828D01*
X129789161Y-118990533D01*
X129711752Y-119029238D01*
X129556933Y-119029238D01*
X129479523Y-119067942D01*
X129440819Y-119106647D01*
X129402114Y-119184057D01*
X129402114Y-119338876D01*
X129440819Y-119416285D01*
X129479523Y-119454990D01*
X129556933Y-119493695D01*
X129711752Y-119493695D01*
X129789161Y-119454990D01*
X129827866Y-119416285D01*
X129866571Y-119338876D01*
X129866571Y-119184057D01*
X129827866Y-119106647D01*
X129789161Y-119067942D01*
X129711752Y-119029238D01*
X119866228Y-105269695D02*
X119401771Y-105269695D01*
X119634000Y-105269695D02*
X119634000Y-104456895D01*
X119556590Y-104573009D01*
X119479180Y-104650419D01*
X119401771Y-104689123D01*
X118131771Y-104534304D02*
X118170476Y-104495600D01*
X118247885Y-104456895D01*
X118441409Y-104456895D01*
X118518819Y-104495600D01*
X118557523Y-104534304D01*
X118596228Y-104611714D01*
X118596228Y-104689123D01*
X118557523Y-104805238D01*
X118093066Y-105269695D01*
X118596228Y-105269695D01*
X116823066Y-104456895D02*
X117326228Y-104456895D01*
X117055295Y-104766533D01*
X117171409Y-104766533D01*
X117248819Y-104805238D01*
X117287523Y-104843942D01*
X117326228Y-104921352D01*
X117326228Y-105114876D01*
X117287523Y-105192285D01*
X117248819Y-105230990D01*
X117171409Y-105269695D01*
X116939180Y-105269695D01*
X116861771Y-105230990D01*
X116823066Y-105192285D01*
X115978819Y-104727828D02*
X115978819Y-105269695D01*
X115785295Y-104418190D02*
X115591771Y-104998761D01*
X116094933Y-104998761D01*
X114747523Y-104456895D02*
X114360476Y-104456895D01*
X114321771Y-104843942D01*
X114360476Y-104805238D01*
X114437885Y-104766533D01*
X114631409Y-104766533D01*
X114708819Y-104805238D01*
X114747523Y-104843942D01*
X114786228Y-104921352D01*
X114786228Y-105114876D01*
X114747523Y-105192285D01*
X114708819Y-105230990D01*
X114631409Y-105269695D01*
X114437885Y-105269695D01*
X114360476Y-105230990D01*
X114321771Y-105192285D01*
X120865295Y-104456895D02*
X120942704Y-104456895D01*
X121020114Y-104495600D01*
X121058819Y-104534304D01*
X121097523Y-104611714D01*
X121136228Y-104766533D01*
X121136228Y-104960057D01*
X121097523Y-105114876D01*
X121058819Y-105192285D01*
X121020114Y-105230990D01*
X120942704Y-105269695D01*
X120865295Y-105269695D01*
X120787885Y-105230990D01*
X120749180Y-105192285D01*
X120710476Y-105114876D01*
X120671771Y-104960057D01*
X120671771Y-104766533D01*
X120710476Y-104611714D01*
X120749180Y-104534304D01*
X120787885Y-104495600D01*
X120865295Y-104456895D01*
X123698000Y-106462285D02*
X123770571Y-106534857D01*
X123698000Y-106607428D01*
X123625428Y-106534857D01*
X123698000Y-106462285D01*
X123698000Y-106607428D01*
X121920000Y-106716285D02*
X121992571Y-106788857D01*
X121920000Y-106861428D01*
X121847428Y-106788857D01*
X121920000Y-106716285D01*
X121920000Y-106861428D01*
X123190000Y-116368285D02*
X123262571Y-116440857D01*
X123190000Y-116513428D01*
X123117428Y-116440857D01*
X123190000Y-116368285D01*
X123190000Y-116513428D01*
X131318000Y-114844285D02*
X131390571Y-114916857D01*
X131318000Y-114989428D01*
X131245428Y-114916857D01*
X131318000Y-114844285D01*
X131318000Y-114989428D01*
X124883333Y-100900895D02*
X124496285Y-100900895D01*
X124457580Y-101287942D01*
X124496285Y-101249238D01*
X124573695Y-101210533D01*
X124767219Y-101210533D01*
X124844628Y-101249238D01*
X124883333Y-101287942D01*
X124922038Y-101365352D01*
X124922038Y-101558876D01*
X124883333Y-101636285D01*
X124844628Y-101674990D01*
X124767219Y-101713695D01*
X124573695Y-101713695D01*
X124496285Y-101674990D01*
X124457580Y-101636285D01*
X125425200Y-100900895D02*
X125502609Y-100900895D01*
X125580019Y-100939600D01*
X125618723Y-100978304D01*
X125657428Y-101055714D01*
X125696133Y-101210533D01*
X125696133Y-101404057D01*
X125657428Y-101558876D01*
X125618723Y-101636285D01*
X125580019Y-101674990D01*
X125502609Y-101713695D01*
X125425200Y-101713695D01*
X125347790Y-101674990D01*
X125309085Y-101636285D01*
X125270380Y-101558876D01*
X125231676Y-101404057D01*
X125231676Y-101210533D01*
X125270380Y-101055714D01*
X125309085Y-100978304D01*
X125347790Y-100939600D01*
X125425200Y-100900895D01*
X126044476Y-101713695D02*
X126044476Y-100900895D01*
X126315409Y-101481466D01*
X126586342Y-100900895D01*
X126586342Y-101713695D01*
X126973390Y-101713695D02*
X126973390Y-100900895D01*
X127321733Y-101713695D02*
X127321733Y-101287942D01*
X127283028Y-101210533D01*
X127205619Y-101171828D01*
X127089504Y-101171828D01*
X127012095Y-101210533D01*
X126973390Y-101249238D01*
X127631371Y-101171828D02*
X128057123Y-101171828D01*
X127631371Y-101713695D01*
X128057123Y-101713695D01*
X123090819Y-102949828D02*
X123090819Y-103491695D01*
X122897295Y-102640190D02*
X122703771Y-103220761D01*
X123206933Y-103220761D01*
X129269066Y-102678895D02*
X129772228Y-102678895D01*
X129501295Y-102988533D01*
X129617409Y-102988533D01*
X129694819Y-103027238D01*
X129733523Y-103065942D01*
X129772228Y-103143352D01*
X129772228Y-103336876D01*
X129733523Y-103414285D01*
X129694819Y-103452990D01*
X129617409Y-103491695D01*
X129385180Y-103491695D01*
X129307771Y-103452990D01*
X129269066Y-103414285D01*
X129307771Y-106058304D02*
X129346476Y-106019600D01*
X129423885Y-105980895D01*
X129617409Y-105980895D01*
X129694819Y-106019600D01*
X129733523Y-106058304D01*
X129772228Y-106135714D01*
X129772228Y-106213123D01*
X129733523Y-106329238D01*
X129269066Y-106793695D01*
X129772228Y-106793695D01*
X123168228Y-106793695D02*
X122703771Y-106793695D01*
X122936000Y-106793695D02*
X122936000Y-105980895D01*
X122858590Y-106097009D01*
X122781180Y-106174419D01*
X122703771Y-106213123D01*
X157080857Y-104202895D02*
X157080857Y-104860876D01*
X157119561Y-104938285D01*
X157158266Y-104976990D01*
X157235676Y-105015695D01*
X157390495Y-105015695D01*
X157467904Y-104976990D01*
X157506609Y-104938285D01*
X157545314Y-104860876D01*
X157545314Y-104202895D01*
X157893657Y-104976990D02*
X157971066Y-105015695D01*
X158125885Y-105015695D01*
X158203295Y-104976990D01*
X158242000Y-104899580D01*
X158242000Y-104860876D01*
X158203295Y-104783466D01*
X158125885Y-104744761D01*
X158009771Y-104744761D01*
X157932361Y-104706057D01*
X157893657Y-104628647D01*
X157893657Y-104589942D01*
X157932361Y-104512533D01*
X158009771Y-104473828D01*
X158125885Y-104473828D01*
X158203295Y-104512533D01*
X158899980Y-104976990D02*
X158822571Y-105015695D01*
X158667752Y-105015695D01*
X158590342Y-104976990D01*
X158551638Y-104899580D01*
X158551638Y-104589942D01*
X158590342Y-104512533D01*
X158667752Y-104473828D01*
X158822571Y-104473828D01*
X158899980Y-104512533D01*
X158938685Y-104589942D01*
X158938685Y-104667352D01*
X158551638Y-104744761D01*
X159287028Y-105015695D02*
X159287028Y-104473828D01*
X159287028Y-104628647D02*
X159325733Y-104551238D01*
X159364438Y-104512533D01*
X159441847Y-104473828D01*
X159519257Y-104473828D01*
X152796723Y-114147600D02*
X152719314Y-114108895D01*
X152603200Y-114108895D01*
X152487085Y-114147600D01*
X152409676Y-114225009D01*
X152370971Y-114302419D01*
X152332266Y-114457238D01*
X152332266Y-114573352D01*
X152370971Y-114728171D01*
X152409676Y-114805580D01*
X152487085Y-114882990D01*
X152603200Y-114921695D01*
X152680609Y-114921695D01*
X152796723Y-114882990D01*
X152835428Y-114844285D01*
X152835428Y-114573352D01*
X152680609Y-114573352D01*
X153183771Y-114921695D02*
X153183771Y-114108895D01*
X153648228Y-114921695D01*
X153648228Y-114108895D01*
X154035276Y-114921695D02*
X154035276Y-114108895D01*
X154228800Y-114108895D01*
X154344914Y-114147600D01*
X154422323Y-114225009D01*
X154461028Y-114302419D01*
X154499733Y-114457238D01*
X154499733Y-114573352D01*
X154461028Y-114728171D01*
X154422323Y-114805580D01*
X154344914Y-114882990D01*
X154228800Y-114921695D01*
X154035276Y-114921695D01*
X116982723Y-114413695D02*
X116982723Y-113600895D01*
X117292361Y-113600895D01*
X117369771Y-113639600D01*
X117408476Y-113678304D01*
X117447180Y-113755714D01*
X117447180Y-113871828D01*
X117408476Y-113949238D01*
X117369771Y-113987942D01*
X117292361Y-114026647D01*
X116982723Y-114026647D01*
X118066457Y-113987942D02*
X118182571Y-114026647D01*
X118221276Y-114065352D01*
X118259980Y-114142761D01*
X118259980Y-114258876D01*
X118221276Y-114336285D01*
X118182571Y-114374990D01*
X118105161Y-114413695D01*
X117795523Y-114413695D01*
X117795523Y-113600895D01*
X118066457Y-113600895D01*
X118143866Y-113639600D01*
X118182571Y-113678304D01*
X118221276Y-113755714D01*
X118221276Y-113833123D01*
X118182571Y-113910533D01*
X118143866Y-113949238D01*
X118066457Y-113987942D01*
X117795523Y-113987942D01*
X148568228Y-102577295D02*
X148103771Y-102577295D01*
X148336000Y-102577295D02*
X148336000Y-101764495D01*
X148258590Y-101880609D01*
X148181180Y-101958019D01*
X148103771Y-101996723D01*
X119256628Y-102932895D02*
X119256628Y-103590876D01*
X119295333Y-103668285D01*
X119334038Y-103706990D01*
X119411447Y-103745695D01*
X119566266Y-103745695D01*
X119643676Y-103706990D01*
X119682380Y-103668285D01*
X119721085Y-103590876D01*
X119721085Y-102932895D01*
X120069428Y-103706990D02*
X120185542Y-103745695D01*
X120379066Y-103745695D01*
X120456476Y-103706990D01*
X120495180Y-103668285D01*
X120533885Y-103590876D01*
X120533885Y-103513466D01*
X120495180Y-103436057D01*
X120456476Y-103397352D01*
X120379066Y-103358647D01*
X120224247Y-103319942D01*
X120146838Y-103281238D01*
X120108133Y-103242533D01*
X120069428Y-103165123D01*
X120069428Y-103087714D01*
X120108133Y-103010304D01*
X120146838Y-102971600D01*
X120224247Y-102932895D01*
X120417771Y-102932895D01*
X120533885Y-102971600D01*
X120882228Y-103319942D02*
X121153161Y-103319942D01*
X121269276Y-103745695D02*
X120882228Y-103745695D01*
X120882228Y-102932895D01*
X121269276Y-102932895D01*
X122082076Y-103745695D02*
X121811142Y-103358647D01*
X121617619Y-103745695D02*
X121617619Y-102932895D01*
X121927257Y-102932895D01*
X122004666Y-102971600D01*
X122043371Y-103010304D01*
X122082076Y-103087714D01*
X122082076Y-103203828D01*
X122043371Y-103281238D01*
X122004666Y-103319942D01*
X121927257Y-103358647D01*
X121617619Y-103358647D01*
X158987477Y-99662342D02*
X159103592Y-99701047D01*
X159142296Y-99739752D01*
X159181001Y-99817161D01*
X159181001Y-99933276D01*
X159142296Y-100010685D01*
X159103592Y-100049390D01*
X159026182Y-100088095D01*
X158716544Y-100088095D01*
X158716544Y-99275295D01*
X158987477Y-99275295D01*
X159064887Y-99314000D01*
X159103592Y-99352704D01*
X159142296Y-99430114D01*
X159142296Y-99507523D01*
X159103592Y-99584933D01*
X159064887Y-99623638D01*
X158987477Y-99662342D01*
X158716544Y-99662342D01*
X159451935Y-99275295D02*
X159955096Y-99275295D01*
X159684163Y-99584933D01*
X159800277Y-99584933D01*
X159877687Y-99623638D01*
X159916392Y-99662342D01*
X159955096Y-99739752D01*
X159955096Y-99933276D01*
X159916392Y-100010685D01*
X159877687Y-100049390D01*
X159800277Y-100088095D01*
X159568049Y-100088095D01*
X159490639Y-100049390D01*
X159451935Y-100010685D01*
X160264735Y-99352704D02*
X160303439Y-99314000D01*
X160380849Y-99275295D01*
X160574373Y-99275295D01*
X160651782Y-99314000D01*
X160690487Y-99352704D01*
X160729192Y-99430114D01*
X160729192Y-99507523D01*
X160690487Y-99623638D01*
X160226030Y-100088095D01*
X160729192Y-100088095D01*
X156447477Y-99662342D02*
X156563592Y-99701047D01*
X156602296Y-99739752D01*
X156641001Y-99817161D01*
X156641001Y-99933276D01*
X156602296Y-100010685D01*
X156563592Y-100049390D01*
X156486182Y-100088095D01*
X156176544Y-100088095D01*
X156176544Y-99275295D01*
X156447477Y-99275295D01*
X156524887Y-99314000D01*
X156563592Y-99352704D01*
X156602296Y-99430114D01*
X156602296Y-99507523D01*
X156563592Y-99584933D01*
X156524887Y-99623638D01*
X156447477Y-99662342D01*
X156176544Y-99662342D01*
X156911935Y-99275295D02*
X157415096Y-99275295D01*
X157144163Y-99584933D01*
X157260277Y-99584933D01*
X157337687Y-99623638D01*
X157376392Y-99662342D01*
X157415096Y-99739752D01*
X157415096Y-99933276D01*
X157376392Y-100010685D01*
X157337687Y-100049390D01*
X157260277Y-100088095D01*
X157028049Y-100088095D01*
X156950639Y-100049390D01*
X156911935Y-100010685D01*
X158189192Y-100088095D02*
X157724735Y-100088095D01*
X157956963Y-100088095D02*
X157956963Y-99275295D01*
X157879554Y-99391409D01*
X157802144Y-99468819D01*
X157724735Y-99507523D01*
X153907477Y-99662342D02*
X154023592Y-99701047D01*
X154062296Y-99739752D01*
X154101001Y-99817161D01*
X154101001Y-99933276D01*
X154062296Y-100010685D01*
X154023592Y-100049390D01*
X153946182Y-100088095D01*
X153636544Y-100088095D01*
X153636544Y-99275295D01*
X153907477Y-99275295D01*
X153984887Y-99314000D01*
X154023592Y-99352704D01*
X154062296Y-99430114D01*
X154062296Y-99507523D01*
X154023592Y-99584933D01*
X153984887Y-99623638D01*
X153907477Y-99662342D01*
X153636544Y-99662342D01*
X154371935Y-99275295D02*
X154875096Y-99275295D01*
X154604163Y-99584933D01*
X154720277Y-99584933D01*
X154797687Y-99623638D01*
X154836392Y-99662342D01*
X154875096Y-99739752D01*
X154875096Y-99933276D01*
X154836392Y-100010685D01*
X154797687Y-100049390D01*
X154720277Y-100088095D01*
X154488049Y-100088095D01*
X154410639Y-100049390D01*
X154371935Y-100010685D01*
X155378258Y-99275295D02*
X155455668Y-99275295D01*
X155533077Y-99314000D01*
X155571782Y-99352704D01*
X155610487Y-99430114D01*
X155649192Y-99584933D01*
X155649192Y-99778457D01*
X155610487Y-99933276D01*
X155571782Y-100010685D01*
X155533077Y-100049390D01*
X155455668Y-100088095D01*
X155378258Y-100088095D01*
X155300849Y-100049390D01*
X155262144Y-100010685D01*
X155223439Y-99933276D01*
X155184735Y-99778457D01*
X155184735Y-99584933D01*
X155223439Y-99430114D01*
X155262144Y-99352704D01*
X155300849Y-99314000D01*
X155378258Y-99275295D01*
X151367477Y-99662342D02*
X151483592Y-99701047D01*
X151522296Y-99739752D01*
X151561001Y-99817161D01*
X151561001Y-99933276D01*
X151522296Y-100010685D01*
X151483592Y-100049390D01*
X151406182Y-100088095D01*
X151096544Y-100088095D01*
X151096544Y-99275295D01*
X151367477Y-99275295D01*
X151444887Y-99314000D01*
X151483592Y-99352704D01*
X151522296Y-99430114D01*
X151522296Y-99507523D01*
X151483592Y-99584933D01*
X151444887Y-99623638D01*
X151367477Y-99662342D01*
X151096544Y-99662342D01*
X151870639Y-99352704D02*
X151909344Y-99314000D01*
X151986754Y-99275295D01*
X152180277Y-99275295D01*
X152257687Y-99314000D01*
X152296392Y-99352704D01*
X152335096Y-99430114D01*
X152335096Y-99507523D01*
X152296392Y-99623638D01*
X151831935Y-100088095D01*
X152335096Y-100088095D01*
X152722144Y-100088095D02*
X152876963Y-100088095D01*
X152954373Y-100049390D01*
X152993077Y-100010685D01*
X153070487Y-99894571D01*
X153109192Y-99739752D01*
X153109192Y-99430114D01*
X153070487Y-99352704D01*
X153031782Y-99314000D01*
X152954373Y-99275295D01*
X152799554Y-99275295D01*
X152722144Y-99314000D01*
X152683439Y-99352704D01*
X152644735Y-99430114D01*
X152644735Y-99623638D01*
X152683439Y-99701047D01*
X152722144Y-99739752D01*
X152799554Y-99778457D01*
X152954373Y-99778457D01*
X153031782Y-99739752D01*
X153070487Y-99701047D01*
X153109192Y-99623638D01*
X148827477Y-99662342D02*
X148943592Y-99701047D01*
X148982296Y-99739752D01*
X149021001Y-99817161D01*
X149021001Y-99933276D01*
X148982296Y-100010685D01*
X148943592Y-100049390D01*
X148866182Y-100088095D01*
X148556544Y-100088095D01*
X148556544Y-99275295D01*
X148827477Y-99275295D01*
X148904887Y-99314000D01*
X148943592Y-99352704D01*
X148982296Y-99430114D01*
X148982296Y-99507523D01*
X148943592Y-99584933D01*
X148904887Y-99623638D01*
X148827477Y-99662342D01*
X148556544Y-99662342D01*
X149330639Y-99352704D02*
X149369344Y-99314000D01*
X149446754Y-99275295D01*
X149640277Y-99275295D01*
X149717687Y-99314000D01*
X149756392Y-99352704D01*
X149795096Y-99430114D01*
X149795096Y-99507523D01*
X149756392Y-99623638D01*
X149291935Y-100088095D01*
X149795096Y-100088095D01*
X150259554Y-99623638D02*
X150182144Y-99584933D01*
X150143439Y-99546228D01*
X150104735Y-99468819D01*
X150104735Y-99430114D01*
X150143439Y-99352704D01*
X150182144Y-99314000D01*
X150259554Y-99275295D01*
X150414373Y-99275295D01*
X150491782Y-99314000D01*
X150530487Y-99352704D01*
X150569192Y-99430114D01*
X150569192Y-99468819D01*
X150530487Y-99546228D01*
X150491782Y-99584933D01*
X150414373Y-99623638D01*
X150259554Y-99623638D01*
X150182144Y-99662342D01*
X150143439Y-99701047D01*
X150104735Y-99778457D01*
X150104735Y-99933276D01*
X150143439Y-100010685D01*
X150182144Y-100049390D01*
X150259554Y-100088095D01*
X150414373Y-100088095D01*
X150491782Y-100049390D01*
X150530487Y-100010685D01*
X150569192Y-99933276D01*
X150569192Y-99778457D01*
X150530487Y-99701047D01*
X150491782Y-99662342D01*
X150414373Y-99623638D01*
X146287477Y-99662342D02*
X146403592Y-99701047D01*
X146442296Y-99739752D01*
X146481001Y-99817161D01*
X146481001Y-99933276D01*
X146442296Y-100010685D01*
X146403592Y-100049390D01*
X146326182Y-100088095D01*
X146016544Y-100088095D01*
X146016544Y-99275295D01*
X146287477Y-99275295D01*
X146364887Y-99314000D01*
X146403592Y-99352704D01*
X146442296Y-99430114D01*
X146442296Y-99507523D01*
X146403592Y-99584933D01*
X146364887Y-99623638D01*
X146287477Y-99662342D01*
X146016544Y-99662342D01*
X146790639Y-99352704D02*
X146829344Y-99314000D01*
X146906754Y-99275295D01*
X147100277Y-99275295D01*
X147177687Y-99314000D01*
X147216392Y-99352704D01*
X147255096Y-99430114D01*
X147255096Y-99507523D01*
X147216392Y-99623638D01*
X146751935Y-100088095D01*
X147255096Y-100088095D01*
X147526030Y-99275295D02*
X148067896Y-99275295D01*
X147719554Y-100088095D01*
X143747477Y-99662342D02*
X143863592Y-99701047D01*
X143902296Y-99739752D01*
X143941001Y-99817161D01*
X143941001Y-99933276D01*
X143902296Y-100010685D01*
X143863592Y-100049390D01*
X143786182Y-100088095D01*
X143476544Y-100088095D01*
X143476544Y-99275295D01*
X143747477Y-99275295D01*
X143824887Y-99314000D01*
X143863592Y-99352704D01*
X143902296Y-99430114D01*
X143902296Y-99507523D01*
X143863592Y-99584933D01*
X143824887Y-99623638D01*
X143747477Y-99662342D01*
X143476544Y-99662342D01*
X144250639Y-99352704D02*
X144289344Y-99314000D01*
X144366754Y-99275295D01*
X144560277Y-99275295D01*
X144637687Y-99314000D01*
X144676392Y-99352704D01*
X144715096Y-99430114D01*
X144715096Y-99507523D01*
X144676392Y-99623638D01*
X144211935Y-100088095D01*
X144715096Y-100088095D01*
X145411782Y-99275295D02*
X145256963Y-99275295D01*
X145179554Y-99314000D01*
X145140849Y-99352704D01*
X145063439Y-99468819D01*
X145024735Y-99623638D01*
X145024735Y-99933276D01*
X145063439Y-100010685D01*
X145102144Y-100049390D01*
X145179554Y-100088095D01*
X145334373Y-100088095D01*
X145411782Y-100049390D01*
X145450487Y-100010685D01*
X145489192Y-99933276D01*
X145489192Y-99739752D01*
X145450487Y-99662342D01*
X145411782Y-99623638D01*
X145334373Y-99584933D01*
X145179554Y-99584933D01*
X145102144Y-99623638D01*
X145063439Y-99662342D01*
X145024735Y-99739752D01*
X141207477Y-99662342D02*
X141323592Y-99701047D01*
X141362296Y-99739752D01*
X141401001Y-99817161D01*
X141401001Y-99933276D01*
X141362296Y-100010685D01*
X141323592Y-100049390D01*
X141246182Y-100088095D01*
X140936544Y-100088095D01*
X140936544Y-99275295D01*
X141207477Y-99275295D01*
X141284887Y-99314000D01*
X141323592Y-99352704D01*
X141362296Y-99430114D01*
X141362296Y-99507523D01*
X141323592Y-99584933D01*
X141284887Y-99623638D01*
X141207477Y-99662342D01*
X140936544Y-99662342D01*
X141710639Y-99352704D02*
X141749344Y-99314000D01*
X141826754Y-99275295D01*
X142020277Y-99275295D01*
X142097687Y-99314000D01*
X142136392Y-99352704D01*
X142175096Y-99430114D01*
X142175096Y-99507523D01*
X142136392Y-99623638D01*
X141671935Y-100088095D01*
X142175096Y-100088095D01*
X142871782Y-99546228D02*
X142871782Y-100088095D01*
X142678258Y-99236590D02*
X142484735Y-99817161D01*
X142987896Y-99817161D01*
X138667477Y-99662342D02*
X138783592Y-99701047D01*
X138822296Y-99739752D01*
X138861001Y-99817161D01*
X138861001Y-99933276D01*
X138822296Y-100010685D01*
X138783592Y-100049390D01*
X138706182Y-100088095D01*
X138396544Y-100088095D01*
X138396544Y-99275295D01*
X138667477Y-99275295D01*
X138744887Y-99314000D01*
X138783592Y-99352704D01*
X138822296Y-99430114D01*
X138822296Y-99507523D01*
X138783592Y-99584933D01*
X138744887Y-99623638D01*
X138667477Y-99662342D01*
X138396544Y-99662342D01*
X139170639Y-99352704D02*
X139209344Y-99314000D01*
X139286754Y-99275295D01*
X139480277Y-99275295D01*
X139557687Y-99314000D01*
X139596392Y-99352704D01*
X139635096Y-99430114D01*
X139635096Y-99507523D01*
X139596392Y-99623638D01*
X139131935Y-100088095D01*
X139635096Y-100088095D01*
X139906030Y-99275295D02*
X140409192Y-99275295D01*
X140138258Y-99584933D01*
X140254373Y-99584933D01*
X140331782Y-99623638D01*
X140370487Y-99662342D01*
X140409192Y-99739752D01*
X140409192Y-99933276D01*
X140370487Y-100010685D01*
X140331782Y-100049390D01*
X140254373Y-100088095D01*
X140022144Y-100088095D01*
X139944735Y-100049390D01*
X139906030Y-100010685D01*
X136127477Y-99662342D02*
X136243592Y-99701047D01*
X136282296Y-99739752D01*
X136321001Y-99817161D01*
X136321001Y-99933276D01*
X136282296Y-100010685D01*
X136243592Y-100049390D01*
X136166182Y-100088095D01*
X135856544Y-100088095D01*
X135856544Y-99275295D01*
X136127477Y-99275295D01*
X136204887Y-99314000D01*
X136243592Y-99352704D01*
X136282296Y-99430114D01*
X136282296Y-99507523D01*
X136243592Y-99584933D01*
X136204887Y-99623638D01*
X136127477Y-99662342D01*
X135856544Y-99662342D01*
X136630639Y-99352704D02*
X136669344Y-99314000D01*
X136746754Y-99275295D01*
X136940277Y-99275295D01*
X137017687Y-99314000D01*
X137056392Y-99352704D01*
X137095096Y-99430114D01*
X137095096Y-99507523D01*
X137056392Y-99623638D01*
X136591935Y-100088095D01*
X137095096Y-100088095D01*
X137404735Y-99352704D02*
X137443439Y-99314000D01*
X137520849Y-99275295D01*
X137714373Y-99275295D01*
X137791782Y-99314000D01*
X137830487Y-99352704D01*
X137869192Y-99430114D01*
X137869192Y-99507523D01*
X137830487Y-99623638D01*
X137366030Y-100088095D01*
X137869192Y-100088095D01*
X133587477Y-99662342D02*
X133703592Y-99701047D01*
X133742296Y-99739752D01*
X133781001Y-99817161D01*
X133781001Y-99933276D01*
X133742296Y-100010685D01*
X133703592Y-100049390D01*
X133626182Y-100088095D01*
X133316544Y-100088095D01*
X133316544Y-99275295D01*
X133587477Y-99275295D01*
X133664887Y-99314000D01*
X133703592Y-99352704D01*
X133742296Y-99430114D01*
X133742296Y-99507523D01*
X133703592Y-99584933D01*
X133664887Y-99623638D01*
X133587477Y-99662342D01*
X133316544Y-99662342D01*
X134090639Y-99352704D02*
X134129344Y-99314000D01*
X134206754Y-99275295D01*
X134400277Y-99275295D01*
X134477687Y-99314000D01*
X134516392Y-99352704D01*
X134555096Y-99430114D01*
X134555096Y-99507523D01*
X134516392Y-99623638D01*
X134051935Y-100088095D01*
X134555096Y-100088095D01*
X135329192Y-100088095D02*
X134864735Y-100088095D01*
X135096963Y-100088095D02*
X135096963Y-99275295D01*
X135019554Y-99391409D01*
X134942144Y-99468819D01*
X134864735Y-99507523D01*
X131047477Y-99662342D02*
X131163592Y-99701047D01*
X131202296Y-99739752D01*
X131241001Y-99817161D01*
X131241001Y-99933276D01*
X131202296Y-100010685D01*
X131163592Y-100049390D01*
X131086182Y-100088095D01*
X130776544Y-100088095D01*
X130776544Y-99275295D01*
X131047477Y-99275295D01*
X131124887Y-99314000D01*
X131163592Y-99352704D01*
X131202296Y-99430114D01*
X131202296Y-99507523D01*
X131163592Y-99584933D01*
X131124887Y-99623638D01*
X131047477Y-99662342D01*
X130776544Y-99662342D01*
X132015096Y-100088095D02*
X131550639Y-100088095D01*
X131782868Y-100088095D02*
X131782868Y-99275295D01*
X131705458Y-99391409D01*
X131628049Y-99468819D01*
X131550639Y-99507523D01*
X132402144Y-100088095D02*
X132556963Y-100088095D01*
X132634373Y-100049390D01*
X132673077Y-100010685D01*
X132750487Y-99894571D01*
X132789192Y-99739752D01*
X132789192Y-99430114D01*
X132750487Y-99352704D01*
X132711782Y-99314000D01*
X132634373Y-99275295D01*
X132479554Y-99275295D01*
X132402144Y-99314000D01*
X132363439Y-99352704D01*
X132324735Y-99430114D01*
X132324735Y-99623638D01*
X132363439Y-99701047D01*
X132402144Y-99739752D01*
X132479554Y-99778457D01*
X132634373Y-99778457D01*
X132711782Y-99739752D01*
X132750487Y-99701047D01*
X132789192Y-99623638D01*
X128507477Y-99662342D02*
X128623592Y-99701047D01*
X128662296Y-99739752D01*
X128701001Y-99817161D01*
X128701001Y-99933276D01*
X128662296Y-100010685D01*
X128623592Y-100049390D01*
X128546182Y-100088095D01*
X128236544Y-100088095D01*
X128236544Y-99275295D01*
X128507477Y-99275295D01*
X128584887Y-99314000D01*
X128623592Y-99352704D01*
X128662296Y-99430114D01*
X128662296Y-99507523D01*
X128623592Y-99584933D01*
X128584887Y-99623638D01*
X128507477Y-99662342D01*
X128236544Y-99662342D01*
X129475096Y-100088095D02*
X129010639Y-100088095D01*
X129242868Y-100088095D02*
X129242868Y-99275295D01*
X129165458Y-99391409D01*
X129088049Y-99468819D01*
X129010639Y-99507523D01*
X129939554Y-99623638D02*
X129862144Y-99584933D01*
X129823439Y-99546228D01*
X129784735Y-99468819D01*
X129784735Y-99430114D01*
X129823439Y-99352704D01*
X129862144Y-99314000D01*
X129939554Y-99275295D01*
X130094373Y-99275295D01*
X130171782Y-99314000D01*
X130210487Y-99352704D01*
X130249192Y-99430114D01*
X130249192Y-99468819D01*
X130210487Y-99546228D01*
X130171782Y-99584933D01*
X130094373Y-99623638D01*
X129939554Y-99623638D01*
X129862144Y-99662342D01*
X129823439Y-99701047D01*
X129784735Y-99778457D01*
X129784735Y-99933276D01*
X129823439Y-100010685D01*
X129862144Y-100049390D01*
X129939554Y-100088095D01*
X130094373Y-100088095D01*
X130171782Y-100049390D01*
X130210487Y-100010685D01*
X130249192Y-99933276D01*
X130249192Y-99778457D01*
X130210487Y-99701047D01*
X130171782Y-99662342D01*
X130094373Y-99623638D01*
X125967477Y-99662342D02*
X126083592Y-99701047D01*
X126122296Y-99739752D01*
X126161001Y-99817161D01*
X126161001Y-99933276D01*
X126122296Y-100010685D01*
X126083592Y-100049390D01*
X126006182Y-100088095D01*
X125696544Y-100088095D01*
X125696544Y-99275295D01*
X125967477Y-99275295D01*
X126044887Y-99314000D01*
X126083592Y-99352704D01*
X126122296Y-99430114D01*
X126122296Y-99507523D01*
X126083592Y-99584933D01*
X126044887Y-99623638D01*
X125967477Y-99662342D01*
X125696544Y-99662342D01*
X126935096Y-100088095D02*
X126470639Y-100088095D01*
X126702868Y-100088095D02*
X126702868Y-99275295D01*
X126625458Y-99391409D01*
X126548049Y-99468819D01*
X126470639Y-99507523D01*
X127206030Y-99275295D02*
X127747896Y-99275295D01*
X127399554Y-100088095D01*
X123659706Y-100010685D02*
X123621001Y-100049390D01*
X123504887Y-100088095D01*
X123427477Y-100088095D01*
X123311363Y-100049390D01*
X123233954Y-99971980D01*
X123195249Y-99894571D01*
X123156544Y-99739752D01*
X123156544Y-99623638D01*
X123195249Y-99468819D01*
X123233954Y-99391409D01*
X123311363Y-99314000D01*
X123427477Y-99275295D01*
X123504887Y-99275295D01*
X123621001Y-99314000D01*
X123659706Y-99352704D01*
X124395096Y-100088095D02*
X124008049Y-100088095D01*
X124008049Y-99275295D01*
X125130487Y-100088095D02*
X124859554Y-99701047D01*
X124666030Y-100088095D02*
X124666030Y-99275295D01*
X124975668Y-99275295D01*
X125053077Y-99314000D01*
X125091782Y-99352704D01*
X125130487Y-99430114D01*
X125130487Y-99546228D01*
X125091782Y-99623638D01*
X125053077Y-99662342D01*
X124975668Y-99701047D01*
X124666030Y-99701047D01*
X120771363Y-99275295D02*
X120926182Y-99275295D01*
X121003592Y-99314000D01*
X121081001Y-99391409D01*
X121119706Y-99546228D01*
X121119706Y-99817161D01*
X121081001Y-99971980D01*
X121003592Y-100049390D01*
X120926182Y-100088095D01*
X120771363Y-100088095D01*
X120693954Y-100049390D01*
X120616544Y-99971980D01*
X120577839Y-99817161D01*
X120577839Y-99546228D01*
X120616544Y-99391409D01*
X120693954Y-99314000D01*
X120771363Y-99275295D01*
X121468049Y-99662342D02*
X121738982Y-99662342D01*
X121855096Y-100088095D02*
X121468049Y-100088095D01*
X121468049Y-99275295D01*
X121855096Y-99275295D01*
X122629192Y-100088095D02*
X122164735Y-100088095D01*
X122396963Y-100088095D02*
X122396963Y-99275295D01*
X122319554Y-99391409D01*
X122242144Y-99468819D01*
X122164735Y-99507523D01*
X116059058Y-100010685D02*
X116020354Y-100049390D01*
X115904239Y-100088095D01*
X115826830Y-100088095D01*
X115710716Y-100049390D01*
X115633306Y-99971980D01*
X115594601Y-99894571D01*
X115555896Y-99739752D01*
X115555896Y-99623638D01*
X115594601Y-99468819D01*
X115633306Y-99391409D01*
X115710716Y-99314000D01*
X115826830Y-99275295D01*
X115904239Y-99275295D01*
X116020354Y-99314000D01*
X116059058Y-99352704D01*
X116794449Y-100088095D02*
X116407401Y-100088095D01*
X116407401Y-99275295D01*
X117491135Y-100088095D02*
X117026677Y-100088095D01*
X117258906Y-100088095D02*
X117258906Y-99275295D01*
X117181496Y-99391409D01*
X117104087Y-99468819D01*
X117026677Y-99507523D01*
X118599058Y-100010685D02*
X118560354Y-100049390D01*
X118444239Y-100088095D01*
X118366830Y-100088095D01*
X118250716Y-100049390D01*
X118173306Y-99971980D01*
X118134601Y-99894571D01*
X118095896Y-99739752D01*
X118095896Y-99623638D01*
X118134601Y-99468819D01*
X118173306Y-99391409D01*
X118250716Y-99314000D01*
X118366830Y-99275295D01*
X118444239Y-99275295D01*
X118560354Y-99314000D01*
X118599058Y-99352704D01*
X119334449Y-100088095D02*
X118947401Y-100088095D01*
X118947401Y-99275295D01*
X119566677Y-99352704D02*
X119605382Y-99314000D01*
X119682792Y-99275295D01*
X119876316Y-99275295D01*
X119953725Y-99314000D01*
X119992430Y-99352704D01*
X120031135Y-99430114D01*
X120031135Y-99507523D01*
X119992430Y-99623638D01*
X119527973Y-100088095D01*
X120031135Y-100088095D01*
X113828696Y-99275295D02*
X113441649Y-99275295D01*
X113402944Y-99662342D01*
X113441649Y-99623638D01*
X113519058Y-99584933D01*
X113712582Y-99584933D01*
X113789992Y-99623638D01*
X113828696Y-99662342D01*
X113867401Y-99739752D01*
X113867401Y-99933276D01*
X113828696Y-100010685D01*
X113789992Y-100049390D01*
X113712582Y-100088095D01*
X113519058Y-100088095D01*
X113441649Y-100049390D01*
X113402944Y-100010685D01*
X114099630Y-99275295D02*
X114370563Y-100088095D01*
X114641496Y-99275295D01*
X159146723Y-118719600D02*
X159069314Y-118680895D01*
X158953200Y-118680895D01*
X158837085Y-118719600D01*
X158759676Y-118797009D01*
X158720971Y-118874419D01*
X158682266Y-119029238D01*
X158682266Y-119145352D01*
X158720971Y-119300171D01*
X158759676Y-119377580D01*
X158837085Y-119454990D01*
X158953200Y-119493695D01*
X159030609Y-119493695D01*
X159146723Y-119454990D01*
X159185428Y-119416285D01*
X159185428Y-119145352D01*
X159030609Y-119145352D01*
X159533771Y-119493695D02*
X159533771Y-118680895D01*
X159998228Y-119493695D01*
X159998228Y-118680895D01*
X160385276Y-119493695D02*
X160385276Y-118680895D01*
X160578800Y-118680895D01*
X160694914Y-118719600D01*
X160772323Y-118797009D01*
X160811028Y-118874419D01*
X160849733Y-119029238D01*
X160849733Y-119145352D01*
X160811028Y-119300171D01*
X160772323Y-119377580D01*
X160694914Y-119454990D01*
X160578800Y-119493695D01*
X160385276Y-119493695D01*
X156161619Y-118680895D02*
X156626076Y-118680895D01*
X156393847Y-119493695D02*
X156393847Y-118680895D01*
X156897009Y-119493695D02*
X156897009Y-118680895D01*
X157090533Y-118680895D01*
X157206647Y-118719600D01*
X157284057Y-118797009D01*
X157322761Y-118874419D01*
X157361466Y-119029238D01*
X157361466Y-119145352D01*
X157322761Y-119300171D01*
X157284057Y-119377580D01*
X157206647Y-119454990D01*
X157090533Y-119493695D01*
X156897009Y-119493695D01*
X157864628Y-118680895D02*
X158019447Y-118680895D01*
X158096857Y-118719600D01*
X158174266Y-118797009D01*
X158212971Y-118951828D01*
X158212971Y-119222761D01*
X158174266Y-119377580D01*
X158096857Y-119454990D01*
X158019447Y-119493695D01*
X157864628Y-119493695D01*
X157787219Y-119454990D01*
X157709809Y-119377580D01*
X157671104Y-119222761D01*
X157671104Y-118951828D01*
X157709809Y-118797009D01*
X157787219Y-118719600D01*
X157864628Y-118680895D01*
X153853847Y-118680895D02*
X154318304Y-118680895D01*
X154086076Y-119493695D02*
X154086076Y-118680895D01*
X154589238Y-119493695D02*
X154589238Y-118680895D01*
X154782761Y-118680895D01*
X154898876Y-118719600D01*
X154976285Y-118797009D01*
X155014990Y-118874419D01*
X155053695Y-119029238D01*
X155053695Y-119145352D01*
X155014990Y-119300171D01*
X154976285Y-119377580D01*
X154898876Y-119454990D01*
X154782761Y-119493695D01*
X154589238Y-119493695D01*
X155402038Y-119493695D02*
X155402038Y-118680895D01*
X151062266Y-118680895D02*
X151526723Y-118680895D01*
X151294495Y-119493695D02*
X151294495Y-118680895D01*
X151797657Y-119493695D02*
X151797657Y-118680895D01*
X152068590Y-119261466D01*
X152339523Y-118680895D01*
X152339523Y-119493695D01*
X152687866Y-119454990D02*
X152803980Y-119493695D01*
X152997504Y-119493695D01*
X153074914Y-119454990D01*
X153113619Y-119416285D01*
X153152323Y-119338876D01*
X153152323Y-119261466D01*
X153113619Y-119184057D01*
X153074914Y-119145352D01*
X152997504Y-119106647D01*
X152842685Y-119067942D01*
X152765276Y-119029238D01*
X152726571Y-118990533D01*
X152687866Y-118913123D01*
X152687866Y-118835714D01*
X152726571Y-118758304D01*
X152765276Y-118719600D01*
X152842685Y-118680895D01*
X153036209Y-118680895D01*
X153152323Y-118719600D01*
X148560971Y-118680895D02*
X149025428Y-118680895D01*
X148793200Y-119493695D02*
X148793200Y-118680895D01*
X149760819Y-119416285D02*
X149722114Y-119454990D01*
X149606000Y-119493695D01*
X149528590Y-119493695D01*
X149412476Y-119454990D01*
X149335066Y-119377580D01*
X149296361Y-119300171D01*
X149257657Y-119145352D01*
X149257657Y-119029238D01*
X149296361Y-118874419D01*
X149335066Y-118797009D01*
X149412476Y-118719600D01*
X149528590Y-118680895D01*
X149606000Y-118680895D01*
X149722114Y-118719600D01*
X149760819Y-118758304D01*
X150109161Y-119493695D02*
X150109161Y-118680895D01*
X150573619Y-119493695D02*
X150225276Y-119029238D01*
X150573619Y-118680895D02*
X150109161Y-119145352D01*
X146098380Y-119261466D02*
X146485428Y-119261466D01*
X146020971Y-119493695D02*
X146291904Y-118680895D01*
X146562838Y-119493695D01*
X147259523Y-119493695D02*
X146795066Y-119493695D01*
X147027295Y-119493695D02*
X147027295Y-118680895D01*
X146949885Y-118797009D01*
X146872476Y-118874419D01*
X146795066Y-118913123D01*
X147956209Y-118680895D02*
X147801390Y-118680895D01*
X147723980Y-118719600D01*
X147685276Y-118758304D01*
X147607866Y-118874419D01*
X147569161Y-119029238D01*
X147569161Y-119338876D01*
X147607866Y-119416285D01*
X147646571Y-119454990D01*
X147723980Y-119493695D01*
X147878800Y-119493695D01*
X147956209Y-119454990D01*
X147994914Y-119416285D01*
X148033619Y-119338876D01*
X148033619Y-119145352D01*
X147994914Y-119067942D01*
X147956209Y-119029238D01*
X147878800Y-118990533D01*
X147723980Y-118990533D01*
X147646571Y-119029238D01*
X147607866Y-119067942D01*
X147569161Y-119145352D01*
X143558380Y-119261466D02*
X143945428Y-119261466D01*
X143480971Y-119493695D02*
X143751904Y-118680895D01*
X144022838Y-119493695D01*
X144719523Y-119493695D02*
X144255066Y-119493695D01*
X144487295Y-119493695D02*
X144487295Y-118680895D01*
X144409885Y-118797009D01*
X144332476Y-118874419D01*
X144255066Y-118913123D01*
X145454914Y-118680895D02*
X145067866Y-118680895D01*
X145029161Y-119067942D01*
X145067866Y-119029238D01*
X145145276Y-118990533D01*
X145338800Y-118990533D01*
X145416209Y-119029238D01*
X145454914Y-119067942D01*
X145493619Y-119145352D01*
X145493619Y-119338876D01*
X145454914Y-119416285D01*
X145416209Y-119454990D01*
X145338800Y-119493695D01*
X145145276Y-119493695D01*
X145067866Y-119454990D01*
X145029161Y-119416285D01*
X141018380Y-119261466D02*
X141405428Y-119261466D01*
X140940971Y-119493695D02*
X141211904Y-118680895D01*
X141482838Y-119493695D01*
X142179523Y-119493695D02*
X141715066Y-119493695D01*
X141947295Y-119493695D02*
X141947295Y-118680895D01*
X141869885Y-118797009D01*
X141792476Y-118874419D01*
X141715066Y-118913123D01*
X142876209Y-118951828D02*
X142876209Y-119493695D01*
X142682685Y-118642190D02*
X142489161Y-119222761D01*
X142992323Y-119222761D01*
X138478380Y-119261466D02*
X138865428Y-119261466D01*
X138400971Y-119493695D02*
X138671904Y-118680895D01*
X138942838Y-119493695D01*
X139639523Y-119493695D02*
X139175066Y-119493695D01*
X139407295Y-119493695D02*
X139407295Y-118680895D01*
X139329885Y-118797009D01*
X139252476Y-118874419D01*
X139175066Y-118913123D01*
X139910457Y-118680895D02*
X140413619Y-118680895D01*
X140142685Y-118990533D01*
X140258800Y-118990533D01*
X140336209Y-119029238D01*
X140374914Y-119067942D01*
X140413619Y-119145352D01*
X140413619Y-119338876D01*
X140374914Y-119416285D01*
X140336209Y-119454990D01*
X140258800Y-119493695D01*
X140026571Y-119493695D01*
X139949161Y-119454990D01*
X139910457Y-119416285D01*
X135938380Y-119261466D02*
X136325428Y-119261466D01*
X135860971Y-119493695D02*
X136131904Y-118680895D01*
X136402838Y-119493695D01*
X137099523Y-119493695D02*
X136635066Y-119493695D01*
X136867295Y-119493695D02*
X136867295Y-118680895D01*
X136789885Y-118797009D01*
X136712476Y-118874419D01*
X136635066Y-118913123D01*
X137409161Y-118758304D02*
X137447866Y-118719600D01*
X137525276Y-118680895D01*
X137718800Y-118680895D01*
X137796209Y-118719600D01*
X137834914Y-118758304D01*
X137873619Y-118835714D01*
X137873619Y-118913123D01*
X137834914Y-119029238D01*
X137370457Y-119493695D01*
X137873619Y-119493695D01*
X133398380Y-119261466D02*
X133785428Y-119261466D01*
X133320971Y-119493695D02*
X133591904Y-118680895D01*
X133862838Y-119493695D01*
X134559523Y-119493695D02*
X134095066Y-119493695D01*
X134327295Y-119493695D02*
X134327295Y-118680895D01*
X134249885Y-118797009D01*
X134172476Y-118874419D01*
X134095066Y-118913123D01*
X135333619Y-119493695D02*
X134869161Y-119493695D01*
X135101390Y-119493695D02*
X135101390Y-118680895D01*
X135023980Y-118797009D01*
X134946571Y-118874419D01*
X134869161Y-118913123D01*
X130858380Y-119261466D02*
X131245428Y-119261466D01*
X130780971Y-119493695D02*
X131051904Y-118680895D01*
X131322838Y-119493695D01*
X132019523Y-119493695D02*
X131555066Y-119493695D01*
X131787295Y-119493695D02*
X131787295Y-118680895D01*
X131709885Y-118797009D01*
X131632476Y-118874419D01*
X131555066Y-118913123D01*
X132522685Y-118680895D02*
X132600095Y-118680895D01*
X132677504Y-118719600D01*
X132716209Y-118758304D01*
X132754914Y-118835714D01*
X132793619Y-118990533D01*
X132793619Y-119184057D01*
X132754914Y-119338876D01*
X132716209Y-119416285D01*
X132677504Y-119454990D01*
X132600095Y-119493695D01*
X132522685Y-119493695D01*
X132445276Y-119454990D01*
X132406571Y-119416285D01*
X132367866Y-119338876D01*
X132329161Y-119184057D01*
X132329161Y-118990533D01*
X132367866Y-118835714D01*
X132406571Y-118758304D01*
X132445276Y-118719600D01*
X132522685Y-118680895D01*
X126165428Y-119261466D02*
X126552476Y-119261466D01*
X126088019Y-119493695D02*
X126358952Y-118680895D01*
X126629885Y-119493695D01*
X126823409Y-118680895D02*
X127365276Y-118680895D01*
X127016933Y-119493695D01*
X123625428Y-119261466D02*
X124012476Y-119261466D01*
X123548019Y-119493695D02*
X123818952Y-118680895D01*
X124089885Y-119493695D01*
X124747866Y-118680895D02*
X124360819Y-118680895D01*
X124322114Y-119067942D01*
X124360819Y-119029238D01*
X124438228Y-118990533D01*
X124631752Y-118990533D01*
X124709161Y-119029238D01*
X124747866Y-119067942D01*
X124786571Y-119145352D01*
X124786571Y-119338876D01*
X124747866Y-119416285D01*
X124709161Y-119454990D01*
X124631752Y-119493695D01*
X124438228Y-119493695D01*
X124360819Y-119454990D01*
X124322114Y-119416285D01*
X121085428Y-119261466D02*
X121472476Y-119261466D01*
X121008019Y-119493695D02*
X121278952Y-118680895D01*
X121549885Y-119493695D01*
X122169161Y-118951828D02*
X122169161Y-119493695D01*
X121975638Y-118642190D02*
X121782114Y-119222761D01*
X122285276Y-119222761D01*
X118545428Y-119261466D02*
X118932476Y-119261466D01*
X118468019Y-119493695D02*
X118738952Y-118680895D01*
X119009885Y-119493695D01*
X119203409Y-118680895D02*
X119706571Y-118680895D01*
X119435638Y-118990533D01*
X119551752Y-118990533D01*
X119629161Y-119029238D01*
X119667866Y-119067942D01*
X119706571Y-119145352D01*
X119706571Y-119338876D01*
X119667866Y-119416285D01*
X119629161Y-119454990D01*
X119551752Y-119493695D01*
X119319523Y-119493695D01*
X119242114Y-119454990D01*
X119203409Y-119416285D01*
X116005428Y-119261466D02*
X116392476Y-119261466D01*
X115928019Y-119493695D02*
X116198952Y-118680895D01*
X116469885Y-119493695D01*
X116702114Y-118758304D02*
X116740819Y-118719600D01*
X116818228Y-118680895D01*
X117011752Y-118680895D01*
X117089161Y-118719600D01*
X117127866Y-118758304D01*
X117166571Y-118835714D01*
X117166571Y-118913123D01*
X117127866Y-119029238D01*
X116663409Y-119493695D01*
X117166571Y-119493695D01*
X113465428Y-119261466D02*
X113852476Y-119261466D01*
X113388019Y-119493695D02*
X113658952Y-118680895D01*
X113929885Y-119493695D01*
X114626571Y-119493695D02*
X114162114Y-119493695D01*
X114394342Y-119493695D02*
X114394342Y-118680895D01*
X114316933Y-118797009D01*
X114239523Y-118874419D01*
X114162114Y-118913123D01*
X120381485Y-114413695D02*
X119994438Y-114413695D01*
X119994438Y-113600895D01*
X120652419Y-113987942D02*
X120923352Y-113987942D01*
X121039466Y-114413695D02*
X120652419Y-114413695D01*
X120652419Y-113600895D01*
X121039466Y-113600895D01*
X121387809Y-114413695D02*
X121387809Y-113600895D01*
X121581333Y-113600895D01*
X121697447Y-113639600D01*
X121774857Y-113717009D01*
X121813561Y-113794419D01*
X121852266Y-113949238D01*
X121852266Y-114065352D01*
X121813561Y-114220171D01*
X121774857Y-114297580D01*
X121697447Y-114374990D01*
X121581333Y-114413695D01*
X121387809Y-114413695D01*
X113603314Y-114374990D02*
X113719428Y-114413695D01*
X113912952Y-114413695D01*
X113990361Y-114374990D01*
X114029066Y-114336285D01*
X114067771Y-114258876D01*
X114067771Y-114181466D01*
X114029066Y-114104057D01*
X113990361Y-114065352D01*
X113912952Y-114026647D01*
X113758133Y-113987942D01*
X113680723Y-113949238D01*
X113642019Y-113910533D01*
X113603314Y-113833123D01*
X113603314Y-113755714D01*
X113642019Y-113678304D01*
X113680723Y-113639600D01*
X113758133Y-113600895D01*
X113951657Y-113600895D01*
X114067771Y-113639600D01*
X114338704Y-113600895D02*
X114532228Y-114413695D01*
X114687047Y-113833123D01*
X114841866Y-114413695D01*
X115035390Y-113600895D01*
X152332266Y-106488895D02*
X152603200Y-107301695D01*
X152874133Y-106488895D01*
X153609523Y-107224285D02*
X153570819Y-107262990D01*
X153454704Y-107301695D01*
X153377295Y-107301695D01*
X153261180Y-107262990D01*
X153183771Y-107185580D01*
X153145066Y-107108171D01*
X153106361Y-106953352D01*
X153106361Y-106837238D01*
X153145066Y-106682419D01*
X153183771Y-106605009D01*
X153261180Y-106527600D01*
X153377295Y-106488895D01*
X153454704Y-106488895D01*
X153570819Y-106527600D01*
X153609523Y-106566304D01*
X154422323Y-107224285D02*
X154383619Y-107262990D01*
X154267504Y-107301695D01*
X154190095Y-107301695D01*
X154073980Y-107262990D01*
X153996571Y-107185580D01*
X153957866Y-107108171D01*
X153919161Y-106953352D01*
X153919161Y-106837238D01*
X153957866Y-106682419D01*
X153996571Y-106605009D01*
X154073980Y-106527600D01*
X154190095Y-106488895D01*
X154267504Y-106488895D01*
X154383619Y-106527600D01*
X154422323Y-106566304D01*
X157235676Y-114667695D02*
X156964742Y-114280647D01*
X156771219Y-114667695D02*
X156771219Y-113854895D01*
X157080857Y-113854895D01*
X157158266Y-113893600D01*
X157196971Y-113932304D01*
X157235676Y-114009714D01*
X157235676Y-114125828D01*
X157196971Y-114203238D01*
X157158266Y-114241942D01*
X157080857Y-114280647D01*
X156771219Y-114280647D01*
X157893657Y-114628990D02*
X157816247Y-114667695D01*
X157661428Y-114667695D01*
X157584019Y-114628990D01*
X157545314Y-114551580D01*
X157545314Y-114241942D01*
X157584019Y-114164533D01*
X157661428Y-114125828D01*
X157816247Y-114125828D01*
X157893657Y-114164533D01*
X157932361Y-114241942D01*
X157932361Y-114319352D01*
X157545314Y-114396761D01*
X158242000Y-114628990D02*
X158319409Y-114667695D01*
X158474228Y-114667695D01*
X158551638Y-114628990D01*
X158590342Y-114551580D01*
X158590342Y-114512876D01*
X158551638Y-114435466D01*
X158474228Y-114396761D01*
X158358114Y-114396761D01*
X158280704Y-114358057D01*
X158242000Y-114280647D01*
X158242000Y-114241942D01*
X158280704Y-114164533D01*
X158358114Y-114125828D01*
X158474228Y-114125828D01*
X158551638Y-114164533D01*
X159248323Y-114628990D02*
X159170914Y-114667695D01*
X159016095Y-114667695D01*
X158938685Y-114628990D01*
X158899980Y-114551580D01*
X158899980Y-114241942D01*
X158938685Y-114164533D01*
X159016095Y-114125828D01*
X159170914Y-114125828D01*
X159248323Y-114164533D01*
X159287028Y-114241942D01*
X159287028Y-114319352D01*
X158899980Y-114396761D01*
X159519257Y-114125828D02*
X159828895Y-114125828D01*
X159635371Y-113854895D02*
X159635371Y-114551580D01*
X159674076Y-114628990D01*
X159751485Y-114667695D01*
X159828895Y-114667695D01*
X152796723Y-103987600D02*
X152719314Y-103948895D01*
X152603200Y-103948895D01*
X152487085Y-103987600D01*
X152409676Y-104065009D01*
X152370971Y-104142419D01*
X152332266Y-104297238D01*
X152332266Y-104413352D01*
X152370971Y-104568171D01*
X152409676Y-104645580D01*
X152487085Y-104722990D01*
X152603200Y-104761695D01*
X152680609Y-104761695D01*
X152796723Y-104722990D01*
X152835428Y-104684285D01*
X152835428Y-104413352D01*
X152680609Y-104413352D01*
X153183771Y-104761695D02*
X153183771Y-103948895D01*
X153648228Y-104761695D01*
X153648228Y-103948895D01*
X154035276Y-104761695D02*
X154035276Y-103948895D01*
X154228800Y-103948895D01*
X154344914Y-103987600D01*
X154422323Y-104065009D01*
X154461028Y-104142419D01*
X154499733Y-104297238D01*
X154499733Y-104413352D01*
X154461028Y-104568171D01*
X154422323Y-104645580D01*
X154344914Y-104722990D01*
X154228800Y-104761695D01*
X154035276Y-104761695D01*
X132435600Y-117035942D02*
X132706533Y-117035942D01*
X132822647Y-117461695D02*
X132435600Y-117461695D01*
X132435600Y-116648895D01*
X132822647Y-116648895D01*
X133170990Y-117461695D02*
X133170990Y-116648895D01*
X133480628Y-116648895D01*
X133558038Y-116687600D01*
X133596742Y-116726304D01*
X133635447Y-116803714D01*
X133635447Y-116919828D01*
X133596742Y-116997238D01*
X133558038Y-117035942D01*
X133480628Y-117074647D01*
X133170990Y-117074647D01*
X133983790Y-117461695D02*
X133983790Y-116648895D01*
X134254723Y-117229466D01*
X134525657Y-116648895D01*
X134525657Y-117461695D01*
X134835295Y-116648895D02*
X135377161Y-116648895D01*
X135028819Y-117461695D01*
X135841619Y-116648895D02*
X135919028Y-116648895D01*
X135996438Y-116687600D01*
X136035142Y-116726304D01*
X136073847Y-116803714D01*
X136112552Y-116958533D01*
X136112552Y-117152057D01*
X136073847Y-117306876D01*
X136035142Y-117384285D01*
X135996438Y-117422990D01*
X135919028Y-117461695D01*
X135841619Y-117461695D01*
X135764209Y-117422990D01*
X135725504Y-117384285D01*
X135686800Y-117306876D01*
X135648095Y-117152057D01*
X135648095Y-116958533D01*
X135686800Y-116803714D01*
X135725504Y-116726304D01*
X135764209Y-116687600D01*
X135841619Y-116648895D01*
X136383485Y-116648895D02*
X136886647Y-116648895D01*
X136615714Y-116958533D01*
X136731828Y-116958533D01*
X136809238Y-116997238D01*
X136847942Y-117035942D01*
X136886647Y-117113352D01*
X136886647Y-117306876D01*
X136847942Y-117384285D01*
X136809238Y-117422990D01*
X136731828Y-117461695D01*
X136499600Y-117461695D01*
X136422190Y-117422990D01*
X136383485Y-117384285D01*
X137196285Y-116726304D02*
X137234990Y-116687600D01*
X137312400Y-116648895D01*
X137505923Y-116648895D01*
X137583333Y-116687600D01*
X137622038Y-116726304D01*
X137660742Y-116803714D01*
X137660742Y-116881123D01*
X137622038Y-116997238D01*
X137157580Y-117461695D01*
X137660742Y-117461695D01*
X137970380Y-117422990D02*
X138086495Y-117461695D01*
X138280019Y-117461695D01*
X138357428Y-117422990D01*
X138396133Y-117384285D01*
X138434838Y-117306876D01*
X138434838Y-117229466D01*
X138396133Y-117152057D01*
X138357428Y-117113352D01*
X138280019Y-117074647D01*
X138125200Y-117035942D01*
X138047790Y-116997238D01*
X138009085Y-116958533D01*
X137970380Y-116881123D01*
X137970380Y-116803714D01*
X138009085Y-116726304D01*
X138047790Y-116687600D01*
X138125200Y-116648895D01*
X138318723Y-116648895D01*
X138434838Y-116687600D01*
X138667066Y-116648895D02*
X139131523Y-116648895D01*
X138899295Y-117461695D02*
X138899295Y-116648895D01*
X139866914Y-117384285D02*
X139828209Y-117422990D01*
X139712095Y-117461695D01*
X139634685Y-117461695D01*
X139518571Y-117422990D01*
X139441161Y-117345580D01*
X139402457Y-117268171D01*
X139363752Y-117113352D01*
X139363752Y-116997238D01*
X139402457Y-116842419D01*
X139441161Y-116765009D01*
X139518571Y-116687600D01*
X139634685Y-116648895D01*
X139712095Y-116648895D01*
X139828209Y-116687600D01*
X139866914Y-116726304D01*
X140563600Y-116919828D02*
X140563600Y-117461695D01*
X140370076Y-116610190D02*
X140176552Y-117190761D01*
X140679714Y-117190761D01*
X141337695Y-116919828D02*
X141337695Y-117461695D01*
X141144171Y-116610190D02*
X140950647Y-117190761D01*
X141453809Y-117190761D01*
X113724266Y-103745695D02*
X113724266Y-102932895D01*
X114033904Y-102932895D01*
X114111314Y-102971600D01*
X114150019Y-103010304D01*
X114188723Y-103087714D01*
X114188723Y-103203828D01*
X114150019Y-103281238D01*
X114111314Y-103319942D01*
X114033904Y-103358647D01*
X113724266Y-103358647D01*
X114459657Y-102932895D02*
X114653180Y-103745695D01*
X114808000Y-103165123D01*
X114962819Y-103745695D01*
X115156342Y-102932895D01*
X115930438Y-103745695D02*
X115659504Y-103358647D01*
X115465980Y-103745695D02*
X115465980Y-102932895D01*
X115775619Y-102932895D01*
X115853028Y-102971600D01*
X115891733Y-103010304D01*
X115930438Y-103087714D01*
X115930438Y-103203828D01*
X115891733Y-103281238D01*
X115853028Y-103319942D01*
X115775619Y-103358647D01*
X115465980Y-103358647D01*
X155320395Y-111544704D02*
X155978376Y-111544704D01*
X156055785Y-111506000D01*
X156094490Y-111467295D01*
X156133195Y-111389885D01*
X156133195Y-111235066D01*
X156094490Y-111157657D01*
X156055785Y-111118952D01*
X155978376Y-111080247D01*
X155320395Y-111080247D01*
X156094490Y-110731904D02*
X156133195Y-110615790D01*
X156133195Y-110422266D01*
X156094490Y-110344857D01*
X156055785Y-110306152D01*
X155978376Y-110267447D01*
X155900966Y-110267447D01*
X155823557Y-110306152D01*
X155784852Y-110344857D01*
X155746147Y-110422266D01*
X155707442Y-110577085D01*
X155668738Y-110654495D01*
X155630033Y-110693200D01*
X155552623Y-110731904D01*
X155475214Y-110731904D01*
X155397804Y-110693200D01*
X155359100Y-110654495D01*
X155320395Y-110577085D01*
X155320395Y-110383561D01*
X155359100Y-110267447D01*
X155707442Y-109648171D02*
X155746147Y-109532057D01*
X155784852Y-109493352D01*
X155862261Y-109454647D01*
X155978376Y-109454647D01*
X156055785Y-109493352D01*
X156094490Y-109532057D01*
X156133195Y-109609466D01*
X156133195Y-109919104D01*
X155320395Y-109919104D01*
X155320395Y-109648171D01*
X155359100Y-109570761D01*
X155397804Y-109532057D01*
X155475214Y-109493352D01*
X155552623Y-109493352D01*
X155630033Y-109532057D01*
X155668738Y-109570761D01*
X155707442Y-109648171D01*
X155707442Y-109919104D01*
X155320395Y-108099980D02*
X155320395Y-108487028D01*
X155707442Y-108525733D01*
X155668738Y-108487028D01*
X155630033Y-108409619D01*
X155630033Y-108216095D01*
X155668738Y-108138685D01*
X155707442Y-108099980D01*
X155784852Y-108061276D01*
X155978376Y-108061276D01*
X156055785Y-108099980D01*
X156094490Y-108138685D01*
X156133195Y-108216095D01*
X156133195Y-108409619D01*
X156094490Y-108487028D01*
X156055785Y-108525733D01*
X155320395Y-107829047D02*
X156133195Y-107558114D01*
X155320395Y-107287180D01*
X148657733Y-116648895D02*
X148657733Y-117229466D01*
X148619028Y-117345580D01*
X148541619Y-117422990D01*
X148425504Y-117461695D01*
X148348095Y-117461695D01*
X148928666Y-116648895D02*
X149393123Y-116648895D01*
X149160895Y-117461695D02*
X149160895Y-116648895D01*
X149625352Y-117229466D02*
X150012400Y-117229466D01*
X149547942Y-117461695D02*
X149818876Y-116648895D01*
X150089809Y-117461695D01*
X150786495Y-116687600D02*
X150709085Y-116648895D01*
X150592971Y-116648895D01*
X150476857Y-116687600D01*
X150399447Y-116765009D01*
X150360742Y-116842419D01*
X150322038Y-116997238D01*
X150322038Y-117113352D01*
X150360742Y-117268171D01*
X150399447Y-117345580D01*
X150476857Y-117422990D01*
X150592971Y-117461695D01*
X150670380Y-117461695D01*
X150786495Y-117422990D01*
X150825200Y-117384285D01*
X150825200Y-117113352D01*
X150670380Y-117113352D01*
X144963847Y-114108895D02*
X145428304Y-114108895D01*
X145196076Y-114921695D02*
X145196076Y-114108895D01*
X145699238Y-114921695D02*
X145699238Y-114108895D01*
X145892761Y-114108895D01*
X146008876Y-114147600D01*
X146086285Y-114225009D01*
X146124990Y-114302419D01*
X146163695Y-114457238D01*
X146163695Y-114573352D01*
X146124990Y-114728171D01*
X146086285Y-114805580D01*
X146008876Y-114882990D01*
X145892761Y-114921695D01*
X145699238Y-114921695D01*
X146512038Y-114921695D02*
X146512038Y-114108895D01*
X144712266Y-109028895D02*
X145176723Y-109028895D01*
X144944495Y-109841695D02*
X144944495Y-109028895D01*
X145447657Y-109841695D02*
X145447657Y-109028895D01*
X145718590Y-109609466D01*
X145989523Y-109028895D01*
X145989523Y-109841695D01*
X146337866Y-109802990D02*
X146453980Y-109841695D01*
X146647504Y-109841695D01*
X146724914Y-109802990D01*
X146763619Y-109764285D01*
X146802323Y-109686876D01*
X146802323Y-109609466D01*
X146763619Y-109532057D01*
X146724914Y-109493352D01*
X146647504Y-109454647D01*
X146492685Y-109415942D01*
X146415276Y-109377238D01*
X146376571Y-109338533D01*
X146337866Y-109261123D01*
X146337866Y-109183714D01*
X146376571Y-109106304D01*
X146415276Y-109067600D01*
X146492685Y-109028895D01*
X146686209Y-109028895D01*
X146802323Y-109067600D01*
X144731619Y-106488895D02*
X145196076Y-106488895D01*
X144963847Y-107301695D02*
X144963847Y-106488895D01*
X145467009Y-107301695D02*
X145467009Y-106488895D01*
X145660533Y-106488895D01*
X145776647Y-106527600D01*
X145854057Y-106605009D01*
X145892761Y-106682419D01*
X145931466Y-106837238D01*
X145931466Y-106953352D01*
X145892761Y-107108171D01*
X145854057Y-107185580D01*
X145776647Y-107262990D01*
X145660533Y-107301695D01*
X145467009Y-107301695D01*
X146434628Y-106488895D02*
X146589447Y-106488895D01*
X146666857Y-106527600D01*
X146744266Y-106605009D01*
X146782971Y-106759828D01*
X146782971Y-107030761D01*
X146744266Y-107185580D01*
X146666857Y-107262990D01*
X146589447Y-107301695D01*
X146434628Y-107301695D01*
X146357219Y-107262990D01*
X146279809Y-107185580D01*
X146241104Y-107030761D01*
X146241104Y-106759828D01*
X146279809Y-106605009D01*
X146357219Y-106527600D01*
X146434628Y-106488895D01*
X144750971Y-103948895D02*
X145215428Y-103948895D01*
X144983200Y-104761695D02*
X144983200Y-103948895D01*
X145950819Y-104684285D02*
X145912114Y-104722990D01*
X145796000Y-104761695D01*
X145718590Y-104761695D01*
X145602476Y-104722990D01*
X145525066Y-104645580D01*
X145486361Y-104568171D01*
X145447657Y-104413352D01*
X145447657Y-104297238D01*
X145486361Y-104142419D01*
X145525066Y-104065009D01*
X145602476Y-103987600D01*
X145718590Y-103948895D01*
X145796000Y-103948895D01*
X145912114Y-103987600D01*
X145950819Y-104026304D01*
X146299161Y-104761695D02*
X146299161Y-103948895D01*
X146763619Y-104761695D02*
X146415276Y-104297238D01*
X146763619Y-103948895D02*
X146299161Y-104413352D01*
D11*
X123438000Y-115999000D02*
X123438000Y-110024000D01*
X128963000Y-114424000D02*
X128963000Y-110024000D01*
D12*
X113807000Y-111784000D02*
X113097000Y-111784000D01*
X113807000Y-107165000D02*
X113097000Y-107165000D01*
X122107000Y-111784000D02*
X121397000Y-111784000D01*
X122107000Y-107165000D02*
X122107000Y-111784000D01*
X122107000Y-107165000D02*
X121457000Y-107165000D01*
X121457000Y-105774000D02*
X121457000Y-107165000D01*
X113097000Y-107165000D02*
X113097000Y-111784000D01*
X160464400Y-115016000D02*
X160464400Y-115316000D01*
X156324400Y-118156000D02*
X156324400Y-117856000D01*
X156324400Y-115316000D02*
X156324400Y-115016000D01*
X160464400Y-118156000D02*
X156324400Y-118156000D01*
X160464400Y-117856000D02*
X160464400Y-118156000D01*
X156324400Y-115016000D02*
X160464400Y-115016000D01*
X118712000Y-115129000D02*
X117909530Y-115129000D01*
X117294470Y-115129000D02*
X116492000Y-115129000D01*
X118712000Y-116334000D02*
X118712000Y-115129000D01*
X116492000Y-116334000D02*
X116492000Y-115129000D01*
X118712000Y-116334000D02*
X118165471Y-116334000D01*
X117038529Y-116334000D02*
X116492000Y-116334000D01*
X118712000Y-117094000D02*
X118712000Y-117854000D01*
X118712000Y-117854000D02*
X117602000Y-117854000D01*
X156324400Y-100792000D02*
X160464400Y-100792000D01*
X160464400Y-103632000D02*
X160464400Y-103932000D01*
X160464400Y-103932000D02*
X156324400Y-103932000D01*
X156324400Y-101092000D02*
X156324400Y-100792000D01*
X156324400Y-103932000D02*
X156324400Y-103632000D01*
X160464400Y-100792000D02*
X160464400Y-101092000D01*
X147006000Y-103069000D02*
X148336000Y-103069000D01*
X147006000Y-104399000D02*
X147006000Y-103069000D01*
X149606000Y-103069000D02*
X152206000Y-103069000D01*
X149606000Y-105669000D02*
X149606000Y-103069000D01*
X147006000Y-105669000D02*
X149606000Y-105669000D01*
X152206000Y-103069000D02*
X152206000Y-115889000D01*
X147006000Y-105669000D02*
X147006000Y-115889000D01*
X147006000Y-115889000D02*
X152206000Y-115889000D01*
D11*
X132306000Y-114649000D02*
X132306000Y-115924000D01*
X131731000Y-104299000D02*
X131731000Y-104974000D01*
X142081000Y-104299000D02*
X142081000Y-104974000D01*
X142081000Y-114649000D02*
X142081000Y-113974000D01*
X131731000Y-114649000D02*
X131731000Y-113974000D01*
X142081000Y-114649000D02*
X141406000Y-114649000D01*
X142081000Y-104299000D02*
X141406000Y-104299000D01*
X131731000Y-104299000D02*
X132406000Y-104299000D01*
X131731000Y-114649000D02*
X132306000Y-114649000D01*
D12*
X122014000Y-115129000D02*
X121211530Y-115129000D01*
X120596470Y-115129000D02*
X119794000Y-115129000D01*
X122014000Y-116334000D02*
X122014000Y-115129000D01*
X119794000Y-116334000D02*
X119794000Y-115129000D01*
X122014000Y-116334000D02*
X121467471Y-116334000D01*
X120340529Y-116334000D02*
X119794000Y-116334000D01*
X122014000Y-117094000D02*
X122014000Y-117854000D01*
X122014000Y-117854000D02*
X120904000Y-117854000D01*
X115462000Y-115129000D02*
X114659530Y-115129000D01*
X114044470Y-115129000D02*
X113242000Y-115129000D01*
X115462000Y-116334000D02*
X115462000Y-115129000D01*
X113242000Y-116334000D02*
X113242000Y-115129000D01*
X115462000Y-116334000D02*
X114915471Y-116334000D01*
X113788529Y-116334000D02*
X113242000Y-116334000D01*
X115462000Y-117094000D02*
X115462000Y-117854000D01*
X115462000Y-117854000D02*
X114352000Y-117854000D01*
X146342000Y-116359000D02*
X143882000Y-116359000D01*
X143882000Y-116359000D02*
X143882000Y-117829000D01*
X143882000Y-117829000D02*
X146342000Y-117829000D01*
X119117000Y-102589000D02*
X121577000Y-102589000D01*
X119117000Y-101119000D02*
X119117000Y-102589000D01*
X121577000Y-101119000D02*
X119117000Y-101119000D01*
X128498000Y-102594000D02*
X128888000Y-102594000D01*
X128888000Y-102594000D02*
X128888000Y-106194000D01*
X128888000Y-106194000D02*
X128498000Y-106194000D01*
X125818000Y-102594000D02*
X126558000Y-102594000D01*
X123878000Y-106894000D02*
X123878000Y-106194000D01*
X123878000Y-106194000D02*
X123488000Y-106194000D01*
X123488000Y-106194000D02*
X123488000Y-102594000D01*
X123488000Y-102594000D02*
X123878000Y-102594000D01*
X126558000Y-106194000D02*
X125818000Y-106194000D01*
X125818000Y-106194000D02*
X125818000Y-106894000D01*
X113656000Y-102589000D02*
X116116000Y-102589000D01*
X113656000Y-101119000D02*
X113656000Y-102589000D01*
X116116000Y-101119000D02*
X113656000Y-101119000D01*
X156564500Y-111169000D02*
X157014500Y-111169000D01*
X156564500Y-111169000D02*
X156564500Y-110719000D01*
X157114500Y-105569000D02*
X157114500Y-106019000D01*
X158964500Y-105569000D02*
X157114500Y-105569000D01*
X161514500Y-113369000D02*
X161264500Y-113369000D01*
X161514500Y-105569000D02*
X161264500Y-105569000D01*
X158964500Y-113369000D02*
X157114500Y-113369000D01*
X157114500Y-113369000D02*
X157114500Y-112919000D01*
D10*
X125618723Y-116648895D02*
X125618723Y-117306876D01*
X125657428Y-117384285D01*
X125696133Y-117422990D01*
X125773542Y-117461695D01*
X125928361Y-117461695D01*
X126005771Y-117422990D01*
X126044476Y-117384285D01*
X126083180Y-117306876D01*
X126083180Y-116648895D01*
X126818571Y-116648895D02*
X126663752Y-116648895D01*
X126586342Y-116687600D01*
X126547638Y-116726304D01*
X126470228Y-116842419D01*
X126431523Y-116997238D01*
X126431523Y-117306876D01*
X126470228Y-117384285D01*
X126508933Y-117422990D01*
X126586342Y-117461695D01*
X126741161Y-117461695D01*
X126818571Y-117422990D01*
X126857276Y-117384285D01*
X126895980Y-117306876D01*
X126895980Y-117113352D01*
X126857276Y-117035942D01*
X126818571Y-116997238D01*
X126741161Y-116958533D01*
X126586342Y-116958533D01*
X126508933Y-116997238D01*
X126470228Y-117035942D01*
X126431523Y-117113352D01*
X136286723Y-101662895D02*
X136286723Y-102320876D01*
X136325428Y-102398285D01*
X136364133Y-102436990D01*
X136441542Y-102475695D01*
X136596361Y-102475695D01*
X136673771Y-102436990D01*
X136712476Y-102398285D01*
X136751180Y-102320876D01*
X136751180Y-101662895D01*
X137099523Y-101740304D02*
X137138228Y-101701600D01*
X137215638Y-101662895D01*
X137409161Y-101662895D01*
X137486571Y-101701600D01*
X137525276Y-101740304D01*
X137563980Y-101817714D01*
X137563980Y-101895123D01*
X137525276Y-102011238D01*
X137060819Y-102475695D01*
X137563980Y-102475695D01*
X125530019Y-103923495D02*
X126071885Y-104736295D01*
X126071885Y-103923495D02*
X125530019Y-104736295D01*
X126807276Y-104736295D02*
X126342819Y-104736295D01*
X126575047Y-104736295D02*
X126575047Y-103923495D01*
X126497638Y-104039609D01*
X126420228Y-104117019D01*
X126342819Y-104155723D01*
M02*
