M48
; DRILL file {KiCad (5.1.0-1387-g9cf427c7d)} date Monday, July 29, 2019 at 05:15:45 PM
; FORMAT={3:3/ absolute / metric / suppress leading zeros}
; #@! TF.CreationDate,2019-07-29T17:15:45-07:00
; #@! TF.GenerationSoftware,Kicad,Pcbnew,(5.1.0-1387-g9cf427c7d)
FMAT,2
METRIC,TZ
T1C0.203
T2C0.600
T3C0.650
T4C0.850
T5C1.000
%
G90
G05
T1
X113093Y-100330
X113093Y-113728
X113598Y-102640
X113814Y-105642
X113843Y-114554
X114046Y-116024
X114554Y-109474
X114618Y-100838
X115316Y-113030
X115621Y-108560
X116309Y-109750
X116535Y-108661
X116586Y-118172
X116649Y-99571
X117602Y-108102
X117729Y-115506
X117903Y-109750
X117907Y-114554
X118110Y-100838
X118618Y-114808
X118776Y-113225
X119071Y-101057
X119126Y-118889
X119190Y-99695
X119350Y-109750
X119504Y-114757
X120091Y-113182
X120244Y-106020
X120498Y-103124
X120674Y-109762
X121117Y-115610
X121330Y-109722
X121602Y-108648
X121666Y-119242
X122193Y-105539
X122254Y-107253
X122707Y-99165
X122877Y-117527
X122936Y-102768
X123017Y-111597
X123020Y-108268
X123038Y-103530
X123137Y-114582
X123190Y-108902
X123190Y-110490
X123190Y-112268
X123191Y-116083
X123667Y-106426
X123804Y-105099
X124203Y-113907
X124206Y-119814
X124677Y-106541
X124946Y-101242
X125028Y-115010
X125055Y-109850
X125540Y-107973
X125667Y-106617
X125730Y-103250
X125730Y-111951
X126429Y-106998
X126499Y-112227
X126746Y-117602
X126873Y-113411
X126987Y-103821
X127071Y-106243
X127262Y-100047
X127306Y-102691
X127696Y-106446
X127740Y-99038
X127793Y-103167
X127802Y-112079
X128461Y-103696
X128665Y-112079
X129003Y-106274
X129025Y-109376
X129438Y-102838
X129646Y-106409
X129661Y-120130
X129692Y-115355
X129982Y-112178
X129991Y-113399
X130090Y-118350
X130127Y-108911
X130747Y-118350
X131206Y-104709
X131699Y-100838
X131826Y-115379
X131873Y-119712
X131877Y-118350
X132202Y-103746
X132271Y-107061
X132416Y-99825
X132588Y-111049
X132620Y-110185
X132620Y-112777
X132775Y-108201
X132944Y-116281
X133248Y-118564
X133706Y-101854
X133792Y-106205
X133856Y-117340
X134189Y-105681
X134247Y-109307
X134417Y-118916
X134687Y-110236
X134823Y-105308
X135280Y-113589
X135343Y-119950
X136093Y-107798
X136133Y-117845
X136144Y-105156
X136500Y-108915
X136500Y-109423
X136526Y-109904
X136906Y-112268
X136906Y-118921
X137008Y-108915
X137008Y-109423
X137008Y-109931
X137516Y-108915
X137516Y-109423
X137516Y-109931
X137719Y-118062
X137770Y-107391
X138476Y-118919
X138532Y-102413
X138887Y-111252
X139294Y-113741
X139344Y-116535
X140106Y-105461
X140106Y-118720
X140970Y-116586
X141173Y-109464
X141478Y-117602
X141732Y-115570
X142240Y-115062
X142777Y-101644
X143256Y-103568
X143713Y-100990
X143866Y-107899
X143866Y-108610
X143868Y-110949
X144797Y-116515
X144882Y-110366
X144939Y-103536
X144939Y-105969
X145269Y-115561
X145645Y-101440
X145948Y-106172
X146182Y-102816
X146507Y-105613
X146609Y-115773
X147225Y-111039
X148154Y-99825
X148155Y-107411
X148593Y-118261
X148844Y-101540
X149250Y-102311
X149352Y-119507
X152762Y-100598
X153975Y-100686
X154076Y-106172
X154236Y-109030
X154444Y-113428
X154686Y-118237
X155042Y-103683
X155042Y-100686
X155238Y-108881
X155905Y-111455
X156248Y-108803
X157226Y-119507
X157328Y-99873
X157353Y-103124
X158179Y-113474
X158750Y-102934
X158750Y-111569
X159702Y-104839
X159766Y-116718
X160846Y-101791
T3
X120498Y-116891
X121768Y-116891
X114910Y-116891
X116180Y-116891
X117729Y-116903
X118999Y-116903
T4
X157415Y-106969
X157415Y-111969
T5
X114046Y-98044
X116586Y-98044
X119126Y-98044
X121666Y-98044
X124206Y-98044
X126746Y-98044
X129286Y-98044
X131826Y-98044
X134366Y-98044
X136906Y-98044
X139446Y-98044
X141986Y-98044
X144526Y-98044
X147066Y-98044
X149606Y-98044
X152146Y-98044
X154686Y-98044
X157226Y-98044
X159766Y-98044
X114046Y-120904
X116586Y-120904
X119126Y-120904
X121666Y-120904
X124206Y-120904
X126746Y-120904
X129286Y-120904
X131826Y-120904
X134366Y-120904
X136906Y-120904
X139446Y-120904
X141986Y-120904
X144526Y-120904
X147066Y-120904
X149606Y-120904
X152146Y-120904
X154686Y-120904
X157226Y-120904
X159766Y-120904
X149352Y-104394
X149352Y-106934
X149352Y-109474
X149352Y-112014
X149352Y-114554
X151892Y-104394
X151892Y-106934
X151892Y-109474
X151892Y-112014
X151892Y-114554
T2
G00X159765Y-105969
M15
G01X160465Y-105969
M16
G05
G00X160465Y-112969
M15
G01X159765Y-112969
M16
G05
T0
M30
