M48
; DRILL file {KiCad (5.1.4)-1} date 2019-08-30 12:09:33 AM
; FORMAT={-:-/ absolute / inch / decimal}
; #@! TF.CreationDate,2019-08-30T00:09:33-07:00
; #@! TF.GenerationSoftware,Kicad,Pcbnew,(5.1.4)-1
; #@! TF.FileFunction,Plated,1,4,PTH
FMAT,2
INCH
T1C0.0079
T2C0.0090
T3C0.0130
T4C0.0160
T5C0.0256
T6C0.0276
T7C0.0394
%
G90
G05
T1
X5.377Y-4.2509
X5.377Y-4.2903
X5.377Y-4.3297
X5.377Y-4.373
X5.4203Y-4.2509
X5.4203Y-4.2903
X5.4203Y-4.3297
X5.4203Y-4.373
X5.4636Y-4.2509
X5.4636Y-4.2903
X5.4636Y-4.3297
X5.4636Y-4.373
X5.5069Y-4.2509
X5.5069Y-4.2903
X5.5069Y-4.3297
X5.5069Y-4.373
T2
X4.49Y-4.5
X4.61Y-4.53
X4.62Y-4.24
X4.6352Y-4.4652
X4.6469Y-4.2505
X4.66Y-3.96
X4.66Y-4.51
X4.69Y-4.17
X4.69Y-4.2
X4.752Y-4.3309
X4.76Y-4.69
X4.76Y-4.208
X4.78Y-4.48
X4.7886Y-4.558
X4.79Y-4.24
X4.79Y-4.38
X4.8009Y-4.5386
X4.81Y-4.51
X4.81Y-4.71
X4.82Y-4.19
X4.824Y-4.4109
X4.835Y-4.535
X4.85Y-4.43
X4.859Y-4.673
X4.88Y-4.46
X4.885Y-4.485
X4.91Y-4.43
X4.99Y-4.69
X5.02Y-4.38
X5.03Y-4.6257
X5.055Y-4.645
X5.08Y-4.662
X5.13Y-4.69
X5.155Y-4.015
X5.18Y-4.545
X5.205Y-4.57
X5.2156Y-3.9956
X5.235Y-4.59
X5.2467Y-4.0133
X5.265Y-4.28
X5.27Y-4.7
X5.28Y-4.34
X5.2846Y-3.9488
X5.2995Y-4.608
X5.3185Y-4.1652
X5.345Y-3.925
X5.345Y-4.68
X5.37Y-4.16
X5.372Y-3.905
X5.41Y-4.47
X5.4393Y-4.467
X5.44Y-4.135
X5.47Y-4.135
X5.4715Y-4.4385
X5.503Y-4.1355
X5.505Y-4.485
X5.535Y-4.1245
X5.608Y-3.94
X5.665Y-3.915
X5.69Y-4.1245
X5.72Y-3.965
X5.745Y-3.99
X5.75Y-4.58
X5.77Y-4.015
X5.785Y-4.275
X5.79Y-3.94
X5.795Y-4.035
X5.81Y-4.43
X5.81Y-4.67
X5.82Y-4.34
X6.065Y-4.565
X6.07Y-4.7
X6.1216Y-4.143
X6.21Y-4.16
X6.31Y-4.05
X6.36Y-4.57
T3
X5.104Y-4.2308
T4
X4.48Y-4.285
X4.498Y-4.32
X4.54Y-4.36
X4.54Y-4.43
X4.575Y-4.385
X4.575Y-4.46
X4.6Y-3.94
X4.69Y-4.25
X4.735Y-4.62
X4.74Y-4.05
X4.775Y-4.16
X4.795Y-3.995
X4.83Y-4.0856
X4.835Y-4.285
X4.95Y-4.12
X5.0164Y-4.303
X5.0217Y-4.5817
X5.055Y-4.255
X5.102Y-4.36
X5.11Y-4.03
X5.27Y-4.21
X5.38Y-4.62
X5.416Y-4.0
X5.42Y-4.65
X5.4506Y-3.9706
X5.489Y-4.65
X5.52Y-4.62
X5.52Y-3.97
X5.55Y-4.0
X5.71Y-4.08
X5.7471Y-4.456
X5.75Y-4.255
X5.75Y-4.39
X5.78Y-4.36
X5.86Y-4.615
X6.16Y-3.96
X6.2Y-3.995
X6.2Y-4.3101
X6.24Y-4.62
X6.39Y-3.975
X6.39Y-4.09
T7
X4.49Y-4.76
X4.59Y-4.76
X4.69Y-4.76
X4.79Y-4.76
X4.89Y-4.76
X4.99Y-4.76
X5.09Y-4.76
X5.19Y-4.76
X5.29Y-4.76
X5.39Y-4.76
X5.49Y-4.76
X5.59Y-4.76
X5.69Y-4.76
X5.79Y-4.76
X5.89Y-4.76
X5.99Y-4.76
X6.09Y-4.76
X6.19Y-4.76
X6.29Y-4.76
X6.39Y-4.76
X4.49Y-3.86
X4.59Y-3.86
X4.69Y-3.86
X4.79Y-3.86
X4.89Y-3.86
X4.99Y-3.86
X5.09Y-3.86
X5.19Y-3.86
X5.29Y-3.86
X5.39Y-3.86
X5.49Y-3.86
X5.59Y-3.86
X5.69Y-3.86
X5.79Y-3.86
X5.89Y-3.86
X5.99Y-3.86
X6.09Y-3.86
X6.19Y-3.86
X6.29Y-3.86
X6.39Y-3.86
X5.89Y-4.11
X5.89Y-4.21
X5.89Y-4.31
X5.89Y-4.41
X5.89Y-4.51
X5.99Y-4.11
X5.99Y-4.21
X5.99Y-4.31
X5.99Y-4.41
X5.99Y-4.51
T5
G00X6.2791Y-4.2157
M15
G01X6.2634Y-4.2157
M16
G05
G00X6.2791Y-4.4063
M15
G01X6.2634Y-4.4063
M16
G05
T6
G00X6.3992Y-4.2035
M15
G01X6.3795Y-4.2035
M16
G05
G00X6.3992Y-4.4185
M15
G01X6.3795Y-4.4185
M16
G05
T0
M30
