G04 #@! TF.GenerationSoftware,KiCad,Pcbnew,(5.1.4-0-10_14)*
G04 #@! TF.CreationDate,2019-08-31T02:18:22-07:00*
G04 #@! TF.ProjectId,max_breakout,6d61785f-6272-4656-916b-6f75742e6b69,2.0*
G04 #@! TF.SameCoordinates,Original*
G04 #@! TF.FileFunction,Soldermask,Bot*
G04 #@! TF.FilePolarity,Negative*
%FSLAX46Y46*%
G04 Gerber Fmt 4.6, Leading zero omitted, Abs format (unit mm)*
G04 Created by KiCad (PCBNEW (5.1.4-0-10_14)) date 2019-08-31 02:18:22*
%MOMM*%
%LPD*%
G04 APERTURE LIST*
%ADD10C,0.100000*%
G04 APERTURE END LIST*
D10*
G36*
X162482584Y-120016233D02*
G01*
X162482587Y-120016234D01*
X162482588Y-120016234D01*
X162652389Y-120067743D01*
X162699861Y-120093117D01*
X162808881Y-120151389D01*
X162946044Y-120263956D01*
X163058611Y-120401119D01*
X163116883Y-120510139D01*
X163142257Y-120557611D01*
X163193766Y-120727412D01*
X163193767Y-120727416D01*
X163211159Y-120904000D01*
X163193767Y-121080584D01*
X163193766Y-121080587D01*
X163193766Y-121080588D01*
X163142257Y-121250389D01*
X163142256Y-121250390D01*
X163058611Y-121406881D01*
X162946044Y-121544044D01*
X162808881Y-121656611D01*
X162699861Y-121714883D01*
X162652389Y-121740257D01*
X162482588Y-121791766D01*
X162482587Y-121791766D01*
X162482584Y-121791767D01*
X162350255Y-121804800D01*
X162261745Y-121804800D01*
X162129416Y-121791767D01*
X162129413Y-121791766D01*
X162129412Y-121791766D01*
X161959611Y-121740257D01*
X161912139Y-121714883D01*
X161803119Y-121656611D01*
X161665956Y-121544044D01*
X161553389Y-121406881D01*
X161469744Y-121250390D01*
X161469743Y-121250389D01*
X161418234Y-121080588D01*
X161418234Y-121080587D01*
X161418233Y-121080584D01*
X161400841Y-120904000D01*
X161418233Y-120727416D01*
X161418234Y-120727412D01*
X161469743Y-120557611D01*
X161495117Y-120510139D01*
X161553389Y-120401119D01*
X161665956Y-120263956D01*
X161803119Y-120151389D01*
X161912139Y-120093117D01*
X161959611Y-120067743D01*
X162129412Y-120016234D01*
X162129413Y-120016234D01*
X162129416Y-120016233D01*
X162261745Y-120003200D01*
X162350255Y-120003200D01*
X162482584Y-120016233D01*
X162482584Y-120016233D01*
G37*
G36*
X159942584Y-120016233D02*
G01*
X159942587Y-120016234D01*
X159942588Y-120016234D01*
X160112389Y-120067743D01*
X160159861Y-120093117D01*
X160268881Y-120151389D01*
X160406044Y-120263956D01*
X160518611Y-120401119D01*
X160576883Y-120510139D01*
X160602257Y-120557611D01*
X160653766Y-120727412D01*
X160653767Y-120727416D01*
X160671159Y-120904000D01*
X160653767Y-121080584D01*
X160653766Y-121080587D01*
X160653766Y-121080588D01*
X160602257Y-121250389D01*
X160602256Y-121250390D01*
X160518611Y-121406881D01*
X160406044Y-121544044D01*
X160268881Y-121656611D01*
X160159861Y-121714883D01*
X160112389Y-121740257D01*
X159942588Y-121791766D01*
X159942587Y-121791766D01*
X159942584Y-121791767D01*
X159810255Y-121804800D01*
X159721745Y-121804800D01*
X159589416Y-121791767D01*
X159589413Y-121791766D01*
X159589412Y-121791766D01*
X159419611Y-121740257D01*
X159372139Y-121714883D01*
X159263119Y-121656611D01*
X159125956Y-121544044D01*
X159013389Y-121406881D01*
X158929744Y-121250390D01*
X158929743Y-121250389D01*
X158878234Y-121080588D01*
X158878234Y-121080587D01*
X158878233Y-121080584D01*
X158860841Y-120904000D01*
X158878233Y-120727416D01*
X158878234Y-120727412D01*
X158929743Y-120557611D01*
X158955117Y-120510139D01*
X159013389Y-120401119D01*
X159125956Y-120263956D01*
X159263119Y-120151389D01*
X159372139Y-120093117D01*
X159419611Y-120067743D01*
X159589412Y-120016234D01*
X159589413Y-120016234D01*
X159589416Y-120016233D01*
X159721745Y-120003200D01*
X159810255Y-120003200D01*
X159942584Y-120016233D01*
X159942584Y-120016233D01*
G37*
G36*
X157402584Y-120016233D02*
G01*
X157402587Y-120016234D01*
X157402588Y-120016234D01*
X157572389Y-120067743D01*
X157619861Y-120093117D01*
X157728881Y-120151389D01*
X157866044Y-120263956D01*
X157978611Y-120401119D01*
X158036883Y-120510139D01*
X158062257Y-120557611D01*
X158113766Y-120727412D01*
X158113767Y-120727416D01*
X158131159Y-120904000D01*
X158113767Y-121080584D01*
X158113766Y-121080587D01*
X158113766Y-121080588D01*
X158062257Y-121250389D01*
X158062256Y-121250390D01*
X157978611Y-121406881D01*
X157866044Y-121544044D01*
X157728881Y-121656611D01*
X157619861Y-121714883D01*
X157572389Y-121740257D01*
X157402588Y-121791766D01*
X157402587Y-121791766D01*
X157402584Y-121791767D01*
X157270255Y-121804800D01*
X157181745Y-121804800D01*
X157049416Y-121791767D01*
X157049413Y-121791766D01*
X157049412Y-121791766D01*
X156879611Y-121740257D01*
X156832139Y-121714883D01*
X156723119Y-121656611D01*
X156585956Y-121544044D01*
X156473389Y-121406881D01*
X156389744Y-121250390D01*
X156389743Y-121250389D01*
X156338234Y-121080588D01*
X156338234Y-121080587D01*
X156338233Y-121080584D01*
X156320841Y-120904000D01*
X156338233Y-120727416D01*
X156338234Y-120727412D01*
X156389743Y-120557611D01*
X156415117Y-120510139D01*
X156473389Y-120401119D01*
X156585956Y-120263956D01*
X156723119Y-120151389D01*
X156832139Y-120093117D01*
X156879611Y-120067743D01*
X157049412Y-120016234D01*
X157049413Y-120016234D01*
X157049416Y-120016233D01*
X157181745Y-120003200D01*
X157270255Y-120003200D01*
X157402584Y-120016233D01*
X157402584Y-120016233D01*
G37*
G36*
X154862584Y-120016233D02*
G01*
X154862587Y-120016234D01*
X154862588Y-120016234D01*
X155032389Y-120067743D01*
X155079861Y-120093117D01*
X155188881Y-120151389D01*
X155326044Y-120263956D01*
X155438611Y-120401119D01*
X155496883Y-120510139D01*
X155522257Y-120557611D01*
X155573766Y-120727412D01*
X155573767Y-120727416D01*
X155591159Y-120904000D01*
X155573767Y-121080584D01*
X155573766Y-121080587D01*
X155573766Y-121080588D01*
X155522257Y-121250389D01*
X155522256Y-121250390D01*
X155438611Y-121406881D01*
X155326044Y-121544044D01*
X155188881Y-121656611D01*
X155079861Y-121714883D01*
X155032389Y-121740257D01*
X154862588Y-121791766D01*
X154862587Y-121791766D01*
X154862584Y-121791767D01*
X154730255Y-121804800D01*
X154641745Y-121804800D01*
X154509416Y-121791767D01*
X154509413Y-121791766D01*
X154509412Y-121791766D01*
X154339611Y-121740257D01*
X154292139Y-121714883D01*
X154183119Y-121656611D01*
X154045956Y-121544044D01*
X153933389Y-121406881D01*
X153849744Y-121250390D01*
X153849743Y-121250389D01*
X153798234Y-121080588D01*
X153798234Y-121080587D01*
X153798233Y-121080584D01*
X153780841Y-120904000D01*
X153798233Y-120727416D01*
X153798234Y-120727412D01*
X153849743Y-120557611D01*
X153875117Y-120510139D01*
X153933389Y-120401119D01*
X154045956Y-120263956D01*
X154183119Y-120151389D01*
X154292139Y-120093117D01*
X154339611Y-120067743D01*
X154509412Y-120016234D01*
X154509413Y-120016234D01*
X154509416Y-120016233D01*
X154641745Y-120003200D01*
X154730255Y-120003200D01*
X154862584Y-120016233D01*
X154862584Y-120016233D01*
G37*
G36*
X152322584Y-120016233D02*
G01*
X152322587Y-120016234D01*
X152322588Y-120016234D01*
X152492389Y-120067743D01*
X152539861Y-120093117D01*
X152648881Y-120151389D01*
X152786044Y-120263956D01*
X152898611Y-120401119D01*
X152956883Y-120510139D01*
X152982257Y-120557611D01*
X153033766Y-120727412D01*
X153033767Y-120727416D01*
X153051159Y-120904000D01*
X153033767Y-121080584D01*
X153033766Y-121080587D01*
X153033766Y-121080588D01*
X152982257Y-121250389D01*
X152982256Y-121250390D01*
X152898611Y-121406881D01*
X152786044Y-121544044D01*
X152648881Y-121656611D01*
X152539861Y-121714883D01*
X152492389Y-121740257D01*
X152322588Y-121791766D01*
X152322587Y-121791766D01*
X152322584Y-121791767D01*
X152190255Y-121804800D01*
X152101745Y-121804800D01*
X151969416Y-121791767D01*
X151969413Y-121791766D01*
X151969412Y-121791766D01*
X151799611Y-121740257D01*
X151752139Y-121714883D01*
X151643119Y-121656611D01*
X151505956Y-121544044D01*
X151393389Y-121406881D01*
X151309744Y-121250390D01*
X151309743Y-121250389D01*
X151258234Y-121080588D01*
X151258234Y-121080587D01*
X151258233Y-121080584D01*
X151240841Y-120904000D01*
X151258233Y-120727416D01*
X151258234Y-120727412D01*
X151309743Y-120557611D01*
X151335117Y-120510139D01*
X151393389Y-120401119D01*
X151505956Y-120263956D01*
X151643119Y-120151389D01*
X151752139Y-120093117D01*
X151799611Y-120067743D01*
X151969412Y-120016234D01*
X151969413Y-120016234D01*
X151969416Y-120016233D01*
X152101745Y-120003200D01*
X152190255Y-120003200D01*
X152322584Y-120016233D01*
X152322584Y-120016233D01*
G37*
G36*
X149782584Y-120016233D02*
G01*
X149782587Y-120016234D01*
X149782588Y-120016234D01*
X149952389Y-120067743D01*
X149999861Y-120093117D01*
X150108881Y-120151389D01*
X150246044Y-120263956D01*
X150358611Y-120401119D01*
X150416883Y-120510139D01*
X150442257Y-120557611D01*
X150493766Y-120727412D01*
X150493767Y-120727416D01*
X150511159Y-120904000D01*
X150493767Y-121080584D01*
X150493766Y-121080587D01*
X150493766Y-121080588D01*
X150442257Y-121250389D01*
X150442256Y-121250390D01*
X150358611Y-121406881D01*
X150246044Y-121544044D01*
X150108881Y-121656611D01*
X149999861Y-121714883D01*
X149952389Y-121740257D01*
X149782588Y-121791766D01*
X149782587Y-121791766D01*
X149782584Y-121791767D01*
X149650255Y-121804800D01*
X149561745Y-121804800D01*
X149429416Y-121791767D01*
X149429413Y-121791766D01*
X149429412Y-121791766D01*
X149259611Y-121740257D01*
X149212139Y-121714883D01*
X149103119Y-121656611D01*
X148965956Y-121544044D01*
X148853389Y-121406881D01*
X148769744Y-121250390D01*
X148769743Y-121250389D01*
X148718234Y-121080588D01*
X148718234Y-121080587D01*
X148718233Y-121080584D01*
X148700841Y-120904000D01*
X148718233Y-120727416D01*
X148718234Y-120727412D01*
X148769743Y-120557611D01*
X148795117Y-120510139D01*
X148853389Y-120401119D01*
X148965956Y-120263956D01*
X149103119Y-120151389D01*
X149212139Y-120093117D01*
X149259611Y-120067743D01*
X149429412Y-120016234D01*
X149429413Y-120016234D01*
X149429416Y-120016233D01*
X149561745Y-120003200D01*
X149650255Y-120003200D01*
X149782584Y-120016233D01*
X149782584Y-120016233D01*
G37*
G36*
X147242584Y-120016233D02*
G01*
X147242587Y-120016234D01*
X147242588Y-120016234D01*
X147412389Y-120067743D01*
X147459861Y-120093117D01*
X147568881Y-120151389D01*
X147706044Y-120263956D01*
X147818611Y-120401119D01*
X147876883Y-120510139D01*
X147902257Y-120557611D01*
X147953766Y-120727412D01*
X147953767Y-120727416D01*
X147971159Y-120904000D01*
X147953767Y-121080584D01*
X147953766Y-121080587D01*
X147953766Y-121080588D01*
X147902257Y-121250389D01*
X147902256Y-121250390D01*
X147818611Y-121406881D01*
X147706044Y-121544044D01*
X147568881Y-121656611D01*
X147459861Y-121714883D01*
X147412389Y-121740257D01*
X147242588Y-121791766D01*
X147242587Y-121791766D01*
X147242584Y-121791767D01*
X147110255Y-121804800D01*
X147021745Y-121804800D01*
X146889416Y-121791767D01*
X146889413Y-121791766D01*
X146889412Y-121791766D01*
X146719611Y-121740257D01*
X146672139Y-121714883D01*
X146563119Y-121656611D01*
X146425956Y-121544044D01*
X146313389Y-121406881D01*
X146229744Y-121250390D01*
X146229743Y-121250389D01*
X146178234Y-121080588D01*
X146178234Y-121080587D01*
X146178233Y-121080584D01*
X146160841Y-120904000D01*
X146178233Y-120727416D01*
X146178234Y-120727412D01*
X146229743Y-120557611D01*
X146255117Y-120510139D01*
X146313389Y-120401119D01*
X146425956Y-120263956D01*
X146563119Y-120151389D01*
X146672139Y-120093117D01*
X146719611Y-120067743D01*
X146889412Y-120016234D01*
X146889413Y-120016234D01*
X146889416Y-120016233D01*
X147021745Y-120003200D01*
X147110255Y-120003200D01*
X147242584Y-120016233D01*
X147242584Y-120016233D01*
G37*
G36*
X144702584Y-120016233D02*
G01*
X144702587Y-120016234D01*
X144702588Y-120016234D01*
X144872389Y-120067743D01*
X144919861Y-120093117D01*
X145028881Y-120151389D01*
X145166044Y-120263956D01*
X145278611Y-120401119D01*
X145336883Y-120510139D01*
X145362257Y-120557611D01*
X145413766Y-120727412D01*
X145413767Y-120727416D01*
X145431159Y-120904000D01*
X145413767Y-121080584D01*
X145413766Y-121080587D01*
X145413766Y-121080588D01*
X145362257Y-121250389D01*
X145362256Y-121250390D01*
X145278611Y-121406881D01*
X145166044Y-121544044D01*
X145028881Y-121656611D01*
X144919861Y-121714883D01*
X144872389Y-121740257D01*
X144702588Y-121791766D01*
X144702587Y-121791766D01*
X144702584Y-121791767D01*
X144570255Y-121804800D01*
X144481745Y-121804800D01*
X144349416Y-121791767D01*
X144349413Y-121791766D01*
X144349412Y-121791766D01*
X144179611Y-121740257D01*
X144132139Y-121714883D01*
X144023119Y-121656611D01*
X143885956Y-121544044D01*
X143773389Y-121406881D01*
X143689744Y-121250390D01*
X143689743Y-121250389D01*
X143638234Y-121080588D01*
X143638234Y-121080587D01*
X143638233Y-121080584D01*
X143620841Y-120904000D01*
X143638233Y-120727416D01*
X143638234Y-120727412D01*
X143689743Y-120557611D01*
X143715117Y-120510139D01*
X143773389Y-120401119D01*
X143885956Y-120263956D01*
X144023119Y-120151389D01*
X144132139Y-120093117D01*
X144179611Y-120067743D01*
X144349412Y-120016234D01*
X144349413Y-120016234D01*
X144349416Y-120016233D01*
X144481745Y-120003200D01*
X144570255Y-120003200D01*
X144702584Y-120016233D01*
X144702584Y-120016233D01*
G37*
G36*
X142162584Y-120016233D02*
G01*
X142162587Y-120016234D01*
X142162588Y-120016234D01*
X142332389Y-120067743D01*
X142379861Y-120093117D01*
X142488881Y-120151389D01*
X142626044Y-120263956D01*
X142738611Y-120401119D01*
X142796883Y-120510139D01*
X142822257Y-120557611D01*
X142873766Y-120727412D01*
X142873767Y-120727416D01*
X142891159Y-120904000D01*
X142873767Y-121080584D01*
X142873766Y-121080587D01*
X142873766Y-121080588D01*
X142822257Y-121250389D01*
X142822256Y-121250390D01*
X142738611Y-121406881D01*
X142626044Y-121544044D01*
X142488881Y-121656611D01*
X142379861Y-121714883D01*
X142332389Y-121740257D01*
X142162588Y-121791766D01*
X142162587Y-121791766D01*
X142162584Y-121791767D01*
X142030255Y-121804800D01*
X141941745Y-121804800D01*
X141809416Y-121791767D01*
X141809413Y-121791766D01*
X141809412Y-121791766D01*
X141639611Y-121740257D01*
X141592139Y-121714883D01*
X141483119Y-121656611D01*
X141345956Y-121544044D01*
X141233389Y-121406881D01*
X141149744Y-121250390D01*
X141149743Y-121250389D01*
X141098234Y-121080588D01*
X141098234Y-121080587D01*
X141098233Y-121080584D01*
X141080841Y-120904000D01*
X141098233Y-120727416D01*
X141098234Y-120727412D01*
X141149743Y-120557611D01*
X141175117Y-120510139D01*
X141233389Y-120401119D01*
X141345956Y-120263956D01*
X141483119Y-120151389D01*
X141592139Y-120093117D01*
X141639611Y-120067743D01*
X141809412Y-120016234D01*
X141809413Y-120016234D01*
X141809416Y-120016233D01*
X141941745Y-120003200D01*
X142030255Y-120003200D01*
X142162584Y-120016233D01*
X142162584Y-120016233D01*
G37*
G36*
X139622584Y-120016233D02*
G01*
X139622587Y-120016234D01*
X139622588Y-120016234D01*
X139792389Y-120067743D01*
X139839861Y-120093117D01*
X139948881Y-120151389D01*
X140086044Y-120263956D01*
X140198611Y-120401119D01*
X140256883Y-120510139D01*
X140282257Y-120557611D01*
X140333766Y-120727412D01*
X140333767Y-120727416D01*
X140351159Y-120904000D01*
X140333767Y-121080584D01*
X140333766Y-121080587D01*
X140333766Y-121080588D01*
X140282257Y-121250389D01*
X140282256Y-121250390D01*
X140198611Y-121406881D01*
X140086044Y-121544044D01*
X139948881Y-121656611D01*
X139839861Y-121714883D01*
X139792389Y-121740257D01*
X139622588Y-121791766D01*
X139622587Y-121791766D01*
X139622584Y-121791767D01*
X139490255Y-121804800D01*
X139401745Y-121804800D01*
X139269416Y-121791767D01*
X139269413Y-121791766D01*
X139269412Y-121791766D01*
X139099611Y-121740257D01*
X139052139Y-121714883D01*
X138943119Y-121656611D01*
X138805956Y-121544044D01*
X138693389Y-121406881D01*
X138609744Y-121250390D01*
X138609743Y-121250389D01*
X138558234Y-121080588D01*
X138558234Y-121080587D01*
X138558233Y-121080584D01*
X138540841Y-120904000D01*
X138558233Y-120727416D01*
X138558234Y-120727412D01*
X138609743Y-120557611D01*
X138635117Y-120510139D01*
X138693389Y-120401119D01*
X138805956Y-120263956D01*
X138943119Y-120151389D01*
X139052139Y-120093117D01*
X139099611Y-120067743D01*
X139269412Y-120016234D01*
X139269413Y-120016234D01*
X139269416Y-120016233D01*
X139401745Y-120003200D01*
X139490255Y-120003200D01*
X139622584Y-120016233D01*
X139622584Y-120016233D01*
G37*
G36*
X137082584Y-120016233D02*
G01*
X137082587Y-120016234D01*
X137082588Y-120016234D01*
X137252389Y-120067743D01*
X137299861Y-120093117D01*
X137408881Y-120151389D01*
X137546044Y-120263956D01*
X137658611Y-120401119D01*
X137716883Y-120510139D01*
X137742257Y-120557611D01*
X137793766Y-120727412D01*
X137793767Y-120727416D01*
X137811159Y-120904000D01*
X137793767Y-121080584D01*
X137793766Y-121080587D01*
X137793766Y-121080588D01*
X137742257Y-121250389D01*
X137742256Y-121250390D01*
X137658611Y-121406881D01*
X137546044Y-121544044D01*
X137408881Y-121656611D01*
X137299861Y-121714883D01*
X137252389Y-121740257D01*
X137082588Y-121791766D01*
X137082587Y-121791766D01*
X137082584Y-121791767D01*
X136950255Y-121804800D01*
X136861745Y-121804800D01*
X136729416Y-121791767D01*
X136729413Y-121791766D01*
X136729412Y-121791766D01*
X136559611Y-121740257D01*
X136512139Y-121714883D01*
X136403119Y-121656611D01*
X136265956Y-121544044D01*
X136153389Y-121406881D01*
X136069744Y-121250390D01*
X136069743Y-121250389D01*
X136018234Y-121080588D01*
X136018234Y-121080587D01*
X136018233Y-121080584D01*
X136000841Y-120904000D01*
X136018233Y-120727416D01*
X136018234Y-120727412D01*
X136069743Y-120557611D01*
X136095117Y-120510139D01*
X136153389Y-120401119D01*
X136265956Y-120263956D01*
X136403119Y-120151389D01*
X136512139Y-120093117D01*
X136559611Y-120067743D01*
X136729412Y-120016234D01*
X136729413Y-120016234D01*
X136729416Y-120016233D01*
X136861745Y-120003200D01*
X136950255Y-120003200D01*
X137082584Y-120016233D01*
X137082584Y-120016233D01*
G37*
G36*
X134542584Y-120016233D02*
G01*
X134542587Y-120016234D01*
X134542588Y-120016234D01*
X134712389Y-120067743D01*
X134759861Y-120093117D01*
X134868881Y-120151389D01*
X135006044Y-120263956D01*
X135118611Y-120401119D01*
X135176883Y-120510139D01*
X135202257Y-120557611D01*
X135253766Y-120727412D01*
X135253767Y-120727416D01*
X135271159Y-120904000D01*
X135253767Y-121080584D01*
X135253766Y-121080587D01*
X135253766Y-121080588D01*
X135202257Y-121250389D01*
X135202256Y-121250390D01*
X135118611Y-121406881D01*
X135006044Y-121544044D01*
X134868881Y-121656611D01*
X134759861Y-121714883D01*
X134712389Y-121740257D01*
X134542588Y-121791766D01*
X134542587Y-121791766D01*
X134542584Y-121791767D01*
X134410255Y-121804800D01*
X134321745Y-121804800D01*
X134189416Y-121791767D01*
X134189413Y-121791766D01*
X134189412Y-121791766D01*
X134019611Y-121740257D01*
X133972139Y-121714883D01*
X133863119Y-121656611D01*
X133725956Y-121544044D01*
X133613389Y-121406881D01*
X133529744Y-121250390D01*
X133529743Y-121250389D01*
X133478234Y-121080588D01*
X133478234Y-121080587D01*
X133478233Y-121080584D01*
X133460841Y-120904000D01*
X133478233Y-120727416D01*
X133478234Y-120727412D01*
X133529743Y-120557611D01*
X133555117Y-120510139D01*
X133613389Y-120401119D01*
X133725956Y-120263956D01*
X133863119Y-120151389D01*
X133972139Y-120093117D01*
X134019611Y-120067743D01*
X134189412Y-120016234D01*
X134189413Y-120016234D01*
X134189416Y-120016233D01*
X134321745Y-120003200D01*
X134410255Y-120003200D01*
X134542584Y-120016233D01*
X134542584Y-120016233D01*
G37*
G36*
X132002584Y-120016233D02*
G01*
X132002587Y-120016234D01*
X132002588Y-120016234D01*
X132172389Y-120067743D01*
X132219861Y-120093117D01*
X132328881Y-120151389D01*
X132466044Y-120263956D01*
X132578611Y-120401119D01*
X132636883Y-120510139D01*
X132662257Y-120557611D01*
X132713766Y-120727412D01*
X132713767Y-120727416D01*
X132731159Y-120904000D01*
X132713767Y-121080584D01*
X132713766Y-121080587D01*
X132713766Y-121080588D01*
X132662257Y-121250389D01*
X132662256Y-121250390D01*
X132578611Y-121406881D01*
X132466044Y-121544044D01*
X132328881Y-121656611D01*
X132219861Y-121714883D01*
X132172389Y-121740257D01*
X132002588Y-121791766D01*
X132002587Y-121791766D01*
X132002584Y-121791767D01*
X131870255Y-121804800D01*
X131781745Y-121804800D01*
X131649416Y-121791767D01*
X131649413Y-121791766D01*
X131649412Y-121791766D01*
X131479611Y-121740257D01*
X131432139Y-121714883D01*
X131323119Y-121656611D01*
X131185956Y-121544044D01*
X131073389Y-121406881D01*
X130989744Y-121250390D01*
X130989743Y-121250389D01*
X130938234Y-121080588D01*
X130938234Y-121080587D01*
X130938233Y-121080584D01*
X130920841Y-120904000D01*
X130938233Y-120727416D01*
X130938234Y-120727412D01*
X130989743Y-120557611D01*
X131015117Y-120510139D01*
X131073389Y-120401119D01*
X131185956Y-120263956D01*
X131323119Y-120151389D01*
X131432139Y-120093117D01*
X131479611Y-120067743D01*
X131649412Y-120016234D01*
X131649413Y-120016234D01*
X131649416Y-120016233D01*
X131781745Y-120003200D01*
X131870255Y-120003200D01*
X132002584Y-120016233D01*
X132002584Y-120016233D01*
G37*
G36*
X129462584Y-120016233D02*
G01*
X129462587Y-120016234D01*
X129462588Y-120016234D01*
X129632389Y-120067743D01*
X129679861Y-120093117D01*
X129788881Y-120151389D01*
X129926044Y-120263956D01*
X130038611Y-120401119D01*
X130096883Y-120510139D01*
X130122257Y-120557611D01*
X130173766Y-120727412D01*
X130173767Y-120727416D01*
X130191159Y-120904000D01*
X130173767Y-121080584D01*
X130173766Y-121080587D01*
X130173766Y-121080588D01*
X130122257Y-121250389D01*
X130122256Y-121250390D01*
X130038611Y-121406881D01*
X129926044Y-121544044D01*
X129788881Y-121656611D01*
X129679861Y-121714883D01*
X129632389Y-121740257D01*
X129462588Y-121791766D01*
X129462587Y-121791766D01*
X129462584Y-121791767D01*
X129330255Y-121804800D01*
X129241745Y-121804800D01*
X129109416Y-121791767D01*
X129109413Y-121791766D01*
X129109412Y-121791766D01*
X128939611Y-121740257D01*
X128892139Y-121714883D01*
X128783119Y-121656611D01*
X128645956Y-121544044D01*
X128533389Y-121406881D01*
X128449744Y-121250390D01*
X128449743Y-121250389D01*
X128398234Y-121080588D01*
X128398234Y-121080587D01*
X128398233Y-121080584D01*
X128380841Y-120904000D01*
X128398233Y-120727416D01*
X128398234Y-120727412D01*
X128449743Y-120557611D01*
X128475117Y-120510139D01*
X128533389Y-120401119D01*
X128645956Y-120263956D01*
X128783119Y-120151389D01*
X128892139Y-120093117D01*
X128939611Y-120067743D01*
X129109412Y-120016234D01*
X129109413Y-120016234D01*
X129109416Y-120016233D01*
X129241745Y-120003200D01*
X129330255Y-120003200D01*
X129462584Y-120016233D01*
X129462584Y-120016233D01*
G37*
G36*
X126922584Y-120016233D02*
G01*
X126922587Y-120016234D01*
X126922588Y-120016234D01*
X127092389Y-120067743D01*
X127139861Y-120093117D01*
X127248881Y-120151389D01*
X127386044Y-120263956D01*
X127498611Y-120401119D01*
X127556883Y-120510139D01*
X127582257Y-120557611D01*
X127633766Y-120727412D01*
X127633767Y-120727416D01*
X127651159Y-120904000D01*
X127633767Y-121080584D01*
X127633766Y-121080587D01*
X127633766Y-121080588D01*
X127582257Y-121250389D01*
X127582256Y-121250390D01*
X127498611Y-121406881D01*
X127386044Y-121544044D01*
X127248881Y-121656611D01*
X127139861Y-121714883D01*
X127092389Y-121740257D01*
X126922588Y-121791766D01*
X126922587Y-121791766D01*
X126922584Y-121791767D01*
X126790255Y-121804800D01*
X126701745Y-121804800D01*
X126569416Y-121791767D01*
X126569413Y-121791766D01*
X126569412Y-121791766D01*
X126399611Y-121740257D01*
X126352139Y-121714883D01*
X126243119Y-121656611D01*
X126105956Y-121544044D01*
X125993389Y-121406881D01*
X125909744Y-121250390D01*
X125909743Y-121250389D01*
X125858234Y-121080588D01*
X125858234Y-121080587D01*
X125858233Y-121080584D01*
X125840841Y-120904000D01*
X125858233Y-120727416D01*
X125858234Y-120727412D01*
X125909743Y-120557611D01*
X125935117Y-120510139D01*
X125993389Y-120401119D01*
X126105956Y-120263956D01*
X126243119Y-120151389D01*
X126352139Y-120093117D01*
X126399611Y-120067743D01*
X126569412Y-120016234D01*
X126569413Y-120016234D01*
X126569416Y-120016233D01*
X126701745Y-120003200D01*
X126790255Y-120003200D01*
X126922584Y-120016233D01*
X126922584Y-120016233D01*
G37*
G36*
X124382584Y-120016233D02*
G01*
X124382587Y-120016234D01*
X124382588Y-120016234D01*
X124552389Y-120067743D01*
X124599861Y-120093117D01*
X124708881Y-120151389D01*
X124846044Y-120263956D01*
X124958611Y-120401119D01*
X125016883Y-120510139D01*
X125042257Y-120557611D01*
X125093766Y-120727412D01*
X125093767Y-120727416D01*
X125111159Y-120904000D01*
X125093767Y-121080584D01*
X125093766Y-121080587D01*
X125093766Y-121080588D01*
X125042257Y-121250389D01*
X125042256Y-121250390D01*
X124958611Y-121406881D01*
X124846044Y-121544044D01*
X124708881Y-121656611D01*
X124599861Y-121714883D01*
X124552389Y-121740257D01*
X124382588Y-121791766D01*
X124382587Y-121791766D01*
X124382584Y-121791767D01*
X124250255Y-121804800D01*
X124161745Y-121804800D01*
X124029416Y-121791767D01*
X124029413Y-121791766D01*
X124029412Y-121791766D01*
X123859611Y-121740257D01*
X123812139Y-121714883D01*
X123703119Y-121656611D01*
X123565956Y-121544044D01*
X123453389Y-121406881D01*
X123369744Y-121250390D01*
X123369743Y-121250389D01*
X123318234Y-121080588D01*
X123318234Y-121080587D01*
X123318233Y-121080584D01*
X123300841Y-120904000D01*
X123318233Y-120727416D01*
X123318234Y-120727412D01*
X123369743Y-120557611D01*
X123395117Y-120510139D01*
X123453389Y-120401119D01*
X123565956Y-120263956D01*
X123703119Y-120151389D01*
X123812139Y-120093117D01*
X123859611Y-120067743D01*
X124029412Y-120016234D01*
X124029413Y-120016234D01*
X124029416Y-120016233D01*
X124161745Y-120003200D01*
X124250255Y-120003200D01*
X124382584Y-120016233D01*
X124382584Y-120016233D01*
G37*
G36*
X121842584Y-120016233D02*
G01*
X121842587Y-120016234D01*
X121842588Y-120016234D01*
X122012389Y-120067743D01*
X122059861Y-120093117D01*
X122168881Y-120151389D01*
X122306044Y-120263956D01*
X122418611Y-120401119D01*
X122476883Y-120510139D01*
X122502257Y-120557611D01*
X122553766Y-120727412D01*
X122553767Y-120727416D01*
X122571159Y-120904000D01*
X122553767Y-121080584D01*
X122553766Y-121080587D01*
X122553766Y-121080588D01*
X122502257Y-121250389D01*
X122502256Y-121250390D01*
X122418611Y-121406881D01*
X122306044Y-121544044D01*
X122168881Y-121656611D01*
X122059861Y-121714883D01*
X122012389Y-121740257D01*
X121842588Y-121791766D01*
X121842587Y-121791766D01*
X121842584Y-121791767D01*
X121710255Y-121804800D01*
X121621745Y-121804800D01*
X121489416Y-121791767D01*
X121489413Y-121791766D01*
X121489412Y-121791766D01*
X121319611Y-121740257D01*
X121272139Y-121714883D01*
X121163119Y-121656611D01*
X121025956Y-121544044D01*
X120913389Y-121406881D01*
X120829744Y-121250390D01*
X120829743Y-121250389D01*
X120778234Y-121080588D01*
X120778234Y-121080587D01*
X120778233Y-121080584D01*
X120760841Y-120904000D01*
X120778233Y-120727416D01*
X120778234Y-120727412D01*
X120829743Y-120557611D01*
X120855117Y-120510139D01*
X120913389Y-120401119D01*
X121025956Y-120263956D01*
X121163119Y-120151389D01*
X121272139Y-120093117D01*
X121319611Y-120067743D01*
X121489412Y-120016234D01*
X121489413Y-120016234D01*
X121489416Y-120016233D01*
X121621745Y-120003200D01*
X121710255Y-120003200D01*
X121842584Y-120016233D01*
X121842584Y-120016233D01*
G37*
G36*
X119302584Y-120016233D02*
G01*
X119302587Y-120016234D01*
X119302588Y-120016234D01*
X119472389Y-120067743D01*
X119519861Y-120093117D01*
X119628881Y-120151389D01*
X119766044Y-120263956D01*
X119878611Y-120401119D01*
X119936883Y-120510139D01*
X119962257Y-120557611D01*
X120013766Y-120727412D01*
X120013767Y-120727416D01*
X120031159Y-120904000D01*
X120013767Y-121080584D01*
X120013766Y-121080587D01*
X120013766Y-121080588D01*
X119962257Y-121250389D01*
X119962256Y-121250390D01*
X119878611Y-121406881D01*
X119766044Y-121544044D01*
X119628881Y-121656611D01*
X119519861Y-121714883D01*
X119472389Y-121740257D01*
X119302588Y-121791766D01*
X119302587Y-121791766D01*
X119302584Y-121791767D01*
X119170255Y-121804800D01*
X119081745Y-121804800D01*
X118949416Y-121791767D01*
X118949413Y-121791766D01*
X118949412Y-121791766D01*
X118779611Y-121740257D01*
X118732139Y-121714883D01*
X118623119Y-121656611D01*
X118485956Y-121544044D01*
X118373389Y-121406881D01*
X118289744Y-121250390D01*
X118289743Y-121250389D01*
X118238234Y-121080588D01*
X118238234Y-121080587D01*
X118238233Y-121080584D01*
X118220841Y-120904000D01*
X118238233Y-120727416D01*
X118238234Y-120727412D01*
X118289743Y-120557611D01*
X118315117Y-120510139D01*
X118373389Y-120401119D01*
X118485956Y-120263956D01*
X118623119Y-120151389D01*
X118732139Y-120093117D01*
X118779611Y-120067743D01*
X118949412Y-120016234D01*
X118949413Y-120016234D01*
X118949416Y-120016233D01*
X119081745Y-120003200D01*
X119170255Y-120003200D01*
X119302584Y-120016233D01*
X119302584Y-120016233D01*
G37*
G36*
X116762584Y-120016233D02*
G01*
X116762587Y-120016234D01*
X116762588Y-120016234D01*
X116932389Y-120067743D01*
X116979861Y-120093117D01*
X117088881Y-120151389D01*
X117226044Y-120263956D01*
X117338611Y-120401119D01*
X117396883Y-120510139D01*
X117422257Y-120557611D01*
X117473766Y-120727412D01*
X117473767Y-120727416D01*
X117491159Y-120904000D01*
X117473767Y-121080584D01*
X117473766Y-121080587D01*
X117473766Y-121080588D01*
X117422257Y-121250389D01*
X117422256Y-121250390D01*
X117338611Y-121406881D01*
X117226044Y-121544044D01*
X117088881Y-121656611D01*
X116979861Y-121714883D01*
X116932389Y-121740257D01*
X116762588Y-121791766D01*
X116762587Y-121791766D01*
X116762584Y-121791767D01*
X116630255Y-121804800D01*
X116541745Y-121804800D01*
X116409416Y-121791767D01*
X116409413Y-121791766D01*
X116409412Y-121791766D01*
X116239611Y-121740257D01*
X116192139Y-121714883D01*
X116083119Y-121656611D01*
X115945956Y-121544044D01*
X115833389Y-121406881D01*
X115749744Y-121250390D01*
X115749743Y-121250389D01*
X115698234Y-121080588D01*
X115698234Y-121080587D01*
X115698233Y-121080584D01*
X115680841Y-120904000D01*
X115698233Y-120727416D01*
X115698234Y-120727412D01*
X115749743Y-120557611D01*
X115775117Y-120510139D01*
X115833389Y-120401119D01*
X115945956Y-120263956D01*
X116083119Y-120151389D01*
X116192139Y-120093117D01*
X116239611Y-120067743D01*
X116409412Y-120016234D01*
X116409413Y-120016234D01*
X116409416Y-120016233D01*
X116541745Y-120003200D01*
X116630255Y-120003200D01*
X116762584Y-120016233D01*
X116762584Y-120016233D01*
G37*
G36*
X114946800Y-121804800D02*
G01*
X113145200Y-121804800D01*
X113145200Y-120003200D01*
X114946800Y-120003200D01*
X114946800Y-121804800D01*
X114946800Y-121804800D01*
G37*
G36*
X160164584Y-116740004D02*
G01*
X160209091Y-116753505D01*
X160250112Y-116775431D01*
X160286064Y-116804936D01*
X160315569Y-116840888D01*
X160337495Y-116881909D01*
X160350996Y-116926416D01*
X160355800Y-116975193D01*
X160355800Y-117546807D01*
X160350996Y-117595584D01*
X160337495Y-117640091D01*
X160315569Y-117681112D01*
X160286064Y-117717064D01*
X160250112Y-117746569D01*
X160209091Y-117768495D01*
X160164584Y-117781996D01*
X160115807Y-117786800D01*
X159444193Y-117786800D01*
X159395416Y-117781996D01*
X159350909Y-117768495D01*
X159309888Y-117746569D01*
X159273936Y-117717064D01*
X159244431Y-117681112D01*
X159222505Y-117640091D01*
X159209004Y-117595584D01*
X159204200Y-117546807D01*
X159204200Y-116975193D01*
X159209004Y-116926416D01*
X159222505Y-116881909D01*
X159244431Y-116840888D01*
X159273936Y-116804936D01*
X159309888Y-116775431D01*
X159350909Y-116753505D01*
X159395416Y-116740004D01*
X159444193Y-116735200D01*
X160115807Y-116735200D01*
X160164584Y-116740004D01*
X160164584Y-116740004D01*
G37*
G36*
X161914584Y-116740004D02*
G01*
X161959091Y-116753505D01*
X162000112Y-116775431D01*
X162036064Y-116804936D01*
X162065569Y-116840888D01*
X162087495Y-116881909D01*
X162100996Y-116926416D01*
X162105800Y-116975193D01*
X162105800Y-117546807D01*
X162100996Y-117595584D01*
X162087495Y-117640091D01*
X162065569Y-117681112D01*
X162036064Y-117717064D01*
X162000112Y-117746569D01*
X161959091Y-117768495D01*
X161914584Y-117781996D01*
X161865807Y-117786800D01*
X161194193Y-117786800D01*
X161145416Y-117781996D01*
X161100909Y-117768495D01*
X161059888Y-117746569D01*
X161023936Y-117717064D01*
X160994431Y-117681112D01*
X160972505Y-117640091D01*
X160959004Y-117595584D01*
X160954200Y-117546807D01*
X160954200Y-116975193D01*
X160959004Y-116926416D01*
X160972505Y-116881909D01*
X160994431Y-116840888D01*
X161023936Y-116804936D01*
X161059888Y-116775431D01*
X161100909Y-116753505D01*
X161145416Y-116740004D01*
X161194193Y-116735200D01*
X161865807Y-116735200D01*
X161914584Y-116740004D01*
X161914584Y-116740004D01*
G37*
G36*
X148085584Y-116700004D02*
G01*
X148130091Y-116713505D01*
X148171112Y-116735431D01*
X148207064Y-116764936D01*
X148236569Y-116800888D01*
X148258495Y-116841909D01*
X148271996Y-116886416D01*
X148276800Y-116935193D01*
X148276800Y-117506807D01*
X148271996Y-117555584D01*
X148258495Y-117600091D01*
X148236569Y-117641112D01*
X148207064Y-117677064D01*
X148171112Y-117706569D01*
X148130091Y-117728495D01*
X148085584Y-117741996D01*
X148036807Y-117746800D01*
X147365193Y-117746800D01*
X147316416Y-117741996D01*
X147271909Y-117728495D01*
X147230888Y-117706569D01*
X147194936Y-117677064D01*
X147165431Y-117641112D01*
X147143505Y-117600091D01*
X147130004Y-117555584D01*
X147125200Y-117506807D01*
X147125200Y-116935193D01*
X147130004Y-116886416D01*
X147143505Y-116841909D01*
X147165431Y-116800888D01*
X147194936Y-116764936D01*
X147230888Y-116735431D01*
X147271909Y-116713505D01*
X147316416Y-116700004D01*
X147365193Y-116695200D01*
X148036807Y-116695200D01*
X148085584Y-116700004D01*
X148085584Y-116700004D01*
G37*
G36*
X146335584Y-116700004D02*
G01*
X146380091Y-116713505D01*
X146421112Y-116735431D01*
X146457064Y-116764936D01*
X146486569Y-116800888D01*
X146508495Y-116841909D01*
X146521996Y-116886416D01*
X146526800Y-116935193D01*
X146526800Y-117506807D01*
X146521996Y-117555584D01*
X146508495Y-117600091D01*
X146486569Y-117641112D01*
X146457064Y-117677064D01*
X146421112Y-117706569D01*
X146380091Y-117728495D01*
X146335584Y-117741996D01*
X146286807Y-117746800D01*
X145615193Y-117746800D01*
X145566416Y-117741996D01*
X145521909Y-117728495D01*
X145480888Y-117706569D01*
X145444936Y-117677064D01*
X145415431Y-117641112D01*
X145393505Y-117600091D01*
X145380004Y-117555584D01*
X145375200Y-117506807D01*
X145375200Y-116935193D01*
X145380004Y-116886416D01*
X145393505Y-116841909D01*
X145415431Y-116800888D01*
X145444936Y-116764936D01*
X145480888Y-116735431D01*
X145521909Y-116713505D01*
X145566416Y-116700004D01*
X145615193Y-116695200D01*
X146286807Y-116695200D01*
X146335584Y-116700004D01*
X146335584Y-116700004D01*
G37*
G36*
X143833800Y-117324800D02*
G01*
X142932200Y-117324800D01*
X142932200Y-116323200D01*
X143833800Y-116323200D01*
X143833800Y-117324800D01*
X143833800Y-117324800D01*
G37*
G36*
X126915800Y-116738800D02*
G01*
X125364200Y-116738800D01*
X125364200Y-110337200D01*
X126915800Y-110337200D01*
X126915800Y-116738800D01*
X126915800Y-116738800D01*
G37*
G36*
X121015800Y-116738800D02*
G01*
X119464200Y-116738800D01*
X119464200Y-110337200D01*
X121015800Y-110337200D01*
X121015800Y-116738800D01*
X121015800Y-116738800D01*
G37*
G36*
X130603800Y-116603800D02*
G01*
X129742200Y-116603800D01*
X129742200Y-116072200D01*
X130603800Y-116072200D01*
X130603800Y-116603800D01*
X130603800Y-116603800D01*
G37*
G36*
X129083800Y-116603800D02*
G01*
X128222200Y-116603800D01*
X128222200Y-116072200D01*
X129083800Y-116072200D01*
X129083800Y-116603800D01*
X129083800Y-116603800D01*
G37*
G36*
X129083800Y-115803800D02*
G01*
X128222200Y-115803800D01*
X128222200Y-115272200D01*
X129083800Y-115272200D01*
X129083800Y-115803800D01*
X129083800Y-115803800D01*
G37*
G36*
X130603800Y-115803800D02*
G01*
X129742200Y-115803800D01*
X129742200Y-115272200D01*
X130603800Y-115272200D01*
X130603800Y-115803800D01*
X130603800Y-115803800D01*
G37*
G36*
X146321584Y-114668004D02*
G01*
X146366091Y-114681505D01*
X146407112Y-114703431D01*
X146443064Y-114732936D01*
X146472569Y-114768888D01*
X146494495Y-114809909D01*
X146507996Y-114854416D01*
X146512800Y-114903193D01*
X146512800Y-115474807D01*
X146507996Y-115523584D01*
X146494495Y-115568091D01*
X146472569Y-115609112D01*
X146443064Y-115645064D01*
X146407112Y-115674569D01*
X146366091Y-115696495D01*
X146321584Y-115709996D01*
X146272807Y-115714800D01*
X145601193Y-115714800D01*
X145552416Y-115709996D01*
X145507909Y-115696495D01*
X145466888Y-115674569D01*
X145430936Y-115645064D01*
X145401431Y-115609112D01*
X145379505Y-115568091D01*
X145366004Y-115523584D01*
X145361200Y-115474807D01*
X145361200Y-114903193D01*
X145366004Y-114854416D01*
X145379505Y-114809909D01*
X145401431Y-114768888D01*
X145430936Y-114732936D01*
X145466888Y-114703431D01*
X145507909Y-114681505D01*
X145552416Y-114668004D01*
X145601193Y-114663200D01*
X146272807Y-114663200D01*
X146321584Y-114668004D01*
X146321584Y-114668004D01*
G37*
G36*
X148071584Y-114668004D02*
G01*
X148116091Y-114681505D01*
X148157112Y-114703431D01*
X148193064Y-114732936D01*
X148222569Y-114768888D01*
X148244495Y-114809909D01*
X148257996Y-114854416D01*
X148262800Y-114903193D01*
X148262800Y-115474807D01*
X148257996Y-115523584D01*
X148244495Y-115568091D01*
X148222569Y-115609112D01*
X148193064Y-115645064D01*
X148157112Y-115674569D01*
X148116091Y-115696495D01*
X148071584Y-115709996D01*
X148022807Y-115714800D01*
X147351193Y-115714800D01*
X147302416Y-115709996D01*
X147257909Y-115696495D01*
X147216888Y-115674569D01*
X147180936Y-115645064D01*
X147151431Y-115609112D01*
X147129505Y-115568091D01*
X147116004Y-115523584D01*
X147111200Y-115474807D01*
X147111200Y-114903193D01*
X147116004Y-114854416D01*
X147129505Y-114809909D01*
X147151431Y-114768888D01*
X147180936Y-114732936D01*
X147216888Y-114703431D01*
X147257909Y-114681505D01*
X147302416Y-114668004D01*
X147351193Y-114663200D01*
X148022807Y-114663200D01*
X148071584Y-114668004D01*
X148071584Y-114668004D01*
G37*
G36*
X149782584Y-113666233D02*
G01*
X149782587Y-113666234D01*
X149782588Y-113666234D01*
X149952389Y-113717743D01*
X149999861Y-113743117D01*
X150108881Y-113801389D01*
X150246044Y-113913956D01*
X150358611Y-114051119D01*
X150405477Y-114138800D01*
X150442257Y-114207611D01*
X150493766Y-114377412D01*
X150493767Y-114377416D01*
X150511159Y-114554000D01*
X150493767Y-114730584D01*
X150493766Y-114730587D01*
X150493766Y-114730588D01*
X150442257Y-114900389D01*
X150442256Y-114900390D01*
X150358611Y-115056881D01*
X150246044Y-115194044D01*
X150108881Y-115306611D01*
X149999861Y-115364883D01*
X149952389Y-115390257D01*
X149782588Y-115441766D01*
X149782587Y-115441766D01*
X149782584Y-115441767D01*
X149650255Y-115454800D01*
X149561745Y-115454800D01*
X149429416Y-115441767D01*
X149429413Y-115441766D01*
X149429412Y-115441766D01*
X149259611Y-115390257D01*
X149212139Y-115364883D01*
X149103119Y-115306611D01*
X148965956Y-115194044D01*
X148853389Y-115056881D01*
X148769744Y-114900390D01*
X148769743Y-114900389D01*
X148718234Y-114730588D01*
X148718234Y-114730587D01*
X148718233Y-114730584D01*
X148700841Y-114554000D01*
X148718233Y-114377416D01*
X148718234Y-114377412D01*
X148769743Y-114207611D01*
X148806523Y-114138800D01*
X148853389Y-114051119D01*
X148965956Y-113913956D01*
X149103119Y-113801389D01*
X149212139Y-113743117D01*
X149259611Y-113717743D01*
X149429412Y-113666234D01*
X149429413Y-113666234D01*
X149429416Y-113666233D01*
X149561745Y-113653200D01*
X149650255Y-113653200D01*
X149782584Y-113666233D01*
X149782584Y-113666233D01*
G37*
G36*
X152322584Y-113666233D02*
G01*
X152322587Y-113666234D01*
X152322588Y-113666234D01*
X152492389Y-113717743D01*
X152539861Y-113743117D01*
X152648881Y-113801389D01*
X152786044Y-113913956D01*
X152898611Y-114051119D01*
X152945477Y-114138800D01*
X152982257Y-114207611D01*
X153033766Y-114377412D01*
X153033767Y-114377416D01*
X153051159Y-114554000D01*
X153033767Y-114730584D01*
X153033766Y-114730587D01*
X153033766Y-114730588D01*
X152982257Y-114900389D01*
X152982256Y-114900390D01*
X152898611Y-115056881D01*
X152786044Y-115194044D01*
X152648881Y-115306611D01*
X152539861Y-115364883D01*
X152492389Y-115390257D01*
X152322588Y-115441766D01*
X152322587Y-115441766D01*
X152322584Y-115441767D01*
X152190255Y-115454800D01*
X152101745Y-115454800D01*
X151969416Y-115441767D01*
X151969413Y-115441766D01*
X151969412Y-115441766D01*
X151799611Y-115390257D01*
X151752139Y-115364883D01*
X151643119Y-115306611D01*
X151505956Y-115194044D01*
X151393389Y-115056881D01*
X151309744Y-114900390D01*
X151309743Y-114900389D01*
X151258234Y-114730588D01*
X151258234Y-114730587D01*
X151258233Y-114730584D01*
X151240841Y-114554000D01*
X151258233Y-114377416D01*
X151258234Y-114377412D01*
X151309743Y-114207611D01*
X151346523Y-114138800D01*
X151393389Y-114051119D01*
X151505956Y-113913956D01*
X151643119Y-113801389D01*
X151752139Y-113743117D01*
X151799611Y-113717743D01*
X151969412Y-113666234D01*
X151969413Y-113666234D01*
X151969416Y-113666233D01*
X152101745Y-113653200D01*
X152190255Y-113653200D01*
X152322584Y-113666233D01*
X152322584Y-113666233D01*
G37*
G36*
X144783800Y-115324800D02*
G01*
X143882200Y-115324800D01*
X143882200Y-114323200D01*
X144783800Y-114323200D01*
X144783800Y-115324800D01*
X144783800Y-115324800D01*
G37*
G36*
X142883800Y-115324800D02*
G01*
X141982200Y-115324800D01*
X141982200Y-114323200D01*
X142883800Y-114323200D01*
X142883800Y-115324800D01*
X142883800Y-115324800D01*
G37*
G36*
X130603800Y-115003800D02*
G01*
X129742200Y-115003800D01*
X129742200Y-114472200D01*
X130603800Y-114472200D01*
X130603800Y-115003800D01*
X130603800Y-115003800D01*
G37*
G36*
X129083800Y-115003800D02*
G01*
X128222200Y-115003800D01*
X128222200Y-114472200D01*
X129083800Y-114472200D01*
X129083800Y-115003800D01*
X129083800Y-115003800D01*
G37*
G36*
X129083800Y-114203800D02*
G01*
X128222200Y-114203800D01*
X128222200Y-113672200D01*
X129083800Y-113672200D01*
X129083800Y-114203800D01*
X129083800Y-114203800D01*
G37*
G36*
X130603800Y-114203800D02*
G01*
X129742200Y-114203800D01*
X129742200Y-113672200D01*
X130603800Y-113672200D01*
X130603800Y-114203800D01*
X130603800Y-114203800D01*
G37*
G36*
X148071584Y-113144004D02*
G01*
X148116091Y-113157505D01*
X148157112Y-113179431D01*
X148193064Y-113208936D01*
X148222569Y-113244888D01*
X148244495Y-113285909D01*
X148257996Y-113330416D01*
X148262800Y-113379193D01*
X148262800Y-113950807D01*
X148257996Y-113999584D01*
X148244495Y-114044091D01*
X148222569Y-114085112D01*
X148193064Y-114121064D01*
X148157112Y-114150569D01*
X148116091Y-114172495D01*
X148071584Y-114185996D01*
X148022807Y-114190800D01*
X147351193Y-114190800D01*
X147302416Y-114185996D01*
X147257909Y-114172495D01*
X147216888Y-114150569D01*
X147180936Y-114121064D01*
X147151431Y-114085112D01*
X147129505Y-114044091D01*
X147116004Y-113999584D01*
X147111200Y-113950807D01*
X147111200Y-113379193D01*
X147116004Y-113330416D01*
X147129505Y-113285909D01*
X147151431Y-113244888D01*
X147180936Y-113208936D01*
X147216888Y-113179431D01*
X147257909Y-113157505D01*
X147302416Y-113144004D01*
X147351193Y-113139200D01*
X148022807Y-113139200D01*
X148071584Y-113144004D01*
X148071584Y-113144004D01*
G37*
G36*
X146321584Y-113144004D02*
G01*
X146366091Y-113157505D01*
X146407112Y-113179431D01*
X146443064Y-113208936D01*
X146472569Y-113244888D01*
X146494495Y-113285909D01*
X146507996Y-113330416D01*
X146512800Y-113379193D01*
X146512800Y-113950807D01*
X146507996Y-113999584D01*
X146494495Y-114044091D01*
X146472569Y-114085112D01*
X146443064Y-114121064D01*
X146407112Y-114150569D01*
X146366091Y-114172495D01*
X146321584Y-114185996D01*
X146272807Y-114190800D01*
X145601193Y-114190800D01*
X145552416Y-114185996D01*
X145507909Y-114172495D01*
X145466888Y-114150569D01*
X145430936Y-114121064D01*
X145401431Y-114085112D01*
X145379505Y-114044091D01*
X145366004Y-113999584D01*
X145361200Y-113950807D01*
X145361200Y-113379193D01*
X145366004Y-113330416D01*
X145379505Y-113285909D01*
X145401431Y-113244888D01*
X145430936Y-113208936D01*
X145466888Y-113179431D01*
X145507909Y-113157505D01*
X145552416Y-113144004D01*
X145601193Y-113139200D01*
X146272807Y-113139200D01*
X146321584Y-113144004D01*
X146321584Y-113144004D01*
G37*
G36*
X156834584Y-112509004D02*
G01*
X156879091Y-112522505D01*
X156920112Y-112544431D01*
X156956064Y-112573936D01*
X156985569Y-112609888D01*
X157007495Y-112650909D01*
X157020996Y-112695416D01*
X157025800Y-112744193D01*
X157025800Y-113315807D01*
X157020996Y-113364584D01*
X157007495Y-113409091D01*
X156985569Y-113450112D01*
X156956064Y-113486064D01*
X156920112Y-113515569D01*
X156879091Y-113537495D01*
X156834584Y-113550996D01*
X156785807Y-113555800D01*
X156114193Y-113555800D01*
X156065416Y-113550996D01*
X156020909Y-113537495D01*
X155979888Y-113515569D01*
X155943936Y-113486064D01*
X155914431Y-113450112D01*
X155892505Y-113409091D01*
X155879004Y-113364584D01*
X155874200Y-113315807D01*
X155874200Y-112744193D01*
X155879004Y-112695416D01*
X155892505Y-112650909D01*
X155914431Y-112609888D01*
X155943936Y-112573936D01*
X155979888Y-112544431D01*
X156020909Y-112522505D01*
X156065416Y-112509004D01*
X156114193Y-112504200D01*
X156785807Y-112504200D01*
X156834584Y-112509004D01*
X156834584Y-112509004D01*
G37*
G36*
X155084584Y-112509004D02*
G01*
X155129091Y-112522505D01*
X155170112Y-112544431D01*
X155206064Y-112573936D01*
X155235569Y-112609888D01*
X155257495Y-112650909D01*
X155270996Y-112695416D01*
X155275800Y-112744193D01*
X155275800Y-113315807D01*
X155270996Y-113364584D01*
X155257495Y-113409091D01*
X155235569Y-113450112D01*
X155206064Y-113486064D01*
X155170112Y-113515569D01*
X155129091Y-113537495D01*
X155084584Y-113550996D01*
X155035807Y-113555800D01*
X154364193Y-113555800D01*
X154315416Y-113550996D01*
X154270909Y-113537495D01*
X154229888Y-113515569D01*
X154193936Y-113486064D01*
X154164431Y-113450112D01*
X154142505Y-113409091D01*
X154129004Y-113364584D01*
X154124200Y-113315807D01*
X154124200Y-112744193D01*
X154129004Y-112695416D01*
X154142505Y-112650909D01*
X154164431Y-112609888D01*
X154193936Y-112573936D01*
X154229888Y-112544431D01*
X154270909Y-112522505D01*
X154315416Y-112509004D01*
X154364193Y-112504200D01*
X155035807Y-112504200D01*
X155084584Y-112509004D01*
X155084584Y-112509004D01*
G37*
G36*
X130603800Y-113403800D02*
G01*
X129742200Y-113403800D01*
X129742200Y-112872200D01*
X130603800Y-112872200D01*
X130603800Y-113403800D01*
X130603800Y-113403800D01*
G37*
G36*
X129083800Y-113403800D02*
G01*
X128222200Y-113403800D01*
X128222200Y-112872200D01*
X129083800Y-112872200D01*
X129083800Y-113403800D01*
X129083800Y-113403800D01*
G37*
G36*
X116603584Y-112001004D02*
G01*
X116648091Y-112014505D01*
X116689112Y-112036431D01*
X116725064Y-112065936D01*
X116754569Y-112101888D01*
X116776495Y-112142909D01*
X116789996Y-112187416D01*
X116794800Y-112236193D01*
X116794800Y-112807807D01*
X116789996Y-112856584D01*
X116776495Y-112901091D01*
X116754569Y-112942112D01*
X116725064Y-112978064D01*
X116689112Y-113007569D01*
X116648091Y-113029495D01*
X116603584Y-113042996D01*
X116554807Y-113047800D01*
X115883193Y-113047800D01*
X115834416Y-113042996D01*
X115789909Y-113029495D01*
X115748888Y-113007569D01*
X115712936Y-112978064D01*
X115683431Y-112942112D01*
X115661505Y-112901091D01*
X115648004Y-112856584D01*
X115643200Y-112807807D01*
X115643200Y-112236193D01*
X115648004Y-112187416D01*
X115661505Y-112142909D01*
X115683431Y-112101888D01*
X115712936Y-112065936D01*
X115748888Y-112036431D01*
X115789909Y-112014505D01*
X115834416Y-112001004D01*
X115883193Y-111996200D01*
X116554807Y-111996200D01*
X116603584Y-112001004D01*
X116603584Y-112001004D01*
G37*
G36*
X118353584Y-112001004D02*
G01*
X118398091Y-112014505D01*
X118439112Y-112036431D01*
X118475064Y-112065936D01*
X118504569Y-112101888D01*
X118526495Y-112142909D01*
X118539996Y-112187416D01*
X118544800Y-112236193D01*
X118544800Y-112807807D01*
X118539996Y-112856584D01*
X118526495Y-112901091D01*
X118504569Y-112942112D01*
X118475064Y-112978064D01*
X118439112Y-113007569D01*
X118398091Y-113029495D01*
X118353584Y-113042996D01*
X118304807Y-113047800D01*
X117633193Y-113047800D01*
X117584416Y-113042996D01*
X117539909Y-113029495D01*
X117498888Y-113007569D01*
X117462936Y-112978064D01*
X117433431Y-112942112D01*
X117411505Y-112901091D01*
X117398004Y-112856584D01*
X117393200Y-112807807D01*
X117393200Y-112236193D01*
X117398004Y-112187416D01*
X117411505Y-112142909D01*
X117433431Y-112101888D01*
X117462936Y-112065936D01*
X117498888Y-112036431D01*
X117539909Y-112014505D01*
X117584416Y-112001004D01*
X117633193Y-111996200D01*
X118304807Y-111996200D01*
X118353584Y-112001004D01*
X118353584Y-112001004D01*
G37*
G36*
X162099278Y-111513701D02*
G01*
X162171837Y-111535712D01*
X162236095Y-111555204D01*
X162362183Y-111622600D01*
X162472701Y-111713299D01*
X162563400Y-111823817D01*
X162630796Y-111949905D01*
X162644839Y-111996200D01*
X162672299Y-112086722D01*
X162686312Y-112229000D01*
X162672299Y-112371278D01*
X162650288Y-112443837D01*
X162630796Y-112508095D01*
X162563400Y-112634183D01*
X162472701Y-112744701D01*
X162362183Y-112835400D01*
X162236095Y-112902796D01*
X162171837Y-112922288D01*
X162099278Y-112944299D01*
X161992655Y-112954800D01*
X161571345Y-112954800D01*
X161464722Y-112944299D01*
X161392163Y-112922288D01*
X161327905Y-112902796D01*
X161201817Y-112835400D01*
X161091299Y-112744701D01*
X161000600Y-112634183D01*
X160933204Y-112508095D01*
X160913712Y-112443837D01*
X160891701Y-112371278D01*
X160877688Y-112229000D01*
X160891701Y-112086722D01*
X160919161Y-111996200D01*
X160933204Y-111949905D01*
X161000600Y-111823817D01*
X161091299Y-111713299D01*
X161201817Y-111622600D01*
X161327905Y-111555204D01*
X161392163Y-111535712D01*
X161464722Y-111513701D01*
X161571345Y-111503200D01*
X161992655Y-111503200D01*
X162099278Y-111513701D01*
X162099278Y-111513701D01*
G37*
G36*
X152322584Y-111126233D02*
G01*
X152322587Y-111126234D01*
X152322588Y-111126234D01*
X152492389Y-111177743D01*
X152534148Y-111200064D01*
X152648881Y-111261389D01*
X152786044Y-111373956D01*
X152898611Y-111511119D01*
X152928046Y-111566189D01*
X152982257Y-111667611D01*
X153022788Y-111801223D01*
X153033767Y-111837416D01*
X153051159Y-112014000D01*
X153033767Y-112190584D01*
X153033766Y-112190587D01*
X153033766Y-112190588D01*
X152982257Y-112360389D01*
X152956883Y-112407861D01*
X152898611Y-112516881D01*
X152786044Y-112654044D01*
X152648881Y-112766611D01*
X152539861Y-112824883D01*
X152492389Y-112850257D01*
X152322588Y-112901766D01*
X152322587Y-112901766D01*
X152322584Y-112901767D01*
X152190255Y-112914800D01*
X152101745Y-112914800D01*
X151969416Y-112901767D01*
X151969413Y-112901766D01*
X151969412Y-112901766D01*
X151799611Y-112850257D01*
X151752139Y-112824883D01*
X151643119Y-112766611D01*
X151505956Y-112654044D01*
X151393389Y-112516881D01*
X151335117Y-112407861D01*
X151309743Y-112360389D01*
X151258234Y-112190588D01*
X151258234Y-112190587D01*
X151258233Y-112190584D01*
X151240841Y-112014000D01*
X151258233Y-111837416D01*
X151269212Y-111801223D01*
X151309743Y-111667611D01*
X151363954Y-111566189D01*
X151393389Y-111511119D01*
X151505956Y-111373956D01*
X151643119Y-111261389D01*
X151757852Y-111200064D01*
X151799611Y-111177743D01*
X151969412Y-111126234D01*
X151969413Y-111126234D01*
X151969416Y-111126233D01*
X152101745Y-111113200D01*
X152190255Y-111113200D01*
X152322584Y-111126233D01*
X152322584Y-111126233D01*
G37*
G36*
X149782584Y-111126233D02*
G01*
X149782587Y-111126234D01*
X149782588Y-111126234D01*
X149952389Y-111177743D01*
X149994148Y-111200064D01*
X150108881Y-111261389D01*
X150246044Y-111373956D01*
X150358611Y-111511119D01*
X150388046Y-111566189D01*
X150442257Y-111667611D01*
X150482788Y-111801223D01*
X150493767Y-111837416D01*
X150511159Y-112014000D01*
X150493767Y-112190584D01*
X150493766Y-112190587D01*
X150493766Y-112190588D01*
X150442257Y-112360389D01*
X150416883Y-112407861D01*
X150358611Y-112516881D01*
X150246044Y-112654044D01*
X150108881Y-112766611D01*
X149999861Y-112824883D01*
X149952389Y-112850257D01*
X149782588Y-112901766D01*
X149782587Y-112901766D01*
X149782584Y-112901767D01*
X149650255Y-112914800D01*
X149561745Y-112914800D01*
X149429416Y-112901767D01*
X149429413Y-112901766D01*
X149429412Y-112901766D01*
X149259611Y-112850257D01*
X149212139Y-112824883D01*
X149103119Y-112766611D01*
X148965956Y-112654044D01*
X148853389Y-112516881D01*
X148795117Y-112407861D01*
X148769743Y-112360389D01*
X148718234Y-112190588D01*
X148718234Y-112190587D01*
X148718233Y-112190584D01*
X148700841Y-112014000D01*
X148718233Y-111837416D01*
X148729212Y-111801223D01*
X148769743Y-111667611D01*
X148823954Y-111566189D01*
X148853389Y-111511119D01*
X148965956Y-111373956D01*
X149103119Y-111261389D01*
X149217852Y-111200064D01*
X149259611Y-111177743D01*
X149429412Y-111126234D01*
X149429413Y-111126234D01*
X149429416Y-111126233D01*
X149561745Y-111113200D01*
X149650255Y-111113200D01*
X149782584Y-111126233D01*
X149782584Y-111126233D01*
G37*
G36*
X130603800Y-112603800D02*
G01*
X129742200Y-112603800D01*
X129742200Y-112072200D01*
X130603800Y-112072200D01*
X130603800Y-112603800D01*
X130603800Y-112603800D01*
G37*
G36*
X129083800Y-112603800D02*
G01*
X128222200Y-112603800D01*
X128222200Y-112072200D01*
X129083800Y-112072200D01*
X129083800Y-112603800D01*
X129083800Y-112603800D01*
G37*
G36*
X159099777Y-111326893D02*
G01*
X159213029Y-111361247D01*
X159317402Y-111417036D01*
X159408885Y-111492115D01*
X159483964Y-111583598D01*
X159539753Y-111687971D01*
X159574107Y-111801223D01*
X159585707Y-111919000D01*
X159574107Y-112036777D01*
X159539753Y-112150029D01*
X159483964Y-112254402D01*
X159408885Y-112345885D01*
X159317402Y-112420964D01*
X159213029Y-112476753D01*
X159099777Y-112511107D01*
X159011515Y-112519800D01*
X158552485Y-112519800D01*
X158464223Y-112511107D01*
X158350971Y-112476753D01*
X158246598Y-112420964D01*
X158155115Y-112345885D01*
X158080036Y-112254402D01*
X158024247Y-112150029D01*
X157989893Y-112036777D01*
X157978293Y-111919000D01*
X157989893Y-111801223D01*
X158024247Y-111687971D01*
X158080036Y-111583598D01*
X158155115Y-111492115D01*
X158246598Y-111417036D01*
X158350971Y-111361247D01*
X158464223Y-111326893D01*
X158552485Y-111318200D01*
X159011515Y-111318200D01*
X159099777Y-111326893D01*
X159099777Y-111326893D01*
G37*
G36*
X130603800Y-111803800D02*
G01*
X129742200Y-111803800D01*
X129742200Y-111272200D01*
X130603800Y-111272200D01*
X130603800Y-111803800D01*
X130603800Y-111803800D01*
G37*
G36*
X129083800Y-111803800D02*
G01*
X128222200Y-111803800D01*
X128222200Y-111272200D01*
X129083800Y-111272200D01*
X129083800Y-111803800D01*
X129083800Y-111803800D01*
G37*
G36*
X156834584Y-110731004D02*
G01*
X156879091Y-110744505D01*
X156920112Y-110766431D01*
X156956064Y-110795936D01*
X156985569Y-110831888D01*
X157007495Y-110872909D01*
X157020996Y-110917416D01*
X157025800Y-110966193D01*
X157025800Y-111537807D01*
X157020996Y-111586584D01*
X157007495Y-111631091D01*
X156985569Y-111672112D01*
X156956064Y-111708064D01*
X156920112Y-111737569D01*
X156879091Y-111759495D01*
X156834584Y-111772996D01*
X156785807Y-111777800D01*
X156114193Y-111777800D01*
X156065416Y-111772996D01*
X156020909Y-111759495D01*
X155979888Y-111737569D01*
X155943936Y-111708064D01*
X155914431Y-111672112D01*
X155892505Y-111631091D01*
X155879004Y-111586584D01*
X155874200Y-111537807D01*
X155874200Y-110966193D01*
X155879004Y-110917416D01*
X155892505Y-110872909D01*
X155914431Y-110831888D01*
X155943936Y-110795936D01*
X155979888Y-110766431D01*
X156020909Y-110744505D01*
X156065416Y-110731004D01*
X156114193Y-110726200D01*
X156785807Y-110726200D01*
X156834584Y-110731004D01*
X156834584Y-110731004D01*
G37*
G36*
X155084584Y-110731004D02*
G01*
X155129091Y-110744505D01*
X155170112Y-110766431D01*
X155206064Y-110795936D01*
X155235569Y-110831888D01*
X155257495Y-110872909D01*
X155270996Y-110917416D01*
X155275800Y-110966193D01*
X155275800Y-111537807D01*
X155270996Y-111586584D01*
X155257495Y-111631091D01*
X155235569Y-111672112D01*
X155206064Y-111708064D01*
X155170112Y-111737569D01*
X155129091Y-111759495D01*
X155084584Y-111772996D01*
X155035807Y-111777800D01*
X154364193Y-111777800D01*
X154315416Y-111772996D01*
X154270909Y-111759495D01*
X154229888Y-111737569D01*
X154193936Y-111708064D01*
X154164431Y-111672112D01*
X154142505Y-111631091D01*
X154129004Y-111586584D01*
X154124200Y-111537807D01*
X154124200Y-110966193D01*
X154129004Y-110917416D01*
X154142505Y-110872909D01*
X154164431Y-110831888D01*
X154193936Y-110795936D01*
X154229888Y-110766431D01*
X154270909Y-110744505D01*
X154315416Y-110731004D01*
X154364193Y-110726200D01*
X155035807Y-110726200D01*
X155084584Y-110731004D01*
X155084584Y-110731004D01*
G37*
G36*
X139963741Y-110784760D02*
G01*
X140018482Y-110807434D01*
X140067750Y-110840354D01*
X140109646Y-110882250D01*
X140142566Y-110931518D01*
X140165240Y-110986259D01*
X140176800Y-111044374D01*
X140176800Y-111103626D01*
X140165240Y-111161741D01*
X140142566Y-111216482D01*
X140109646Y-111265750D01*
X140067750Y-111307646D01*
X140018482Y-111340566D01*
X139963741Y-111363240D01*
X139905626Y-111374800D01*
X139846374Y-111374800D01*
X139788259Y-111363240D01*
X139733518Y-111340566D01*
X139684250Y-111307646D01*
X139642354Y-111265750D01*
X139609434Y-111216482D01*
X139586760Y-111161741D01*
X139575200Y-111103626D01*
X139575200Y-111044374D01*
X139586760Y-110986259D01*
X139609434Y-110931518D01*
X139642354Y-110882250D01*
X139684250Y-110840354D01*
X139733518Y-110807434D01*
X139788259Y-110784760D01*
X139846374Y-110773200D01*
X139905626Y-110773200D01*
X139963741Y-110784760D01*
X139963741Y-110784760D01*
G37*
G36*
X138863741Y-110784760D02*
G01*
X138918482Y-110807434D01*
X138967750Y-110840354D01*
X139009646Y-110882250D01*
X139042566Y-110931518D01*
X139065240Y-110986259D01*
X139076800Y-111044374D01*
X139076800Y-111103626D01*
X139065240Y-111161741D01*
X139042566Y-111216482D01*
X139009646Y-111265750D01*
X138967750Y-111307646D01*
X138918482Y-111340566D01*
X138863741Y-111363240D01*
X138805626Y-111374800D01*
X138746374Y-111374800D01*
X138688259Y-111363240D01*
X138633518Y-111340566D01*
X138584250Y-111307646D01*
X138542354Y-111265750D01*
X138509434Y-111216482D01*
X138486760Y-111161741D01*
X138475200Y-111103626D01*
X138475200Y-111044374D01*
X138486760Y-110986259D01*
X138509434Y-110931518D01*
X138542354Y-110882250D01*
X138584250Y-110840354D01*
X138633518Y-110807434D01*
X138688259Y-110784760D01*
X138746374Y-110773200D01*
X138805626Y-110773200D01*
X138863741Y-110784760D01*
X138863741Y-110784760D01*
G37*
G36*
X136663741Y-110784760D02*
G01*
X136718482Y-110807434D01*
X136767750Y-110840354D01*
X136809646Y-110882250D01*
X136842566Y-110931518D01*
X136865240Y-110986259D01*
X136876800Y-111044374D01*
X136876800Y-111103626D01*
X136865240Y-111161741D01*
X136842566Y-111216482D01*
X136809646Y-111265750D01*
X136767750Y-111307646D01*
X136718482Y-111340566D01*
X136663741Y-111363240D01*
X136605626Y-111374800D01*
X136546374Y-111374800D01*
X136488259Y-111363240D01*
X136433518Y-111340566D01*
X136384250Y-111307646D01*
X136342354Y-111265750D01*
X136309434Y-111216482D01*
X136286760Y-111161741D01*
X136275200Y-111103626D01*
X136275200Y-111044374D01*
X136286760Y-110986259D01*
X136309434Y-110931518D01*
X136342354Y-110882250D01*
X136384250Y-110840354D01*
X136433518Y-110807434D01*
X136488259Y-110784760D01*
X136546374Y-110773200D01*
X136605626Y-110773200D01*
X136663741Y-110784760D01*
X136663741Y-110784760D01*
G37*
G36*
X137763741Y-110784760D02*
G01*
X137818482Y-110807434D01*
X137867750Y-110840354D01*
X137909646Y-110882250D01*
X137942566Y-110931518D01*
X137965240Y-110986259D01*
X137976800Y-111044374D01*
X137976800Y-111103626D01*
X137965240Y-111161741D01*
X137942566Y-111216482D01*
X137909646Y-111265750D01*
X137867750Y-111307646D01*
X137818482Y-111340566D01*
X137763741Y-111363240D01*
X137705626Y-111374800D01*
X137646374Y-111374800D01*
X137588259Y-111363240D01*
X137533518Y-111340566D01*
X137484250Y-111307646D01*
X137442354Y-111265750D01*
X137409434Y-111216482D01*
X137386760Y-111161741D01*
X137375200Y-111103626D01*
X137375200Y-111044374D01*
X137386760Y-110986259D01*
X137409434Y-110931518D01*
X137442354Y-110882250D01*
X137484250Y-110840354D01*
X137533518Y-110807434D01*
X137588259Y-110784760D01*
X137646374Y-110773200D01*
X137705626Y-110773200D01*
X137763741Y-110784760D01*
X137763741Y-110784760D01*
G37*
G36*
X116603584Y-110223004D02*
G01*
X116648091Y-110236505D01*
X116689112Y-110258431D01*
X116725064Y-110287936D01*
X116754569Y-110323888D01*
X116776495Y-110364909D01*
X116789996Y-110409416D01*
X116794800Y-110458193D01*
X116794800Y-111029807D01*
X116789996Y-111078584D01*
X116776495Y-111123091D01*
X116754569Y-111164112D01*
X116725064Y-111200064D01*
X116689112Y-111229569D01*
X116648091Y-111251495D01*
X116603584Y-111264996D01*
X116554807Y-111269800D01*
X115883193Y-111269800D01*
X115834416Y-111264996D01*
X115789909Y-111251495D01*
X115748888Y-111229569D01*
X115712936Y-111200064D01*
X115683431Y-111164112D01*
X115661505Y-111123091D01*
X115648004Y-111078584D01*
X115643200Y-111029807D01*
X115643200Y-110458193D01*
X115648004Y-110409416D01*
X115661505Y-110364909D01*
X115683431Y-110323888D01*
X115712936Y-110287936D01*
X115748888Y-110258431D01*
X115789909Y-110236505D01*
X115834416Y-110223004D01*
X115883193Y-110218200D01*
X116554807Y-110218200D01*
X116603584Y-110223004D01*
X116603584Y-110223004D01*
G37*
G36*
X118353584Y-110223004D02*
G01*
X118398091Y-110236505D01*
X118439112Y-110258431D01*
X118475064Y-110287936D01*
X118504569Y-110323888D01*
X118526495Y-110364909D01*
X118539996Y-110409416D01*
X118544800Y-110458193D01*
X118544800Y-111029807D01*
X118539996Y-111078584D01*
X118526495Y-111123091D01*
X118504569Y-111164112D01*
X118475064Y-111200064D01*
X118439112Y-111229569D01*
X118398091Y-111251495D01*
X118353584Y-111264996D01*
X118304807Y-111269800D01*
X117633193Y-111269800D01*
X117584416Y-111264996D01*
X117539909Y-111251495D01*
X117498888Y-111229569D01*
X117462936Y-111200064D01*
X117433431Y-111164112D01*
X117411505Y-111123091D01*
X117398004Y-111078584D01*
X117393200Y-111029807D01*
X117393200Y-110458193D01*
X117398004Y-110409416D01*
X117411505Y-110364909D01*
X117433431Y-110323888D01*
X117462936Y-110287936D01*
X117498888Y-110258431D01*
X117539909Y-110236505D01*
X117584416Y-110223004D01*
X117633193Y-110218200D01*
X118304807Y-110218200D01*
X118353584Y-110223004D01*
X118353584Y-110223004D01*
G37*
G36*
X129083800Y-111003800D02*
G01*
X128222200Y-111003800D01*
X128222200Y-110472200D01*
X129083800Y-110472200D01*
X129083800Y-111003800D01*
X129083800Y-111003800D01*
G37*
G36*
X130603800Y-111003800D02*
G01*
X129742200Y-111003800D01*
X129742200Y-110472200D01*
X130603800Y-110472200D01*
X130603800Y-111003800D01*
X130603800Y-111003800D01*
G37*
G36*
X152322584Y-108586233D02*
G01*
X152322587Y-108586234D01*
X152322588Y-108586234D01*
X152492389Y-108637743D01*
X152539861Y-108663117D01*
X152648881Y-108721389D01*
X152786044Y-108833956D01*
X152898611Y-108971119D01*
X152956883Y-109080139D01*
X152982257Y-109127611D01*
X153033054Y-109295064D01*
X153033767Y-109297416D01*
X153051159Y-109474000D01*
X153033767Y-109650584D01*
X153033766Y-109650587D01*
X153033766Y-109650588D01*
X152982257Y-109820389D01*
X152982256Y-109820390D01*
X152898611Y-109976881D01*
X152786044Y-110114044D01*
X152648881Y-110226611D01*
X152558724Y-110274800D01*
X152492389Y-110310257D01*
X152322588Y-110361766D01*
X152322587Y-110361766D01*
X152322584Y-110361767D01*
X152190255Y-110374800D01*
X152101745Y-110374800D01*
X151969416Y-110361767D01*
X151969413Y-110361766D01*
X151969412Y-110361766D01*
X151799611Y-110310257D01*
X151733276Y-110274800D01*
X151643119Y-110226611D01*
X151505956Y-110114044D01*
X151393389Y-109976881D01*
X151309744Y-109820390D01*
X151309743Y-109820389D01*
X151258234Y-109650588D01*
X151258234Y-109650587D01*
X151258233Y-109650584D01*
X151240841Y-109474000D01*
X151258233Y-109297416D01*
X151258946Y-109295064D01*
X151309743Y-109127611D01*
X151335117Y-109080139D01*
X151393389Y-108971119D01*
X151505956Y-108833956D01*
X151643119Y-108721389D01*
X151752139Y-108663117D01*
X151799611Y-108637743D01*
X151969412Y-108586234D01*
X151969413Y-108586234D01*
X151969416Y-108586233D01*
X152101745Y-108573200D01*
X152190255Y-108573200D01*
X152322584Y-108586233D01*
X152322584Y-108586233D01*
G37*
G36*
X149782584Y-108586233D02*
G01*
X149782587Y-108586234D01*
X149782588Y-108586234D01*
X149952389Y-108637743D01*
X149999861Y-108663117D01*
X150108881Y-108721389D01*
X150246044Y-108833956D01*
X150358611Y-108971119D01*
X150416883Y-109080139D01*
X150442257Y-109127611D01*
X150493054Y-109295064D01*
X150493767Y-109297416D01*
X150511159Y-109474000D01*
X150493767Y-109650584D01*
X150493766Y-109650587D01*
X150493766Y-109650588D01*
X150442257Y-109820389D01*
X150442256Y-109820390D01*
X150358611Y-109976881D01*
X150246044Y-110114044D01*
X150108881Y-110226611D01*
X150018724Y-110274800D01*
X149952389Y-110310257D01*
X149782588Y-110361766D01*
X149782587Y-110361766D01*
X149782584Y-110361767D01*
X149650255Y-110374800D01*
X149561745Y-110374800D01*
X149429416Y-110361767D01*
X149429413Y-110361766D01*
X149429412Y-110361766D01*
X149259611Y-110310257D01*
X149193276Y-110274800D01*
X149103119Y-110226611D01*
X148965956Y-110114044D01*
X148853389Y-109976881D01*
X148769744Y-109820390D01*
X148769743Y-109820389D01*
X148718234Y-109650588D01*
X148718234Y-109650587D01*
X148718233Y-109650584D01*
X148700841Y-109474000D01*
X148718233Y-109297416D01*
X148718946Y-109295064D01*
X148769743Y-109127611D01*
X148795117Y-109080139D01*
X148853389Y-108971119D01*
X148965956Y-108833956D01*
X149103119Y-108721389D01*
X149212139Y-108663117D01*
X149259611Y-108637743D01*
X149429412Y-108586234D01*
X149429413Y-108586234D01*
X149429416Y-108586233D01*
X149561745Y-108573200D01*
X149650255Y-108573200D01*
X149782584Y-108586233D01*
X149782584Y-108586233D01*
G37*
G36*
X136663741Y-109684760D02*
G01*
X136718482Y-109707434D01*
X136767750Y-109740354D01*
X136809646Y-109782250D01*
X136842566Y-109831518D01*
X136865240Y-109886259D01*
X136876800Y-109944374D01*
X136876800Y-110003626D01*
X136865240Y-110061741D01*
X136842566Y-110116482D01*
X136809646Y-110165750D01*
X136767750Y-110207646D01*
X136718482Y-110240566D01*
X136663741Y-110263240D01*
X136605626Y-110274800D01*
X136546374Y-110274800D01*
X136488259Y-110263240D01*
X136433518Y-110240566D01*
X136384250Y-110207646D01*
X136342354Y-110165750D01*
X136309434Y-110116482D01*
X136286760Y-110061741D01*
X136275200Y-110003626D01*
X136275200Y-109944374D01*
X136286760Y-109886259D01*
X136309434Y-109831518D01*
X136342354Y-109782250D01*
X136384250Y-109740354D01*
X136433518Y-109707434D01*
X136488259Y-109684760D01*
X136546374Y-109673200D01*
X136605626Y-109673200D01*
X136663741Y-109684760D01*
X136663741Y-109684760D01*
G37*
G36*
X137763741Y-109684760D02*
G01*
X137818482Y-109707434D01*
X137867750Y-109740354D01*
X137909646Y-109782250D01*
X137942566Y-109831518D01*
X137965240Y-109886259D01*
X137976800Y-109944374D01*
X137976800Y-110003626D01*
X137965240Y-110061741D01*
X137942566Y-110116482D01*
X137909646Y-110165750D01*
X137867750Y-110207646D01*
X137818482Y-110240566D01*
X137763741Y-110263240D01*
X137705626Y-110274800D01*
X137646374Y-110274800D01*
X137588259Y-110263240D01*
X137533518Y-110240566D01*
X137484250Y-110207646D01*
X137442354Y-110165750D01*
X137409434Y-110116482D01*
X137386760Y-110061741D01*
X137375200Y-110003626D01*
X137375200Y-109944374D01*
X137386760Y-109886259D01*
X137409434Y-109831518D01*
X137442354Y-109782250D01*
X137484250Y-109740354D01*
X137533518Y-109707434D01*
X137588259Y-109684760D01*
X137646374Y-109673200D01*
X137705626Y-109673200D01*
X137763741Y-109684760D01*
X137763741Y-109684760D01*
G37*
G36*
X139963741Y-109684760D02*
G01*
X140018482Y-109707434D01*
X140067750Y-109740354D01*
X140109646Y-109782250D01*
X140142566Y-109831518D01*
X140165240Y-109886259D01*
X140176800Y-109944374D01*
X140176800Y-110003626D01*
X140165240Y-110061741D01*
X140142566Y-110116482D01*
X140109646Y-110165750D01*
X140067750Y-110207646D01*
X140018482Y-110240566D01*
X139963741Y-110263240D01*
X139905626Y-110274800D01*
X139846374Y-110274800D01*
X139788259Y-110263240D01*
X139733518Y-110240566D01*
X139684250Y-110207646D01*
X139642354Y-110165750D01*
X139609434Y-110116482D01*
X139586760Y-110061741D01*
X139575200Y-110003626D01*
X139575200Y-109944374D01*
X139586760Y-109886259D01*
X139609434Y-109831518D01*
X139642354Y-109782250D01*
X139684250Y-109740354D01*
X139733518Y-109707434D01*
X139788259Y-109684760D01*
X139846374Y-109673200D01*
X139905626Y-109673200D01*
X139963741Y-109684760D01*
X139963741Y-109684760D01*
G37*
G36*
X138863741Y-109684760D02*
G01*
X138918482Y-109707434D01*
X138967750Y-109740354D01*
X139009646Y-109782250D01*
X139042566Y-109831518D01*
X139065240Y-109886259D01*
X139076800Y-109944374D01*
X139076800Y-110003626D01*
X139065240Y-110061741D01*
X139042566Y-110116482D01*
X139009646Y-110165750D01*
X138967750Y-110207646D01*
X138918482Y-110240566D01*
X138863741Y-110263240D01*
X138805626Y-110274800D01*
X138746374Y-110274800D01*
X138688259Y-110263240D01*
X138633518Y-110240566D01*
X138584250Y-110207646D01*
X138542354Y-110165750D01*
X138509434Y-110116482D01*
X138486760Y-110061741D01*
X138475200Y-110003626D01*
X138475200Y-109944374D01*
X138486760Y-109886259D01*
X138509434Y-109831518D01*
X138542354Y-109782250D01*
X138584250Y-109740354D01*
X138633518Y-109707434D01*
X138688259Y-109684760D01*
X138746374Y-109673200D01*
X138805626Y-109673200D01*
X138863741Y-109684760D01*
X138863741Y-109684760D01*
G37*
G36*
X156834584Y-108953004D02*
G01*
X156879091Y-108966505D01*
X156920112Y-108988431D01*
X156956064Y-109017936D01*
X156985569Y-109053888D01*
X157007495Y-109094909D01*
X157020996Y-109139416D01*
X157025800Y-109188193D01*
X157025800Y-109759807D01*
X157020996Y-109808584D01*
X157007495Y-109853091D01*
X156985569Y-109894112D01*
X156956064Y-109930064D01*
X156920112Y-109959569D01*
X156879091Y-109981495D01*
X156834584Y-109994996D01*
X156785807Y-109999800D01*
X156114193Y-109999800D01*
X156065416Y-109994996D01*
X156020909Y-109981495D01*
X155979888Y-109959569D01*
X155943936Y-109930064D01*
X155914431Y-109894112D01*
X155892505Y-109853091D01*
X155879004Y-109808584D01*
X155874200Y-109759807D01*
X155874200Y-109188193D01*
X155879004Y-109139416D01*
X155892505Y-109094909D01*
X155914431Y-109053888D01*
X155943936Y-109017936D01*
X155979888Y-108988431D01*
X156020909Y-108966505D01*
X156065416Y-108953004D01*
X156114193Y-108948200D01*
X156785807Y-108948200D01*
X156834584Y-108953004D01*
X156834584Y-108953004D01*
G37*
G36*
X155084584Y-108953004D02*
G01*
X155129091Y-108966505D01*
X155170112Y-108988431D01*
X155206064Y-109017936D01*
X155235569Y-109053888D01*
X155257495Y-109094909D01*
X155270996Y-109139416D01*
X155275800Y-109188193D01*
X155275800Y-109759807D01*
X155270996Y-109808584D01*
X155257495Y-109853091D01*
X155235569Y-109894112D01*
X155206064Y-109930064D01*
X155170112Y-109959569D01*
X155129091Y-109981495D01*
X155084584Y-109994996D01*
X155035807Y-109999800D01*
X154364193Y-109999800D01*
X154315416Y-109994996D01*
X154270909Y-109981495D01*
X154229888Y-109959569D01*
X154193936Y-109930064D01*
X154164431Y-109894112D01*
X154142505Y-109853091D01*
X154129004Y-109808584D01*
X154124200Y-109759807D01*
X154124200Y-109188193D01*
X154129004Y-109139416D01*
X154142505Y-109094909D01*
X154164431Y-109053888D01*
X154193936Y-109017936D01*
X154229888Y-108988431D01*
X154270909Y-108966505D01*
X154315416Y-108953004D01*
X154364193Y-108948200D01*
X155035807Y-108948200D01*
X155084584Y-108953004D01*
X155084584Y-108953004D01*
G37*
G36*
X148085584Y-108953004D02*
G01*
X148130091Y-108966505D01*
X148171112Y-108988431D01*
X148207064Y-109017936D01*
X148236569Y-109053888D01*
X148258495Y-109094909D01*
X148271996Y-109139416D01*
X148276800Y-109188193D01*
X148276800Y-109759807D01*
X148271996Y-109808584D01*
X148258495Y-109853091D01*
X148236569Y-109894112D01*
X148207064Y-109930064D01*
X148171112Y-109959569D01*
X148130091Y-109981495D01*
X148085584Y-109994996D01*
X148036807Y-109999800D01*
X147365193Y-109999800D01*
X147316416Y-109994996D01*
X147271909Y-109981495D01*
X147230888Y-109959569D01*
X147194936Y-109930064D01*
X147165431Y-109894112D01*
X147143505Y-109853091D01*
X147130004Y-109808584D01*
X147125200Y-109759807D01*
X147125200Y-109188193D01*
X147130004Y-109139416D01*
X147143505Y-109094909D01*
X147165431Y-109053888D01*
X147194936Y-109017936D01*
X147230888Y-108988431D01*
X147271909Y-108966505D01*
X147316416Y-108953004D01*
X147365193Y-108948200D01*
X148036807Y-108948200D01*
X148085584Y-108953004D01*
X148085584Y-108953004D01*
G37*
G36*
X146335584Y-108953004D02*
G01*
X146380091Y-108966505D01*
X146421112Y-108988431D01*
X146457064Y-109017936D01*
X146486569Y-109053888D01*
X146508495Y-109094909D01*
X146521996Y-109139416D01*
X146526800Y-109188193D01*
X146526800Y-109759807D01*
X146521996Y-109808584D01*
X146508495Y-109853091D01*
X146486569Y-109894112D01*
X146457064Y-109930064D01*
X146421112Y-109959569D01*
X146380091Y-109981495D01*
X146335584Y-109994996D01*
X146286807Y-109999800D01*
X145615193Y-109999800D01*
X145566416Y-109994996D01*
X145521909Y-109981495D01*
X145480888Y-109959569D01*
X145444936Y-109930064D01*
X145415431Y-109894112D01*
X145393505Y-109853091D01*
X145380004Y-109808584D01*
X145375200Y-109759807D01*
X145375200Y-109188193D01*
X145380004Y-109139416D01*
X145393505Y-109094909D01*
X145415431Y-109053888D01*
X145444936Y-109017936D01*
X145480888Y-108988431D01*
X145521909Y-108966505D01*
X145566416Y-108953004D01*
X145615193Y-108948200D01*
X146286807Y-108948200D01*
X146335584Y-108953004D01*
X146335584Y-108953004D01*
G37*
G36*
X118635584Y-108318004D02*
G01*
X118680091Y-108331505D01*
X118721112Y-108353431D01*
X118757064Y-108382936D01*
X118786569Y-108418888D01*
X118808495Y-108459909D01*
X118821996Y-108504416D01*
X118826800Y-108553193D01*
X118826800Y-109124807D01*
X118821996Y-109173584D01*
X118808495Y-109218091D01*
X118786569Y-109259112D01*
X118757064Y-109295064D01*
X118721112Y-109324569D01*
X118680091Y-109346495D01*
X118635584Y-109359996D01*
X118586807Y-109364800D01*
X117915193Y-109364800D01*
X117866416Y-109359996D01*
X117821909Y-109346495D01*
X117780888Y-109324569D01*
X117744936Y-109295064D01*
X117715431Y-109259112D01*
X117693505Y-109218091D01*
X117680004Y-109173584D01*
X117675200Y-109124807D01*
X117675200Y-108553193D01*
X117680004Y-108504416D01*
X117693505Y-108459909D01*
X117715431Y-108418888D01*
X117744936Y-108382936D01*
X117780888Y-108353431D01*
X117821909Y-108331505D01*
X117866416Y-108318004D01*
X117915193Y-108313200D01*
X118586807Y-108313200D01*
X118635584Y-108318004D01*
X118635584Y-108318004D01*
G37*
G36*
X124477584Y-108318004D02*
G01*
X124522091Y-108331505D01*
X124563112Y-108353431D01*
X124599064Y-108382936D01*
X124628569Y-108418888D01*
X124650495Y-108459909D01*
X124663996Y-108504416D01*
X124668800Y-108553193D01*
X124668800Y-109124807D01*
X124663996Y-109173584D01*
X124650495Y-109218091D01*
X124628569Y-109259112D01*
X124599064Y-109295064D01*
X124563112Y-109324569D01*
X124522091Y-109346495D01*
X124477584Y-109359996D01*
X124428807Y-109364800D01*
X123757193Y-109364800D01*
X123708416Y-109359996D01*
X123663909Y-109346495D01*
X123622888Y-109324569D01*
X123586936Y-109295064D01*
X123557431Y-109259112D01*
X123535505Y-109218091D01*
X123522004Y-109173584D01*
X123517200Y-109124807D01*
X123517200Y-108553193D01*
X123522004Y-108504416D01*
X123535505Y-108459909D01*
X123557431Y-108418888D01*
X123586936Y-108382936D01*
X123622888Y-108353431D01*
X123663909Y-108331505D01*
X123708416Y-108318004D01*
X123757193Y-108313200D01*
X124428807Y-108313200D01*
X124477584Y-108318004D01*
X124477584Y-108318004D01*
G37*
G36*
X120385584Y-108318004D02*
G01*
X120430091Y-108331505D01*
X120471112Y-108353431D01*
X120507064Y-108382936D01*
X120536569Y-108418888D01*
X120558495Y-108459909D01*
X120571996Y-108504416D01*
X120576800Y-108553193D01*
X120576800Y-109124807D01*
X120571996Y-109173584D01*
X120558495Y-109218091D01*
X120536569Y-109259112D01*
X120507064Y-109295064D01*
X120471112Y-109324569D01*
X120430091Y-109346495D01*
X120385584Y-109359996D01*
X120336807Y-109364800D01*
X119665193Y-109364800D01*
X119616416Y-109359996D01*
X119571909Y-109346495D01*
X119530888Y-109324569D01*
X119494936Y-109295064D01*
X119465431Y-109259112D01*
X119443505Y-109218091D01*
X119430004Y-109173584D01*
X119425200Y-109124807D01*
X119425200Y-108553193D01*
X119430004Y-108504416D01*
X119443505Y-108459909D01*
X119465431Y-108418888D01*
X119494936Y-108382936D01*
X119530888Y-108353431D01*
X119571909Y-108331505D01*
X119616416Y-108318004D01*
X119665193Y-108313200D01*
X120336807Y-108313200D01*
X120385584Y-108318004D01*
X120385584Y-108318004D01*
G37*
G36*
X115079584Y-108318004D02*
G01*
X115124091Y-108331505D01*
X115165112Y-108353431D01*
X115201064Y-108382936D01*
X115230569Y-108418888D01*
X115252495Y-108459909D01*
X115265996Y-108504416D01*
X115270800Y-108553193D01*
X115270800Y-109124807D01*
X115265996Y-109173584D01*
X115252495Y-109218091D01*
X115230569Y-109259112D01*
X115201064Y-109295064D01*
X115165112Y-109324569D01*
X115124091Y-109346495D01*
X115079584Y-109359996D01*
X115030807Y-109364800D01*
X114359193Y-109364800D01*
X114310416Y-109359996D01*
X114265909Y-109346495D01*
X114224888Y-109324569D01*
X114188936Y-109295064D01*
X114159431Y-109259112D01*
X114137505Y-109218091D01*
X114124004Y-109173584D01*
X114119200Y-109124807D01*
X114119200Y-108553193D01*
X114124004Y-108504416D01*
X114137505Y-108459909D01*
X114159431Y-108418888D01*
X114188936Y-108382936D01*
X114224888Y-108353431D01*
X114265909Y-108331505D01*
X114310416Y-108318004D01*
X114359193Y-108313200D01*
X115030807Y-108313200D01*
X115079584Y-108318004D01*
X115079584Y-108318004D01*
G37*
G36*
X116829584Y-108318004D02*
G01*
X116874091Y-108331505D01*
X116915112Y-108353431D01*
X116951064Y-108382936D01*
X116980569Y-108418888D01*
X117002495Y-108459909D01*
X117015996Y-108504416D01*
X117020800Y-108553193D01*
X117020800Y-109124807D01*
X117015996Y-109173584D01*
X117002495Y-109218091D01*
X116980569Y-109259112D01*
X116951064Y-109295064D01*
X116915112Y-109324569D01*
X116874091Y-109346495D01*
X116829584Y-109359996D01*
X116780807Y-109364800D01*
X116109193Y-109364800D01*
X116060416Y-109359996D01*
X116015909Y-109346495D01*
X115974888Y-109324569D01*
X115938936Y-109295064D01*
X115909431Y-109259112D01*
X115887505Y-109218091D01*
X115874004Y-109173584D01*
X115869200Y-109124807D01*
X115869200Y-108553193D01*
X115874004Y-108504416D01*
X115887505Y-108459909D01*
X115909431Y-108418888D01*
X115938936Y-108382936D01*
X115974888Y-108353431D01*
X116015909Y-108331505D01*
X116060416Y-108318004D01*
X116109193Y-108313200D01*
X116780807Y-108313200D01*
X116829584Y-108318004D01*
X116829584Y-108318004D01*
G37*
G36*
X130926584Y-108318004D02*
G01*
X130971091Y-108331505D01*
X131012112Y-108353431D01*
X131048064Y-108382936D01*
X131077569Y-108418888D01*
X131099495Y-108459909D01*
X131112996Y-108504416D01*
X131117800Y-108553193D01*
X131117800Y-109124807D01*
X131112996Y-109173584D01*
X131099495Y-109218091D01*
X131077569Y-109259112D01*
X131048064Y-109295064D01*
X131012112Y-109324569D01*
X130971091Y-109346495D01*
X130926584Y-109359996D01*
X130877807Y-109364800D01*
X130206193Y-109364800D01*
X130157416Y-109359996D01*
X130112909Y-109346495D01*
X130071888Y-109324569D01*
X130035936Y-109295064D01*
X130006431Y-109259112D01*
X129984505Y-109218091D01*
X129971004Y-109173584D01*
X129966200Y-109124807D01*
X129966200Y-108553193D01*
X129971004Y-108504416D01*
X129984505Y-108459909D01*
X130006431Y-108418888D01*
X130035936Y-108382936D01*
X130071888Y-108353431D01*
X130112909Y-108331505D01*
X130157416Y-108318004D01*
X130206193Y-108313200D01*
X130877807Y-108313200D01*
X130926584Y-108318004D01*
X130926584Y-108318004D01*
G37*
G36*
X129176584Y-108318004D02*
G01*
X129221091Y-108331505D01*
X129262112Y-108353431D01*
X129298064Y-108382936D01*
X129327569Y-108418888D01*
X129349495Y-108459909D01*
X129362996Y-108504416D01*
X129367800Y-108553193D01*
X129367800Y-109124807D01*
X129362996Y-109173584D01*
X129349495Y-109218091D01*
X129327569Y-109259112D01*
X129298064Y-109295064D01*
X129262112Y-109324569D01*
X129221091Y-109346495D01*
X129176584Y-109359996D01*
X129127807Y-109364800D01*
X128456193Y-109364800D01*
X128407416Y-109359996D01*
X128362909Y-109346495D01*
X128321888Y-109324569D01*
X128285936Y-109295064D01*
X128256431Y-109259112D01*
X128234505Y-109218091D01*
X128221004Y-109173584D01*
X128216200Y-109124807D01*
X128216200Y-108553193D01*
X128221004Y-108504416D01*
X128234505Y-108459909D01*
X128256431Y-108418888D01*
X128285936Y-108382936D01*
X128321888Y-108353431D01*
X128362909Y-108331505D01*
X128407416Y-108318004D01*
X128456193Y-108313200D01*
X129127807Y-108313200D01*
X129176584Y-108318004D01*
X129176584Y-108318004D01*
G37*
G36*
X126227584Y-108318004D02*
G01*
X126272091Y-108331505D01*
X126313112Y-108353431D01*
X126349064Y-108382936D01*
X126378569Y-108418888D01*
X126400495Y-108459909D01*
X126413996Y-108504416D01*
X126418800Y-108553193D01*
X126418800Y-109124807D01*
X126413996Y-109173584D01*
X126400495Y-109218091D01*
X126378569Y-109259112D01*
X126349064Y-109295064D01*
X126313112Y-109324569D01*
X126272091Y-109346495D01*
X126227584Y-109359996D01*
X126178807Y-109364800D01*
X125507193Y-109364800D01*
X125458416Y-109359996D01*
X125413909Y-109346495D01*
X125372888Y-109324569D01*
X125336936Y-109295064D01*
X125307431Y-109259112D01*
X125285505Y-109218091D01*
X125272004Y-109173584D01*
X125267200Y-109124807D01*
X125267200Y-108553193D01*
X125272004Y-108504416D01*
X125285505Y-108459909D01*
X125307431Y-108418888D01*
X125336936Y-108382936D01*
X125372888Y-108353431D01*
X125413909Y-108331505D01*
X125458416Y-108318004D01*
X125507193Y-108313200D01*
X126178807Y-108313200D01*
X126227584Y-108318004D01*
X126227584Y-108318004D01*
G37*
G36*
X139963741Y-108684760D02*
G01*
X140018482Y-108707434D01*
X140067750Y-108740354D01*
X140109646Y-108782250D01*
X140142566Y-108831518D01*
X140165240Y-108886259D01*
X140176800Y-108944374D01*
X140176800Y-109003626D01*
X140165240Y-109061741D01*
X140142566Y-109116482D01*
X140109646Y-109165750D01*
X140067750Y-109207646D01*
X140018482Y-109240566D01*
X139963741Y-109263240D01*
X139905626Y-109274800D01*
X139846374Y-109274800D01*
X139788259Y-109263240D01*
X139733518Y-109240566D01*
X139684250Y-109207646D01*
X139642354Y-109165750D01*
X139609434Y-109116482D01*
X139586760Y-109061741D01*
X139575200Y-109003626D01*
X139575200Y-108944374D01*
X139586760Y-108886259D01*
X139609434Y-108831518D01*
X139642354Y-108782250D01*
X139684250Y-108740354D01*
X139733518Y-108707434D01*
X139788259Y-108684760D01*
X139846374Y-108673200D01*
X139905626Y-108673200D01*
X139963741Y-108684760D01*
X139963741Y-108684760D01*
G37*
G36*
X138863741Y-108684760D02*
G01*
X138918482Y-108707434D01*
X138967750Y-108740354D01*
X139009646Y-108782250D01*
X139042566Y-108831518D01*
X139065240Y-108886259D01*
X139076800Y-108944374D01*
X139076800Y-109003626D01*
X139065240Y-109061741D01*
X139042566Y-109116482D01*
X139009646Y-109165750D01*
X138967750Y-109207646D01*
X138918482Y-109240566D01*
X138863741Y-109263240D01*
X138805626Y-109274800D01*
X138746374Y-109274800D01*
X138688259Y-109263240D01*
X138633518Y-109240566D01*
X138584250Y-109207646D01*
X138542354Y-109165750D01*
X138509434Y-109116482D01*
X138486760Y-109061741D01*
X138475200Y-109003626D01*
X138475200Y-108944374D01*
X138486760Y-108886259D01*
X138509434Y-108831518D01*
X138542354Y-108782250D01*
X138584250Y-108740354D01*
X138633518Y-108707434D01*
X138688259Y-108684760D01*
X138746374Y-108673200D01*
X138805626Y-108673200D01*
X138863741Y-108684760D01*
X138863741Y-108684760D01*
G37*
G36*
X137763741Y-108684760D02*
G01*
X137818482Y-108707434D01*
X137867750Y-108740354D01*
X137909646Y-108782250D01*
X137942566Y-108831518D01*
X137965240Y-108886259D01*
X137976800Y-108944374D01*
X137976800Y-109003626D01*
X137965240Y-109061741D01*
X137942566Y-109116482D01*
X137909646Y-109165750D01*
X137867750Y-109207646D01*
X137818482Y-109240566D01*
X137763741Y-109263240D01*
X137705626Y-109274800D01*
X137646374Y-109274800D01*
X137588259Y-109263240D01*
X137533518Y-109240566D01*
X137484250Y-109207646D01*
X137442354Y-109165750D01*
X137409434Y-109116482D01*
X137386760Y-109061741D01*
X137375200Y-109003626D01*
X137375200Y-108944374D01*
X137386760Y-108886259D01*
X137409434Y-108831518D01*
X137442354Y-108782250D01*
X137484250Y-108740354D01*
X137533518Y-108707434D01*
X137588259Y-108684760D01*
X137646374Y-108673200D01*
X137705626Y-108673200D01*
X137763741Y-108684760D01*
X137763741Y-108684760D01*
G37*
G36*
X136663741Y-108684760D02*
G01*
X136718482Y-108707434D01*
X136767750Y-108740354D01*
X136809646Y-108782250D01*
X136842566Y-108831518D01*
X136865240Y-108886259D01*
X136876800Y-108944374D01*
X136876800Y-109003626D01*
X136865240Y-109061741D01*
X136842566Y-109116482D01*
X136809646Y-109165750D01*
X136767750Y-109207646D01*
X136718482Y-109240566D01*
X136663741Y-109263240D01*
X136605626Y-109274800D01*
X136546374Y-109274800D01*
X136488259Y-109263240D01*
X136433518Y-109240566D01*
X136384250Y-109207646D01*
X136342354Y-109165750D01*
X136309434Y-109116482D01*
X136286760Y-109061741D01*
X136275200Y-109003626D01*
X136275200Y-108944374D01*
X136286760Y-108886259D01*
X136309434Y-108831518D01*
X136342354Y-108782250D01*
X136384250Y-108740354D01*
X136433518Y-108707434D01*
X136488259Y-108684760D01*
X136546374Y-108673200D01*
X136605626Y-108673200D01*
X136663741Y-108684760D01*
X136663741Y-108684760D01*
G37*
G36*
X136663741Y-107684760D02*
G01*
X136718482Y-107707434D01*
X136767750Y-107740354D01*
X136809646Y-107782250D01*
X136842566Y-107831518D01*
X136865240Y-107886259D01*
X136876800Y-107944374D01*
X136876800Y-108003626D01*
X136865240Y-108061741D01*
X136842566Y-108116482D01*
X136809646Y-108165750D01*
X136767750Y-108207646D01*
X136718482Y-108240566D01*
X136663741Y-108263240D01*
X136605626Y-108274800D01*
X136546374Y-108274800D01*
X136488259Y-108263240D01*
X136433518Y-108240566D01*
X136384250Y-108207646D01*
X136342354Y-108165750D01*
X136309434Y-108116482D01*
X136286760Y-108061741D01*
X136275200Y-108003626D01*
X136275200Y-107944374D01*
X136286760Y-107886259D01*
X136309434Y-107831518D01*
X136342354Y-107782250D01*
X136384250Y-107740354D01*
X136433518Y-107707434D01*
X136488259Y-107684760D01*
X136546374Y-107673200D01*
X136605626Y-107673200D01*
X136663741Y-107684760D01*
X136663741Y-107684760D01*
G37*
G36*
X137763741Y-107684760D02*
G01*
X137818482Y-107707434D01*
X137867750Y-107740354D01*
X137909646Y-107782250D01*
X137942566Y-107831518D01*
X137965240Y-107886259D01*
X137976800Y-107944374D01*
X137976800Y-108003626D01*
X137965240Y-108061741D01*
X137942566Y-108116482D01*
X137909646Y-108165750D01*
X137867750Y-108207646D01*
X137818482Y-108240566D01*
X137763741Y-108263240D01*
X137705626Y-108274800D01*
X137646374Y-108274800D01*
X137588259Y-108263240D01*
X137533518Y-108240566D01*
X137484250Y-108207646D01*
X137442354Y-108165750D01*
X137409434Y-108116482D01*
X137386760Y-108061741D01*
X137375200Y-108003626D01*
X137375200Y-107944374D01*
X137386760Y-107886259D01*
X137409434Y-107831518D01*
X137442354Y-107782250D01*
X137484250Y-107740354D01*
X137533518Y-107707434D01*
X137588259Y-107684760D01*
X137646374Y-107673200D01*
X137705626Y-107673200D01*
X137763741Y-107684760D01*
X137763741Y-107684760D01*
G37*
G36*
X138863741Y-107684760D02*
G01*
X138918482Y-107707434D01*
X138967750Y-107740354D01*
X139009646Y-107782250D01*
X139042566Y-107831518D01*
X139065240Y-107886259D01*
X139076800Y-107944374D01*
X139076800Y-108003626D01*
X139065240Y-108061741D01*
X139042566Y-108116482D01*
X139009646Y-108165750D01*
X138967750Y-108207646D01*
X138918482Y-108240566D01*
X138863741Y-108263240D01*
X138805626Y-108274800D01*
X138746374Y-108274800D01*
X138688259Y-108263240D01*
X138633518Y-108240566D01*
X138584250Y-108207646D01*
X138542354Y-108165750D01*
X138509434Y-108116482D01*
X138486760Y-108061741D01*
X138475200Y-108003626D01*
X138475200Y-107944374D01*
X138486760Y-107886259D01*
X138509434Y-107831518D01*
X138542354Y-107782250D01*
X138584250Y-107740354D01*
X138633518Y-107707434D01*
X138688259Y-107684760D01*
X138746374Y-107673200D01*
X138805626Y-107673200D01*
X138863741Y-107684760D01*
X138863741Y-107684760D01*
G37*
G36*
X139963741Y-107684760D02*
G01*
X140018482Y-107707434D01*
X140067750Y-107740354D01*
X140109646Y-107782250D01*
X140142566Y-107831518D01*
X140165240Y-107886259D01*
X140176800Y-107944374D01*
X140176800Y-108003626D01*
X140165240Y-108061741D01*
X140142566Y-108116482D01*
X140109646Y-108165750D01*
X140067750Y-108207646D01*
X140018482Y-108240566D01*
X139963741Y-108263240D01*
X139905626Y-108274800D01*
X139846374Y-108274800D01*
X139788259Y-108263240D01*
X139733518Y-108240566D01*
X139684250Y-108207646D01*
X139642354Y-108165750D01*
X139609434Y-108116482D01*
X139586760Y-108061741D01*
X139575200Y-108003626D01*
X139575200Y-107944374D01*
X139586760Y-107886259D01*
X139609434Y-107831518D01*
X139642354Y-107782250D01*
X139684250Y-107740354D01*
X139733518Y-107707434D01*
X139788259Y-107684760D01*
X139846374Y-107673200D01*
X139905626Y-107673200D01*
X139963741Y-107684760D01*
X139963741Y-107684760D01*
G37*
G36*
X149782584Y-106046233D02*
G01*
X149782587Y-106046234D01*
X149782588Y-106046234D01*
X149952389Y-106097743D01*
X149999861Y-106123117D01*
X150108881Y-106181389D01*
X150246044Y-106293956D01*
X150358611Y-106431119D01*
X150406756Y-106521193D01*
X150442257Y-106587611D01*
X150489576Y-106743600D01*
X150493767Y-106757416D01*
X150511159Y-106934000D01*
X150493767Y-107110584D01*
X150493766Y-107110587D01*
X150493766Y-107110588D01*
X150442257Y-107280389D01*
X150426414Y-107310029D01*
X150358611Y-107436881D01*
X150246044Y-107574044D01*
X150108881Y-107686611D01*
X150008333Y-107740354D01*
X149952389Y-107770257D01*
X149782588Y-107821766D01*
X149782587Y-107821766D01*
X149782584Y-107821767D01*
X149650255Y-107834800D01*
X149561745Y-107834800D01*
X149429416Y-107821767D01*
X149429413Y-107821766D01*
X149429412Y-107821766D01*
X149259611Y-107770257D01*
X149203667Y-107740354D01*
X149103119Y-107686611D01*
X148965956Y-107574044D01*
X148853389Y-107436881D01*
X148785586Y-107310029D01*
X148769743Y-107280389D01*
X148718234Y-107110588D01*
X148718234Y-107110587D01*
X148718233Y-107110584D01*
X148700841Y-106934000D01*
X148718233Y-106757416D01*
X148722424Y-106743600D01*
X148769743Y-106587611D01*
X148805244Y-106521193D01*
X148853389Y-106431119D01*
X148965956Y-106293956D01*
X149103119Y-106181389D01*
X149212139Y-106123117D01*
X149259611Y-106097743D01*
X149429412Y-106046234D01*
X149429413Y-106046234D01*
X149429416Y-106046233D01*
X149561745Y-106033200D01*
X149650255Y-106033200D01*
X149782584Y-106046233D01*
X149782584Y-106046233D01*
G37*
G36*
X152322584Y-106046233D02*
G01*
X152322587Y-106046234D01*
X152322588Y-106046234D01*
X152492389Y-106097743D01*
X152539861Y-106123117D01*
X152648881Y-106181389D01*
X152786044Y-106293956D01*
X152898611Y-106431119D01*
X152946756Y-106521193D01*
X152982257Y-106587611D01*
X153029576Y-106743600D01*
X153033767Y-106757416D01*
X153051159Y-106934000D01*
X153033767Y-107110584D01*
X153033766Y-107110587D01*
X153033766Y-107110588D01*
X152982257Y-107280389D01*
X152966414Y-107310029D01*
X152898611Y-107436881D01*
X152786044Y-107574044D01*
X152648881Y-107686611D01*
X152548333Y-107740354D01*
X152492389Y-107770257D01*
X152322588Y-107821766D01*
X152322587Y-107821766D01*
X152322584Y-107821767D01*
X152190255Y-107834800D01*
X152101745Y-107834800D01*
X151969416Y-107821767D01*
X151969413Y-107821766D01*
X151969412Y-107821766D01*
X151799611Y-107770257D01*
X151743667Y-107740354D01*
X151643119Y-107686611D01*
X151505956Y-107574044D01*
X151393389Y-107436881D01*
X151325586Y-107310029D01*
X151309743Y-107280389D01*
X151258234Y-107110588D01*
X151258234Y-107110587D01*
X151258233Y-107110584D01*
X151240841Y-106934000D01*
X151258233Y-106757416D01*
X151262424Y-106743600D01*
X151309743Y-106587611D01*
X151345244Y-106521193D01*
X151393389Y-106431119D01*
X151505956Y-106293956D01*
X151643119Y-106181389D01*
X151752139Y-106123117D01*
X151799611Y-106097743D01*
X151969412Y-106046234D01*
X151969413Y-106046234D01*
X151969416Y-106046233D01*
X152101745Y-106033200D01*
X152190255Y-106033200D01*
X152322584Y-106046233D01*
X152322584Y-106046233D01*
G37*
G36*
X159099777Y-106486893D02*
G01*
X159213029Y-106521247D01*
X159317402Y-106577036D01*
X159408885Y-106652115D01*
X159483964Y-106743598D01*
X159539753Y-106847971D01*
X159574107Y-106961223D01*
X159585707Y-107079000D01*
X159574107Y-107196777D01*
X159539753Y-107310029D01*
X159483964Y-107414402D01*
X159408885Y-107505885D01*
X159317402Y-107580964D01*
X159213029Y-107636753D01*
X159099777Y-107671107D01*
X159011515Y-107679800D01*
X158552485Y-107679800D01*
X158464223Y-107671107D01*
X158350971Y-107636753D01*
X158246598Y-107580964D01*
X158155115Y-107505885D01*
X158080036Y-107414402D01*
X158024247Y-107310029D01*
X157989893Y-107196777D01*
X157978293Y-107079000D01*
X157989893Y-106961223D01*
X158024247Y-106847971D01*
X158080036Y-106743598D01*
X158155115Y-106652115D01*
X158246598Y-106577036D01*
X158350971Y-106521247D01*
X158464223Y-106486893D01*
X158552485Y-106478200D01*
X159011515Y-106478200D01*
X159099777Y-106486893D01*
X159099777Y-106486893D01*
G37*
G36*
X156900800Y-107590800D02*
G01*
X156149200Y-107590800D01*
X156149200Y-105929200D01*
X156900800Y-105929200D01*
X156900800Y-107590800D01*
X156900800Y-107590800D01*
G37*
G36*
X155000800Y-107590800D02*
G01*
X154249200Y-107590800D01*
X154249200Y-105929200D01*
X155000800Y-105929200D01*
X155000800Y-107590800D01*
X155000800Y-107590800D01*
G37*
G36*
X162099278Y-106053701D02*
G01*
X162171837Y-106075712D01*
X162236095Y-106095204D01*
X162362183Y-106162600D01*
X162472701Y-106253299D01*
X162563400Y-106363817D01*
X162630796Y-106489905D01*
X162650288Y-106554163D01*
X162672299Y-106626722D01*
X162686312Y-106769000D01*
X162672299Y-106911278D01*
X162665406Y-106934000D01*
X162630796Y-107048095D01*
X162563400Y-107174183D01*
X162472701Y-107284701D01*
X162362183Y-107375400D01*
X162236095Y-107442796D01*
X162171837Y-107462288D01*
X162099278Y-107484299D01*
X161992655Y-107494800D01*
X161571345Y-107494800D01*
X161464722Y-107484299D01*
X161392163Y-107462288D01*
X161327905Y-107442796D01*
X161201817Y-107375400D01*
X161091299Y-107284701D01*
X161000600Y-107174183D01*
X160933204Y-107048095D01*
X160898594Y-106934000D01*
X160891701Y-106911278D01*
X160877688Y-106769000D01*
X160891701Y-106626722D01*
X160913712Y-106554163D01*
X160933204Y-106489905D01*
X161000600Y-106363817D01*
X161091299Y-106253299D01*
X161201817Y-106162600D01*
X161327905Y-106095204D01*
X161392163Y-106075712D01*
X161464722Y-106053701D01*
X161571345Y-106043200D01*
X161992655Y-106043200D01*
X162099278Y-106053701D01*
X162099278Y-106053701D01*
G37*
G36*
X116834800Y-107463800D02*
G01*
X116083200Y-107463800D01*
X116083200Y-105802200D01*
X116834800Y-105802200D01*
X116834800Y-107463800D01*
X116834800Y-107463800D01*
G37*
G36*
X114934800Y-107463800D02*
G01*
X114183200Y-107463800D01*
X114183200Y-105802200D01*
X114934800Y-105802200D01*
X114934800Y-107463800D01*
X114934800Y-107463800D01*
G37*
G36*
X129219800Y-107416800D02*
G01*
X128468200Y-107416800D01*
X128468200Y-105755200D01*
X129219800Y-105755200D01*
X129219800Y-107416800D01*
X129219800Y-107416800D01*
G37*
G36*
X131119800Y-107416800D02*
G01*
X130368200Y-107416800D01*
X130368200Y-105755200D01*
X131119800Y-105755200D01*
X131119800Y-107416800D01*
X131119800Y-107416800D01*
G37*
G36*
X146321584Y-106286004D02*
G01*
X146366091Y-106299505D01*
X146407112Y-106321431D01*
X146443064Y-106350936D01*
X146472569Y-106386888D01*
X146494495Y-106427909D01*
X146507996Y-106472416D01*
X146512800Y-106521193D01*
X146512800Y-107092807D01*
X146507996Y-107141584D01*
X146494495Y-107186091D01*
X146472569Y-107227112D01*
X146443064Y-107263064D01*
X146407112Y-107292569D01*
X146366091Y-107314495D01*
X146321584Y-107327996D01*
X146272807Y-107332800D01*
X145601193Y-107332800D01*
X145552416Y-107327996D01*
X145507909Y-107314495D01*
X145466888Y-107292569D01*
X145430936Y-107263064D01*
X145401431Y-107227112D01*
X145379505Y-107186091D01*
X145366004Y-107141584D01*
X145361200Y-107092807D01*
X145361200Y-106521193D01*
X145366004Y-106472416D01*
X145379505Y-106427909D01*
X145401431Y-106386888D01*
X145430936Y-106350936D01*
X145466888Y-106321431D01*
X145507909Y-106299505D01*
X145552416Y-106286004D01*
X145601193Y-106281200D01*
X146272807Y-106281200D01*
X146321584Y-106286004D01*
X146321584Y-106286004D01*
G37*
G36*
X148071584Y-106286004D02*
G01*
X148116091Y-106299505D01*
X148157112Y-106321431D01*
X148193064Y-106350936D01*
X148222569Y-106386888D01*
X148244495Y-106427909D01*
X148257996Y-106472416D01*
X148262800Y-106521193D01*
X148262800Y-107092807D01*
X148257996Y-107141584D01*
X148244495Y-107186091D01*
X148222569Y-107227112D01*
X148193064Y-107263064D01*
X148157112Y-107292569D01*
X148116091Y-107314495D01*
X148071584Y-107327996D01*
X148022807Y-107332800D01*
X147351193Y-107332800D01*
X147302416Y-107327996D01*
X147257909Y-107314495D01*
X147216888Y-107292569D01*
X147180936Y-107263064D01*
X147151431Y-107227112D01*
X147129505Y-107186091D01*
X147116004Y-107141584D01*
X147111200Y-107092807D01*
X147111200Y-106521193D01*
X147116004Y-106472416D01*
X147129505Y-106427909D01*
X147151431Y-106386888D01*
X147180936Y-106350936D01*
X147216888Y-106321431D01*
X147257909Y-106299505D01*
X147302416Y-106286004D01*
X147351193Y-106281200D01*
X148022807Y-106281200D01*
X148071584Y-106286004D01*
X148071584Y-106286004D01*
G37*
G36*
X120719800Y-106275800D02*
G01*
X119818200Y-106275800D01*
X119818200Y-105274200D01*
X120719800Y-105274200D01*
X120719800Y-106275800D01*
X120719800Y-106275800D01*
G37*
G36*
X150506800Y-105294800D02*
G01*
X148705200Y-105294800D01*
X148705200Y-103493200D01*
X150506800Y-103493200D01*
X150506800Y-105294800D01*
X150506800Y-105294800D01*
G37*
G36*
X152322584Y-103506233D02*
G01*
X152322587Y-103506234D01*
X152322588Y-103506234D01*
X152492389Y-103557743D01*
X152539861Y-103583117D01*
X152648881Y-103641389D01*
X152786044Y-103753956D01*
X152898611Y-103891119D01*
X152946756Y-103981193D01*
X152982257Y-104047611D01*
X153033766Y-104217412D01*
X153033767Y-104217416D01*
X153051159Y-104394000D01*
X153033767Y-104570584D01*
X153033766Y-104570587D01*
X153033766Y-104570588D01*
X152982257Y-104740389D01*
X152964939Y-104772788D01*
X152898611Y-104896881D01*
X152786044Y-105034044D01*
X152648881Y-105146611D01*
X152539861Y-105204883D01*
X152492389Y-105230257D01*
X152322588Y-105281766D01*
X152322587Y-105281766D01*
X152322584Y-105281767D01*
X152190255Y-105294800D01*
X152101745Y-105294800D01*
X151969416Y-105281767D01*
X151969413Y-105281766D01*
X151969412Y-105281766D01*
X151799611Y-105230257D01*
X151752139Y-105204883D01*
X151643119Y-105146611D01*
X151505956Y-105034044D01*
X151393389Y-104896881D01*
X151327061Y-104772788D01*
X151309743Y-104740389D01*
X151258234Y-104570588D01*
X151258234Y-104570587D01*
X151258233Y-104570584D01*
X151240841Y-104394000D01*
X151258233Y-104217416D01*
X151258234Y-104217412D01*
X151309743Y-104047611D01*
X151345244Y-103981193D01*
X151393389Y-103891119D01*
X151505956Y-103753956D01*
X151643119Y-103641389D01*
X151752139Y-103583117D01*
X151799611Y-103557743D01*
X151969412Y-103506234D01*
X151969413Y-103506234D01*
X151969416Y-103506233D01*
X152101745Y-103493200D01*
X152190255Y-103493200D01*
X152322584Y-103506233D01*
X152322584Y-103506233D01*
G37*
G36*
X155000800Y-104890800D02*
G01*
X154249200Y-104890800D01*
X154249200Y-103229200D01*
X155000800Y-103229200D01*
X155000800Y-104890800D01*
X155000800Y-104890800D01*
G37*
G36*
X155950800Y-104890800D02*
G01*
X155199200Y-104890800D01*
X155199200Y-103229200D01*
X155950800Y-103229200D01*
X155950800Y-104890800D01*
X155950800Y-104890800D01*
G37*
G36*
X156900800Y-104890800D02*
G01*
X156149200Y-104890800D01*
X156149200Y-103229200D01*
X156900800Y-103229200D01*
X156900800Y-104890800D01*
X156900800Y-104890800D01*
G37*
G36*
X148071584Y-103746004D02*
G01*
X148116091Y-103759505D01*
X148157112Y-103781431D01*
X148193064Y-103810936D01*
X148222569Y-103846888D01*
X148244495Y-103887909D01*
X148257996Y-103932416D01*
X148262800Y-103981193D01*
X148262800Y-104552807D01*
X148257996Y-104601584D01*
X148244495Y-104646091D01*
X148222569Y-104687112D01*
X148193064Y-104723064D01*
X148157112Y-104752569D01*
X148116091Y-104774495D01*
X148071584Y-104787996D01*
X148022807Y-104792800D01*
X147351193Y-104792800D01*
X147302416Y-104787996D01*
X147257909Y-104774495D01*
X147216888Y-104752569D01*
X147180936Y-104723064D01*
X147151431Y-104687112D01*
X147129505Y-104646091D01*
X147116004Y-104601584D01*
X147111200Y-104552807D01*
X147111200Y-103981193D01*
X147116004Y-103932416D01*
X147129505Y-103887909D01*
X147151431Y-103846888D01*
X147180936Y-103810936D01*
X147216888Y-103781431D01*
X147257909Y-103759505D01*
X147302416Y-103746004D01*
X147351193Y-103741200D01*
X148022807Y-103741200D01*
X148071584Y-103746004D01*
X148071584Y-103746004D01*
G37*
G36*
X146321584Y-103746004D02*
G01*
X146366091Y-103759505D01*
X146407112Y-103781431D01*
X146443064Y-103810936D01*
X146472569Y-103846888D01*
X146494495Y-103887909D01*
X146507996Y-103932416D01*
X146512800Y-103981193D01*
X146512800Y-104552807D01*
X146507996Y-104601584D01*
X146494495Y-104646091D01*
X146472569Y-104687112D01*
X146443064Y-104723064D01*
X146407112Y-104752569D01*
X146366091Y-104774495D01*
X146321584Y-104787996D01*
X146272807Y-104792800D01*
X145601193Y-104792800D01*
X145552416Y-104787996D01*
X145507909Y-104774495D01*
X145466888Y-104752569D01*
X145430936Y-104723064D01*
X145401431Y-104687112D01*
X145379505Y-104646091D01*
X145366004Y-104601584D01*
X145361200Y-104552807D01*
X145361200Y-103981193D01*
X145366004Y-103932416D01*
X145379505Y-103887909D01*
X145401431Y-103846888D01*
X145430936Y-103810936D01*
X145466888Y-103781431D01*
X145507909Y-103759505D01*
X145552416Y-103746004D01*
X145601193Y-103741200D01*
X146272807Y-103741200D01*
X146321584Y-103746004D01*
X146321584Y-103746004D01*
G37*
G36*
X115884800Y-104763800D02*
G01*
X115133200Y-104763800D01*
X115133200Y-103102200D01*
X115884800Y-103102200D01*
X115884800Y-104763800D01*
X115884800Y-104763800D01*
G37*
G36*
X114934800Y-104763800D02*
G01*
X114183200Y-104763800D01*
X114183200Y-103102200D01*
X114934800Y-103102200D01*
X114934800Y-104763800D01*
X114934800Y-104763800D01*
G37*
G36*
X116834800Y-104763800D02*
G01*
X116083200Y-104763800D01*
X116083200Y-103102200D01*
X116834800Y-103102200D01*
X116834800Y-104763800D01*
X116834800Y-104763800D01*
G37*
G36*
X129219800Y-104716800D02*
G01*
X128468200Y-104716800D01*
X128468200Y-103055200D01*
X129219800Y-103055200D01*
X129219800Y-104716800D01*
X129219800Y-104716800D01*
G37*
G36*
X130169800Y-104716800D02*
G01*
X129418200Y-104716800D01*
X129418200Y-103055200D01*
X130169800Y-103055200D01*
X130169800Y-104716800D01*
X130169800Y-104716800D01*
G37*
G36*
X131119800Y-104716800D02*
G01*
X130368200Y-104716800D01*
X130368200Y-103055200D01*
X131119800Y-103055200D01*
X131119800Y-104716800D01*
X131119800Y-104716800D01*
G37*
G36*
X160978800Y-104386800D02*
G01*
X160077200Y-104386800D01*
X160077200Y-103385200D01*
X160978800Y-103385200D01*
X160978800Y-104386800D01*
X160978800Y-104386800D01*
G37*
G36*
X119769800Y-104275800D02*
G01*
X118868200Y-104275800D01*
X118868200Y-103274200D01*
X119769800Y-103274200D01*
X119769800Y-104275800D01*
X119769800Y-104275800D01*
G37*
G36*
X121669800Y-104275800D02*
G01*
X120768200Y-104275800D01*
X120768200Y-103274200D01*
X121669800Y-103274200D01*
X121669800Y-104275800D01*
X121669800Y-104275800D01*
G37*
G36*
X161928800Y-102386800D02*
G01*
X161027200Y-102386800D01*
X161027200Y-101385200D01*
X161928800Y-101385200D01*
X161928800Y-102386800D01*
X161928800Y-102386800D01*
G37*
G36*
X160028800Y-102386800D02*
G01*
X159127200Y-102386800D01*
X159127200Y-101385200D01*
X160028800Y-101385200D01*
X160028800Y-102386800D01*
X160028800Y-102386800D01*
G37*
G36*
X119143584Y-100952004D02*
G01*
X119188091Y-100965505D01*
X119229112Y-100987431D01*
X119265064Y-101016936D01*
X119294569Y-101052888D01*
X119316495Y-101093909D01*
X119329996Y-101138416D01*
X119334800Y-101187193D01*
X119334800Y-101758807D01*
X119329996Y-101807584D01*
X119316495Y-101852091D01*
X119294569Y-101893112D01*
X119265064Y-101929064D01*
X119229112Y-101958569D01*
X119188091Y-101980495D01*
X119143584Y-101993996D01*
X119094807Y-101998800D01*
X118423193Y-101998800D01*
X118374416Y-101993996D01*
X118329909Y-101980495D01*
X118288888Y-101958569D01*
X118252936Y-101929064D01*
X118223431Y-101893112D01*
X118201505Y-101852091D01*
X118188004Y-101807584D01*
X118183200Y-101758807D01*
X118183200Y-101187193D01*
X118188004Y-101138416D01*
X118201505Y-101093909D01*
X118223431Y-101052888D01*
X118252936Y-101016936D01*
X118288888Y-100987431D01*
X118329909Y-100965505D01*
X118374416Y-100952004D01*
X118423193Y-100947200D01*
X119094807Y-100947200D01*
X119143584Y-100952004D01*
X119143584Y-100952004D01*
G37*
G36*
X155084584Y-100952004D02*
G01*
X155129091Y-100965505D01*
X155170112Y-100987431D01*
X155206064Y-101016936D01*
X155235569Y-101052888D01*
X155257495Y-101093909D01*
X155270996Y-101138416D01*
X155275800Y-101187193D01*
X155275800Y-101758807D01*
X155270996Y-101807584D01*
X155257495Y-101852091D01*
X155235569Y-101893112D01*
X155206064Y-101929064D01*
X155170112Y-101958569D01*
X155129091Y-101980495D01*
X155084584Y-101993996D01*
X155035807Y-101998800D01*
X154364193Y-101998800D01*
X154315416Y-101993996D01*
X154270909Y-101980495D01*
X154229888Y-101958569D01*
X154193936Y-101929064D01*
X154164431Y-101893112D01*
X154142505Y-101852091D01*
X154129004Y-101807584D01*
X154124200Y-101758807D01*
X154124200Y-101187193D01*
X154129004Y-101138416D01*
X154142505Y-101093909D01*
X154164431Y-101052888D01*
X154193936Y-101016936D01*
X154229888Y-100987431D01*
X154270909Y-100965505D01*
X154315416Y-100952004D01*
X154364193Y-100947200D01*
X155035807Y-100947200D01*
X155084584Y-100952004D01*
X155084584Y-100952004D01*
G37*
G36*
X131053584Y-100952004D02*
G01*
X131098091Y-100965505D01*
X131139112Y-100987431D01*
X131175064Y-101016936D01*
X131204569Y-101052888D01*
X131226495Y-101093909D01*
X131239996Y-101138416D01*
X131244800Y-101187193D01*
X131244800Y-101758807D01*
X131239996Y-101807584D01*
X131226495Y-101852091D01*
X131204569Y-101893112D01*
X131175064Y-101929064D01*
X131139112Y-101958569D01*
X131098091Y-101980495D01*
X131053584Y-101993996D01*
X131004807Y-101998800D01*
X130333193Y-101998800D01*
X130284416Y-101993996D01*
X130239909Y-101980495D01*
X130198888Y-101958569D01*
X130162936Y-101929064D01*
X130133431Y-101893112D01*
X130111505Y-101852091D01*
X130098004Y-101807584D01*
X130093200Y-101758807D01*
X130093200Y-101187193D01*
X130098004Y-101138416D01*
X130111505Y-101093909D01*
X130133431Y-101052888D01*
X130162936Y-101016936D01*
X130198888Y-100987431D01*
X130239909Y-100965505D01*
X130284416Y-100952004D01*
X130333193Y-100947200D01*
X131004807Y-100947200D01*
X131053584Y-100952004D01*
X131053584Y-100952004D01*
G37*
G36*
X129303584Y-100952004D02*
G01*
X129348091Y-100965505D01*
X129389112Y-100987431D01*
X129425064Y-101016936D01*
X129454569Y-101052888D01*
X129476495Y-101093909D01*
X129489996Y-101138416D01*
X129494800Y-101187193D01*
X129494800Y-101758807D01*
X129489996Y-101807584D01*
X129476495Y-101852091D01*
X129454569Y-101893112D01*
X129425064Y-101929064D01*
X129389112Y-101958569D01*
X129348091Y-101980495D01*
X129303584Y-101993996D01*
X129254807Y-101998800D01*
X128583193Y-101998800D01*
X128534416Y-101993996D01*
X128489909Y-101980495D01*
X128448888Y-101958569D01*
X128412936Y-101929064D01*
X128383431Y-101893112D01*
X128361505Y-101852091D01*
X128348004Y-101807584D01*
X128343200Y-101758807D01*
X128343200Y-101187193D01*
X128348004Y-101138416D01*
X128361505Y-101093909D01*
X128383431Y-101052888D01*
X128412936Y-101016936D01*
X128448888Y-100987431D01*
X128489909Y-100965505D01*
X128534416Y-100952004D01*
X128583193Y-100947200D01*
X129254807Y-100947200D01*
X129303584Y-100952004D01*
X129303584Y-100952004D01*
G37*
G36*
X120893584Y-100952004D02*
G01*
X120938091Y-100965505D01*
X120979112Y-100987431D01*
X121015064Y-101016936D01*
X121044569Y-101052888D01*
X121066495Y-101093909D01*
X121079996Y-101138416D01*
X121084800Y-101187193D01*
X121084800Y-101758807D01*
X121079996Y-101807584D01*
X121066495Y-101852091D01*
X121044569Y-101893112D01*
X121015064Y-101929064D01*
X120979112Y-101958569D01*
X120938091Y-101980495D01*
X120893584Y-101993996D01*
X120844807Y-101998800D01*
X120173193Y-101998800D01*
X120124416Y-101993996D01*
X120079909Y-101980495D01*
X120038888Y-101958569D01*
X120002936Y-101929064D01*
X119973431Y-101893112D01*
X119951505Y-101852091D01*
X119938004Y-101807584D01*
X119933200Y-101758807D01*
X119933200Y-101187193D01*
X119938004Y-101138416D01*
X119951505Y-101093909D01*
X119973431Y-101052888D01*
X120002936Y-101016936D01*
X120038888Y-100987431D01*
X120079909Y-100965505D01*
X120124416Y-100952004D01*
X120173193Y-100947200D01*
X120844807Y-100947200D01*
X120893584Y-100952004D01*
X120893584Y-100952004D01*
G37*
G36*
X116829584Y-100952004D02*
G01*
X116874091Y-100965505D01*
X116915112Y-100987431D01*
X116951064Y-101016936D01*
X116980569Y-101052888D01*
X117002495Y-101093909D01*
X117015996Y-101138416D01*
X117020800Y-101187193D01*
X117020800Y-101758807D01*
X117015996Y-101807584D01*
X117002495Y-101852091D01*
X116980569Y-101893112D01*
X116951064Y-101929064D01*
X116915112Y-101958569D01*
X116874091Y-101980495D01*
X116829584Y-101993996D01*
X116780807Y-101998800D01*
X116109193Y-101998800D01*
X116060416Y-101993996D01*
X116015909Y-101980495D01*
X115974888Y-101958569D01*
X115938936Y-101929064D01*
X115909431Y-101893112D01*
X115887505Y-101852091D01*
X115874004Y-101807584D01*
X115869200Y-101758807D01*
X115869200Y-101187193D01*
X115874004Y-101138416D01*
X115887505Y-101093909D01*
X115909431Y-101052888D01*
X115938936Y-101016936D01*
X115974888Y-100987431D01*
X116015909Y-100965505D01*
X116060416Y-100952004D01*
X116109193Y-100947200D01*
X116780807Y-100947200D01*
X116829584Y-100952004D01*
X116829584Y-100952004D01*
G37*
G36*
X115079584Y-100952004D02*
G01*
X115124091Y-100965505D01*
X115165112Y-100987431D01*
X115201064Y-101016936D01*
X115230569Y-101052888D01*
X115252495Y-101093909D01*
X115265996Y-101138416D01*
X115270800Y-101187193D01*
X115270800Y-101758807D01*
X115265996Y-101807584D01*
X115252495Y-101852091D01*
X115230569Y-101893112D01*
X115201064Y-101929064D01*
X115165112Y-101958569D01*
X115124091Y-101980495D01*
X115079584Y-101993996D01*
X115030807Y-101998800D01*
X114359193Y-101998800D01*
X114310416Y-101993996D01*
X114265909Y-101980495D01*
X114224888Y-101958569D01*
X114188936Y-101929064D01*
X114159431Y-101893112D01*
X114137505Y-101852091D01*
X114124004Y-101807584D01*
X114119200Y-101758807D01*
X114119200Y-101187193D01*
X114124004Y-101138416D01*
X114137505Y-101093909D01*
X114159431Y-101052888D01*
X114188936Y-101016936D01*
X114224888Y-100987431D01*
X114265909Y-100965505D01*
X114310416Y-100952004D01*
X114359193Y-100947200D01*
X115030807Y-100947200D01*
X115079584Y-100952004D01*
X115079584Y-100952004D01*
G37*
G36*
X156834584Y-100952004D02*
G01*
X156879091Y-100965505D01*
X156920112Y-100987431D01*
X156956064Y-101016936D01*
X156985569Y-101052888D01*
X157007495Y-101093909D01*
X157020996Y-101138416D01*
X157025800Y-101187193D01*
X157025800Y-101758807D01*
X157020996Y-101807584D01*
X157007495Y-101852091D01*
X156985569Y-101893112D01*
X156956064Y-101929064D01*
X156920112Y-101958569D01*
X156879091Y-101980495D01*
X156834584Y-101993996D01*
X156785807Y-101998800D01*
X156114193Y-101998800D01*
X156065416Y-101993996D01*
X156020909Y-101980495D01*
X155979888Y-101958569D01*
X155943936Y-101929064D01*
X155914431Y-101893112D01*
X155892505Y-101852091D01*
X155879004Y-101807584D01*
X155874200Y-101758807D01*
X155874200Y-101187193D01*
X155879004Y-101138416D01*
X155892505Y-101093909D01*
X155914431Y-101052888D01*
X155943936Y-101016936D01*
X155979888Y-100987431D01*
X156020909Y-100965505D01*
X156065416Y-100952004D01*
X156114193Y-100947200D01*
X156785807Y-100947200D01*
X156834584Y-100952004D01*
X156834584Y-100952004D01*
G37*
G36*
X132002584Y-97156233D02*
G01*
X132002587Y-97156234D01*
X132002588Y-97156234D01*
X132172389Y-97207743D01*
X132219861Y-97233117D01*
X132328881Y-97291389D01*
X132466044Y-97403956D01*
X132578611Y-97541119D01*
X132636883Y-97650139D01*
X132662257Y-97697611D01*
X132713766Y-97867412D01*
X132713767Y-97867416D01*
X132731159Y-98044000D01*
X132713767Y-98220584D01*
X132713766Y-98220587D01*
X132713766Y-98220588D01*
X132662257Y-98390389D01*
X132662256Y-98390390D01*
X132578611Y-98546881D01*
X132466044Y-98684044D01*
X132328881Y-98796611D01*
X132219861Y-98854883D01*
X132172389Y-98880257D01*
X132002588Y-98931766D01*
X132002587Y-98931766D01*
X132002584Y-98931767D01*
X131870255Y-98944800D01*
X131781745Y-98944800D01*
X131649416Y-98931767D01*
X131649413Y-98931766D01*
X131649412Y-98931766D01*
X131479611Y-98880257D01*
X131432139Y-98854883D01*
X131323119Y-98796611D01*
X131185956Y-98684044D01*
X131073389Y-98546881D01*
X130989744Y-98390390D01*
X130989743Y-98390389D01*
X130938234Y-98220588D01*
X130938234Y-98220587D01*
X130938233Y-98220584D01*
X130920841Y-98044000D01*
X130938233Y-97867416D01*
X130938234Y-97867412D01*
X130989743Y-97697611D01*
X131015117Y-97650139D01*
X131073389Y-97541119D01*
X131185956Y-97403956D01*
X131323119Y-97291389D01*
X131432139Y-97233117D01*
X131479611Y-97207743D01*
X131649412Y-97156234D01*
X131649413Y-97156234D01*
X131649416Y-97156233D01*
X131781745Y-97143200D01*
X131870255Y-97143200D01*
X132002584Y-97156233D01*
X132002584Y-97156233D01*
G37*
G36*
X162482584Y-97156233D02*
G01*
X162482587Y-97156234D01*
X162482588Y-97156234D01*
X162652389Y-97207743D01*
X162699861Y-97233117D01*
X162808881Y-97291389D01*
X162946044Y-97403956D01*
X163058611Y-97541119D01*
X163116883Y-97650139D01*
X163142257Y-97697611D01*
X163193766Y-97867412D01*
X163193767Y-97867416D01*
X163211159Y-98044000D01*
X163193767Y-98220584D01*
X163193766Y-98220587D01*
X163193766Y-98220588D01*
X163142257Y-98390389D01*
X163142256Y-98390390D01*
X163058611Y-98546881D01*
X162946044Y-98684044D01*
X162808881Y-98796611D01*
X162699861Y-98854883D01*
X162652389Y-98880257D01*
X162482588Y-98931766D01*
X162482587Y-98931766D01*
X162482584Y-98931767D01*
X162350255Y-98944800D01*
X162261745Y-98944800D01*
X162129416Y-98931767D01*
X162129413Y-98931766D01*
X162129412Y-98931766D01*
X161959611Y-98880257D01*
X161912139Y-98854883D01*
X161803119Y-98796611D01*
X161665956Y-98684044D01*
X161553389Y-98546881D01*
X161469744Y-98390390D01*
X161469743Y-98390389D01*
X161418234Y-98220588D01*
X161418234Y-98220587D01*
X161418233Y-98220584D01*
X161400841Y-98044000D01*
X161418233Y-97867416D01*
X161418234Y-97867412D01*
X161469743Y-97697611D01*
X161495117Y-97650139D01*
X161553389Y-97541119D01*
X161665956Y-97403956D01*
X161803119Y-97291389D01*
X161912139Y-97233117D01*
X161959611Y-97207743D01*
X162129412Y-97156234D01*
X162129413Y-97156234D01*
X162129416Y-97156233D01*
X162261745Y-97143200D01*
X162350255Y-97143200D01*
X162482584Y-97156233D01*
X162482584Y-97156233D01*
G37*
G36*
X159942584Y-97156233D02*
G01*
X159942587Y-97156234D01*
X159942588Y-97156234D01*
X160112389Y-97207743D01*
X160159861Y-97233117D01*
X160268881Y-97291389D01*
X160406044Y-97403956D01*
X160518611Y-97541119D01*
X160576883Y-97650139D01*
X160602257Y-97697611D01*
X160653766Y-97867412D01*
X160653767Y-97867416D01*
X160671159Y-98044000D01*
X160653767Y-98220584D01*
X160653766Y-98220587D01*
X160653766Y-98220588D01*
X160602257Y-98390389D01*
X160602256Y-98390390D01*
X160518611Y-98546881D01*
X160406044Y-98684044D01*
X160268881Y-98796611D01*
X160159861Y-98854883D01*
X160112389Y-98880257D01*
X159942588Y-98931766D01*
X159942587Y-98931766D01*
X159942584Y-98931767D01*
X159810255Y-98944800D01*
X159721745Y-98944800D01*
X159589416Y-98931767D01*
X159589413Y-98931766D01*
X159589412Y-98931766D01*
X159419611Y-98880257D01*
X159372139Y-98854883D01*
X159263119Y-98796611D01*
X159125956Y-98684044D01*
X159013389Y-98546881D01*
X158929744Y-98390390D01*
X158929743Y-98390389D01*
X158878234Y-98220588D01*
X158878234Y-98220587D01*
X158878233Y-98220584D01*
X158860841Y-98044000D01*
X158878233Y-97867416D01*
X158878234Y-97867412D01*
X158929743Y-97697611D01*
X158955117Y-97650139D01*
X159013389Y-97541119D01*
X159125956Y-97403956D01*
X159263119Y-97291389D01*
X159372139Y-97233117D01*
X159419611Y-97207743D01*
X159589412Y-97156234D01*
X159589413Y-97156234D01*
X159589416Y-97156233D01*
X159721745Y-97143200D01*
X159810255Y-97143200D01*
X159942584Y-97156233D01*
X159942584Y-97156233D01*
G37*
G36*
X157402584Y-97156233D02*
G01*
X157402587Y-97156234D01*
X157402588Y-97156234D01*
X157572389Y-97207743D01*
X157619861Y-97233117D01*
X157728881Y-97291389D01*
X157866044Y-97403956D01*
X157978611Y-97541119D01*
X158036883Y-97650139D01*
X158062257Y-97697611D01*
X158113766Y-97867412D01*
X158113767Y-97867416D01*
X158131159Y-98044000D01*
X158113767Y-98220584D01*
X158113766Y-98220587D01*
X158113766Y-98220588D01*
X158062257Y-98390389D01*
X158062256Y-98390390D01*
X157978611Y-98546881D01*
X157866044Y-98684044D01*
X157728881Y-98796611D01*
X157619861Y-98854883D01*
X157572389Y-98880257D01*
X157402588Y-98931766D01*
X157402587Y-98931766D01*
X157402584Y-98931767D01*
X157270255Y-98944800D01*
X157181745Y-98944800D01*
X157049416Y-98931767D01*
X157049413Y-98931766D01*
X157049412Y-98931766D01*
X156879611Y-98880257D01*
X156832139Y-98854883D01*
X156723119Y-98796611D01*
X156585956Y-98684044D01*
X156473389Y-98546881D01*
X156389744Y-98390390D01*
X156389743Y-98390389D01*
X156338234Y-98220588D01*
X156338234Y-98220587D01*
X156338233Y-98220584D01*
X156320841Y-98044000D01*
X156338233Y-97867416D01*
X156338234Y-97867412D01*
X156389743Y-97697611D01*
X156415117Y-97650139D01*
X156473389Y-97541119D01*
X156585956Y-97403956D01*
X156723119Y-97291389D01*
X156832139Y-97233117D01*
X156879611Y-97207743D01*
X157049412Y-97156234D01*
X157049413Y-97156234D01*
X157049416Y-97156233D01*
X157181745Y-97143200D01*
X157270255Y-97143200D01*
X157402584Y-97156233D01*
X157402584Y-97156233D01*
G37*
G36*
X154862584Y-97156233D02*
G01*
X154862587Y-97156234D01*
X154862588Y-97156234D01*
X155032389Y-97207743D01*
X155079861Y-97233117D01*
X155188881Y-97291389D01*
X155326044Y-97403956D01*
X155438611Y-97541119D01*
X155496883Y-97650139D01*
X155522257Y-97697611D01*
X155573766Y-97867412D01*
X155573767Y-97867416D01*
X155591159Y-98044000D01*
X155573767Y-98220584D01*
X155573766Y-98220587D01*
X155573766Y-98220588D01*
X155522257Y-98390389D01*
X155522256Y-98390390D01*
X155438611Y-98546881D01*
X155326044Y-98684044D01*
X155188881Y-98796611D01*
X155079861Y-98854883D01*
X155032389Y-98880257D01*
X154862588Y-98931766D01*
X154862587Y-98931766D01*
X154862584Y-98931767D01*
X154730255Y-98944800D01*
X154641745Y-98944800D01*
X154509416Y-98931767D01*
X154509413Y-98931766D01*
X154509412Y-98931766D01*
X154339611Y-98880257D01*
X154292139Y-98854883D01*
X154183119Y-98796611D01*
X154045956Y-98684044D01*
X153933389Y-98546881D01*
X153849744Y-98390390D01*
X153849743Y-98390389D01*
X153798234Y-98220588D01*
X153798234Y-98220587D01*
X153798233Y-98220584D01*
X153780841Y-98044000D01*
X153798233Y-97867416D01*
X153798234Y-97867412D01*
X153849743Y-97697611D01*
X153875117Y-97650139D01*
X153933389Y-97541119D01*
X154045956Y-97403956D01*
X154183119Y-97291389D01*
X154292139Y-97233117D01*
X154339611Y-97207743D01*
X154509412Y-97156234D01*
X154509413Y-97156234D01*
X154509416Y-97156233D01*
X154641745Y-97143200D01*
X154730255Y-97143200D01*
X154862584Y-97156233D01*
X154862584Y-97156233D01*
G37*
G36*
X152322584Y-97156233D02*
G01*
X152322587Y-97156234D01*
X152322588Y-97156234D01*
X152492389Y-97207743D01*
X152539861Y-97233117D01*
X152648881Y-97291389D01*
X152786044Y-97403956D01*
X152898611Y-97541119D01*
X152956883Y-97650139D01*
X152982257Y-97697611D01*
X153033766Y-97867412D01*
X153033767Y-97867416D01*
X153051159Y-98044000D01*
X153033767Y-98220584D01*
X153033766Y-98220587D01*
X153033766Y-98220588D01*
X152982257Y-98390389D01*
X152982256Y-98390390D01*
X152898611Y-98546881D01*
X152786044Y-98684044D01*
X152648881Y-98796611D01*
X152539861Y-98854883D01*
X152492389Y-98880257D01*
X152322588Y-98931766D01*
X152322587Y-98931766D01*
X152322584Y-98931767D01*
X152190255Y-98944800D01*
X152101745Y-98944800D01*
X151969416Y-98931767D01*
X151969413Y-98931766D01*
X151969412Y-98931766D01*
X151799611Y-98880257D01*
X151752139Y-98854883D01*
X151643119Y-98796611D01*
X151505956Y-98684044D01*
X151393389Y-98546881D01*
X151309744Y-98390390D01*
X151309743Y-98390389D01*
X151258234Y-98220588D01*
X151258234Y-98220587D01*
X151258233Y-98220584D01*
X151240841Y-98044000D01*
X151258233Y-97867416D01*
X151258234Y-97867412D01*
X151309743Y-97697611D01*
X151335117Y-97650139D01*
X151393389Y-97541119D01*
X151505956Y-97403956D01*
X151643119Y-97291389D01*
X151752139Y-97233117D01*
X151799611Y-97207743D01*
X151969412Y-97156234D01*
X151969413Y-97156234D01*
X151969416Y-97156233D01*
X152101745Y-97143200D01*
X152190255Y-97143200D01*
X152322584Y-97156233D01*
X152322584Y-97156233D01*
G37*
G36*
X149782584Y-97156233D02*
G01*
X149782587Y-97156234D01*
X149782588Y-97156234D01*
X149952389Y-97207743D01*
X149999861Y-97233117D01*
X150108881Y-97291389D01*
X150246044Y-97403956D01*
X150358611Y-97541119D01*
X150416883Y-97650139D01*
X150442257Y-97697611D01*
X150493766Y-97867412D01*
X150493767Y-97867416D01*
X150511159Y-98044000D01*
X150493767Y-98220584D01*
X150493766Y-98220587D01*
X150493766Y-98220588D01*
X150442257Y-98390389D01*
X150442256Y-98390390D01*
X150358611Y-98546881D01*
X150246044Y-98684044D01*
X150108881Y-98796611D01*
X149999861Y-98854883D01*
X149952389Y-98880257D01*
X149782588Y-98931766D01*
X149782587Y-98931766D01*
X149782584Y-98931767D01*
X149650255Y-98944800D01*
X149561745Y-98944800D01*
X149429416Y-98931767D01*
X149429413Y-98931766D01*
X149429412Y-98931766D01*
X149259611Y-98880257D01*
X149212139Y-98854883D01*
X149103119Y-98796611D01*
X148965956Y-98684044D01*
X148853389Y-98546881D01*
X148769744Y-98390390D01*
X148769743Y-98390389D01*
X148718234Y-98220588D01*
X148718234Y-98220587D01*
X148718233Y-98220584D01*
X148700841Y-98044000D01*
X148718233Y-97867416D01*
X148718234Y-97867412D01*
X148769743Y-97697611D01*
X148795117Y-97650139D01*
X148853389Y-97541119D01*
X148965956Y-97403956D01*
X149103119Y-97291389D01*
X149212139Y-97233117D01*
X149259611Y-97207743D01*
X149429412Y-97156234D01*
X149429413Y-97156234D01*
X149429416Y-97156233D01*
X149561745Y-97143200D01*
X149650255Y-97143200D01*
X149782584Y-97156233D01*
X149782584Y-97156233D01*
G37*
G36*
X147242584Y-97156233D02*
G01*
X147242587Y-97156234D01*
X147242588Y-97156234D01*
X147412389Y-97207743D01*
X147459861Y-97233117D01*
X147568881Y-97291389D01*
X147706044Y-97403956D01*
X147818611Y-97541119D01*
X147876883Y-97650139D01*
X147902257Y-97697611D01*
X147953766Y-97867412D01*
X147953767Y-97867416D01*
X147971159Y-98044000D01*
X147953767Y-98220584D01*
X147953766Y-98220587D01*
X147953766Y-98220588D01*
X147902257Y-98390389D01*
X147902256Y-98390390D01*
X147818611Y-98546881D01*
X147706044Y-98684044D01*
X147568881Y-98796611D01*
X147459861Y-98854883D01*
X147412389Y-98880257D01*
X147242588Y-98931766D01*
X147242587Y-98931766D01*
X147242584Y-98931767D01*
X147110255Y-98944800D01*
X147021745Y-98944800D01*
X146889416Y-98931767D01*
X146889413Y-98931766D01*
X146889412Y-98931766D01*
X146719611Y-98880257D01*
X146672139Y-98854883D01*
X146563119Y-98796611D01*
X146425956Y-98684044D01*
X146313389Y-98546881D01*
X146229744Y-98390390D01*
X146229743Y-98390389D01*
X146178234Y-98220588D01*
X146178234Y-98220587D01*
X146178233Y-98220584D01*
X146160841Y-98044000D01*
X146178233Y-97867416D01*
X146178234Y-97867412D01*
X146229743Y-97697611D01*
X146255117Y-97650139D01*
X146313389Y-97541119D01*
X146425956Y-97403956D01*
X146563119Y-97291389D01*
X146672139Y-97233117D01*
X146719611Y-97207743D01*
X146889412Y-97156234D01*
X146889413Y-97156234D01*
X146889416Y-97156233D01*
X147021745Y-97143200D01*
X147110255Y-97143200D01*
X147242584Y-97156233D01*
X147242584Y-97156233D01*
G37*
G36*
X144702584Y-97156233D02*
G01*
X144702587Y-97156234D01*
X144702588Y-97156234D01*
X144872389Y-97207743D01*
X144919861Y-97233117D01*
X145028881Y-97291389D01*
X145166044Y-97403956D01*
X145278611Y-97541119D01*
X145336883Y-97650139D01*
X145362257Y-97697611D01*
X145413766Y-97867412D01*
X145413767Y-97867416D01*
X145431159Y-98044000D01*
X145413767Y-98220584D01*
X145413766Y-98220587D01*
X145413766Y-98220588D01*
X145362257Y-98390389D01*
X145362256Y-98390390D01*
X145278611Y-98546881D01*
X145166044Y-98684044D01*
X145028881Y-98796611D01*
X144919861Y-98854883D01*
X144872389Y-98880257D01*
X144702588Y-98931766D01*
X144702587Y-98931766D01*
X144702584Y-98931767D01*
X144570255Y-98944800D01*
X144481745Y-98944800D01*
X144349416Y-98931767D01*
X144349413Y-98931766D01*
X144349412Y-98931766D01*
X144179611Y-98880257D01*
X144132139Y-98854883D01*
X144023119Y-98796611D01*
X143885956Y-98684044D01*
X143773389Y-98546881D01*
X143689744Y-98390390D01*
X143689743Y-98390389D01*
X143638234Y-98220588D01*
X143638234Y-98220587D01*
X143638233Y-98220584D01*
X143620841Y-98044000D01*
X143638233Y-97867416D01*
X143638234Y-97867412D01*
X143689743Y-97697611D01*
X143715117Y-97650139D01*
X143773389Y-97541119D01*
X143885956Y-97403956D01*
X144023119Y-97291389D01*
X144132139Y-97233117D01*
X144179611Y-97207743D01*
X144349412Y-97156234D01*
X144349413Y-97156234D01*
X144349416Y-97156233D01*
X144481745Y-97143200D01*
X144570255Y-97143200D01*
X144702584Y-97156233D01*
X144702584Y-97156233D01*
G37*
G36*
X142162584Y-97156233D02*
G01*
X142162587Y-97156234D01*
X142162588Y-97156234D01*
X142332389Y-97207743D01*
X142379861Y-97233117D01*
X142488881Y-97291389D01*
X142626044Y-97403956D01*
X142738611Y-97541119D01*
X142796883Y-97650139D01*
X142822257Y-97697611D01*
X142873766Y-97867412D01*
X142873767Y-97867416D01*
X142891159Y-98044000D01*
X142873767Y-98220584D01*
X142873766Y-98220587D01*
X142873766Y-98220588D01*
X142822257Y-98390389D01*
X142822256Y-98390390D01*
X142738611Y-98546881D01*
X142626044Y-98684044D01*
X142488881Y-98796611D01*
X142379861Y-98854883D01*
X142332389Y-98880257D01*
X142162588Y-98931766D01*
X142162587Y-98931766D01*
X142162584Y-98931767D01*
X142030255Y-98944800D01*
X141941745Y-98944800D01*
X141809416Y-98931767D01*
X141809413Y-98931766D01*
X141809412Y-98931766D01*
X141639611Y-98880257D01*
X141592139Y-98854883D01*
X141483119Y-98796611D01*
X141345956Y-98684044D01*
X141233389Y-98546881D01*
X141149744Y-98390390D01*
X141149743Y-98390389D01*
X141098234Y-98220588D01*
X141098234Y-98220587D01*
X141098233Y-98220584D01*
X141080841Y-98044000D01*
X141098233Y-97867416D01*
X141098234Y-97867412D01*
X141149743Y-97697611D01*
X141175117Y-97650139D01*
X141233389Y-97541119D01*
X141345956Y-97403956D01*
X141483119Y-97291389D01*
X141592139Y-97233117D01*
X141639611Y-97207743D01*
X141809412Y-97156234D01*
X141809413Y-97156234D01*
X141809416Y-97156233D01*
X141941745Y-97143200D01*
X142030255Y-97143200D01*
X142162584Y-97156233D01*
X142162584Y-97156233D01*
G37*
G36*
X139622584Y-97156233D02*
G01*
X139622587Y-97156234D01*
X139622588Y-97156234D01*
X139792389Y-97207743D01*
X139839861Y-97233117D01*
X139948881Y-97291389D01*
X140086044Y-97403956D01*
X140198611Y-97541119D01*
X140256883Y-97650139D01*
X140282257Y-97697611D01*
X140333766Y-97867412D01*
X140333767Y-97867416D01*
X140351159Y-98044000D01*
X140333767Y-98220584D01*
X140333766Y-98220587D01*
X140333766Y-98220588D01*
X140282257Y-98390389D01*
X140282256Y-98390390D01*
X140198611Y-98546881D01*
X140086044Y-98684044D01*
X139948881Y-98796611D01*
X139839861Y-98854883D01*
X139792389Y-98880257D01*
X139622588Y-98931766D01*
X139622587Y-98931766D01*
X139622584Y-98931767D01*
X139490255Y-98944800D01*
X139401745Y-98944800D01*
X139269416Y-98931767D01*
X139269413Y-98931766D01*
X139269412Y-98931766D01*
X139099611Y-98880257D01*
X139052139Y-98854883D01*
X138943119Y-98796611D01*
X138805956Y-98684044D01*
X138693389Y-98546881D01*
X138609744Y-98390390D01*
X138609743Y-98390389D01*
X138558234Y-98220588D01*
X138558234Y-98220587D01*
X138558233Y-98220584D01*
X138540841Y-98044000D01*
X138558233Y-97867416D01*
X138558234Y-97867412D01*
X138609743Y-97697611D01*
X138635117Y-97650139D01*
X138693389Y-97541119D01*
X138805956Y-97403956D01*
X138943119Y-97291389D01*
X139052139Y-97233117D01*
X139099611Y-97207743D01*
X139269412Y-97156234D01*
X139269413Y-97156234D01*
X139269416Y-97156233D01*
X139401745Y-97143200D01*
X139490255Y-97143200D01*
X139622584Y-97156233D01*
X139622584Y-97156233D01*
G37*
G36*
X137082584Y-97156233D02*
G01*
X137082587Y-97156234D01*
X137082588Y-97156234D01*
X137252389Y-97207743D01*
X137299861Y-97233117D01*
X137408881Y-97291389D01*
X137546044Y-97403956D01*
X137658611Y-97541119D01*
X137716883Y-97650139D01*
X137742257Y-97697611D01*
X137793766Y-97867412D01*
X137793767Y-97867416D01*
X137811159Y-98044000D01*
X137793767Y-98220584D01*
X137793766Y-98220587D01*
X137793766Y-98220588D01*
X137742257Y-98390389D01*
X137742256Y-98390390D01*
X137658611Y-98546881D01*
X137546044Y-98684044D01*
X137408881Y-98796611D01*
X137299861Y-98854883D01*
X137252389Y-98880257D01*
X137082588Y-98931766D01*
X137082587Y-98931766D01*
X137082584Y-98931767D01*
X136950255Y-98944800D01*
X136861745Y-98944800D01*
X136729416Y-98931767D01*
X136729413Y-98931766D01*
X136729412Y-98931766D01*
X136559611Y-98880257D01*
X136512139Y-98854883D01*
X136403119Y-98796611D01*
X136265956Y-98684044D01*
X136153389Y-98546881D01*
X136069744Y-98390390D01*
X136069743Y-98390389D01*
X136018234Y-98220588D01*
X136018234Y-98220587D01*
X136018233Y-98220584D01*
X136000841Y-98044000D01*
X136018233Y-97867416D01*
X136018234Y-97867412D01*
X136069743Y-97697611D01*
X136095117Y-97650139D01*
X136153389Y-97541119D01*
X136265956Y-97403956D01*
X136403119Y-97291389D01*
X136512139Y-97233117D01*
X136559611Y-97207743D01*
X136729412Y-97156234D01*
X136729413Y-97156234D01*
X136729416Y-97156233D01*
X136861745Y-97143200D01*
X136950255Y-97143200D01*
X137082584Y-97156233D01*
X137082584Y-97156233D01*
G37*
G36*
X134542584Y-97156233D02*
G01*
X134542587Y-97156234D01*
X134542588Y-97156234D01*
X134712389Y-97207743D01*
X134759861Y-97233117D01*
X134868881Y-97291389D01*
X135006044Y-97403956D01*
X135118611Y-97541119D01*
X135176883Y-97650139D01*
X135202257Y-97697611D01*
X135253766Y-97867412D01*
X135253767Y-97867416D01*
X135271159Y-98044000D01*
X135253767Y-98220584D01*
X135253766Y-98220587D01*
X135253766Y-98220588D01*
X135202257Y-98390389D01*
X135202256Y-98390390D01*
X135118611Y-98546881D01*
X135006044Y-98684044D01*
X134868881Y-98796611D01*
X134759861Y-98854883D01*
X134712389Y-98880257D01*
X134542588Y-98931766D01*
X134542587Y-98931766D01*
X134542584Y-98931767D01*
X134410255Y-98944800D01*
X134321745Y-98944800D01*
X134189416Y-98931767D01*
X134189413Y-98931766D01*
X134189412Y-98931766D01*
X134019611Y-98880257D01*
X133972139Y-98854883D01*
X133863119Y-98796611D01*
X133725956Y-98684044D01*
X133613389Y-98546881D01*
X133529744Y-98390390D01*
X133529743Y-98390389D01*
X133478234Y-98220588D01*
X133478234Y-98220587D01*
X133478233Y-98220584D01*
X133460841Y-98044000D01*
X133478233Y-97867416D01*
X133478234Y-97867412D01*
X133529743Y-97697611D01*
X133555117Y-97650139D01*
X133613389Y-97541119D01*
X133725956Y-97403956D01*
X133863119Y-97291389D01*
X133972139Y-97233117D01*
X134019611Y-97207743D01*
X134189412Y-97156234D01*
X134189413Y-97156234D01*
X134189416Y-97156233D01*
X134321745Y-97143200D01*
X134410255Y-97143200D01*
X134542584Y-97156233D01*
X134542584Y-97156233D01*
G37*
G36*
X129462584Y-97156233D02*
G01*
X129462587Y-97156234D01*
X129462588Y-97156234D01*
X129632389Y-97207743D01*
X129679861Y-97233117D01*
X129788881Y-97291389D01*
X129926044Y-97403956D01*
X130038611Y-97541119D01*
X130096883Y-97650139D01*
X130122257Y-97697611D01*
X130173766Y-97867412D01*
X130173767Y-97867416D01*
X130191159Y-98044000D01*
X130173767Y-98220584D01*
X130173766Y-98220587D01*
X130173766Y-98220588D01*
X130122257Y-98390389D01*
X130122256Y-98390390D01*
X130038611Y-98546881D01*
X129926044Y-98684044D01*
X129788881Y-98796611D01*
X129679861Y-98854883D01*
X129632389Y-98880257D01*
X129462588Y-98931766D01*
X129462587Y-98931766D01*
X129462584Y-98931767D01*
X129330255Y-98944800D01*
X129241745Y-98944800D01*
X129109416Y-98931767D01*
X129109413Y-98931766D01*
X129109412Y-98931766D01*
X128939611Y-98880257D01*
X128892139Y-98854883D01*
X128783119Y-98796611D01*
X128645956Y-98684044D01*
X128533389Y-98546881D01*
X128449744Y-98390390D01*
X128449743Y-98390389D01*
X128398234Y-98220588D01*
X128398234Y-98220587D01*
X128398233Y-98220584D01*
X128380841Y-98044000D01*
X128398233Y-97867416D01*
X128398234Y-97867412D01*
X128449743Y-97697611D01*
X128475117Y-97650139D01*
X128533389Y-97541119D01*
X128645956Y-97403956D01*
X128783119Y-97291389D01*
X128892139Y-97233117D01*
X128939611Y-97207743D01*
X129109412Y-97156234D01*
X129109413Y-97156234D01*
X129109416Y-97156233D01*
X129241745Y-97143200D01*
X129330255Y-97143200D01*
X129462584Y-97156233D01*
X129462584Y-97156233D01*
G37*
G36*
X126922584Y-97156233D02*
G01*
X126922587Y-97156234D01*
X126922588Y-97156234D01*
X127092389Y-97207743D01*
X127139861Y-97233117D01*
X127248881Y-97291389D01*
X127386044Y-97403956D01*
X127498611Y-97541119D01*
X127556883Y-97650139D01*
X127582257Y-97697611D01*
X127633766Y-97867412D01*
X127633767Y-97867416D01*
X127651159Y-98044000D01*
X127633767Y-98220584D01*
X127633766Y-98220587D01*
X127633766Y-98220588D01*
X127582257Y-98390389D01*
X127582256Y-98390390D01*
X127498611Y-98546881D01*
X127386044Y-98684044D01*
X127248881Y-98796611D01*
X127139861Y-98854883D01*
X127092389Y-98880257D01*
X126922588Y-98931766D01*
X126922587Y-98931766D01*
X126922584Y-98931767D01*
X126790255Y-98944800D01*
X126701745Y-98944800D01*
X126569416Y-98931767D01*
X126569413Y-98931766D01*
X126569412Y-98931766D01*
X126399611Y-98880257D01*
X126352139Y-98854883D01*
X126243119Y-98796611D01*
X126105956Y-98684044D01*
X125993389Y-98546881D01*
X125909744Y-98390390D01*
X125909743Y-98390389D01*
X125858234Y-98220588D01*
X125858234Y-98220587D01*
X125858233Y-98220584D01*
X125840841Y-98044000D01*
X125858233Y-97867416D01*
X125858234Y-97867412D01*
X125909743Y-97697611D01*
X125935117Y-97650139D01*
X125993389Y-97541119D01*
X126105956Y-97403956D01*
X126243119Y-97291389D01*
X126352139Y-97233117D01*
X126399611Y-97207743D01*
X126569412Y-97156234D01*
X126569413Y-97156234D01*
X126569416Y-97156233D01*
X126701745Y-97143200D01*
X126790255Y-97143200D01*
X126922584Y-97156233D01*
X126922584Y-97156233D01*
G37*
G36*
X124382584Y-97156233D02*
G01*
X124382587Y-97156234D01*
X124382588Y-97156234D01*
X124552389Y-97207743D01*
X124599861Y-97233117D01*
X124708881Y-97291389D01*
X124846044Y-97403956D01*
X124958611Y-97541119D01*
X125016883Y-97650139D01*
X125042257Y-97697611D01*
X125093766Y-97867412D01*
X125093767Y-97867416D01*
X125111159Y-98044000D01*
X125093767Y-98220584D01*
X125093766Y-98220587D01*
X125093766Y-98220588D01*
X125042257Y-98390389D01*
X125042256Y-98390390D01*
X124958611Y-98546881D01*
X124846044Y-98684044D01*
X124708881Y-98796611D01*
X124599861Y-98854883D01*
X124552389Y-98880257D01*
X124382588Y-98931766D01*
X124382587Y-98931766D01*
X124382584Y-98931767D01*
X124250255Y-98944800D01*
X124161745Y-98944800D01*
X124029416Y-98931767D01*
X124029413Y-98931766D01*
X124029412Y-98931766D01*
X123859611Y-98880257D01*
X123812139Y-98854883D01*
X123703119Y-98796611D01*
X123565956Y-98684044D01*
X123453389Y-98546881D01*
X123369744Y-98390390D01*
X123369743Y-98390389D01*
X123318234Y-98220588D01*
X123318234Y-98220587D01*
X123318233Y-98220584D01*
X123300841Y-98044000D01*
X123318233Y-97867416D01*
X123318234Y-97867412D01*
X123369743Y-97697611D01*
X123395117Y-97650139D01*
X123453389Y-97541119D01*
X123565956Y-97403956D01*
X123703119Y-97291389D01*
X123812139Y-97233117D01*
X123859611Y-97207743D01*
X124029412Y-97156234D01*
X124029413Y-97156234D01*
X124029416Y-97156233D01*
X124161745Y-97143200D01*
X124250255Y-97143200D01*
X124382584Y-97156233D01*
X124382584Y-97156233D01*
G37*
G36*
X121842584Y-97156233D02*
G01*
X121842587Y-97156234D01*
X121842588Y-97156234D01*
X122012389Y-97207743D01*
X122059861Y-97233117D01*
X122168881Y-97291389D01*
X122306044Y-97403956D01*
X122418611Y-97541119D01*
X122476883Y-97650139D01*
X122502257Y-97697611D01*
X122553766Y-97867412D01*
X122553767Y-97867416D01*
X122571159Y-98044000D01*
X122553767Y-98220584D01*
X122553766Y-98220587D01*
X122553766Y-98220588D01*
X122502257Y-98390389D01*
X122502256Y-98390390D01*
X122418611Y-98546881D01*
X122306044Y-98684044D01*
X122168881Y-98796611D01*
X122059861Y-98854883D01*
X122012389Y-98880257D01*
X121842588Y-98931766D01*
X121842587Y-98931766D01*
X121842584Y-98931767D01*
X121710255Y-98944800D01*
X121621745Y-98944800D01*
X121489416Y-98931767D01*
X121489413Y-98931766D01*
X121489412Y-98931766D01*
X121319611Y-98880257D01*
X121272139Y-98854883D01*
X121163119Y-98796611D01*
X121025956Y-98684044D01*
X120913389Y-98546881D01*
X120829744Y-98390390D01*
X120829743Y-98390389D01*
X120778234Y-98220588D01*
X120778234Y-98220587D01*
X120778233Y-98220584D01*
X120760841Y-98044000D01*
X120778233Y-97867416D01*
X120778234Y-97867412D01*
X120829743Y-97697611D01*
X120855117Y-97650139D01*
X120913389Y-97541119D01*
X121025956Y-97403956D01*
X121163119Y-97291389D01*
X121272139Y-97233117D01*
X121319611Y-97207743D01*
X121489412Y-97156234D01*
X121489413Y-97156234D01*
X121489416Y-97156233D01*
X121621745Y-97143200D01*
X121710255Y-97143200D01*
X121842584Y-97156233D01*
X121842584Y-97156233D01*
G37*
G36*
X119302584Y-97156233D02*
G01*
X119302587Y-97156234D01*
X119302588Y-97156234D01*
X119472389Y-97207743D01*
X119519861Y-97233117D01*
X119628881Y-97291389D01*
X119766044Y-97403956D01*
X119878611Y-97541119D01*
X119936883Y-97650139D01*
X119962257Y-97697611D01*
X120013766Y-97867412D01*
X120013767Y-97867416D01*
X120031159Y-98044000D01*
X120013767Y-98220584D01*
X120013766Y-98220587D01*
X120013766Y-98220588D01*
X119962257Y-98390389D01*
X119962256Y-98390390D01*
X119878611Y-98546881D01*
X119766044Y-98684044D01*
X119628881Y-98796611D01*
X119519861Y-98854883D01*
X119472389Y-98880257D01*
X119302588Y-98931766D01*
X119302587Y-98931766D01*
X119302584Y-98931767D01*
X119170255Y-98944800D01*
X119081745Y-98944800D01*
X118949416Y-98931767D01*
X118949413Y-98931766D01*
X118949412Y-98931766D01*
X118779611Y-98880257D01*
X118732139Y-98854883D01*
X118623119Y-98796611D01*
X118485956Y-98684044D01*
X118373389Y-98546881D01*
X118289744Y-98390390D01*
X118289743Y-98390389D01*
X118238234Y-98220588D01*
X118238234Y-98220587D01*
X118238233Y-98220584D01*
X118220841Y-98044000D01*
X118238233Y-97867416D01*
X118238234Y-97867412D01*
X118289743Y-97697611D01*
X118315117Y-97650139D01*
X118373389Y-97541119D01*
X118485956Y-97403956D01*
X118623119Y-97291389D01*
X118732139Y-97233117D01*
X118779611Y-97207743D01*
X118949412Y-97156234D01*
X118949413Y-97156234D01*
X118949416Y-97156233D01*
X119081745Y-97143200D01*
X119170255Y-97143200D01*
X119302584Y-97156233D01*
X119302584Y-97156233D01*
G37*
G36*
X116762584Y-97156233D02*
G01*
X116762587Y-97156234D01*
X116762588Y-97156234D01*
X116932389Y-97207743D01*
X116979861Y-97233117D01*
X117088881Y-97291389D01*
X117226044Y-97403956D01*
X117338611Y-97541119D01*
X117396883Y-97650139D01*
X117422257Y-97697611D01*
X117473766Y-97867412D01*
X117473767Y-97867416D01*
X117491159Y-98044000D01*
X117473767Y-98220584D01*
X117473766Y-98220587D01*
X117473766Y-98220588D01*
X117422257Y-98390389D01*
X117422256Y-98390390D01*
X117338611Y-98546881D01*
X117226044Y-98684044D01*
X117088881Y-98796611D01*
X116979861Y-98854883D01*
X116932389Y-98880257D01*
X116762588Y-98931766D01*
X116762587Y-98931766D01*
X116762584Y-98931767D01*
X116630255Y-98944800D01*
X116541745Y-98944800D01*
X116409416Y-98931767D01*
X116409413Y-98931766D01*
X116409412Y-98931766D01*
X116239611Y-98880257D01*
X116192139Y-98854883D01*
X116083119Y-98796611D01*
X115945956Y-98684044D01*
X115833389Y-98546881D01*
X115749744Y-98390390D01*
X115749743Y-98390389D01*
X115698234Y-98220588D01*
X115698234Y-98220587D01*
X115698233Y-98220584D01*
X115680841Y-98044000D01*
X115698233Y-97867416D01*
X115698234Y-97867412D01*
X115749743Y-97697611D01*
X115775117Y-97650139D01*
X115833389Y-97541119D01*
X115945956Y-97403956D01*
X116083119Y-97291389D01*
X116192139Y-97233117D01*
X116239611Y-97207743D01*
X116409412Y-97156234D01*
X116409413Y-97156234D01*
X116409416Y-97156233D01*
X116541745Y-97143200D01*
X116630255Y-97143200D01*
X116762584Y-97156233D01*
X116762584Y-97156233D01*
G37*
G36*
X114946800Y-98944800D02*
G01*
X113145200Y-98944800D01*
X113145200Y-97143200D01*
X114946800Y-97143200D01*
X114946800Y-98944800D01*
X114946800Y-98944800D01*
G37*
M02*
