M48
; DRILL file {KiCad (5.1.0-1387-g9cf427c7d)} date Tuesday, July 30, 2019 at 01:41:01 PM
; FORMAT={3:3/ absolute / metric / suppress leading zeros}
; #@! TF.CreationDate,2019-07-30T13:41:01-07:00
; #@! TF.GenerationSoftware,Kicad,Pcbnew,(5.1.0-1387-g9cf427c7d)
FMAT,2
METRIC,TZ
T1C0.229
T2C0.600
T3C0.650
T4C0.850
T5C1.000
%
G90
G05
T1
X112776Y-117094
X113030Y-99822
X113284Y-100838
X113792Y-106426
X114046Y-111252
X114046Y-118618
X114300Y-102870
X114554Y-113538
X115062Y-103632
X115570Y-111252
X115606Y-107414
X116586Y-119126
X116840Y-111252
X117094Y-104394
X117124Y-99717
X117302Y-102154
X117602Y-103378
X118364Y-111506
X118872Y-115316
X119126Y-103124
X119126Y-119634
X119309Y-99949
X119380Y-117856
X119888Y-111252
X120142Y-100127
X120885Y-104103
X121158Y-104648
X121412Y-106426
X121412Y-111252
X121666Y-100889
X121691Y-118268
X121920Y-116586
X122428Y-108458
X122682Y-101092
X122987Y-102413
X123190Y-109271
X123190Y-115824
X123506Y-111546
X123506Y-113948
X124206Y-117602
X124714Y-116586
X124848Y-104597
X124917Y-113538
X125524Y-113481
X125730Y-107950
X125834Y-107008
X125984Y-100330
X125984Y-110998
X125984Y-117094
X125999Y-102870
X126238Y-105410
X126492Y-113792
X126566Y-101211
X126746Y-107696
X126746Y-117094
X126927Y-99088
X127254Y-101092
X127254Y-113030
X127762Y-107188
X127762Y-116332
X127990Y-113003
X128016Y-110490
X128353Y-104731
X128524Y-101346
X128524Y-107188
X128524Y-113792
X128556Y-102140
X128778Y-102870
X128778Y-111760
X128839Y-116936
X129032Y-100889
X129286Y-108712
X129286Y-110490
X129794Y-112471
X129794Y-117348
X129794Y-118618
X129923Y-100584
X130048Y-106426
X130302Y-114808
X130302Y-119126
X131064Y-116586
X131064Y-119634
X131318Y-99314
X131826Y-119634
X132309Y-107188
X132334Y-101854
X132334Y-108712
X132334Y-109474
X132334Y-110998
X132823Y-100279
X132842Y-118872
X133604Y-100838
X133604Y-107442
X133604Y-113792
X133719Y-118225
X134366Y-109220
X134366Y-112014
X134366Y-117602
X134366Y-119329
X135382Y-114046
X135630Y-109988
X135890Y-113284
X136144Y-105156
X136144Y-117094
X136906Y-101600
X136906Y-116586
X136906Y-118415
X137414Y-112014
X137668Y-100330
X137668Y-117856
X138176Y-106934
X138430Y-104902
X138430Y-119634
X139192Y-102616
X139192Y-113792
X139192Y-116586
X139192Y-118110
X139446Y-101600
X139700Y-111252
X139954Y-119329
X140208Y-105156
X140895Y-118567
X140970Y-102108
X141478Y-109220
X141529Y-101041
X141986Y-100330
X141986Y-115570
X142240Y-101600
X143256Y-100584
X143764Y-109474
X143764Y-110998
X143764Y-117094
X143833Y-100279
X144729Y-102565
X144780Y-103378
X144780Y-113030
X144780Y-115316
X145012Y-106164
X145124Y-99120
X145542Y-118110
X146050Y-110998
X146304Y-116078
X146558Y-112776
X147066Y-102108
X148336Y-101346
X148844Y-101854
X152146Y-108204
X152146Y-100889
X153416Y-117094
X154178Y-100838
X154472Y-103189
X154686Y-110744
X154686Y-118110
X154940Y-100803
X155448Y-114300
X155448Y-116332
X155956Y-108966
X156671Y-100930
X157226Y-102616
X157226Y-113538
X157226Y-118618
X158242Y-103124
X159258Y-102870
X159766Y-99568
T3
X117602Y-115824
X117602Y-117094
X120904Y-115824
X120904Y-117094
X114352Y-115824
X114352Y-117094
T4
X157415Y-106969
X157415Y-111969
T5
X148336Y-104399
X148336Y-106939
X148336Y-109479
X148336Y-112019
X148336Y-114559
X150876Y-104399
X150876Y-106939
X150876Y-109479
X150876Y-112019
X150876Y-114559
X114046Y-120904
X116586Y-120904
X119126Y-120904
X121666Y-120904
X124206Y-120904
X126746Y-120904
X129286Y-120904
X131826Y-120904
X134366Y-120904
X136906Y-120904
X139446Y-120904
X141986Y-120904
X144526Y-120904
X147066Y-120904
X149606Y-120904
X152146Y-120904
X154686Y-120904
X157226Y-120904
X159766Y-120904
X114046Y-98044
X116586Y-98044
X119126Y-98044
X121666Y-98044
X124206Y-98044
X126746Y-98044
X129286Y-98044
X131826Y-98044
X134366Y-98044
X136906Y-98044
X139446Y-98044
X141986Y-98044
X144526Y-98044
X147066Y-98044
X149606Y-98044
X152146Y-98044
X154686Y-98044
X157226Y-98044
X159766Y-98044
T2
G00X159765Y-105969
M15
G01X160465Y-105969
M16
G05
G00X160465Y-112969
M15
G01X159765Y-112969
M16
G05
T0
M30
