G04 #@! TF.GenerationSoftware,KiCad,Pcbnew,(5.1.4-0-10_14)*
G04 #@! TF.CreationDate,2019-08-31T02:18:22-07:00*
G04 #@! TF.ProjectId,max_breakout,6d61785f-6272-4656-916b-6f75742e6b69,2.0*
G04 #@! TF.SameCoordinates,Original*
G04 #@! TF.FileFunction,Soldermask,Top*
G04 #@! TF.FilePolarity,Negative*
%FSLAX46Y46*%
G04 Gerber Fmt 4.6, Leading zero omitted, Abs format (unit mm)*
G04 Created by KiCad (PCBNEW (5.1.4-0-10_14)) date 2019-08-31 02:18:22*
%MOMM*%
%LPD*%
G04 APERTURE LIST*
%ADD10C,0.100000*%
G04 APERTURE END LIST*
D10*
G36*
X162482584Y-120016233D02*
G01*
X162482587Y-120016234D01*
X162482588Y-120016234D01*
X162652389Y-120067743D01*
X162699861Y-120093117D01*
X162808881Y-120151389D01*
X162946044Y-120263956D01*
X163058611Y-120401119D01*
X163116883Y-120510139D01*
X163142257Y-120557611D01*
X163193766Y-120727412D01*
X163193767Y-120727416D01*
X163211159Y-120904000D01*
X163193767Y-121080584D01*
X163193766Y-121080587D01*
X163193766Y-121080588D01*
X163142257Y-121250389D01*
X163142256Y-121250390D01*
X163058611Y-121406881D01*
X162946044Y-121544044D01*
X162808881Y-121656611D01*
X162699861Y-121714883D01*
X162652389Y-121740257D01*
X162482588Y-121791766D01*
X162482587Y-121791766D01*
X162482584Y-121791767D01*
X162350255Y-121804800D01*
X162261745Y-121804800D01*
X162129416Y-121791767D01*
X162129413Y-121791766D01*
X162129412Y-121791766D01*
X161959611Y-121740257D01*
X161912139Y-121714883D01*
X161803119Y-121656611D01*
X161665956Y-121544044D01*
X161553389Y-121406881D01*
X161469744Y-121250390D01*
X161469743Y-121250389D01*
X161418234Y-121080588D01*
X161418234Y-121080587D01*
X161418233Y-121080584D01*
X161400841Y-120904000D01*
X161418233Y-120727416D01*
X161418234Y-120727412D01*
X161469743Y-120557611D01*
X161495117Y-120510139D01*
X161553389Y-120401119D01*
X161665956Y-120263956D01*
X161803119Y-120151389D01*
X161912139Y-120093117D01*
X161959611Y-120067743D01*
X162129412Y-120016234D01*
X162129413Y-120016234D01*
X162129416Y-120016233D01*
X162261745Y-120003200D01*
X162350255Y-120003200D01*
X162482584Y-120016233D01*
X162482584Y-120016233D01*
G37*
G36*
X159942584Y-120016233D02*
G01*
X159942587Y-120016234D01*
X159942588Y-120016234D01*
X160112389Y-120067743D01*
X160159861Y-120093117D01*
X160268881Y-120151389D01*
X160406044Y-120263956D01*
X160518611Y-120401119D01*
X160576883Y-120510139D01*
X160602257Y-120557611D01*
X160653766Y-120727412D01*
X160653767Y-120727416D01*
X160671159Y-120904000D01*
X160653767Y-121080584D01*
X160653766Y-121080587D01*
X160653766Y-121080588D01*
X160602257Y-121250389D01*
X160602256Y-121250390D01*
X160518611Y-121406881D01*
X160406044Y-121544044D01*
X160268881Y-121656611D01*
X160159861Y-121714883D01*
X160112389Y-121740257D01*
X159942588Y-121791766D01*
X159942587Y-121791766D01*
X159942584Y-121791767D01*
X159810255Y-121804800D01*
X159721745Y-121804800D01*
X159589416Y-121791767D01*
X159589413Y-121791766D01*
X159589412Y-121791766D01*
X159419611Y-121740257D01*
X159372139Y-121714883D01*
X159263119Y-121656611D01*
X159125956Y-121544044D01*
X159013389Y-121406881D01*
X158929744Y-121250390D01*
X158929743Y-121250389D01*
X158878234Y-121080588D01*
X158878234Y-121080587D01*
X158878233Y-121080584D01*
X158860841Y-120904000D01*
X158878233Y-120727416D01*
X158878234Y-120727412D01*
X158929743Y-120557611D01*
X158955117Y-120510139D01*
X159013389Y-120401119D01*
X159125956Y-120263956D01*
X159263119Y-120151389D01*
X159372139Y-120093117D01*
X159419611Y-120067743D01*
X159589412Y-120016234D01*
X159589413Y-120016234D01*
X159589416Y-120016233D01*
X159721745Y-120003200D01*
X159810255Y-120003200D01*
X159942584Y-120016233D01*
X159942584Y-120016233D01*
G37*
G36*
X157402584Y-120016233D02*
G01*
X157402587Y-120016234D01*
X157402588Y-120016234D01*
X157572389Y-120067743D01*
X157619861Y-120093117D01*
X157728881Y-120151389D01*
X157866044Y-120263956D01*
X157978611Y-120401119D01*
X158036883Y-120510139D01*
X158062257Y-120557611D01*
X158113766Y-120727412D01*
X158113767Y-120727416D01*
X158131159Y-120904000D01*
X158113767Y-121080584D01*
X158113766Y-121080587D01*
X158113766Y-121080588D01*
X158062257Y-121250389D01*
X158062256Y-121250390D01*
X157978611Y-121406881D01*
X157866044Y-121544044D01*
X157728881Y-121656611D01*
X157619861Y-121714883D01*
X157572389Y-121740257D01*
X157402588Y-121791766D01*
X157402587Y-121791766D01*
X157402584Y-121791767D01*
X157270255Y-121804800D01*
X157181745Y-121804800D01*
X157049416Y-121791767D01*
X157049413Y-121791766D01*
X157049412Y-121791766D01*
X156879611Y-121740257D01*
X156832139Y-121714883D01*
X156723119Y-121656611D01*
X156585956Y-121544044D01*
X156473389Y-121406881D01*
X156389744Y-121250390D01*
X156389743Y-121250389D01*
X156338234Y-121080588D01*
X156338234Y-121080587D01*
X156338233Y-121080584D01*
X156320841Y-120904000D01*
X156338233Y-120727416D01*
X156338234Y-120727412D01*
X156389743Y-120557611D01*
X156415117Y-120510139D01*
X156473389Y-120401119D01*
X156585956Y-120263956D01*
X156723119Y-120151389D01*
X156832139Y-120093117D01*
X156879611Y-120067743D01*
X157049412Y-120016234D01*
X157049413Y-120016234D01*
X157049416Y-120016233D01*
X157181745Y-120003200D01*
X157270255Y-120003200D01*
X157402584Y-120016233D01*
X157402584Y-120016233D01*
G37*
G36*
X154862584Y-120016233D02*
G01*
X154862587Y-120016234D01*
X154862588Y-120016234D01*
X155032389Y-120067743D01*
X155079861Y-120093117D01*
X155188881Y-120151389D01*
X155326044Y-120263956D01*
X155438611Y-120401119D01*
X155496883Y-120510139D01*
X155522257Y-120557611D01*
X155573766Y-120727412D01*
X155573767Y-120727416D01*
X155591159Y-120904000D01*
X155573767Y-121080584D01*
X155573766Y-121080587D01*
X155573766Y-121080588D01*
X155522257Y-121250389D01*
X155522256Y-121250390D01*
X155438611Y-121406881D01*
X155326044Y-121544044D01*
X155188881Y-121656611D01*
X155079861Y-121714883D01*
X155032389Y-121740257D01*
X154862588Y-121791766D01*
X154862587Y-121791766D01*
X154862584Y-121791767D01*
X154730255Y-121804800D01*
X154641745Y-121804800D01*
X154509416Y-121791767D01*
X154509413Y-121791766D01*
X154509412Y-121791766D01*
X154339611Y-121740257D01*
X154292139Y-121714883D01*
X154183119Y-121656611D01*
X154045956Y-121544044D01*
X153933389Y-121406881D01*
X153849744Y-121250390D01*
X153849743Y-121250389D01*
X153798234Y-121080588D01*
X153798234Y-121080587D01*
X153798233Y-121080584D01*
X153780841Y-120904000D01*
X153798233Y-120727416D01*
X153798234Y-120727412D01*
X153849743Y-120557611D01*
X153875117Y-120510139D01*
X153933389Y-120401119D01*
X154045956Y-120263956D01*
X154183119Y-120151389D01*
X154292139Y-120093117D01*
X154339611Y-120067743D01*
X154509412Y-120016234D01*
X154509413Y-120016234D01*
X154509416Y-120016233D01*
X154641745Y-120003200D01*
X154730255Y-120003200D01*
X154862584Y-120016233D01*
X154862584Y-120016233D01*
G37*
G36*
X152322584Y-120016233D02*
G01*
X152322587Y-120016234D01*
X152322588Y-120016234D01*
X152492389Y-120067743D01*
X152539861Y-120093117D01*
X152648881Y-120151389D01*
X152786044Y-120263956D01*
X152898611Y-120401119D01*
X152956883Y-120510139D01*
X152982257Y-120557611D01*
X153033766Y-120727412D01*
X153033767Y-120727416D01*
X153051159Y-120904000D01*
X153033767Y-121080584D01*
X153033766Y-121080587D01*
X153033766Y-121080588D01*
X152982257Y-121250389D01*
X152982256Y-121250390D01*
X152898611Y-121406881D01*
X152786044Y-121544044D01*
X152648881Y-121656611D01*
X152539861Y-121714883D01*
X152492389Y-121740257D01*
X152322588Y-121791766D01*
X152322587Y-121791766D01*
X152322584Y-121791767D01*
X152190255Y-121804800D01*
X152101745Y-121804800D01*
X151969416Y-121791767D01*
X151969413Y-121791766D01*
X151969412Y-121791766D01*
X151799611Y-121740257D01*
X151752139Y-121714883D01*
X151643119Y-121656611D01*
X151505956Y-121544044D01*
X151393389Y-121406881D01*
X151309744Y-121250390D01*
X151309743Y-121250389D01*
X151258234Y-121080588D01*
X151258234Y-121080587D01*
X151258233Y-121080584D01*
X151240841Y-120904000D01*
X151258233Y-120727416D01*
X151258234Y-120727412D01*
X151309743Y-120557611D01*
X151335117Y-120510139D01*
X151393389Y-120401119D01*
X151505956Y-120263956D01*
X151643119Y-120151389D01*
X151752139Y-120093117D01*
X151799611Y-120067743D01*
X151969412Y-120016234D01*
X151969413Y-120016234D01*
X151969416Y-120016233D01*
X152101745Y-120003200D01*
X152190255Y-120003200D01*
X152322584Y-120016233D01*
X152322584Y-120016233D01*
G37*
G36*
X149782584Y-120016233D02*
G01*
X149782587Y-120016234D01*
X149782588Y-120016234D01*
X149952389Y-120067743D01*
X149999861Y-120093117D01*
X150108881Y-120151389D01*
X150246044Y-120263956D01*
X150358611Y-120401119D01*
X150416883Y-120510139D01*
X150442257Y-120557611D01*
X150493766Y-120727412D01*
X150493767Y-120727416D01*
X150511159Y-120904000D01*
X150493767Y-121080584D01*
X150493766Y-121080587D01*
X150493766Y-121080588D01*
X150442257Y-121250389D01*
X150442256Y-121250390D01*
X150358611Y-121406881D01*
X150246044Y-121544044D01*
X150108881Y-121656611D01*
X149999861Y-121714883D01*
X149952389Y-121740257D01*
X149782588Y-121791766D01*
X149782587Y-121791766D01*
X149782584Y-121791767D01*
X149650255Y-121804800D01*
X149561745Y-121804800D01*
X149429416Y-121791767D01*
X149429413Y-121791766D01*
X149429412Y-121791766D01*
X149259611Y-121740257D01*
X149212139Y-121714883D01*
X149103119Y-121656611D01*
X148965956Y-121544044D01*
X148853389Y-121406881D01*
X148769744Y-121250390D01*
X148769743Y-121250389D01*
X148718234Y-121080588D01*
X148718234Y-121080587D01*
X148718233Y-121080584D01*
X148700841Y-120904000D01*
X148718233Y-120727416D01*
X148718234Y-120727412D01*
X148769743Y-120557611D01*
X148795117Y-120510139D01*
X148853389Y-120401119D01*
X148965956Y-120263956D01*
X149103119Y-120151389D01*
X149212139Y-120093117D01*
X149259611Y-120067743D01*
X149429412Y-120016234D01*
X149429413Y-120016234D01*
X149429416Y-120016233D01*
X149561745Y-120003200D01*
X149650255Y-120003200D01*
X149782584Y-120016233D01*
X149782584Y-120016233D01*
G37*
G36*
X147242584Y-120016233D02*
G01*
X147242587Y-120016234D01*
X147242588Y-120016234D01*
X147412389Y-120067743D01*
X147459861Y-120093117D01*
X147568881Y-120151389D01*
X147706044Y-120263956D01*
X147818611Y-120401119D01*
X147876883Y-120510139D01*
X147902257Y-120557611D01*
X147953766Y-120727412D01*
X147953767Y-120727416D01*
X147971159Y-120904000D01*
X147953767Y-121080584D01*
X147953766Y-121080587D01*
X147953766Y-121080588D01*
X147902257Y-121250389D01*
X147902256Y-121250390D01*
X147818611Y-121406881D01*
X147706044Y-121544044D01*
X147568881Y-121656611D01*
X147459861Y-121714883D01*
X147412389Y-121740257D01*
X147242588Y-121791766D01*
X147242587Y-121791766D01*
X147242584Y-121791767D01*
X147110255Y-121804800D01*
X147021745Y-121804800D01*
X146889416Y-121791767D01*
X146889413Y-121791766D01*
X146889412Y-121791766D01*
X146719611Y-121740257D01*
X146672139Y-121714883D01*
X146563119Y-121656611D01*
X146425956Y-121544044D01*
X146313389Y-121406881D01*
X146229744Y-121250390D01*
X146229743Y-121250389D01*
X146178234Y-121080588D01*
X146178234Y-121080587D01*
X146178233Y-121080584D01*
X146160841Y-120904000D01*
X146178233Y-120727416D01*
X146178234Y-120727412D01*
X146229743Y-120557611D01*
X146255117Y-120510139D01*
X146313389Y-120401119D01*
X146425956Y-120263956D01*
X146563119Y-120151389D01*
X146672139Y-120093117D01*
X146719611Y-120067743D01*
X146889412Y-120016234D01*
X146889413Y-120016234D01*
X146889416Y-120016233D01*
X147021745Y-120003200D01*
X147110255Y-120003200D01*
X147242584Y-120016233D01*
X147242584Y-120016233D01*
G37*
G36*
X144702584Y-120016233D02*
G01*
X144702587Y-120016234D01*
X144702588Y-120016234D01*
X144872389Y-120067743D01*
X144919861Y-120093117D01*
X145028881Y-120151389D01*
X145166044Y-120263956D01*
X145278611Y-120401119D01*
X145336883Y-120510139D01*
X145362257Y-120557611D01*
X145413766Y-120727412D01*
X145413767Y-120727416D01*
X145431159Y-120904000D01*
X145413767Y-121080584D01*
X145413766Y-121080587D01*
X145413766Y-121080588D01*
X145362257Y-121250389D01*
X145362256Y-121250390D01*
X145278611Y-121406881D01*
X145166044Y-121544044D01*
X145028881Y-121656611D01*
X144919861Y-121714883D01*
X144872389Y-121740257D01*
X144702588Y-121791766D01*
X144702587Y-121791766D01*
X144702584Y-121791767D01*
X144570255Y-121804800D01*
X144481745Y-121804800D01*
X144349416Y-121791767D01*
X144349413Y-121791766D01*
X144349412Y-121791766D01*
X144179611Y-121740257D01*
X144132139Y-121714883D01*
X144023119Y-121656611D01*
X143885956Y-121544044D01*
X143773389Y-121406881D01*
X143689744Y-121250390D01*
X143689743Y-121250389D01*
X143638234Y-121080588D01*
X143638234Y-121080587D01*
X143638233Y-121080584D01*
X143620841Y-120904000D01*
X143638233Y-120727416D01*
X143638234Y-120727412D01*
X143689743Y-120557611D01*
X143715117Y-120510139D01*
X143773389Y-120401119D01*
X143885956Y-120263956D01*
X144023119Y-120151389D01*
X144132139Y-120093117D01*
X144179611Y-120067743D01*
X144349412Y-120016234D01*
X144349413Y-120016234D01*
X144349416Y-120016233D01*
X144481745Y-120003200D01*
X144570255Y-120003200D01*
X144702584Y-120016233D01*
X144702584Y-120016233D01*
G37*
G36*
X142162584Y-120016233D02*
G01*
X142162587Y-120016234D01*
X142162588Y-120016234D01*
X142332389Y-120067743D01*
X142379861Y-120093117D01*
X142488881Y-120151389D01*
X142626044Y-120263956D01*
X142738611Y-120401119D01*
X142796883Y-120510139D01*
X142822257Y-120557611D01*
X142873766Y-120727412D01*
X142873767Y-120727416D01*
X142891159Y-120904000D01*
X142873767Y-121080584D01*
X142873766Y-121080587D01*
X142873766Y-121080588D01*
X142822257Y-121250389D01*
X142822256Y-121250390D01*
X142738611Y-121406881D01*
X142626044Y-121544044D01*
X142488881Y-121656611D01*
X142379861Y-121714883D01*
X142332389Y-121740257D01*
X142162588Y-121791766D01*
X142162587Y-121791766D01*
X142162584Y-121791767D01*
X142030255Y-121804800D01*
X141941745Y-121804800D01*
X141809416Y-121791767D01*
X141809413Y-121791766D01*
X141809412Y-121791766D01*
X141639611Y-121740257D01*
X141592139Y-121714883D01*
X141483119Y-121656611D01*
X141345956Y-121544044D01*
X141233389Y-121406881D01*
X141149744Y-121250390D01*
X141149743Y-121250389D01*
X141098234Y-121080588D01*
X141098234Y-121080587D01*
X141098233Y-121080584D01*
X141080841Y-120904000D01*
X141098233Y-120727416D01*
X141098234Y-120727412D01*
X141149743Y-120557611D01*
X141175117Y-120510139D01*
X141233389Y-120401119D01*
X141345956Y-120263956D01*
X141483119Y-120151389D01*
X141592139Y-120093117D01*
X141639611Y-120067743D01*
X141809412Y-120016234D01*
X141809413Y-120016234D01*
X141809416Y-120016233D01*
X141941745Y-120003200D01*
X142030255Y-120003200D01*
X142162584Y-120016233D01*
X142162584Y-120016233D01*
G37*
G36*
X139622584Y-120016233D02*
G01*
X139622587Y-120016234D01*
X139622588Y-120016234D01*
X139792389Y-120067743D01*
X139839861Y-120093117D01*
X139948881Y-120151389D01*
X140086044Y-120263956D01*
X140198611Y-120401119D01*
X140256883Y-120510139D01*
X140282257Y-120557611D01*
X140333766Y-120727412D01*
X140333767Y-120727416D01*
X140351159Y-120904000D01*
X140333767Y-121080584D01*
X140333766Y-121080587D01*
X140333766Y-121080588D01*
X140282257Y-121250389D01*
X140282256Y-121250390D01*
X140198611Y-121406881D01*
X140086044Y-121544044D01*
X139948881Y-121656611D01*
X139839861Y-121714883D01*
X139792389Y-121740257D01*
X139622588Y-121791766D01*
X139622587Y-121791766D01*
X139622584Y-121791767D01*
X139490255Y-121804800D01*
X139401745Y-121804800D01*
X139269416Y-121791767D01*
X139269413Y-121791766D01*
X139269412Y-121791766D01*
X139099611Y-121740257D01*
X139052139Y-121714883D01*
X138943119Y-121656611D01*
X138805956Y-121544044D01*
X138693389Y-121406881D01*
X138609744Y-121250390D01*
X138609743Y-121250389D01*
X138558234Y-121080588D01*
X138558234Y-121080587D01*
X138558233Y-121080584D01*
X138540841Y-120904000D01*
X138558233Y-120727416D01*
X138558234Y-120727412D01*
X138609743Y-120557611D01*
X138635117Y-120510139D01*
X138693389Y-120401119D01*
X138805956Y-120263956D01*
X138943119Y-120151389D01*
X139052139Y-120093117D01*
X139099611Y-120067743D01*
X139269412Y-120016234D01*
X139269413Y-120016234D01*
X139269416Y-120016233D01*
X139401745Y-120003200D01*
X139490255Y-120003200D01*
X139622584Y-120016233D01*
X139622584Y-120016233D01*
G37*
G36*
X137082584Y-120016233D02*
G01*
X137082587Y-120016234D01*
X137082588Y-120016234D01*
X137252389Y-120067743D01*
X137299861Y-120093117D01*
X137408881Y-120151389D01*
X137546044Y-120263956D01*
X137658611Y-120401119D01*
X137716883Y-120510139D01*
X137742257Y-120557611D01*
X137793766Y-120727412D01*
X137793767Y-120727416D01*
X137811159Y-120904000D01*
X137793767Y-121080584D01*
X137793766Y-121080587D01*
X137793766Y-121080588D01*
X137742257Y-121250389D01*
X137742256Y-121250390D01*
X137658611Y-121406881D01*
X137546044Y-121544044D01*
X137408881Y-121656611D01*
X137299861Y-121714883D01*
X137252389Y-121740257D01*
X137082588Y-121791766D01*
X137082587Y-121791766D01*
X137082584Y-121791767D01*
X136950255Y-121804800D01*
X136861745Y-121804800D01*
X136729416Y-121791767D01*
X136729413Y-121791766D01*
X136729412Y-121791766D01*
X136559611Y-121740257D01*
X136512139Y-121714883D01*
X136403119Y-121656611D01*
X136265956Y-121544044D01*
X136153389Y-121406881D01*
X136069744Y-121250390D01*
X136069743Y-121250389D01*
X136018234Y-121080588D01*
X136018234Y-121080587D01*
X136018233Y-121080584D01*
X136000841Y-120904000D01*
X136018233Y-120727416D01*
X136018234Y-120727412D01*
X136069743Y-120557611D01*
X136095117Y-120510139D01*
X136153389Y-120401119D01*
X136265956Y-120263956D01*
X136403119Y-120151389D01*
X136512139Y-120093117D01*
X136559611Y-120067743D01*
X136729412Y-120016234D01*
X136729413Y-120016234D01*
X136729416Y-120016233D01*
X136861745Y-120003200D01*
X136950255Y-120003200D01*
X137082584Y-120016233D01*
X137082584Y-120016233D01*
G37*
G36*
X134542584Y-120016233D02*
G01*
X134542587Y-120016234D01*
X134542588Y-120016234D01*
X134712389Y-120067743D01*
X134759861Y-120093117D01*
X134868881Y-120151389D01*
X135006044Y-120263956D01*
X135118611Y-120401119D01*
X135176883Y-120510139D01*
X135202257Y-120557611D01*
X135253766Y-120727412D01*
X135253767Y-120727416D01*
X135271159Y-120904000D01*
X135253767Y-121080584D01*
X135253766Y-121080587D01*
X135253766Y-121080588D01*
X135202257Y-121250389D01*
X135202256Y-121250390D01*
X135118611Y-121406881D01*
X135006044Y-121544044D01*
X134868881Y-121656611D01*
X134759861Y-121714883D01*
X134712389Y-121740257D01*
X134542588Y-121791766D01*
X134542587Y-121791766D01*
X134542584Y-121791767D01*
X134410255Y-121804800D01*
X134321745Y-121804800D01*
X134189416Y-121791767D01*
X134189413Y-121791766D01*
X134189412Y-121791766D01*
X134019611Y-121740257D01*
X133972139Y-121714883D01*
X133863119Y-121656611D01*
X133725956Y-121544044D01*
X133613389Y-121406881D01*
X133529744Y-121250390D01*
X133529743Y-121250389D01*
X133478234Y-121080588D01*
X133478234Y-121080587D01*
X133478233Y-121080584D01*
X133460841Y-120904000D01*
X133478233Y-120727416D01*
X133478234Y-120727412D01*
X133529743Y-120557611D01*
X133555117Y-120510139D01*
X133613389Y-120401119D01*
X133725956Y-120263956D01*
X133863119Y-120151389D01*
X133972139Y-120093117D01*
X134019611Y-120067743D01*
X134189412Y-120016234D01*
X134189413Y-120016234D01*
X134189416Y-120016233D01*
X134321745Y-120003200D01*
X134410255Y-120003200D01*
X134542584Y-120016233D01*
X134542584Y-120016233D01*
G37*
G36*
X132002584Y-120016233D02*
G01*
X132002587Y-120016234D01*
X132002588Y-120016234D01*
X132172389Y-120067743D01*
X132219861Y-120093117D01*
X132328881Y-120151389D01*
X132466044Y-120263956D01*
X132578611Y-120401119D01*
X132636883Y-120510139D01*
X132662257Y-120557611D01*
X132713766Y-120727412D01*
X132713767Y-120727416D01*
X132731159Y-120904000D01*
X132713767Y-121080584D01*
X132713766Y-121080587D01*
X132713766Y-121080588D01*
X132662257Y-121250389D01*
X132662256Y-121250390D01*
X132578611Y-121406881D01*
X132466044Y-121544044D01*
X132328881Y-121656611D01*
X132219861Y-121714883D01*
X132172389Y-121740257D01*
X132002588Y-121791766D01*
X132002587Y-121791766D01*
X132002584Y-121791767D01*
X131870255Y-121804800D01*
X131781745Y-121804800D01*
X131649416Y-121791767D01*
X131649413Y-121791766D01*
X131649412Y-121791766D01*
X131479611Y-121740257D01*
X131432139Y-121714883D01*
X131323119Y-121656611D01*
X131185956Y-121544044D01*
X131073389Y-121406881D01*
X130989744Y-121250390D01*
X130989743Y-121250389D01*
X130938234Y-121080588D01*
X130938234Y-121080587D01*
X130938233Y-121080584D01*
X130920841Y-120904000D01*
X130938233Y-120727416D01*
X130938234Y-120727412D01*
X130989743Y-120557611D01*
X131015117Y-120510139D01*
X131073389Y-120401119D01*
X131185956Y-120263956D01*
X131323119Y-120151389D01*
X131432139Y-120093117D01*
X131479611Y-120067743D01*
X131649412Y-120016234D01*
X131649413Y-120016234D01*
X131649416Y-120016233D01*
X131781745Y-120003200D01*
X131870255Y-120003200D01*
X132002584Y-120016233D01*
X132002584Y-120016233D01*
G37*
G36*
X129462584Y-120016233D02*
G01*
X129462587Y-120016234D01*
X129462588Y-120016234D01*
X129632389Y-120067743D01*
X129679861Y-120093117D01*
X129788881Y-120151389D01*
X129926044Y-120263956D01*
X130038611Y-120401119D01*
X130096883Y-120510139D01*
X130122257Y-120557611D01*
X130173766Y-120727412D01*
X130173767Y-120727416D01*
X130191159Y-120904000D01*
X130173767Y-121080584D01*
X130173766Y-121080587D01*
X130173766Y-121080588D01*
X130122257Y-121250389D01*
X130122256Y-121250390D01*
X130038611Y-121406881D01*
X129926044Y-121544044D01*
X129788881Y-121656611D01*
X129679861Y-121714883D01*
X129632389Y-121740257D01*
X129462588Y-121791766D01*
X129462587Y-121791766D01*
X129462584Y-121791767D01*
X129330255Y-121804800D01*
X129241745Y-121804800D01*
X129109416Y-121791767D01*
X129109413Y-121791766D01*
X129109412Y-121791766D01*
X128939611Y-121740257D01*
X128892139Y-121714883D01*
X128783119Y-121656611D01*
X128645956Y-121544044D01*
X128533389Y-121406881D01*
X128449744Y-121250390D01*
X128449743Y-121250389D01*
X128398234Y-121080588D01*
X128398234Y-121080587D01*
X128398233Y-121080584D01*
X128380841Y-120904000D01*
X128398233Y-120727416D01*
X128398234Y-120727412D01*
X128449743Y-120557611D01*
X128475117Y-120510139D01*
X128533389Y-120401119D01*
X128645956Y-120263956D01*
X128783119Y-120151389D01*
X128892139Y-120093117D01*
X128939611Y-120067743D01*
X129109412Y-120016234D01*
X129109413Y-120016234D01*
X129109416Y-120016233D01*
X129241745Y-120003200D01*
X129330255Y-120003200D01*
X129462584Y-120016233D01*
X129462584Y-120016233D01*
G37*
G36*
X126922584Y-120016233D02*
G01*
X126922587Y-120016234D01*
X126922588Y-120016234D01*
X127092389Y-120067743D01*
X127139861Y-120093117D01*
X127248881Y-120151389D01*
X127386044Y-120263956D01*
X127498611Y-120401119D01*
X127556883Y-120510139D01*
X127582257Y-120557611D01*
X127633766Y-120727412D01*
X127633767Y-120727416D01*
X127651159Y-120904000D01*
X127633767Y-121080584D01*
X127633766Y-121080587D01*
X127633766Y-121080588D01*
X127582257Y-121250389D01*
X127582256Y-121250390D01*
X127498611Y-121406881D01*
X127386044Y-121544044D01*
X127248881Y-121656611D01*
X127139861Y-121714883D01*
X127092389Y-121740257D01*
X126922588Y-121791766D01*
X126922587Y-121791766D01*
X126922584Y-121791767D01*
X126790255Y-121804800D01*
X126701745Y-121804800D01*
X126569416Y-121791767D01*
X126569413Y-121791766D01*
X126569412Y-121791766D01*
X126399611Y-121740257D01*
X126352139Y-121714883D01*
X126243119Y-121656611D01*
X126105956Y-121544044D01*
X125993389Y-121406881D01*
X125909744Y-121250390D01*
X125909743Y-121250389D01*
X125858234Y-121080588D01*
X125858234Y-121080587D01*
X125858233Y-121080584D01*
X125840841Y-120904000D01*
X125858233Y-120727416D01*
X125858234Y-120727412D01*
X125909743Y-120557611D01*
X125935117Y-120510139D01*
X125993389Y-120401119D01*
X126105956Y-120263956D01*
X126243119Y-120151389D01*
X126352139Y-120093117D01*
X126399611Y-120067743D01*
X126569412Y-120016234D01*
X126569413Y-120016234D01*
X126569416Y-120016233D01*
X126701745Y-120003200D01*
X126790255Y-120003200D01*
X126922584Y-120016233D01*
X126922584Y-120016233D01*
G37*
G36*
X124382584Y-120016233D02*
G01*
X124382587Y-120016234D01*
X124382588Y-120016234D01*
X124552389Y-120067743D01*
X124599861Y-120093117D01*
X124708881Y-120151389D01*
X124846044Y-120263956D01*
X124958611Y-120401119D01*
X125016883Y-120510139D01*
X125042257Y-120557611D01*
X125093766Y-120727412D01*
X125093767Y-120727416D01*
X125111159Y-120904000D01*
X125093767Y-121080584D01*
X125093766Y-121080587D01*
X125093766Y-121080588D01*
X125042257Y-121250389D01*
X125042256Y-121250390D01*
X124958611Y-121406881D01*
X124846044Y-121544044D01*
X124708881Y-121656611D01*
X124599861Y-121714883D01*
X124552389Y-121740257D01*
X124382588Y-121791766D01*
X124382587Y-121791766D01*
X124382584Y-121791767D01*
X124250255Y-121804800D01*
X124161745Y-121804800D01*
X124029416Y-121791767D01*
X124029413Y-121791766D01*
X124029412Y-121791766D01*
X123859611Y-121740257D01*
X123812139Y-121714883D01*
X123703119Y-121656611D01*
X123565956Y-121544044D01*
X123453389Y-121406881D01*
X123369744Y-121250390D01*
X123369743Y-121250389D01*
X123318234Y-121080588D01*
X123318234Y-121080587D01*
X123318233Y-121080584D01*
X123300841Y-120904000D01*
X123318233Y-120727416D01*
X123318234Y-120727412D01*
X123369743Y-120557611D01*
X123395117Y-120510139D01*
X123453389Y-120401119D01*
X123565956Y-120263956D01*
X123703119Y-120151389D01*
X123812139Y-120093117D01*
X123859611Y-120067743D01*
X124029412Y-120016234D01*
X124029413Y-120016234D01*
X124029416Y-120016233D01*
X124161745Y-120003200D01*
X124250255Y-120003200D01*
X124382584Y-120016233D01*
X124382584Y-120016233D01*
G37*
G36*
X121842584Y-120016233D02*
G01*
X121842587Y-120016234D01*
X121842588Y-120016234D01*
X122012389Y-120067743D01*
X122059861Y-120093117D01*
X122168881Y-120151389D01*
X122306044Y-120263956D01*
X122418611Y-120401119D01*
X122476883Y-120510139D01*
X122502257Y-120557611D01*
X122553766Y-120727412D01*
X122553767Y-120727416D01*
X122571159Y-120904000D01*
X122553767Y-121080584D01*
X122553766Y-121080587D01*
X122553766Y-121080588D01*
X122502257Y-121250389D01*
X122502256Y-121250390D01*
X122418611Y-121406881D01*
X122306044Y-121544044D01*
X122168881Y-121656611D01*
X122059861Y-121714883D01*
X122012389Y-121740257D01*
X121842588Y-121791766D01*
X121842587Y-121791766D01*
X121842584Y-121791767D01*
X121710255Y-121804800D01*
X121621745Y-121804800D01*
X121489416Y-121791767D01*
X121489413Y-121791766D01*
X121489412Y-121791766D01*
X121319611Y-121740257D01*
X121272139Y-121714883D01*
X121163119Y-121656611D01*
X121025956Y-121544044D01*
X120913389Y-121406881D01*
X120829744Y-121250390D01*
X120829743Y-121250389D01*
X120778234Y-121080588D01*
X120778234Y-121080587D01*
X120778233Y-121080584D01*
X120760841Y-120904000D01*
X120778233Y-120727416D01*
X120778234Y-120727412D01*
X120829743Y-120557611D01*
X120855117Y-120510139D01*
X120913389Y-120401119D01*
X121025956Y-120263956D01*
X121163119Y-120151389D01*
X121272139Y-120093117D01*
X121319611Y-120067743D01*
X121489412Y-120016234D01*
X121489413Y-120016234D01*
X121489416Y-120016233D01*
X121621745Y-120003200D01*
X121710255Y-120003200D01*
X121842584Y-120016233D01*
X121842584Y-120016233D01*
G37*
G36*
X119302584Y-120016233D02*
G01*
X119302587Y-120016234D01*
X119302588Y-120016234D01*
X119472389Y-120067743D01*
X119519861Y-120093117D01*
X119628881Y-120151389D01*
X119766044Y-120263956D01*
X119878611Y-120401119D01*
X119936883Y-120510139D01*
X119962257Y-120557611D01*
X120013766Y-120727412D01*
X120013767Y-120727416D01*
X120031159Y-120904000D01*
X120013767Y-121080584D01*
X120013766Y-121080587D01*
X120013766Y-121080588D01*
X119962257Y-121250389D01*
X119962256Y-121250390D01*
X119878611Y-121406881D01*
X119766044Y-121544044D01*
X119628881Y-121656611D01*
X119519861Y-121714883D01*
X119472389Y-121740257D01*
X119302588Y-121791766D01*
X119302587Y-121791766D01*
X119302584Y-121791767D01*
X119170255Y-121804800D01*
X119081745Y-121804800D01*
X118949416Y-121791767D01*
X118949413Y-121791766D01*
X118949412Y-121791766D01*
X118779611Y-121740257D01*
X118732139Y-121714883D01*
X118623119Y-121656611D01*
X118485956Y-121544044D01*
X118373389Y-121406881D01*
X118289744Y-121250390D01*
X118289743Y-121250389D01*
X118238234Y-121080588D01*
X118238234Y-121080587D01*
X118238233Y-121080584D01*
X118220841Y-120904000D01*
X118238233Y-120727416D01*
X118238234Y-120727412D01*
X118289743Y-120557611D01*
X118315117Y-120510139D01*
X118373389Y-120401119D01*
X118485956Y-120263956D01*
X118623119Y-120151389D01*
X118732139Y-120093117D01*
X118779611Y-120067743D01*
X118949412Y-120016234D01*
X118949413Y-120016234D01*
X118949416Y-120016233D01*
X119081745Y-120003200D01*
X119170255Y-120003200D01*
X119302584Y-120016233D01*
X119302584Y-120016233D01*
G37*
G36*
X116762584Y-120016233D02*
G01*
X116762587Y-120016234D01*
X116762588Y-120016234D01*
X116932389Y-120067743D01*
X116979861Y-120093117D01*
X117088881Y-120151389D01*
X117226044Y-120263956D01*
X117338611Y-120401119D01*
X117396883Y-120510139D01*
X117422257Y-120557611D01*
X117473766Y-120727412D01*
X117473767Y-120727416D01*
X117491159Y-120904000D01*
X117473767Y-121080584D01*
X117473766Y-121080587D01*
X117473766Y-121080588D01*
X117422257Y-121250389D01*
X117422256Y-121250390D01*
X117338611Y-121406881D01*
X117226044Y-121544044D01*
X117088881Y-121656611D01*
X116979861Y-121714883D01*
X116932389Y-121740257D01*
X116762588Y-121791766D01*
X116762587Y-121791766D01*
X116762584Y-121791767D01*
X116630255Y-121804800D01*
X116541745Y-121804800D01*
X116409416Y-121791767D01*
X116409413Y-121791766D01*
X116409412Y-121791766D01*
X116239611Y-121740257D01*
X116192139Y-121714883D01*
X116083119Y-121656611D01*
X115945956Y-121544044D01*
X115833389Y-121406881D01*
X115749744Y-121250390D01*
X115749743Y-121250389D01*
X115698234Y-121080588D01*
X115698234Y-121080587D01*
X115698233Y-121080584D01*
X115680841Y-120904000D01*
X115698233Y-120727416D01*
X115698234Y-120727412D01*
X115749743Y-120557611D01*
X115775117Y-120510139D01*
X115833389Y-120401119D01*
X115945956Y-120263956D01*
X116083119Y-120151389D01*
X116192139Y-120093117D01*
X116239611Y-120067743D01*
X116409412Y-120016234D01*
X116409413Y-120016234D01*
X116409416Y-120016233D01*
X116541745Y-120003200D01*
X116630255Y-120003200D01*
X116762584Y-120016233D01*
X116762584Y-120016233D01*
G37*
G36*
X114946800Y-121804800D02*
G01*
X113145200Y-121804800D01*
X113145200Y-120003200D01*
X114946800Y-120003200D01*
X114946800Y-121804800D01*
X114946800Y-121804800D01*
G37*
G36*
X138066584Y-116827004D02*
G01*
X138111091Y-116840505D01*
X138152112Y-116862431D01*
X138188064Y-116891936D01*
X138217569Y-116927888D01*
X138239495Y-116968909D01*
X138252996Y-117013416D01*
X138257800Y-117062193D01*
X138257800Y-117633807D01*
X138252996Y-117682584D01*
X138239495Y-117727091D01*
X138217569Y-117768112D01*
X138188064Y-117804064D01*
X138152112Y-117833569D01*
X138111091Y-117855495D01*
X138066584Y-117868996D01*
X138017807Y-117873800D01*
X137346193Y-117873800D01*
X137297416Y-117868996D01*
X137252909Y-117855495D01*
X137211888Y-117833569D01*
X137175936Y-117804064D01*
X137146431Y-117768112D01*
X137124505Y-117727091D01*
X137111004Y-117682584D01*
X137106200Y-117633807D01*
X137106200Y-117062193D01*
X137111004Y-117013416D01*
X137124505Y-116968909D01*
X137146431Y-116927888D01*
X137175936Y-116891936D01*
X137211888Y-116862431D01*
X137252909Y-116840505D01*
X137297416Y-116827004D01*
X137346193Y-116822200D01*
X138017807Y-116822200D01*
X138066584Y-116827004D01*
X138066584Y-116827004D01*
G37*
G36*
X139816584Y-116827004D02*
G01*
X139861091Y-116840505D01*
X139902112Y-116862431D01*
X139938064Y-116891936D01*
X139967569Y-116927888D01*
X139989495Y-116968909D01*
X140002996Y-117013416D01*
X140007800Y-117062193D01*
X140007800Y-117633807D01*
X140002996Y-117682584D01*
X139989495Y-117727091D01*
X139967569Y-117768112D01*
X139938064Y-117804064D01*
X139902112Y-117833569D01*
X139861091Y-117855495D01*
X139816584Y-117868996D01*
X139767807Y-117873800D01*
X139096193Y-117873800D01*
X139047416Y-117868996D01*
X139002909Y-117855495D01*
X138961888Y-117833569D01*
X138925936Y-117804064D01*
X138896431Y-117768112D01*
X138874505Y-117727091D01*
X138861004Y-117682584D01*
X138856200Y-117633807D01*
X138856200Y-117062193D01*
X138861004Y-117013416D01*
X138874505Y-116968909D01*
X138896431Y-116927888D01*
X138925936Y-116891936D01*
X138961888Y-116862431D01*
X139002909Y-116840505D01*
X139047416Y-116827004D01*
X139096193Y-116822200D01*
X139767807Y-116822200D01*
X139816584Y-116827004D01*
X139816584Y-116827004D01*
G37*
G36*
X146321584Y-116700004D02*
G01*
X146366091Y-116713505D01*
X146407112Y-116735431D01*
X146443064Y-116764936D01*
X146472569Y-116800888D01*
X146494495Y-116841909D01*
X146507996Y-116886416D01*
X146512800Y-116935193D01*
X146512800Y-117506807D01*
X146507996Y-117555584D01*
X146494495Y-117600091D01*
X146472569Y-117641112D01*
X146443064Y-117677064D01*
X146407112Y-117706569D01*
X146366091Y-117728495D01*
X146321584Y-117741996D01*
X146272807Y-117746800D01*
X145601193Y-117746800D01*
X145552416Y-117741996D01*
X145507909Y-117728495D01*
X145466888Y-117706569D01*
X145430936Y-117677064D01*
X145401431Y-117641112D01*
X145379505Y-117600091D01*
X145366004Y-117555584D01*
X145361200Y-117506807D01*
X145361200Y-116935193D01*
X145366004Y-116886416D01*
X145379505Y-116841909D01*
X145401431Y-116800888D01*
X145430936Y-116764936D01*
X145466888Y-116735431D01*
X145507909Y-116713505D01*
X145552416Y-116700004D01*
X145601193Y-116695200D01*
X146272807Y-116695200D01*
X146321584Y-116700004D01*
X146321584Y-116700004D01*
G37*
G36*
X148071584Y-116700004D02*
G01*
X148116091Y-116713505D01*
X148157112Y-116735431D01*
X148193064Y-116764936D01*
X148222569Y-116800888D01*
X148244495Y-116841909D01*
X148257996Y-116886416D01*
X148262800Y-116935193D01*
X148262800Y-117506807D01*
X148257996Y-117555584D01*
X148244495Y-117600091D01*
X148222569Y-117641112D01*
X148193064Y-117677064D01*
X148157112Y-117706569D01*
X148116091Y-117728495D01*
X148071584Y-117741996D01*
X148022807Y-117746800D01*
X147351193Y-117746800D01*
X147302416Y-117741996D01*
X147257909Y-117728495D01*
X147216888Y-117706569D01*
X147180936Y-117677064D01*
X147151431Y-117641112D01*
X147129505Y-117600091D01*
X147116004Y-117555584D01*
X147111200Y-117506807D01*
X147111200Y-116935193D01*
X147116004Y-116886416D01*
X147129505Y-116841909D01*
X147151431Y-116800888D01*
X147180936Y-116764936D01*
X147216888Y-116735431D01*
X147257909Y-116713505D01*
X147302416Y-116700004D01*
X147351193Y-116695200D01*
X148022807Y-116695200D01*
X148071584Y-116700004D01*
X148071584Y-116700004D01*
G37*
G36*
X160150584Y-116700004D02*
G01*
X160195091Y-116713505D01*
X160236112Y-116735431D01*
X160272064Y-116764936D01*
X160301569Y-116800888D01*
X160323495Y-116841909D01*
X160336996Y-116886416D01*
X160341800Y-116935193D01*
X160341800Y-117506807D01*
X160336996Y-117555584D01*
X160323495Y-117600091D01*
X160301569Y-117641112D01*
X160272064Y-117677064D01*
X160236112Y-117706569D01*
X160195091Y-117728495D01*
X160150584Y-117741996D01*
X160101807Y-117746800D01*
X159430193Y-117746800D01*
X159381416Y-117741996D01*
X159336909Y-117728495D01*
X159295888Y-117706569D01*
X159259936Y-117677064D01*
X159230431Y-117641112D01*
X159208505Y-117600091D01*
X159195004Y-117555584D01*
X159190200Y-117506807D01*
X159190200Y-116935193D01*
X159195004Y-116886416D01*
X159208505Y-116841909D01*
X159230431Y-116800888D01*
X159259936Y-116764936D01*
X159295888Y-116735431D01*
X159336909Y-116713505D01*
X159381416Y-116700004D01*
X159430193Y-116695200D01*
X160101807Y-116695200D01*
X160150584Y-116700004D01*
X160150584Y-116700004D01*
G37*
G36*
X161900584Y-116700004D02*
G01*
X161945091Y-116713505D01*
X161986112Y-116735431D01*
X162022064Y-116764936D01*
X162051569Y-116800888D01*
X162073495Y-116841909D01*
X162086996Y-116886416D01*
X162091800Y-116935193D01*
X162091800Y-117506807D01*
X162086996Y-117555584D01*
X162073495Y-117600091D01*
X162051569Y-117641112D01*
X162022064Y-117677064D01*
X161986112Y-117706569D01*
X161945091Y-117728495D01*
X161900584Y-117741996D01*
X161851807Y-117746800D01*
X161180193Y-117746800D01*
X161131416Y-117741996D01*
X161086909Y-117728495D01*
X161045888Y-117706569D01*
X161009936Y-117677064D01*
X160980431Y-117641112D01*
X160958505Y-117600091D01*
X160945004Y-117555584D01*
X160940200Y-117506807D01*
X160940200Y-116935193D01*
X160945004Y-116886416D01*
X160958505Y-116841909D01*
X160980431Y-116800888D01*
X161009936Y-116764936D01*
X161045888Y-116735431D01*
X161086909Y-116713505D01*
X161131416Y-116700004D01*
X161180193Y-116695200D01*
X161851807Y-116695200D01*
X161900584Y-116700004D01*
X161900584Y-116700004D01*
G37*
G36*
X119429800Y-117034800D02*
G01*
X118568200Y-117034800D01*
X118568200Y-115683200D01*
X119429800Y-115683200D01*
X119429800Y-117034800D01*
X119429800Y-117034800D01*
G37*
G36*
X118159800Y-117034800D02*
G01*
X117298200Y-117034800D01*
X117298200Y-115683200D01*
X118159800Y-115683200D01*
X118159800Y-117034800D01*
X118159800Y-117034800D01*
G37*
G36*
X116889800Y-117034800D02*
G01*
X116028200Y-117034800D01*
X116028200Y-115683200D01*
X116889800Y-115683200D01*
X116889800Y-117034800D01*
X116889800Y-117034800D01*
G37*
G36*
X115619800Y-117034800D02*
G01*
X114758200Y-117034800D01*
X114758200Y-115683200D01*
X115619800Y-115683200D01*
X115619800Y-117034800D01*
X115619800Y-117034800D01*
G37*
G36*
X127049800Y-117034800D02*
G01*
X126188200Y-117034800D01*
X126188200Y-115683200D01*
X127049800Y-115683200D01*
X127049800Y-117034800D01*
X127049800Y-117034800D01*
G37*
G36*
X125779800Y-117034800D02*
G01*
X124918200Y-117034800D01*
X124918200Y-115683200D01*
X125779800Y-115683200D01*
X125779800Y-117034800D01*
X125779800Y-117034800D01*
G37*
G36*
X124509800Y-117034800D02*
G01*
X123648200Y-117034800D01*
X123648200Y-115683200D01*
X124509800Y-115683200D01*
X124509800Y-117034800D01*
X124509800Y-117034800D01*
G37*
G36*
X123239800Y-117034800D02*
G01*
X122378200Y-117034800D01*
X122378200Y-115683200D01*
X123239800Y-115683200D01*
X123239800Y-117034800D01*
X123239800Y-117034800D01*
G37*
G36*
X136901800Y-115974800D02*
G01*
X136250200Y-115974800D01*
X136250200Y-114373200D01*
X136901800Y-114373200D01*
X136901800Y-115974800D01*
X136901800Y-115974800D01*
G37*
G36*
X140101800Y-115974800D02*
G01*
X139450200Y-115974800D01*
X139450200Y-114373200D01*
X140101800Y-114373200D01*
X140101800Y-115974800D01*
X140101800Y-115974800D01*
G37*
G36*
X142501800Y-115974800D02*
G01*
X141850200Y-115974800D01*
X141850200Y-114373200D01*
X142501800Y-114373200D01*
X142501800Y-115974800D01*
X142501800Y-115974800D01*
G37*
G36*
X141701800Y-115974800D02*
G01*
X141050200Y-115974800D01*
X141050200Y-114373200D01*
X141701800Y-114373200D01*
X141701800Y-115974800D01*
X141701800Y-115974800D01*
G37*
G36*
X140901800Y-115974800D02*
G01*
X140250200Y-115974800D01*
X140250200Y-114373200D01*
X140901800Y-114373200D01*
X140901800Y-115974800D01*
X140901800Y-115974800D01*
G37*
G36*
X139301800Y-115974800D02*
G01*
X138650200Y-115974800D01*
X138650200Y-114373200D01*
X139301800Y-114373200D01*
X139301800Y-115974800D01*
X139301800Y-115974800D01*
G37*
G36*
X136101800Y-115974800D02*
G01*
X135450200Y-115974800D01*
X135450200Y-114373200D01*
X136101800Y-114373200D01*
X136101800Y-115974800D01*
X136101800Y-115974800D01*
G37*
G36*
X135301800Y-115974800D02*
G01*
X134650200Y-115974800D01*
X134650200Y-114373200D01*
X135301800Y-114373200D01*
X135301800Y-115974800D01*
X135301800Y-115974800D01*
G37*
G36*
X138501800Y-115974800D02*
G01*
X137850200Y-115974800D01*
X137850200Y-114373200D01*
X138501800Y-114373200D01*
X138501800Y-115974800D01*
X138501800Y-115974800D01*
G37*
G36*
X134501800Y-115974800D02*
G01*
X133850200Y-115974800D01*
X133850200Y-114373200D01*
X134501800Y-114373200D01*
X134501800Y-115974800D01*
X134501800Y-115974800D01*
G37*
G36*
X137701800Y-115974800D02*
G01*
X137050200Y-115974800D01*
X137050200Y-114373200D01*
X137701800Y-114373200D01*
X137701800Y-115974800D01*
X137701800Y-115974800D01*
G37*
G36*
X149782584Y-113666233D02*
G01*
X149782587Y-113666234D01*
X149782588Y-113666234D01*
X149952389Y-113717743D01*
X149999861Y-113743117D01*
X150108881Y-113801389D01*
X150246044Y-113913956D01*
X150358611Y-114051119D01*
X150416883Y-114160139D01*
X150442257Y-114207611D01*
X150492488Y-114373200D01*
X150493767Y-114377416D01*
X150511159Y-114554000D01*
X150493767Y-114730584D01*
X150493766Y-114730587D01*
X150493766Y-114730588D01*
X150442257Y-114900389D01*
X150442256Y-114900390D01*
X150358611Y-115056881D01*
X150246044Y-115194044D01*
X150108881Y-115306611D01*
X149999861Y-115364883D01*
X149952389Y-115390257D01*
X149782588Y-115441766D01*
X149782587Y-115441766D01*
X149782584Y-115441767D01*
X149650255Y-115454800D01*
X149561745Y-115454800D01*
X149429416Y-115441767D01*
X149429413Y-115441766D01*
X149429412Y-115441766D01*
X149259611Y-115390257D01*
X149212139Y-115364883D01*
X149103119Y-115306611D01*
X148965956Y-115194044D01*
X148853389Y-115056881D01*
X148769744Y-114900390D01*
X148769743Y-114900389D01*
X148718234Y-114730588D01*
X148718234Y-114730587D01*
X148718233Y-114730584D01*
X148700841Y-114554000D01*
X148718233Y-114377416D01*
X148719512Y-114373200D01*
X148769743Y-114207611D01*
X148795117Y-114160139D01*
X148853389Y-114051119D01*
X148965956Y-113913956D01*
X149103119Y-113801389D01*
X149212139Y-113743117D01*
X149259611Y-113717743D01*
X149429412Y-113666234D01*
X149429413Y-113666234D01*
X149429416Y-113666233D01*
X149561745Y-113653200D01*
X149650255Y-113653200D01*
X149782584Y-113666233D01*
X149782584Y-113666233D01*
G37*
G36*
X152322584Y-113666233D02*
G01*
X152322587Y-113666234D01*
X152322588Y-113666234D01*
X152492389Y-113717743D01*
X152539861Y-113743117D01*
X152648881Y-113801389D01*
X152786044Y-113913956D01*
X152898611Y-114051119D01*
X152956883Y-114160139D01*
X152982257Y-114207611D01*
X153032488Y-114373200D01*
X153033767Y-114377416D01*
X153051159Y-114554000D01*
X153033767Y-114730584D01*
X153033766Y-114730587D01*
X153033766Y-114730588D01*
X152982257Y-114900389D01*
X152982256Y-114900390D01*
X152898611Y-115056881D01*
X152786044Y-115194044D01*
X152648881Y-115306611D01*
X152539861Y-115364883D01*
X152492389Y-115390257D01*
X152322588Y-115441766D01*
X152322587Y-115441766D01*
X152322584Y-115441767D01*
X152190255Y-115454800D01*
X152101745Y-115454800D01*
X151969416Y-115441767D01*
X151969413Y-115441766D01*
X151969412Y-115441766D01*
X151799611Y-115390257D01*
X151752139Y-115364883D01*
X151643119Y-115306611D01*
X151505956Y-115194044D01*
X151393389Y-115056881D01*
X151309744Y-114900390D01*
X151309743Y-114900389D01*
X151258234Y-114730588D01*
X151258234Y-114730587D01*
X151258233Y-114730584D01*
X151240841Y-114554000D01*
X151258233Y-114377416D01*
X151259512Y-114373200D01*
X151309743Y-114207611D01*
X151335117Y-114160139D01*
X151393389Y-114051119D01*
X151505956Y-113913956D01*
X151643119Y-113801389D01*
X151752139Y-113743117D01*
X151799611Y-113717743D01*
X151969412Y-113666234D01*
X151969413Y-113666234D01*
X151969416Y-113666233D01*
X152101745Y-113653200D01*
X152190255Y-113653200D01*
X152322584Y-113666233D01*
X152322584Y-113666233D01*
G37*
G36*
X144676800Y-113799800D02*
G01*
X143075200Y-113799800D01*
X143075200Y-113148200D01*
X144676800Y-113148200D01*
X144676800Y-113799800D01*
X144676800Y-113799800D01*
G37*
G36*
X133276800Y-113799800D02*
G01*
X131675200Y-113799800D01*
X131675200Y-113148200D01*
X133276800Y-113148200D01*
X133276800Y-113799800D01*
X133276800Y-113799800D01*
G37*
G36*
X159602800Y-111434901D02*
G01*
X159603776Y-111444811D01*
X159606667Y-111454341D01*
X159611361Y-111463123D01*
X159617679Y-111470821D01*
X159625377Y-111477139D01*
X159634159Y-111481833D01*
X159643689Y-111484724D01*
X159653599Y-111485700D01*
X160515528Y-111485700D01*
X160517679Y-111488321D01*
X160525377Y-111494639D01*
X160534159Y-111499333D01*
X160543689Y-111502224D01*
X160553599Y-111503200D01*
X161992655Y-111503200D01*
X162099278Y-111513701D01*
X162171837Y-111535712D01*
X162236095Y-111555204D01*
X162362183Y-111622600D01*
X162472701Y-111713299D01*
X162563400Y-111823817D01*
X162630796Y-111949905D01*
X162634861Y-111963306D01*
X162672299Y-112086722D01*
X162686312Y-112229000D01*
X162672299Y-112371278D01*
X162650288Y-112443837D01*
X162630796Y-112508095D01*
X162563400Y-112634183D01*
X162472701Y-112744701D01*
X162362183Y-112835400D01*
X162236095Y-112902796D01*
X162171837Y-112922288D01*
X162099278Y-112944299D01*
X161992655Y-112954800D01*
X160553599Y-112954800D01*
X160543689Y-112955776D01*
X160534159Y-112958667D01*
X160525377Y-112963361D01*
X160517679Y-112969679D01*
X160511361Y-112977377D01*
X160506667Y-112986159D01*
X160503776Y-112995689D01*
X160502800Y-113005599D01*
X160502800Y-113412300D01*
X159683422Y-113412300D01*
X159678623Y-113408361D01*
X159669841Y-113403667D01*
X159660311Y-113400776D01*
X159650401Y-113399800D01*
X158001200Y-113399800D01*
X158001200Y-112081584D01*
X157999014Y-112066846D01*
X157989893Y-112036777D01*
X157978293Y-111919000D01*
X157989893Y-111801223D01*
X157999014Y-111771154D01*
X158001200Y-111756416D01*
X158001200Y-111298200D01*
X159602800Y-111298200D01*
X159602800Y-111434901D01*
X159602800Y-111434901D01*
G37*
G36*
X144676800Y-112999800D02*
G01*
X143075200Y-112999800D01*
X143075200Y-112348200D01*
X144676800Y-112348200D01*
X144676800Y-112999800D01*
X144676800Y-112999800D01*
G37*
G36*
X133276800Y-112999800D02*
G01*
X131675200Y-112999800D01*
X131675200Y-112348200D01*
X133276800Y-112348200D01*
X133276800Y-112999800D01*
X133276800Y-112999800D01*
G37*
G36*
X152322584Y-111126233D02*
G01*
X152322587Y-111126234D01*
X152322588Y-111126234D01*
X152492389Y-111177743D01*
X152534238Y-111200112D01*
X152648881Y-111261389D01*
X152786044Y-111373956D01*
X152898611Y-111511119D01*
X152937351Y-111583598D01*
X152982257Y-111667611D01*
X153029642Y-111823817D01*
X153033767Y-111837416D01*
X153051159Y-112014000D01*
X153033767Y-112190584D01*
X153033766Y-112190587D01*
X153033766Y-112190588D01*
X152982257Y-112360389D01*
X152956883Y-112407861D01*
X152898611Y-112516881D01*
X152786044Y-112654044D01*
X152648881Y-112766611D01*
X152539861Y-112824883D01*
X152492389Y-112850257D01*
X152322588Y-112901766D01*
X152322587Y-112901766D01*
X152322584Y-112901767D01*
X152190255Y-112914800D01*
X152101745Y-112914800D01*
X151969416Y-112901767D01*
X151969413Y-112901766D01*
X151969412Y-112901766D01*
X151799611Y-112850257D01*
X151752139Y-112824883D01*
X151643119Y-112766611D01*
X151505956Y-112654044D01*
X151393389Y-112516881D01*
X151335117Y-112407861D01*
X151309743Y-112360389D01*
X151258234Y-112190588D01*
X151258234Y-112190587D01*
X151258233Y-112190584D01*
X151240841Y-112014000D01*
X151258233Y-111837416D01*
X151262358Y-111823817D01*
X151309743Y-111667611D01*
X151354649Y-111583598D01*
X151393389Y-111511119D01*
X151505956Y-111373956D01*
X151643119Y-111261389D01*
X151757762Y-111200112D01*
X151799611Y-111177743D01*
X151969412Y-111126234D01*
X151969413Y-111126234D01*
X151969416Y-111126233D01*
X152101745Y-111113200D01*
X152190255Y-111113200D01*
X152322584Y-111126233D01*
X152322584Y-111126233D01*
G37*
G36*
X149782584Y-111126233D02*
G01*
X149782587Y-111126234D01*
X149782588Y-111126234D01*
X149952389Y-111177743D01*
X149994238Y-111200112D01*
X150108881Y-111261389D01*
X150246044Y-111373956D01*
X150358611Y-111511119D01*
X150397351Y-111583598D01*
X150442257Y-111667611D01*
X150489642Y-111823817D01*
X150493767Y-111837416D01*
X150511159Y-112014000D01*
X150493767Y-112190584D01*
X150493766Y-112190587D01*
X150493766Y-112190588D01*
X150442257Y-112360389D01*
X150416883Y-112407861D01*
X150358611Y-112516881D01*
X150246044Y-112654044D01*
X150108881Y-112766611D01*
X149999861Y-112824883D01*
X149952389Y-112850257D01*
X149782588Y-112901766D01*
X149782587Y-112901766D01*
X149782584Y-112901767D01*
X149650255Y-112914800D01*
X149561745Y-112914800D01*
X149429416Y-112901767D01*
X149429413Y-112901766D01*
X149429412Y-112901766D01*
X149259611Y-112850257D01*
X149212139Y-112824883D01*
X149103119Y-112766611D01*
X148965956Y-112654044D01*
X148853389Y-112516881D01*
X148795117Y-112407861D01*
X148769743Y-112360389D01*
X148718234Y-112190588D01*
X148718234Y-112190587D01*
X148718233Y-112190584D01*
X148700841Y-112014000D01*
X148718233Y-111837416D01*
X148722358Y-111823817D01*
X148769743Y-111667611D01*
X148814649Y-111583598D01*
X148853389Y-111511119D01*
X148965956Y-111373956D01*
X149103119Y-111261389D01*
X149217762Y-111200112D01*
X149259611Y-111177743D01*
X149429412Y-111126234D01*
X149429413Y-111126234D01*
X149429416Y-111126233D01*
X149561745Y-111113200D01*
X149650255Y-111113200D01*
X149782584Y-111126233D01*
X149782584Y-111126233D01*
G37*
G36*
X133276800Y-112199800D02*
G01*
X131675200Y-112199800D01*
X131675200Y-111548200D01*
X133276800Y-111548200D01*
X133276800Y-112199800D01*
X133276800Y-112199800D01*
G37*
G36*
X144676800Y-112199800D02*
G01*
X143075200Y-112199800D01*
X143075200Y-111548200D01*
X144676800Y-111548200D01*
X144676800Y-112199800D01*
X144676800Y-112199800D01*
G37*
G36*
X140558233Y-106927463D02*
G01*
X140597468Y-106939365D01*
X140633615Y-106958686D01*
X140665306Y-106984694D01*
X140691314Y-107016385D01*
X140710635Y-107052532D01*
X140722537Y-107091767D01*
X140726800Y-107135052D01*
X140726800Y-111812948D01*
X140722537Y-111856233D01*
X140710635Y-111895468D01*
X140691314Y-111931615D01*
X140665306Y-111963306D01*
X140633615Y-111989314D01*
X140597468Y-112008635D01*
X140558233Y-112020537D01*
X140514948Y-112024800D01*
X135837052Y-112024800D01*
X135793767Y-112020537D01*
X135754532Y-112008635D01*
X135718385Y-111989314D01*
X135686694Y-111963306D01*
X135660686Y-111931615D01*
X135641365Y-111895468D01*
X135629463Y-111856233D01*
X135625200Y-111812948D01*
X135625200Y-107135052D01*
X135629463Y-107091767D01*
X135641365Y-107052532D01*
X135660686Y-107016385D01*
X135686694Y-106984694D01*
X135718385Y-106958686D01*
X135754532Y-106939365D01*
X135793767Y-106927463D01*
X135837052Y-106923200D01*
X140514948Y-106923200D01*
X140558233Y-106927463D01*
X140558233Y-106927463D01*
G37*
G36*
X144676800Y-111399800D02*
G01*
X143075200Y-111399800D01*
X143075200Y-110748200D01*
X144676800Y-110748200D01*
X144676800Y-111399800D01*
X144676800Y-111399800D01*
G37*
G36*
X133276800Y-111399800D02*
G01*
X131675200Y-111399800D01*
X131675200Y-110748200D01*
X133276800Y-110748200D01*
X133276800Y-111399800D01*
X133276800Y-111399800D01*
G37*
G36*
X146384584Y-110159004D02*
G01*
X146429091Y-110172505D01*
X146470112Y-110194431D01*
X146506064Y-110223936D01*
X146535569Y-110259888D01*
X146557495Y-110300909D01*
X146570996Y-110345416D01*
X146575800Y-110394193D01*
X146575800Y-111065807D01*
X146570996Y-111114584D01*
X146557495Y-111159091D01*
X146535569Y-111200112D01*
X146506064Y-111236064D01*
X146470112Y-111265569D01*
X146429091Y-111287495D01*
X146384584Y-111300996D01*
X146335807Y-111305800D01*
X145764193Y-111305800D01*
X145715416Y-111300996D01*
X145670909Y-111287495D01*
X145629888Y-111265569D01*
X145593936Y-111236064D01*
X145564431Y-111200112D01*
X145542505Y-111159091D01*
X145529004Y-111114584D01*
X145524200Y-111065807D01*
X145524200Y-110394193D01*
X145529004Y-110345416D01*
X145542505Y-110300909D01*
X145564431Y-110259888D01*
X145593936Y-110223936D01*
X145629888Y-110194431D01*
X145670909Y-110172505D01*
X145715416Y-110159004D01*
X145764193Y-110154200D01*
X146335807Y-110154200D01*
X146384584Y-110159004D01*
X146384584Y-110159004D01*
G37*
G36*
X163352800Y-111224800D02*
G01*
X160751200Y-111224800D01*
X160751200Y-109693200D01*
X163352800Y-109693200D01*
X163352800Y-111224800D01*
X163352800Y-111224800D01*
G37*
G36*
X159777800Y-111049800D02*
G01*
X158026200Y-111049800D01*
X158026200Y-110548200D01*
X159777800Y-110548200D01*
X159777800Y-111049800D01*
X159777800Y-111049800D01*
G37*
G36*
X124509800Y-110884800D02*
G01*
X123648200Y-110884800D01*
X123648200Y-109533200D01*
X124509800Y-109533200D01*
X124509800Y-110884800D01*
X124509800Y-110884800D01*
G37*
G36*
X125779800Y-110884800D02*
G01*
X124918200Y-110884800D01*
X124918200Y-109533200D01*
X125779800Y-109533200D01*
X125779800Y-110884800D01*
X125779800Y-110884800D01*
G37*
G36*
X127049800Y-110884800D02*
G01*
X126188200Y-110884800D01*
X126188200Y-109533200D01*
X127049800Y-109533200D01*
X127049800Y-110884800D01*
X127049800Y-110884800D01*
G37*
G36*
X123239800Y-110884800D02*
G01*
X122378200Y-110884800D01*
X122378200Y-109533200D01*
X123239800Y-109533200D01*
X123239800Y-110884800D01*
X123239800Y-110884800D01*
G37*
G36*
X115619800Y-110884800D02*
G01*
X114758200Y-110884800D01*
X114758200Y-109533200D01*
X115619800Y-109533200D01*
X115619800Y-110884800D01*
X115619800Y-110884800D01*
G37*
G36*
X119429800Y-110884800D02*
G01*
X118568200Y-110884800D01*
X118568200Y-109533200D01*
X119429800Y-109533200D01*
X119429800Y-110884800D01*
X119429800Y-110884800D01*
G37*
G36*
X118159800Y-110884800D02*
G01*
X117298200Y-110884800D01*
X117298200Y-109533200D01*
X118159800Y-109533200D01*
X118159800Y-110884800D01*
X118159800Y-110884800D01*
G37*
G36*
X116889800Y-110884800D02*
G01*
X116028200Y-110884800D01*
X116028200Y-109533200D01*
X116889800Y-109533200D01*
X116889800Y-110884800D01*
X116889800Y-110884800D01*
G37*
G36*
X133276800Y-110599800D02*
G01*
X131675200Y-110599800D01*
X131675200Y-109948200D01*
X133276800Y-109948200D01*
X133276800Y-110599800D01*
X133276800Y-110599800D01*
G37*
G36*
X144676800Y-110599800D02*
G01*
X143075200Y-110599800D01*
X143075200Y-109948200D01*
X144676800Y-109948200D01*
X144676800Y-110599800D01*
X144676800Y-110599800D01*
G37*
G36*
X130636584Y-109397004D02*
G01*
X130681091Y-109410505D01*
X130722112Y-109432431D01*
X130758064Y-109461936D01*
X130787569Y-109497888D01*
X130809495Y-109538909D01*
X130822996Y-109583416D01*
X130827800Y-109632193D01*
X130827800Y-110303807D01*
X130822996Y-110352584D01*
X130809495Y-110397091D01*
X130787569Y-110438112D01*
X130758064Y-110474064D01*
X130722112Y-110503569D01*
X130681091Y-110525495D01*
X130636584Y-110538996D01*
X130587807Y-110543800D01*
X130016193Y-110543800D01*
X129967416Y-110538996D01*
X129922909Y-110525495D01*
X129881888Y-110503569D01*
X129845936Y-110474064D01*
X129816431Y-110438112D01*
X129794505Y-110397091D01*
X129781004Y-110352584D01*
X129776200Y-110303807D01*
X129776200Y-109632193D01*
X129781004Y-109583416D01*
X129794505Y-109538909D01*
X129816431Y-109497888D01*
X129845936Y-109461936D01*
X129881888Y-109432431D01*
X129922909Y-109410505D01*
X129967416Y-109397004D01*
X130016193Y-109392200D01*
X130587807Y-109392200D01*
X130636584Y-109397004D01*
X130636584Y-109397004D01*
G37*
G36*
X159777800Y-110399800D02*
G01*
X158026200Y-110399800D01*
X158026200Y-109898200D01*
X159777800Y-109898200D01*
X159777800Y-110399800D01*
X159777800Y-110399800D01*
G37*
G36*
X149782584Y-108586233D02*
G01*
X149782587Y-108586234D01*
X149782588Y-108586234D01*
X149952389Y-108637743D01*
X149999861Y-108663117D01*
X150108881Y-108721389D01*
X150246044Y-108833956D01*
X150358611Y-108971119D01*
X150407048Y-109061740D01*
X150442257Y-109127611D01*
X150492397Y-109292900D01*
X150493767Y-109297416D01*
X150511159Y-109474000D01*
X150493767Y-109650584D01*
X150493766Y-109650587D01*
X150493766Y-109650588D01*
X150442257Y-109820389D01*
X150442256Y-109820390D01*
X150358611Y-109976881D01*
X150246044Y-110114044D01*
X150108881Y-110226611D01*
X150025757Y-110271041D01*
X149952389Y-110310257D01*
X149782588Y-110361766D01*
X149782587Y-110361766D01*
X149782584Y-110361767D01*
X149650255Y-110374800D01*
X149561745Y-110374800D01*
X149429416Y-110361767D01*
X149429413Y-110361766D01*
X149429412Y-110361766D01*
X149259611Y-110310257D01*
X149186243Y-110271041D01*
X149103119Y-110226611D01*
X148965956Y-110114044D01*
X148853389Y-109976881D01*
X148769744Y-109820390D01*
X148769743Y-109820389D01*
X148718234Y-109650588D01*
X148718234Y-109650587D01*
X148718233Y-109650584D01*
X148700841Y-109474000D01*
X148718233Y-109297416D01*
X148719603Y-109292900D01*
X148769743Y-109127611D01*
X148804952Y-109061740D01*
X148853389Y-108971119D01*
X148965956Y-108833956D01*
X149103119Y-108721389D01*
X149212139Y-108663117D01*
X149259611Y-108637743D01*
X149429412Y-108586234D01*
X149429413Y-108586234D01*
X149429416Y-108586233D01*
X149561745Y-108573200D01*
X149650255Y-108573200D01*
X149782584Y-108586233D01*
X149782584Y-108586233D01*
G37*
G36*
X152322584Y-108586233D02*
G01*
X152322587Y-108586234D01*
X152322588Y-108586234D01*
X152492389Y-108637743D01*
X152539861Y-108663117D01*
X152648881Y-108721389D01*
X152786044Y-108833956D01*
X152898611Y-108971119D01*
X152947048Y-109061740D01*
X152982257Y-109127611D01*
X153032397Y-109292900D01*
X153033767Y-109297416D01*
X153051159Y-109474000D01*
X153033767Y-109650584D01*
X153033766Y-109650587D01*
X153033766Y-109650588D01*
X152982257Y-109820389D01*
X152982256Y-109820390D01*
X152898611Y-109976881D01*
X152786044Y-110114044D01*
X152648881Y-110226611D01*
X152565757Y-110271041D01*
X152492389Y-110310257D01*
X152322588Y-110361766D01*
X152322587Y-110361766D01*
X152322584Y-110361767D01*
X152190255Y-110374800D01*
X152101745Y-110374800D01*
X151969416Y-110361767D01*
X151969413Y-110361766D01*
X151969412Y-110361766D01*
X151799611Y-110310257D01*
X151726243Y-110271041D01*
X151643119Y-110226611D01*
X151505956Y-110114044D01*
X151393389Y-109976881D01*
X151309744Y-109820390D01*
X151309743Y-109820389D01*
X151258234Y-109650588D01*
X151258234Y-109650587D01*
X151258233Y-109650584D01*
X151240841Y-109474000D01*
X151258233Y-109297416D01*
X151259603Y-109292900D01*
X151309743Y-109127611D01*
X151344952Y-109061740D01*
X151393389Y-108971119D01*
X151505956Y-108833956D01*
X151643119Y-108721389D01*
X151752139Y-108663117D01*
X151799611Y-108637743D01*
X151969412Y-108586234D01*
X151969413Y-108586234D01*
X151969416Y-108586233D01*
X152101745Y-108573200D01*
X152190255Y-108573200D01*
X152322584Y-108586233D01*
X152322584Y-108586233D01*
G37*
G36*
X144676800Y-109799800D02*
G01*
X143075200Y-109799800D01*
X143075200Y-109148200D01*
X144676800Y-109148200D01*
X144676800Y-109799800D01*
X144676800Y-109799800D01*
G37*
G36*
X133276800Y-109799800D02*
G01*
X131675200Y-109799800D01*
X131675200Y-109148200D01*
X133276800Y-109148200D01*
X133276800Y-109799800D01*
X133276800Y-109799800D01*
G37*
G36*
X159777800Y-109749800D02*
G01*
X158026200Y-109749800D01*
X158026200Y-109248200D01*
X159777800Y-109248200D01*
X159777800Y-109749800D01*
X159777800Y-109749800D01*
G37*
G36*
X146384584Y-108409004D02*
G01*
X146429091Y-108422505D01*
X146470112Y-108444431D01*
X146506064Y-108473936D01*
X146535569Y-108509888D01*
X146557495Y-108550909D01*
X146570996Y-108595416D01*
X146575800Y-108644193D01*
X146575800Y-109315807D01*
X146570996Y-109364584D01*
X146557495Y-109409091D01*
X146535569Y-109450112D01*
X146506064Y-109486064D01*
X146470112Y-109515569D01*
X146429091Y-109537495D01*
X146384584Y-109550996D01*
X146335807Y-109555800D01*
X145764193Y-109555800D01*
X145715416Y-109550996D01*
X145670909Y-109537495D01*
X145629888Y-109515569D01*
X145593936Y-109486064D01*
X145564431Y-109450112D01*
X145542505Y-109409091D01*
X145529004Y-109364584D01*
X145524200Y-109315807D01*
X145524200Y-108644193D01*
X145529004Y-108595416D01*
X145542505Y-108550909D01*
X145564431Y-108509888D01*
X145593936Y-108473936D01*
X145629888Y-108444431D01*
X145670909Y-108422505D01*
X145715416Y-108409004D01*
X145764193Y-108404200D01*
X146335807Y-108404200D01*
X146384584Y-108409004D01*
X146384584Y-108409004D01*
G37*
G36*
X163352800Y-109304800D02*
G01*
X160751200Y-109304800D01*
X160751200Y-107773200D01*
X163352800Y-107773200D01*
X163352800Y-109304800D01*
X163352800Y-109304800D01*
G37*
G36*
X159777800Y-109099800D02*
G01*
X158026200Y-109099800D01*
X158026200Y-108598200D01*
X159777800Y-108598200D01*
X159777800Y-109099800D01*
X159777800Y-109099800D01*
G37*
G36*
X144676800Y-108999800D02*
G01*
X143075200Y-108999800D01*
X143075200Y-108348200D01*
X144676800Y-108348200D01*
X144676800Y-108999800D01*
X144676800Y-108999800D01*
G37*
G36*
X133276800Y-108999800D02*
G01*
X131675200Y-108999800D01*
X131675200Y-108348200D01*
X133276800Y-108348200D01*
X133276800Y-108999800D01*
X133276800Y-108999800D01*
G37*
G36*
X130636584Y-107647004D02*
G01*
X130681091Y-107660505D01*
X130722112Y-107682431D01*
X130758064Y-107711936D01*
X130787569Y-107747888D01*
X130809495Y-107788909D01*
X130822996Y-107833416D01*
X130827800Y-107882193D01*
X130827800Y-108553807D01*
X130822996Y-108602584D01*
X130809495Y-108647091D01*
X130787569Y-108688112D01*
X130758064Y-108724064D01*
X130722112Y-108753569D01*
X130681091Y-108775495D01*
X130636584Y-108788996D01*
X130587807Y-108793800D01*
X130016193Y-108793800D01*
X129967416Y-108788996D01*
X129922909Y-108775495D01*
X129881888Y-108753569D01*
X129845936Y-108724064D01*
X129816431Y-108688112D01*
X129794505Y-108647091D01*
X129781004Y-108602584D01*
X129776200Y-108553807D01*
X129776200Y-107882193D01*
X129781004Y-107833416D01*
X129794505Y-107788909D01*
X129816431Y-107747888D01*
X129845936Y-107711936D01*
X129881888Y-107682431D01*
X129922909Y-107660505D01*
X129967416Y-107647004D01*
X130016193Y-107642200D01*
X130587807Y-107642200D01*
X130636584Y-107647004D01*
X130636584Y-107647004D01*
G37*
G36*
X159777800Y-108449800D02*
G01*
X158026200Y-108449800D01*
X158026200Y-107948200D01*
X159777800Y-107948200D01*
X159777800Y-108449800D01*
X159777800Y-108449800D01*
G37*
G36*
X144676800Y-108199800D02*
G01*
X143075200Y-108199800D01*
X143075200Y-107548200D01*
X144676800Y-107548200D01*
X144676800Y-108199800D01*
X144676800Y-108199800D01*
G37*
G36*
X133276800Y-108199800D02*
G01*
X131675200Y-108199800D01*
X131675200Y-107548200D01*
X133276800Y-107548200D01*
X133276800Y-108199800D01*
X133276800Y-108199800D01*
G37*
G36*
X149782584Y-106046233D02*
G01*
X149782587Y-106046234D01*
X149782588Y-106046234D01*
X149952389Y-106097743D01*
X149999861Y-106123117D01*
X150108881Y-106181389D01*
X150246044Y-106293956D01*
X150358611Y-106431119D01*
X150390032Y-106489905D01*
X150442257Y-106587611D01*
X150493068Y-106755112D01*
X150493767Y-106757416D01*
X150511159Y-106934000D01*
X150493767Y-107110584D01*
X150493766Y-107110587D01*
X150493766Y-107110588D01*
X150442257Y-107280389D01*
X150442256Y-107280390D01*
X150358611Y-107436881D01*
X150246044Y-107574044D01*
X150108881Y-107686611D01*
X150008333Y-107740354D01*
X149952389Y-107770257D01*
X149782588Y-107821766D01*
X149782587Y-107821766D01*
X149782584Y-107821767D01*
X149650255Y-107834800D01*
X149561745Y-107834800D01*
X149429416Y-107821767D01*
X149429413Y-107821766D01*
X149429412Y-107821766D01*
X149259611Y-107770257D01*
X149203667Y-107740354D01*
X149103119Y-107686611D01*
X148965956Y-107574044D01*
X148853389Y-107436881D01*
X148769744Y-107280390D01*
X148769743Y-107280389D01*
X148718234Y-107110588D01*
X148718234Y-107110587D01*
X148718233Y-107110584D01*
X148700841Y-106934000D01*
X148718233Y-106757416D01*
X148718932Y-106755112D01*
X148769743Y-106587611D01*
X148821968Y-106489905D01*
X148853389Y-106431119D01*
X148965956Y-106293956D01*
X149103119Y-106181389D01*
X149212139Y-106123117D01*
X149259611Y-106097743D01*
X149429412Y-106046234D01*
X149429413Y-106046234D01*
X149429416Y-106046233D01*
X149561745Y-106033200D01*
X149650255Y-106033200D01*
X149782584Y-106046233D01*
X149782584Y-106046233D01*
G37*
G36*
X152322584Y-106046233D02*
G01*
X152322587Y-106046234D01*
X152322588Y-106046234D01*
X152492389Y-106097743D01*
X152539861Y-106123117D01*
X152648881Y-106181389D01*
X152786044Y-106293956D01*
X152898611Y-106431119D01*
X152930032Y-106489905D01*
X152982257Y-106587611D01*
X153033068Y-106755112D01*
X153033767Y-106757416D01*
X153051159Y-106934000D01*
X153033767Y-107110584D01*
X153033766Y-107110587D01*
X153033766Y-107110588D01*
X152982257Y-107280389D01*
X152982256Y-107280390D01*
X152898611Y-107436881D01*
X152786044Y-107574044D01*
X152648881Y-107686611D01*
X152548333Y-107740354D01*
X152492389Y-107770257D01*
X152322588Y-107821766D01*
X152322587Y-107821766D01*
X152322584Y-107821767D01*
X152190255Y-107834800D01*
X152101745Y-107834800D01*
X151969416Y-107821767D01*
X151969413Y-107821766D01*
X151969412Y-107821766D01*
X151799611Y-107770257D01*
X151743667Y-107740354D01*
X151643119Y-107686611D01*
X151505956Y-107574044D01*
X151393389Y-107436881D01*
X151309744Y-107280390D01*
X151309743Y-107280389D01*
X151258234Y-107110588D01*
X151258234Y-107110587D01*
X151258233Y-107110584D01*
X151240841Y-106934000D01*
X151258233Y-106757416D01*
X151258932Y-106755112D01*
X151309743Y-106587611D01*
X151361968Y-106489905D01*
X151393389Y-106431119D01*
X151505956Y-106293956D01*
X151643119Y-106181389D01*
X151752139Y-106123117D01*
X151799611Y-106097743D01*
X151969412Y-106046234D01*
X151969413Y-106046234D01*
X151969416Y-106046233D01*
X152101745Y-106033200D01*
X152190255Y-106033200D01*
X152322584Y-106046233D01*
X152322584Y-106046233D01*
G37*
G36*
X159582800Y-107046997D02*
G01*
X159583045Y-107051968D01*
X159585707Y-107079000D01*
X159584450Y-107091767D01*
X159583045Y-107106024D01*
X159582800Y-107111003D01*
X159582800Y-107649800D01*
X159177549Y-107649800D01*
X159167639Y-107650776D01*
X159162834Y-107651979D01*
X159099777Y-107671107D01*
X159011515Y-107679800D01*
X158552485Y-107679800D01*
X158464223Y-107671107D01*
X158401182Y-107651984D01*
X158391430Y-107650045D01*
X158386451Y-107649800D01*
X157981200Y-107649800D01*
X157981200Y-107111003D01*
X157980955Y-107106024D01*
X157979551Y-107091767D01*
X157978293Y-107079000D01*
X157980955Y-107051968D01*
X157981200Y-107046997D01*
X157981200Y-105548200D01*
X159582800Y-105548200D01*
X159582800Y-107046997D01*
X159582800Y-107046997D01*
G37*
G36*
X160502800Y-105972401D02*
G01*
X160503776Y-105982311D01*
X160506667Y-105991841D01*
X160511361Y-106000623D01*
X160517679Y-106008321D01*
X160525377Y-106014639D01*
X160534159Y-106019333D01*
X160543689Y-106022224D01*
X160553599Y-106023200D01*
X161913476Y-106023200D01*
X161917679Y-106028321D01*
X161925377Y-106034639D01*
X161934159Y-106039333D01*
X161943689Y-106042224D01*
X161953599Y-106043200D01*
X161992655Y-106043200D01*
X162099278Y-106053701D01*
X162171837Y-106075712D01*
X162236095Y-106095204D01*
X162362183Y-106162600D01*
X162472701Y-106253299D01*
X162563400Y-106363817D01*
X162630796Y-106489905D01*
X162640303Y-106521247D01*
X162672299Y-106626722D01*
X162686312Y-106769000D01*
X162672299Y-106911278D01*
X162650288Y-106983837D01*
X162630796Y-107048095D01*
X162563400Y-107174183D01*
X162472701Y-107284701D01*
X162362183Y-107375400D01*
X162236095Y-107442796D01*
X162171837Y-107462288D01*
X162099278Y-107484299D01*
X161992655Y-107494800D01*
X161571345Y-107494800D01*
X161464724Y-107484299D01*
X161440620Y-107476987D01*
X161430853Y-107475045D01*
X161425873Y-107474800D01*
X159783422Y-107474800D01*
X159778623Y-107470861D01*
X159769841Y-107466167D01*
X159760311Y-107463276D01*
X159750401Y-107462300D01*
X159701200Y-107462300D01*
X159701200Y-105535700D01*
X160502800Y-105535700D01*
X160502800Y-105972401D01*
X160502800Y-105972401D01*
G37*
G36*
X144676800Y-107399800D02*
G01*
X143075200Y-107399800D01*
X143075200Y-106748200D01*
X144676800Y-106748200D01*
X144676800Y-107399800D01*
X144676800Y-107399800D01*
G37*
G36*
X133276800Y-107399800D02*
G01*
X131675200Y-107399800D01*
X131675200Y-106748200D01*
X133276800Y-106748200D01*
X133276800Y-107399800D01*
X133276800Y-107399800D01*
G37*
G36*
X118719800Y-106999800D02*
G01*
X117618200Y-106999800D01*
X117618200Y-106398200D01*
X118719800Y-106398200D01*
X118719800Y-106999800D01*
X118719800Y-106999800D01*
G37*
G36*
X116619800Y-106999800D02*
G01*
X115518200Y-106999800D01*
X115518200Y-106398200D01*
X116619800Y-106398200D01*
X116619800Y-106999800D01*
X116619800Y-106999800D01*
G37*
G36*
X125094800Y-106998800D02*
G01*
X123453200Y-106998800D01*
X123453200Y-105097200D01*
X125094800Y-105097200D01*
X125094800Y-106998800D01*
X125094800Y-106998800D01*
G37*
G36*
X127774800Y-106998800D02*
G01*
X126133200Y-106998800D01*
X126133200Y-105097200D01*
X127774800Y-105097200D01*
X127774800Y-106998800D01*
X127774800Y-106998800D01*
G37*
G36*
X130636584Y-105714004D02*
G01*
X130681091Y-105727505D01*
X130722112Y-105749431D01*
X130758064Y-105778936D01*
X130787569Y-105814888D01*
X130809495Y-105855909D01*
X130822996Y-105900416D01*
X130827800Y-105949193D01*
X130827800Y-106620807D01*
X130822996Y-106669584D01*
X130809495Y-106714091D01*
X130787569Y-106755112D01*
X130758064Y-106791064D01*
X130722112Y-106820569D01*
X130681091Y-106842495D01*
X130636584Y-106855996D01*
X130587807Y-106860800D01*
X130016193Y-106860800D01*
X129967416Y-106855996D01*
X129922909Y-106842495D01*
X129881888Y-106820569D01*
X129845936Y-106791064D01*
X129816431Y-106755112D01*
X129794505Y-106714091D01*
X129781004Y-106669584D01*
X129776200Y-106620807D01*
X129776200Y-105949193D01*
X129781004Y-105900416D01*
X129794505Y-105855909D01*
X129816431Y-105814888D01*
X129845936Y-105778936D01*
X129881888Y-105749431D01*
X129922909Y-105727505D01*
X129967416Y-105714004D01*
X130016193Y-105709200D01*
X130587807Y-105709200D01*
X130636584Y-105714004D01*
X130636584Y-105714004D01*
G37*
G36*
X144676800Y-106599800D02*
G01*
X143075200Y-106599800D01*
X143075200Y-105948200D01*
X144676800Y-105948200D01*
X144676800Y-106599800D01*
X144676800Y-106599800D01*
G37*
G36*
X133276800Y-106599800D02*
G01*
X131675200Y-106599800D01*
X131675200Y-105948200D01*
X133276800Y-105948200D01*
X133276800Y-106599800D01*
X133276800Y-106599800D01*
G37*
G36*
X118719800Y-106199800D02*
G01*
X117618200Y-106199800D01*
X117618200Y-105598200D01*
X118719800Y-105598200D01*
X118719800Y-106199800D01*
X118719800Y-106199800D01*
G37*
G36*
X116619800Y-106199800D02*
G01*
X115518200Y-106199800D01*
X115518200Y-105598200D01*
X116619800Y-105598200D01*
X116619800Y-106199800D01*
X116619800Y-106199800D01*
G37*
G36*
X144676800Y-105799800D02*
G01*
X143075200Y-105799800D01*
X143075200Y-105148200D01*
X144676800Y-105148200D01*
X144676800Y-105799800D01*
X144676800Y-105799800D01*
G37*
G36*
X133276800Y-105799800D02*
G01*
X131675200Y-105799800D01*
X131675200Y-105148200D01*
X133276800Y-105148200D01*
X133276800Y-105799800D01*
X133276800Y-105799800D01*
G37*
G36*
X152322584Y-103506233D02*
G01*
X152322587Y-103506234D01*
X152322588Y-103506234D01*
X152492389Y-103557743D01*
X152539861Y-103583117D01*
X152648881Y-103641389D01*
X152786044Y-103753956D01*
X152898611Y-103891119D01*
X152945697Y-103979212D01*
X152982257Y-104047611D01*
X153028120Y-104198800D01*
X153033767Y-104217416D01*
X153051159Y-104394000D01*
X153033767Y-104570584D01*
X153033766Y-104570587D01*
X153033766Y-104570588D01*
X152982257Y-104740389D01*
X152982256Y-104740390D01*
X152898611Y-104896881D01*
X152786044Y-105034044D01*
X152648881Y-105146611D01*
X152539861Y-105204883D01*
X152492389Y-105230257D01*
X152322588Y-105281766D01*
X152322587Y-105281766D01*
X152322584Y-105281767D01*
X152190255Y-105294800D01*
X152101745Y-105294800D01*
X151969416Y-105281767D01*
X151969413Y-105281766D01*
X151969412Y-105281766D01*
X151799611Y-105230257D01*
X151752139Y-105204883D01*
X151643119Y-105146611D01*
X151505956Y-105034044D01*
X151393389Y-104896881D01*
X151309744Y-104740390D01*
X151309743Y-104740389D01*
X151258234Y-104570588D01*
X151258234Y-104570587D01*
X151258233Y-104570584D01*
X151240841Y-104394000D01*
X151258233Y-104217416D01*
X151263880Y-104198800D01*
X151309743Y-104047611D01*
X151346303Y-103979212D01*
X151393389Y-103891119D01*
X151505956Y-103753956D01*
X151643119Y-103641389D01*
X151752139Y-103583117D01*
X151799611Y-103557743D01*
X151969412Y-103506234D01*
X151969413Y-103506234D01*
X151969416Y-103506233D01*
X152101745Y-103493200D01*
X152190255Y-103493200D01*
X152322584Y-103506233D01*
X152322584Y-103506233D01*
G37*
G36*
X150506800Y-105294800D02*
G01*
X148705200Y-105294800D01*
X148705200Y-103493200D01*
X150506800Y-103493200D01*
X150506800Y-105294800D01*
X150506800Y-105294800D01*
G37*
G36*
X130636584Y-103964004D02*
G01*
X130681091Y-103977505D01*
X130722112Y-103999431D01*
X130758064Y-104028936D01*
X130787569Y-104064888D01*
X130809495Y-104105909D01*
X130822996Y-104150416D01*
X130827800Y-104199193D01*
X130827800Y-104870807D01*
X130822996Y-104919584D01*
X130809495Y-104964091D01*
X130787569Y-105005112D01*
X130758064Y-105041064D01*
X130722112Y-105070569D01*
X130681091Y-105092495D01*
X130636584Y-105105996D01*
X130587807Y-105110800D01*
X130016193Y-105110800D01*
X129967416Y-105105996D01*
X129922909Y-105092495D01*
X129881888Y-105070569D01*
X129845936Y-105041064D01*
X129816431Y-105005112D01*
X129794505Y-104964091D01*
X129781004Y-104919584D01*
X129776200Y-104870807D01*
X129776200Y-104199193D01*
X129781004Y-104150416D01*
X129794505Y-104105909D01*
X129816431Y-104064888D01*
X129845936Y-104028936D01*
X129881888Y-103999431D01*
X129922909Y-103977505D01*
X129967416Y-103964004D01*
X130016193Y-103959200D01*
X130587807Y-103959200D01*
X130636584Y-103964004D01*
X130636584Y-103964004D01*
G37*
G36*
X139301800Y-104574800D02*
G01*
X138650200Y-104574800D01*
X138650200Y-102973200D01*
X139301800Y-102973200D01*
X139301800Y-104574800D01*
X139301800Y-104574800D01*
G37*
G36*
X140101800Y-104574800D02*
G01*
X139450200Y-104574800D01*
X139450200Y-102973200D01*
X140101800Y-102973200D01*
X140101800Y-104574800D01*
X140101800Y-104574800D01*
G37*
G36*
X140901800Y-104574800D02*
G01*
X140250200Y-104574800D01*
X140250200Y-102973200D01*
X140901800Y-102973200D01*
X140901800Y-104574800D01*
X140901800Y-104574800D01*
G37*
G36*
X141701800Y-104574800D02*
G01*
X141050200Y-104574800D01*
X141050200Y-102973200D01*
X141701800Y-102973200D01*
X141701800Y-104574800D01*
X141701800Y-104574800D01*
G37*
G36*
X142501800Y-104574800D02*
G01*
X141850200Y-104574800D01*
X141850200Y-102973200D01*
X142501800Y-102973200D01*
X142501800Y-104574800D01*
X142501800Y-104574800D01*
G37*
G36*
X138501800Y-104574800D02*
G01*
X137850200Y-104574800D01*
X137850200Y-102973200D01*
X138501800Y-102973200D01*
X138501800Y-104574800D01*
X138501800Y-104574800D01*
G37*
G36*
X137701800Y-104574800D02*
G01*
X137050200Y-104574800D01*
X137050200Y-102973200D01*
X137701800Y-102973200D01*
X137701800Y-104574800D01*
X137701800Y-104574800D01*
G37*
G36*
X136901800Y-104574800D02*
G01*
X136250200Y-104574800D01*
X136250200Y-102973200D01*
X136901800Y-102973200D01*
X136901800Y-104574800D01*
X136901800Y-104574800D01*
G37*
G36*
X136101800Y-104574800D02*
G01*
X135450200Y-104574800D01*
X135450200Y-102973200D01*
X136101800Y-102973200D01*
X136101800Y-104574800D01*
X136101800Y-104574800D01*
G37*
G36*
X134501800Y-104574800D02*
G01*
X133850200Y-104574800D01*
X133850200Y-102973200D01*
X134501800Y-102973200D01*
X134501800Y-104574800D01*
X134501800Y-104574800D01*
G37*
G36*
X135301800Y-104574800D02*
G01*
X134650200Y-104574800D01*
X134650200Y-102973200D01*
X135301800Y-102973200D01*
X135301800Y-104574800D01*
X135301800Y-104574800D01*
G37*
G36*
X127774800Y-104198800D02*
G01*
X126133200Y-104198800D01*
X126133200Y-102297200D01*
X127774800Y-102297200D01*
X127774800Y-104198800D01*
X127774800Y-104198800D01*
G37*
G36*
X125094800Y-104198800D02*
G01*
X123453200Y-104198800D01*
X123453200Y-102297200D01*
X125094800Y-102297200D01*
X125094800Y-104198800D01*
X125094800Y-104198800D01*
G37*
G36*
X115283766Y-101823283D02*
G01*
X115321242Y-101834651D01*
X115355778Y-101853111D01*
X115386048Y-101877952D01*
X115410889Y-101908222D01*
X115429349Y-101942758D01*
X115440717Y-101980234D01*
X115444800Y-102021691D01*
X115444800Y-103718309D01*
X115440717Y-103759766D01*
X115429349Y-103797242D01*
X115410889Y-103831778D01*
X115386048Y-103862048D01*
X115355778Y-103886889D01*
X115321242Y-103905349D01*
X115283766Y-103916717D01*
X115242309Y-103920800D01*
X114745691Y-103920800D01*
X114704234Y-103916717D01*
X114666758Y-103905349D01*
X114632222Y-103886889D01*
X114601952Y-103862048D01*
X114577111Y-103831778D01*
X114558651Y-103797242D01*
X114547283Y-103759766D01*
X114543200Y-103718309D01*
X114543200Y-102021691D01*
X114547283Y-101980234D01*
X114558651Y-101942758D01*
X114577111Y-101908222D01*
X114601952Y-101877952D01*
X114632222Y-101853111D01*
X114666758Y-101834651D01*
X114704234Y-101823283D01*
X114745691Y-101819200D01*
X115242309Y-101819200D01*
X115283766Y-101823283D01*
X115283766Y-101823283D01*
G37*
G36*
X119483766Y-101823283D02*
G01*
X119521242Y-101834651D01*
X119555778Y-101853111D01*
X119586048Y-101877952D01*
X119610889Y-101908222D01*
X119629349Y-101942758D01*
X119640717Y-101980234D01*
X119644800Y-102021691D01*
X119644800Y-103718309D01*
X119640717Y-103759766D01*
X119629349Y-103797242D01*
X119610889Y-103831778D01*
X119586048Y-103862048D01*
X119555778Y-103886889D01*
X119521242Y-103905349D01*
X119483766Y-103916717D01*
X119442309Y-103920800D01*
X118945691Y-103920800D01*
X118904234Y-103916717D01*
X118866758Y-103905349D01*
X118832222Y-103886889D01*
X118801952Y-103862048D01*
X118777111Y-103831778D01*
X118758651Y-103797242D01*
X118747283Y-103759766D01*
X118743200Y-103718309D01*
X118743200Y-102021691D01*
X118747283Y-101980234D01*
X118758651Y-101942758D01*
X118777111Y-101908222D01*
X118801952Y-101877952D01*
X118832222Y-101853111D01*
X118866758Y-101834651D01*
X118904234Y-101823283D01*
X118945691Y-101819200D01*
X119442309Y-101819200D01*
X119483766Y-101823283D01*
X119483766Y-101823283D01*
G37*
G36*
X162917766Y-101823283D02*
G01*
X162955242Y-101834651D01*
X162989778Y-101853111D01*
X163020048Y-101877952D01*
X163044889Y-101908222D01*
X163063349Y-101942758D01*
X163074717Y-101980234D01*
X163078800Y-102021691D01*
X163078800Y-103718309D01*
X163074717Y-103759766D01*
X163063349Y-103797242D01*
X163044889Y-103831778D01*
X163020048Y-103862048D01*
X162989778Y-103886889D01*
X162955242Y-103905349D01*
X162917766Y-103916717D01*
X162876309Y-103920800D01*
X162379691Y-103920800D01*
X162338234Y-103916717D01*
X162300758Y-103905349D01*
X162266222Y-103886889D01*
X162235952Y-103862048D01*
X162211111Y-103831778D01*
X162192651Y-103797242D01*
X162181283Y-103759766D01*
X162177200Y-103718309D01*
X162177200Y-102021691D01*
X162181283Y-101980234D01*
X162192651Y-101942758D01*
X162211111Y-101908222D01*
X162235952Y-101877952D01*
X162266222Y-101853111D01*
X162300758Y-101834651D01*
X162338234Y-101823283D01*
X162379691Y-101819200D01*
X162876309Y-101819200D01*
X162917766Y-101823283D01*
X162917766Y-101823283D01*
G37*
G36*
X158717766Y-101823283D02*
G01*
X158755242Y-101834651D01*
X158789778Y-101853111D01*
X158820048Y-101877952D01*
X158844889Y-101908222D01*
X158863349Y-101942758D01*
X158874717Y-101980234D01*
X158878800Y-102021691D01*
X158878800Y-103718309D01*
X158874717Y-103759766D01*
X158863349Y-103797242D01*
X158844889Y-103831778D01*
X158820048Y-103862048D01*
X158789778Y-103886889D01*
X158755242Y-103905349D01*
X158717766Y-103916717D01*
X158676309Y-103920800D01*
X158179691Y-103920800D01*
X158138234Y-103916717D01*
X158100758Y-103905349D01*
X158066222Y-103886889D01*
X158035952Y-103862048D01*
X158011111Y-103831778D01*
X157992651Y-103797242D01*
X157981283Y-103759766D01*
X157977200Y-103718309D01*
X157977200Y-102021691D01*
X157981283Y-101980234D01*
X157992651Y-101942758D01*
X158011111Y-101908222D01*
X158035952Y-101877952D01*
X158066222Y-101853111D01*
X158100758Y-101834651D01*
X158138234Y-101823283D01*
X158179691Y-101819200D01*
X158676309Y-101819200D01*
X158717766Y-101823283D01*
X158717766Y-101823283D01*
G37*
G36*
X140578584Y-101079004D02*
G01*
X140623091Y-101092505D01*
X140664112Y-101114431D01*
X140700064Y-101143936D01*
X140729569Y-101179888D01*
X140751495Y-101220909D01*
X140764996Y-101265416D01*
X140769800Y-101314193D01*
X140769800Y-101885807D01*
X140764996Y-101934584D01*
X140751495Y-101979091D01*
X140729569Y-102020112D01*
X140700064Y-102056064D01*
X140664112Y-102085569D01*
X140623091Y-102107495D01*
X140578584Y-102120996D01*
X140529807Y-102125800D01*
X139858193Y-102125800D01*
X139809416Y-102120996D01*
X139764909Y-102107495D01*
X139723888Y-102085569D01*
X139687936Y-102056064D01*
X139658431Y-102020112D01*
X139636505Y-101979091D01*
X139623004Y-101934584D01*
X139618200Y-101885807D01*
X139618200Y-101314193D01*
X139623004Y-101265416D01*
X139636505Y-101220909D01*
X139658431Y-101179888D01*
X139687936Y-101143936D01*
X139723888Y-101114431D01*
X139764909Y-101092505D01*
X139809416Y-101079004D01*
X139858193Y-101074200D01*
X140529807Y-101074200D01*
X140578584Y-101079004D01*
X140578584Y-101079004D01*
G37*
G36*
X138828584Y-101079004D02*
G01*
X138873091Y-101092505D01*
X138914112Y-101114431D01*
X138950064Y-101143936D01*
X138979569Y-101179888D01*
X139001495Y-101220909D01*
X139014996Y-101265416D01*
X139019800Y-101314193D01*
X139019800Y-101885807D01*
X139014996Y-101934584D01*
X139001495Y-101979091D01*
X138979569Y-102020112D01*
X138950064Y-102056064D01*
X138914112Y-102085569D01*
X138873091Y-102107495D01*
X138828584Y-102120996D01*
X138779807Y-102125800D01*
X138108193Y-102125800D01*
X138059416Y-102120996D01*
X138014909Y-102107495D01*
X137973888Y-102085569D01*
X137937936Y-102056064D01*
X137908431Y-102020112D01*
X137886505Y-101979091D01*
X137873004Y-101934584D01*
X137868200Y-101885807D01*
X137868200Y-101314193D01*
X137873004Y-101265416D01*
X137886505Y-101220909D01*
X137908431Y-101179888D01*
X137937936Y-101143936D01*
X137973888Y-101114431D01*
X138014909Y-101092505D01*
X138059416Y-101079004D01*
X138108193Y-101074200D01*
X138779807Y-101074200D01*
X138828584Y-101079004D01*
X138828584Y-101079004D01*
G37*
G36*
X147242584Y-97156233D02*
G01*
X147242587Y-97156234D01*
X147242588Y-97156234D01*
X147412389Y-97207743D01*
X147459861Y-97233117D01*
X147568881Y-97291389D01*
X147706044Y-97403956D01*
X147818611Y-97541119D01*
X147876883Y-97650139D01*
X147902257Y-97697611D01*
X147953766Y-97867412D01*
X147953767Y-97867416D01*
X147971159Y-98044000D01*
X147953767Y-98220584D01*
X147953766Y-98220587D01*
X147953766Y-98220588D01*
X147902257Y-98390389D01*
X147902256Y-98390390D01*
X147818611Y-98546881D01*
X147706044Y-98684044D01*
X147568881Y-98796611D01*
X147459861Y-98854883D01*
X147412389Y-98880257D01*
X147242588Y-98931766D01*
X147242587Y-98931766D01*
X147242584Y-98931767D01*
X147110255Y-98944800D01*
X147021745Y-98944800D01*
X146889416Y-98931767D01*
X146889413Y-98931766D01*
X146889412Y-98931766D01*
X146719611Y-98880257D01*
X146672139Y-98854883D01*
X146563119Y-98796611D01*
X146425956Y-98684044D01*
X146313389Y-98546881D01*
X146229744Y-98390390D01*
X146229743Y-98390389D01*
X146178234Y-98220588D01*
X146178234Y-98220587D01*
X146178233Y-98220584D01*
X146160841Y-98044000D01*
X146178233Y-97867416D01*
X146178234Y-97867412D01*
X146229743Y-97697611D01*
X146255117Y-97650139D01*
X146313389Y-97541119D01*
X146425956Y-97403956D01*
X146563119Y-97291389D01*
X146672139Y-97233117D01*
X146719611Y-97207743D01*
X146889412Y-97156234D01*
X146889413Y-97156234D01*
X146889416Y-97156233D01*
X147021745Y-97143200D01*
X147110255Y-97143200D01*
X147242584Y-97156233D01*
X147242584Y-97156233D01*
G37*
G36*
X114946800Y-98944800D02*
G01*
X113145200Y-98944800D01*
X113145200Y-97143200D01*
X114946800Y-97143200D01*
X114946800Y-98944800D01*
X114946800Y-98944800D01*
G37*
G36*
X116762584Y-97156233D02*
G01*
X116762587Y-97156234D01*
X116762588Y-97156234D01*
X116932389Y-97207743D01*
X116979861Y-97233117D01*
X117088881Y-97291389D01*
X117226044Y-97403956D01*
X117338611Y-97541119D01*
X117396883Y-97650139D01*
X117422257Y-97697611D01*
X117473766Y-97867412D01*
X117473767Y-97867416D01*
X117491159Y-98044000D01*
X117473767Y-98220584D01*
X117473766Y-98220587D01*
X117473766Y-98220588D01*
X117422257Y-98390389D01*
X117422256Y-98390390D01*
X117338611Y-98546881D01*
X117226044Y-98684044D01*
X117088881Y-98796611D01*
X116979861Y-98854883D01*
X116932389Y-98880257D01*
X116762588Y-98931766D01*
X116762587Y-98931766D01*
X116762584Y-98931767D01*
X116630255Y-98944800D01*
X116541745Y-98944800D01*
X116409416Y-98931767D01*
X116409413Y-98931766D01*
X116409412Y-98931766D01*
X116239611Y-98880257D01*
X116192139Y-98854883D01*
X116083119Y-98796611D01*
X115945956Y-98684044D01*
X115833389Y-98546881D01*
X115749744Y-98390390D01*
X115749743Y-98390389D01*
X115698234Y-98220588D01*
X115698234Y-98220587D01*
X115698233Y-98220584D01*
X115680841Y-98044000D01*
X115698233Y-97867416D01*
X115698234Y-97867412D01*
X115749743Y-97697611D01*
X115775117Y-97650139D01*
X115833389Y-97541119D01*
X115945956Y-97403956D01*
X116083119Y-97291389D01*
X116192139Y-97233117D01*
X116239611Y-97207743D01*
X116409412Y-97156234D01*
X116409413Y-97156234D01*
X116409416Y-97156233D01*
X116541745Y-97143200D01*
X116630255Y-97143200D01*
X116762584Y-97156233D01*
X116762584Y-97156233D01*
G37*
G36*
X119302584Y-97156233D02*
G01*
X119302587Y-97156234D01*
X119302588Y-97156234D01*
X119472389Y-97207743D01*
X119519861Y-97233117D01*
X119628881Y-97291389D01*
X119766044Y-97403956D01*
X119878611Y-97541119D01*
X119936883Y-97650139D01*
X119962257Y-97697611D01*
X120013766Y-97867412D01*
X120013767Y-97867416D01*
X120031159Y-98044000D01*
X120013767Y-98220584D01*
X120013766Y-98220587D01*
X120013766Y-98220588D01*
X119962257Y-98390389D01*
X119962256Y-98390390D01*
X119878611Y-98546881D01*
X119766044Y-98684044D01*
X119628881Y-98796611D01*
X119519861Y-98854883D01*
X119472389Y-98880257D01*
X119302588Y-98931766D01*
X119302587Y-98931766D01*
X119302584Y-98931767D01*
X119170255Y-98944800D01*
X119081745Y-98944800D01*
X118949416Y-98931767D01*
X118949413Y-98931766D01*
X118949412Y-98931766D01*
X118779611Y-98880257D01*
X118732139Y-98854883D01*
X118623119Y-98796611D01*
X118485956Y-98684044D01*
X118373389Y-98546881D01*
X118289744Y-98390390D01*
X118289743Y-98390389D01*
X118238234Y-98220588D01*
X118238234Y-98220587D01*
X118238233Y-98220584D01*
X118220841Y-98044000D01*
X118238233Y-97867416D01*
X118238234Y-97867412D01*
X118289743Y-97697611D01*
X118315117Y-97650139D01*
X118373389Y-97541119D01*
X118485956Y-97403956D01*
X118623119Y-97291389D01*
X118732139Y-97233117D01*
X118779611Y-97207743D01*
X118949412Y-97156234D01*
X118949413Y-97156234D01*
X118949416Y-97156233D01*
X119081745Y-97143200D01*
X119170255Y-97143200D01*
X119302584Y-97156233D01*
X119302584Y-97156233D01*
G37*
G36*
X149782584Y-97156233D02*
G01*
X149782587Y-97156234D01*
X149782588Y-97156234D01*
X149952389Y-97207743D01*
X149999861Y-97233117D01*
X150108881Y-97291389D01*
X150246044Y-97403956D01*
X150358611Y-97541119D01*
X150416883Y-97650139D01*
X150442257Y-97697611D01*
X150493766Y-97867412D01*
X150493767Y-97867416D01*
X150511159Y-98044000D01*
X150493767Y-98220584D01*
X150493766Y-98220587D01*
X150493766Y-98220588D01*
X150442257Y-98390389D01*
X150442256Y-98390390D01*
X150358611Y-98546881D01*
X150246044Y-98684044D01*
X150108881Y-98796611D01*
X149999861Y-98854883D01*
X149952389Y-98880257D01*
X149782588Y-98931766D01*
X149782587Y-98931766D01*
X149782584Y-98931767D01*
X149650255Y-98944800D01*
X149561745Y-98944800D01*
X149429416Y-98931767D01*
X149429413Y-98931766D01*
X149429412Y-98931766D01*
X149259611Y-98880257D01*
X149212139Y-98854883D01*
X149103119Y-98796611D01*
X148965956Y-98684044D01*
X148853389Y-98546881D01*
X148769744Y-98390390D01*
X148769743Y-98390389D01*
X148718234Y-98220588D01*
X148718234Y-98220587D01*
X148718233Y-98220584D01*
X148700841Y-98044000D01*
X148718233Y-97867416D01*
X148718234Y-97867412D01*
X148769743Y-97697611D01*
X148795117Y-97650139D01*
X148853389Y-97541119D01*
X148965956Y-97403956D01*
X149103119Y-97291389D01*
X149212139Y-97233117D01*
X149259611Y-97207743D01*
X149429412Y-97156234D01*
X149429413Y-97156234D01*
X149429416Y-97156233D01*
X149561745Y-97143200D01*
X149650255Y-97143200D01*
X149782584Y-97156233D01*
X149782584Y-97156233D01*
G37*
G36*
X124382584Y-97156233D02*
G01*
X124382587Y-97156234D01*
X124382588Y-97156234D01*
X124552389Y-97207743D01*
X124599861Y-97233117D01*
X124708881Y-97291389D01*
X124846044Y-97403956D01*
X124958611Y-97541119D01*
X125016883Y-97650139D01*
X125042257Y-97697611D01*
X125093766Y-97867412D01*
X125093767Y-97867416D01*
X125111159Y-98044000D01*
X125093767Y-98220584D01*
X125093766Y-98220587D01*
X125093766Y-98220588D01*
X125042257Y-98390389D01*
X125042256Y-98390390D01*
X124958611Y-98546881D01*
X124846044Y-98684044D01*
X124708881Y-98796611D01*
X124599861Y-98854883D01*
X124552389Y-98880257D01*
X124382588Y-98931766D01*
X124382587Y-98931766D01*
X124382584Y-98931767D01*
X124250255Y-98944800D01*
X124161745Y-98944800D01*
X124029416Y-98931767D01*
X124029413Y-98931766D01*
X124029412Y-98931766D01*
X123859611Y-98880257D01*
X123812139Y-98854883D01*
X123703119Y-98796611D01*
X123565956Y-98684044D01*
X123453389Y-98546881D01*
X123369744Y-98390390D01*
X123369743Y-98390389D01*
X123318234Y-98220588D01*
X123318234Y-98220587D01*
X123318233Y-98220584D01*
X123300841Y-98044000D01*
X123318233Y-97867416D01*
X123318234Y-97867412D01*
X123369743Y-97697611D01*
X123395117Y-97650139D01*
X123453389Y-97541119D01*
X123565956Y-97403956D01*
X123703119Y-97291389D01*
X123812139Y-97233117D01*
X123859611Y-97207743D01*
X124029412Y-97156234D01*
X124029413Y-97156234D01*
X124029416Y-97156233D01*
X124161745Y-97143200D01*
X124250255Y-97143200D01*
X124382584Y-97156233D01*
X124382584Y-97156233D01*
G37*
G36*
X126922584Y-97156233D02*
G01*
X126922587Y-97156234D01*
X126922588Y-97156234D01*
X127092389Y-97207743D01*
X127139861Y-97233117D01*
X127248881Y-97291389D01*
X127386044Y-97403956D01*
X127498611Y-97541119D01*
X127556883Y-97650139D01*
X127582257Y-97697611D01*
X127633766Y-97867412D01*
X127633767Y-97867416D01*
X127651159Y-98044000D01*
X127633767Y-98220584D01*
X127633766Y-98220587D01*
X127633766Y-98220588D01*
X127582257Y-98390389D01*
X127582256Y-98390390D01*
X127498611Y-98546881D01*
X127386044Y-98684044D01*
X127248881Y-98796611D01*
X127139861Y-98854883D01*
X127092389Y-98880257D01*
X126922588Y-98931766D01*
X126922587Y-98931766D01*
X126922584Y-98931767D01*
X126790255Y-98944800D01*
X126701745Y-98944800D01*
X126569416Y-98931767D01*
X126569413Y-98931766D01*
X126569412Y-98931766D01*
X126399611Y-98880257D01*
X126352139Y-98854883D01*
X126243119Y-98796611D01*
X126105956Y-98684044D01*
X125993389Y-98546881D01*
X125909744Y-98390390D01*
X125909743Y-98390389D01*
X125858234Y-98220588D01*
X125858234Y-98220587D01*
X125858233Y-98220584D01*
X125840841Y-98044000D01*
X125858233Y-97867416D01*
X125858234Y-97867412D01*
X125909743Y-97697611D01*
X125935117Y-97650139D01*
X125993389Y-97541119D01*
X126105956Y-97403956D01*
X126243119Y-97291389D01*
X126352139Y-97233117D01*
X126399611Y-97207743D01*
X126569412Y-97156234D01*
X126569413Y-97156234D01*
X126569416Y-97156233D01*
X126701745Y-97143200D01*
X126790255Y-97143200D01*
X126922584Y-97156233D01*
X126922584Y-97156233D01*
G37*
G36*
X129462584Y-97156233D02*
G01*
X129462587Y-97156234D01*
X129462588Y-97156234D01*
X129632389Y-97207743D01*
X129679861Y-97233117D01*
X129788881Y-97291389D01*
X129926044Y-97403956D01*
X130038611Y-97541119D01*
X130096883Y-97650139D01*
X130122257Y-97697611D01*
X130173766Y-97867412D01*
X130173767Y-97867416D01*
X130191159Y-98044000D01*
X130173767Y-98220584D01*
X130173766Y-98220587D01*
X130173766Y-98220588D01*
X130122257Y-98390389D01*
X130122256Y-98390390D01*
X130038611Y-98546881D01*
X129926044Y-98684044D01*
X129788881Y-98796611D01*
X129679861Y-98854883D01*
X129632389Y-98880257D01*
X129462588Y-98931766D01*
X129462587Y-98931766D01*
X129462584Y-98931767D01*
X129330255Y-98944800D01*
X129241745Y-98944800D01*
X129109416Y-98931767D01*
X129109413Y-98931766D01*
X129109412Y-98931766D01*
X128939611Y-98880257D01*
X128892139Y-98854883D01*
X128783119Y-98796611D01*
X128645956Y-98684044D01*
X128533389Y-98546881D01*
X128449744Y-98390390D01*
X128449743Y-98390389D01*
X128398234Y-98220588D01*
X128398234Y-98220587D01*
X128398233Y-98220584D01*
X128380841Y-98044000D01*
X128398233Y-97867416D01*
X128398234Y-97867412D01*
X128449743Y-97697611D01*
X128475117Y-97650139D01*
X128533389Y-97541119D01*
X128645956Y-97403956D01*
X128783119Y-97291389D01*
X128892139Y-97233117D01*
X128939611Y-97207743D01*
X129109412Y-97156234D01*
X129109413Y-97156234D01*
X129109416Y-97156233D01*
X129241745Y-97143200D01*
X129330255Y-97143200D01*
X129462584Y-97156233D01*
X129462584Y-97156233D01*
G37*
G36*
X132002584Y-97156233D02*
G01*
X132002587Y-97156234D01*
X132002588Y-97156234D01*
X132172389Y-97207743D01*
X132219861Y-97233117D01*
X132328881Y-97291389D01*
X132466044Y-97403956D01*
X132578611Y-97541119D01*
X132636883Y-97650139D01*
X132662257Y-97697611D01*
X132713766Y-97867412D01*
X132713767Y-97867416D01*
X132731159Y-98044000D01*
X132713767Y-98220584D01*
X132713766Y-98220587D01*
X132713766Y-98220588D01*
X132662257Y-98390389D01*
X132662256Y-98390390D01*
X132578611Y-98546881D01*
X132466044Y-98684044D01*
X132328881Y-98796611D01*
X132219861Y-98854883D01*
X132172389Y-98880257D01*
X132002588Y-98931766D01*
X132002587Y-98931766D01*
X132002584Y-98931767D01*
X131870255Y-98944800D01*
X131781745Y-98944800D01*
X131649416Y-98931767D01*
X131649413Y-98931766D01*
X131649412Y-98931766D01*
X131479611Y-98880257D01*
X131432139Y-98854883D01*
X131323119Y-98796611D01*
X131185956Y-98684044D01*
X131073389Y-98546881D01*
X130989744Y-98390390D01*
X130989743Y-98390389D01*
X130938234Y-98220588D01*
X130938234Y-98220587D01*
X130938233Y-98220584D01*
X130920841Y-98044000D01*
X130938233Y-97867416D01*
X130938234Y-97867412D01*
X130989743Y-97697611D01*
X131015117Y-97650139D01*
X131073389Y-97541119D01*
X131185956Y-97403956D01*
X131323119Y-97291389D01*
X131432139Y-97233117D01*
X131479611Y-97207743D01*
X131649412Y-97156234D01*
X131649413Y-97156234D01*
X131649416Y-97156233D01*
X131781745Y-97143200D01*
X131870255Y-97143200D01*
X132002584Y-97156233D01*
X132002584Y-97156233D01*
G37*
G36*
X134542584Y-97156233D02*
G01*
X134542587Y-97156234D01*
X134542588Y-97156234D01*
X134712389Y-97207743D01*
X134759861Y-97233117D01*
X134868881Y-97291389D01*
X135006044Y-97403956D01*
X135118611Y-97541119D01*
X135176883Y-97650139D01*
X135202257Y-97697611D01*
X135253766Y-97867412D01*
X135253767Y-97867416D01*
X135271159Y-98044000D01*
X135253767Y-98220584D01*
X135253766Y-98220587D01*
X135253766Y-98220588D01*
X135202257Y-98390389D01*
X135202256Y-98390390D01*
X135118611Y-98546881D01*
X135006044Y-98684044D01*
X134868881Y-98796611D01*
X134759861Y-98854883D01*
X134712389Y-98880257D01*
X134542588Y-98931766D01*
X134542587Y-98931766D01*
X134542584Y-98931767D01*
X134410255Y-98944800D01*
X134321745Y-98944800D01*
X134189416Y-98931767D01*
X134189413Y-98931766D01*
X134189412Y-98931766D01*
X134019611Y-98880257D01*
X133972139Y-98854883D01*
X133863119Y-98796611D01*
X133725956Y-98684044D01*
X133613389Y-98546881D01*
X133529744Y-98390390D01*
X133529743Y-98390389D01*
X133478234Y-98220588D01*
X133478234Y-98220587D01*
X133478233Y-98220584D01*
X133460841Y-98044000D01*
X133478233Y-97867416D01*
X133478234Y-97867412D01*
X133529743Y-97697611D01*
X133555117Y-97650139D01*
X133613389Y-97541119D01*
X133725956Y-97403956D01*
X133863119Y-97291389D01*
X133972139Y-97233117D01*
X134019611Y-97207743D01*
X134189412Y-97156234D01*
X134189413Y-97156234D01*
X134189416Y-97156233D01*
X134321745Y-97143200D01*
X134410255Y-97143200D01*
X134542584Y-97156233D01*
X134542584Y-97156233D01*
G37*
G36*
X137082584Y-97156233D02*
G01*
X137082587Y-97156234D01*
X137082588Y-97156234D01*
X137252389Y-97207743D01*
X137299861Y-97233117D01*
X137408881Y-97291389D01*
X137546044Y-97403956D01*
X137658611Y-97541119D01*
X137716883Y-97650139D01*
X137742257Y-97697611D01*
X137793766Y-97867412D01*
X137793767Y-97867416D01*
X137811159Y-98044000D01*
X137793767Y-98220584D01*
X137793766Y-98220587D01*
X137793766Y-98220588D01*
X137742257Y-98390389D01*
X137742256Y-98390390D01*
X137658611Y-98546881D01*
X137546044Y-98684044D01*
X137408881Y-98796611D01*
X137299861Y-98854883D01*
X137252389Y-98880257D01*
X137082588Y-98931766D01*
X137082587Y-98931766D01*
X137082584Y-98931767D01*
X136950255Y-98944800D01*
X136861745Y-98944800D01*
X136729416Y-98931767D01*
X136729413Y-98931766D01*
X136729412Y-98931766D01*
X136559611Y-98880257D01*
X136512139Y-98854883D01*
X136403119Y-98796611D01*
X136265956Y-98684044D01*
X136153389Y-98546881D01*
X136069744Y-98390390D01*
X136069743Y-98390389D01*
X136018234Y-98220588D01*
X136018234Y-98220587D01*
X136018233Y-98220584D01*
X136000841Y-98044000D01*
X136018233Y-97867416D01*
X136018234Y-97867412D01*
X136069743Y-97697611D01*
X136095117Y-97650139D01*
X136153389Y-97541119D01*
X136265956Y-97403956D01*
X136403119Y-97291389D01*
X136512139Y-97233117D01*
X136559611Y-97207743D01*
X136729412Y-97156234D01*
X136729413Y-97156234D01*
X136729416Y-97156233D01*
X136861745Y-97143200D01*
X136950255Y-97143200D01*
X137082584Y-97156233D01*
X137082584Y-97156233D01*
G37*
G36*
X139622584Y-97156233D02*
G01*
X139622587Y-97156234D01*
X139622588Y-97156234D01*
X139792389Y-97207743D01*
X139839861Y-97233117D01*
X139948881Y-97291389D01*
X140086044Y-97403956D01*
X140198611Y-97541119D01*
X140256883Y-97650139D01*
X140282257Y-97697611D01*
X140333766Y-97867412D01*
X140333767Y-97867416D01*
X140351159Y-98044000D01*
X140333767Y-98220584D01*
X140333766Y-98220587D01*
X140333766Y-98220588D01*
X140282257Y-98390389D01*
X140282256Y-98390390D01*
X140198611Y-98546881D01*
X140086044Y-98684044D01*
X139948881Y-98796611D01*
X139839861Y-98854883D01*
X139792389Y-98880257D01*
X139622588Y-98931766D01*
X139622587Y-98931766D01*
X139622584Y-98931767D01*
X139490255Y-98944800D01*
X139401745Y-98944800D01*
X139269416Y-98931767D01*
X139269413Y-98931766D01*
X139269412Y-98931766D01*
X139099611Y-98880257D01*
X139052139Y-98854883D01*
X138943119Y-98796611D01*
X138805956Y-98684044D01*
X138693389Y-98546881D01*
X138609744Y-98390390D01*
X138609743Y-98390389D01*
X138558234Y-98220588D01*
X138558234Y-98220587D01*
X138558233Y-98220584D01*
X138540841Y-98044000D01*
X138558233Y-97867416D01*
X138558234Y-97867412D01*
X138609743Y-97697611D01*
X138635117Y-97650139D01*
X138693389Y-97541119D01*
X138805956Y-97403956D01*
X138943119Y-97291389D01*
X139052139Y-97233117D01*
X139099611Y-97207743D01*
X139269412Y-97156234D01*
X139269413Y-97156234D01*
X139269416Y-97156233D01*
X139401745Y-97143200D01*
X139490255Y-97143200D01*
X139622584Y-97156233D01*
X139622584Y-97156233D01*
G37*
G36*
X142162584Y-97156233D02*
G01*
X142162587Y-97156234D01*
X142162588Y-97156234D01*
X142332389Y-97207743D01*
X142379861Y-97233117D01*
X142488881Y-97291389D01*
X142626044Y-97403956D01*
X142738611Y-97541119D01*
X142796883Y-97650139D01*
X142822257Y-97697611D01*
X142873766Y-97867412D01*
X142873767Y-97867416D01*
X142891159Y-98044000D01*
X142873767Y-98220584D01*
X142873766Y-98220587D01*
X142873766Y-98220588D01*
X142822257Y-98390389D01*
X142822256Y-98390390D01*
X142738611Y-98546881D01*
X142626044Y-98684044D01*
X142488881Y-98796611D01*
X142379861Y-98854883D01*
X142332389Y-98880257D01*
X142162588Y-98931766D01*
X142162587Y-98931766D01*
X142162584Y-98931767D01*
X142030255Y-98944800D01*
X141941745Y-98944800D01*
X141809416Y-98931767D01*
X141809413Y-98931766D01*
X141809412Y-98931766D01*
X141639611Y-98880257D01*
X141592139Y-98854883D01*
X141483119Y-98796611D01*
X141345956Y-98684044D01*
X141233389Y-98546881D01*
X141149744Y-98390390D01*
X141149743Y-98390389D01*
X141098234Y-98220588D01*
X141098234Y-98220587D01*
X141098233Y-98220584D01*
X141080841Y-98044000D01*
X141098233Y-97867416D01*
X141098234Y-97867412D01*
X141149743Y-97697611D01*
X141175117Y-97650139D01*
X141233389Y-97541119D01*
X141345956Y-97403956D01*
X141483119Y-97291389D01*
X141592139Y-97233117D01*
X141639611Y-97207743D01*
X141809412Y-97156234D01*
X141809413Y-97156234D01*
X141809416Y-97156233D01*
X141941745Y-97143200D01*
X142030255Y-97143200D01*
X142162584Y-97156233D01*
X142162584Y-97156233D01*
G37*
G36*
X144702584Y-97156233D02*
G01*
X144702587Y-97156234D01*
X144702588Y-97156234D01*
X144872389Y-97207743D01*
X144919861Y-97233117D01*
X145028881Y-97291389D01*
X145166044Y-97403956D01*
X145278611Y-97541119D01*
X145336883Y-97650139D01*
X145362257Y-97697611D01*
X145413766Y-97867412D01*
X145413767Y-97867416D01*
X145431159Y-98044000D01*
X145413767Y-98220584D01*
X145413766Y-98220587D01*
X145413766Y-98220588D01*
X145362257Y-98390389D01*
X145362256Y-98390390D01*
X145278611Y-98546881D01*
X145166044Y-98684044D01*
X145028881Y-98796611D01*
X144919861Y-98854883D01*
X144872389Y-98880257D01*
X144702588Y-98931766D01*
X144702587Y-98931766D01*
X144702584Y-98931767D01*
X144570255Y-98944800D01*
X144481745Y-98944800D01*
X144349416Y-98931767D01*
X144349413Y-98931766D01*
X144349412Y-98931766D01*
X144179611Y-98880257D01*
X144132139Y-98854883D01*
X144023119Y-98796611D01*
X143885956Y-98684044D01*
X143773389Y-98546881D01*
X143689744Y-98390390D01*
X143689743Y-98390389D01*
X143638234Y-98220588D01*
X143638234Y-98220587D01*
X143638233Y-98220584D01*
X143620841Y-98044000D01*
X143638233Y-97867416D01*
X143638234Y-97867412D01*
X143689743Y-97697611D01*
X143715117Y-97650139D01*
X143773389Y-97541119D01*
X143885956Y-97403956D01*
X144023119Y-97291389D01*
X144132139Y-97233117D01*
X144179611Y-97207743D01*
X144349412Y-97156234D01*
X144349413Y-97156234D01*
X144349416Y-97156233D01*
X144481745Y-97143200D01*
X144570255Y-97143200D01*
X144702584Y-97156233D01*
X144702584Y-97156233D01*
G37*
G36*
X152322584Y-97156233D02*
G01*
X152322587Y-97156234D01*
X152322588Y-97156234D01*
X152492389Y-97207743D01*
X152539861Y-97233117D01*
X152648881Y-97291389D01*
X152786044Y-97403956D01*
X152898611Y-97541119D01*
X152956883Y-97650139D01*
X152982257Y-97697611D01*
X153033766Y-97867412D01*
X153033767Y-97867416D01*
X153051159Y-98044000D01*
X153033767Y-98220584D01*
X153033766Y-98220587D01*
X153033766Y-98220588D01*
X152982257Y-98390389D01*
X152982256Y-98390390D01*
X152898611Y-98546881D01*
X152786044Y-98684044D01*
X152648881Y-98796611D01*
X152539861Y-98854883D01*
X152492389Y-98880257D01*
X152322588Y-98931766D01*
X152322587Y-98931766D01*
X152322584Y-98931767D01*
X152190255Y-98944800D01*
X152101745Y-98944800D01*
X151969416Y-98931767D01*
X151969413Y-98931766D01*
X151969412Y-98931766D01*
X151799611Y-98880257D01*
X151752139Y-98854883D01*
X151643119Y-98796611D01*
X151505956Y-98684044D01*
X151393389Y-98546881D01*
X151309744Y-98390390D01*
X151309743Y-98390389D01*
X151258234Y-98220588D01*
X151258234Y-98220587D01*
X151258233Y-98220584D01*
X151240841Y-98044000D01*
X151258233Y-97867416D01*
X151258234Y-97867412D01*
X151309743Y-97697611D01*
X151335117Y-97650139D01*
X151393389Y-97541119D01*
X151505956Y-97403956D01*
X151643119Y-97291389D01*
X151752139Y-97233117D01*
X151799611Y-97207743D01*
X151969412Y-97156234D01*
X151969413Y-97156234D01*
X151969416Y-97156233D01*
X152101745Y-97143200D01*
X152190255Y-97143200D01*
X152322584Y-97156233D01*
X152322584Y-97156233D01*
G37*
G36*
X154862584Y-97156233D02*
G01*
X154862587Y-97156234D01*
X154862588Y-97156234D01*
X155032389Y-97207743D01*
X155079861Y-97233117D01*
X155188881Y-97291389D01*
X155326044Y-97403956D01*
X155438611Y-97541119D01*
X155496883Y-97650139D01*
X155522257Y-97697611D01*
X155573766Y-97867412D01*
X155573767Y-97867416D01*
X155591159Y-98044000D01*
X155573767Y-98220584D01*
X155573766Y-98220587D01*
X155573766Y-98220588D01*
X155522257Y-98390389D01*
X155522256Y-98390390D01*
X155438611Y-98546881D01*
X155326044Y-98684044D01*
X155188881Y-98796611D01*
X155079861Y-98854883D01*
X155032389Y-98880257D01*
X154862588Y-98931766D01*
X154862587Y-98931766D01*
X154862584Y-98931767D01*
X154730255Y-98944800D01*
X154641745Y-98944800D01*
X154509416Y-98931767D01*
X154509413Y-98931766D01*
X154509412Y-98931766D01*
X154339611Y-98880257D01*
X154292139Y-98854883D01*
X154183119Y-98796611D01*
X154045956Y-98684044D01*
X153933389Y-98546881D01*
X153849744Y-98390390D01*
X153849743Y-98390389D01*
X153798234Y-98220588D01*
X153798234Y-98220587D01*
X153798233Y-98220584D01*
X153780841Y-98044000D01*
X153798233Y-97867416D01*
X153798234Y-97867412D01*
X153849743Y-97697611D01*
X153875117Y-97650139D01*
X153933389Y-97541119D01*
X154045956Y-97403956D01*
X154183119Y-97291389D01*
X154292139Y-97233117D01*
X154339611Y-97207743D01*
X154509412Y-97156234D01*
X154509413Y-97156234D01*
X154509416Y-97156233D01*
X154641745Y-97143200D01*
X154730255Y-97143200D01*
X154862584Y-97156233D01*
X154862584Y-97156233D01*
G37*
G36*
X157402584Y-97156233D02*
G01*
X157402587Y-97156234D01*
X157402588Y-97156234D01*
X157572389Y-97207743D01*
X157619861Y-97233117D01*
X157728881Y-97291389D01*
X157866044Y-97403956D01*
X157978611Y-97541119D01*
X158036883Y-97650139D01*
X158062257Y-97697611D01*
X158113766Y-97867412D01*
X158113767Y-97867416D01*
X158131159Y-98044000D01*
X158113767Y-98220584D01*
X158113766Y-98220587D01*
X158113766Y-98220588D01*
X158062257Y-98390389D01*
X158062256Y-98390390D01*
X157978611Y-98546881D01*
X157866044Y-98684044D01*
X157728881Y-98796611D01*
X157619861Y-98854883D01*
X157572389Y-98880257D01*
X157402588Y-98931766D01*
X157402587Y-98931766D01*
X157402584Y-98931767D01*
X157270255Y-98944800D01*
X157181745Y-98944800D01*
X157049416Y-98931767D01*
X157049413Y-98931766D01*
X157049412Y-98931766D01*
X156879611Y-98880257D01*
X156832139Y-98854883D01*
X156723119Y-98796611D01*
X156585956Y-98684044D01*
X156473389Y-98546881D01*
X156389744Y-98390390D01*
X156389743Y-98390389D01*
X156338234Y-98220588D01*
X156338234Y-98220587D01*
X156338233Y-98220584D01*
X156320841Y-98044000D01*
X156338233Y-97867416D01*
X156338234Y-97867412D01*
X156389743Y-97697611D01*
X156415117Y-97650139D01*
X156473389Y-97541119D01*
X156585956Y-97403956D01*
X156723119Y-97291389D01*
X156832139Y-97233117D01*
X156879611Y-97207743D01*
X157049412Y-97156234D01*
X157049413Y-97156234D01*
X157049416Y-97156233D01*
X157181745Y-97143200D01*
X157270255Y-97143200D01*
X157402584Y-97156233D01*
X157402584Y-97156233D01*
G37*
G36*
X159942584Y-97156233D02*
G01*
X159942587Y-97156234D01*
X159942588Y-97156234D01*
X160112389Y-97207743D01*
X160159861Y-97233117D01*
X160268881Y-97291389D01*
X160406044Y-97403956D01*
X160518611Y-97541119D01*
X160576883Y-97650139D01*
X160602257Y-97697611D01*
X160653766Y-97867412D01*
X160653767Y-97867416D01*
X160671159Y-98044000D01*
X160653767Y-98220584D01*
X160653766Y-98220587D01*
X160653766Y-98220588D01*
X160602257Y-98390389D01*
X160602256Y-98390390D01*
X160518611Y-98546881D01*
X160406044Y-98684044D01*
X160268881Y-98796611D01*
X160159861Y-98854883D01*
X160112389Y-98880257D01*
X159942588Y-98931766D01*
X159942587Y-98931766D01*
X159942584Y-98931767D01*
X159810255Y-98944800D01*
X159721745Y-98944800D01*
X159589416Y-98931767D01*
X159589413Y-98931766D01*
X159589412Y-98931766D01*
X159419611Y-98880257D01*
X159372139Y-98854883D01*
X159263119Y-98796611D01*
X159125956Y-98684044D01*
X159013389Y-98546881D01*
X158929744Y-98390390D01*
X158929743Y-98390389D01*
X158878234Y-98220588D01*
X158878234Y-98220587D01*
X158878233Y-98220584D01*
X158860841Y-98044000D01*
X158878233Y-97867416D01*
X158878234Y-97867412D01*
X158929743Y-97697611D01*
X158955117Y-97650139D01*
X159013389Y-97541119D01*
X159125956Y-97403956D01*
X159263119Y-97291389D01*
X159372139Y-97233117D01*
X159419611Y-97207743D01*
X159589412Y-97156234D01*
X159589413Y-97156234D01*
X159589416Y-97156233D01*
X159721745Y-97143200D01*
X159810255Y-97143200D01*
X159942584Y-97156233D01*
X159942584Y-97156233D01*
G37*
G36*
X162482584Y-97156233D02*
G01*
X162482587Y-97156234D01*
X162482588Y-97156234D01*
X162652389Y-97207743D01*
X162699861Y-97233117D01*
X162808881Y-97291389D01*
X162946044Y-97403956D01*
X163058611Y-97541119D01*
X163116883Y-97650139D01*
X163142257Y-97697611D01*
X163193766Y-97867412D01*
X163193767Y-97867416D01*
X163211159Y-98044000D01*
X163193767Y-98220584D01*
X163193766Y-98220587D01*
X163193766Y-98220588D01*
X163142257Y-98390389D01*
X163142256Y-98390390D01*
X163058611Y-98546881D01*
X162946044Y-98684044D01*
X162808881Y-98796611D01*
X162699861Y-98854883D01*
X162652389Y-98880257D01*
X162482588Y-98931766D01*
X162482587Y-98931766D01*
X162482584Y-98931767D01*
X162350255Y-98944800D01*
X162261745Y-98944800D01*
X162129416Y-98931767D01*
X162129413Y-98931766D01*
X162129412Y-98931766D01*
X161959611Y-98880257D01*
X161912139Y-98854883D01*
X161803119Y-98796611D01*
X161665956Y-98684044D01*
X161553389Y-98546881D01*
X161469744Y-98390390D01*
X161469743Y-98390389D01*
X161418234Y-98220588D01*
X161418234Y-98220587D01*
X161418233Y-98220584D01*
X161400841Y-98044000D01*
X161418233Y-97867416D01*
X161418234Y-97867412D01*
X161469743Y-97697611D01*
X161495117Y-97650139D01*
X161553389Y-97541119D01*
X161665956Y-97403956D01*
X161803119Y-97291389D01*
X161912139Y-97233117D01*
X161959611Y-97207743D01*
X162129412Y-97156234D01*
X162129413Y-97156234D01*
X162129416Y-97156233D01*
X162261745Y-97143200D01*
X162350255Y-97143200D01*
X162482584Y-97156233D01*
X162482584Y-97156233D01*
G37*
G36*
X121842584Y-97156233D02*
G01*
X121842587Y-97156234D01*
X121842588Y-97156234D01*
X122012389Y-97207743D01*
X122059861Y-97233117D01*
X122168881Y-97291389D01*
X122306044Y-97403956D01*
X122418611Y-97541119D01*
X122476883Y-97650139D01*
X122502257Y-97697611D01*
X122553766Y-97867412D01*
X122553767Y-97867416D01*
X122571159Y-98044000D01*
X122553767Y-98220584D01*
X122553766Y-98220587D01*
X122553766Y-98220588D01*
X122502257Y-98390389D01*
X122502256Y-98390390D01*
X122418611Y-98546881D01*
X122306044Y-98684044D01*
X122168881Y-98796611D01*
X122059861Y-98854883D01*
X122012389Y-98880257D01*
X121842588Y-98931766D01*
X121842587Y-98931766D01*
X121842584Y-98931767D01*
X121710255Y-98944800D01*
X121621745Y-98944800D01*
X121489416Y-98931767D01*
X121489413Y-98931766D01*
X121489412Y-98931766D01*
X121319611Y-98880257D01*
X121272139Y-98854883D01*
X121163119Y-98796611D01*
X121025956Y-98684044D01*
X120913389Y-98546881D01*
X120829744Y-98390390D01*
X120829743Y-98390389D01*
X120778234Y-98220588D01*
X120778234Y-98220587D01*
X120778233Y-98220584D01*
X120760841Y-98044000D01*
X120778233Y-97867416D01*
X120778234Y-97867412D01*
X120829743Y-97697611D01*
X120855117Y-97650139D01*
X120913389Y-97541119D01*
X121025956Y-97403956D01*
X121163119Y-97291389D01*
X121272139Y-97233117D01*
X121319611Y-97207743D01*
X121489412Y-97156234D01*
X121489413Y-97156234D01*
X121489416Y-97156233D01*
X121621745Y-97143200D01*
X121710255Y-97143200D01*
X121842584Y-97156233D01*
X121842584Y-97156233D01*
G37*
M02*
