G04 #@! TF.GenerationSoftware,KiCad,Pcbnew,(5.1.4)-1*
G04 #@! TF.CreationDate,2019-08-30T00:09:42-07:00*
G04 #@! TF.ProjectId,max_breakout,6d61785f-6272-4656-916b-6f75742e6b69,2.0*
G04 #@! TF.SameCoordinates,Original*
G04 #@! TF.FileFunction,Legend,Bot*
G04 #@! TF.FilePolarity,Positive*
%FSLAX46Y46*%
G04 Gerber Fmt 4.6, Leading zero omitted, Abs format (unit mm)*
G04 Created by KiCad (PCBNEW (5.1.4)-1) date 2019-08-30 00:09:42*
%MOMM*%
%LPD*%
G04 APERTURE LIST*
%ADD10C,0.152400*%
%ADD11C,0.120000*%
%ADD12C,0.150000*%
G04 APERTURE END LIST*
D10*
X124968000Y-102144285D02*
X125040571Y-102216857D01*
X124968000Y-102289428D01*
X124895428Y-102216857D01*
X124968000Y-102144285D01*
X124968000Y-102289428D01*
X152202847Y-119239695D02*
X152202847Y-118426895D01*
X151931914Y-119007466D01*
X151660980Y-118426895D01*
X151660980Y-119239695D01*
X151312638Y-119007466D02*
X150925590Y-119007466D01*
X151390047Y-119239695D02*
X151119114Y-118426895D01*
X150848180Y-119239695D01*
X150654657Y-118426895D02*
X150112790Y-119239695D01*
X150112790Y-118426895D02*
X150654657Y-119239695D01*
X149880561Y-118426895D02*
X149338695Y-118426895D01*
X149687038Y-119239695D01*
X148874238Y-118426895D02*
X148796828Y-118426895D01*
X148719419Y-118465600D01*
X148680714Y-118504304D01*
X148642009Y-118581714D01*
X148603304Y-118736533D01*
X148603304Y-118930057D01*
X148642009Y-119084876D01*
X148680714Y-119162285D01*
X148719419Y-119200990D01*
X148796828Y-119239695D01*
X148874238Y-119239695D01*
X148951647Y-119200990D01*
X148990352Y-119162285D01*
X149029057Y-119084876D01*
X149067761Y-118930057D01*
X149067761Y-118736533D01*
X149029057Y-118581714D01*
X148990352Y-118504304D01*
X148951647Y-118465600D01*
X148874238Y-118426895D01*
X148100142Y-118426895D02*
X148022733Y-118426895D01*
X147945323Y-118465600D01*
X147906619Y-118504304D01*
X147867914Y-118581714D01*
X147829209Y-118736533D01*
X147829209Y-118930057D01*
X147867914Y-119084876D01*
X147906619Y-119162285D01*
X147945323Y-119200990D01*
X148022733Y-119239695D01*
X148100142Y-119239695D01*
X148177552Y-119200990D01*
X148216257Y-119162285D01*
X148254961Y-119084876D01*
X148293666Y-118930057D01*
X148293666Y-118736533D01*
X148254961Y-118581714D01*
X148216257Y-118504304D01*
X148177552Y-118465600D01*
X148100142Y-118426895D01*
X147326047Y-118426895D02*
X147248638Y-118426895D01*
X147171228Y-118465600D01*
X147132523Y-118504304D01*
X147093819Y-118581714D01*
X147055114Y-118736533D01*
X147055114Y-118930057D01*
X147093819Y-119084876D01*
X147132523Y-119162285D01*
X147171228Y-119200990D01*
X147248638Y-119239695D01*
X147326047Y-119239695D01*
X147403457Y-119200990D01*
X147442161Y-119162285D01*
X147480866Y-119084876D01*
X147519571Y-118930057D01*
X147519571Y-118736533D01*
X147480866Y-118581714D01*
X147442161Y-118504304D01*
X147403457Y-118465600D01*
X147326047Y-118426895D01*
X146745476Y-119200990D02*
X146629361Y-119239695D01*
X146435838Y-119239695D01*
X146358428Y-119200990D01*
X146319723Y-119162285D01*
X146281019Y-119084876D01*
X146281019Y-119007466D01*
X146319723Y-118930057D01*
X146358428Y-118891352D01*
X146435838Y-118852647D01*
X146590657Y-118813942D01*
X146668066Y-118775238D01*
X146706771Y-118736533D01*
X146745476Y-118659123D01*
X146745476Y-118581714D01*
X146706771Y-118504304D01*
X146668066Y-118465600D01*
X146590657Y-118426895D01*
X146397133Y-118426895D01*
X146281019Y-118465600D01*
X145042466Y-118813942D02*
X144926352Y-118852647D01*
X144887647Y-118891352D01*
X144848942Y-118968761D01*
X144848942Y-119084876D01*
X144887647Y-119162285D01*
X144926352Y-119200990D01*
X145003761Y-119239695D01*
X145313400Y-119239695D01*
X145313400Y-118426895D01*
X145042466Y-118426895D01*
X144965057Y-118465600D01*
X144926352Y-118504304D01*
X144887647Y-118581714D01*
X144887647Y-118659123D01*
X144926352Y-118736533D01*
X144965057Y-118775238D01*
X145042466Y-118813942D01*
X145313400Y-118813942D01*
X144500600Y-119239695D02*
X144500600Y-118697828D01*
X144500600Y-118852647D02*
X144461895Y-118775238D01*
X144423190Y-118736533D01*
X144345780Y-118697828D01*
X144268371Y-118697828D01*
X143687800Y-119200990D02*
X143765209Y-119239695D01*
X143920028Y-119239695D01*
X143997438Y-119200990D01*
X144036142Y-119123580D01*
X144036142Y-118813942D01*
X143997438Y-118736533D01*
X143920028Y-118697828D01*
X143765209Y-118697828D01*
X143687800Y-118736533D01*
X143649095Y-118813942D01*
X143649095Y-118891352D01*
X144036142Y-118968761D01*
X142952409Y-119239695D02*
X142952409Y-118813942D01*
X142991114Y-118736533D01*
X143068523Y-118697828D01*
X143223342Y-118697828D01*
X143300752Y-118736533D01*
X142952409Y-119200990D02*
X143029819Y-119239695D01*
X143223342Y-119239695D01*
X143300752Y-119200990D01*
X143339457Y-119123580D01*
X143339457Y-119046171D01*
X143300752Y-118968761D01*
X143223342Y-118930057D01*
X143029819Y-118930057D01*
X142952409Y-118891352D01*
X142565361Y-119239695D02*
X142565361Y-118426895D01*
X142487952Y-118930057D02*
X142255723Y-119239695D01*
X142255723Y-118697828D02*
X142565361Y-119007466D01*
X141791266Y-119239695D02*
X141868676Y-119200990D01*
X141907380Y-119162285D01*
X141946085Y-119084876D01*
X141946085Y-118852647D01*
X141907380Y-118775238D01*
X141868676Y-118736533D01*
X141791266Y-118697828D01*
X141675152Y-118697828D01*
X141597742Y-118736533D01*
X141559038Y-118775238D01*
X141520333Y-118852647D01*
X141520333Y-119084876D01*
X141559038Y-119162285D01*
X141597742Y-119200990D01*
X141675152Y-119239695D01*
X141791266Y-119239695D01*
X140823647Y-118697828D02*
X140823647Y-119239695D01*
X141171990Y-118697828D02*
X141171990Y-119123580D01*
X141133285Y-119200990D01*
X141055876Y-119239695D01*
X140939761Y-119239695D01*
X140862352Y-119200990D01*
X140823647Y-119162285D01*
X140552714Y-118697828D02*
X140243076Y-118697828D01*
X140436600Y-118426895D02*
X140436600Y-119123580D01*
X140397895Y-119200990D01*
X140320485Y-119239695D01*
X140243076Y-119239695D01*
X139081933Y-118813942D02*
X138965819Y-118852647D01*
X138927114Y-118891352D01*
X138888409Y-118968761D01*
X138888409Y-119084876D01*
X138927114Y-119162285D01*
X138965819Y-119200990D01*
X139043228Y-119239695D01*
X139352866Y-119239695D01*
X139352866Y-118426895D01*
X139081933Y-118426895D01*
X139004523Y-118465600D01*
X138965819Y-118504304D01*
X138927114Y-118581714D01*
X138927114Y-118659123D01*
X138965819Y-118736533D01*
X139004523Y-118775238D01*
X139081933Y-118813942D01*
X139352866Y-118813942D01*
X138423952Y-119239695D02*
X138501361Y-119200990D01*
X138540066Y-119162285D01*
X138578771Y-119084876D01*
X138578771Y-118852647D01*
X138540066Y-118775238D01*
X138501361Y-118736533D01*
X138423952Y-118697828D01*
X138307838Y-118697828D01*
X138230428Y-118736533D01*
X138191723Y-118775238D01*
X138153019Y-118852647D01*
X138153019Y-119084876D01*
X138191723Y-119162285D01*
X138230428Y-119200990D01*
X138307838Y-119239695D01*
X138423952Y-119239695D01*
X137456333Y-119239695D02*
X137456333Y-118813942D01*
X137495038Y-118736533D01*
X137572447Y-118697828D01*
X137727266Y-118697828D01*
X137804676Y-118736533D01*
X137456333Y-119200990D02*
X137533742Y-119239695D01*
X137727266Y-119239695D01*
X137804676Y-119200990D01*
X137843380Y-119123580D01*
X137843380Y-119046171D01*
X137804676Y-118968761D01*
X137727266Y-118930057D01*
X137533742Y-118930057D01*
X137456333Y-118891352D01*
X137069285Y-119239695D02*
X137069285Y-118697828D01*
X137069285Y-118852647D02*
X137030580Y-118775238D01*
X136991876Y-118736533D01*
X136914466Y-118697828D01*
X136837057Y-118697828D01*
X136217780Y-119239695D02*
X136217780Y-118426895D01*
X136217780Y-119200990D02*
X136295190Y-119239695D01*
X136450009Y-119239695D01*
X136527419Y-119200990D01*
X136566123Y-119162285D01*
X136604828Y-119084876D01*
X136604828Y-118852647D01*
X136566123Y-118775238D01*
X136527419Y-118736533D01*
X136450009Y-118697828D01*
X136295190Y-118697828D01*
X136217780Y-118736533D01*
X135288866Y-118697828D02*
X135095342Y-119239695D01*
X134901819Y-118697828D01*
X134630885Y-118504304D02*
X134592180Y-118465600D01*
X134514771Y-118426895D01*
X134321247Y-118426895D01*
X134243838Y-118465600D01*
X134205133Y-118504304D01*
X134166428Y-118581714D01*
X134166428Y-118659123D01*
X134205133Y-118775238D01*
X134669590Y-119239695D01*
X134166428Y-119239695D01*
X133818085Y-119162285D02*
X133779380Y-119200990D01*
X133818085Y-119239695D01*
X133856790Y-119200990D01*
X133818085Y-119162285D01*
X133818085Y-119239695D01*
X133276219Y-118426895D02*
X133198809Y-118426895D01*
X133121400Y-118465600D01*
X133082695Y-118504304D01*
X133043990Y-118581714D01*
X133005285Y-118736533D01*
X133005285Y-118930057D01*
X133043990Y-119084876D01*
X133082695Y-119162285D01*
X133121400Y-119200990D01*
X133198809Y-119239695D01*
X133276219Y-119239695D01*
X133353628Y-119200990D01*
X133392333Y-119162285D01*
X133431038Y-119084876D01*
X133469742Y-118930057D01*
X133469742Y-118736533D01*
X133431038Y-118581714D01*
X133392333Y-118504304D01*
X133353628Y-118465600D01*
X133276219Y-118426895D01*
X132037666Y-119239695D02*
X132037666Y-118426895D01*
X132037666Y-118736533D02*
X131960257Y-118697828D01*
X131805438Y-118697828D01*
X131728028Y-118736533D01*
X131689323Y-118775238D01*
X131650619Y-118852647D01*
X131650619Y-119084876D01*
X131689323Y-119162285D01*
X131728028Y-119200990D01*
X131805438Y-119239695D01*
X131960257Y-119239695D01*
X132037666Y-119200990D01*
X131379685Y-118697828D02*
X131186161Y-119239695D01*
X130992638Y-118697828D02*
X131186161Y-119239695D01*
X131263571Y-119433219D01*
X131302276Y-119471923D01*
X131379685Y-119510628D01*
X130063723Y-119239695D02*
X130063723Y-118426895D01*
X130063723Y-118813942D02*
X129599266Y-118813942D01*
X129599266Y-119239695D02*
X129599266Y-118426895D01*
X129289628Y-118697828D02*
X129096104Y-119239695D01*
X128902580Y-118697828D02*
X129096104Y-119239695D01*
X129173514Y-119433219D01*
X129212219Y-119471923D01*
X129289628Y-119510628D01*
X128592942Y-119239695D02*
X128592942Y-118697828D01*
X128592942Y-118426895D02*
X128631647Y-118465600D01*
X128592942Y-118504304D01*
X128554238Y-118465600D01*
X128592942Y-118426895D01*
X128592942Y-118504304D01*
X127857552Y-118697828D02*
X127857552Y-119355809D01*
X127896257Y-119433219D01*
X127934961Y-119471923D01*
X128012371Y-119510628D01*
X128128485Y-119510628D01*
X128205895Y-119471923D01*
X127857552Y-119200990D02*
X127934961Y-119239695D01*
X128089780Y-119239695D01*
X128167190Y-119200990D01*
X128205895Y-119162285D01*
X128244600Y-119084876D01*
X128244600Y-118852647D01*
X128205895Y-118775238D01*
X128167190Y-118736533D01*
X128089780Y-118697828D01*
X127934961Y-118697828D01*
X127857552Y-118736533D01*
X127160866Y-119200990D02*
X127238276Y-119239695D01*
X127393095Y-119239695D01*
X127470504Y-119200990D01*
X127509209Y-119123580D01*
X127509209Y-118813942D01*
X127470504Y-118736533D01*
X127393095Y-118697828D01*
X127238276Y-118697828D01*
X127160866Y-118736533D01*
X127122161Y-118813942D01*
X127122161Y-118891352D01*
X127509209Y-118968761D01*
X126773819Y-119239695D02*
X126773819Y-118697828D01*
X126773819Y-118852647D02*
X126735114Y-118775238D01*
X126696409Y-118736533D01*
X126619000Y-118697828D01*
X126541590Y-118697828D01*
X125651380Y-119239695D02*
X125651380Y-118426895D01*
X125457857Y-118426895D01*
X125341742Y-118465600D01*
X125264333Y-118543009D01*
X125225628Y-118620419D01*
X125186923Y-118775238D01*
X125186923Y-118891352D01*
X125225628Y-119046171D01*
X125264333Y-119123580D01*
X125341742Y-119200990D01*
X125457857Y-119239695D01*
X125651380Y-119239695D01*
X124528942Y-119200990D02*
X124606352Y-119239695D01*
X124761171Y-119239695D01*
X124838580Y-119200990D01*
X124877285Y-119123580D01*
X124877285Y-118813942D01*
X124838580Y-118736533D01*
X124761171Y-118697828D01*
X124606352Y-118697828D01*
X124528942Y-118736533D01*
X124490238Y-118813942D01*
X124490238Y-118891352D01*
X124877285Y-118968761D01*
X124180600Y-119200990D02*
X124103190Y-119239695D01*
X123948371Y-119239695D01*
X123870961Y-119200990D01*
X123832257Y-119123580D01*
X123832257Y-119084876D01*
X123870961Y-119007466D01*
X123948371Y-118968761D01*
X124064485Y-118968761D01*
X124141895Y-118930057D01*
X124180600Y-118852647D01*
X124180600Y-118813942D01*
X124141895Y-118736533D01*
X124064485Y-118697828D01*
X123948371Y-118697828D01*
X123870961Y-118736533D01*
X123483914Y-119239695D02*
X123483914Y-118697828D01*
X123483914Y-118426895D02*
X123522619Y-118465600D01*
X123483914Y-118504304D01*
X123445209Y-118465600D01*
X123483914Y-118426895D01*
X123483914Y-118504304D01*
X122748523Y-118697828D02*
X122748523Y-119355809D01*
X122787228Y-119433219D01*
X122825933Y-119471923D01*
X122903342Y-119510628D01*
X123019457Y-119510628D01*
X123096866Y-119471923D01*
X122748523Y-119200990D02*
X122825933Y-119239695D01*
X122980752Y-119239695D01*
X123058161Y-119200990D01*
X123096866Y-119162285D01*
X123135571Y-119084876D01*
X123135571Y-118852647D01*
X123096866Y-118775238D01*
X123058161Y-118736533D01*
X122980752Y-118697828D01*
X122825933Y-118697828D01*
X122748523Y-118736533D01*
X122361476Y-118697828D02*
X122361476Y-119239695D01*
X122361476Y-118775238D02*
X122322771Y-118736533D01*
X122245361Y-118697828D01*
X122129247Y-118697828D01*
X122051838Y-118736533D01*
X122013133Y-118813942D01*
X122013133Y-119239695D01*
X121664790Y-119200990D02*
X121587380Y-119239695D01*
X121432561Y-119239695D01*
X121355152Y-119200990D01*
X121316447Y-119123580D01*
X121316447Y-119084876D01*
X121355152Y-119007466D01*
X121432561Y-118968761D01*
X121548676Y-118968761D01*
X121626085Y-118930057D01*
X121664790Y-118852647D01*
X121664790Y-118813942D01*
X121626085Y-118736533D01*
X121548676Y-118697828D01*
X121432561Y-118697828D01*
X121355152Y-118736533D01*
D11*
X133477000Y-114173000D02*
X133477000Y-104775000D01*
X142875000Y-114173000D02*
X133477000Y-114173000D01*
X142875000Y-104775000D02*
X142875000Y-114173000D01*
X133477000Y-104775000D02*
X142875000Y-104775000D01*
X114840936Y-100436000D02*
X116045064Y-100436000D01*
X114840936Y-102256000D02*
X116045064Y-102256000D01*
X128184000Y-106136000D02*
X128184000Y-103686000D01*
X131404000Y-104336000D02*
X131404000Y-106136000D01*
X112716000Y-96714000D02*
X112716000Y-98044000D01*
X114046000Y-96714000D02*
X112716000Y-96714000D01*
X115316000Y-96714000D02*
X115316000Y-99374000D01*
X115316000Y-99374000D02*
X163636000Y-99374000D01*
X115316000Y-96714000D02*
X163636000Y-96714000D01*
X163636000Y-96714000D02*
X163636000Y-99374000D01*
X112716000Y-119574000D02*
X112716000Y-120904000D01*
X114046000Y-119574000D02*
X112716000Y-119574000D01*
X115316000Y-119574000D02*
X115316000Y-122234000D01*
X115316000Y-122234000D02*
X163636000Y-122234000D01*
X115316000Y-119574000D02*
X163636000Y-119574000D01*
X163636000Y-119574000D02*
X163636000Y-122234000D01*
X115398733Y-108329000D02*
X115741267Y-108329000D01*
X115398733Y-109349000D02*
X115741267Y-109349000D01*
X128313000Y-110238000D02*
X130513000Y-110238000D01*
X128313000Y-116838000D02*
X130513000Y-116838000D01*
X121849000Y-105535000D02*
X120919000Y-105535000D01*
X118689000Y-105535000D02*
X119619000Y-105535000D01*
X118689000Y-105535000D02*
X118689000Y-103375000D01*
X121849000Y-105535000D02*
X121849000Y-104075000D01*
D12*
X126940000Y-110088000D02*
X120965000Y-110088000D01*
X125415000Y-116988000D02*
X120965000Y-116988000D01*
D11*
X116922733Y-112012000D02*
X117265267Y-112012000D01*
X116922733Y-113032000D02*
X117265267Y-113032000D01*
X144963000Y-116584000D02*
X144033000Y-116584000D01*
X141803000Y-116584000D02*
X142733000Y-116584000D01*
X141803000Y-116584000D02*
X141803000Y-114424000D01*
X144963000Y-116584000D02*
X144963000Y-115124000D01*
X146654733Y-117731000D02*
X146997267Y-117731000D01*
X146654733Y-116711000D02*
X146997267Y-116711000D01*
X113899000Y-106183000D02*
X113899000Y-103733000D01*
X117119000Y-104383000D02*
X117119000Y-106183000D01*
X162870000Y-103646000D02*
X162870000Y-102186000D01*
X159710000Y-103646000D02*
X159710000Y-101486000D01*
X159710000Y-103646000D02*
X160640000Y-103646000D01*
X162870000Y-103646000D02*
X161940000Y-103646000D01*
X155746267Y-110742000D02*
X155403733Y-110742000D01*
X155746267Y-111762000D02*
X155403733Y-111762000D01*
X117265267Y-111254000D02*
X116922733Y-111254000D01*
X117265267Y-110234000D02*
X116922733Y-110234000D01*
X155403733Y-109984000D02*
X155746267Y-109984000D01*
X155403733Y-108964000D02*
X155746267Y-108964000D01*
X157185000Y-104510000D02*
X157185000Y-106310000D01*
X153965000Y-106310000D02*
X153965000Y-103860000D01*
X155403733Y-101983000D02*
X155746267Y-101983000D01*
X155403733Y-100963000D02*
X155746267Y-100963000D01*
X119805267Y-100963000D02*
X119462733Y-100963000D01*
X119805267Y-101983000D02*
X119462733Y-101983000D01*
X129838267Y-108329000D02*
X129495733Y-108329000D01*
X129838267Y-109349000D02*
X129495733Y-109349000D01*
X146640733Y-115699000D02*
X146983267Y-115699000D01*
X146640733Y-114679000D02*
X146983267Y-114679000D01*
X125139267Y-108329000D02*
X124796733Y-108329000D01*
X125139267Y-109349000D02*
X124796733Y-109349000D01*
X160483733Y-116751000D02*
X160826267Y-116751000D01*
X160483733Y-117771000D02*
X160826267Y-117771000D01*
X155746267Y-113540000D02*
X155403733Y-113540000D01*
X155746267Y-112520000D02*
X155403733Y-112520000D01*
X146640733Y-113155000D02*
X146983267Y-113155000D01*
X146640733Y-114175000D02*
X146983267Y-114175000D01*
X146640733Y-106297000D02*
X146983267Y-106297000D01*
X146640733Y-107317000D02*
X146983267Y-107317000D01*
X146654733Y-108964000D02*
X146997267Y-108964000D01*
X146654733Y-109984000D02*
X146997267Y-109984000D01*
X146983267Y-104777000D02*
X146640733Y-104777000D01*
X146983267Y-103757000D02*
X146640733Y-103757000D01*
X118954733Y-108329000D02*
X119297267Y-108329000D01*
X118954733Y-109349000D02*
X119297267Y-109349000D01*
D10*
X117991466Y-103160285D02*
X118030171Y-103198990D01*
X118146285Y-103237695D01*
X118223695Y-103237695D01*
X118339809Y-103198990D01*
X118417219Y-103121580D01*
X118455923Y-103044171D01*
X118494628Y-102889352D01*
X118494628Y-102773238D01*
X118455923Y-102618419D01*
X118417219Y-102541009D01*
X118339809Y-102463600D01*
X118223695Y-102424895D01*
X118146285Y-102424895D01*
X118030171Y-102463600D01*
X117991466Y-102502304D01*
X117294780Y-102424895D02*
X117449600Y-102424895D01*
X117527009Y-102463600D01*
X117565714Y-102502304D01*
X117643123Y-102618419D01*
X117681828Y-102773238D01*
X117681828Y-103082876D01*
X117643123Y-103160285D01*
X117604419Y-103198990D01*
X117527009Y-103237695D01*
X117372190Y-103237695D01*
X117294780Y-103198990D01*
X117256076Y-103160285D01*
X117217371Y-103082876D01*
X117217371Y-102889352D01*
X117256076Y-102811942D01*
X117294780Y-102773238D01*
X117372190Y-102734533D01*
X117527009Y-102734533D01*
X117604419Y-102773238D01*
X117643123Y-102811942D01*
X117681828Y-102889352D01*
X127619276Y-104710895D02*
X127619276Y-105368876D01*
X127580571Y-105446285D01*
X127541866Y-105484990D01*
X127464457Y-105523695D01*
X127309638Y-105523695D01*
X127232228Y-105484990D01*
X127193523Y-105446285D01*
X127154819Y-105368876D01*
X127154819Y-104710895D01*
X126845180Y-104710895D02*
X126303314Y-104710895D01*
X126651657Y-105523695D01*
X113673466Y-107986285D02*
X113712171Y-108024990D01*
X113828285Y-108063695D01*
X113905695Y-108063695D01*
X114021809Y-108024990D01*
X114099219Y-107947580D01*
X114137923Y-107870171D01*
X114176628Y-107715352D01*
X114176628Y-107599238D01*
X114137923Y-107444419D01*
X114099219Y-107367009D01*
X114021809Y-107289600D01*
X113905695Y-107250895D01*
X113828285Y-107250895D01*
X113712171Y-107289600D01*
X113673466Y-107328304D01*
X113286419Y-108063695D02*
X113131600Y-108063695D01*
X113054190Y-108024990D01*
X113015485Y-107986285D01*
X112938076Y-107870171D01*
X112899371Y-107715352D01*
X112899371Y-107405714D01*
X112938076Y-107328304D01*
X112976780Y-107289600D01*
X113054190Y-107250895D01*
X113209009Y-107250895D01*
X113286419Y-107289600D01*
X113325123Y-107328304D01*
X113363828Y-107405714D01*
X113363828Y-107599238D01*
X113325123Y-107676647D01*
X113286419Y-107715352D01*
X113209009Y-107754057D01*
X113054190Y-107754057D01*
X112976780Y-107715352D01*
X112938076Y-107676647D01*
X112899371Y-107599238D01*
X132387219Y-113905695D02*
X132658152Y-113518647D01*
X132851676Y-113905695D02*
X132851676Y-113092895D01*
X132542038Y-113092895D01*
X132464628Y-113131600D01*
X132425923Y-113170304D01*
X132387219Y-113247714D01*
X132387219Y-113363828D01*
X132425923Y-113441238D01*
X132464628Y-113479942D01*
X132542038Y-113518647D01*
X132851676Y-113518647D01*
X132038876Y-113905695D02*
X132038876Y-113092895D01*
X131574419Y-113905695D01*
X131574419Y-113092895D01*
X130761619Y-113905695D02*
X131226076Y-113905695D01*
X130993847Y-113905695D02*
X130993847Y-113092895D01*
X131071257Y-113209009D01*
X131148666Y-113286419D01*
X131226076Y-113325123D01*
X123428276Y-104329895D02*
X123428276Y-104987876D01*
X123389571Y-105065285D01*
X123350866Y-105103990D01*
X123273457Y-105142695D01*
X123118638Y-105142695D01*
X123041228Y-105103990D01*
X123002523Y-105065285D01*
X122963819Y-104987876D01*
X122963819Y-104329895D01*
X122151019Y-105142695D02*
X122615476Y-105142695D01*
X122383247Y-105142695D02*
X122383247Y-104329895D01*
X122460657Y-104446009D01*
X122538066Y-104523419D01*
X122615476Y-104562123D01*
X118729276Y-116140895D02*
X118729276Y-116798876D01*
X118690571Y-116876285D01*
X118651866Y-116914990D01*
X118574457Y-116953695D01*
X118419638Y-116953695D01*
X118342228Y-116914990D01*
X118303523Y-116876285D01*
X118264819Y-116798876D01*
X118264819Y-116140895D01*
X117529428Y-116140895D02*
X117684247Y-116140895D01*
X117761657Y-116179600D01*
X117800361Y-116218304D01*
X117877771Y-116334419D01*
X117916476Y-116489238D01*
X117916476Y-116798876D01*
X117877771Y-116876285D01*
X117839066Y-116914990D01*
X117761657Y-116953695D01*
X117606838Y-116953695D01*
X117529428Y-116914990D01*
X117490723Y-116876285D01*
X117452019Y-116798876D01*
X117452019Y-116605352D01*
X117490723Y-116527942D01*
X117529428Y-116489238D01*
X117606838Y-116450533D01*
X117761657Y-116450533D01*
X117839066Y-116489238D01*
X117877771Y-116527942D01*
X117916476Y-116605352D01*
X117616514Y-114413695D02*
X117887447Y-114026647D01*
X118080971Y-114413695D02*
X118080971Y-113600895D01*
X117771333Y-113600895D01*
X117693923Y-113639600D01*
X117655219Y-113678304D01*
X117616514Y-113755714D01*
X117616514Y-113871828D01*
X117655219Y-113949238D01*
X117693923Y-113987942D01*
X117771333Y-114026647D01*
X118080971Y-114026647D01*
X116842419Y-114413695D02*
X117306876Y-114413695D01*
X117074647Y-114413695D02*
X117074647Y-113600895D01*
X117152057Y-113717009D01*
X117229466Y-113794419D01*
X117306876Y-113833123D01*
X116107028Y-113600895D02*
X116494076Y-113600895D01*
X116532780Y-113987942D01*
X116494076Y-113949238D01*
X116416666Y-113910533D01*
X116223142Y-113910533D01*
X116145733Y-113949238D01*
X116107028Y-113987942D01*
X116068323Y-114065352D01*
X116068323Y-114258876D01*
X116107028Y-114336285D01*
X116145733Y-114374990D01*
X116223142Y-114413695D01*
X116416666Y-114413695D01*
X116494076Y-114374990D01*
X116532780Y-114336285D01*
X140818809Y-116223104D02*
X140896219Y-116184400D01*
X140973628Y-116106990D01*
X141089742Y-115990876D01*
X141167152Y-115952171D01*
X141244561Y-115952171D01*
X141205857Y-116145695D02*
X141283266Y-116106990D01*
X141360676Y-116029580D01*
X141399380Y-115874761D01*
X141399380Y-115603828D01*
X141360676Y-115449009D01*
X141283266Y-115371600D01*
X141205857Y-115332895D01*
X141051038Y-115332895D01*
X140973628Y-115371600D01*
X140896219Y-115449009D01*
X140857514Y-115603828D01*
X140857514Y-115874761D01*
X140896219Y-116029580D01*
X140973628Y-116106990D01*
X141051038Y-116145695D01*
X141205857Y-116145695D01*
X140083419Y-116145695D02*
X140547876Y-116145695D01*
X140315647Y-116145695D02*
X140315647Y-115332895D01*
X140393057Y-115449009D01*
X140470466Y-115526419D01*
X140547876Y-115565123D01*
X149487466Y-117715695D02*
X149758400Y-117328647D01*
X149951923Y-117715695D02*
X149951923Y-116902895D01*
X149642285Y-116902895D01*
X149564876Y-116941600D01*
X149526171Y-116980304D01*
X149487466Y-117057714D01*
X149487466Y-117173828D01*
X149526171Y-117251238D01*
X149564876Y-117289942D01*
X149642285Y-117328647D01*
X149951923Y-117328647D01*
X149023009Y-117251238D02*
X149100419Y-117212533D01*
X149139123Y-117173828D01*
X149177828Y-117096419D01*
X149177828Y-117057714D01*
X149139123Y-116980304D01*
X149100419Y-116941600D01*
X149023009Y-116902895D01*
X148868190Y-116902895D01*
X148790780Y-116941600D01*
X148752076Y-116980304D01*
X148713371Y-117057714D01*
X148713371Y-117096419D01*
X148752076Y-117173828D01*
X148790780Y-117212533D01*
X148868190Y-117251238D01*
X149023009Y-117251238D01*
X149100419Y-117289942D01*
X149139123Y-117328647D01*
X149177828Y-117406057D01*
X149177828Y-117560876D01*
X149139123Y-117638285D01*
X149100419Y-117676990D01*
X149023009Y-117715695D01*
X148868190Y-117715695D01*
X148790780Y-117676990D01*
X148752076Y-117638285D01*
X148713371Y-117560876D01*
X148713371Y-117406057D01*
X148752076Y-117328647D01*
X148790780Y-117289942D01*
X148868190Y-117251238D01*
X118668276Y-104837895D02*
X118668276Y-105495876D01*
X118629571Y-105573285D01*
X118590866Y-105611990D01*
X118513457Y-105650695D01*
X118358638Y-105650695D01*
X118281228Y-105611990D01*
X118242523Y-105573285D01*
X118203819Y-105495876D01*
X118203819Y-104837895D01*
X117429723Y-104837895D02*
X117816771Y-104837895D01*
X117855476Y-105224942D01*
X117816771Y-105186238D01*
X117739361Y-105147533D01*
X117545838Y-105147533D01*
X117468428Y-105186238D01*
X117429723Y-105224942D01*
X117391019Y-105302352D01*
X117391019Y-105495876D01*
X117429723Y-105573285D01*
X117468428Y-105611990D01*
X117545838Y-105650695D01*
X117739361Y-105650695D01*
X117816771Y-105611990D01*
X117855476Y-105573285D01*
X159115276Y-102394895D02*
X159115276Y-103052876D01*
X159076571Y-103130285D01*
X159037866Y-103168990D01*
X158960457Y-103207695D01*
X158805638Y-103207695D01*
X158728228Y-103168990D01*
X158689523Y-103130285D01*
X158650819Y-103052876D01*
X158650819Y-102394895D01*
X158341180Y-102394895D02*
X157838019Y-102394895D01*
X158108952Y-102704533D01*
X157992838Y-102704533D01*
X157915428Y-102743238D01*
X157876723Y-102781942D01*
X157838019Y-102859352D01*
X157838019Y-103052876D01*
X157876723Y-103130285D01*
X157915428Y-103168990D01*
X157992838Y-103207695D01*
X158225066Y-103207695D01*
X158302476Y-103168990D01*
X158341180Y-103130285D01*
X159145514Y-111542285D02*
X159184219Y-111580990D01*
X159300333Y-111619695D01*
X159377742Y-111619695D01*
X159493857Y-111580990D01*
X159571266Y-111503580D01*
X159609971Y-111426171D01*
X159648676Y-111271352D01*
X159648676Y-111155238D01*
X159609971Y-111000419D01*
X159571266Y-110923009D01*
X159493857Y-110845600D01*
X159377742Y-110806895D01*
X159300333Y-110806895D01*
X159184219Y-110845600D01*
X159145514Y-110884304D01*
X158371419Y-111619695D02*
X158835876Y-111619695D01*
X158603647Y-111619695D02*
X158603647Y-110806895D01*
X158681057Y-110923009D01*
X158758466Y-111000419D01*
X158835876Y-111039123D01*
X158100485Y-110806895D02*
X157597323Y-110806895D01*
X157868257Y-111116533D01*
X157752142Y-111116533D01*
X157674733Y-111155238D01*
X157636028Y-111193942D01*
X157597323Y-111271352D01*
X157597323Y-111464876D01*
X157636028Y-111542285D01*
X157674733Y-111580990D01*
X157752142Y-111619695D01*
X157984371Y-111619695D01*
X158061780Y-111580990D01*
X158100485Y-111542285D01*
X114689466Y-111034285D02*
X114728171Y-111072990D01*
X114844285Y-111111695D01*
X114921695Y-111111695D01*
X115037809Y-111072990D01*
X115115219Y-110995580D01*
X115153923Y-110918171D01*
X115192628Y-110763352D01*
X115192628Y-110647238D01*
X115153923Y-110492419D01*
X115115219Y-110415009D01*
X115037809Y-110337600D01*
X114921695Y-110298895D01*
X114844285Y-110298895D01*
X114728171Y-110337600D01*
X114689466Y-110376304D01*
X114418533Y-110298895D02*
X113876666Y-110298895D01*
X114225009Y-111111695D01*
X159145514Y-108748285D02*
X159184219Y-108786990D01*
X159300333Y-108825695D01*
X159377742Y-108825695D01*
X159493857Y-108786990D01*
X159571266Y-108709580D01*
X159609971Y-108632171D01*
X159648676Y-108477352D01*
X159648676Y-108361238D01*
X159609971Y-108206419D01*
X159571266Y-108129009D01*
X159493857Y-108051600D01*
X159377742Y-108012895D01*
X159300333Y-108012895D01*
X159184219Y-108051600D01*
X159145514Y-108090304D01*
X158371419Y-108825695D02*
X158835876Y-108825695D01*
X158603647Y-108825695D02*
X158603647Y-108012895D01*
X158681057Y-108129009D01*
X158758466Y-108206419D01*
X158835876Y-108245123D01*
X157868257Y-108012895D02*
X157790847Y-108012895D01*
X157713438Y-108051600D01*
X157674733Y-108090304D01*
X157636028Y-108167714D01*
X157597323Y-108322533D01*
X157597323Y-108516057D01*
X157636028Y-108670876D01*
X157674733Y-108748285D01*
X157713438Y-108786990D01*
X157790847Y-108825695D01*
X157868257Y-108825695D01*
X157945666Y-108786990D01*
X157984371Y-108748285D01*
X158023076Y-108670876D01*
X158061780Y-108516057D01*
X158061780Y-108322533D01*
X158023076Y-108167714D01*
X157984371Y-108090304D01*
X157945666Y-108051600D01*
X157868257Y-108012895D01*
X158988276Y-104964895D02*
X158988276Y-105622876D01*
X158949571Y-105700285D01*
X158910866Y-105738990D01*
X158833457Y-105777695D01*
X158678638Y-105777695D01*
X158601228Y-105738990D01*
X158562523Y-105700285D01*
X158523819Y-105622876D01*
X158523819Y-104964895D01*
X157788428Y-105235828D02*
X157788428Y-105777695D01*
X157981952Y-104926190D02*
X158175476Y-105506761D01*
X157672314Y-105506761D01*
X153043466Y-101763285D02*
X153082171Y-101801990D01*
X153198285Y-101840695D01*
X153275695Y-101840695D01*
X153391809Y-101801990D01*
X153469219Y-101724580D01*
X153507923Y-101647171D01*
X153546628Y-101492352D01*
X153546628Y-101376238D01*
X153507923Y-101221419D01*
X153469219Y-101144009D01*
X153391809Y-101066600D01*
X153275695Y-101027895D01*
X153198285Y-101027895D01*
X153082171Y-101066600D01*
X153043466Y-101105304D01*
X152579009Y-101376238D02*
X152656419Y-101337533D01*
X152695123Y-101298828D01*
X152733828Y-101221419D01*
X152733828Y-101182714D01*
X152695123Y-101105304D01*
X152656419Y-101066600D01*
X152579009Y-101027895D01*
X152424190Y-101027895D01*
X152346780Y-101066600D01*
X152308076Y-101105304D01*
X152269371Y-101182714D01*
X152269371Y-101221419D01*
X152308076Y-101298828D01*
X152346780Y-101337533D01*
X152424190Y-101376238D01*
X152579009Y-101376238D01*
X152656419Y-101414942D01*
X152695123Y-101453647D01*
X152733828Y-101531057D01*
X152733828Y-101685876D01*
X152695123Y-101763285D01*
X152656419Y-101801990D01*
X152579009Y-101840695D01*
X152424190Y-101840695D01*
X152346780Y-101801990D01*
X152308076Y-101763285D01*
X152269371Y-101685876D01*
X152269371Y-101531057D01*
X152308076Y-101453647D01*
X152346780Y-101414942D01*
X152424190Y-101376238D01*
X122950514Y-101840695D02*
X123221447Y-101453647D01*
X123414971Y-101840695D02*
X123414971Y-101027895D01*
X123105333Y-101027895D01*
X123027923Y-101066600D01*
X122989219Y-101105304D01*
X122950514Y-101182714D01*
X122950514Y-101298828D01*
X122989219Y-101376238D01*
X123027923Y-101414942D01*
X123105333Y-101453647D01*
X123414971Y-101453647D01*
X122176419Y-101840695D02*
X122640876Y-101840695D01*
X122408647Y-101840695D02*
X122408647Y-101027895D01*
X122486057Y-101144009D01*
X122563466Y-101221419D01*
X122640876Y-101260123D01*
X121711961Y-101376238D02*
X121789371Y-101337533D01*
X121828076Y-101298828D01*
X121866780Y-101221419D01*
X121866780Y-101182714D01*
X121828076Y-101105304D01*
X121789371Y-101066600D01*
X121711961Y-101027895D01*
X121557142Y-101027895D01*
X121479733Y-101066600D01*
X121441028Y-101105304D01*
X121402323Y-101182714D01*
X121402323Y-101221419D01*
X121441028Y-101298828D01*
X121479733Y-101337533D01*
X121557142Y-101376238D01*
X121711961Y-101376238D01*
X121789371Y-101414942D01*
X121828076Y-101453647D01*
X121866780Y-101531057D01*
X121866780Y-101685876D01*
X121828076Y-101763285D01*
X121789371Y-101801990D01*
X121711961Y-101840695D01*
X121557142Y-101840695D01*
X121479733Y-101801990D01*
X121441028Y-101763285D01*
X121402323Y-101685876D01*
X121402323Y-101531057D01*
X121441028Y-101453647D01*
X121479733Y-101414942D01*
X121557142Y-101376238D01*
X132215466Y-109206695D02*
X132486400Y-108819647D01*
X132679923Y-109206695D02*
X132679923Y-108393895D01*
X132370285Y-108393895D01*
X132292876Y-108432600D01*
X132254171Y-108471304D01*
X132215466Y-108548714D01*
X132215466Y-108664828D01*
X132254171Y-108742238D01*
X132292876Y-108780942D01*
X132370285Y-108819647D01*
X132679923Y-108819647D01*
X131828419Y-109206695D02*
X131673600Y-109206695D01*
X131596190Y-109167990D01*
X131557485Y-109129285D01*
X131480076Y-109013171D01*
X131441371Y-108858352D01*
X131441371Y-108548714D01*
X131480076Y-108471304D01*
X131518780Y-108432600D01*
X131596190Y-108393895D01*
X131751009Y-108393895D01*
X131828419Y-108432600D01*
X131867123Y-108471304D01*
X131905828Y-108548714D01*
X131905828Y-108742238D01*
X131867123Y-108819647D01*
X131828419Y-108858352D01*
X131751009Y-108897057D01*
X131596190Y-108897057D01*
X131518780Y-108858352D01*
X131480076Y-108819647D01*
X131441371Y-108742238D01*
X149487466Y-116445695D02*
X149758400Y-116058647D01*
X149951923Y-116445695D02*
X149951923Y-115632895D01*
X149642285Y-115632895D01*
X149564876Y-115671600D01*
X149526171Y-115710304D01*
X149487466Y-115787714D01*
X149487466Y-115903828D01*
X149526171Y-115981238D01*
X149564876Y-116019942D01*
X149642285Y-116058647D01*
X149951923Y-116058647D01*
X149216533Y-115632895D02*
X148674666Y-115632895D01*
X149023009Y-116445695D01*
X127643466Y-109129285D02*
X127682171Y-109167990D01*
X127798285Y-109206695D01*
X127875695Y-109206695D01*
X127991809Y-109167990D01*
X128069219Y-109090580D01*
X128107923Y-109013171D01*
X128146628Y-108858352D01*
X128146628Y-108742238D01*
X128107923Y-108587419D01*
X128069219Y-108510009D01*
X127991809Y-108432600D01*
X127875695Y-108393895D01*
X127798285Y-108393895D01*
X127682171Y-108432600D01*
X127643466Y-108471304D01*
X126869371Y-109206695D02*
X127333828Y-109206695D01*
X127101600Y-109206695D02*
X127101600Y-108393895D01*
X127179009Y-108510009D01*
X127256419Y-108587419D01*
X127333828Y-108626123D01*
X158250466Y-117628695D02*
X158521400Y-117241647D01*
X158714923Y-117628695D02*
X158714923Y-116815895D01*
X158405285Y-116815895D01*
X158327876Y-116854600D01*
X158289171Y-116893304D01*
X158250466Y-116970714D01*
X158250466Y-117086828D01*
X158289171Y-117164238D01*
X158327876Y-117202942D01*
X158405285Y-117241647D01*
X158714923Y-117241647D01*
X157553780Y-116815895D02*
X157708600Y-116815895D01*
X157786009Y-116854600D01*
X157824714Y-116893304D01*
X157902123Y-117009419D01*
X157940828Y-117164238D01*
X157940828Y-117473876D01*
X157902123Y-117551285D01*
X157863419Y-117589990D01*
X157786009Y-117628695D01*
X157631190Y-117628695D01*
X157553780Y-117589990D01*
X157515076Y-117551285D01*
X157476371Y-117473876D01*
X157476371Y-117280352D01*
X157515076Y-117202942D01*
X157553780Y-117164238D01*
X157631190Y-117125533D01*
X157786009Y-117125533D01*
X157863419Y-117164238D01*
X157902123Y-117202942D01*
X157940828Y-117280352D01*
X159145514Y-114413695D02*
X159416447Y-114026647D01*
X159609971Y-114413695D02*
X159609971Y-113600895D01*
X159300333Y-113600895D01*
X159222923Y-113639600D01*
X159184219Y-113678304D01*
X159145514Y-113755714D01*
X159145514Y-113871828D01*
X159184219Y-113949238D01*
X159222923Y-113987942D01*
X159300333Y-114026647D01*
X159609971Y-114026647D01*
X158371419Y-114413695D02*
X158835876Y-114413695D01*
X158603647Y-114413695D02*
X158603647Y-113600895D01*
X158681057Y-113717009D01*
X158758466Y-113794419D01*
X158835876Y-113833123D01*
X157674733Y-113600895D02*
X157829552Y-113600895D01*
X157906961Y-113639600D01*
X157945666Y-113678304D01*
X158023076Y-113794419D01*
X158061780Y-113949238D01*
X158061780Y-114258876D01*
X158023076Y-114336285D01*
X157984371Y-114374990D01*
X157906961Y-114413695D01*
X157752142Y-114413695D01*
X157674733Y-114374990D01*
X157636028Y-114336285D01*
X157597323Y-114258876D01*
X157597323Y-114065352D01*
X157636028Y-113987942D01*
X157674733Y-113949238D01*
X157752142Y-113910533D01*
X157906961Y-113910533D01*
X157984371Y-113949238D01*
X158023076Y-113987942D01*
X158061780Y-114065352D01*
X144407466Y-114032695D02*
X144678400Y-113645647D01*
X144871923Y-114032695D02*
X144871923Y-113219895D01*
X144562285Y-113219895D01*
X144484876Y-113258600D01*
X144446171Y-113297304D01*
X144407466Y-113374714D01*
X144407466Y-113490828D01*
X144446171Y-113568238D01*
X144484876Y-113606942D01*
X144562285Y-113645647D01*
X144871923Y-113645647D01*
X143710780Y-113490828D02*
X143710780Y-114032695D01*
X143904304Y-113181190D02*
X144097828Y-113761761D01*
X143594666Y-113761761D01*
X144407466Y-107174695D02*
X144678400Y-106787647D01*
X144871923Y-107174695D02*
X144871923Y-106361895D01*
X144562285Y-106361895D01*
X144484876Y-106400600D01*
X144446171Y-106439304D01*
X144407466Y-106516714D01*
X144407466Y-106632828D01*
X144446171Y-106710238D01*
X144484876Y-106748942D01*
X144562285Y-106787647D01*
X144871923Y-106787647D01*
X144136533Y-106361895D02*
X143633371Y-106361895D01*
X143904304Y-106671533D01*
X143788190Y-106671533D01*
X143710780Y-106710238D01*
X143672076Y-106748942D01*
X143633371Y-106826352D01*
X143633371Y-107019876D01*
X143672076Y-107097285D01*
X143710780Y-107135990D01*
X143788190Y-107174695D01*
X144020419Y-107174695D01*
X144097828Y-107135990D01*
X144136533Y-107097285D01*
X144421466Y-109841695D02*
X144692400Y-109454647D01*
X144885923Y-109841695D02*
X144885923Y-109028895D01*
X144576285Y-109028895D01*
X144498876Y-109067600D01*
X144460171Y-109106304D01*
X144421466Y-109183714D01*
X144421466Y-109299828D01*
X144460171Y-109377238D01*
X144498876Y-109415942D01*
X144576285Y-109454647D01*
X144885923Y-109454647D01*
X144111828Y-109106304D02*
X144073123Y-109067600D01*
X143995714Y-109028895D01*
X143802190Y-109028895D01*
X143724780Y-109067600D01*
X143686076Y-109106304D01*
X143647371Y-109183714D01*
X143647371Y-109261123D01*
X143686076Y-109377238D01*
X144150533Y-109841695D01*
X143647371Y-109841695D01*
X144407466Y-104634695D02*
X144678400Y-104247647D01*
X144871923Y-104634695D02*
X144871923Y-103821895D01*
X144562285Y-103821895D01*
X144484876Y-103860600D01*
X144446171Y-103899304D01*
X144407466Y-103976714D01*
X144407466Y-104092828D01*
X144446171Y-104170238D01*
X144484876Y-104208942D01*
X144562285Y-104247647D01*
X144871923Y-104247647D01*
X143633371Y-104634695D02*
X144097828Y-104634695D01*
X143865600Y-104634695D02*
X143865600Y-103821895D01*
X143943009Y-103938009D01*
X144020419Y-104015419D01*
X144097828Y-104054123D01*
X119648514Y-107859285D02*
X119687219Y-107897990D01*
X119803333Y-107936695D01*
X119880742Y-107936695D01*
X119996857Y-107897990D01*
X120074266Y-107820580D01*
X120112971Y-107743171D01*
X120151676Y-107588352D01*
X120151676Y-107472238D01*
X120112971Y-107317419D01*
X120074266Y-107240009D01*
X119996857Y-107162600D01*
X119880742Y-107123895D01*
X119803333Y-107123895D01*
X119687219Y-107162600D01*
X119648514Y-107201304D01*
X118874419Y-107936695D02*
X119338876Y-107936695D01*
X119106647Y-107936695D02*
X119106647Y-107123895D01*
X119184057Y-107240009D01*
X119261466Y-107317419D01*
X119338876Y-107356123D01*
X118564780Y-107201304D02*
X118526076Y-107162600D01*
X118448666Y-107123895D01*
X118255142Y-107123895D01*
X118177733Y-107162600D01*
X118139028Y-107201304D01*
X118100323Y-107278714D01*
X118100323Y-107356123D01*
X118139028Y-107472238D01*
X118603485Y-107936695D01*
X118100323Y-107936695D01*
M02*
