G04 #@! TF.GenerationSoftware,KiCad,Pcbnew,(5.1.0-1387-g9cf427c7d)*
G04 #@! TF.CreationDate,2019-07-30T13:41:10-07:00*
G04 #@! TF.ProjectId,max_breakout,6d61785f-6272-4656-916b-6f75742e6b69,1.1*
G04 #@! TF.SameCoordinates,Original*
G04 #@! TF.FileFunction,Paste,Bot*
G04 #@! TF.FilePolarity,Positive*
%FSLAX46Y46*%
G04 Gerber Fmt 4.6, Leading zero omitted, Abs format (unit mm)*
G04 Created by KiCad (PCBNEW (5.1.0-1387-g9cf427c7d)) date 2019-07-30 13:41:10*
%MOMM*%
%LPD*%
G04 APERTURE LIST*
%ADD10C,0.100000*%
%ADD11C,0.950000*%
%ADD12R,0.400000X1.100000*%
%ADD13R,0.650000X1.560000*%
%ADD14R,0.800000X0.900000*%
G04 APERTURE END LIST*
D10*
G36*
X146795387Y-116637079D02*
G01*
X146872438Y-116688562D01*
X146923921Y-116765613D01*
X146942000Y-116856500D01*
X146942000Y-117331500D01*
X146923921Y-117422387D01*
X146872438Y-117499438D01*
X146795387Y-117550921D01*
X146704500Y-117569000D01*
X146129500Y-117569000D01*
X146038613Y-117550921D01*
X145961562Y-117499438D01*
X145910079Y-117422387D01*
X145892000Y-117331500D01*
X145892000Y-116856500D01*
X145910079Y-116765613D01*
X145961562Y-116688562D01*
X146038613Y-116637079D01*
X146129500Y-116619000D01*
X146704500Y-116619000D01*
X146795387Y-116637079D01*
X146795387Y-116637079D01*
G37*
D11*
X146417000Y-117094000D03*
D10*
G36*
X145045387Y-116637079D02*
G01*
X145122438Y-116688562D01*
X145173921Y-116765613D01*
X145192000Y-116856500D01*
X145192000Y-117331500D01*
X145173921Y-117422387D01*
X145122438Y-117499438D01*
X145045387Y-117550921D01*
X144954500Y-117569000D01*
X144379500Y-117569000D01*
X144288613Y-117550921D01*
X144211562Y-117499438D01*
X144160079Y-117422387D01*
X144142000Y-117331500D01*
X144142000Y-116856500D01*
X144160079Y-116765613D01*
X144211562Y-116688562D01*
X144288613Y-116637079D01*
X144379500Y-116619000D01*
X144954500Y-116619000D01*
X145045387Y-116637079D01*
X145045387Y-116637079D01*
G37*
D11*
X144667000Y-117094000D03*
D10*
G36*
X114819387Y-101397079D02*
G01*
X114896438Y-101448562D01*
X114947921Y-101525613D01*
X114966000Y-101616500D01*
X114966000Y-102091500D01*
X114947921Y-102182387D01*
X114896438Y-102259438D01*
X114819387Y-102310921D01*
X114728500Y-102329000D01*
X114153500Y-102329000D01*
X114062613Y-102310921D01*
X113985562Y-102259438D01*
X113934079Y-102182387D01*
X113916000Y-102091500D01*
X113916000Y-101616500D01*
X113934079Y-101525613D01*
X113985562Y-101448562D01*
X114062613Y-101397079D01*
X114153500Y-101379000D01*
X114728500Y-101379000D01*
X114819387Y-101397079D01*
X114819387Y-101397079D01*
G37*
D11*
X114441000Y-101854000D03*
D10*
G36*
X116569387Y-101397079D02*
G01*
X116646438Y-101448562D01*
X116697921Y-101525613D01*
X116716000Y-101616500D01*
X116716000Y-102091500D01*
X116697921Y-102182387D01*
X116646438Y-102259438D01*
X116569387Y-102310921D01*
X116478500Y-102329000D01*
X115903500Y-102329000D01*
X115812613Y-102310921D01*
X115735562Y-102259438D01*
X115684079Y-102182387D01*
X115666000Y-102091500D01*
X115666000Y-101616500D01*
X115684079Y-101525613D01*
X115735562Y-101448562D01*
X115812613Y-101397079D01*
X115903500Y-101379000D01*
X116478500Y-101379000D01*
X116569387Y-101397079D01*
X116569387Y-101397079D01*
G37*
D11*
X116191000Y-101854000D03*
D12*
X125771000Y-106290000D03*
X126421000Y-106290000D03*
X127071000Y-106290000D03*
X127721000Y-106290000D03*
X127721000Y-101990000D03*
X127071000Y-101990000D03*
X126421000Y-101990000D03*
X125771000Y-101990000D03*
D13*
X118176000Y-104854000D03*
X120076000Y-104854000D03*
X120076000Y-102154000D03*
X119126000Y-102154000D03*
X118176000Y-102154000D03*
D14*
X154432000Y-117124000D03*
X155382000Y-115124000D03*
X153482000Y-115124000D03*
D10*
G36*
X160765387Y-108206911D02*
G01*
X160842438Y-108258394D01*
X160893921Y-108335445D01*
X160912000Y-108426332D01*
X160912000Y-108901332D01*
X160893921Y-108992219D01*
X160842438Y-109069270D01*
X160765387Y-109120753D01*
X160674500Y-109138832D01*
X160099500Y-109138832D01*
X160008613Y-109120753D01*
X159931562Y-109069270D01*
X159880079Y-108992219D01*
X159862000Y-108901332D01*
X159862000Y-108426332D01*
X159880079Y-108335445D01*
X159931562Y-108258394D01*
X160008613Y-108206911D01*
X160099500Y-108188832D01*
X160674500Y-108188832D01*
X160765387Y-108206911D01*
X160765387Y-108206911D01*
G37*
D11*
X160387000Y-108663832D03*
D10*
G36*
X159015387Y-108206911D02*
G01*
X159092438Y-108258394D01*
X159143921Y-108335445D01*
X159162000Y-108426332D01*
X159162000Y-108901332D01*
X159143921Y-108992219D01*
X159092438Y-109069270D01*
X159015387Y-109120753D01*
X158924500Y-109138832D01*
X158349500Y-109138832D01*
X158258613Y-109120753D01*
X158181562Y-109069270D01*
X158130079Y-108992219D01*
X158112000Y-108901332D01*
X158112000Y-108426332D01*
X158130079Y-108335445D01*
X158181562Y-108258394D01*
X158258613Y-108206911D01*
X158349500Y-108188832D01*
X158924500Y-108188832D01*
X159015387Y-108206911D01*
X159015387Y-108206911D01*
G37*
D11*
X158637000Y-108663832D03*
D10*
G36*
X119109387Y-113843079D02*
G01*
X119186438Y-113894562D01*
X119237921Y-113971613D01*
X119256000Y-114062500D01*
X119256000Y-114537500D01*
X119237921Y-114628387D01*
X119186438Y-114705438D01*
X119109387Y-114756921D01*
X119018500Y-114775000D01*
X118443500Y-114775000D01*
X118352613Y-114756921D01*
X118275562Y-114705438D01*
X118224079Y-114628387D01*
X118206000Y-114537500D01*
X118206000Y-114062500D01*
X118224079Y-113971613D01*
X118275562Y-113894562D01*
X118352613Y-113843079D01*
X118443500Y-113825000D01*
X119018500Y-113825000D01*
X119109387Y-113843079D01*
X119109387Y-113843079D01*
G37*
D11*
X118731000Y-114300000D03*
D10*
G36*
X117359387Y-113843079D02*
G01*
X117436438Y-113894562D01*
X117487921Y-113971613D01*
X117506000Y-114062500D01*
X117506000Y-114537500D01*
X117487921Y-114628387D01*
X117436438Y-114705438D01*
X117359387Y-114756921D01*
X117268500Y-114775000D01*
X116693500Y-114775000D01*
X116602613Y-114756921D01*
X116525562Y-114705438D01*
X116474079Y-114628387D01*
X116456000Y-114537500D01*
X116456000Y-114062500D01*
X116474079Y-113971613D01*
X116525562Y-113894562D01*
X116602613Y-113843079D01*
X116693500Y-113825000D01*
X117268500Y-113825000D01*
X117359387Y-113843079D01*
X117359387Y-113843079D01*
G37*
D11*
X116981000Y-114300000D03*
D14*
X134366000Y-103890000D03*
X135316000Y-101890000D03*
X133416000Y-101890000D03*
D10*
G36*
X138413387Y-105461079D02*
G01*
X138490438Y-105512562D01*
X138541921Y-105589613D01*
X138560000Y-105680500D01*
X138560000Y-106155500D01*
X138541921Y-106246387D01*
X138490438Y-106323438D01*
X138413387Y-106374921D01*
X138322500Y-106393000D01*
X137747500Y-106393000D01*
X137656613Y-106374921D01*
X137579562Y-106323438D01*
X137528079Y-106246387D01*
X137510000Y-106155500D01*
X137510000Y-105680500D01*
X137528079Y-105589613D01*
X137579562Y-105512562D01*
X137656613Y-105461079D01*
X137747500Y-105443000D01*
X138322500Y-105443000D01*
X138413387Y-105461079D01*
X138413387Y-105461079D01*
G37*
D11*
X138035000Y-105918000D03*
D10*
G36*
X136663387Y-105461079D02*
G01*
X136740438Y-105512562D01*
X136791921Y-105589613D01*
X136810000Y-105680500D01*
X136810000Y-106155500D01*
X136791921Y-106246387D01*
X136740438Y-106323438D01*
X136663387Y-106374921D01*
X136572500Y-106393000D01*
X135997500Y-106393000D01*
X135906613Y-106374921D01*
X135829562Y-106323438D01*
X135778079Y-106246387D01*
X135760000Y-106155500D01*
X135760000Y-105680500D01*
X135778079Y-105589613D01*
X135829562Y-105512562D01*
X135906613Y-105461079D01*
X135997500Y-105443000D01*
X136572500Y-105443000D01*
X136663387Y-105461079D01*
X136663387Y-105461079D01*
G37*
D11*
X136285000Y-105918000D03*
D10*
G36*
X127999387Y-108097079D02*
G01*
X128076438Y-108148562D01*
X128127921Y-108225613D01*
X128146000Y-108316500D01*
X128146000Y-108791500D01*
X128127921Y-108882387D01*
X128076438Y-108959438D01*
X127999387Y-109010921D01*
X127908500Y-109029000D01*
X127333500Y-109029000D01*
X127242613Y-109010921D01*
X127165562Y-108959438D01*
X127114079Y-108882387D01*
X127096000Y-108791500D01*
X127096000Y-108316500D01*
X127114079Y-108225613D01*
X127165562Y-108148562D01*
X127242613Y-108097079D01*
X127333500Y-108079000D01*
X127908500Y-108079000D01*
X127999387Y-108097079D01*
X127999387Y-108097079D01*
G37*
D11*
X127621000Y-108554000D03*
D10*
G36*
X126249387Y-108097079D02*
G01*
X126326438Y-108148562D01*
X126377921Y-108225613D01*
X126396000Y-108316500D01*
X126396000Y-108791500D01*
X126377921Y-108882387D01*
X126326438Y-108959438D01*
X126249387Y-109010921D01*
X126158500Y-109029000D01*
X125583500Y-109029000D01*
X125492613Y-109010921D01*
X125415562Y-108959438D01*
X125364079Y-108882387D01*
X125346000Y-108791500D01*
X125346000Y-108316500D01*
X125364079Y-108225613D01*
X125415562Y-108148562D01*
X125492613Y-108097079D01*
X125583500Y-108079000D01*
X126158500Y-108079000D01*
X126249387Y-108097079D01*
X126249387Y-108097079D01*
G37*
D11*
X125871000Y-108554000D03*
D10*
G36*
X155685387Y-106477079D02*
G01*
X155762438Y-106528562D01*
X155813921Y-106605613D01*
X155832000Y-106696500D01*
X155832000Y-107171500D01*
X155813921Y-107262387D01*
X155762438Y-107339438D01*
X155685387Y-107390921D01*
X155594500Y-107409000D01*
X155019500Y-107409000D01*
X154928613Y-107390921D01*
X154851562Y-107339438D01*
X154800079Y-107262387D01*
X154782000Y-107171500D01*
X154782000Y-106696500D01*
X154800079Y-106605613D01*
X154851562Y-106528562D01*
X154928613Y-106477079D01*
X155019500Y-106459000D01*
X155594500Y-106459000D01*
X155685387Y-106477079D01*
X155685387Y-106477079D01*
G37*
D11*
X155307000Y-106934000D03*
D10*
G36*
X153935387Y-106477079D02*
G01*
X154012438Y-106528562D01*
X154063921Y-106605613D01*
X154082000Y-106696500D01*
X154082000Y-107171500D01*
X154063921Y-107262387D01*
X154012438Y-107339438D01*
X153935387Y-107390921D01*
X153844500Y-107409000D01*
X153269500Y-107409000D01*
X153178613Y-107390921D01*
X153101562Y-107339438D01*
X153050079Y-107262387D01*
X153032000Y-107171500D01*
X153032000Y-106696500D01*
X153050079Y-106605613D01*
X153101562Y-106528562D01*
X153178613Y-106477079D01*
X153269500Y-106459000D01*
X153844500Y-106459000D01*
X153935387Y-106477079D01*
X153935387Y-106477079D01*
G37*
D11*
X153557000Y-106934000D03*
D13*
X153482000Y-104728000D03*
X155382000Y-104728000D03*
X155382000Y-102028000D03*
X154432000Y-102028000D03*
X153482000Y-102028000D03*
D10*
G36*
X119109387Y-106477079D02*
G01*
X119186438Y-106528562D01*
X119237921Y-106605613D01*
X119256000Y-106696500D01*
X119256000Y-107171500D01*
X119237921Y-107262387D01*
X119186438Y-107339438D01*
X119109387Y-107390921D01*
X119018500Y-107409000D01*
X118443500Y-107409000D01*
X118352613Y-107390921D01*
X118275562Y-107339438D01*
X118224079Y-107262387D01*
X118206000Y-107171500D01*
X118206000Y-106696500D01*
X118224079Y-106605613D01*
X118275562Y-106528562D01*
X118352613Y-106477079D01*
X118443500Y-106459000D01*
X119018500Y-106459000D01*
X119109387Y-106477079D01*
X119109387Y-106477079D01*
G37*
D11*
X118731000Y-106934000D03*
D10*
G36*
X117359387Y-106477079D02*
G01*
X117436438Y-106528562D01*
X117487921Y-106605613D01*
X117506000Y-106696500D01*
X117506000Y-107171500D01*
X117487921Y-107262387D01*
X117436438Y-107339438D01*
X117359387Y-107390921D01*
X117268500Y-107409000D01*
X116693500Y-107409000D01*
X116602613Y-107390921D01*
X116525562Y-107339438D01*
X116474079Y-107262387D01*
X116456000Y-107171500D01*
X116456000Y-106696500D01*
X116474079Y-106605613D01*
X116525562Y-106528562D01*
X116602613Y-106477079D01*
X116693500Y-106459000D01*
X117268500Y-106459000D01*
X117359387Y-106477079D01*
X117359387Y-106477079D01*
G37*
D11*
X116981000Y-106934000D03*
D10*
G36*
X150125387Y-101271079D02*
G01*
X150202438Y-101322562D01*
X150253921Y-101399613D01*
X150272000Y-101490500D01*
X150272000Y-101965500D01*
X150253921Y-102056387D01*
X150202438Y-102133438D01*
X150125387Y-102184921D01*
X150034500Y-102203000D01*
X149459500Y-102203000D01*
X149368613Y-102184921D01*
X149291562Y-102133438D01*
X149240079Y-102056387D01*
X149222000Y-101965500D01*
X149222000Y-101490500D01*
X149240079Y-101399613D01*
X149291562Y-101322562D01*
X149368613Y-101271079D01*
X149459500Y-101253000D01*
X150034500Y-101253000D01*
X150125387Y-101271079D01*
X150125387Y-101271079D01*
G37*
D11*
X149747000Y-101728000D03*
D10*
G36*
X151875387Y-101271079D02*
G01*
X151952438Y-101322562D01*
X152003921Y-101399613D01*
X152022000Y-101490500D01*
X152022000Y-101965500D01*
X152003921Y-102056387D01*
X151952438Y-102133438D01*
X151875387Y-102184921D01*
X151784500Y-102203000D01*
X151209500Y-102203000D01*
X151118613Y-102184921D01*
X151041562Y-102133438D01*
X150990079Y-102056387D01*
X150972000Y-101965500D01*
X150972000Y-101490500D01*
X150990079Y-101399613D01*
X151041562Y-101322562D01*
X151118613Y-101271079D01*
X151209500Y-101253000D01*
X151784500Y-101253000D01*
X151875387Y-101271079D01*
X151875387Y-101271079D01*
G37*
D11*
X151497000Y-101728000D03*
D10*
G36*
X124189387Y-103937079D02*
G01*
X124266438Y-103988562D01*
X124317921Y-104065613D01*
X124336000Y-104156500D01*
X124336000Y-104631500D01*
X124317921Y-104722387D01*
X124266438Y-104799438D01*
X124189387Y-104850921D01*
X124098500Y-104869000D01*
X123523500Y-104869000D01*
X123432613Y-104850921D01*
X123355562Y-104799438D01*
X123304079Y-104722387D01*
X123286000Y-104631500D01*
X123286000Y-104156500D01*
X123304079Y-104065613D01*
X123355562Y-103988562D01*
X123432613Y-103937079D01*
X123523500Y-103919000D01*
X124098500Y-103919000D01*
X124189387Y-103937079D01*
X124189387Y-103937079D01*
G37*
D11*
X123811000Y-104394000D03*
D10*
G36*
X122439387Y-103937079D02*
G01*
X122516438Y-103988562D01*
X122567921Y-104065613D01*
X122586000Y-104156500D01*
X122586000Y-104631500D01*
X122567921Y-104722387D01*
X122516438Y-104799438D01*
X122439387Y-104850921D01*
X122348500Y-104869000D01*
X121773500Y-104869000D01*
X121682613Y-104850921D01*
X121605562Y-104799438D01*
X121554079Y-104722387D01*
X121536000Y-104631500D01*
X121536000Y-104156500D01*
X121554079Y-104065613D01*
X121605562Y-103988562D01*
X121682613Y-103937079D01*
X121773500Y-103919000D01*
X122348500Y-103919000D01*
X122439387Y-103937079D01*
X122439387Y-103937079D01*
G37*
D11*
X122061000Y-104394000D03*
D10*
G36*
X159495387Y-103937079D02*
G01*
X159572438Y-103988562D01*
X159623921Y-104065613D01*
X159642000Y-104156500D01*
X159642000Y-104631500D01*
X159623921Y-104722387D01*
X159572438Y-104799438D01*
X159495387Y-104850921D01*
X159404500Y-104869000D01*
X158829500Y-104869000D01*
X158738613Y-104850921D01*
X158661562Y-104799438D01*
X158610079Y-104722387D01*
X158592000Y-104631500D01*
X158592000Y-104156500D01*
X158610079Y-104065613D01*
X158661562Y-103988562D01*
X158738613Y-103937079D01*
X158829500Y-103919000D01*
X159404500Y-103919000D01*
X159495387Y-103937079D01*
X159495387Y-103937079D01*
G37*
D11*
X159117000Y-104394000D03*
D10*
G36*
X157745387Y-103937079D02*
G01*
X157822438Y-103988562D01*
X157873921Y-104065613D01*
X157892000Y-104156500D01*
X157892000Y-104631500D01*
X157873921Y-104722387D01*
X157822438Y-104799438D01*
X157745387Y-104850921D01*
X157654500Y-104869000D01*
X157079500Y-104869000D01*
X156988613Y-104850921D01*
X156911562Y-104799438D01*
X156860079Y-104722387D01*
X156842000Y-104631500D01*
X156842000Y-104156500D01*
X156860079Y-104065613D01*
X156911562Y-103988562D01*
X156988613Y-103937079D01*
X157079500Y-103919000D01*
X157654500Y-103919000D01*
X157745387Y-103937079D01*
X157745387Y-103937079D01*
G37*
D11*
X157367000Y-104394000D03*
D10*
G36*
X146795387Y-114097079D02*
G01*
X146872438Y-114148562D01*
X146923921Y-114225613D01*
X146942000Y-114316500D01*
X146942000Y-114791500D01*
X146923921Y-114882387D01*
X146872438Y-114959438D01*
X146795387Y-115010921D01*
X146704500Y-115029000D01*
X146129500Y-115029000D01*
X146038613Y-115010921D01*
X145961562Y-114959438D01*
X145910079Y-114882387D01*
X145892000Y-114791500D01*
X145892000Y-114316500D01*
X145910079Y-114225613D01*
X145961562Y-114148562D01*
X146038613Y-114097079D01*
X146129500Y-114079000D01*
X146704500Y-114079000D01*
X146795387Y-114097079D01*
X146795387Y-114097079D01*
G37*
D11*
X146417000Y-114554000D03*
D10*
G36*
X145045387Y-114097079D02*
G01*
X145122438Y-114148562D01*
X145173921Y-114225613D01*
X145192000Y-114316500D01*
X145192000Y-114791500D01*
X145173921Y-114882387D01*
X145122438Y-114959438D01*
X145045387Y-115010921D01*
X144954500Y-115029000D01*
X144379500Y-115029000D01*
X144288613Y-115010921D01*
X144211562Y-114959438D01*
X144160079Y-114882387D01*
X144142000Y-114791500D01*
X144142000Y-114316500D01*
X144160079Y-114225613D01*
X144211562Y-114148562D01*
X144288613Y-114097079D01*
X144379500Y-114079000D01*
X144954500Y-114079000D01*
X145045387Y-114097079D01*
X145045387Y-114097079D01*
G37*
D11*
X144667000Y-114554000D03*
D10*
G36*
X131809387Y-101463079D02*
G01*
X131886438Y-101514562D01*
X131937921Y-101591613D01*
X131956000Y-101682500D01*
X131956000Y-102157500D01*
X131937921Y-102248387D01*
X131886438Y-102325438D01*
X131809387Y-102376921D01*
X131718500Y-102395000D01*
X131143500Y-102395000D01*
X131052613Y-102376921D01*
X130975562Y-102325438D01*
X130924079Y-102248387D01*
X130906000Y-102157500D01*
X130906000Y-101682500D01*
X130924079Y-101591613D01*
X130975562Y-101514562D01*
X131052613Y-101463079D01*
X131143500Y-101445000D01*
X131718500Y-101445000D01*
X131809387Y-101463079D01*
X131809387Y-101463079D01*
G37*
D11*
X131431000Y-101920000D03*
D10*
G36*
X130059387Y-101463079D02*
G01*
X130136438Y-101514562D01*
X130187921Y-101591613D01*
X130206000Y-101682500D01*
X130206000Y-102157500D01*
X130187921Y-102248387D01*
X130136438Y-102325438D01*
X130059387Y-102376921D01*
X129968500Y-102395000D01*
X129393500Y-102395000D01*
X129302613Y-102376921D01*
X129225562Y-102325438D01*
X129174079Y-102248387D01*
X129156000Y-102157500D01*
X129156000Y-101682500D01*
X129174079Y-101591613D01*
X129225562Y-101514562D01*
X129302613Y-101463079D01*
X129393500Y-101445000D01*
X129968500Y-101445000D01*
X130059387Y-101463079D01*
X130059387Y-101463079D01*
G37*
D11*
X129681000Y-101920000D03*
D14*
X140208000Y-117124000D03*
X141158000Y-115124000D03*
X139258000Y-115124000D03*
D10*
G36*
X122919387Y-113843079D02*
G01*
X122996438Y-113894562D01*
X123047921Y-113971613D01*
X123066000Y-114062500D01*
X123066000Y-114537500D01*
X123047921Y-114628387D01*
X122996438Y-114705438D01*
X122919387Y-114756921D01*
X122828500Y-114775000D01*
X122253500Y-114775000D01*
X122162613Y-114756921D01*
X122085562Y-114705438D01*
X122034079Y-114628387D01*
X122016000Y-114537500D01*
X122016000Y-114062500D01*
X122034079Y-113971613D01*
X122085562Y-113894562D01*
X122162613Y-113843079D01*
X122253500Y-113825000D01*
X122828500Y-113825000D01*
X122919387Y-113843079D01*
X122919387Y-113843079D01*
G37*
D11*
X122541000Y-114300000D03*
D10*
G36*
X121169387Y-113843079D02*
G01*
X121246438Y-113894562D01*
X121297921Y-113971613D01*
X121316000Y-114062500D01*
X121316000Y-114537500D01*
X121297921Y-114628387D01*
X121246438Y-114705438D01*
X121169387Y-114756921D01*
X121078500Y-114775000D01*
X120503500Y-114775000D01*
X120412613Y-114756921D01*
X120335562Y-114705438D01*
X120284079Y-114628387D01*
X120266000Y-114537500D01*
X120266000Y-114062500D01*
X120284079Y-113971613D01*
X120335562Y-113894562D01*
X120412613Y-113843079D01*
X120503500Y-113825000D01*
X121078500Y-113825000D01*
X121169387Y-113843079D01*
X121169387Y-113843079D01*
G37*
D11*
X120791000Y-114300000D03*
D10*
G36*
X124189387Y-101397079D02*
G01*
X124266438Y-101448562D01*
X124317921Y-101525613D01*
X124336000Y-101616500D01*
X124336000Y-102091500D01*
X124317921Y-102182387D01*
X124266438Y-102259438D01*
X124189387Y-102310921D01*
X124098500Y-102329000D01*
X123523500Y-102329000D01*
X123432613Y-102310921D01*
X123355562Y-102259438D01*
X123304079Y-102182387D01*
X123286000Y-102091500D01*
X123286000Y-101616500D01*
X123304079Y-101525613D01*
X123355562Y-101448562D01*
X123432613Y-101397079D01*
X123523500Y-101379000D01*
X124098500Y-101379000D01*
X124189387Y-101397079D01*
X124189387Y-101397079D01*
G37*
D11*
X123811000Y-101854000D03*
D10*
G36*
X122439387Y-101397079D02*
G01*
X122516438Y-101448562D01*
X122567921Y-101525613D01*
X122586000Y-101616500D01*
X122586000Y-102091500D01*
X122567921Y-102182387D01*
X122516438Y-102259438D01*
X122439387Y-102310921D01*
X122348500Y-102329000D01*
X121773500Y-102329000D01*
X121682613Y-102310921D01*
X121605562Y-102259438D01*
X121554079Y-102182387D01*
X121536000Y-102091500D01*
X121536000Y-101616500D01*
X121554079Y-101525613D01*
X121605562Y-101448562D01*
X121682613Y-101397079D01*
X121773500Y-101379000D01*
X122348500Y-101379000D01*
X122439387Y-101397079D01*
X122439387Y-101397079D01*
G37*
D11*
X122061000Y-101854000D03*
D10*
G36*
X140790387Y-110604079D02*
G01*
X140867438Y-110655562D01*
X140918921Y-110732613D01*
X140937000Y-110823500D01*
X140937000Y-111398500D01*
X140918921Y-111489387D01*
X140867438Y-111566438D01*
X140790387Y-111617921D01*
X140699500Y-111636000D01*
X140224500Y-111636000D01*
X140133613Y-111617921D01*
X140056562Y-111566438D01*
X140005079Y-111489387D01*
X139987000Y-111398500D01*
X139987000Y-110823500D01*
X140005079Y-110732613D01*
X140056562Y-110655562D01*
X140133613Y-110604079D01*
X140224500Y-110586000D01*
X140699500Y-110586000D01*
X140790387Y-110604079D01*
X140790387Y-110604079D01*
G37*
D11*
X140462000Y-111111000D03*
D10*
G36*
X140790387Y-108854079D02*
G01*
X140867438Y-108905562D01*
X140918921Y-108982613D01*
X140937000Y-109073500D01*
X140937000Y-109648500D01*
X140918921Y-109739387D01*
X140867438Y-109816438D01*
X140790387Y-109867921D01*
X140699500Y-109886000D01*
X140224500Y-109886000D01*
X140133613Y-109867921D01*
X140056562Y-109816438D01*
X140005079Y-109739387D01*
X139987000Y-109648500D01*
X139987000Y-109073500D01*
X140005079Y-108982613D01*
X140056562Y-108905562D01*
X140133613Y-108854079D01*
X140224500Y-108836000D01*
X140699500Y-108836000D01*
X140790387Y-108854079D01*
X140790387Y-108854079D01*
G37*
D11*
X140462000Y-109361000D03*
D10*
G36*
X130059387Y-103937079D02*
G01*
X130136438Y-103988562D01*
X130187921Y-104065613D01*
X130206000Y-104156500D01*
X130206000Y-104631500D01*
X130187921Y-104722387D01*
X130136438Y-104799438D01*
X130059387Y-104850921D01*
X129968500Y-104869000D01*
X129393500Y-104869000D01*
X129302613Y-104850921D01*
X129225562Y-104799438D01*
X129174079Y-104722387D01*
X129156000Y-104631500D01*
X129156000Y-104156500D01*
X129174079Y-104065613D01*
X129225562Y-103988562D01*
X129302613Y-103937079D01*
X129393500Y-103919000D01*
X129968500Y-103919000D01*
X130059387Y-103937079D01*
X130059387Y-103937079D01*
G37*
D11*
X129681000Y-104394000D03*
D10*
G36*
X131809387Y-103937079D02*
G01*
X131886438Y-103988562D01*
X131937921Y-104065613D01*
X131956000Y-104156500D01*
X131956000Y-104631500D01*
X131937921Y-104722387D01*
X131886438Y-104799438D01*
X131809387Y-104850921D01*
X131718500Y-104869000D01*
X131143500Y-104869000D01*
X131052613Y-104850921D01*
X130975562Y-104799438D01*
X130924079Y-104722387D01*
X130906000Y-104631500D01*
X130906000Y-104156500D01*
X130924079Y-104065613D01*
X130975562Y-103988562D01*
X131052613Y-103937079D01*
X131143500Y-103919000D01*
X131718500Y-103919000D01*
X131809387Y-103937079D01*
X131809387Y-103937079D01*
G37*
D11*
X131431000Y-104394000D03*
D10*
G36*
X127999387Y-111557079D02*
G01*
X128076438Y-111608562D01*
X128127921Y-111685613D01*
X128146000Y-111776500D01*
X128146000Y-112251500D01*
X128127921Y-112342387D01*
X128076438Y-112419438D01*
X127999387Y-112470921D01*
X127908500Y-112489000D01*
X127333500Y-112489000D01*
X127242613Y-112470921D01*
X127165562Y-112419438D01*
X127114079Y-112342387D01*
X127096000Y-112251500D01*
X127096000Y-111776500D01*
X127114079Y-111685613D01*
X127165562Y-111608562D01*
X127242613Y-111557079D01*
X127333500Y-111539000D01*
X127908500Y-111539000D01*
X127999387Y-111557079D01*
X127999387Y-111557079D01*
G37*
D11*
X127621000Y-112014000D03*
D10*
G36*
X126249387Y-111557079D02*
G01*
X126326438Y-111608562D01*
X126377921Y-111685613D01*
X126396000Y-111776500D01*
X126396000Y-112251500D01*
X126377921Y-112342387D01*
X126326438Y-112419438D01*
X126249387Y-112470921D01*
X126158500Y-112489000D01*
X125583500Y-112489000D01*
X125492613Y-112470921D01*
X125415562Y-112419438D01*
X125364079Y-112342387D01*
X125346000Y-112251500D01*
X125346000Y-111776500D01*
X125364079Y-111685613D01*
X125415562Y-111608562D01*
X125492613Y-111557079D01*
X125583500Y-111539000D01*
X126158500Y-111539000D01*
X126249387Y-111557079D01*
X126249387Y-111557079D01*
G37*
D11*
X125871000Y-112014000D03*
D10*
G36*
X114819387Y-103937079D02*
G01*
X114896438Y-103988562D01*
X114947921Y-104065613D01*
X114966000Y-104156500D01*
X114966000Y-104631500D01*
X114947921Y-104722387D01*
X114896438Y-104799438D01*
X114819387Y-104850921D01*
X114728500Y-104869000D01*
X114153500Y-104869000D01*
X114062613Y-104850921D01*
X113985562Y-104799438D01*
X113934079Y-104722387D01*
X113916000Y-104631500D01*
X113916000Y-104156500D01*
X113934079Y-104065613D01*
X113985562Y-103988562D01*
X114062613Y-103937079D01*
X114153500Y-103919000D01*
X114728500Y-103919000D01*
X114819387Y-103937079D01*
X114819387Y-103937079D01*
G37*
D11*
X114441000Y-104394000D03*
D10*
G36*
X116569387Y-103937079D02*
G01*
X116646438Y-103988562D01*
X116697921Y-104065613D01*
X116716000Y-104156500D01*
X116716000Y-104631500D01*
X116697921Y-104722387D01*
X116646438Y-104799438D01*
X116569387Y-104850921D01*
X116478500Y-104869000D01*
X115903500Y-104869000D01*
X115812613Y-104850921D01*
X115735562Y-104799438D01*
X115684079Y-104722387D01*
X115666000Y-104631500D01*
X115666000Y-104156500D01*
X115684079Y-104065613D01*
X115735562Y-103988562D01*
X115812613Y-103937079D01*
X115903500Y-103919000D01*
X116478500Y-103919000D01*
X116569387Y-103937079D01*
X116569387Y-103937079D01*
G37*
D11*
X116191000Y-104394000D03*
D10*
G36*
X114120387Y-108092079D02*
G01*
X114197438Y-108143562D01*
X114248921Y-108220613D01*
X114267000Y-108311500D01*
X114267000Y-108886500D01*
X114248921Y-108977387D01*
X114197438Y-109054438D01*
X114120387Y-109105921D01*
X114029500Y-109124000D01*
X113554500Y-109124000D01*
X113463613Y-109105921D01*
X113386562Y-109054438D01*
X113335079Y-108977387D01*
X113317000Y-108886500D01*
X113317000Y-108311500D01*
X113335079Y-108220613D01*
X113386562Y-108143562D01*
X113463613Y-108092079D01*
X113554500Y-108074000D01*
X114029500Y-108074000D01*
X114120387Y-108092079D01*
X114120387Y-108092079D01*
G37*
D11*
X113792000Y-108599000D03*
D10*
G36*
X114120387Y-109842079D02*
G01*
X114197438Y-109893562D01*
X114248921Y-109970613D01*
X114267000Y-110061500D01*
X114267000Y-110636500D01*
X114248921Y-110727387D01*
X114197438Y-110804438D01*
X114120387Y-110855921D01*
X114029500Y-110874000D01*
X113554500Y-110874000D01*
X113463613Y-110855921D01*
X113386562Y-110804438D01*
X113335079Y-110727387D01*
X113317000Y-110636500D01*
X113317000Y-110061500D01*
X113335079Y-109970613D01*
X113386562Y-109893562D01*
X113463613Y-109842079D01*
X113554500Y-109824000D01*
X114029500Y-109824000D01*
X114120387Y-109842079D01*
X114120387Y-109842079D01*
G37*
D11*
X113792000Y-110349000D03*
D10*
G36*
X115644387Y-108092079D02*
G01*
X115721438Y-108143562D01*
X115772921Y-108220613D01*
X115791000Y-108311500D01*
X115791000Y-108886500D01*
X115772921Y-108977387D01*
X115721438Y-109054438D01*
X115644387Y-109105921D01*
X115553500Y-109124000D01*
X115078500Y-109124000D01*
X114987613Y-109105921D01*
X114910562Y-109054438D01*
X114859079Y-108977387D01*
X114841000Y-108886500D01*
X114841000Y-108311500D01*
X114859079Y-108220613D01*
X114910562Y-108143562D01*
X114987613Y-108092079D01*
X115078500Y-108074000D01*
X115553500Y-108074000D01*
X115644387Y-108092079D01*
X115644387Y-108092079D01*
G37*
D11*
X115316000Y-108599000D03*
D10*
G36*
X115644387Y-109842079D02*
G01*
X115721438Y-109893562D01*
X115772921Y-109970613D01*
X115791000Y-110061500D01*
X115791000Y-110636500D01*
X115772921Y-110727387D01*
X115721438Y-110804438D01*
X115644387Y-110855921D01*
X115553500Y-110874000D01*
X115078500Y-110874000D01*
X114987613Y-110855921D01*
X114910562Y-110804438D01*
X114859079Y-110727387D01*
X114841000Y-110636500D01*
X114841000Y-110061500D01*
X114859079Y-109970613D01*
X114910562Y-109893562D01*
X114987613Y-109842079D01*
X115078500Y-109824000D01*
X115553500Y-109824000D01*
X115644387Y-109842079D01*
X115644387Y-109842079D01*
G37*
D11*
X115316000Y-110349000D03*
D10*
G36*
X117168387Y-108092079D02*
G01*
X117245438Y-108143562D01*
X117296921Y-108220613D01*
X117315000Y-108311500D01*
X117315000Y-108886500D01*
X117296921Y-108977387D01*
X117245438Y-109054438D01*
X117168387Y-109105921D01*
X117077500Y-109124000D01*
X116602500Y-109124000D01*
X116511613Y-109105921D01*
X116434562Y-109054438D01*
X116383079Y-108977387D01*
X116365000Y-108886500D01*
X116365000Y-108311500D01*
X116383079Y-108220613D01*
X116434562Y-108143562D01*
X116511613Y-108092079D01*
X116602500Y-108074000D01*
X117077500Y-108074000D01*
X117168387Y-108092079D01*
X117168387Y-108092079D01*
G37*
D11*
X116840000Y-108599000D03*
D10*
G36*
X117168387Y-109842079D02*
G01*
X117245438Y-109893562D01*
X117296921Y-109970613D01*
X117315000Y-110061500D01*
X117315000Y-110636500D01*
X117296921Y-110727387D01*
X117245438Y-110804438D01*
X117168387Y-110855921D01*
X117077500Y-110874000D01*
X116602500Y-110874000D01*
X116511613Y-110855921D01*
X116434562Y-110804438D01*
X116383079Y-110727387D01*
X116365000Y-110636500D01*
X116365000Y-110061500D01*
X116383079Y-109970613D01*
X116434562Y-109893562D01*
X116511613Y-109842079D01*
X116602500Y-109824000D01*
X117077500Y-109824000D01*
X117168387Y-109842079D01*
X117168387Y-109842079D01*
G37*
D11*
X116840000Y-110349000D03*
D10*
G36*
X118692387Y-108092079D02*
G01*
X118769438Y-108143562D01*
X118820921Y-108220613D01*
X118839000Y-108311500D01*
X118839000Y-108886500D01*
X118820921Y-108977387D01*
X118769438Y-109054438D01*
X118692387Y-109105921D01*
X118601500Y-109124000D01*
X118126500Y-109124000D01*
X118035613Y-109105921D01*
X117958562Y-109054438D01*
X117907079Y-108977387D01*
X117889000Y-108886500D01*
X117889000Y-108311500D01*
X117907079Y-108220613D01*
X117958562Y-108143562D01*
X118035613Y-108092079D01*
X118126500Y-108074000D01*
X118601500Y-108074000D01*
X118692387Y-108092079D01*
X118692387Y-108092079D01*
G37*
D11*
X118364000Y-108599000D03*
D10*
G36*
X118692387Y-109842079D02*
G01*
X118769438Y-109893562D01*
X118820921Y-109970613D01*
X118839000Y-110061500D01*
X118839000Y-110636500D01*
X118820921Y-110727387D01*
X118769438Y-110804438D01*
X118692387Y-110855921D01*
X118601500Y-110874000D01*
X118126500Y-110874000D01*
X118035613Y-110855921D01*
X117958562Y-110804438D01*
X117907079Y-110727387D01*
X117889000Y-110636500D01*
X117889000Y-110061500D01*
X117907079Y-109970613D01*
X117958562Y-109893562D01*
X118035613Y-109842079D01*
X118126500Y-109824000D01*
X118601500Y-109824000D01*
X118692387Y-109842079D01*
X118692387Y-109842079D01*
G37*
D11*
X118364000Y-110349000D03*
D10*
G36*
X120216387Y-108092079D02*
G01*
X120293438Y-108143562D01*
X120344921Y-108220613D01*
X120363000Y-108311500D01*
X120363000Y-108886500D01*
X120344921Y-108977387D01*
X120293438Y-109054438D01*
X120216387Y-109105921D01*
X120125500Y-109124000D01*
X119650500Y-109124000D01*
X119559613Y-109105921D01*
X119482562Y-109054438D01*
X119431079Y-108977387D01*
X119413000Y-108886500D01*
X119413000Y-108311500D01*
X119431079Y-108220613D01*
X119482562Y-108143562D01*
X119559613Y-108092079D01*
X119650500Y-108074000D01*
X120125500Y-108074000D01*
X120216387Y-108092079D01*
X120216387Y-108092079D01*
G37*
D11*
X119888000Y-108599000D03*
D10*
G36*
X120216387Y-109842079D02*
G01*
X120293438Y-109893562D01*
X120344921Y-109970613D01*
X120363000Y-110061500D01*
X120363000Y-110636500D01*
X120344921Y-110727387D01*
X120293438Y-110804438D01*
X120216387Y-110855921D01*
X120125500Y-110874000D01*
X119650500Y-110874000D01*
X119559613Y-110855921D01*
X119482562Y-110804438D01*
X119431079Y-110727387D01*
X119413000Y-110636500D01*
X119413000Y-110061500D01*
X119431079Y-109970613D01*
X119482562Y-109893562D01*
X119559613Y-109842079D01*
X119650500Y-109824000D01*
X120125500Y-109824000D01*
X120216387Y-109842079D01*
X120216387Y-109842079D01*
G37*
D11*
X119888000Y-110349000D03*
D10*
G36*
X121740387Y-108092079D02*
G01*
X121817438Y-108143562D01*
X121868921Y-108220613D01*
X121887000Y-108311500D01*
X121887000Y-108886500D01*
X121868921Y-108977387D01*
X121817438Y-109054438D01*
X121740387Y-109105921D01*
X121649500Y-109124000D01*
X121174500Y-109124000D01*
X121083613Y-109105921D01*
X121006562Y-109054438D01*
X120955079Y-108977387D01*
X120937000Y-108886500D01*
X120937000Y-108311500D01*
X120955079Y-108220613D01*
X121006562Y-108143562D01*
X121083613Y-108092079D01*
X121174500Y-108074000D01*
X121649500Y-108074000D01*
X121740387Y-108092079D01*
X121740387Y-108092079D01*
G37*
D11*
X121412000Y-108599000D03*
D10*
G36*
X121740387Y-109842079D02*
G01*
X121817438Y-109893562D01*
X121868921Y-109970613D01*
X121887000Y-110061500D01*
X121887000Y-110636500D01*
X121868921Y-110727387D01*
X121817438Y-110804438D01*
X121740387Y-110855921D01*
X121649500Y-110874000D01*
X121174500Y-110874000D01*
X121083613Y-110855921D01*
X121006562Y-110804438D01*
X120955079Y-110727387D01*
X120937000Y-110636500D01*
X120937000Y-110061500D01*
X120955079Y-109970613D01*
X121006562Y-109893562D01*
X121083613Y-109842079D01*
X121174500Y-109824000D01*
X121649500Y-109824000D01*
X121740387Y-109842079D01*
X121740387Y-109842079D01*
G37*
D11*
X121412000Y-110349000D03*
D10*
G36*
X160765387Y-109829879D02*
G01*
X160842438Y-109881362D01*
X160893921Y-109958413D01*
X160912000Y-110049300D01*
X160912000Y-110524300D01*
X160893921Y-110615187D01*
X160842438Y-110692238D01*
X160765387Y-110743721D01*
X160674500Y-110761800D01*
X160099500Y-110761800D01*
X160008613Y-110743721D01*
X159931562Y-110692238D01*
X159880079Y-110615187D01*
X159862000Y-110524300D01*
X159862000Y-110049300D01*
X159880079Y-109958413D01*
X159931562Y-109881362D01*
X160008613Y-109829879D01*
X160099500Y-109811800D01*
X160674500Y-109811800D01*
X160765387Y-109829879D01*
X160765387Y-109829879D01*
G37*
D11*
X160387000Y-110286800D03*
D10*
G36*
X159015387Y-109829879D02*
G01*
X159092438Y-109881362D01*
X159143921Y-109958413D01*
X159162000Y-110049300D01*
X159162000Y-110524300D01*
X159143921Y-110615187D01*
X159092438Y-110692238D01*
X159015387Y-110743721D01*
X158924500Y-110761800D01*
X158349500Y-110761800D01*
X158258613Y-110743721D01*
X158181562Y-110692238D01*
X158130079Y-110615187D01*
X158112000Y-110524300D01*
X158112000Y-110049300D01*
X158130079Y-109958413D01*
X158181562Y-109881362D01*
X158258613Y-109829879D01*
X158349500Y-109811800D01*
X158924500Y-109811800D01*
X159015387Y-109829879D01*
X159015387Y-109829879D01*
G37*
D11*
X158637000Y-110286800D03*
D10*
G36*
X146795387Y-111557079D02*
G01*
X146872438Y-111608562D01*
X146923921Y-111685613D01*
X146942000Y-111776500D01*
X146942000Y-112251500D01*
X146923921Y-112342387D01*
X146872438Y-112419438D01*
X146795387Y-112470921D01*
X146704500Y-112489000D01*
X146129500Y-112489000D01*
X146038613Y-112470921D01*
X145961562Y-112419438D01*
X145910079Y-112342387D01*
X145892000Y-112251500D01*
X145892000Y-111776500D01*
X145910079Y-111685613D01*
X145961562Y-111608562D01*
X146038613Y-111557079D01*
X146129500Y-111539000D01*
X146704500Y-111539000D01*
X146795387Y-111557079D01*
X146795387Y-111557079D01*
G37*
D11*
X146417000Y-112014000D03*
D10*
G36*
X145045387Y-111557079D02*
G01*
X145122438Y-111608562D01*
X145173921Y-111685613D01*
X145192000Y-111776500D01*
X145192000Y-112251500D01*
X145173921Y-112342387D01*
X145122438Y-112419438D01*
X145045387Y-112470921D01*
X144954500Y-112489000D01*
X144379500Y-112489000D01*
X144288613Y-112470921D01*
X144211562Y-112419438D01*
X144160079Y-112342387D01*
X144142000Y-112251500D01*
X144142000Y-111776500D01*
X144160079Y-111685613D01*
X144211562Y-111608562D01*
X144288613Y-111557079D01*
X144379500Y-111539000D01*
X144954500Y-111539000D01*
X145045387Y-111557079D01*
X145045387Y-111557079D01*
G37*
D11*
X144667000Y-112014000D03*
D10*
G36*
X146795387Y-106477079D02*
G01*
X146872438Y-106528562D01*
X146923921Y-106605613D01*
X146942000Y-106696500D01*
X146942000Y-107171500D01*
X146923921Y-107262387D01*
X146872438Y-107339438D01*
X146795387Y-107390921D01*
X146704500Y-107409000D01*
X146129500Y-107409000D01*
X146038613Y-107390921D01*
X145961562Y-107339438D01*
X145910079Y-107262387D01*
X145892000Y-107171500D01*
X145892000Y-106696500D01*
X145910079Y-106605613D01*
X145961562Y-106528562D01*
X146038613Y-106477079D01*
X146129500Y-106459000D01*
X146704500Y-106459000D01*
X146795387Y-106477079D01*
X146795387Y-106477079D01*
G37*
D11*
X146417000Y-106934000D03*
D10*
G36*
X145045387Y-106477079D02*
G01*
X145122438Y-106528562D01*
X145173921Y-106605613D01*
X145192000Y-106696500D01*
X145192000Y-107171500D01*
X145173921Y-107262387D01*
X145122438Y-107339438D01*
X145045387Y-107390921D01*
X144954500Y-107409000D01*
X144379500Y-107409000D01*
X144288613Y-107390921D01*
X144211562Y-107339438D01*
X144160079Y-107262387D01*
X144142000Y-107171500D01*
X144142000Y-106696500D01*
X144160079Y-106605613D01*
X144211562Y-106528562D01*
X144288613Y-106477079D01*
X144379500Y-106459000D01*
X144954500Y-106459000D01*
X145045387Y-106477079D01*
X145045387Y-106477079D01*
G37*
D11*
X144667000Y-106934000D03*
D10*
G36*
X146795387Y-109017079D02*
G01*
X146872438Y-109068562D01*
X146923921Y-109145613D01*
X146942000Y-109236500D01*
X146942000Y-109711500D01*
X146923921Y-109802387D01*
X146872438Y-109879438D01*
X146795387Y-109930921D01*
X146704500Y-109949000D01*
X146129500Y-109949000D01*
X146038613Y-109930921D01*
X145961562Y-109879438D01*
X145910079Y-109802387D01*
X145892000Y-109711500D01*
X145892000Y-109236500D01*
X145910079Y-109145613D01*
X145961562Y-109068562D01*
X146038613Y-109017079D01*
X146129500Y-108999000D01*
X146704500Y-108999000D01*
X146795387Y-109017079D01*
X146795387Y-109017079D01*
G37*
D11*
X146417000Y-109474000D03*
D10*
G36*
X145045387Y-109017079D02*
G01*
X145122438Y-109068562D01*
X145173921Y-109145613D01*
X145192000Y-109236500D01*
X145192000Y-109711500D01*
X145173921Y-109802387D01*
X145122438Y-109879438D01*
X145045387Y-109930921D01*
X144954500Y-109949000D01*
X144379500Y-109949000D01*
X144288613Y-109930921D01*
X144211562Y-109879438D01*
X144160079Y-109802387D01*
X144142000Y-109711500D01*
X144142000Y-109236500D01*
X144160079Y-109145613D01*
X144211562Y-109068562D01*
X144288613Y-109017079D01*
X144379500Y-108999000D01*
X144954500Y-108999000D01*
X145045387Y-109017079D01*
X145045387Y-109017079D01*
G37*
D11*
X144667000Y-109474000D03*
D10*
G36*
X146795387Y-103937079D02*
G01*
X146872438Y-103988562D01*
X146923921Y-104065613D01*
X146942000Y-104156500D01*
X146942000Y-104631500D01*
X146923921Y-104722387D01*
X146872438Y-104799438D01*
X146795387Y-104850921D01*
X146704500Y-104869000D01*
X146129500Y-104869000D01*
X146038613Y-104850921D01*
X145961562Y-104799438D01*
X145910079Y-104722387D01*
X145892000Y-104631500D01*
X145892000Y-104156500D01*
X145910079Y-104065613D01*
X145961562Y-103988562D01*
X146038613Y-103937079D01*
X146129500Y-103919000D01*
X146704500Y-103919000D01*
X146795387Y-103937079D01*
X146795387Y-103937079D01*
G37*
D11*
X146417000Y-104394000D03*
D10*
G36*
X145045387Y-103937079D02*
G01*
X145122438Y-103988562D01*
X145173921Y-104065613D01*
X145192000Y-104156500D01*
X145192000Y-104631500D01*
X145173921Y-104722387D01*
X145122438Y-104799438D01*
X145045387Y-104850921D01*
X144954500Y-104869000D01*
X144379500Y-104869000D01*
X144288613Y-104850921D01*
X144211562Y-104799438D01*
X144160079Y-104722387D01*
X144142000Y-104631500D01*
X144142000Y-104156500D01*
X144160079Y-104065613D01*
X144211562Y-103988562D01*
X144288613Y-103937079D01*
X144379500Y-103919000D01*
X144954500Y-103919000D01*
X145045387Y-103937079D01*
X145045387Y-103937079D01*
G37*
D11*
X144667000Y-104394000D03*
D10*
G36*
X137933387Y-112573079D02*
G01*
X138010438Y-112624562D01*
X138061921Y-112701613D01*
X138080000Y-112792500D01*
X138080000Y-113267500D01*
X138061921Y-113358387D01*
X138010438Y-113435438D01*
X137933387Y-113486921D01*
X137842500Y-113505000D01*
X137267500Y-113505000D01*
X137176613Y-113486921D01*
X137099562Y-113435438D01*
X137048079Y-113358387D01*
X137030000Y-113267500D01*
X137030000Y-112792500D01*
X137048079Y-112701613D01*
X137099562Y-112624562D01*
X137176613Y-112573079D01*
X137267500Y-112555000D01*
X137842500Y-112555000D01*
X137933387Y-112573079D01*
X137933387Y-112573079D01*
G37*
D11*
X137555000Y-113030000D03*
D10*
G36*
X139683387Y-112573079D02*
G01*
X139760438Y-112624562D01*
X139811921Y-112701613D01*
X139830000Y-112792500D01*
X139830000Y-113267500D01*
X139811921Y-113358387D01*
X139760438Y-113435438D01*
X139683387Y-113486921D01*
X139592500Y-113505000D01*
X139017500Y-113505000D01*
X138926613Y-113486921D01*
X138849562Y-113435438D01*
X138798079Y-113358387D01*
X138780000Y-113267500D01*
X138780000Y-112792500D01*
X138798079Y-112701613D01*
X138849562Y-112624562D01*
X138926613Y-112573079D01*
X139017500Y-112555000D01*
X139592500Y-112555000D01*
X139683387Y-112573079D01*
X139683387Y-112573079D01*
G37*
D11*
X139305000Y-113030000D03*
D10*
G36*
X133678387Y-108727079D02*
G01*
X133755438Y-108778562D01*
X133806921Y-108855613D01*
X133825000Y-108946500D01*
X133825000Y-109521500D01*
X133806921Y-109612387D01*
X133755438Y-109689438D01*
X133678387Y-109740921D01*
X133587500Y-109759000D01*
X133112500Y-109759000D01*
X133021613Y-109740921D01*
X132944562Y-109689438D01*
X132893079Y-109612387D01*
X132875000Y-109521500D01*
X132875000Y-108946500D01*
X132893079Y-108855613D01*
X132944562Y-108778562D01*
X133021613Y-108727079D01*
X133112500Y-108709000D01*
X133587500Y-108709000D01*
X133678387Y-108727079D01*
X133678387Y-108727079D01*
G37*
D11*
X133350000Y-109234000D03*
D10*
G36*
X133678387Y-110477079D02*
G01*
X133755438Y-110528562D01*
X133806921Y-110605613D01*
X133825000Y-110696500D01*
X133825000Y-111271500D01*
X133806921Y-111362387D01*
X133755438Y-111439438D01*
X133678387Y-111490921D01*
X133587500Y-111509000D01*
X133112500Y-111509000D01*
X133021613Y-111490921D01*
X132944562Y-111439438D01*
X132893079Y-111362387D01*
X132875000Y-111271500D01*
X132875000Y-110696500D01*
X132893079Y-110605613D01*
X132944562Y-110528562D01*
X133021613Y-110477079D01*
X133112500Y-110459000D01*
X133587500Y-110459000D01*
X133678387Y-110477079D01*
X133678387Y-110477079D01*
G37*
D11*
X133350000Y-110984000D03*
D10*
G36*
X159495387Y-101271079D02*
G01*
X159572438Y-101322562D01*
X159623921Y-101399613D01*
X159642000Y-101490500D01*
X159642000Y-101965500D01*
X159623921Y-102056387D01*
X159572438Y-102133438D01*
X159495387Y-102184921D01*
X159404500Y-102203000D01*
X158829500Y-102203000D01*
X158738613Y-102184921D01*
X158661562Y-102133438D01*
X158610079Y-102056387D01*
X158592000Y-101965500D01*
X158592000Y-101490500D01*
X158610079Y-101399613D01*
X158661562Y-101322562D01*
X158738613Y-101271079D01*
X158829500Y-101253000D01*
X159404500Y-101253000D01*
X159495387Y-101271079D01*
X159495387Y-101271079D01*
G37*
D11*
X159117000Y-101728000D03*
D10*
G36*
X157745387Y-101271079D02*
G01*
X157822438Y-101322562D01*
X157873921Y-101399613D01*
X157892000Y-101490500D01*
X157892000Y-101965500D01*
X157873921Y-102056387D01*
X157822438Y-102133438D01*
X157745387Y-102184921D01*
X157654500Y-102203000D01*
X157079500Y-102203000D01*
X156988613Y-102184921D01*
X156911562Y-102133438D01*
X156860079Y-102056387D01*
X156842000Y-101965500D01*
X156842000Y-101490500D01*
X156860079Y-101399613D01*
X156911562Y-101322562D01*
X156988613Y-101271079D01*
X157079500Y-101253000D01*
X157654500Y-101253000D01*
X157745387Y-101271079D01*
X157745387Y-101271079D01*
G37*
D11*
X157367000Y-101728000D03*
M02*
